<?xml version="1.0" standalone="no"?>
<!DOCTYPE svg PUBLIC "-//W3C//DTD SVG 20010904//EN"
 "http://www.w3.org/TR/2001/REC-SVG-20010904/DTD/svg10.dtd">
<svg version="1.0" xmlns="http://www.w3.org/2000/svg"
 width="260.000000pt" height="260.000000pt" viewBox="0 0 260.000000 260.000000"
 preserveAspectRatio="xMidYMid meet">
<metadata>
Created by potrace 1.11, written by Peter Selinger 2001-2013
</metadata>
<g transform="translate(0.000000,260.000000) scale(0.100000,-0.100000)"
fill="#000000" stroke="none">
<path d="M0 1300 l0 -1300 1300 0 1300 0 0 1300 0 1300 -1300 0 -1300 0 0
-1300z m1050 530 l0 -69 -102 -3 -103 -3 0 -455 0 -455 103 -3 102 -3 0 -69 0
-70 -175 0 -175 0 0 600 0 600 175 0 175 0 0 -70z m850 11 l0 -60 -275 -237
c-151 -130 -275 -240 -275 -244 0 -5 124 -115 275 -245 l275 -237 0 -59 0 -59
-200 0 -200 0 0 70 0 69 80 3 81 3 -261 224 c-143 123 -260 227 -260 231 0 4
117 108 260 231 l261 224 -81 3 -80 3 0 69 0 70 200 0 200 0 0 -59z"/>
</g>
</svg>
