<svg xmlns="http://www.w3.org/2000/svg" viewBox="0 0 186 277"><title>  Group</title><g fill="none"><g fill="#383747"><path d="m65.9 35.9c-0.3 0.1-0.5 0.3-0.8 0.4 0 0.3 0.1 0.6 0.1 0.9 0.4-0.2 0.6-0.3 0.8-0.4-0.1-0.3-0.1-0.6-0.2-1zm0.2 20.2c0 0.6-0.1 1.1-0.1 1.7 0.7-0.4 0.9-1 1.1-1.6-0.4 0-0.7-0.1-1-0.1zm-5.2-24.1c1.8-0.1 3.1-0.5 3.7-1.7 1-0.6 1.7-0.3 2.4 0.1 0.3-0.3 0.6-0.5 0.9-0.7-0.3-0.7-0.3-0.7 0-1.5 0.1-0.2 0-0.4 0-0.6-0.3 0-0.6-0.1-0.8-0.1-0.3 0-0.7 0-1 0.1-1 0.3-1.9 0.9-2.9 1.1-0.8 0.2-1.1 0.9-1.2 1.4-0.1 0.7-0.3 1.2-1 1.8zm72.7-12c1.3-1 1.8-3 3.6-3.7-0.1-0.1-0.2-0.1-0.3-0.1-2.6 0.4-5.2 1.1-7.8 1.4-1.3 0.1-2.6 0.4-3.9 0.6 0.5 0.3 0.3 0.9 0.5 1.4 0.2 0.4 0.3 0.7 0.1 1.1-0.2 0.6 0 0.7 0.6 0.8 0.6 0.1 1.1-0.3 1.6-0.4 1.2-0.2 2.3-0.9 3.6-0.5 0.1 0 0.2 0 0.3-0.1 0.6-0.2 1.2-0.3 1.7-0.5zm-48.5 111.5c0.2 0 0.3-0.1 0.4-0.1 0.6-0.1 1.2-0.4 1.7-0.2 0.8 0.3 1.4 0.1 2.1-0.2 0.6-0.3 1.1-0.3 1.8-0.2 0.7 0.1 1.5 0.5 2.2 0 0.6-0.4 1.2-0.4 1.8-0.2 0.3-0.2 0.6-0.5 0.9-0.6 1-0.1 2-0.1 3-0.2 0.5 0 0.9-0.1 1.3-0.2-0.1-1-0.2-1.7-0.3-2.5-0.1-0.7-0.1-1.5-0.2-2.1-1 0-2-0.1-2.9 0.2-1 0.3-2 0.5-2.9 0.6-1.5 0.2-2.9 0.4-4.4 0.5-0.7 0.1-1.3 0-2 0.4-0.4 0.2-0.9 0.3-1.4 0.3-0.6 0-1.1 0.3-1.6 0.5 0.1 0.4 0.3 0.9 0.2 1.2-0.3 1 0.1 1.8 0.3 2.8zm42.7-4.9c0.3-0.5 0.7-0.6 1.2-0.5 0.5 0.1 0.9 0 1.3-0.2 0.6-0.3 1.2-0.4 1.8-0.5 0.6-0.1 1.3-0.2 1.9-0.2 0.8 0 1.6-0.5 2.3 0.2 0.1-0.2 0.1-0.3 0.2-0.3 0.1-0.1 0.1-0.2 0.2-0.4 1.2-0.1 2.3-0.1 3.5-0.2 0.6-1.1 1.8-0.5 2.9-0.8 0-0.2 0.1-0.5 0-0.6-0.4-0.9-0.4-1.8-0.2-2.7 0.1-0.6-0.1-0.9-0.5-1.2-0.7 0.8-1.6 0.5-2.4 0.4-1.5-0.2-2.9 0.5-4.4 0.6-0.7 0.1-1.4 0.2-2.1 0.3-1.7 0.2-3.4 0.3-5 0.5-0.5 0-0.9 0-1.5 0.1 0 1.9 0.3 3.6 0.8 5.4zm-3.8 0.7c0-0.3 0.1-0.7 0-1.1-0.4-1.4-0.7-2.8-0.4-4.3-1.9-0.3-3.1-0.2-4.8 0.6-0.2 0.1-0.4 0.2-0.6 0.1-1.2-0.3-2.3-0.1-3.4 0.3-0.3 0.1-0.7 0.1-1 0.2-0.8 0.1-1.7 0.1-2.5 0.3-0.9 0.3-1.8 0.2-2.3 0.1-1.8 0.3-3.3 0.6-4.7 0.8-0.4 1.6-0.4 3.2-0.1 4.8 1.1-0.7 2-0.4 2.8 0 0.4-0.1 0.6-0.1 0.9-0.2 0.6-0.1 1.2 0.2 1.6-0.4 0.1-0.1 0.4-0.2 0.5-0.1 0.5 0.3 1 0 1.5 0 0.3 0 0.6 0.1 1.2 0.2 0.6-0.3 1.4-0.6 2.3-0.4 0.5 0.1 1.1 0.1 1.5-0.1 0.4-0.3 0.8-0.3 1.2-0.3 0.5 0 1 0 1.5 0 0.8-0.1 1.7-0.3 2.5-0.2 0.7 0.1 1.4 0.1 2.2-0.1zm-59.2-20.3c-0.5-0.8-0.9-1.7-1.8-2.1-0.2-0.1-0.2-0.3-0.4-0.5-1.4-1.6-3-2.6-5.2-2-0.1 0-0.3 0.1-0.4 0.1-1.1-0.2-2 0.4-2.7 1-0.9 0.7-1.6 1.6-2.3 2.5-0.3 0.4-0.5 0.9-0.7 1.4-0.2 0.6-0.3 1.1-0.5 1.8 0.1 0.5 0.3 1.1 0.3 1.7-0.1 1.1 0.1 2.1 0.1 3.2 0 0.4 0.2 0.6 0.6 0.6 0.9-0.2 1.9-0.3 2.8-0.7 1-0.5 2-1 3.2-1.1 0.3 0 0.6-0.2 0.9-0.4 0.9-0.6 1.6-1.4 2.6-1.9 0.7-0.4 1.3-1 1.6-1.7 0.3-0.6 0.8-1 1.3-1.2 0.5-0.2 0.6-0.5 0.8-0.8zm72.1-86.9c0.1 0.3 0.1 0.7 0.3 0.9 0.4 0.3 0.4 0.7 0.4 1.1 0.2 1.5 0.3 3 0.7 4.5 0.3 1.4 0.8 2.8 0.5 4.3-0.1 0.4 0.1 0.8 0.2 1.3 0.3 1.2 0.6 2.3 0.8 3.5 0.2 1.2 0.6 2.3 0.3 3.5-0.1 0.8-0.2 1.7 0.3 2.4 0.1 0.1 0.1 0.4 0.1 0.5-0.3 0.8 0 1.6 0 2.4 0 0.8 0 1.7 0.4 2.5 0.2 0.3 0.1 0.8 0 1.2 0 0.5-0.1 0.9-0.2 1.2 0.7 1.3 2 1.6 3 2.2 1 0.6 1.8 1.6 3.2 1.9-0.2-0.4-0.5-0.8-0.5-1.1 0-1.1-0.4-2-0.9-2.9-0.1-0.2 0-0.5-0.1-0.7-0.2-0.8 0.2-1.6-0.4-2.3-0.6-0.7-0.4-1.6-0.5-2.4-0.1-0.7-0.1-1.4-0.4-2.1-0.1-0.2-0.2-0.4-0.2-0.6 0-1.1-0.3-2.1-0.6-3.2-0.1-0.2-0.2-0.5-0.1-0.7 0.3-1.4-0.9-2.6-0.4-3.9 0-0.1-0.1-0.2-0.2-0.4-0.1-0.3-0.2-0.5-0.2-0.8-0.2-1.2-0.1-2.6-0.6-3.8-0.1-0.2-0.1-0.6 0-0.8 0.1-0.8-0.1-1.5 0.1-2.3 0.2-0.7-0.6-1.3-0.6-2-0.1-1.1-0.5-2.1-0.5-3.2 0-1.3-0.4-2.5-0.8-3.7-1 1.1-1.5 2.6-3 3.4zm-26.1 172.2c-0.1 0.5-0.1 0.9-0.2 1.4-0.3 1.2-0.6 2.4-0.9 3.6-0.3 1.4-0.6 2.7-0.9 4.1-0.1 0.5-0.2 1.1-0.3 1.6-0.2 0.7-0.4 1.4-0.6 2.2-0.1 0.4-0.2 0.8-0.4 1.2-0.6 1.2-1.3 2.4-1.9 3.7-0.5 1.2-1.1 2.3-2 3.2-0.6 0.6-0.8 1.5-1.7 1.9-0.3 0.1-0.6 0.3-0.9 0.4-0.2 0.9 0.5 1.1 1 1.5 1.1 1 2.3 1.5 3.7 1.1 0.6-0.2 1.4 0 2-0.6 0.4-0.4 1-0.6 1.4-1 0.4-0.4 0.8-0.9 1.1-1.4 0.1-0.1 0.2-0.1 0.2-0.1 0.2-1 0.3-2 0.5-2.9 0-0.1 0.1-0.2 0.2-0.4 0.4-0.5 0.4-1 0.4-1.6 0-0.9-0.2-1.8 0.4-2.6 0.2-0.3 0.2-0.7 0.2-1-0.2-1-0.3-2 0.2-2.9 0.1-0.1 0.1-0.4 0.1-0.5-0.4-0.7 0-1.3 0.2-1.9-0.3-0.7-0.4-1.3-0.1-2 0.2-0.6 0.2-1.3 0.3-1.9 0.2-1.4 0-2.8 0.4-4.2 0.3-1.2 0.5-2.4 0.7-3.6 0.1-0.7 0.3-1.4 0.2-2-0.1-0.6-0.1-1.2 0-1.8 0.2-0.7 0-0.8-0.7-1.1-0.2-0.1-0.4-0.1-0.7-0.2-0.1 0.6-0.3 1.1-0.2 1.5 0.2 0.9 0 1.7-0.5 2.5-0.2 0.4-0.6 0.9-0.5 1.3 0.3 1.1-0.4 1.8-0.8 2.8zm34.7-96.8c0.1 0.8 0.2 1.3 0.2 1.8 0.1 0.6 0 1.2 0.2 1.7 0.5 1 0 2.3 0.9 3.2 0.1 0.1-0.1 0.3 0 0.4 0.2 0.9-0.1 1.8 0.4 2.6 0.3 0.5 0.2 1.3 0.3 2 0 0.3 0 0.6 0 0.9 0.2 1.2 0.5 2.3 0.7 3.5 0.1 0.7 0.3 1.4-0.3 2.1 0.3 0.7 0.5 1.3 0.8 2 0.2 0.5 0.6 1.2 0.4 1.6-0.2 0.8 0 1.3 0.3 1.9 0.4 0.7 0.1 1.4 0.2 2.1 0.3 1.7 0.5 3.5 1 5.2 0.2 0.5 0.3 1 0.5 1.5 0.5 1.6 0.5 3.5 1.8 4.9 0.1 0.1 0.1 0.2 0.1 0.3-0.1 0.7 0.5 1.1 0.8 1.6 0.6-0.2 1.2-0.3 1.9-0.5-0.1-0.7-0.2-1.4-0.2-2-0.2-1.4-1-2.7-0.9-4.2 0-0.1 0-0.3-0.1-0.4-0.4-0.5-0.4-1.2-0.4-1.8 0-0.7 0-1.4-0.5-2-0.3-0.4-0.4-1-0.3-1.7 0.1-0.4 0.3-1 0.1-1.2-0.6-0.6-0.5-1.2-0.6-1.9-0.1-0.7 0-1.5-0.2-2.2-0.3-1.4-0.2-2.8-0.8-4.1-0.1-0.1-0.1-0.3 0-0.4 0.2-0.5 0.2-1 0-1.6-0.2-0.6-0.2-1.3-0.3-1.9-0.2-1.7-0.4-3.4-0.6-5.1-0.1-0.4-0.3-0.9-0.2-1.3 0.3-0.9-0.3-1.8-0.1-2.7 0.1-0.4-0.1-1-0.1-1.7-0.3-0.5-1.1-0.4-1.7-0.8-1-0.6-2.1-1.3-3.3-2zm-67.2 106.7c0.1 0.3 0.2 0.7 0.5 0.9 1 1.2 2 2.3 3.3 3.1 0.4 0.3 0.8 0.5 1.1 0.9 0.2 0.2 0.5 0.3 0.7 0.4 0.3 0.1 0.6 0.1 0.8 0.3 1.1 0.9 2.6 1 3.8 1.7 0.9 0.5 1.9 0.6 2.8 1.1 0.3 0.2 0.7 0.2 1.1 0.4 0.8 0.5 2 0.1 2.5 1.1 0.7-0.1 1.5 0.2 2.1-0.4 0-0.2-0.1-0.5-0.1-0.8 0-0.2 0-0.5 0-0.7 0.3-0.8 0.2-1.5 0-2.2-0.1-0.2-0.3-0.4-0.3-0.7 0-1-0.5-1.8-0.9-2.7-0.3-0.7-0.7-1.4-1-2-0.5-0.3-0.8-0.6-1.2-0.8-1-0.6-1.5-1.9-2.8-2-0.1 0-0.1-0.2-0.2-0.3-0.5-0.5-1.2-0.6-1.9-0.7-1.3-0.2-2.5 0.6-3.7 0-0.1 0-0.1 0-0.2 0-0.7 0.5-1.5 0.3-2.3 0.4-0.4 0-0.8 0.1-1.1 0.4-1 0.8-2.3 1.3-3 2.5zm-21.3-113.5c0.7-0.5 1.3-1 1.9-1.5 0.3-0.2 0.5-0.4 0.7-0.6 0.6-0.6 1-1.3 1.9-1.4 0.1 0 0.3-0.2 0.3-0.3 0.3-0.9 1.1-1.1 1.7-1.5 0.1-0.1 0.3-0.2 0.4-0.3 0.9-0.8 1.7-1.6 2.6-2.4 0.5-0.4 0.9-0.9 1.3-1.4 0.4-0.4 0.5-0.9 0.1-1.4-0.5-0.6-0.8-1.4-1.3-2-0.5-0.6-0.7-1.4-1.5-1.7-0.1 0-0.1-0.1-0.1-0.2-1.1-1.3-2.2-2.7-3.3-4-0.4 0.6-0.8 1.1-1.2 1.6-0.7 0.9-1.7 1.6-2.4 2.6-0.7 0.9-1.6 1.7-2.2 2.8-0.6 1.2-1.3 2.3-1.8 3.5-0.1 0.2-0.2 0.4-0.3 0.4-0.6 0.4-0.5 0.9-0.2 1.5-0.3 0.2-0.6 0.5-0.9 0.7 0.1 0 0.1 0.1 0.2 0.1-0.2 0.5-0.3 1-0.5 1.5 0.7 0.3 1.2 0.8 1.6 1.5 0.1 0.2 0.2 0.5 0.4 0.6 1 0.5 2 0.9 2.6 1.9zm102 114.6c-0.2-0.3-0.4-0.7-0.7-0.8-0.9-0.4-1.8-0.9-2.6-1.5-0.2-0.2-0.6-0.1-0.9-0.1-1.1-0.1-2.3-0.1-3.3-0.8-0.1-0.1-0.3-0.1-0.5-0.1-0.5-0.1-1 0-1.5-0.2-0.9-0.2-1.7-0.7-2.6-0.8-0.7-0.1-1.5-0.5-2 0.5 0 0.1-0.2 0.1-0.3 0.1-0.7 0.3-1.5 0.6-2.2 1-0.6 0.3-1.2 0.4-1.7 0.8-1 0.7-1.8 1.5-2.8 2.1-1.1 0.7-1 1.8-1 2.8 0 0.7 0.8 1.1 1.5 1.4 0.5 0.2 1 0.6 1.6 0.2 0 0 0.1 0 0.2 0 1.2 0.3 2.4 0.5 3.6 0.7 1.1 0.3 2.2-0.1 3.3 0.2 0.1 0 0.3 0 0.4-0.1 1.5-0.3 3-0.7 4.5-0.8 1.4-0.1 2.6-0.7 3.9-1.1 1.6-0.5 2.7-1.7 3.1-3.5zm21.5-83.2c0 0-0.1 0-0.3 0-0.7-0.2-1.3 0.3-2.1 0.4-1.7 0.2-3.4 0.1-5 0.7-0.1 0-0.2 0.1-0.3 0-0.9-0.4-1.6 0.1-2.4 0.4 0.1 1 0.1 2-1.3 2.1 0.4 1.2 0.5 2.3 0.2 3.4-0.1 0.3 0 0.6 0 0.9 0.1 0.9 0.1 1.7 0.2 2.6 0.1 0.8 0.2 1.7 0.2 2.5 0 0.3 0.1 0.7 0 1-0.1 1.2 0.1 1.6 1.3 2 1 0.4 2 0.6 3 1 0.4 0 0.8-0.5 1.3-0.2 0.4 0.3 0.8 0.2 1.2 0.1 0.5-0.2 1-0.1 1.5-0.4 0.7-0.4 1.6-0.5 2.3-0.8 0.7-0.4 1.6-0.6 1.9-1.5 0-0.6 0-1.2 0.1-1.8 0-0.3 0.1-0.6 0-0.9-0.1-1.5-0.3-3-0.4-4.5-0.1-1.3-0.3-2.5-0.7-3.7-0.2-0.5-0.4-1-0.1-1.3-0.3-0.7-0.5-1.2-0.7-1.8zm-32.3 133.2c0.2 0.8 0.5 1.5 0.6 2.2 0.2 1.3 0.5 2.6 0.5 3.9 0 0.1 0.1 0.3 0.1 0.4 0.3 1.4 0.7 2.9 1.2 4.2 0.2 0.4 0.4 1 0.3 1.4-0.2 0.5 0.1 0.8 0.3 1.2 0.4 0.7 0.8 1.3 1.1 2 0.4 1 0.6 2.1 1.7 2.6 0.1 0 0.2 0.1 0.2 0.2 0.4 0.4 0.8 0.9 1.2 1.3 0.4 0.4 1 0.7 1.5 1 0.1 0.1 0.3 0.1 0.4 0.1 1.2 0 2.4 0 3.3-0.8 0.3-0.3 0.8-0.5 0.9-0.8 0.1-0.9 0.9-1.5 1-2.3 0.3-1.4 0.6-2.8 0.3-4.3-0.1-0.4 0-0.8 0-1.2 0-0.3 0-0.6-0.1-0.8-0.1-0.3-0.2-0.5-0.3-0.8-0.3-1-0.5-2.1-0.9-3.1-0.3-0.8-0.6-1.7-0.8-2.5-0.2-0.5-0.2-1-0.4-1.5-0.2-0.7-0.3-1.4-0.2-2.2 0-0.3-0.2-0.7-0.3-0.9-0.6-0.1-1-0.3-1.5-0.2-0.6 0.1-1.3 0.3-1.9 0.4-1.6 0.4-3.1 0.7-4.7 1-0.2 0-0.4 0-0.5 0-0.4-0.3-0.9-0.2-1.3-0.2-0.4 0-0.7-0.1-1.1-0.1-0.3 0-0.5-0.1-0.8-0.1zm-138-162.8c0 0.2 0 0.4 0 0.6 0.2 0.6 0.3 1.3 0 1.9-0.1 0.2 0 0.4 0 0.5 0.1 2 0.6 3.8 1.4 5.6 0.4 0.9 0.1 1.6-0.7 2.2-0.2 0.1-0.3 0.3-0.5 0.4-0.4 0.4-0.9 0.7-1.4 1-0.4 0.3-0.9 0.4-1.3 0.7-0.5 0.3-0.9 0.8-1.4 1.1-0.5 0.4-1.2 0.7-1.4 1.4-1 0-1 0.9-1.4 1.4-0.7 0.8-0.6 1.7-0.5 2.7 0.1 0.4 0.2 0.9 0.1 1.3-0.2 0.5 0 0.9 0.1 1.4 0.2 1.1 0.8 2.1 0.7 3.2 0 0.3 0.2 0.8 0.4 1.1 0.3 0.4 0.5 0.8 0.5 1.4 0 0.6 0.8 1.7 1.4 1.9 1.5 0.4 3 0.5 4.4 0.2 1.3-0.3 2.6-0.8 3.8-1.3 0.1-0.1 0.3-0.2 0.3-0.4 0.6-1 0.8-2.2 0.8-3.4 0.1-1.3-0.1-2.7-0.2-4 0-0.1 0-0.3-0.1-0.4-0.4-0.3-0.3-0.8-0.4-1.2 0-0.3-0.2-0.5-0.3-0.8-0.3-0.7-0.5-1.4-0.8-2.1-0.3-0.7-0.3-1.7-1-2.2-0.8-0.6-1-1.3-0.9-2.3 0.1-0.1 0.3-0.2 0.4-0.3 0.8-0.4 1.5 0.6 2.4 0.1 0.1-0.1 0.4 0.1 0.6 0.2 1.1 0.8 1.5 2.3 2.5 3.3 0 0 0.1 0.1 0.1 0.2-0.3 0.8 0.3 1.5 0.5 2.2 0.1 0.5 0.5 1 0.7 1.5 0.4 1.1 1 2.1 0.9 3.3 0 0.3 0.1 0.7 0 1-0.1 0.6 0 1.3-0.5 1.7 0.8 0.2 1.5-0.1 2.3-0.4 0.3-0.2 0.6-0.4 1.1-0.3 0.5 0 1.1-0.2 1.6-0.5 0.6-0.3 1.1-0.6 1.9-0.3-0.4-1.5-0.7-2.8-1-4 0-0.6 0.2-1.1 0-1.4-0.3-0.5-0.3-0.9-0.3-1.4 0-0.7 0.1-1.4-0.1-2.1-0.3-0.8-0.3-1.5-0.3-2.3 0-0.3-0.1-0.5-0.4-0.7-0.5-0.4-1.2-0.2-1.7-0.5-0.8-0.5-1.6-0.6-2.4-0.1-1.1-0.7-2.8-0.5-3-2.3-0.5 0.2-0.5 1.1-1.2 0.6-0.3-0.8-0.8-1.7-1-2.5-0.2-0.9-0.5-1.8-0.4-2.6 0.1-0.9-1.1-1.6-0.2-2.5-0.1-0.1-0.4-0.3-0.4-0.4 0-0.2 0.2-0.4 0.3-0.6 0.1-0.2 0.3-0.3 0.4-0.5 0 0-0.1-0.1-0.2-0.2-0.1 0.2-0.3 0.4-0.6 0.7-0.4-1.1-1.2-1.4-2.2-1.5-0.4 0.2-0.8 0.5-1.3 0.8zm87.1-35.6c1.1-0.7 2.3-1.1 3.6-0.8 0.8 0.2 1.4 0 2-0.4 0.6-0.3 1.2-0.8 2-0.4 0.1 0 0.3-0.1 0.4-0.1 0.3-0.1 0.7-0.2 1-0.3 0.3-0.1 0.6 0 0.8-0.1 0.9-0.4 1.8-0.7 2.9-0.8 0.4 0 0.8-0.2 1.2-0.3 0.4-0.1 0.8-0.2 1.1-0.3 1.4-0.3 2.8-0.8 3.7-1.9 0.8-1 2-1.4 2.9-2.4-0.1-0.6 0.4-1 1-1.3 0.7-0.4 1-0.9 1.3-1.6 0.1-0.2 0.2-0.5 0.4-0.6 0.5-0.4 1-0.8 1.5-1.2 0.2-1.5 0.9-2.7 0.9-4.2 0-0.8 0.5-1.5 0.1-2.3-0.1-0.2 0.1-0.5 0.2-0.7 0.1-0.2 0.2-0.4 0.2-0.6-0.1-0.9-0.2-1.8-0.3-2.7 0-0.2-0.1-0.4 0-0.6 0.2-1.3 0-2.5-0.5-3.8-0.2-0.4-0.3-0.9-0.3-1.3 0-0.4 0.1-0.8-0.1-1.2-0.1-0.3 0-0.8-0.4-1.2-0.1-0.1 0-0.6 0.2-0.8 0.1-0.2 0.3-0.3 0.6-0.5-0.6-0.9-0.8-1.8-0.6-2.8-0.6-0.3-0.6-0.9-0.8-1.4-0.3-1-0.7-2-1.1-2.9-0.1-0.3-0.5-0.4-0.7-0.7-0.2-0.2-0.4-0.4-0.5-0.7-0.2-1.2-1.1-1.9-1.9-2.7-1.2-1.1-2.5-2.1-3.6-3.2-0.4-0.4-0.8-0.8-1.4-1-0.6-0.2-1.1-0.5-1.5-0.9-0.2-0.2-0.5-0.3-0.7-0.4-1.2-0.4-2.5-0.8-3.7-1.1-0.1 0-0.1-0.1-0.2-0.1-0.6-0.5-1.3-0.7-2.1-0.7-0.7 0-1.4 0-2-0.4-0.4-0.3-0.9-0.4-1.3-0.5-1.3-0.1-2.6-0.2-3.9-0.2-1.4 0-2.9 0.5-4.3 0.4-0.1 0-0.3 0.1-0.4 0.1-1.1 0.7-2.4 0.5-3.6 0.9-0.5 0.2-1.2 0.1-1.6 0.3-0.9 0.5-1.7 0.8-2.5 0.3-0.6 1.2-1.8 1.5-2.7 1.7-0.5 0.4-0.7 0.7-1.1 0.8-0.9 0.4-1.6 1-2.3 1.5-0.7 0.6-1.2 1.4-2 1.8-1 0.6-1.1 1.8-2 2.5-0.7 1.8-2.1 3.2-2.5 5.2 0 0.1-0.1 0.2-0.2 0.4-0.2 0.6-0.5 1.2-0.7 1.9-0.4 1.4 0 2.9-0.9 4.1-0.1 0.1 0 0.3 0 0.4 0.1 1 0.2 2 0.2 2.9 0 1.1-0.2 2.3-0.4 3.4 0.1 0.3 0.4 0.5 0.4 0.7 0 0.8 0 1.5 0.4 2.2 0.2 0.4 0.4 0.8 0.5 1.3 0.5 1.6 1.2 3.2 1.5 4.8 0.1 0.4 0.2 0.8 0.4 1.2 0.6 0.9 1.2 1.7 1.1 2.9 0 0.1 0 0.1 0.1 0.2 0.7 2.1 2.1 3.7 3.8 5 0.6 0.4 1.1 0.8 1.5 1.3 0.9 0.1 2.7 1.2 3.1 1.8 0.6 0.3 1 0.5 1.3 0.7 1.5 1.2 3.1 1.9 5.1 1.9 0.4 0 0.9 0 1.3 0.1 0.7 0.2 1.3 0.1 2-0.2 0.3-0.2 0.7-0.3 1-0.4 0.7-0.2 1.3-0.3 2-0.4 0.5-0.1 0.9-0.2 1.3 0.2zm64.3 150.7c-1 1-1.8 1.9-2.7 2.8-0.2 0.2-0.6 0.4-0.9 0.5-0.5 0.2-1 0.3-1.5 0.4-1 0.2-2.1 0.5-3 1-0.1 0.1-0.4 0-0.5 0.1-0.9 0.3-2 0-2.8 0.7-0.1 0.1-0.3 0.1-0.4 0.1-0.5-0.1-0.9 0-1.3 0.3-0.1 0.1-0.3 0.1-0.4 0.1-1.1-0.3-2.2-0.2-3.3 0.2-0.2 0.1-0.5-0.1-0.7-0.2-0.7-0.4-1.5-0.6-2.3-0.3-0.4 0.2-0.9 0.1-1.4 0-1-0.3-2-0.5-2.9-1-0.6-0.3-1.1-0.5-1.5-1.1-0.4 0.4-0.7 0.8-0.9 1 0 0.8 0 1.4 0.1 2 0.1 0.8 0.2 1.7 0.4 2.5 0.1 0.4 0.4 0.8 0.6 1.3 1.2 0.3 1.3 0.4 1.2 1.6-0.3 0.2-0.7 0.3-1.1 0.5 0.5 1.6 1 3.2 1.5 4.8 1.2 0.3 1.2 0.3 1.1 1.7-0.3 0.2-0.5 0.4-0.8 0.7 0.3 0.9 0.5 1.7 0.8 2.7 0.6-0.3 1 0.7 1.6 0.1 0 0.3 0 0.6 0 0.8h-0.8v1.1c0.7-0.3 1.1-0.3 1.6 0.1 0.2 0.2 0.4 0.6 0.3 0.7-0.3 0.6-0.7 0.9-1.5 0.7 0.4 1.1 0.6 2.3 1.4 3.1 0.1 0.1 0.2 0.2 0.1 0.3-0.4 0.6 0.3 0.8 0.4 1.2 1.5-0.2 1.8 0 2.3 1.2-0.5 0.3-0.9 0.5-1.6 0.9-0.2-0.2-0.4-0.5-0.6-0.7 0.3 0.6 0.8 1.2 0.9 1.8 0.1 1.5 1.2 2.6 1.4 4 0.4-0.2 0.6-0.3 0.8-0.4 0.3-0.2 0.6-0.4 0.9-0.1 0.2 0.2 0.3 0.6 0.3 0.9 0 0.7-0.4 1.1-1 1.4 0.8 1 0.8 2.5 1.7 3.1 0.6 0 1 0.2 1.4 0s0.6-0.5 0.9-0.7c0.7 0 1 0.6 1.4 1.1 0.6-0.3 1.2-0.8 1.9-0.2 0.8-0.8 2.1-0.5 2.9-1.3 0.1-0.1 0.2 0 0.3 0 1.6-0.2 3.1-0.4 4.6-0.9 0.5-0.2 1-0.3 1.6 0-0.5-1-0.2-1.9 0-2.8 0-0.2 0.1-0.4 0-0.7-0.2-0.9-0.4-1.8 0-2.7 0.1-0.1 0-0.4-0.1-0.5-0.4-0.6-0.2-1.2-0.1-1.8 0-0.3 0.1-0.5 0-0.8-0.1-0.6-0.2-1.3-0.2-1.9 0-1.2 0.1-2.5 0.2-3.7 0-0.2 0.1-0.4 0-0.5-0.6-0.9-0.3-1.8-0.2-2.7 0.1-1.1 0.1-2.1 0.1-3.2 0-0.6-0.2-1.1 0.1-1.7 0.1-0.1 0.1-0.3 0-0.4-0.4-0.4-0.2-0.9-0.1-1.3 0-0.9 0.1-1.8 0.2-2.7 0-0.2-0.1-0.5-0.2-0.7-0.5-0.8-0.4-1.6-0.1-2.3 0.3-0.7-0.1-1.2-0.1-1.7 0-0.6 0.2-1.2 0.3-1.8 0 0 0-0.1 0-0.1-0.2-0.9-0.5-1.7-0.2-2.6 0.1-0.2 0-0.6-0.1-0.9 0-0.4-0.1-0.9-0.1-1.3 0-0.6 0-1.2 0.1-1.8zm-81.1-119.8c-0.4 1.1-0.1 1.7 0.8 2.4 0.3 0.2 0.6 0.6 0.7 1 0.1 0.5-0.6 0.4-0.9 0.6 0 0 0 0.1-0.2 0.2 0 0.8-0.1 1.8 0.5 2.5 0.5 0.7 0.3 1.1 0 1.7-0.1 0.2-0.3 0.4-0.3 0.6 0 1-0.1 2.1 0 3.1 0.1 1.1-0.3 1.8-1.1 2.4 0 0.2 0 0.5 0.1 0.6 0.6 0.9 0.9 2 0.8 3.1 0 0 0 0.1 0 0.1 0.2 1.3 0.4 2.5 0.6 3.8 0.2 1.2 0.4 2.4 0.7 3.6 0.1 0.5 0.3 0.9 0.1 1.4-0.1 0.3 0 0.7 0.1 1 0.3 0.7 0.6 1.5 0.4 2.3-0.1 0.4 0 0.7 0.4 1 0.3 0.2 0.5 0.5 1 1-0.5 0.2-0.8 0.2-1.1 0.3 0 0.1 0.1 0.3 0.1 0.4 0.1 0.3 0.3 0.6 0.3 0.9 0 1 0.5 1.9 0 2.9-0.1 0.1 0.1 0.4 0.2 0.6 0.1 0.4 0.2 0.9 0.3 1.4 0.9 0.1 1.7-0.2 2.5-0.6 0.3-0.2 0.8-0.5 1.1-0.4 0.6 0.3 0.9 0 1.4-0.2 0.4-0.2 0.9-0.4 1.4-0.2 0.4 0.2 1-0.1 1.5-0.2 0.2 0 0.4-0.1 0.6-0.1 0.8 0.2 1.7 0.1 2.4-0.3 0.2-0.1 0.6-0.2 0.8-0.2 1.7 0.1 3.4-0.1 5-0.6 0.7-0.2 1.4-0.4 2.1-0.3 0.3 0.1 0.7 0 0.9-0.2 0.7-0.5 1.4-0.4 2.2-0.4 1.3-0.1 2.6-0.7 3.9-0.5 0.4-0.7 1.1-0.2 1.7-0.3 0.7-0.1 1.5-0.3 2.2 0.2 0.4-0.7 1.1-0.7 1.7-0.7 0.7 0 1.5-0.2 2.2-0.3 0.8-0.1 1.6-0.3 2.5-0.4 0.2 0 0.3 0 0.5 0 0.3 0 0.7 0 1 0 0.5 0 0.9-0.2 1.4-0.2 0.6-0.1 1.3 0.1 1.9-0.4 0.2-0.2 0.6-0.3 0.8-0.2 1 0.3 1.8-0.1 2.7-0.3 0.8-0.1 1.6-0.1 2.4-0.2 0.5 0 1 0.1 1.5 0.1 0.7 0 1.4-0.1 2.1-0.2 0.5-0.1 1.1-0.1 1.6-0.2 0.5-0.2 0.9-0.3 1.2 0.3 0.2-0.3 0.4-0.5 0.5-0.6 1.3-0.1 2.6-0.2 3.9-0.3 0-0.6 0.2-1.2 0-1.6-0.5-1.2-0.1-2.5-0.8-3.6 0 0 0-0.1 0-0.2 0-0.9-0.5-1.8-0.3-2.8 0.1-0.4-0.3-0.8-0.4-1.2-0.1-0.3-0.2-0.7-0.1-0.9 0.2-0.9-0.1-1.7 0-2.6 0-0.2-0.1-0.5-0.2-0.6-0.7-0.7-0.5-1.7-0.6-2.5 0-1-0.1-2-0.6-2.8-0.6-1.1-0.4-2.2-0.3-3.3-0.5-2.1-1-4.2-1.4-6.1-0.7-0.6-1.3-1-2-1.6-0.1 0-0.4-0.1-0.6-0.1-0.3-0.4-0.6-0.8-0.9-1.2 0-0.1-0.1-0.1-0.1-0.2-0.2-0.2-0.5-0.4-0.8-0.5-0.7-0.1-1.2-0.7-1-1.3 0.2-0.6 0-1.1-0.2-1.6-0.3-0.8-0.7-1.7-0.2-2.5-0.6-0.8-0.6-0.8-0.6-1.7 0-0.3-0.1-0.6-0.2-0.9-0.1-0.3-0.2-0.7-0.3-1-0.4-1.4-0.7-2.8-1.1-4.2-0.6-2.1-1.1-4.1-1.3-6.3 0-0.2-0.1-0.4-0.2-0.6-0.4-0.5-0.3-1.1-0.1-1.5-0.1-0.5-0.4-0.9-0.3-1.2 0.1-0.4 0-0.7-0.1-1-0.2-0.8-0.5-1.6-0.1-2.5 0.1-0.1 0-0.3 0-0.4 0-1-0.1-2 0-3 0-0.8 0.3-1.7 0.2-2.5-0.1-1.2 0-2.4 0.4-3.2-0.2-1-0.3-1.6-0.4-2.4h-4c-0.7 0.5-1.4 1-2.1 1.5-0.2 0.2-0.6 0.4-0.6 0.7-0.1 0.6-0.5 0.8-0.9 1.1-0.2 0.1-0.3 0.3-0.5 0.5-0.2 0.2-0.3 0.5-0.5 0.7-0.5 0.5-1 0.6-1.7 0.9-1 0.4-1.9 1.1-2.8 1.7-0.2 0.1-0.5 0.3-0.8 0.3-1.6-0.1-2.9 1.1-4.5 1.1-0.9 0-1.7 0.7-2.6 0.6-0.2 0-0.5-0.1-0.6 0-0.9 0.6-2 0.4-3 0.5-1 0.1-2.2 0.1-3 0.6-0.9 0.5-1.7 0.4-2.6 0.6-1.1 0.2-2.3 0.3-3.4 0.6-1.4 0.3-2.9 0.1-4.3 0.1-1 0-2-0.2-3-0.2-0.3 0-0.5 0.1-0.8-0.1-0.8-0.6-1.9-0.2-2.7-0.8-0.1-0.1-0.3 0.1-0.4 0.1-0.9-0.6-1.8-1.2-2.6-1.7-2 1-3.8 2.1-5.6 3.4 0.5 0.8 0.8 1.4 0.4 2.2-0.1 0.1-0.1 0.4 0 0.5 0.4 1.2 0.8 2.5 1.3 3.7 0.5 1.2 0.5 2.6 1.3 3.7 0.1 0.1 0 0.2 0 0.3 0 0.9 0.3 1.7 0.9 2.5 0.7-0.5 1.4-0.3 1.4 0.3 0 0.5 0.5 0.4 0.4 0.8-0.3 0.6-0.8 0.9-1.4 0.8 0.2 0.8 0.4 1.5 0.6 2.3 0.6 0.5 0.7 0.5 0.4 1.5 0 0.1-0.1 0.3-0.1 0.4 0.2 1.2 0.5 2.4 0.6 3.7 0 0.6 0.3 1 0.5 1.5 0.6-0.3 1.2-0.2 1.6 0.2 0.4 0.3 0.5 0.8 0 1.1-0.4 0.3-0.9 0.5-1.5 0.8zm46.3 94.7 0 0c0 1.1-0.1 2.2 0.4 3.2 0.2-0.1 0.5-0.2 0.8-0.4 0.3 0.4 1.1 0.4 1.1 1.1 0 0.8-0.5 1.2-1.1 1.6 0.3 0.7 0.5 1.4 0.8 2 0.3 0.7 0.6 1.3 0.9 1.9 0.6 0.4 1.1 0.6 1.5 1 0.3 0.3 0.4 0.6 0.1 0.9-0.3 0.3-0.6 0.6-0.8 0.9 0 0.7 0.1 1.3 0.1 1.9 1.3 0.7 0.6 2 1 3.1 0.2-0.3 0.3-0.4 0.5-0.6 1.4 1 1.4 1.6 0.2 2.2 0 0.3 0.1 0.6 0.1 0.9 0 0.4 0.1 0.8 0.4 1.1 0.5 0.4 0.6 1 0.7 1.6 0.1 0.6 0.2 1.1 0.3 1.7 0.1 0.1 0.2 0.1 0.3 0.2 0.2-0.3 0.3-0.5 0.5-0.8 0.7-1 1.3-2.1 2.2-3 0.3-0.3 0.5-0.5 0.8-0.7 1-0.6 2-1.1 3-1.8 1.1-0.6 2.1-1.3 3.4-1.6 1-0.2 2-0.6 3-1 0.2-0.1 0.5-0.2 0.7-0.3 1.1-0.3 1.9 0.3 2 1.5 1 0.1 2 0.1 2.9 0.2 0.3 0 0.5 0.3 0.8 0.4 0.8 0.2 1.7 0.3 2.5 0.5 0.9 0.2 1.7 0.5 2.6 0.7 0.6 1 2 1.3 2.4 2.5 0 0.1 0.3 0.1 0.4 0.2 0.4-0.5 0.5-1 0.2-1.5-0.5-1-0.4-2 0-3-0.3-0.5-0.6-0.9-0.4-1.5 0.1-0.3 0.1-0.6 0-0.9-0.7-1.7 0.1-3.5-0.6-5.1 0-0.1 0-0.2 0-0.2 0.3-0.6 0.1-1.1-0.1-1.6-0.2-0.6 0-1 0.1-1.4-0.1-0.5-0.2-0.9-0.3-1.2-0.3-0.8 0.2-1.8-0.5-2.6 0-0.1 0-0.2 0-0.3 0.4-0.9 0.2-1.8 0-2.6-0.1-0.9-0.6-1.8-0.4-2.8 0.2-1.1-0.3-2-0.6-3-0.2-0.8-0.2-1.5 0.2-2.3-0.9-0.6-0.3-1.9-1.1-2.6-0.1-0.1 0-0.3 0-0.4 0-1 0.6-2-0.2-3 0 0 0-0.1 0-0.2 0.2-1-0.8-2-0.3-3.1 0.1-0.1-0.2-0.4-0.4-0.6-0.3-0.5-0.8-0.9-0.4-1.5 0.1-0.1 0-0.3-0.1-0.4-0.6-1.1-0.5-2.4-0.6-3.6-0.1-0.6-0.1-1-0.5-1.5-0.2-0.2-0.3-0.6-0.3-0.9 0-0.3-0.1-0.4-0.1-0.7-0.2-0.9-0.1-1.8-0.6-2.7 0 0 0-0.1 0-0.1 0.2-0.4-0.1-0.7-0.2-1.1-0.2-0.6-0.8-1.1-0.6-1.8 0.1-0.5 0-0.9-0.3-1.2-0.5-0.6-0.5-1.2-0.2-2-0.6-0.6-0.3-1.6-1-2.1-0.1 0 0-0.2-0.1-0.3-0.1-0.5-0.3-1-0.5-1.5-0.3-0.9-0.5-1.8-1.2-2.5-0.1-0.1-0.1-0.2-0.1-0.3 0.1-0.5-0.2-0.7-0.5-1-0.4-0.6-1-1.1-0.5-1.7-0.3-0.8-0.6-1.4-0.7-2.1-0.2-1-0.6-1.8-1.3-2.5-0.5 0.3-0.9 0.6-1.3 0.8-1.5-0.6-1.8-1-1.8-2.5 0-0.1 0-0.3 0-0.4 0-0.7-0.5-1.2-1.2-1.1-0.3 0-0.7 0.2-1 0.3-0.8 0.4-1.5 0.6-2.4 0.4-0.2 0-0.4-0.1-0.5 0-0.7 0.3-1.6 0.2-2.2 0.8-0.1 0.1-0.4 0.1-0.6 0.1-0.4-0.1-0.9-0.2-1.4-0.2-0.1-0.1-0.1-0.3-0.2-0.5 0 0-0.1 0-0.2 0 0 0.2 0 0.4 0 0.6-2.2 0.7-2.4 0.7-3.8 0.4-0.4 0.5-1 0.7-1.7 0.6-0.3 0-0.6 0.1-0.9 0.2-0.7 0.2-1.4 0.5-2.1 0.4-0.9 0-1.6 0.5-2.5 0.4-0.7-0.1-1.4 0.4-2.1 0.2-1.4-0.3-2.7 0.6-4 0.1-0.1 0-0.2 0.1-0.3 0.1-0.8 0.5-1.6 0.6-2.6 0.3-0.4-0.1-0.9 0-1.3 0-0.3 0-0.5 0-0.8-0.1 0 0.1 0.1 0.3 0.1 0.3-0.4 0-0.9-0.1-1.3-0.1-0.4 0-0.8 0.2-1.2 0.3-0.5 0.1-1 0.1-1.6 0.2-0.4 0-0.8 0.1-1.2 0.2-0.9 0.1-1.8 0.2-2.7 0.3-1.2 0.2-2.3 0.6-3.5 0.6-0.9 0-1.9 0.1-2.7 0.5-0.9 0.5-1.5 0.3-2.2-0.1-0.2 0.1-0.4 0.3-0.6 0.4-0.4 0.1-0.8 0.2-1.1 0.3-0.9 0.1-1.8 0.5-2.6 0.3-0.7-0.1-1.1 0.2-1.6 0.4-0.7-0.1-1.3-0.4-1.9-0.3-1.4 0.3-2.8 0.8-4.2 1.1 0 0.4-0.1 0.6-0.1 0.9-0.2 1.4-0.3 2.7-0.3 4.1 0 0.4-0.3 0.8-0.4 1.2-0.1 1.7 0.5 3.5-0.2 5.4 0.3 0.5 0.7 1.1-0.1 1.6-0.1 0 0 0.2 0 0.3-0.1 0.4-0.2 0.8-0.3 1.4 0.1 0.5 0.1 0.5-0.2 1.3-0.1 0.3-0.1 0.8-0.1 1.1 0.2-1.2 0.2-1.2 1.3-1.1 0 0.6 0.2 1.2-0.6 1.5-0.2 0-0.4 0.4-0.3 0.5 0.2 0.5-0.1 0.8-0.3 1.2-0.1 0.2 0 0.5 0 0.8 0.5 0.1 0.9 0.1 1.3 0.2 0.5 0.6 0.5 1.1 0.1 1.6-0.5 0.7-1 0.1-1.6 0.1-0.1 0.6-0.1 1.2-0.2 1.7 0 0.6-0.1 1.1-0.1 1.7 0 0.6-0.5 1.1-0.3 1.8 0.2 0.6 0 1.2-0.4 1.8-0.4 0.6-0.4 1.3-0.3 2 0.1 0.6 0.5 1 1 1.2-0.6 0.6-1.1 1.1-1.6 1.7-0.1 0.1-0.1 0.2-0.1 0.3 0 0.6 0.1 1.2 0.2 1.8 0 0.1 0.1 0.1 0.1 0.2 0.3 0 0.6 0.1 0.8 0.1 0.1 0.2 0.2 0.3 0.2 0.4 0 0.3 0.1 0.7-0.1 0.9-0.2 0.2-0.6 0.2-0.9 0.1-0.3 0-0.6-0.1-0.9-0.2 0.1 0.3 0.1 0.5 0.1 0.7 0 0.5 0.2 1.2 0 1.6-0.6 1.2-0.6 2.3-0.2 3.5-0.1 0.4-0.3 0.7-0.4 1-0.1 0.9-0.1 1.7-0.2 2.6 0 0.2 0.2 0.4 0.3 0.6 0.1 0.3 0.2 0.7 0.1 0.9-0.5 0.7-0.2 1.6-0.6 2.4-0.1 0.3 0 0.7 0 1 0.2 0 0.4 0 0.5 0 0.2 0.5 0.2 0.9-0.2 1.2-0.4 0.3-0.4 0.7-0.3 1.1 0 0.3 0.1 0.6-0.1 0.9-0.2 0.3-0.1 0.7-0.2 1.1 0.8 0.1 1.1 0.6 1.1 1.2-0.2 0.8-0.9 0.6-1.4 0.8 0 0.9 0.1 1.7 0.1 2.6 0.9 0 1.2 0.5 1 1.5 1.2-0.5 2.3-1 3.5-1.5 0.5 0.1 1 0.3 1.5 0.3 0.5 0 1.1-0.2 1.6-0.2 1.9-0.3 3.8-0.3 5.6 0.8 0.1 0.1 0.3 0.1 0.4 0.1 0.4 0 0.7 0.2 1 0.5 0.5 0.4 1 0.8 1.4 1.3 0.4 0.5 1.1 0.6 1.5 1 0.5 0.5 0.8 1.2 1.2 1.7 0.4 0.6 0.9 1.1 1.4 1.6 0.3 0.3 0.5 0.7 0.6 1.1 0 0.3 0.1 0.6 0.2 0.9 0.4 1.5 0.8 3.1 1.3 4.8 0.2-1.1 0.7-1.8 1.7-2-0.3-0.7 0-1 0.3-1.4 0.6-0.7 1-1.6 1.4-2.4 0.2-0.3 0.3-0.7 0.5-1.1 0.2-0.6 0.4-1.1 0.7-1.7 0.1-0.2 0.1-0.3 0.2-0.5 0.3-1.7 0.6-3.4 0.9-5.1 0.2-1.2 0.6-2.5 0.5-3.7 0-0.9 0.3-1.7 0.5-2.5 0.2-0.7 0.5-1.5 0.3-2.2-0.2-0.9 0.1-1.6 0.5-2.4-0.4-0.6-0.1-1.2 0-1.8 0.1-1 0.2-1.9 0.6-2.9 0.1-0.1-0.1-0.3-0.1-0.5 0-0.4 0-0.7 0.1-1.1 0.3-1.6 0.9-3.3 0.9-4.9 0-1.9 0.5-3.7 0.9-5.5 0.3-1.3 0.5-2.6 0.6-3.9 0.1-0.7 0-1.5 0.4-2-0.1-0.8-0.2-1.4-0.3-1.9-0.5 0.1-1.1 0.1-1.5 0.2-0.7-0.6-0.9-1.2-0.6-2 1.6-1.4 2-1.5 4.1-1.4 0.4 0 0.9-0.1 1.3-0.2 1.3-0.4 2.5-0.8 3.9-0.4 0.2 0 0.4-0.1 0.6-0.2 0.2-0.1 0.3-0.2 0.5-0.2 0.8 0.2 1.4-0.2 2-0.5 0.6-0.3 1.2-0.5 1.8 0 0.6 0.9 0.9 1.8-0.1 3 0.1-0.6 0.1-0.9 0.1-1.2-0.3 0.6-0.4 1.5-0.8 2-0.5 0.7-0.5 1.4-0.8 2.1 1.3 1 0.7 2.6 1.3 3.8 1.2-0.2 1.2 0.9 1.9 1.4-0.4 0.3-0.7 0.6-1.1 0.9 0.2 0.4 0.2 0.9-0.2 1.3 0.4 0.8 1.1 1.5 0.8 2.3-0.1 0.6 0 1 0.3 1.5 0.6-0.4 0.6-0.4 2.2 0.1-0.2 0.4-0.3 0.8-0.5 1-0.4 0.3-1 0.4-1.5 0.6 0.2 0.6 0.4 1.2 0.6 2 0.6 0.4 1.5 0.8 1.3 1.9-0.2 0.1-0.5 0.3-0.8 0.4 0.3 0.5 0.6 1 0.9 1.5zm31.4-110.8 0 0c-0.5-0.4-1-0.9-1.5-1.3-0.2 0.3-0.3 0.5-0.5 0.6-0.3 0.3-0.7 0.4-1 0.2-0.2-0.2-0.3-0.6-0.3-0.8 0-0.4 0.2-0.8 0.3-1.1-0.2-0.4-0.5-0.8-0.7-1.2-0.4 0.5-0.6 1.2-1.4 1-0.3-0.1-0.6-0.5-0.8-0.8-0.2-0.3 0.1-0.6 0.4-0.7 0 0.2 0.1 0.4 0.1 0.6 0.3-0.2 0.5-0.4 0.7-0.6-0.5-0.6-1-1.2-1.6-1.8-0.8 1.1-1.2 1.3-1.8 1-0.6-0.3-0.6-0.9-0.1-1.8-0.2-0.3-0.3-0.6-0.5-0.9-0.4 0.3-0.8 0.6-1.2 0.9-0.2-0.3-0.4-0.5-0.6-0.7 0.3-0.4 0.6-0.7 0.9-1-0.9-0.8-1.5-1.9-2.7-2.1-0.2 0-0.4-0.3-0.6-0.6-0.3-0.4-0.6-0.7-1.1-0.8-0.7-0.2-1.3-0.7-2-1.1-0.6-0.4-1.1-0.9-1.7-1.3-1.3-0.9-2.7-1.7-4-2.6-0.1-0.1-0.2-0.2-0.3-0.3 0 0-0.1 0-0.2 0 0 0.3-0.1 0.5-0.1 0.8-0.3 0.1-0.6 0.2-0.9 0.4-0.9-0.6 0.1-1.1 0-1.7-0.2-0.1-0.4-0.1-0.6-0.2-0.3-0.1-0.7-0.1-0.8-0.3-0.4-0.8-1.1-0.7-1.7-1.1-0.8 1.4-0.5 2.8-0.5 4.1 0 0.6 0.2 1.1-0.2 1.6 1.1 1 0.2 2 0 3 0.7 0.3 0.9 0.9 0.6 1.4-0.2 0.4-0.1 0.7-0.1 1 0 0.2 0.1 0.5 0.2 0.7 0.1 0.9 0.3 1.8 0.4 2.8 0.1 0.9-0.1 1.8 0.3 2.7 0 0 0.1 0.1 0.1 0.1 0.3-0.2 0.5-0.3 0.9-0.6 0.1 0.4 0.3 0.8 0.3 1.1 0 0.8-1 0.4-1.3 0.9 0.1 0.5 0.1 0.9 0.2 1.3s0.1 1 0.4 1.2c0.6 0.4 0.6 1.1 0.9 1.7-0.3 0.2-0.6 0.3-0.9 0.5 0 0.5 0 0.9 0 1.4 0 0.3 0.1 0.8 0.3 0.9 0.7 0.5 0.5 1.1 0.6 1.7 0 0.3 0.2 0.6 0.3 0.9 0.8-0.5 1.2-0.5 1.6-0.1 0.4 0.3 0.4 0.7 0.3 1.1-0.1 0.5-0.6 0.7-1.5 0.7-0.1 0.8 0.2 2 0.5 2.3 1 0.8 1.7 2 2.9 2.5 0.2 0.1 0.3 0.3 0.5 0.4 0.6 0.6 1.1 1.2 1.7 1.8 0.4 0.3 0.9 0.5 1.2 0.9 0.4 0.5 0.9 0.7 1.5 0.6 0.1 0.1 0.2 0.2 0.3 0.3 0.5 0.6 1.3 0.9 2 1.2 0.2-0.8 0.7-0.6 1.2-0.5 0.7 0.1 0.7 0.7 0.8 1.2 0.8 0.5 1.6 0.9 2.2 1.3 0.8 0.1 1.5 0.1 2.3 0.1 0.5-0.7 0.8-0.8 1.4-0.5 0.2 0.1 0.5 0.3 0.6 0.5 0.1 0.4 0.1 0.9 0.2 1.5 0.3 0.1 0.7 0.2 1.2 0.3 0.5 0 0.9 0 1.2 0.5 0.6 1 1.6 1.6 2.6 2.1 0.4 0.2 0.8 0.5 0.8 0.9-0.1 0.8 0.4 1.2 1.1 1.7-0.3 0.4-0.5 0.7-0.8 0.9-0.3 0.2-0.7 0.3-1.2 0.5 0.6 0.9 0.6 2.1 1.6 2.8 0.2 0.1 0.3 0.5 0.3 0.8 0 0.7 0.4 1.2 0.8 1.8 0.1-0.6 0.4-0.8 1-0.6 0 0.4 0 0.9-0.1 1.3 0 0.2 0 0.5 0.1 0.7 0.2 0.5 0.3 1.1 0.5 1.7 0.3 0.5 0.9 0.9 1 1.5 0.1 0.6 0.7 1 0.7 1.7 0 0.9 0.8 1.4 1.4 1.9 0.3 0.2 0.6 0.4 0.9 0.6 0 0.4 0 0.9-0.1 1.4 0.2 0.2 0.4 0.5 0.6 0.8 1.1-0.2 2.2-0.5 3.3-0.7-1.1-0.5-1.2-0.7-1-1.8 0.3 0 0.6 0 0.8 0 0.8 0 1 0.3 0.7 1-0.1 0.3-0.3 0.6 0 0.9 0.3-0.1 0.5-0.3 0.8-0.3 0.3-0.1 0.6 0 0.8-0.1 1-0.1 1-0.1 1.2-1.1 0.3-0.2 0.7-0.3 1.1-0.5 0.3 0.2 0.6 0.4 0.9 0.6 0.5-0.1 1-0.3 1.5-0.4 0.2-0.6 0.4-1.2 0.6-1.8-0.8-1.3-0.5-3-1.3-4.3 0.1-1.6-1-3.1-0.7-4.8 0-0.1 0-0.2-0.1-0.3-0.5-1-0.1-2.2-0.9-3.2-0.1-0.1 0-0.5 0-0.7 0-0.5 0-1-0.2-1.4-0.6-1.5-0.4-3.2-1.1-4.8-0.3-0.8-0.4-1.8-0.8-2.5-0.3-0.5-0.6-1-0.6-1.7-0.1-1.4-0.9-2.6-1.3-3.9-0.1-0.4-0.4-0.8-0.6-1.1-0.2 0.2-0.4 0.3-0.6 0.4 0-0.2-0.1-0.2-0.1-0.3-0.1-1.4-0.2-1.5-1.6-1.6-0.9-0.1-1.2-0.8-0.6-1.8-0.8-1-1.7-2-2.6-3.1-0.2 0-0.4 0-0.5 0.1-1-1-1.8-1.8-2.7-2.7-0.2 0.2-0.3 0.3-0.5 0.5-0.2-0.2-0.4-0.4-0.5-0.5 0.1-0.4 0.3-0.8 0.4-1-0.4-0.3-0.6-0.5-0.9-0.7-0.8 0.6-1.2 0.8-1.5 0.4-0.2-0.3-0.4-0.7-0.3-1 0.1-0.4 0.3-0.8 0.5-1.2-0.2-0.3-0.6-0.7-0.7-1-0.1-0.5-0.4-0.5-0.7-0.7zm-94.1 17c-0.6 0.3-1.2 0.6-1.8 1.1-0.6 0.6-1.4 1.1-2.1 1.7-0.6 0.5-1.3 0.9-1.9 1.5-0.5 0.5-1 0.6-1.7 0.4 0 0.8-0.4 1.3-0.9 1.7-1.2-0.3-1.4-0.9-0.7-2.1 0.3 0 0.5 0 0.9-0.1-0.5-0.5-1-0.9-1.4-1.3-0.4 0.7-0.9 1.1-1.4 1-0.5-0.1-0.6-0.4-0.7-0.9-0.1-0.6 0.4-0.7 0.9-0.7-0.6-0.4-1.2-0.6-1.4-1.3-0.2-0.4-0.8-0.9-1.5-0.5 0 0.7 0.1 1.4-0.1 1.9-0.2 0.6-0.1 1.1 0 1.7l0 0c-0.2 0.3-0.5 0.7-0.6 0.8-1 0.4-1.8 0.8-2.6 1.1-0.3 0.1-0.6 0.1-0.9 0.2-0.3 0-0.6 0.1-0.9 0.1 0 0-0.1 0.1-0.1 0.2 0.1 0.3 0.3 0.6 0.4 0.8-0.4 0.4-0.7 0.8-1.1 1.3-0.3-0.4-0.6-0.6-0.7-0.9-0.1-0.2 0.1-0.5 0.3-0.8-1.4 0-2.3 1.2-3.5 1.6-0.8 0.2-1.3 1.3-2.3 1-0.1 0-0.2 0.1-0.4 0.2-0.8 0.4-1.6 0.7-2.5 1.1 0.6 0.4 1.2 0.6 1.1 1.4-0.1 0.5-0.4 0.8-0.9 0.9-0.7-0.4-0.8-1.2-0.9-1.9-1.1 0.5-2.1 1.1-3.2 1.6-0.3 0.2-0.8 0.2-1.1 0.2-1.2-0.2-1.8 0.3-1.6 1.6 0.1 0.5 0.3 1.1 0.1 1.7-0.2 0.5 0.1 1.2 0.2 1.8 0.1 0.4 0.5 0.6 0.4 1.1-0.1 0.3 0.3 0.7 0.3 1 0.1 0.5 0 1 0 1.3 0.1 0.5 0.3 0.9 0.3 1.3 0.2 1.3 0.1 2.6 0.6 3.8 0.2 0.4 0.3 0.7 0.7 0.9 0.4 0.1 0.7 0.3 1.1 0.4 0-0.8 0.5-1.2 1.1-1.5 0.8 0.2 0.8 0.9 0.9 1.5h2.3c0.3-0.5 0.5-0.9 0.8-1.3 0.5 0.2 0.9 0.2 1.2 0.5 0.2 0.2 0.2 0.7 0.2 1 0.5 0.1 0.9 0.2 1.4 0.2 1.2 0 2.5 0 3.7 0 0.6 0 1.1 0.2 1.7 0.2 1-0.1 2-0.2 3.1-0.3 0.1-1.4 0.1-2.8 0.2-4.2 0-0.1 0-0.2 0-0.3-0.7-1.1-0.1-2.1 0.1-3.1 0.1-0.5 0.2-1.1 0.5-1.5 0.2-0.4 0.6-0.8 0.6-1.3 0.1-0.3 0.3-0.8 0.6-0.9 0.8-0.2 0.9-0.9 1.4-1.4 0-0.1 0-0.2 0-0.3-0.2 0.2-0.4 0.3-0.6 0.5-1.4-0.7-1.4-0.7-1.1-1.7 1.3-0.7 1.4-0.6 1.8 0.8 1 0.2 1.7-0.7 2.5-0.9 0.2 0 0.4-0.4 0.5-0.6 0.8-0.1 1.5-0.1 2.3-0.2-0.2-0.2-0.4-0.4-0.6-0.6 0.5-0.4 0.6-1.2 1.5-1.1 0.3 0.5 0.5 0.9-0.1 1.5 0.8 0.1 1.4 0.1 2 0.2 0.2 0 0.4 0 0.5 0.1 0.9 0.5 1.8 1 2.7 1.5 0.2 0.1 0.3 0.3 0.5 0.3 0.5 0.1 0.8 0.5 1 0.9 0.2 0.6 0.6 0.9 1.1 1.1l0 0c0.3 0.4 0.7 0.9 1 1.2 0.5-0.5 1-0.9 1.5-1.4 0-0.1 0-0.4 0.1-0.6 0.1-0.2 0.2-0.5 0.3-0.7-0.6-1-0.5-1.8 0.3-2.3 0.8 0.3 0.6 0.9 0.5 1.5 0.4-0.4 0.6-0.8 0.9-1.2 0.4-0.6 0.7-1.2 1.1-1.7 0.3-0.4 0.9-0.6 1.1-1 0.3-0.7 0.8-0.8 1.4-0.9 0.8-1 1.5-2 2.2-2.9 0.4-0.5 0.5-0.9 0.3-1.5-0.1-0.3-0.3-0.7-0.2-1 0.2-1.2-0.3-2.3-0.4-3.5 0-0.2-0.1-0.4-0.1-0.6 0.2-0.7 0-1.3-0.3-2-0.4-0.8-0.9-1.5-0.5-2.4 0.1-0.2-0.1-0.5-0.2-0.7-0.3-0.6-0.6-1.2-0.2-1.9-0.5-0.3-0.7-0.8-0.6-1.4 0-0.3 0.1-0.7 0-1-0.2-0.5-0.2-0.9-0.3-1.4-0.1-0.9-0.3-1.8-1.3-2.4 0.3-0.2 0.6-0.3 0.8-0.4-0.1-0.4-0.3-0.8-0.2-1.1 0.2-0.5 0-0.8-0.1-1.2-0.1-0.5-0.3-1.1-0.4-1.6-0.4-1.7-1.2-3.2-1.1-5 0-0.3-0.2-0.6-0.3-0.9-0.2-0.5-0.5-1-0.8-1.5-0.3 0.2-0.6 0.6-1 0.8-1.1 0.4-2 1.1-2.5 2.1-0.1 0.1-0.3 0.3-0.4 0.3-1.1 0.3-1.7 1.1-2.4 1.9-0.6 0.7-0.5 1 0.2 1.5 0.6 0.4 1.1 0.7 1.2 1.5 0.1 0.5 0.4 1 1.2 0.8 0.6-0.1 1.2 0.4 1.1 1-0.1 0.7 0.3 1.2 0.7 1.7 0.4-0.4 0.9-0.6 1.3-0.2 0.6 0.6 0.1 1.1-0.2 1.7 0.3 0.3 0.5 0.7 0.8 1 0.4-0.3 0.7-0.5 0.9-0.7 0.6 0.3 0.5 0.8 0.4 1.2-0.1 0.3-0.5 0.6-0.8 1 0.1 0.7 0.9 1.4 0.1 2.1 0.5 0.3 1.2 0.2 1.1 1.1-0.6 0.1-1.2 0.3-1.5-0.1-0.5 0.4-1 0.7-1.4 1 0.4 0.5 0.7 0.9 0.9 1.3-0.3 0.5-0.2 1.2-1.1 1.1-0.1-0.5-0.2-1-0.4-1.7-0.7 0.5-1.3 1-2.1 1.6 0.7 0.4 1.3 0.9 1.1 1.8h-1.5c0-0.4 0-0.7-0.1-1-0.4 0.4-0.8 0.7-1.2 1.1-0.3 0.3-0.5 0.6-0.7 0.9l0 0zm14.6 32.1c-0.1-0.8-0.1-1.7-0.3-2.5-0.2-1.3-0.4-2.5-0.8-3.8-0.1-0.5-0.2-0.9-0.1-1.2-0.1-0.6-0.2-1-0.2-1.5 0-0.4 0-0.7-0.1-1.1-0.2-0.7-0.3-1.3-0.2-2 0.1-0.6-0.3-1.2-0.4-1.9-0.1-0.9-0.1-1.8-0.2-2.7 0-1 0-2.1 0-3.2-0.3 0-0.5 0-0.7 0 0 0.2 0.1 0.5 0 0.5-1.7 1.1-2.7 2.9-4 4.4-0.2 0.2-0.3 0.4-0.4 0.6-0.2 0.6-0.7 1-1.1 1.5-0.6 0.7-1.6 1.1-1.7 2.2 0 0.2-0.3 0.3-0.4 0.4-0.1 0.1-0.2 0-0.3 0.1-0.7 0.7-1.5 1.4-2.2 2.1-0.2 0.2-0.3 0.4-0.5 0.6-0.5 0.5-0.9 1-1.4 1.4-0.2 0.2-0.3 0.4-0.5 0.4-1-0.1-1.4 1-2.1 1.3-0.4 0.2-0.6 0.8-1.1 1-0.2 0.1-0.5 0.2-0.7 0.2-0.8 0-1.5 0.2-2.1 0.7-0.1 0.1-0.2 0.1-0.4 0.2-1.1 0.2-2.1 0.5-3.2 0.9-0.5 0.2-1.1 0.1-1.7 0.3-0.4 0.1-0.8 0.3-1.2 0.7-0.4 0-0.8 0-1.2-0.1-0.7-0.2-1.3-0.5-2 0-0.2 0.1-0.6 0.1-0.8 0-1-0.6-2-0.2-3.1-0.2-0.8 0-1.6-0.1-2.5-0.1-0.4 0-0.8 0.2-1.3 0.3-0.6-0.2-1.3-0.4-2-0.6-0.2 0.2-0.4 0.3-0.6 0.4-0.7-0.3-1.4-0.4-2.2-0.3-0.8 0.1-1.7-0.3-2.5-0.6-0.5-0.2-0.9-0.5-1.5-0.3-0.1 0-0.3-0.2-0.4-0.3-1.4 1.2-2.7 0.8-3.5-0.9-0.8-0.1-1.3 0.5-2 0.8-0.4 0.2-0.7 0.5-1.2 0.3-0.2-0.1-0.6 0.1-0.9 0.3-1 0.5-2.1 0.4-3.1 0.9-0.5 0.2-1.1 0.3-1.9 0.5-0.2 0.3-0.5 0.8-0.9 1.5-0.3 0.2-0.7 0.6-1.2 0.9-0.5 0.3-0.9 0.8-1.6 0.7-0.4 0-0.8 0.3-1.1 0.6-0.5 0.4-0.9 0.4-1.5 0.3-0.5-0.1-1 0.2-1.5 0.3-0.5 0.1-0.9 0.1-1.3 0.1-0.9 0-1.8-0.3-2.7-0.3-1.3-0.1-2.6-0.9-3.1-2.1-0.1-0.3-0.3-0.6-0.4-0.9-0.4-0.7-0.5-1.5-0.7-2.3-0.1-0.7-0.2-1.4-0.7-2-0.2-0.2-0.2-0.7-0.2-1 0-0.8-0.2-1.6-0.4-2.5-0.3-0.9-0.8-1.9-0.1-2.9 0.3-0.5 0.2-1.3 0.4-1.9 0.2-0.8 0.5-1.5 0.9-2.3 0.1-0.2 0.3-0.4 0.5-0.5 0.5-0.6 1.1-1.1 1.6-1.6 0.2-0.2 0.4-0.4 0.7-0.6 0.8-0.4 1.5-1.1 2.5-1.4 0.2 0 0.3-0.2 0.4-0.4 0.5-0.5 0.5-0.5 1.4-0.4 0.7-0.9 0.2-1.8-0.2-2.5-0.4-0.7-0.4-1.3-0.2-2-0.2-0.3-0.5-0.6-0.9-1 0-1.1-0.1-2.3 0-3.5 0.1-1.8 1.2-3.1 2.8-3.9 0.1-0.1 0.2-0.1 0.3-0.1 1 0.1 2.1 0 2.9 0.3 1 0.4 2.1 1.1 2.3 2.4 0.1 0.9 0.3 1.7 0.8 2.4 0.2 0.4 0 1 0.1 1.5 0.2 0.7 0.3 1.4 0.4 2.1 0.1 0.7 0.4 1.4 0.6 2.1 1 0.1 1.9 0.1 2.8 0.3 0.8 0.1 1.7 0 2.4 0.7 0.6-0.4 1.1-0.1 1.4 0.4 0.9 0 1.5-0.4 2.2-0.9 0.7-0.6 1.5-1 2.2-1.5 0.1-0.1 0.3-0.1 0.4-0.1 0.6 0 1-0.3 1.4-0.7 0.1-0.1 0.3-0.4 0.4-0.3 0.9 0.1 1.5-0.8 2.4-0.8 0.1 0 0.3-0.1 0.4-0.1 0.6-0.6 1.3-0.7 2.1-0.8 0.2-0.2 0.4-0.5 0.6-0.7 1.1-0.3 2.2-0.5 3-1.5 0.1-0.2 0.3-0.3 0.5-0.4 1.1-0.1 2-1 3.1-1.3 0.9-0.2 1.8-0.7 2.8-0.7 0.2 0 0.5-0.3 0.6-0.5 0.4-0.9 0.7-1.8 1.1-2.6 0.1-0.2 0.1-0.3 0.2-0.5 0.5-0.5 0.7-1 0.6-1.7 0-0.7 0.1-1.2 0.8-1.6 0.5-0.3 0.8-1 1.1-1.6 0.5-1 0.9-2.1 1.4-3.1 0.5-0.9 1.1-1.7 1.7-2.5 0.8-1.2 1.9-2.2 2.6-3.5 0.9-1.5 2.1-2.7 3.2-4 0.7-0.8 1.3-1.7 2-2.4 0.4-0.5 1.1-0.7 1.5-1.2 0.4-0.3 0.8-0.8 1.2-1.2-0.9-0.9-0.6-2.1-0.9-3.1 0-0.1 0-0.3 0.1-0.4 0.3-0.6 0.1-1.1-0.2-1.7-0.3-0.6-0.6-1.3-0.4-2-0.7-1.1-0.2-2.5-0.6-3.7-0.1-0.2-0.1-0.5-0.2-0.8 0.1-0.1 0.2-0.3 0.3-0.5 0.2-0.4 0.2-0.7-0.1-1-0.4-0.3-0.4-0.7-0.4-1.1-0.1-0.7-0.6-1.4-0.5-2.1 0-0.7 0-1.4-0.3-2-0.2-0.3-0.2-0.6 0-0.9 0-0.1-0.1-0.2-0.1-0.4-0.3 0.4-0.5 0.6-0.7 0.9-0.7-0.1-0.7-0.5-0.7-1 0-0.5 0.3-0.7 0.7-0.7 0.6-0.9 0-1.7-0.2-2.6-0.4-0.2-0.8-0.4-1.2-0.7-0.1-0.7 0.2-1 0.9-1.2-0.1-0.5-0.3-1-0.4-1.6-0.1-0.4 0-0.8 0-1.3-0.5-0.3-1.1-0.7-1.7-1 0-0.3 0.1-0.7 0.1-1.1-0.3-0.2-0.7-0.3-1-0.5-0.2-0.1-0.3-0.4-0.4-0.6 0.2-0.1 0.5-0.4 0.7-0.3 0.3 0 0.6 0.2 0.9 0.4 0.2 0.1 0.5 0.2 0.7 0.3 0.9-1.9 1.1-4 2.6-5.8 0.7-0.3 1.7-0.7 2.8-0.9 0.9-0.2 1.8-0.7 2.7-1.1 0.5-0.2 1.1-0.3 1.8-0.6 0.1-0.7 0.1-1.6 0.2-2.4 0.1-0.4 0.3-0.8 0.6-1.2 0.1-0.8 0.1-1.6 0.2-2.4 0-0.3 0.2-0.5 0.4-0.7 0.4-0.4 0.7-0.9 0.8-1.5 0-0.3 0.3-0.7 0.5-1 0-0.1 0.1-0.1 0.2-0.1 0.2-0.9 0.8-1.6 1.2-2.4 0.4-0.8 0.9-1.5 1.8-1.9-0.3-0.9 0.7-1.1 1.1-1.6 0.9-1.2 2.3-1.9 3.4-2.9 0.2-0.2 0.4-0.5 0.6-0.8 0.6 0.1 1-0.3 1.5-0.6 0.8-0.5 1.7-0.8 2.6-1.2 0.2-0.1 0.5-0.2 0.7-0.4 0.5-0.3 0.9-0.6 1.5-0.3 0.1 0 0.3 0.1 0.3 0 0.6-0.8 1.6-0.4 2.3-0.9 0.2-0.1 0.4-0.1 0.6-0.1 0.4-0.1 0.8-0.1 1.1-0.2 0.6-0.2 1.2-0.4 1.9-0.6 0.6 0.5 1.3 0 2-0.2 0.8-0.2 1.8 0.1 2.5-0.5 0 0 0.2 0 0.2 0 0.9 0.4 1.8 0 2.7 0 1.6 0 3 0.3 4.5 0.9 0.6 0.3 1.3 0.3 1.9 0.4 0.6 0.1 1.3 0.2 1.9 0.4 1.1 0.4 2.2 0.8 3.4 1 0.1 0 0.2 0.1 0.3 0.1 0.5 0.8 1.4 0.8 2 1.3 0.2 0.1 0.4 0.2 0.6 0.3 0.4 0.1 0.8 0.2 1.1 0.7 0.1 0.1 0.2 0.2 0.3 0.3 1.2 0.4 2 1.3 2.7 2.4 0.2 0.4 0.7 0.5 1.2 0.7 0.2 0.4 0.5 0.7 0.7 1.1 0.1 0.2 0.2 0.4 0.3 0.4 1.2 0.3 1.4 1.7 2.4 2.2 0.2 0.1 0.2 0.4 0.4 0.4 0.9 0.2 1.2 1 1.5 1.7 0.2 0.3 0.3 0.6 0.4 1 0.3-0.1 0.6-0.2 0.9-0.3 1.2-0.1 2.5-0.1 3.7-0.3 0.5-0.1 1-0.3 1.5-0.4 0.5-0.1 1-0.2 1.6-0.3 0.3-0.1 0.6-0.1 0.9-0.2 0.4-0.1 0.8-0.2 1.2-0.3 0.3 0 0.5 0 0.8 0 0.3 0 0.7 0.2 0.9 0.1 1.4-0.8 2.8-0.3 4-0.4 0.6 0.5 1 0.9 1.4 1.2 0.7 0.6 0.8 1.4 1 2.1 0.2 1.2 0.8 2.3 0.4 3.6-0.1 0.2 0 0.5 0.1 0.7 1 1.6 0.9 3.4 1.1 5.1 0 0.2-0.1 0.4 0 0.5 0.7 1.1 0.2 2.3 0.4 3.5 0.1 0.6 0.2 1.2 0.3 1.8 0.3 1 0.5 1.9 0.4 3-0.1 1 0.3 2.1 0.5 3.2 0.1 0.6 0.2 1.1 0.3 1.7 0.1 0.6 0.3 1.3 0.4 1.9 0.3 1.1 0.8 2.2 0.6 3.6 0.9 1 0.8 2.4 1.2 3.7 0.5 1.7 0.5 3.5 0.9 5.2 0.2 0.7 0.4 1.5 0.6 2.3 0.2 0.3 0.6 0.7 0.9 1.2 0.4 0.5 0.8 0.9 1.3 1.2 1.3 0.8 2.5 1.8 3.5 3.1 0.7 0.8 1.6 1.4 2.4 2.2 0.4 0.3 0.7 0.7 1.1 1.1 0.3 0.4 0.8 0.7 1 1 0.6 0.8 1.4 1.2 1.9 2.1 0.4 0.6 0.8 1.4 1.6 1.7 0.2 0.1 0.4 0.4 0.4 0.6 0.3 1.2 1.2 1.9 2 2.6 0.4 0.3 0.7 0.6 0.9 1.1 0.4 0.7 1.1 1.2 1.6 1.9 0.6 0.8 1.2 1.6 1.8 2.5 0.1 0.2 0.3 0.4 0.4 0.5 0.9 0.5 1.3 1.3 1.7 2.1 0.1 0.2 0.2 0.4 0.4 0.6 0.5 0.6 0.8 1.3 0.9 2.1 0.1 0.6 0.5 1.3 1 1.8 0.6 0.6 0.6 1.4 1 2.1 0.1 0.2 0.1 0.5 0.3 0.7 0.9 1.1 0.9 2.5 1.3 3.7 0.6 2.3 0.9 4.6 1.8 6.9 0.1 0.3 0 0.7 0.1 1 0.1 1.2 0.8 2.1 1 3.3 0.2 1.4 0.8 2.8 0.7 4.3 0 0.3 0 0.7 0.2 1 0.4 0.9 0.5 1.8 0.3 2.7-0.1 0.4 0.1 0.8 0.1 1.2 0 0.7 0 1.5 0 2.4 0.4 0.5 1 1.2 1.4 2 0.7 1.4 0.7 3 1.4 4.4 0.3 0.6 0.1 1.4 0.3 2.1 0.3 0.9 0 1.8 0.3 2.6 0.2 0.7 0.4 1.3 0.5 2v4.2c0 0-0.1 0-0.1 0.1 0 0.6-0.1 1.2-0.1 1.8-0.1 0.6-0.2 1.1-0.3 1.7 0 0.1 0.1 0.3 0 0.3-0.5 0.7-0.9 1.4-1.5 2-0.4 0.4-0.8 0.9-1.4 0.7-0.6 0.5-1.1 0.9-1.5 1.3-0.3 0-0.6-0.2-0.9-0.1-0.7 0.2-1.4 0.5-2.1 0.8-0.2 0.1-0.5 0.2-0.7 0.3-0.7 0.1-1.4-0.2-2.1 0.2-0.1 0.1-0.3 0-0.4-0.1-1.1-0.3-2.2-0.7-3.3-0.9-0.7-0.1-1.4-0.4-1.8-1-0.6 0.9-1.3 0.3-1.9 0.2-0.2-0.5-0.4-0.9-0.6-1.4-0.2-0.4-0.6-1-0.5-1.3 0.4-0.7-0.4-0.9-0.3-1.4 0.1-0.1 0.3-0.2 0.3-0.2-0.1-0.4-0.1-0.7-0.2-1-0.1 0-0.3-0.1-0.6-0.1-0.3-0.4-0.4-0.9-0.3-1.4 0-0.4 0.3-0.9 0-1.4-0.2-0.3-0.4-0.8-0.1-1.3 0.1-0.2 0.1-0.6 0-0.8-0.4-0.9-0.3-1.8-0.2-2.7 0-0.4-0.2-0.8-0.1-1.2 0.2-1.3 0.6-2.6 0.9-3.8 0.1-0.2 0.3-0.4 0.3-0.4-0.4-0.3-0.7-0.7-1.1-1-0.2-0.2-0.4-0.3-0.5-0.5-0.2-0.3-0.4-0.6-0.5-0.9-0.2-0.8-0.6-1.4-1.2-2-0.4-0.3-0.6-0.8-0.8-1.2-0.5-1.1-0.7-2.3-1.5-3.3-0.7-0.9-1-1.9-1.3-2.9-0.3-1.1-0.9-1.9-1.4-2.9-0.3-0.6-0.8-1.2-1.1-1.9-0.5-1.3-1-2.7-1.5-4.1-0.1 0-0.3-0.1-0.5-0.2 0.1-0.2 0.1-0.4 0.2-0.6-0.5-0.5-0.9-0.4-1.3-0.1v1.5c0.1 0.4 0.4 0.8 0.3 1.2-0.2 0.7-0.1 1.4 0.1 2.1 0.1 0.2 0 0.4-0.1 0.6 0 0.2-0.1 0.5 0 0.7 0.6 2.3 0.8 4.6 0.9 6.9 0 0.4 0.1 0.9 0.2 1.3 0.1 0.5 0.2 1 0.3 1.5 0.1 0.9 0 1.8 0.4 2.6 0.3 0.8 0.5 1.6 0.7 2.5 0.2 0.9 0.2 1.8 0.2 2.7 0 0.4 0.2 0.9 0.3 1.3 0.1 0.5 0.2 1 0.4 1.5 0.2 0.5 0.1 1.2 0.3 1.6 0.2 0.6 0.2 1.2 0.3 1.8 0.1 0.7 0.1 1.4 0.3 2.1 0.2 0.7 0.5 1.3 0.7 2 0.1 0.7 0.1 1.5 0.2 2.3 0 0.2-0.2 0.4-0.3 0.5-0.7 0.7-1.6 1.1-2.5 1.4-0.5 0.1-0.9 0.3-1.4 0.5 0.2 0.4 0.3 0.7 0.5 1 0.2 0.5 0.4 1 0.7 1.4 0.3 0.4 0.4 0.7 0.4 1.2 0.2 1.1 0.3 2.2 0.7 3.2 0.3 0.8 0.7 1.6 0.6 2.5-0.1 0.5 0.1 0.9 0.5 1.3 0.2 0.2 0.4 0.6 0.4 0.9 0.1 0.7 0 1.3 0.1 2 0.1 0.8 0.4 1.6 0.6 2.5 0.4 1.9 1.1 3.7 1 5.6 0 0.1 0 0.2 0 0.3 0.4 1.2 0.8 2.5 0.7 3.8 0 0.1 0 0.2 0.1 0.3 0.6 0.8 0.4 1.8 0.6 2.7 0.1 1 0.1 2.1 0.5 3 0.1 0.1 0.2 0.3 0.1 0.4-0.2 0.8 0.1 1.6 0.4 2.3 0.2 0.4 0.5 0.8 0.4 1.2-0.1 1 0 1.9 0.3 2.9 0.4 1.5 0.5 3.1 0.7 4.7 0 0.1 0.1 0.3 0.1 0.4-0.5 0.6-0.2 1.1-0.1 1.7 0.1 0.5 0.5 1 0.1 1.5 0 0.1 0.1 0.3 0.1 0.4 0.2 0.5 0.4 1.1 0.4 1.6 0 0.6 0.6 1.2-0.1 1.7-0.1 0 0 0.3 0.1 0.4 0.2 1.2 0.3 2.4 0.6 3.6 0.1 0.5 0 0.8-0.4 1.1 0.8 1.6 0.4 3.3 0.8 5-0.4 1.1 0.5 2.2 0.1 3.4 0.4 1.6 0.1 3.1 0 4.7 0.2 0.2 0.4 0.5 0.6 0.8-0.1 1.1-0.2 2.1-0.2 3.2 0 1.6 0.1 3.1 0.1 4.7 0 0.2 0.1 0.5 0 0.6-0.2 0.4-0.1 0.7 0 1 0.1 0.7 0.3 1.5 0 2-0.4 0.8-0.3 1.5-0.1 2.3 0.1 0.4 0.5 0.8 0.1 1.3-0.4 0.5-0.3 1-0.2 1.5 0 0.5 0.3 1.1-0.1 1.6-0.1 0.1 0 0.3 0.1 0.4 0.4 0.5 0.3 1 0.3 1.6 0 0.6 0.1 1.2 0.1 1.9 0 0.1-0.2 0.3-0.3 0.6 0.7 1.2 0.3 2.5 0.4 3.7 0.1 1.2 0 2.3 0 3.5 0 1.2 0.5 2.3 0 3.5 0 0.1 0 0.2 0 0.3 0 0.5 0.1 1 0 1.4-0.1 0.6 0 1.1 0.2 1.7 0.7 1.7 0.1 3.4-1.4 4.6 0.1 0.7 0.2 1.4 0.2 2.2 0 0.2 0.1 0.6-0.1 0.7-0.4 0.6-0.9 1.1-1.4 1.7-0.2 0.2-0.5 0.4-0.7 0.6 0.3 0.4 0.5 0.8 0.6 1 0 0.4-0.1 0.8 0 1 0.7 2 1.8 4 1.9 6.2 0 0.4 0.4 0.8 0.4 1.2-0.1 1.3 0.5 2.5 0 3.8-0.1 0.3-0.1 0.7 0.1 1 0.3 0.5 0 1-0.1 1.4-0.3 0.7-0.7 1.5-0.7 2.2 0 0.5-0.1 0.9-0.3 1.3-0.3 0.6-0.8 1.2-1.1 1.8-0.4 0.9-1.2 1.4-2.1 1.7-0.6 0.2-1.2 0.4-1.9 0.7h-3.5c-0.5-0.4-0.9-0.7-1.4-1.1-0.6-0.5-1.2-0.9-1.8-1.4-0.3-0.3-0.6-0.7-0.9-1-0.4-0.6-0.8-0.9-1.3-1.4-0.6-0.5-1-1.2-1.4-1.9-0.4-0.8-0.8-1.6-0.9-2.4-0.1-0.9-0.7-1.7-0.8-2.7-0.2-1.3-0.6-2.6-0.8-3.9 0-0.3-0.1-0.7-0.3-0.9-0.5-0.6-0.3-1.2-0.1-1.9-0.5-0.5-0.7-1.2-0.6-2 0-0.5 0.1-1.1-0.3-1.6-0.2-0.2-0.1-0.6-0.1-0.8-0.1-1-0.3-2-1-2.8-0.3-0.3-0.7-0.5-0.9-0.8-1.1-1.4-2.6-2.4-3.2-4.1 0-0.1-0.1-0.2-0.2-0.3-0.9-0.5-0.9-1.5-1.1-2.3-0.1-0.4-0.2-0.9-0.5-1.3-0.5-0.7-0.6-1.5-0.8-2.3-0.2-0.7-0.4-1.3-0.6-1.9-0.2-0.4-0.5-0.8-0.5-1.3-0.1-0.5-0.3-1-0.6-1.4-0.3-0.4-0.4-0.9-0.4-1.4-0.1-1.7-0.6-3.3-1.2-4.8-0.1-0.1 0-0.3 0-0.5 0-0.2 0.1-0.5 0-0.6-0.7-0.5-0.6-1.3-1.1-1.9 0.2-0.2 0.3-0.4 0.4-0.7-0.2-0.6-0.4-1.1-0.7-1.7-0.1-0.3-0.3-0.6-0.3-0.9 0-1.2-0.5-2.3-0.8-3.4-0.2-0.6-0.1-1.3-0.1-2 0-0.4 0-1-0.2-1.3-0.6-0.8-0.5-1.6-0.3-2.4 0.1-0.5 0-1-0.2-1.5-0.8-1.5-0.9-3.2-1.2-4.8-0.1-0.5-0.3-1-0.4-1.6-0.4-1.6-1-3.2-1.2-4.8-0.1-1-0.4-1.8-0.9-2.7-0.2-0.4-0.2-1-0.3-1.5-0.1-0.3-0.1-0.7-0.3-0.9-0.6-0.9-0.7-2-0.7-3 0-0.4-0.1-0.7-0.3-1.1-0.3-0.5-0.5-1.1-0.7-1.7-0.2-0.8-0.4-1.5-0.9-2.1-0.3-0.3-0.3-0.8-0.5-1.2-0.2-0.8-0.2-1.7-0.8-2.4 0 0-0.1-0.1-0.1-0.2 0.1-1.2-0.6-2.3-0.7-3.5-0.1-0.9-0.5-1.8-0.8-2.7-0.3-1-1-1.9-0.8-3 0.1-0.2-0.3-0.5-0.3-0.8-0.2-0.9-0.4-1.7-0.7-2.6-0.2-0.9-0.5-1.7-0.8-2.5-0.6-1.6-1.2-3.2-1.7-4.9-0.2-0.9-0.3-1.7-1-2.4-1 0-1.2 0.8-1.5 1.5 0.2 1 0.3 2.1 0.2 3.2 0 0.1-0.1 0.3 0 0.4 0.5 0.9-0.2 1.7-0.2 2.6 0 0.3-0.2 0.5-0.3 0.6 0.1 0.5 0.2 0.9 0.2 1.3 0 0.8-0.3 1.5-0.1 2.3 0.1 0.7-0.3 1.4-0.8 1.9 0.6 1.1 0.4 2.2 0 3.3-0.2 0.5-0.3 1-0.4 1.6 1.4 0.5 2.7 1 3.2 2.3 0.5 1.1 1 2.3 0.1 3.5 0.5 0.7 0.8 1.3 0.3 2.1 0 0.1-0.1 0.1-0.1 0.2 0.2 1.4-0.5 2.8-0.4 4.2 0 0.4-0.1 0.7-0.2 1.1-0.1 0.8-0.3 1.7-0.3 2.5 0 0.4 0 0.7-0.2 1-0.1 0.2-0.1 0.4-0.1 0.6 0.2 1.4-0.3 2.7-0.3 4 0 0.4 0 0.8 0 1.1 0 0.2 0 0.5-0.1 0.7-0.3 1-0.6 2.1-0.4 3.2 0.1 0.3-0.2 0.6-0.4 1 0.3 0.5 0.2 1 0.2 1.6-0.2 1.3-0.9 2.6-0.9 3.9 0 1.4-1 2.3-1.3 3.6 0 0.1-0.1 0.3-0.2 0.4-1.2 0.5-1.7 1.6-2.6 2.4-0.2 0.2-0.5 0.3-0.7 0.4-0.3 0.2-0.9 0.1-1.1 0.7 0 0.1-0.4 0.1-0.6 0.2-1 0.1-1.9 0.3-2.9 0.4-0.3 0-0.6 0-0.8-0.1-0.4-0.1-0.8-0.3-1.2-0.3-0.6 0-1-0.3-1.3-0.7-0.3-0.5-0.7-0.8-1.2-1.1-0.5-0.3-1.3-1.4-1.5-1.9-0.1-0.3-0.2-0.5-0.2-0.9-0.6 0.1-1.3-0.1-1.9 0.3-0.2 0.2-0.7 0-1-0.1-0.3-0.1-0.6-0.2-0.8-0.2-2.8 0-4.9-1.6-7.3-2.7-0.8-0.4-1.6-0.6-2.2-1.3-1.1-1.3-2.8-1.7-4.1-2.8-0.5-0.4-1.1-0.8-1.6-1.3-0.7-0.8-1.7-1.2-2.6-1.9 0-0.2-0.1-0.4-0.1-0.7-0.9-0.5-1.4-1.4-1.5-2.8 0-0.3-0.1-0.6-0.4-0.9-0.6-0.7-0.7-1.6-0.3-2.4 0.2-0.4 0.2-0.7 0-1.1-0.1-0.2-0.2-0.5-0.2-0.8 0-0.8 0.1-1.5 0.1-2.3 0-0.2-0.1-0.5-0.3-0.7 0.1 0.6-0.1 1.1-0.8 1.2-0.5 0.1-1.1-0.2-1.2-0.6-0.1-0.4 0.1-0.8 0.7-0.9 0.4-0.1 0.9-0.2 1.5-0.3 0.2-0.8 0.5-1.8 0.6-2.7 0.1-0.9-0.2-1.8-0.1-2.7 0-0.8 0.2-1.7 0.2-2.5 0-0.8 0.2-1.6-0.6-2.2 0-0.8 1.1-0.8 1.1-1.6-0.1-0.6-0.1-1.2-0.1-1.8-0.2-0.2-0.4-0.4-0.7-0.6 0.1-0.4 0.1-0.7 0.2-1.1 0.3-0.2 0.5-0.4 0.7-0.6 0.1-0.9 0.2-1.6 0.3-2.4-0.7-0.1-1.1-0.5-1.2-1-0.1-0.7 0.2-0.9 1.3-1.3 0-0.8 0.8-1.6 0.3-2.6-0.7 0.1-1.5 0.3-1.9-0.7 0.2-0.7 0.7-0.9 1.4-0.9 0.6 0 0.6 0 0.9-0.3 0.1-1.1 0.2-2 0.3-3 0.1-0.6 0.4-1.2 0.5-1.8 0-0.1 0.1-0.2 0-0.2-0.5-1 0.2-1.9 0.4-2.8 0-0.2 0.1-0.4 0-0.6-0.3-1.5 0.1-2.9 0.4-4.3 0.1-0.5 0-1.1-0.2-1.7-0.1 0.3-0.2 0.5-0.4 1-0.3-0.3-0.7-0.5-0.8-0.8-0.2-0.7 0.5-0.8 0.9-1.4 0.2 0.3 0.4 0.5 0.6 0.7 0.5-0.5 0-1-0.1-1.4 0.1-0.6 0.3-1.1 0.4-1.7-0.7-0.1-1.3-0.2-1.9-0.3-0.1-1 0.2-1.2 1.5-1.3 0.1 0.3 0.3 0.6 0.5 1 0.1-0.4 0.2-0.7 0.2-1 0.1-1.2 0.1-2.3 0.2-3.5 0.1-0.8 0.3-1.5 0-2.2 0-0.1-0.1-0.3 0-0.3 0.6-0.7 0.3-1.6 0.6-2.3 0.2-0.4 0-1 0-1.5-0.2-0.1-0.4-0.2-0.6-0.3v-1.1h0.9c0.2-0.9 0.4-1.8 0.7-2.9-0.5 0.1-0.7 0.2-1 0.2-0.5-0.2-0.7-0.9-0.4-1.7h1.3c0.3-0.7 0.3-1.6 0.4-2.4 0.1-0.6 0.1-1.2 0.2-1.8 0 0 0-0.1 0-0.1-0.7-1 0-2.2-0.5-3.3-0.4 0.5-1 0.5-1.5 0.2-0.3-0.1-0.4-0.6-0.6-0.8 0.3-0.9 1-1 1.7-1.2-0.3-0.7-1.2-1.3-0.6-2.2-0.3-0.3-0.5-0.6-0.9-0.9 0.1-0.3 0.3-0.7 0.4-1-0.2-0.6-0.4-1.1-0.6-1.6l0 0z"/><path d="m78.6 124.2c-0.4 0.3-0.7 0.5-1 0.8-0.3-0.1-0.6-0.3-0.8-0.4-0.2-1.8 0.2-2.2 1.9-1.5v1.1"/><path d="m73.1 180.6c0.4 0.4 0.8 0.8 1.3 1.3-0.3 0.4-0.5 0.6-0.7 0.9-0.5 0.5-1.2 0.3-1.4-0.3-0.2-0.6 0-1.3 0.8-1.9"/><path d="m75.4 154.2c-0.4-0.3-0.7-0.5-0.9-0.8-0.5-0.7-0.2-1.3 0.7-1.4 0.2 0 0.5 0 0.8 0.1 0.5 0.1 0.7 0.5 0.5 1-0.2 0.4-0.6 0.7-1 1.2"/><path d="m76.4 117.1c-0.4 0.9-1 1.1-1.8 0.8-0.1-0.4-0.2-0.8-0.3-1.2 1-1 1.6-0.9 2.2 0.4"/><path d="m58.6 41.4c-0.3 0.6-0.7 1.1-1.5 1-0.6-0.1-0.8-0.4-0.7-1.2 0.1-0.5 0.3-0.8 0.9-0.6 0.5 0.1 1.1-0.1 1.3 0.8"/><path d="m59.5 58.4c-0.7-0.4-1.2-0.9-1.1-1.6 0.1-0.8 0.9-0.6 1.4-0.9 0.6 0.9 0.5 1.7-0.3 2.5"/><path d="m78.5 137.3c0 0.6-0.4 1-0.9 1-0.5 0-0.9-0.5-0.9-1 0-0.6 0.4-1.2 0.8-1.2 0.5 0 1 0.5 1 1.2"/><path d="m75.2 160.6c0.6 0.2 1.1 0.5 1.1 1.3 0 0.6-0.4 1-1 1.1-1.1-0.8-1.2-1.5-0.1-2.3"/><path d="m75.4 167.5c-0.9-0.8-0.9-0.8-1.1-1.6 0.6-0.2 1.2-0.4 1.9-0.5 0.4 1.4 0.3 1.9-0.7 2.1"/><path d="m56.6 45.1c0.5 0.1 1 0.1 1.4 0.2 0.4 0.9 0.4 0.9-0.5 1.7-1.8-0.5-1.7-1.1-0.9-1.9"/><path d="m73.1 189.6c0.9 0.6 0.9 0.6 1.2 1.6-0.2 0.2-0.5 0.4-0.8 0.6-0.4-0.1-0.7-0.3-1-0.4-0.6-0.3-0.7-0.6-0.2-1 0.2-0.2 0.5-0.5 0.8-0.8"/><path d="m71.7 186.2c0.4-0.1 0.7-0.1 0.9-0.1 0.2-0.3 0.4-0.6 0.6-0.8 0.5 0 0.6 0.3 0.7 0.6 0 0.2 0 0.4 0 0.6 0 0.4 0 0.8-0.5 0.9-0.3 0-0.8-0.1-1.1-0.3-0.2-0.2-0.3-0.5-0.6-0.9"/><path d="m78 147c-1 0-1 0-1.4-1 0.3-0.3 0.5-0.6 0.8-0.9 1.5 0.3 1.5 0.3 0.6 1.9"/><path d="m74.1 168.5c-0.4 0.4-0.9 0.7-1.2 1.1-1.1-0.7-1.1-1-0.2-2 1 0.1 1 0.1 1.4 0.9"/><path d="m56.3 54.9c0.5-0.4 0.8-0.6 1.3-1 0.5 0.1 0.7 0.3 0.7 0.8 0 0.6-0.1 0.7-1.3 1-0.2-0.3-0.5-0.6-0.7-0.8"/><path d="m72.3 172.2c1-0.1 1-0.1 1.5 0.8-0.1 0.3-0.2 0.6-0.3 0.9-1.3 0.2-1.6-0.2-1.2-1.7"/><path d="m74 105.8c-0.2 0.2-0.4 0.5-0.6 0.6-0.3 0.1-0.7 0.1-1 0-0.4-0.2-0.6-0.6-0.4-1 0.2-0.2 0.6-0.5 0.9-0.5 0.5 0 0.9 0.2 1.1 0.9"/><path d="m59.5 62.4c-0.2-0.1-0.4-0.1-0.6-0.2-0.1-0.1-0.2-0.2-0.4-0.3 0.1-0.4 0.2-0.7 0.3-1.1 0.8-0.2 1.3-0.1 1.5 0.4 0.2 0.6-0.1 1-0.7 1.2"/><path d="m73.8 177.9c-0.4 0.2-0.8 0.4-1.2 0.5-0.7-0.8-0.7-0.8 0.1-1.9 1 0.2 1.2 0.5 1.1 1.4"/><path d="m58.3 37.6c-0.5 0.1-0.9 0.2-1.4 0.3-0.1-0.6-0.7-1-0.2-1.5 0.2-0.2 0.5-0.3 0.7-0.3 0.4 0 0.8 0.7 0.9 1.5"/><path d="m79.9 129.3c0.2 0.1 0.2 0.1 0.3 0.1 0.2 0.1 0.4 0.3 0.7 0.5-0.1 0.4-0.3 0.9-0.5 1.3-0.7 0.2-1-0.2-1.2-0.7-0.2-0.6 0.2-0.9 0.7-1.2"/><path d="m60.2 51.8c0 0.6 0.1 1.1 0.1 1.6-0.8 0.3-1.3-0.3-1.7-0.6-0.3-0.2 0-0.8 0.4-0.9 0.2 0 0.4 0 0.5 0 0.2 0 0.3-0.1 0.6-0.1"/><path d="m76.4 112.7c-0.3 0.2-0.4 0.3-0.6 0.4-0.4 0.3-0.9 0.5-1.1 0.1-0.2-0.3-0.2-0.8-0.2-1.2 0.1-0.4 0.4-0.5 0.8-0.3 0.4 0.3 0.7 0.6 1.1 1"/><path d="m54.8 33.7c1 0.4 1.2 0.8 0.9 1.5-0.2 0.5-0.7 0.6-1 0.2-0.5-0.5-0.4-1.2 0.1-1.7"/><path d="m78.6 119.1v0.8c-0.4 0.1-0.8 0.2-1.2 0.4-0.3-0.4-0.5-0.7-0.8-1.1 0.7-0.7 1.4-0.4 2 0l0 0"/><path d="m59.5 47c0.8 0.4 0.8 0.4 0.6 1.4-1.1 0.6-1.1 0.6-1.6-0.3 0-0.1 0.1-0.1 0.1-0.1 0.1 0 0.3 0 0.4 0 0.1-0.3 0.2-0.6 0.3-0.8 0 0 0.1 0 0.1 0"/><path d="m76.9 142.4c0.1-0.5 0.2-1 0.3-1.4 0.5 0.1 1.1-0.2 1.5 0.6-0.1 0.2-0.2 0.6-0.4 0.9-0.5 0-0.9-0.1-1.3-0.1"/><path d="m54.8 44.6c-0.1-0.7-0.4-1.4 0.6-1.7 0.3 0.3 0.9 0.5 0.7 1.1-0.2 0.5-0.6 0.7-1.3 0.6"/><path d="m74.6 156.7c0.5 0.1 0.7 0.1 1 0.2 0.2 0.1 0.6 0.2 0.6 0.4 0.1 0.3-0.1 0.6-0.5 0.7-0.1 0-0.2 0.1-0.4 0.2-0.3-0.2-0.5-0.4-0.9-0.6 0-0.3 0-0.6 0.1-1"/><path d="m72.4 163.4c1.1 0 1.1 0 1.7 0.7-0.5 0.2-0.8 0.9-1.5 0.6-0.4-0.2-0.4-0.4-0.2-1.3"/><path d="m57.4 51.2c-1-0.8-1-1.3-0.2-1.6 0.2-0.1 0.6 0 0.8 0.1 0.1 0.1 0.1 0.5 0.1 0.7-0.1 0.3-0.4 0.5-0.6 0.8"/><path d="m75.6 108.9c-0.6 0.2-1 0.2-1.3-0.2-0.1-0.3-0.1-0.7 0-0.9 0.2-0.4 0.6-0.3 1-0.2 0.1 0.4 0.2 0.9 0.3 1.4"/><path d="m73.4 158.6c0.2 0.4 0.3 0.8 0.5 1.3-0.2 0.1-0.3 0.3-0.5 0.4-0.4 0.2-0.8 0-0.8-0.4 0-0.5-0.1-1.1 0.8-1.2"/><path d="m60.9 60.2c0.1-0.7-0.3-1.4 0.7-1.7 0.2 0.5 0.4 1 0.6 1.7-0.5 0-0.8 0-1.3-0.1"/><path d="m77.8 127.1c0.3 0.4 0.5 0.8 0.7 1.1-0.1-0.1-0.3-0.1-0.4-0.2-0.3 0.3-0.5 0.6-0.7 0.8-0.2-0.5-0.2-1 0.4-1.7"/><path d="m77.6 133.5c-0.6 0-0.7-0.3-0.8-0.6-0.1-0.5 0.2-0.7 0.6-0.7 0.4 0 0.8 0.1 0.7 0.5-0.1 0.3-0.4 0.6-0.6 0.8"/><path d="m56 39.3c-0.5 0.3-0.9 0.4-1.3 0.7-0.2-0.5-0.3-0.9-0.4-1.3 0.9-0.5 1.1 0.2 1.7 0.6"/><path d="m57.5 60.1c-0.2-0.5-0.3-1-0.5-1.6 0.8-0.1 0.9 0.5 1.1 0.9 0.1 0.2-0.2 0.5-0.3 0.7-0.1 0-0.2 0-0.3 0"/><path d="m73.8 110.9c-1 0.1-1 0.1-1-0.9 0.9-0.1 1 0 1 0.9"/><path d="m143.3 89.1c0-0.3-0.1-0.6-0.1-1.1 0.5-0.1 0.9-0.3 1.4-0.4 0.6 0.3 0.7 0.8 0.8 1.4-0.3 0.2-0.5 0.4-0.8 0.6-0.3-0.1-0.6-0.1-0.9-0.2-0.1-0.1-0.2-0.2-0.3-0.3"/><path d="m126.7 180.7c0-0.9 0.6-1.1 1.4-1.2 0.5-0.7 1-1.5 0.7-2.7 0.5 0.1 0.9 0.1 1.3 0.1 0 0.7 0 1.3 0 1.9 0 0.2-0.1 0.6-0.3 0.7-0.6 0.3-0.7 0.9-0.8 1.4-0.9 0.5-1.6 0.3-2.3-0.3l0 0"/><path d="m81.5 185.3v1.5c-0.4 0.2-0.9 0.4-1.4 0.6-0.2-0.4-0.3-0.8-0.5-1.1-0.2-0.4-0.2-0.7 0.1-1 0.3-0.3 0.7-0.5 1.1-0.3 0.2 0.1 0.4 0.2 0.7 0.4"/><path d="m124.2 164.7c0.5-0.9 1.3-1 2.1-1.1 0.5-0.1 0.6 0.8 0.3 1.3-0.5 0.6-1.2 0.7-1.8 0.2-0.2-0.1-0.3-0.3-0.6-0.5"/><path d="m133.8 201.2c-0.1-0.1-0.1-0.2-0.2-0.4-0.2-0.4-0.3-0.8 0.2-1 0.4-0.2 0.9-0.5 1.4-0.2 0.4 0.3 0.6 0.6 0.5 1.1-0.1 0.5-0.5 0.8-1 0.7-0.3 0-0.6-0.2-0.9-0.2"/><path d="m83.8 193.2c-0.2 0.2-0.5 0.4-0.7 0.6-0.5-0.2-0.9-0.3-1.4-0.5 0.4-1.2 0.8-1.7 1.6-1.6 0.6 0.1 0.6 0.3 0.6 1.4"/><path d="m81.5 182.2c-0.7-0.3-1.4 0.7-2.2-0.1 0.2-0.4 0.4-0.9 0.6-1.3 0.3-0.1 0.7-0.2 1-0.3 0.8 0.7 0.8 0.7 0.6 1.7"/><path d="m133 190.2c-1.1 0.1-1.5 0-1.7-0.6-0.2-0.7 0.1-1.2 0.9-1.5 1 0.8 1 0.8 0.8 2.1"/><path d="m129.7 188.1c-0.7-0.6-0.9-1.2-0.5-1.7 0.3-0.3 1-0.5 1.4-0.2 0.5 0.3 0.6 0.7 0.1 1.8-0.3 0-0.6 0.1-0.9 0.1"/><path d="m81.7 166.4c0-1.5 0.3-1.7 1.8-1.2 0.3 0.7 0.3 1.1-0.1 1.5-0.7 0.6-1-0.4-1.6-0.4"/><path d="m126.9 171c0.3-0.2 0.6-0.4 0.9-0.7 0.9 0.3 1.2 0.6 1.1 1.2-0.1 0.4-0.5 0.9-1 0.9-0.5 0-0.8-0.3-1-1.4"/><path d="m125.1 170.2c-0.6-0.7-0.8-1.2-0.5-1.6 0.2-0.4 0.6-0.6 1-0.4 0.5 0.2 0.8 0.5 0.8 1 0 1-0.9 0.6-1.3 1"/><path d="m85.6 146.8c-0.3 0-0.5 0.1-0.7 0-0.4-0.1-0.7-0.3-0.6-0.8 0.1-0.3 0-0.6 0-1.1 0.5-0.1 0.9-0.1 1.3-0.1 0.5 0.7 0.4 1.3 0.1 2"/><path d="m133.3 196c0.2-1.1 1-1 1.8-1 0.2 0.7 0.3 1.3-0.3 1.9-0.6-0.1-1.2-0.1-1.5-0.8"/><path d="m82.3 171.4c-0.9-0.9-0.8-1.3 0.4-1.9 0.8 0.3 1 0.7 0.9 1.2-0.2 0.9-1 0.4-1.4 0.7"/><path d="m88.3 139.6c-0.6 0.5-1.1 0.5-1.7 0.3-0.2-1.2 0.1-1.6 0.9-1.7 0.6 0 0.8 0.2 0.8 1.4"/><path d="m128 174.7c1 0.9 0.9 1.2-0.1 2.2-0.4-0.3-0.8-0.6-1.2-0.9-0.1-0.9 0.8-0.9 1.2-1.4"/><path d="m129.1 182.9c0.2-0.5 0.4-1 0.7-1.5 0.4 0.1 0.7 0.3 1.2 0.4-0.1 0.6-0.1 1.2-0.4 1.5-0.4 0.5-0.9-0.1-1.5-0.4"/><path d="m84.4 158.5c0.3-0.1 0.5-0.2 0.8-0.3 0.8 0.5 0.9 0.6 0.6 1.3-0.2 0.4-0.4 0.7-0.9 0.6-0.6-0.1-0.7-0.5-0.5-1.6"/><path d="m81.6 177.2c-0.4 0.3-0.7 0.6-1 0.8-0.8-0.2-0.8-0.9-1.1-1.4 0.5-1 1.1 0.1 1.7-0.3 0.1 0.3 0.2 0.5 0.4 0.9"/><path d="m82.7 173.9c1.1 0.8 1.2 1 0.8 1.8-0.1 0-0.2 0-0.3 0-0.3 0-0.6 0-0.9 0-0.7-1-0.7-1.1 0.4-1.8"/><path d="m82.1 162.2c0.1-0.5 0.2-1 0.3-1.5 0.6-0.2 0.9-0.1 1.2 0.5 0.2 0.4 0.2 0.8-0.1 1.2-0.5 0.5-0.8 0.2-1.3-0.1"/><path d="m132.8 194.6c-1.4-0.4-1.4-0.4-1.2-1.7h1.4c0.1 0.6 0.2 1.2-0.2 1.7"/><path d="m88.3 143.1c-0.4 1.1-1 1.3-2 0.8v-0.8c0.3-0.5 0.9-0.5 2 0"/><path d="m85.8 150.9c-0.2 0.1-0.4 0.2-0.6 0.2-1-0.6-1.1-0.8-0.9-1.2 0.2-0.4 0.6-0.6 1-0.5 0.5 0.1 0.6 0.6 0.6 1.5"/><path d="m123.3 161.5c1.1 0.1 1.1 0.1 1 1.6-0.4 0.3-0.7 0.6-1.4 0.3 0.1-0.6 0.3-1.2 0.4-1.8"/><path d="m135.5 192.1c-0.7 0.1-1.2 0.2-1.7 0.2-0.1-0.5-0.2-0.8-0.4-1.3 0.4-0.1 0.8-0.2 1.3-0.4 0.2 0.4 0.4 0.8 0.7 1.4"/><path d="m79.7 191.3c-0.1-1 0.6-1.3 1.3-1.6 0.4 0.1 0.8 0.2 0.8 0.9-0.7 0-1 1.2-2 0.7"/><path d="m128.2 167.9c-0.3 0-0.5 0-0.9 0-0.7-0.3-0.6-0.8 0.1-1.8 1 0.4 1.2 0.8 0.7 1.8"/><path d="m86 154.1c0.2 0.5 0.1 1-0.4 1.2-0.3 0.1-0.8 0-1.1-0.3-0.2-0.2-0.2-0.6-0.2-1 0-0.1 0.5-0.2 0.7-0.2 0.3 0 0.5 0.2 0.9 0.3"/><path d="m80 194.3c1.1-0.2 1.5-0.1 1.5 0.4 0 0.4-0.6 1.1-1 1.1-0.5 0-0.6-0.3-0.5-1.5"/><path d="m133.1 185.3c-0.7 0.6-1.2 0.6-1.6 0.1-0.4-0.4-0.2-0.7 0.7-1.6 0 0.2 0 0.4 0.1 0.5 0 0.2 0 0.4 0 0.6 0.3 0.1 0.6 0.3 0.9 0.4"/><path d="m83.5 179.9c-1.1-0.4-1.3-0.8-1.1-1.3 0.2-0.3 0.5-0.5 0.8-0.3 0.2 0.2 0.4 0.4 0.4 0.7 0.1 0.2-0.1 0.5-0.2 0.8"/><path d="m131.6 179.7c0.9 0.4 1 1 0.9 1.8-0.3 0-0.6 0-1 0 0-0.6 0.1-1.2 0.1-1.8"/><path d="m84.8 140.3c0.8 0.8 0.8 1.2 0.2 2-0.3-0.2-0.5-0.4-0.8-0.7 0.2-0.4 0.4-0.8 0.6-1.3"/><path d="m136.5 199c-0.3-0.2-0.6-0.4-0.8-0.6 0 0 0-0.1-0.1-0.2 0.2-0.3 0.5-0.6 0.9-0.9 0.4 0.7 0.4 1.2 0.1 1.8"/><path d="m84.9 189.7c0.3 0.9 0.3 0.9 0 1.6-0.8-0.5-0.8-0.9 0-1.6"/><path d="m83.8 168c0.3-0.2 0.5-0.4 0.7-0.5 0.4 0.1 0.4 0.7 0.2 1.4-0.6 0.1-0.7-0.4-0.9-0.9"/><path d="m86.2 147.7c0.5 0.1 0.9 0.1 1.3 0.1 0 0.3 0 0.6 0 0.7-0.4 0.4-0.9 0.1-1.3-0.9"/><path d="m82 188.8c0.6-0.5 1.1-0.6 1.6-0.4 0.1 0.6-0.5 0.6-0.8 0.8-0.2-0.1-0.5-0.3-0.8-0.5"/><path d="m88.3 84.1c0.2 1.3 0.4 2.4 0.6 3.5 0-1.1 0.4-2.4-0.6-3.5zm31.8 15.7c0.2 0.1 0.4 0.2 0.5 0.2 2.2-0.5 4.4-1 6.5-1.5 0-0.5-0.1-1 0-1.4 0.3-0.9 0-1.5-0.4-2.2-0.2-0.3-0.4-0.6-0.2-1.1 0.1-0.2 0-0.6-0.1-0.8-0.7-1.4-0.6-3-0.9-4.5-0.1-0.5 0.1-1-0.4-1.5-0.2-0.1-0.1-0.5-0.1-0.8 0-0.4 0-0.8 0-1.2-0.2-0.9-0.8-1.7-0.6-2.8 0-0.2-0.1-0.3-0.1-0.5-0.1-0.4-0.1-0.8-0.2-1.3 0-0.3 0-0.6-0.1-0.9-0.3-1.1-0.5-2.2-0.8-3.4-0.6 0.1-1.3 0-1.8 0.3-0.8 0.5-1.6 0.7-2.4 0.9-0.1 0-0.2 0-0.3 0-0.1-0.3-0.3-0.5-0.4-0.8-0.2 0.2-0.6 0.3-0.6 0.5-0.1 0.5-0.5-0.5-0.5 0.2-0.7 0.2-1.3 0.8-2.1 0.9-0.7 0-1.4 0.2-2.1 0.3-0.7 0.1-1.4 0.3-2 0.4-0.4 0.1-0.9 0.1-1.3 0.1-0.2 0-0.4-0.1-0.6 0-1 0.2-2 0.4-3 0.7-0.7 0.2-1.3 0.3-2 0.5-1.6 0.3-3.1 0.5-4.7 0.8-0.9 0.2-1.8 0.4-2.6 0.5-1.1 0.1-2.3 0.2-3.4 0.3-0.7 0.1-1.5 0.2-2.3 0.4 0.1 0.7 0.3 1.2 0.4 1.8 0.3 1.7 1.1 3.2 1 5 0 0.8-0.1 1.7 0.5 2.4 0.1 0.1 0.1 0.3 0.1 0.5 0.1 0.6 0.2 1.2 0.3 1.8 0.3 1.3 0.7 2.6 0.6 3.9 0 0.2 0 0.5 0.1 0.7 0.5 1 0.9 2.1 0.7 3.3 0 0.1 0 0.3 0 0.4 0.4 0.8 0.5 1.7 0.3 2.6 0 0.1 0 0.1 0.1 0.3 0.2 0 0.5 0 0.7-0.1 0.7-0.6 1.6-0.6 2.4-0.5 0.2 0 0.5 0 0.6-0.2 0.3-0.6 0.9-0.4 1.3-0.5 0.4 0 0.8 0.1 1.1-0.1 0.8-0.6 1.8-0.5 2.7-0.6 0.8 0 1.6 0 2.3-0.3 1.2-0.4 2.5-0.7 3.8-0.4 0.2 0 0.4 0 0.5 0 1.1-0.4 2.2-1 3.4-0.6 0.1 0 0.3-0.1 0.4-0.1 0.6-0.1 1.1-0.3 1.7-0.6 0.4-0.3 1.1-0.2 1.7-0.2 0.3 0 0.5-0.1 0.7-0.1 0.7 0.2 1.2-0.1 1.7-0.5zm-31.9-18.3c-0.8-0.9-0.8-1.1-0.3-1.8 0.8-0.3 1.4-0.6 2.1-0.8 0.5-0.1 1.1-0.1 1.6-0.2 0.3-0.1 0.7-0.3 1-0.3 0.3-0.1 0.7-0.2 1-0.1 0.5 0.2 0.7 0 1.2-0.2 0.9-0.4 1.8-0.5 2.8-0.8 1.1-0.3 2.2-0.6 3.3-0.7 0.1 0 0.2 0 0.3-0.1 0.6-0.8 1.6-0.7 2.4-0.8 0.8-0.1 1.5-0.2 2.3-0.4 1.1-0.3 2.2-0.4 3.3-0.8 0.8-0.3 1.7-0.3 2.6-0.5 1.2-0.2 2.3-0.4 3.5-0.6 1.2-0.2 2.3-0.4 3.5-0.7 0.4-0.1 0.8-0.2 1.2-0.3 1.1-0.4 2.2 0 2.8 1.1 0.1-0.3 0.2-0.7 0.4-1 0.9-0.6 1.7-0.4 2.1 0.6 0.2 0.4 0.3 0.8 0.3 1.3 0 0.7 0.6 1.2 0.5 2-0.1 0.6 0.4 1.3 0.5 2 0.2 0.7 0.3 1.4 0.4 2.1 0 0.3 0 0.6 0.1 0.9 0.1 1.4 0.5 2.7 0.9 4 0.2 0.8 0.1 1.6 0.6 2.4 0.1 0.1 0 0.3 0 0.4-0.3 0.6-0.1 1 0.2 1.5 0.3 0.5 0.4 1.1 0.5 1.6 0.1 0.7 0.2 1.5 0.2 2.3 0 0.1 0 0.1 0 0.2 0.2 1.1 0.5 2.3 0.7 3.4 0 0.2 0.1 0.4 0.1 0.5-0.2 0.4 0 0.7 0.1 1 0.2 0.7 0.1 1-0.6 1.4-0.6 0.3-1.3 0.5-1.9 0.8-0.2 0.9-0.5 1.9-0.7 2.8-1.1-0.1-1.9 0.6-2.9 0.3-0.2-0.1-0.4 0.1-0.6 0.2-0.2 0.1-0.4 0.2-0.5 0.2-1-0.3-1.9 0.7-2.9 0.4-0.5 0.5-1.2 0.3-1.8 0.5-0.1 0-0.3 0.1-0.4 0-1.3-0.3-2.5 0-3.7 0.4-0.5 0.2-1.1 0-1.7 0-0.2 0-0.6-0.1-0.7 0.1-0.4 0.7-1 0.2-1.5 0.2-0.4 0-0.9 0-1.3 0.2-0.9 0.4-2 0.4-2.9 0.6-0.6 0.1-1.2 0-1.8 0-2.3 0.2-4.7 0.4-7 0.7-1.1 0.1-2.3-0.2-3.3 0.4-0.3 0.1-0.7-0.1-1-0.1-0.3 0-0.6-0.1-1.1-0.1-0.1-1-0.3-2-0.5-3.1-0.1-0.4-0.3-0.7-0.4-1.1-0.2-1.1-0.3-2.3-0.5-3.4-0.1-1.2-0.1-2.4-0.5-3.6-0.3-0.9-0.4-1.9-0.6-2.8-0.1-0.5-0.3-1-0.5-1.5-0.2-0.5-0.3-1-0.2-1.6 0.1-0.7-0.2-1.4-0.4-2.1-0.3-0.7-0.3-1.5-0.4-2.2-0.1-0.6-0.3-1.2-0.5-1.8-0.1-0.3-0.3-0.6-0.4-1-0.3-1.1-0.2-1.3 0.9-1.7 0.1 0 0.1-0.1 0.2-0.2z"/><path d="m109.4 57c0 0.2 0 0.4-0.1 0.5-0.3 0.7-0.7 1.4-0.9 2-0.9 0.1-1.6 0.2-2.4 0.3-0.1 0-0.3 0.2-0.4 0.3-0.2 0.4-0.4 0.4-0.8 0.3-0.2 0-0.3 0-0.5 0-0.6 0.1-0.6 0.1-1.2-0.4-0.5 0.2-1.1 0.4-1.6 0.6 0 0.2 0.1 0.4 0.1 0.6-1-0.3-1.7 0.1-2.4 0.7-0.2 0.2-0.4 0.3-0.7 0.3-1 0.1-2 0-2.9 0.2-1.3 0.3-2.6 0-3.8 0.4-0.8 0.3-1.8 0.2-2.7 0.2-0.3 0-0.6-0.3-1.1-0.5 0.1-0.6 0.3-1.1 0.4-1.8 0.9 0 1.5-0.9 2.4-0.3 0.6-0.6 1.3-0.8 2.1-0.5 0.1 0 0.2 0.1 0.3 0 0.8-0.2 1.6-0.4 2.4-0.6 0.3-0.1 0.7 0.1 1.1 0.1 0.4-0.4 0.9-0.9 1.7-0.5 0.1 0 0.3 0 0.4-0.1 0.4-0.1 0.8-0.3 1.2-0.3 0.7-0.1 1.3-0.4 2.1-0.8 0.2 0.1 0.5 0.4 1 0.6 0.4-0.1 0.9-0.3 1-0.9 1.1 0 2-0.2 2.9-0.6 0.7-0.2 1.5 0 2.3 0"/><path d="m78.7 67.9c1.1 0.5 1.3 1.1 0.6 1.8-0.3 0.2-1.2 0.4-1.5 0.2-0.5-0.3-0.4-1.1 0.1-1.5 0.3-0.2 0.5-0.3 0.8-0.5"/><path d="m79.8 76.1v-1.2c0.6 0 1.1 0 1.6 0.1 0.5 0.1 0.8 0.6 0.6 1-0.2 0.5-0.9 0.8-1.3 0.6-0.3-0.2-0.6-0.3-0.9-0.5"/><path d="m86.4 120.5c-1.4 1.2-1.5 1.2-2.3 0 0.4-0.5 0.4-1.3 1.2-1.3 0.7 0 0.8 0.7 1.1 1.3"/><path d="m83 108c1.2 0.7 1.2 0.8 0.9 2.1-0.5 0-1 0.1-1.5 0.1-0.4-1.3-0.3-1.6 0.6-2.1"/><path d="m79.5 60.7c-0.4 0.2-0.9 0.4-1.4 0.6-0.2-0.6-0.4-1.1-0.6-1.6 0.5-0.6 0.9-0.6 1.5-0.4 0.6 0.3 0.6 0.7 0.5 1.3"/><path d="m82.2 87.4c0-0.7 0.1-1.4 0.9-1.8 0.3 0.2 0.6 0.4 1 0.8-0.7 0.4 0.2 1.4-0.8 1.7-0.3-0.2-0.7-0.4-1-0.6"/><path d="m83.4 92.5c-0.5-0.2-0.9-0.5-1.4-0.7 0.2-0.5 0.4-0.9 0.6-1.3 0.6 0 1.1 0.1 1.4 0.7 0.2 0.3 0 0.6-0.7 1.3"/><path d="m82.5 105.7c-0.2-0.3-0.3-0.4-0.4-0.6-0.1-0.1-0.2-0.3-0.3-0.5 0.5-0.5 1.1-0.9 1.7-0.6 0.6 0.3 0.3 0.9 0.3 1.3-0.5 0.1-0.9 0.2-1.4 0.3"/><path d="m80.8 72.4c-0.4-0.6-0.7-1.1-0.9-1.6 0.6-0.8 0.9-0.9 1.5-0.5 0.5 0.4 0.4 1-0.6 2.1"/><path d="m83.3 94.8c0.2 0.4 0.5 0.7 0.5 1 0.1 0.3 0 0.8-0.2 0.8-0.3 0.1-0.8 0.1-1.1-0.1-0.3-0.1-0.5-0.4-0.4-0.8 0.1-0.5 0.5-0.8 1.2-1"/><path d="m77.7 63.9c0.3-0.2 0.6-0.3 0.9-0.5 0.3 0.3 0.6 0.5 0.9 0.8-0.1 0.5-0.1 1-0.6 1.2-0.5 0.2-0.8 0.1-1-0.4-0.1-0.3-0.1-0.6-0.2-1.1"/><path d="m76.7 61.4c0.7 0.4 0.6 1 0.5 1.6-0.3 0.1-0.6 0.2-0.9 0.3-0.6-0.3-0.5-0.8-0.5-1.5 0.1 0.2 0.2 0.3 0.3 0.5 0.2-0.3 0.3-0.6 0.5-0.9"/><path d="m81.2 66.1c-0.1 0.6-0.3 1.1-0.4 1.6-0.8-0.3-1.1-0.7-0.8-1.3 0.2-0.5 0.5-0.6 1.2-0.3"/><path d="m83.7 100c-0.1 0.3-0.2 0.6-0.4 1-0.5-0.1-0.9-0.3-1.4-0.4 0.1-0.5 0.1-1 0.7-1.2 0.5-0.2 0.7 0.1 1 0.6"/><path d="m84.3 115.8c0.1-0.1 0.2-0.2 0.3-0.3 0.1-0.1 0.2-0.3 0.3-0.4 0.8 0.3 0.6 1 0.7 1.7-0.4 0.1-0.7 0.1-1 0.2-0.1-0.4-0.2-0.7-0.4-1.1"/><path d="m79.9 80.2c0.5-0.3 0.9-0.6 1.3-0.9 0.5 0.1 0.5 0.5 0.5 0.9-1 0.9-1 0.9-1.8 0"/><path d="m84.4 102.8c-0.2-1 0-1.2 1.2-1.2 0.1 0.4 0.2 0.7 0.2 1.2h-1.4"/><path d="m83.5 81.7c0 0.3 0 0.4-0.1 0.6 0 0.2-0.1 0.3-0.2 0.5-0.2 0.1-0.3 0.1-0.5 0.1-0.2 0-0.3 0-0.5 0-0.2-1.1 0.1-1.4 1.3-1.3"/><path d="m85.3 110.8v1.8c-0.4-0.2-0.7-0.3-0.9-0.4-0.1-1-0.1-1 0.9-1.4"/><path d="m76.7 67.8c-0.7-0.6-0.4-1.3-0.5-2.2 0.4 0.2 0.8 0.3 0.8 0.4 0.1 0.6 0.3 1.2-0.3 1.8"/><path d="m82.9 114.3c0.1-0.5 0.2-1.1 0.2-1.7 1 0.2 0.7 0.9 0.7 1.4-0.2 0.1-0.5 0.3-0.7 0.4-0.1 0-0.2-0.1-0.2-0.1"/><path d="m110.8 57.7c0 0.4 0 0.7-0.1 1-0.4 0-0.8 0.1-1.2 0.1 0-0.3 0-0.6-0.1-0.8 0.4-0.1 0.9-0.2 1.4-0.3"/><path d="m84.7 106.4c0.2 0.1 0.4 0.2 0.7 0.3v1c-0.1 0-0.2 0.1-0.3 0.1-0.6-0.2-0.6-0.4-0.4-1.3"/><path d="m86.3 122.4c0.4-0.1 0.7-0.2 1-0.3v1.4c-0.7 0-0.6-0.6-1-1"/><path d="m152.3 73.9c0.4 0.2 0.7 0.4 1 0.5 0.3 0.2 0.5 0.4 0.8 0.5-0.2 0.4-0.5 0.8-0.7 1.2-1 0-1.2-0.1-1.5-1-0.1-0.4-0.3-0.7-0.7-0.9-0.3-0.1-0.5-0.3-0.7-0.4-1-0.6-1.1-1.2-0.2-2 0.1-0.1 0.2-0.1 0.3-0.2 1 0.4 1.6 1.1 1.6 2.3"/><path d="m162.3 103.4c-0.6-0.2-1-0.5-1.1-1.1-0.1-0.7 0.3-1.2 0.9-1.4 1.6 1.1 1.6 1.4 0.2 2.6"/><path d="m137.7 83.2c-0.8-0.4-1.4-1.2-1.1-1.7 0.4-0.9 1.1-0.3 1.7-0.4 0.8 1.3 0.7 1.4-0.5 2.2"/><path d="m145.4 86.7c0.1-0.3 0.1-0.7 0.3-1 0.1-0.2 0.4-0.4 0.7-0.4 0.7-0.1 1.2 0.4 1.2 1 0 0.3-0.2 0.7-0.4 0.9-0.2 0.2-0.7 0.1-1 0-0.3-0.1-0.5-0.3-0.9-0.6"/><path d="m157.7 94.4c-0.9-0.4-1.2-0.8-1.1-1.4 0.1-0.4 0.6-1 1-1 0.5-0.1 0.8 0.3 1 0.7 0.4 0.9-0.3 1.2-0.8 1.8"/><path d="m140.8 82c0.4-0.4 0.7-0.8 1.1-1.3 0.4 0.1 0.8 0.3 1.1 0.4 0 0.3 0.1 0.6 0.1 0.9 0 0.8-0.3 1.1-1 0.9-0.5-0.1-0.9-0.3-1.2-1"/><path d="m137.6 71.8c0.3 0.3 0.6 0.5 0.7 0.7 0.4 0.6-0.1 1.7-0.8 1.8-0.2 0-0.5-0.1-0.6-0.3-0.3-0.3-0.5-0.7-0.7-1.1 0.5-0.4 0.9-0.7 1.4-1.1"/><path d="m136.6 66.2c-0.1 0.3-0.3 0.7-0.4 1.1-0.4 0-0.7 0-1.1 0.1-0.2-0.5-0.5-0.9-0.7-1.4-0.1-0.2 0.1-0.5 0.3-0.6 0.4-0.4 1-0.1 1.9 0.9"/><path d="m157.6 85.3c-0.2-0.1-0.3-0.2-0.4-0.2-0.2-0.2-0.4-0.4-0.6-0.6 0.4-1.2 0.6-1.3 1.5-1.2 0.5 0 0.7 0.2 0.8 0.7 0.2 1-0.7 1-1.3 1.4"/><path d="m172.6 114.2c-0.6-1.2-0.6-1.3 0.1-2.1 0.4 0.1 0.7 0.2 1.1 0.3 0.6 1.8 0.4 2.1-1.2 1.8"/><path d="m158.6 94.6c0.3 0 0.6 0 1 0.1 0.1-0.1 0.2-0.3 0.4-0.7 0.4 0.5 0.7 0.9 1 1.2-0.1 0.7-0.6 1-1.1 1.2-1.2-0.6-1.3-0.7-1.2-1.8"/><path d="m163.2 86c0.6-0.2 1.3-0.4 2-0.6 0.2 0.7 0.3 1.2 0 1.8-0.3 0.6-0.7 0.7-1.2 0.2-0.3-0.3-0.6-0.7-0.9-1 0-0.1 0.1-0.2 0.1-0.3"/><path d="m147.1 64.9c-0.5 0-0.9-0.1-1.3-0.1-0.4-0.7-0.4-1.3 0.1-1.7 0.3-0.3 1.3-0.2 1.6 0.2 0.5 0.7-0.2 1.1-0.3 1.6"/><path d="m138.7 79c1.5-0.3 1.7-0.3 2.1 0.7-0.5 1-0.5 1-1.7 0.9-0.6-0.4-0.5-1-0.4-1.6"/><path d="m164.5 94.1c0.5 0.4 1 0.7 0.9 1.4-0.1 0.6-0.6 0.8-1.1 0.9-1.3-0.9-1.3-1.5 0.2-2.3"/><path d="m156.4 75.1c0.3-0.4 0.6-0.9 1.2-0.8 0.5 0 1.1 0.5 1.2 0.9 0 0.5-0.4 0.8-1.1 0.9-0.7 0.1-1.1-0.2-1.3-1"/><path d="m152.4 87.9c0.4-0.1 0.7-0.2 1.1-0.4 0.8 0.4 0.8 1 0.7 1.7-0.5 0.1-1 0.1-1.5 0.2-0.5 0.1-0.7-0.2-0.6-0.7 0.1-0.3 0.2-0.5 0.3-0.8"/><path d="m140.4 85h-1.2c0.1-0.6-1-1-0.2-1.7 0.4-0.3 1.3-0.3 1.7 0 0.4 0.3 0.3 0.6-0.3 1.7"/><path d="m145.6 78.2c-0.2-1.2 0.1-1.7 0.8-1.8 0.7-0.1 1 0.2 1.2 1.4-0.5 0.8-1.3 0.4-2 0.4"/><path d="m168.1 91.9c-0.2-0.4-0.4-0.7-0.6-1.1 0.4-0.8 0.8-1 1.4-0.8 0.5 0.2 0.9 0.9 0.8 1.3-0.1 0.5-0.6 0.7-1.6 0.6"/><path d="m156.5 90.8c-0.3 0.4-0.6 0.8-0.8 1.2-0.8-0.2-1.2-0.5-1.4-1.2 0.3-0.6 0.7-1.2 1.6-1 0.2 0.3 0.4 0.6 0.7 1"/><path d="m150.4 90c0.6-0.3 1.1-0.4 1.6 0.2 0.1 0.5 0.2 1.1-0.4 1.4-0.3 0.2-0.8 0.4-1.2 0-0.4-0.5-0.5-1 0-1.7"/><path d="m152.3 70c0.8-0.4 0.8-0.4 1.7 0.2 0 0.3 0 0.7 0.1 1-0.3 0.2-0.6 0.5-1 0.7-0.9-0.4-0.9-1.1-0.8-2"/><path d="m165.3 106.6c0.4-0.8 0.9-1.2 1.4-1.1 0.5 0.1 0.7 0.6 0.5 1.9-1.2 0.2-1.5 0.1-1.9-0.7"/><path d="m156.6 87.8c0.8 0 1.5-0.3 1.9 0.4 0.2 0.2 0.1 0.7 0 1-0.4 0.6-1.1 0.4-1.8 0.3 0-0.5-0.1-1-0.1-1.6"/><path d="m149.6 66.4c-0.3 0.4-0.6 0.8-0.9 1.1-0.5-0.2-1.2-1-1.2-1.5 0-0.4 0.2-0.6 0.5-0.7 0.2 0 0.4 0 0.6 0 0.2 0 0.4 0.1 0.6 0.1 0.1 0.4 0.1 0.7 0.2 1"/><path d="m172.1 99.9c0.3-0.7 0.9-1 1.5-1.1 0.6 0.2 0.8 0.6 0.7 1.1-0.1 0.3-0.3 0.7-0.5 0.7-0.6 0.1-1.3 0-1.7-0.7"/><path d="m141.9 65.1c-0.8-0.3-1-0.9-0.8-1.6 1.1-0.6 1.7-0.5 1.9 0.1 0.2 0.5-0.2 1.1-1.1 1.5"/><path d="m148.1 87.9c0.6-0.1 1.1-0.2 1.7 0.2-0.1 0.4-0.2 0.8-0.4 1.2-0.1 0.2-0.4 0.5-0.6 0.5-0.3 0-0.6-0.2-0.8-0.4-0.3-0.4-0.3-1 0-1.5"/><path d="m155.5 74.1c-0.4-0.3-0.7-0.6-1.2-1 0.1-0.3 0.1-0.6 0.2-1h1.4c0.6 0.9 0.6 1.1-0.5 2"/><path d="m149.6 86.3c0.2-0.2 0.3-0.5 0.5-0.6 0.4-0.4 1.2-0.4 1.5 0.1 0.3 0.4 0.1 1.2-0.2 1.5-0.3 0.2-1.1 0-1.5-0.3-0.1-0.2-0.2-0.4-0.3-0.6"/><path d="m142.2 85.4c1 0.9 0.9 1.6-0.2 2.2-0.3-0.2-0.5-0.3-0.8-0.5-0.2-1.1-0.1-1.5 1-1.7"/><path d="m138.2 69c-0.5 0.3-0.9 0.7-1.4 0.3-0.8-0.6 0-1.2-0.1-1.8 1.2-0.5 1.3 0.2 1.5 1.6"/><path d="m165.2 89.9c0.2 1.1 0 1.5-0.5 1.7-0.5 0.2-1 0-1.4-0.5-0.3-0.4-0.2-0.8 0.2-1 0.5-0.2 1.1-0.2 1.7-0.3"/><path d="m165.3 81.4c0.1 1-0.1 1.4-0.7 1.6-0.4 0.1-0.7-0.1-0.9-0.4-0.3-0.4-0.1-1.3 0.3-1.6 0.3-0.3 0.5-0.2 1.3 0.5"/><path d="m166.9 103.1c-1.5-0.7-1.7-1.2-0.9-2.2 1.6 0.5 1.9 1.2 0.9 2.2"/><path d="m139.2 60.5c1.1 0.4 1.1 0.4 1.5 1.8-0.3 0.2-0.7 0.4-1 0.5-0.9-0.6-1-1.2-0.5-2.4"/><path d="m154.8 78.4c-0.6-0.7-0.7-0.9-0.3-1.4 0.3-0.4 0.9-0.6 1.3-0.4 0.5 0.3 0.5 0.6 0.3 1.5-0.4 0.1-0.8 0.2-1.3 0.3"/><path d="m161 77.6c-0.4 0.9-1 0.6-1.6 0.6-0.5-0.9-0.6-1.1-0.1-1.5 0.5-0.5 1-0.5 1.3 0.1 0.2 0.3 0.3 0.6 0.4 0.8"/><path d="m167.1 89.3c-0.6 0.1-1.1 0.2-1.6-0.4 0.1-0.3 0.3-0.7 0.5-1 0.2-0.4 0.4-0.7 0.9-0.5 0.5 0.2 0.8 0.8 0.6 1.2-0.1 0.2-0.2 0.4-0.4 0.6"/><path d="m171.9 89.3c-0.5 0.1-1 0.1-1.6 0.2-0.1-0.2-0.5-0.6-0.4-0.7 0.2-0.4 0.6-0.7 1-0.9 0.5-0.2 1.1 0 1.4 0.7-0.1 0.2-0.3 0.5-0.4 0.7"/><path d="m160 83c-0.3-0.2-0.5-0.3-0.7-0.4-0.2-0.1-0.3-0.1-0.5-0.2 0-0.8 0.4-1.4 1.2-1.7 0.3 0.4 0.5 0.7 0.8 1.1-0.3 0.4-0.6 0.8-0.9 1.2"/><path d="m171.2 103.1c-1.4-0.6-1.4-0.8-0.3-2.2 1.3 0.3 1.4 1 0.3 2.2"/><path d="m154.9 82.7c-0.4-0.9-0.3-1.5 0.1-1.8 0.2-0.1 0.6-0.1 0.8 0 0.4 0.3 0.7 1.1 0.6 1.4-0.1 0.4-0.4 0.4-1.5 0.3"/><path d="m159.1 91.3c-0.1-0.9 0.1-1.5 0.5-1.5 0.4 0 0.8 0.2 1 0.4 0.3 0.2 0.2 1.1-0.1 1.3-0.6 0.5-1 0-1.5-0.2"/><path d="m169.7 94.5c0 1.4-0.3 1.7-1.7 1.5-0.1-0.6-0.3-1.3 0.4-1.8 0.5-0.4 0.9 0.1 1.3 0.3"/><path d="m138.5 63.3v1.3c-0.7 0.3-1.5 0.4-1.8-0.2-0.4-0.6 0.2-1.1 0.7-1.5 0.4 0.1 0.7 0.3 1.1 0.4"/><path d="m172 111.4c-0.3 0.1-0.6 0.3-1 0.4-0.3 0-0.7 0-0.8-0.1-0.1-0.2-0.2-0.7-0.1-0.9 0.2-0.3 0.5-0.6 0.9-0.8 0.2-0.1 0.6 0 0.7 0.2 0.3 0.4 0.5 0.8 0.2 1.3"/><path d="m163.3 108.2c0.8-0.6 1.4-0.6 1.9 0 0.4 0.5 0.3 0.8-0.5 1.5-1.2 0.1-0.7-1.1-1.4-1.5"/><path d="m163.5 100.3c0.2-1.3 0.3-1.4 1.5-1.3 0.4 1.1 0.4 1.4-0.2 1.8-0.6 0.4-0.9 0-1.3-0.5"/><path d="m140.7 71.3c-0.4 0.2-0.6 0.4-0.9 0.6-0.8-0.4-1-0.9-0.8-1.4 0.2-0.4 0.5-0.6 1-0.6 0.5 0.1 0.7 0.6 0.8 1.4"/><path d="m169.8 108.8c-0.4 0.6-0.8 1-1.5 0.8-0.4-0.1-0.5-0.5-0.5-1.4 1-0.5 1.3-0.4 2 0.5"/><path d="m138.6 75.5c0.2-0.5 0.3-0.8 0.5-1.2 0.3 0 0.5-0.1 0.7-0.1 0.3 0.1 0.7 0.2 0.8 0.4 0.1 0.3 0 0.7-0.2 1-0.2 0.2-0.5 0.5-0.9 0.3-0.3-0.1-0.6-0.2-0.9-0.4"/><path d="m161.4 98.6c-0.7-0.8-0.4-1.3 0-1.8 1.2-0.2 1.5 0 1.5 1.3-0.5 0.2-1 0.3-1.5 0.5"/><path d="m136.7 78.1v-1.3c0.6-0.4 1.1-0.4 1.5 0 0.2 0.2 0.2 0.5 0.2 0.8-0.1 0.4-1 0.7-1.7 0.6"/><path d="m143.3 83.3h1.5c0.3 0.4 0.5 1 0.1 1.4-0.2 0.3-0.8 0.3-1.2 0.3-0.4 0-0.7-0.4-0.5-0.7 0.4-0.4 0-0.7 0-1"/><path d="m161.6 92.3c0.9-0.1 1 0 1.2 0.6 0.2 0.5 0 0.9-0.3 1.1-0.2 0.1-0.7 0.1-1 0-0.5-0.3-0.5-0.6 0-1.7"/><path d="m166 91.9c0.5 0.6 1.7 0.4 1.5 1.6-0.3 0.2-0.5 0.4-0.8 0.6-0.3-0.1-0.6-0.3-0.9-0.4v-1.7c0.1 0 0.1-0.1 0.2-0.1"/><path d="m171.9 96.9v1.1c-0.4 0.1-0.7 0.2-1.2 0.4-0.3-0.3-0.6-0.5-0.8-0.8 0.6-1.1 0.6-1.1 2-0.7"/><path d="m141.4 69.3c-0.2-0.6-0.1-1.1 0.3-1.6 0.3-0.4 0.7-0.5 1.1-0.1 0.4 0.3 0.4 0.8 0.1 1.2-0.3 0.3-0.6 0.4-1.4 0.5"/><path d="m167.3 110.1v1.5c-0.5 0.3-1 0.4-1.4 0-0.2-0.3-0.2-0.9-0.1-1.2 0.3-0.6 0.9-0.3 1.5-0.3"/><path d="m157.1 79.1c1-0.4 1.1-0.4 1.9 0.3-0.4 0.4-0.3 1.3-1.2 1.2-0.5-0.1-0.6-0.5-0.6-1.5"/><path d="m145.8 67.7c0.3 0 0.7-0.1 1 0 0.3 0.1 0.5 0.4 0.6 0.7 0 0.2-0.2 0.5-0.4 0.7-0.4 0.3-1 0.2-1.4-0.1-0.4-0.4-0.3-0.5 0.1-1.2"/><path d="m145.1 79.1c0 0.2 0 0.3 0 0.5-0.1 0.7-0.4 1.1-1 1.1-0.5 0-0.8-0.5-0.8-1.2 0-0.5 0.3-0.7 0.7-0.6 0.3 0 0.7 0.1 1.1 0.2"/><path d="m153.9 83.5c0.2 0.7 0 1.3-0.4 1.5-0.4 0.2-0.7 0.1-0.9-0.2-0.2-0.4-0.3-0.8-0.4-1.2 0.7-0.7 1.2 0.1 1.8-0.1"/><path d="m163.2 88.5c-0.2 0.3-0.5 0.5-0.7 0.7-0.3 0.3-0.6 0.5-0.9 0.2-0.3-0.2-0.5-0.5-0.4-0.9 0.1-0.4 0.3-0.7 0.8-0.8 0.5 0 0.9 0.1 1.2 0.7"/><path d="m151.3 69c-0.6 0.3-1 0.3-1.3-0.1-0.3-0.3-0.2-0.7 0-1 0.4-0.7 1-0.5 1.7-0.4-0.1 0.5-0.3 1-0.4 1.5"/><path d="m134.4 61.8c0.7-1.1 1.1-1.2 2.1-0.3-0.1 0.3-0.3 0.7-0.4 0.9-0.8 0.2-1.3 0.1-1.7-0.6"/><path d="m137.4 58.5c0.6 0.3 1.2 0.5 1 1.2 0 0.3-0.4 0.6-0.7 0.6-0.3 0-0.7-0.1-0.9-0.3-0.3-0.3-0.1-0.8 0.6-1.5"/><path d="m170.1 106.3c0.2-0.1 0.4-0.3 0.6-0.4 0.2-0.1 0.3-0.1 0.5-0.2 0.5 0.2 0.9 0.6 0.6 1.1-0.2 0.4-0.7 0.7-1.2 0.9-0.1 0-0.5-0.3-0.5-0.5-0.1-0.2 0-0.6 0-0.9"/><path d="m153.7 78.9c0.1 0.3 0.3 0.6 0.3 0.9 0.1 0.7-0.3 0.9-1 0.7-0.2-0.1-0.5-0.1-0.8-0.2-0.1-1.1 0.1-1.2 1.4-1.3"/><path d="m150.3 76.5c0.5-0.3 0.8-0.1 1 0.3 0.2 0.4 0.3 0.9 0.5 1.3-0.6 0.4-1.1 0.5-1.7-0.1 0.1-0.5 0.1-1 0.2-1.5"/><path d="m143.1 70.8c0.4-0.4 0.6-0.7 0.8-0.9 0.2-0.1 0.6-0.2 0.9-0.1 0.2 0.1 0.3 0.5 0.3 0.7 0 0.3-0.1 0.7-0.3 0.8-0.3 0.1-0.7 0-1 0-0.2 0-0.3-0.2-0.7-0.5"/><path d="m149.7 70.7c-1.1 1.3-1.1 1.3-2-0.1 0.6-0.9 1-0.9 2 0.1"/><path d="m134.8 74.1c1.7 1 1.7 1.2 0.3 2.1-1-0.8-1.1-1.2-0.3-2.1"/><path d="m140.8 77.5c0.6-0.6 1.2-1.1 1.9-1.2 0.3 1.1 0.3 1.2-0.8 1.9-0.1-0.1-0.3-0.1-0.5-0.2-0.2-0.1-0.3-0.2-0.6-0.4"/><path d="m162.6 78.9c0.1 0.3 0.2 0.6 0.3 0.9-0.1 0.2-0.3 0.4-0.5 0.5-0.7 0.2-1.1-0.2-1.5-0.7 0.4-0.9 0.4-0.9 1.6-0.7"/><path d="m159.7 85.4c0.7-0.1 1 0.3 1.2 0.7 0.2 0.4 0.1 0.8-0.4 0.9-0.3 0.1-0.7 0.1-1.1 0.2-0.4-0.7 0-1.2 0.4-1.7"/><path d="m145.8 72.1c0.9 0 0.9 1 1.7 1 0 0.1 0 0.2 0 0.3-0.4 0.3-0.7 0.5-1 0.7-1-0.5-0.9-1.2-0.6-2"/><path d="m167.9 99.6c0.1-0.2 0.2-0.2 0.2-0.3 0.4-0.3 0.9-0.6 1.4-0.2 0.1 0.1 0.2 0.4 0.2 0.6-0.2 0.5-0.4 1.1-1.2 1.1-0.2-0.3-0.3-0.7-0.5-1.1"/><path d="m173.9 105.1c-0.6-0.3-1.2-0.5-1.8-0.8 0.5-0.8 1.1-0.8 1.8-0.8 0.4 0.5 0.5 1 0 1.6"/><path d="m167 96.6c0.1 0.3 0.1 0.5 0.2 0.7 0.2 0.7 0.1 0.9-0.4 1-0.5 0.1-1-0.2-1-0.7 0-0.2 0-0.4 0.1-0.8 0.4-0.1 0.8-0.1 1.2-0.2"/><path d="m168.4 103.3c0.4 0.2 0.7 0.3 1 0.5v0.8c-0.4 0.3-1.8 0.1-1.9-0.2-0.1-0.2 0-0.5 0.2-0.7 0.2-0.2 0.5-0.3 0.7-0.4"/><path d="m140.5 66.2c0 0.7-0.2 0.9-0.7 0.9-0.5 0-0.9-0.4-0.9-0.9 0-0.4 0.6-0.9 0.9-0.9 0.4 0 0.6 0.3 0.6 0.9"/><path d="m148.1 78.9c1.2-0.2 1.5 0.1 1.6 0.6 0.1 0.8-0.6 0.7-1 1-0.9-0.8-0.9-0.8-0.5-1.5"/><path d="m133.6 60.3c-0.3 0-0.6 0.1-1 0.1-0.1-0.6-0.2-1.1-0.3-1.6 1.3-0.4 1.5-0.2 1.3 1.5"/><path d="m169.8 86.4c-0.3 0.2-0.5 0.4-0.7 0.5-0.4 0.2-0.8 0.2-1.1-0.2-0.3-0.4 0-0.8 0.3-1 0.3-0.3 0.7-0.3 1 0.1 0.2 0.2 0.3 0.4 0.4 0.7"/><path d="m149.6 84.1c-0.1 0.7-0.6 0.9-1.1 0.9-0.6 0-0.6-0.6-0.9-0.9 0.2-0.3 0.4-0.5 0.6-0.8 0.5 0.3 0.9 0.6 1.3 0.9"/><path d="m143.6 65.4c0.2-0.1 0.4-0.1 0.8-0.2 0.1 0.4 0.2 0.8 0.2 1.2-0.1 0.6-0.4 0.8-1.3 0.7-0.1-0.5-0.1-0.5 0.4-1.6"/><path d="m135.2 56.4c0.3 0.3 0.6 0.6 0.9 0.9 0 0.6-0.3 0.9-0.9 0.8-0.4 0-0.7-0.3-0.8-0.7-0.1-0.5 0.2-0.8 0.8-1"/><path d="m170.1 93.1c0.1-0.2 0.3-0.5 0.4-0.7 0.2-0.4 0.5-0.6 0.8-0.4 0.4 0.2 0.6 0.5 0.5 1-0.3 0.8-0.9 1-1.6 0.4-0.1-0.1-0.1-0.2-0.2-0.3"/><path d="m142.1 74.1c-1.1-0.9-1-1.5 0.1-2 0.8 0.8 0.8 1.4-0.1 2"/><path d="m144.3 60.9c0.3 0.3 0.5 0.7 0.8 1-0.8 0.8-1.3 0.9-1.7 0.4-0.4-0.5-0.2-0.8 0.9-1.5"/><path d="m161.2 84.5c0-0.3 0-0.5 0-0.6 0-0.1 0-0.2 0.1-0.3 0.4-0.4 1.3 0 1.9 0.7-0.4 0.2-0.7 0.4-1.1 0.7-0.3-0.2-0.5-0.3-0.9-0.5"/><path d="m166.7 83.2c0.7 0.6 0.5 1.1 0.2 1.7h-1.1c-0.2-1.2-0.1-1.4 0.9-1.7"/><path d="m152.1 81.4c-0.3 0.6-0.4 1-0.7 1.5-0.4-0.2-0.8-0.4-1.3-0.6 0.2-0.4 0.4-0.7 0.6-1.1 0.5 0.1 0.9 0.2 1.4 0.3"/><path d="m147.5 82c-0.3 0.4-0.6 0.7-0.9 1-0.7-0.3-0.8-0.8-0.6-1.4 0.2-0.6 0.7-0.4 1.2-0.4 0.1 0.2 0.2 0.5 0.4 0.7"/><path d="m137.6 56c-0.8-0.7-0.9-1.3-0.2-2.1 0.6 0.4 0.8 1 0.9 1.7-0.2 0.1-0.5 0.3-0.7 0.4"/><path d="m141.6 58.8c0.4 0.1 0.6 0.1 0.8 0.2 0.2 0.1 0.5 0.3 0.6 0.5 0 0.1-0.2 0.4-0.4 0.5-0.4 0.2-0.8 0.3-1.4 0.5 0.2-0.7 0.3-1.2 0.4-1.7"/><path d="m148 75.3c0.2-0.4 0.4-0.7 0.6-1.1 0.4 0.2 0.7 0.4 1 0.6 0.3 0.8-0.3 1-0.9 1.2-0.2-0.2-0.4-0.5-0.7-0.8"/><path d="m158.1 69.9c0 0.6 0.2 1.2-0.4 1.8-0.3-0.2-0.6-0.3-1-0.5 0.1-0.4 0.1-0.7 0.2-1 0.4-0.1 0.8-0.2 1.1-0.3l0 0"/><path d="m154.9 85.5c1.1-0.3 1.1-0.3 1.5 0.8-0.2 0.5-0.6 0.6-1 0.4-0.6-0.2-0.6-0.7-0.5-1.2"/><path d="m134.8 69.9c1.2 0 1.3 0.4 0.7 1.5-1.1 0-1.2-0.3-0.7-1.5"/><path d="m164.4 103.6c0.3 0.5 0.6 1-0.1 1.6-0.4-0.2-0.7-0.5-1.1-0.7 0.1-0.8 0.4-1.1 1.2-0.9"/><path d="m132.4 54.2c0.9 0.4 0.9 1 1 1.7-0.3 0.1-0.6 0.3-0.7 0.2-0.2-0.1-0.3-0.4-0.3-0.7 0-0.3 0-0.7 0-1.1"/><path d="m133.6 64.9c-0.3 0-0.3 0-0.4 0-0.2-0.1-0.4-0.1-0.6-0.2 0-0.2-0.1-0.3-0.1-0.5 0-0.1 0-0.3 0.1-0.5h1.1c0 0.4 0 0.8-0.1 1.3"/><path d="m169 112.5c0.1 0.2 0.2 0.4 0.4 0.7-0.4 0.2-0.7 0.4-1 0.6-0.6-0.7-0.5-0.9 0.6-1.3"/><path d="m144.2 75.1c0.3 0.1 0.5 0.2 0.6 0.3 0.2 0.2 0.3 0.4 0.3 0.7 0 0-0.3 0.3-0.4 0.2-0.2-0.1-0.5-0.3-0.6-0.5-0.1-0.1 0-0.3 0.1-0.7"/><path d="m173 96c-0.6-0.3-0.6-0.8-0.4-1.1 0.1-0.1 0.5-0.1 1-0.2-0.3 0.6-0.4 0.9-0.6 1.3"/><path d="m147.6 236.1c0.2 0.2 0.3 0.3 0.5 0.5 0.3 0.4 0.7 0.7 0.3 1.2-0.4 0.4-1.4 0.5-1.8 0.2-0.4-0.3-0.4-1.3 0.2-1.6 0.3-0.2 0.6-0.2 0.9-0.3"/><path d="m147.7 240.5c0.2 0.4 0.4 0.8 0.6 1.2 0.2 0.4 0 0.8-0.3 1-0.4 0.3-0.7 0.1-1-0.1-0.3-0.2-0.5-0.4-0.6-0.6 0-0.9 0.6-1.3 1.3-1.6"/><path d="m141.9 228.4c0.3-0.4 0.6-0.8 0.9-1.2 1.1 0.3 1.2 0.4 1.2 1.1 0 0.4 0 0.8-0.5 1-0.8 0.2-1.1-0.3-1.6-0.9"/><path d="m139.4 220.1c-0.9 0.5-0.9 0.5-1.7 0.3-0.2-0.5-0.2-1 0.1-1.5 0.3-0.5 1-0.5 1.3 0.1 0.2 0.4 0.2 0.8 0.3 1.2"/><path d="m142.7 233.9c-0.3-0.7-0.9-1.4-0.2-2.1 0.9-0.3 1.2 0.4 1.6 1.1-0.4 0.4-0.5 1.2-1.5 1"/><path d="m145.3 238.3c0.8 0.7 1 1.3 0.6 1.8-0.2 0.3-0.5 0.5-0.9 0.3-0.8-0.3-0.8-0.2-0.8-1.3 0.3-0.2 0.7-0.5 1.1-0.8"/><path d="m145.4 234c0.9 0.8 0.9 0.8 0.5 1.9-0.6 0.2-1.2 0.1-1.7-0.3 0.1-0.7 0.2-1.4 1.2-1.5"/><path d="m148.2 245.6c0.3 1.4-0.1 2-1.6 1.6-0.1-0.2-0.2-0.5-0.4-0.8 0.9-1 1.2-1.1 1.9-0.8"/><path d="m136.3 214.1c-0.3-0.2-0.6-0.4-0.6-0.5 0-0.5 0.1-1.1 0.2-1.6 0-0.2 0.2-0.4 0.4-0.6 0.5 0.4 1.2 0.6 1 1.3-0.1 0.5-0.6 0.9-1 1.4"/><path d="m139.6 221.9c0.8-0.9 0.9-1 1.9-0.7 0.1 0.5 0.3 1-0.2 1.3-0.1 0.1-0.4 0.1-0.6 0-0.4-0.2-1-0.1-1.1-0.7"/><path d="m139.9 225.4c0.6 0.1 1.3 0 1.4 0.7 0 0.2-0.2 0.7-0.4 0.8-0.3 0.1-0.9 0.1-1.1 0-0.5-0.4-0.1-0.9 0.2-1.4"/><path d="m145.7 231c-0.7 0.3-1.1-0.2-1.8-0.3 1.1-0.7 1.5-0.6 1.8 0.3"/><path d="m105.9 16.2c-0.5 0.1-1 0.2-1.4 0.3-0.4 0.8-1.1 1.4-1.1 2.4 0 0.2-0.1 0.4-0.3 0.5-0.9 0.7-1.2 1.6-1.4 2.8 0.4 0 0.7-0.1 1.2-0.1 0.1 0.1 0.4 0.2 0.7 0.4 0.2-0.3 0.4-0.6 0.4-0.8-0.4-1 0.3-0.8 0.9-0.8 0.2-0.4 0.4-0.9 0.6-1.3 0.2-0.5 0.4-0.9 0.6-1.4 0.1-0.4 0.2-0.8 0.3-1.3-0.1-0.1-0.2-0.3-0.5-0.6zm-3.2 25.9c0.2-0.2 0.3-0.6 0.5-0.9 0.2-0.2 0.4-0.5 0.6-0.6 1.3-0.3 1.9-1.6 3.2-1.9-0.5-0.3-0.8-0.5-0.7-1.1 0.2-0.9-0.4-1.7-1.3-2-0.3-0.1-0.6-0.3-0.8-0.5-0.4-0.3-0.8-0.6-1.2-0.9-0.7-0.6-1.8-0.6-1.9-1.5-0.8-0.5-1.5-0.9-2.2-1.2-0.8-0.3-1.5-0.4-1.9-1.3-0.6 0.2-1.1 0.1-1.6-0.3-0.4-0.4-1-0.5-1-0.9 0.6-1.1 1.3-1.9 1.6-2.9 0.2-0.9 0.8-1.4 1.4-1.9 0-0.3 0.1-0.6 0.1-0.7 0.4-0.3 0.7-0.4 0.8-0.7 0.7-1.3 1.4-2.7 2.1-3.9 0.3-0.6 0.4-1.3 1.1-1.7 0.2-0.1 0.2-0.5 0.2-0.8 0-0.3-0.1-0.7-0.2-1.1-0.1-0.1-0.2-0.1-0.4-0.2-0.6-0.3-1.1-0.5-1.6 0.1-0.1 0.2-0.5 0.2-0.7 0.2-1.5 0.2-3.1 0.4-4.6 0.7-1 0.2-1.2 0.3-1.4 1.4-0.3 1.3 0 1.8 1.2 2.2 0.4 0.1 0.8 0.2 1.2 0.4-0.6 1.2-1.2 2.3-1.7 3.4-0.4 0.8-0.7 1.5-1.5 2 0 0.8-0.1 1.5-0.6 2-0.3 0.4-0.6 0.8-0.8 1.2-0.4 0.6-0.7 1.2-0.4 1.9 0.5 0.8 1.3 1.4 2.1 1.6 0.9 0.2 1.1 0.9 1.6 1.4 0.5 0.2 0.9 0.3 1.3 0.5 0.3 0.1 0.8 0.3 0.8 0.4-0.1 0.6 0.4 0.7 0.7 0.7 0.6 0.1 1.2 0.2 1.2 1 0 0.1 0.3 0.3 0.5 0.4 0.4 0.2 0.9 0.5 1.5 0.8-0.6 0.4-1.1 0.7-1.4 1.1-0.2 0.2-0.4 0.6-0.6 0.9-0.4 0.7 0.1 1.2 0.4 1.8 0.5 0.8 1.4 1.1 2.3 1.2 0.6 0.1 1.3-0.2 2.1-0.3zm-16.2-3.4c-0.1-0.6-0.2-1.2-0.4-1.8-0.1-0.4-0.2-0.9-0.4-1.2-1.1-1.5-1.4-3.3-1.4-5.1 0-1.1-0.2-2.2-0.3-3.3 0-0.3 0-0.7 0.2-1 0.3-0.5 0.3-0.9 0-1.3-0.1-0.1-0.1-0.3-0.2-0.5 0.6-0.3 1.1-0.7 1.6-0.9 0.6-0.2 0.8-0.7 0.8-1.3 0-0.9-0.1-1.9-0.2-2.8 0-0.2-0.3-0.5-0.5-0.7-0.5-0.3-1-0.6-1.6-0.3-0.7 0.3-1.6 0.1-2 1-0.1 0.3-0.7 0.4-1.1 0.6-0.3 0.1-0.7 0.2-0.8 0.2-0.4 0.7-0.6 1.2-1 1.7-0.3 0.4-0.5 0.9-0.2 1.4 0.1 0.3 0.2 0.6 0.3 0.9-0.3 0.2-0.5 0.4-0.5 0.4-0.1 0.9-0.2 1.6-0.2 2.4 0 0.9-0.2 1.7-0.1 2.6 0.1 0.7 0.3 1.5-0.2 2.2 0.3 0.3 0.5 0.6 0.7 0.8-0.2 0.2-0.3 0.5 0 0.7 0.2 0.2 0.4 0.4 0.4 0.6-0.2 0.7 0.3 1.2 0.4 1.7 0 0.2 0.1 0.4 0.1 0.6 0.1 0.6 0.1 1.2 0.2 1.8 0 0.1 0.1 0.2 0.2 0.2 0.3 0.3 0.5 0.5 0.3 0.9-0.1 0.2 0.2 0.6 0.3 0.8 0.7 0.8 1.5 1.5 2.2 2.3 0.3 0.3 0.6 0.7 1 1 1.2 0.5 2.5 1.1 3.6 1.6 1.8-0.1 3.4-0.8 4.8-1.6 0.6-0.8-0.1-1.8 0.1-2.7 0-0.1 0-0.1-0.1-0.2-0.6-1-2.2-1.8-3.4-1.5-0.9 0.2-1.6 0-2.7-0.1zm3.6 12.6c0.1-0.5 0.2-0.9 0.3-1.4-0.3 0.1-0.7 0.1-1.1 0.2-0.2-0.6-0.7-0.7-1.3-0.6-1 0.2-1.8-0.2-2.6-0.4-0.4-0.1-0.8-0.2-1.3-0.3-0.9-0.1-1.7-0.6-2.6-0.9-1-0.4-1.9-0.9-2.8-1.5-0.3-0.2-0.7-0.5-0.7-0.8-0.1-0.7-0.5-1.1-0.8-1.6-0.4-0.6-0.6-1.2-0.4-2 0.2 0.1 0.4 0.2 0.6 0.3 0 0 0.1-0.1 0-0.2-0.8-0.9-0.9-2.2-1.5-3.2-0.5-0.8-0.9-1.7-0.8-2.7 0-0.4-0.3-0.9-0.4-1.3-0.3-1-0.6-2.1-0.9-3.1 0.4-0.7-0.3-1.2-0.2-1.9 0.1-0.7 0-1.4-0.1-2-0.2-1-0.3-2 0.2-3 0.7-1.4 0.8-2.9 1.8-4.2 0.5-0.7 0.6-1.7 1.1-2.4 0.8-1 1.2-2.3 2.6-3 0.6-0.3 1-1 1.5-1.6 0.2-0.2 0.4-0.4 0.6-0.6 1.3-0.8 2.6-1.8 4-2.4 0.8-0.4 1.5-0.9 2.6-1 0.6 0 1.2-0.7 1.9-0.7 0.3 0 0.6 0 0.9-0.1 0.8-0.3 1.6-0.7 2.4-0.9 0.5-0.1 1.1 0.1 1.7 0.1 0.3 0 0.6 0 0.9-0.1 0.5-0.1 1-0.4 1.6-0.1 1-0.5 1.9 0.5 2.9 0.1 0.6-0.2 1.4 0.2 2.2 0.3 0.9 0.2 1.7 0.3 2.6 0.5 0.4 0.1 0.8 0.2 1.2 0.3 0.8 0.3 1.6 0.7 2.4 0.9 0.9 0.2 1.6 0.8 2.4 1.3 0.7 0.4 1.4 1 2.1 1.2 0.8 0.3 1.5 0.7 2.2 1 0.4 0.2 0.6 0.4 0.9 0.6 0.4 0.3 0.5 0.8 0.9 1.1 0.4 0.3 0.6 0.9 0.3 1.5-0.4 0.8-0.1 1.4 0.4 2.1 0.1 0.2 0.2 0.4 0.2 0.6 0.1 1.4 0.3 2.8 0.8 4.1 0.1 0.2 0 0.4 0.1 0.6 0.1 0.7 0.2 1.4 0.3 2.1 0 0.2 0.1 0.4 0.1 0.6 0 1.7 0.2 3.3 0.6 4.9 0.1 0.4 0 0.9 0.1 1.4 0 0.1 0 0.3 0 0.4 0.7 1 0.3 1.7-0.4 2.3-0.1 0.1-0.2 0.2-0.2 0.4-0.1 1.1-1 1.8-1.6 2.4-0.6 0.6-1.3 1.2-1.9 1.9-0.6-0.2-0.5 0.7-0.9 0.7-0.1 0-0.3 0-0.4 0-0.4 0.4-0.8 0.7-1 1.2-0.5 1-1.5 1.4-2.3 1.9-0.5 0.3-1 0.7-1.6 0.9-0.6 0.3-1.1 0.9-1.7 1.1-0.5 0.2-0.9 0.7-1.6 0.5-0.1 0-0.2 0-0.3 0.1-0.9 0.4-1.7 0.9-2.7 1.1-0.9 0.2-1.5 0.7-2.1 1.3-0.9 0.1-1.9-0.2-2.5 0.7-0.6-0.3-1-1-1.8-0.8 0 0.2 0.1 0.3 0.1 0.5-1.1 0.7-2.1 0-3.1-0.1-0.6 0.3-1.2 0.7-1.9 0.9-0.7 0.2-1.4 0.3-2.2 0.5z"/><path d="m72.6 85.6c-0.5 0.5-0.7 1.2-1.4 1.1-0.7 0-0.8-0.7-1.1-1.2 0-0.1 0-0.2 0-0.3 0.2-0.5 0.3-1.2 1-1.1 0.7 0.1 1.2 0.7 1.5 1.4"/><path d="m66.6 66.3c0.9 0.3 1.2 0.8 1.1 1.4-0.1 0.5-0.5 0.9-0.9 0.9-0.5 0-1.2-0.3-1.3-0.7-0.3-1 0.5-1.2 1.1-1.6"/><path d="m68 89.5c-0.1 0.8-0.5 1.3-1.2 1.6-0.6 0.2-0.9 0-1-0.6 0-0.1 0-0.2 0-0.3 0-0.3 0-0.5 0-0.7 1-0.7 1-0.7 2.2 0"/><path d="m73.4 82c0.9 0.4 0.9 1.2 1 1.9-0.7 0.8-1 0.8-1.7 0.1-0.6-0.7-0.5-1 0.7-2"/><path d="m43.2 103.7c0.1-0.4 0.1-0.8 0.3-1.1 0.3-0.5 1.1-0.5 1.5-0.1 0.6 0.5 0.7 1.3 0.2 1.7-0.3 0.3-0.7 0.4-1.1 0.1-0.3-0.2-0.5-0.3-1-0.6"/><path d="m54.6 98.7c0 0.5-1 1.4-1.6 1.4-0.4 0-0.9-0.6-0.8-1 0-0.6 0.8-1.2 1.4-1.2 0.5 0 1 0.4 1 0.8"/><path d="m43.8 108.8c-0.1-0.5-0.2-1-0.3-1.6 0.3-0.2 0.5-0.4 0.8-0.7 0.8 0.2 1.4 1.2 1.2 1.8-0.2 0.5-0.8 0.7-1.7 0.5"/><path d="m45.7 98.9c-0.1 0.6-0.6 0.7-1 0.9-0.5 0.2-1.2-0.2-1.4-0.7-0.2-0.5 0-1.1 0.6-1.2 0.3-0.1 0.7 0 0.9 0.1 0.4 0.3 0.6 0.6 0.9 1"/><path d="m50.1 99.3c-0.4 0.3-0.7 0.5-1 0.8-0.9-0.5-1.3-1-1.2-1.6 0.1-0.5 0.5-0.8 1-0.8 0.6 0 0.7 0.2 1.1 1.6"/><path d="m40.8 99.8c-0.9 0.4-0.9 0.4-1.7 0-0.1-0.5-0.3-1-0.5-1.5 0.6-0.4 1.2-0.4 1.7-0.1 0.6 0.4 0.5 1 0.4 1.6"/><path d="m53.8 95.6c-0.7-0.5-1.5-0.6-1.7-1.5 0.4-0.3 0.7-0.5 1.1-0.7 0.4-0.3 0.7-0.3 1.1 0 0.4 0.4 0.5 1 0.2 1.4-0.2 0.3-0.4 0.5-0.6 0.8"/><path d="m43.1 96.7c0 0.1 0 0.3-0.1 0.5-0.2 0.3-0.4 0.6-0.6 0.7-0.2 0-0.5-0.3-0.8-0.4-0.1-0.1-0.1-0.3-0.2-0.4-0.4-0.4-0.4-0.8-0.1-1.2s0.7-0.5 1.2-0.4c0.4 0.1 0.6 0.5 0.6 1.2"/><path d="m44 111.2c1.2-0.1 1.2-0.1 1.5 1.5 0 0.1-0.1 0.1-0.1 0.2-0.3 0.2-0.6 0.4-0.9 0.7-1.1-0.6-1.2-1.2-0.5-2.4"/><path d="m67.5 95.2h-1.7c-0.1-0.7-0.4-1.5 0.3-2 0.3-0.2 0.9 0 1.4 0v2"/><path d="m40.9 100.7c0.5-0.4 0.7-1.1 1.5-0.8 0.6 0.2 1 0.8 0.9 1.2-0.1 0.5-0.6 0.9-1.3 0.9-0.8 0-0.7-0.7-1.1-1.3"/><path d="m47.5 111h-1.5c-0.2-0.4-0.3-0.7-0.4-1.1 0.3-0.3 0.6-0.6 0.9-1 0.4 0.1 0.8 0.2 1.2 0.3 0.3 0.6 0.2 1.1-0.2 1.7"/><path d="m57.6 95.5c-0.6 0-1-0.4-0.9-1 0-0.6 0.4-1.1 1-1 0.6 0 1.1 0.4 1.1 1 0 0.6-0.5 1-1.1 1"/><path d="m67.8 69.8c0-0.7 0.4-1.2 0.9-1.2 0.6 0 1.1 0.4 1.1 0.9 0 0.5-0.7 1.3-1.3 1.3-0.5 0-0.8-0.3-0.8-0.9"/><path d="m38.8 108.2c0.2-0.5 0.3-0.9 0.5-1.3 0.5 0.1 1 0.1 1.6 0.2 0 0.5 0.1 1 0 1.4-0.1 0.7-0.6 0.8-1.2 0.4-0.3-0.2-0.6-0.5-0.9-0.7"/><path d="m64.7 95.3c0.7 0.5 0.6 1.2 0.6 1.8 0 0.4-0.6 0.7-1.1 0.6-0.6-0.1-0.9-0.6-0.8-1.1 0.2-0.6 0.5-1.1 1.3-1.3"/><path d="m43.1 110.2c0 0.8-0.2 1-0.8 1-0.7 0-1-0.4-1-1.2 0-0.8 0.1-1 0.8-1 0.7 0 1 0.3 1 1.2"/><path d="m50.2 91.1c0.3 0 0.6 0 0.9 0.1 0.3 0.1 0.5 0.3 0.9 0.5-0.1 0.3-0.1 0.6-0.2 1-0.2 0.5-0.6 0.8-1 0.6-0.6-0.2-0.9-0.6-0.7-1.1 0.1-0.3 0.2-0.7 0.2-1l0 0"/><path d="m40.6 104.4h-1.1c-0.5-1.2-0.5-1.5 0-1.8 0.4-0.2 1-0.2 1.3 0.1 0.5 0.4 0.4 0.8-0.2 1.7"/><path d="m56.4 96.3c-0.1 0.4-0.2 0.8-0.3 1.2-0.4 0.1-0.8 0.2-1.2 0.3-0.7-0.8-0.8-1.2-0.3-1.8 0.5-0.6 0.8-0.6 1.8 0.2"/><path d="m38.7 112c0.7-0.3 1.2-0.5 1.7-0.7 0.3 0.6 1 1 0.6 1.7-0.3 0.5-0.8 0.5-1.4 0.3-0.2-0.4-0.5-0.8-0.9-1.3"/><path d="m68.4 64.4c0.5 0.2 1 0.5 1.5 0.7 0 1 0 1.1-0.9 1.3-0.5 0.1-0.8 0-1.2-0.8-0.3-0.6 0.1-0.8 0.6-1.2"/><path d="m67.9 87.2c1.4-0.8 1.6-0.7 2 0.6-0.2 0.3-0.4 0.6-0.6 0.9h-1.2c-0.1-0.5-0.2-1-0.3-1.5"/><path d="m68.2 91.2c0.6 0.1 1.1 0.2 1.6 0.3v1.3c-0.9 0.4-1 0.4-2-0.1 0.1-0.5 0.2-0.9 0.4-1.5"/><path d="m72.8 88.7c-0.1-0.4-0.2-0.7-0.4-1.1 0.3-0.4 0.6-0.7 0.9-1 0.8 0.3 1.2 0.7 1.2 1.1-0.1 0.5-0.8 1-1.7 1"/><path d="m30 102.5c0.6-0.1 1-0.2 1.5-0.3 0.3 0.5 0.5 0.9 0.7 1.4-0.7 0.3-1.3 0.5-2 0.7-0.1-0.7-0.2-1.2-0.3-1.8"/><path d="m63.7 93c-0.3-0.8-0.2-1.4 0.3-1.9 0.2-0.2 0.9-0.1 1 0.1 0.5 0.5 0.3 1.1-0.1 1.7h-1.3"/><path d="m49.2 95.5c-0.2-0.1-0.4-0.2-0.6-0.2-0.2 0-0.3-0.1-0.5-0.1-0.2-0.7-0.3-1.3 0.3-1.9 0.6 0.1 1.1 0.3 1.4 1 0.2 0.6-0.1 0.9-0.6 1.2"/><path d="m37.7 104.6c0.4 0 0.8 0.1 0.8 0.6 0 0.5-0.7 1.4-1 1.4-0.4 0-1-0.7-1-1.1 0-0.6 0.4-0.9 1.2-0.9"/><path d="m42.8 106.6c-0.2 0-0.3 0-0.4 0-0.2 0-0.4 0-0.6 0-0.8-0.9-0.9-1.2-0.5-1.7 0.3-0.3 0.7-0.5 1.1-0.3 0.6 0.3 0.7 0.9 0.4 1.9"/><path d="m50.5 97.4c-0.1-0.5-0.8-1.1-0.2-1.6 0.3-0.2 1-0.2 1.4 0 0.4 0.1 0.4 0.5 0.3 0.9-0.2 0.5-0.8 0.8-1.5 0.7"/><path d="m34 110.7c-0.7 0.5-1.4 0.6-1.8 0.1-0.1-0.2-0.2-0.6-0.1-0.8 0.1-0.4 1-0.9 1.3-0.8 0.4 0.1 0.6 0.6 0.5 1.4"/><path d="m59.9 91c0.5 0.3 1.2 0.3 1.1 1-0.1 0.5-0.3 0.9-0.8 1-0.3 0-0.7-0.1-0.8-0.3-0.3-0.5-0.1-1.1 0.6-1.7"/><path d="m69.8 95.9c0.1 0.4 0.2 0.7 0.4 1.1-1.4 0.6-1.6 0.5-2.5-0.5 0.6-0.5 1.2-0.7 2.1-0.6"/><path d="m71 91c-0.3-0.5-0.5-0.8-0.7-1.2 0.3-0.6 0.6-1.1 1.3-0.9 0.4 0.1 0.7 0.4 0.7 0.9 0 0.7-0.6 0.9-1.3 1.2"/><path d="m37.2 109.4c1-0.4 1.6 0 1.7 1.2-0.4 0.2-0.8 0.4-1.2 0.6-0.6-0.8-0.6-0.8-0.5-1.9"/><path d="m67.3 97.9v1c-0.3 0.3-0.7 0.6-1 0.9-0.8-0.3-0.8-0.3-0.7-1.5 0.4-0.4 0.9-0.8 1.7-0.4"/><path d="m61.2 99.2c0.1-0.4 0.2-0.7 0.3-1.1 0.4 0 0.8-0.1 1.2-0.1 0.3 1.2 0.2 1.6-0.4 1.8-0.5 0.2-0.7 0.1-1.2-0.6"/><path d="m48.1 96.9c-0.8 0.3-1.3 0.5-1.9 0.6-0.2-0.3-0.3-0.5-0.4-0.7-0.3-0.4-0.1-0.7 0.2-1 0.3-0.3 0.6-0.3 0.9 0 0.3 0.3 0.6 0.6 1.1 1"/><path d="m59.4 97.7c0-0.7-0.2-1.2-0.1-1.6 0.2-0.4 0.7-0.6 1.3-0.4 0.1 0.4 0.7 0.8 0.3 1.3-0.3 0.3-0.8 0.4-1.5 0.6"/><path d="m71.4 71c0.3 0.4 0.6 0.7 0.9 1.1-0.4 0.3-0.7 0.6-1 0.9-0.8-0.4-1-0.9-0.9-1.7 0.3-0.1 0.7-0.2 1-0.3"/><path d="m36.3 112.9c-0.3 0.1-0.5 0.2-0.7 0.3-0.5-0.1-0.8-0.7-0.8-1.5 0.1-0.1 0.1-0.1 0.2-0.2 0.2-0.1 0.4-0.2 0.5-0.2 0.6 0.1 0.8 0.6 0.7 1.7"/><path d="m62.1 95.3c-0.7-0.6-0.9-1-0.6-1.4 0.2-0.4 0.6-0.5 1-0.4 0.4 0.1 0.6 0.6 0.5 1.4-0.3 0.1-0.7 0.2-1 0.4"/><path d="m70.4 93.7c0.7-0.1 1.4-0.2 1.7 0.8-0.4 0.3-0.7 0.6-1.1 0.9-1-0.4-1.1-0.6-0.6-1.7"/><path d="m64 87c0.4-0.4 0.8-0.3 1.2 0.1 0.3 0.3 0.2 1.2 0 1.5-0.1 0.1-0.2 0.2-0.3 0.2-0.1 0.1-0.3 0.1-0.4 0.1-0.3-0.6-0.4-1.3-0.3-2l0 0"/><path d="m35 108.7c-0.8-1.3-0.7-1.6 0.5-1.8 0.3 0.3 0.5 0.5 0.8 0.8-0.4 0.4-0.4 1.2-1.3 1"/><path d="m47.2 105c0.1 1.3 0.1 1.4-1.1 1.4-0.5-0.8-0.5-1.1-0.2-1.5 0.5-0.5 0.9-0.2 1.3 0.1"/><path d="m32.8 100.3c1.3 0.3 1.4 0.7 0.6 1.7-0.3-0.1-0.7-0.2-1.1-0.3-0.1-0.6-0.1-0.6 0.5-1.4"/><path d="m73.4 90.8c0.5 0.9 0.6 1.1 0.3 2.2-0.8 0.1-0.8 0.1-1.3-0.7 0.3-0.4 0.6-0.9 1-1.5"/><path d="m66 103.8v-1c1-0.6 1.3-0.4 1.7 0.9-0.3 0.2-0.5 0.3-0.8 0.5-0.3-0.2-0.6-0.3-1-0.5l0 0"/><path d="m32.1 105.3c0.4-0.3 0.8-0.7 1.3-0.5 0.4 0.2 0.5 0.7 0.4 1.2-0.2 0.2-0.5 0.4-0.9 0.7-0.3-0.5-0.6-0.9-0.8-1.4"/><path d="m63.3 89.6c0 0.3 0 0.6 0.1 0.9-1 0.6-1.2 0.5-1.9-0.6 0.8-0.6 0.9-0.6 1.9-0.2"/><path d="m47.2 102c-1.2-0.4-1.3-0.5-1.2-1.6 0.1 0 0.1-0.1 0.2-0.1 0.2 0 0.5 0 0.8 0 0.3 0.5 1 1 0.3 1.7"/><path d="m34.8 103.8v-1.3c0.5-0.2 1-0.3 1.3 0.2 0.1 0.2 0.2 0.6 0.1 0.8-0.3 0.4-0.8 0.6-1.4 0.2"/><path d="m73.9 78c-0.1 0.3-0.2 0.6-0.3 0.9-0.1 0.3-0.1 0.5-0.2 0.8-0.8-0.1-1-0.4-0.9-1 0.1-0.7 0.6-0.9 1.4-0.7"/><path d="m30.5 106.9c0.6 0.1 1 0.2 1.4 0.3 0.1 1.2 0.1 1.3-1 1.6-0.1-0.6-0.2-1.1-0.4-1.9"/><path d="m49.7 103.3c-0.5 0.2-0.9 0.5-1.4 0.7-0.2-0.3-0.4-0.5-0.6-0.8 0.2-0.2 0.3-0.4 0.4-0.5 0.6-0.3 1.1 0.1 1.5 0.6"/><path d="m64.8 100c0.7 1 0.7 1 0 1.7-0.1-0.1-0.2-0.2-0.3-0.3-0.1-0.1-0.1-0.2-0.1-0.4-0.2 0-0.3 0.1-0.5 0.1-0.4-0.3-0.1-0.8 0.8-1.2"/><path d="m37.4 101.8c-0.8-0.5-0.9-0.8-0.6-1.1 0.1-0.1 0.5-0.2 0.6-0.2 0.4 0.1 0.4 0.4 0 1.3"/><path d="m82.9 200.9c0.8 0.3 0.9 0.6 0.8 1.3-0.1 0.4-0.3 0.6-0.6 0.6-0.4 0-1-0.3-1.1-0.7-0.2-0.8 0.6-0.9 1-1.2"/><path d="m116.2 89.3c0.7-0.9 1-1 2-0.6 0.7 0.3 1.3 0.7 1.6 1.4 0.2 0.5 0 0.8-0.4 1-1.3 0.7-2.7 0.9-4.2 0.9-0.9 0-1.9 0-2.8 0.1-1.1 0.1-2.1 0.5-3.2 0.7-0.6 0.1-1.1 0.6-1.8 0.3-1 0.5-2.1-0.1-3.2 0.5-0.7 0.4-1.6 0.5-2.4 0.2-0.4-0.1-0.9 0-1.4 0-0.1-0.4-0.3-0.8-0.4-1.1 0.6-1 1.5-1.4 2.5-1.3 0.4-0.1 0.8-0.2 1.2-0.3 1.2-0.1 2.4-0.2 3.6-0.4 0.2 0 0.4-0.2 0.6-0.3 0.4-0.1 0.7-0.2 1.1-0.2 0.7 0 1.4 0.1 2.1-0.3 0.5-0.3 0.8 0 0.9 0.6 1.3-0.9 2.7-1.2 4.3-1.1"/><path d="m108.3 79.7c0.3 0 0.6 0 0.9 0 0.6 0 1 0.6 0.9 1.1-0.2 1-0.4 1.9-0.9 2.8-0.3 0.6-1 1-1.5 0.9-0.7-0.2-1-0.8-0.9-1.6 0 0 0-0.1 0-0.1-0.4-1.4 0.6-2.1 1.4-3.1"/><path d="m101.9 86.1c-1.2 0.5-2 0.3-2.7-0.6 0 0-0.1 0-0.1-0.1-0.4-0.6 0-1.3 0.1-1.8 0.1-0.5 0.6-0.8 1.1-0.9 1.5-0.1 2.4 1.1 1.8 2.6-0.1 0.3-0.2 0.5-0.3 0.8"/><path d="m14.9 148.2c0.3 0.1 0.6 0.4 0.8 0.3 0.8-0.3 1.7 0.2 2.5-0.3 0.4-0.2 0.9-0.2 1.3 0.2 0.2 0.2 0.6 0.4 0.8 0.6 0.4 0.3 0.5 0.9 0.1 1.2-0.9 0.9-1.9 1.7-2.8 2.5-0.6 0.9-1.1 1.8-1.8 2.9 0-0.1 0 0.2 0.1 0.4-0.2 0.2-0.3 0.4-0.5 0.6 0.4 1.6 0.1 3.1-0.6 4.5-0.7 1.3-1.6 1.4-2.8 0.5 0-3.4-0.5-6.7-0.2-10.2-0.3 0-0.5 0-0.7 0.1-1.1 0.5-2.3 0.7-3.5 0.3-0.8-0.2-1.3-0.8-1.1-1.7 0.1-0.4 0.2-0.8 0.4-1.2 0.3-0.6 0.5-0.6 1.4-0.4 0.4 0.1 0.9 0 1.5 0 0.4-0.7 1.1-1.4 1.1-2.4 0-0.2 0.2-0.5 0.3-0.7 0.1-0.2 0.3-0.6 0.2-0.8-0.5-1.2 0.1-2.2 0.2-3.3 0-0.2 0-0.5-0.1-0.7-0.2-0.7 0.1-1.3 0.4-1.8 0.2-0.4 0.6-0.6 1.1-0.5 0.4 0.1 0.7 0.3 0.9 0.7 0.5 1.2 0.5 2.4 0.4 3.6 0 0.4 0.1 0.9 0.1 1.3 0 0.2 0.2 0.4 0.1 0.6-0.4 1.2 0.3 2.4 0.2 3.7"/><path d="m36.4 158.6c0.1-0.1 0.3-0.3 0.4-0.3 0.9-0.1 1.1-0.7 1.1-1.4 0-0.5 0.2-1.1 0.3-1.6 0-0.2 0.1-0.4 0.1-0.6-0.4-0.7 0-1.3 0.3-1.8-0.4-1.1-0.4-1.1 0.2-3.4 0.3-0.2 0.6-0.4 1-0.6 0.3 0.2 0.7 0.4 1 0.7 0.4 0.4 0.7 0.9 0.4 1.6-0.3 0.5-0.2 1 0 1.6 0.1 0.4 0.1 0.9 0.2 1.3 0 1.5 0 2.9 0 4.4 0.9 0.3 1.5-0.1 2.1-0.4 0.4-0.2 0.8-0.3 1.1-0.3 0.4 0 0.8 0.3 1.1 0.5 0.7 0.6 0.7 1.3-0.1 1.8-0.3 0.2-0.6 0.2-1 0.3-0.9 0.3-1.6 0.9-1.8 1.9-0.2 1-0.6 2-0.9 3-0.1 0.3-0.1 0.5-0.1 0.8 0 0.8-0.3 1.2-0.8 1.4-0.5 0.2-1.4-0.1-1.7-0.6-0.2-0.3-0.4-0.7-0.4-1.1-0.1-1.2-0.1-2.3-0.1-3.5 0-0.5-0.2-0.9-0.3-1.4-1.3-0.1-1.8-0.9-1.8-2.3"/><path d="m166.7 9c0 0 0 0.1-0.1 0.1 0 0 0 0.1 0 0 0 0 0.1 0 0.1 0 0 0-0.1-0.1-0.1-0.1zm-5.5 0c0 0 0 0-0.1 0 0 0.1 0 0.2 0 0.3 0 0 0.1 0 0.1 0 0-0.1 0-0.2 0-0.3zm3.9 8.4c-0.3-0.6-0.7-1.1-0.4-1.8 0-0.1 0-0.1 0-0.2-0.3-0.7 0-1.5 0-2.2 0-0.4 0-0.8 0-1.2 0-0.4-0.1-0.8-0.1-1.3-0.1 0-0.3 0-0.5-0.1-0.3 0.5-0.5 1-0.8 1.4-0.4 0.5-0.9 1-1.3 1.5-0.4 0.4-0.8 0.8-1.2 1.2-0.4 0.1-0.5-0.3-0.6-0.6-0.1-0.2-0.2-0.5 0-0.7 0.4-0.5 0.8-1.1 1.3-1.6 0.4-0.5 0.9-0.9 1.1-1.6l0 0 0 0c-0.9 0-1.7 0.1-2.7-0.1-0.5 0.5-1.3 0.3-1.9 0.3-0.5 0-0.9 0-1.5-0.1 0.1 0 0 0 0 0-0.2-0.2-0.5-0.3-0.4-0.6 0.1-0.3 0.5-0.8 0.8-0.8 0.6 0 1.2-0.3 1.9 0 0.2 0.1 0.5-0.1 0.8-0.1 0.2-0.1 0.3 0 0.4 0.2 0 0.1-0.1 0.1-0.1 0.2 0 0 0.1 0 0.1 0 0-0.1 0-0.2 0-0.2 1-0.1 2-0.2 3.1-0.3 0.2 0 0.4 0.1 0.7 0.1-0.9-0.8-1.7-1.5-2.5-2.3 0.1-0.3 0.2-0.7 0.3-1.1h0.9c0 0 0.1 0.2 0.2 0.3 0 0 0 0 0 0 0 0 0 0 0 0 0.4-0.1 0.6 0.2 0.9 0.5 0.2 0.2 0.3 0.5 0.5 0.7 0.1 0.1 0.3 0.1 0.4 0.2 0.4-0.5 0.2-0.9 0-1.4 0.2-0.5 0.5-0.9-0.1-1.4 0.3-0.4 0.3-0.8 0.2-1.2-0.1-0.2-0.1-0.5-0.1-0.8 0-0.7 0.4-1.1 1.1-1.2 0.5 0.4 0.8 0.9 0.9 1.6-0.2 0.3-0.2 0.6-0.1 1 0.1 0.4 0 0.9-0.1 1.4-0.1 0.4 0 0.8 0.2 1.2 0.4-0.5 0.9-0.9 1.3-1.3 0.3-0.4 0.5-0.8 1-1 0.2-0.1 0.2-0.4 0.4-0.6 0.2-0.2 0.5-0.4 0.7-0.6 0.8 0.6 0.8 1.1 0.2 1.6-0.3 0.3-0.5 0.9-0.9 1.1-0.6 0.4-0.7 1.2-1.4 1.7-0.5 0.3-0.8 0.9-1.1 1.7 0.3-0.3 0.4-0.4 0.6-0.6 0.8 0.1 1.6-0.3 2.5-0.1 0.1 0 0.4-0.2 0.6-0.2 0.1 0 0.2 0.2 0.4 0.3 0.1-0.1 0.4-0.2 0.5-0.2 0.2 0.4 0.3 0.8 0.5 1.3-0.6 0-1.1 0-1.6 0-0.2 0-0.4 0.1-0.5 0.2-0.1 0-0.3 0.2-0.4 0.1-0.7-0.1-1.2 0.2-1.9 0.2 0 0 0 0-0.1 0-0.1 0-0.2 0.1-0.3 0.1 0 0.1 0.1 0.1 0.1 0.2 0-0.1 0.1-0.2 0.1-0.3 0.1 0.1 0.3 0.2 0.4 0.4 0.4 0.5 0.7 1 1.2 1.6-0.3-0.1-0.4-0.1-0.5-0.2l0 0 0 0c0 0.4 0.2 0.6 0.5 0.8 0.2-0.1 0.4-0.2 0.6-0.3 0.1 0.1 0.2 0.2 0.3 0.4-0.4 0.4-0.5 0.8-0.2 1.4-0.4-0.2-0.7 0-0.7-0.5l0 0 0 0c-0.4-0.2-0.7-0.5-0.6-1-0.3 0-0.6-0.1-0.9-0.1-0.2-0.5-0.6-0.9-1.1-1.1 0 0.6 0.1 1.2 0.1 1.8 0 0.3-0.1 0.6-0.1 0.9-0.1 0.9 0 1.8 0 2.7 0 0.2-0.2 0.4-0.3 0.5-0.2 0.1-0.4 0.2-0.6 0.3h-0.3z"/></g></g></svg>
