<svg xmlns="http://www.w3.org/2000/svg" viewBox="0 0 223 201"><title>  Group 2</title><g fill="#383747"><path d="M42.53 58.488c-.2.8.1 1.4.5 2.1.5-1-.6-1.3-.5-2.1m28.5 40.2c-.9-.1-1.9-.4-2.8 0zm31.5 4.3c.8-.6 1.4-.2 1.9.3.4-.2.7-.3 1.1-.4v-.1c-.7-.2-.7-.2-.8-.8-.7-.2-1.3-.3-2-.5 0 .4-.1.9-.1 1.5zm38.9-63.2c.7-.1 1.3.3 1.6-.4.2-.4.1-1 .1-1.4-.5-.2-.8-.3-1.1-.4-.2.7-.4 1.3-.6 2.2m-17.2-10.6c-.1.1-.2.2-.3.2-.2-.4-.5-.8-.7-1.3-.4.6-.8 1.1-1.3 1.7.7.3 1.3.5 1.9.8.2-.6.3-1 .4-1.4m-56.4 66c.9 0 1.8-.1 2.6.1.9.2 1.7.2 2.7 0-.2-.3-.3-.5-.5-.5-1 0-1.8-.7-2.9-1-.3.3-.7.5-.9.9-.3.4-1-.3-1.1.5zm-19-1c.7.2 1.1.4 1.6.4h4.9c.3 0 .6 0 1.1-.1-.4-.8-.6-1.6-1-2.3-.5-.8 0-1.7-.3-2.5-1.2.5-2.4 0-3.5.4 0 .1-.1.3-.1.3-.7.1-1.3.1-1.8.2-.6 0-1.1.5-1.6.6-.8.1-1.2.6-1.6 1-1 .1-2-.4-2.6.6-.1.1-.3.2-.5.2-.9.1-1.8.4-2.6.2-1-.2-1.3.4-1.9.8h.8c.4 0 1-.2 1.2 0 .7.7 1.6.5 2.4.4 1.5 0 3 0 4.5.5.4-.2.8-.5 1.1-.6zm93.5 62.5c-1.2.7-2.2 1.4-3.3 1.9-.5.2-.7.5-.8 1-.2.5-.4.9-1.1 1.1-.9.2-1.8.6-2.4 1.4-.1.2-.5.2-.7.3-.6.2-1.1.3-1.4 1-.4.8-1.1 1.5-1.7 2.3l1.2.6c.4.3.6.7.9 1 .8.3 1.4-.3 2.1-.4.6-.1.9-.1 1.3-.7.3-.5.7-.8 1.4-.8.8 0 1.7-.3 2.1-1.1.5-.8 1.1-1.2 1.8-1.7 1.2-.9 1.6-2.2 1.3-3.8-.1-.8-.7-1.3-.7-2zm-22.9-124.9c.8-.9 1.1-1.7 1-2.6-.1-.8-.9-1.3-1.6-1-.4.2-.9.5-1.1.9-.5.8-1.1 1.6-.9 2.7 0 .2-.1.4-.1.7-.1.8-.5 1.7.2 2.4.1.1 0 .3 0 .5-.5 1.9.5 3.7.2 5.5 0 0 0 .1.1.1.2.6.2 1.3.5 1.8.4.5 0 1.4.8 1.7-.5.4.4.6.2 1-.3.7.2 1.4.6 1.9.5.6.8 1.3 1 2 .1.4.3.4.6.5.4.2.8.5 1.3.8.2-.2.4-.4.5-.6-.2-.6-.7-1-.5-1.7.1-.2-.2-.6-.4-.6-.4-.1-.4-.4-.4-.6s0-.5-.1-.7c-.8-.7-.3-1.8-.9-2.6.4-.7-.1-1.3-.3-2-.1-.5-.4-1-.4-1.4-.1-1.4 0-2.7-.8-4 0 0 .1-.1.1-.2.3-.8.5-1.7.3-2.1-.4-.8.3-1.6-.1-2.4v-.1zm-6.3 130.8c.4-.2.9-.6 1.2-.5.8.2 1.6.3 2.3-.3.1-.1.4 0 .5 0 1.3.1 2.3-.7 3.6-1-2.1-.1-1.7-1.5-1.5-2.8-.6.2-1.1.5-1.6.4q-1.05-.15-2.1 0c-1 .2-2-.3-3-.4-1.5 0-2.9-.7-4.4-.2-.4.1-.9-.1-1.3-.1-1.3-.2-2.4-1-3.4-1.7-.3.8.1 1.4.3 2.1.1.4.4.9.4 1.3 0 .8.2 1.4.8 1.9.1-.1.1-.2.1-.2.6 0 1.2 0 1.9.1.2 0 .4.3.6.4.7.3 1.4.6 2.2.3.7-.2 1.4-.5 2 .2 0 0 .3-.1.4-.2.1 0 .2-.1.4-.1.3.3.5.6.7.8zm13.7-63.4c-.5-.8-.9-1.5-1.4-2.1-.2-.2-.5-.4-.8-.5l-2.4-1.2c-.8-.4-1.9-1.5-2.9-.2 0 .1-.2 0-.3 0-.5 0-1.1 0-1.6.1-.4 0-1 .3-1.1.1-.6-.6-.7.3-1 .2-1.3 0-1.7 1.2-2.7 1.6-.1.1-.2.3-.3.5-.2.4-.5.8-.7 1.2.3.3.7.7 1.1 1 .4-.1.7-.2 1.1-.3.5.7 1.4.8 2.1.8.6 0 .5.5.7.8.7-.6 1-.6 1.5-.2 1 .7 2 .7 3.1.3.3-.1.9-.2 1-.5.3-.7.7 0 1-.1 0 0 .1 0 .1-.1 1-.7 2.1-1 3.2-1.3.1 0 .1-.1.2-.2zm16.7 5.5c.1-.9-.2-1.5-.9-2-.3-.2-.5-.4-.7-.7-1-1.9-1.8-3.8-2.2-6.1-.5.6-1 1.1-1.5 1.6-.1-.1-.1-.2-.2-.3-.2.4-.3.8-.5 1.2-.4.1-.7.2-1 .3 0 .2 0 .4.1.5.7.6.9 1.7 1.8 2.2.2.1.3.5.4.7 0 .5.3.8.7 1.1.2.1.4.3.4.5.1.9.8 1.5 1 2.2.4 1.4 1.7 2.4 1.6 3.9.6.6.5 1.4.7 2.2.1.5.1.8.5 1.2.5.4.5 1.1.4 1.7 0 .1-.2.2-.4.2-.1 0-.2.1-.3.2.4.2.6.3.7.3.2.7.3 1.3.4 2 .2.8-.1 1.6.2 2.4s.5 1.6.2 2.5c-.2.5-.3 1.3 0 1.7.4.8.2 1.4.1 2.2 1.4.1 2.5-.1 3.7-.6q.45-.15.9 0c.6.2 1.2.1 1.7-.2.6-.3 1.1-.6 1.8-.6.2 0 .4-.1.6-.2 1.2-.6 1.7-2 2.9-2.4.1 0 .1-.1.1-.2.1-.8.8-1.2 1.3-1.6 1-.8 2.1-1.5 2.6-2.8-1.2-.7-2.4-1-3.4-1.9q-.6-.6-1.5-.9c-.5-.1-.9-.3-1.4-.5s-1.2-.3-1.4-.7c-.4-.7-1.1-.7-1.6-1-.3-.5-.4-1.1-.7-1.2-1.2-.4-1.8-1.7-3-2.1-.5-.2-.9-.6-1.2-1-.7-.9-1.6-1.7-2.1-2.8-.1-.3-.6-.4-1-.7zm-17.8 29.2c-.1.9-.3 1.6-1 1.8v1.6c.1.7-.1 1.5.3 2 .5.7.3 1.1.1 1.7-.2.7-.4 1.5-.5 2.2-.1.4-.2.8.4 1.1.2.1.3.4.5.7.5 1 .3 1.5-.8 2-.1.3-.1.6-.2.9q-.75 1.65.6 3c.1.1.2.2.2.3.3.6.2 1.4-.4 1.7-.8.4-.9 1-.8 1.7 0 .6.1 1.2.1 1.7.4.1.7.2.9.4q.6.45.9 1.2c.1.2-.2.6-.3.8-.2.3-.5.5-.7.8-.4.4-.5.8-.2 1.2.3.5.7.1 1.1.2.1-.2.1-.4.2-.5.8-1.3 1.2-1.3 2.1-.2.6.7.6 1-.1 1.7-.1.1-.2.2-.2.3.1.4.2.7.3 1h.5c1.1-.8 2.1-1.6 3-2.7.3-.4.8-.9 1.1-.8.9 0 1.2-1 2-1.1 0 0 .1-.2.1-.3.1-1.1.4-1.5 1.3-1.4.5.1.8 0 1.1-.3.3-.2.6-.3.9-.5-.6-.8-.7-1.8-.3-2.2.3-.3 1.4-.3 1.7 0 0 .2.1.4.1.6.3-.2.6-.4.8-.6-.9-1.3-1.1-2.7-1.3-4.1-.2 0-.4.1-.5.1-1.2.1-1.7-.7-1.1-1.8.1-.1.1-.3.2-.4.8-.8.6-1.6.1-2.4-.3-.4-.5-.8-.5-1.4 0-.7-.9-1.2-.7-2.1 0-.1-.2-.2-.3-.3-.2-.1-.4-.3-.6-.3-.7-.2-.8-.9-1.1-1.3s.1-.8.3-1.1c.2-.4.1-.8-.1-1.3-.5-.9-.9-1.8-1.1-2.8-.1-.7-.3-1.4-.7-2-.9.3-1.8-.1-2.8.1-.6.1-1.2.1-1.6.6-.1.1-.3.2-.5.2-.8.1-1.6.2-2.5.3m-27-81.1c-1.5-.1-2.9.1-4.1-.6 0 .4.1.8 0 1-.2.2-.7.3-1 .2-.4 0-.7-.2-1.1-.4.1-.4.2-.7.2-1.1-.4-.1-.7-.1-1-.3-1.2-.6-2.4-.2-3.6-.4-.3 0-.7.2-1 .4-.4.3-.7.6-1.3.6-.5 0-.9.4-1.5.6-.4 1-.9 2-2.2 2.4-.2 0-.4.3-.5.5-.4.6-.7 1.2-1.1 1.7.2.3.3.5.5.8.4-.3.7-.6 1-.9.8.1 1.4.3 1.4 1.2-.4.3-.8.6-1.5 1.1 1.8 0 3.2.8 4.7.1.9.8.9.8 1.4.1-.9-.2-1.4-.7-1.8-1.3.1-.3.2-.6.2-.8 0-.5.3-.7.7-.9s.8-.1 1.1.2c.6.4.6 1.1.8 1.7.7-.3 1.2-.6 1.8-.8s1.2-.4 1.8-.7c1.1-.6 1.6-.3 1.9.8 0 .2.1.3.1.5-1 .6-2 1.2-3.1 1.9.1.4.2.9.2 1.4.2.8.3.9 1.1.9.6 0 1.3.1 2 .1.5-.3.8-.8.4-1.6-.2-.4-.2-.9.1-1.3h1.6c.2.4.4.7.4 1.1 0 .3-.1.7-.2 1.1.6-.1 1.1-.1 1.5-.2l.8.8c1.3 1.3 1.2 2-.2 3-.1 0-.1.1-.1.2.1.3.2.5.4.7.2.3.3.5.5.7.1-.6.3-1.1.8-1.3s1.2-.3 1.7-.3.9.4.9.9-.1 1.1-.3 1.6c-.1.3-.5.4-.8.7-.5.4-.9-.2-1.4-.2.1.4.2.8.4.8.5.1.6.5.7.8.4 1.2 1 2.2 2 3 .1.1.3.3.3.5.1.8.6 1.2 1.2 1.6.3.2.6.5.5.9-.2.7.2 1 .7 1.1.6.2 1.1.5 1.7.1.2-.1.5 0 .8 0 .5.1 1 .3 1.5.2.9-.1 1.9.5 2.6-.3 1.2.7 1.2.7 2.2.1v-2.5c.9.1 1.6-.4 1.8-1 .5-1.3 1.2-2.3 2.1-3.4-.3-.2-.5-.5-.8-.7-.4-.3-.9-.5-1.2-1-.5-1-1.5-1.4-2.4-2-.3 1-1 1.2-1.9 1.1-.4 0-.8 0-.9-.4-.1-.6-.2-1.2.2-1.7.4-.1.7-.1 1.2-.2-.5-.4-.9-.8-1.4-1.2-.5.3-1 .6-1.6.9-.1.1-.4.1-.5 0-.6-.3-1.2-.5-1.3-1.4.4-.5.8-1 1.3-1.5-.1.1-.1.2-.2.3-.3-.4-.6-.7-.9-1.1-.3.7-1.2.8-2 .8-.5-1-1.2-2 .2-2.8-.6-1.1-.6-1.1-1.3-1.3-.4.8-.7 1.1-1.1.9-.3-.2-.7-.5-.9-.9-.1-.2 0-.6.2-.9s.1-.6-.1-.7c-.4-.2-.8-.7-1.4-.2-.1.1-.4.1-.6.1-.4-.2-.7-.4-1.2-.7.6-1-.4-1.3-.8-1.9-1 .2-1-.8-1.4-1.3zm-56.2 11.1c-1-.5-2-.1-2.8-.1-.5.5-1 .9-1.4 1.3-.1.1-.3.2-.3.4-.1.9-.7 1.8-.2 2.8.1.1.2.4.1.5-.4.5-.1.9.1 1.3.1.2.2.4.2.5-.4.7.1 1.3.2 2s-.1 1.5.6 2.1c.1.1.1.4.1.5-.1 1.4-.2 2.7-.3 4.1 0 .2-.2.5-.4.7-1.4 1-2.8 1.9-4.6 2-1.2.1-2-.6-2.9-1-.3-.1-.6-.2-.7-.4-.1-.8-.8-.7-1.3-.9-.2-.1-.4 0-.5-.1-.9-.9-2.2-1.6-2.4-3-.1-.4-.4-.7-.6-1-.5-.8-1.5-1.3-1.1-2.5.1-.2-.1-.5-.3-.7-.1-.3-.4-.5-.5-.8-.6-1.2-.9-2.6-2.3-3.2-.1 0-.1-.2-.2-.3-1-1.2-1.9-1.1-2.9-.2.3.7 0 1.7.9 2.1.2.7.5 1.3 1.2 1.8.1.1.2.4.2.6-.1.3 0 .5.1.8.4.6 1.2 1.2.6 2.1 0 .1.1.2.2.4.1.3.2.6.4.9.3.8.5 1.7 1 2.3s.5 1 .2 1.6c.7.2 1 .8 1.3 1.3.6 1.2 1.1 2.4 1.7 3.5l.6.9c.3.6.7 1.1.5 1.8-.1.3.1.7.1 1.1.4-.1.5-.6.9-.2.1.1.3.1.4 0 .6-.5 1.4-.7 2.1-.9s1.4-.5 2.1-.4c.2 0 .3-.1.5-.1.4-.1.9-.2 1.2-.1.8.3 1.4.3 2-.2.2-.1.8 0 .8-.1.3-.8 1-.6 1.6-.6.4 0 .7.1 1.1.1s1 0 1.2-.2c.3-.5.6-.1.9-.2.7-.3 1.5-.2 1.9-.9 1.2-.1 2.2-1.1 3.5-.8.1 0 .3-.1.4-.1.7-.3 1.3-.6 1.9-.9.4.2.7.3 1 .4s.5-.3.4-.5c-.1-.3-.5-.6-.5-1 0-.6-.3-.9-.6-1.4l-1.2-1.8c-.2-.3-.1-.5.2-.7.1-.1.3-.1.5-.1-.2-.2-.2-.3-.3-.3-.6-.4-1.2-.7-1.1-1.6.1-.4-.3-1-1-.9-.1 0-.3-.1-.4-.2 0-.4.1-.8 0-1-.8-1.2-.6-2.9-1.7-4-.1-1.4-1.2-2.6-1.4-4-.1-.6-.3-1.2-1-1.5-.1 0 0-.4 0-.6zm151.6 42.4c.6-.4 1.1-.3 1.7-.2 1 .1 2.2.5 3-.7.7 0 .7-.8 1.2-1 .9-.3 1.1-1.1 1.5-1.8s.3-1.5.9-2.1c.1-.1 0-.4 0-.7 0-.9-.1-1.7 0-2.6.1-.7.1-1.4-.1-2.2-.2-.9-1.1-1.8-.4-2.9.1-.1-.1-.3-.2-.5-.2-.4-.5-.8-.1-1.3.1-.1-.1-.3-.1-.5-.1-.4-.3-.9-.4-1.3-.1-.6-.6-1.1-.3-1.8-.8-.7-.7-1.8-1.2-2.6-.4-.7-.8-1.4-.9-2.1 0-.4-.2-.5-.3-.7-.1-.3-.1-.6-.3-.9-.5-.8-1.1-1.5-1.7-2.3s-1.3-1.4-1.7-2.2c-.2-.4-.5-.3-.8-.1l-.6.6c-.4.4-.8.6-1.2 1-.9 1-1.6 2.2-2.2 3.4-1 2.2-1.8 4.4-2.2 6.2-.1.4-.1.9-.3 1.1-.3.3-.2.6-.3.9-.1.4 0 .8-.1 1.2 0 .1-.1.2-.1.3 0 .4-.1.9-.1 1.3.1 1.5.3 3.1.2 4.6 0 .6.2 1.1.4 1.5.2.5.6 1 .9 1.5.4.5.5 1.2.8 1.7.4.7 1 1.3 1.6 1.9.5.5 1.1.9 1.7 1.3.6.3.9 1.1 1.4 1.7zm-62.9 88.9c.6-.2 1.1-.5 1.6-1.1.7-.9 1.6-1.7 2.8-2 .3-.1.5-.2.7-.4.9-.9 1.8-1.8 2.8-2.6.6-.4 1.2-.9 1.9-1.3.7-.3 1.2-1.1 1.7-1.7.1-.1.2-.2.4-.2.5 0 .8-.4 1-.8.2-.3.4-.5.6-.7.9-1 2.4-1.2 3.1-2.5 0-.1.2-.1.2-.1.5 0 .8-.4 1.1-.7l2.4-2.1c.4-.3.7-.6 1-1 .5-.8 1.1-1.4 1.9-1.8-.2-.2-.4-.3-.5-.5-.6-.9-1.2-1.8-1.8-2.8-.5-.8-1.1-1.5-1.8-2.2-.9-.8-1.5-1.9-2.3-2.8-.1-.2-.2-.5-.4-.5-.7-.2-1-.8-1.2-1.3-.3-.6-.6-1.3-1.3-1.6-.1-.1-.2-.2-.2-.3-1.1.3-1.4 1.5-2.5 1.7-.4.9-1.2 1.3-2 1.7-.9.5-1.8 1.1-2.8 1.4-.7.3-1.6.5-1.6 1.6 0 .2-.2.4-.4.5-.9.8-1.3 1.9-1.5 3.1-.1.4-.2.9-.3 1.3-.2.5-.4 1-.5 1.6 0 .6-.3 1.1-.4 1.6-.3 1-1 1.9-.5 3 .1.1 0 .4-.1.5-.6.4-.4 1.1-.6 1.6-.2.7-.4 1.4-.8 2-.4.7-.2 1.4-.5 2-.3.7-.5 1.3-.3 2-.5.9.1 1.7.3 2.6.2.8.5 1.6.8 2.6zm-7.4-20.5c-.3-1-.1-2.1-.8-2.9-.1-.2-.2-.5-.1-.6.4-.7 0-1.1-.3-1.6-.2-.3-.5-.8-.4-1.1.2-1-.2-1.9-.6-2.7-.3-.7-.9-1.2-1.9-1.1s-1.7.3-2.1 1.1c-1-.1-1.9 0-2.8-.2-.8-.2-1.5.3-2.3 0-.9-.2-1.7-.3-2.6-.4-.6 0-1.3.3-1.8 0-.6-.3-1.3-.5-1.9-.6-.1 0-.3-.2-.4-.1-.7.5-1.1 0-1.5-.3-.9-.6-.9-.6-2 .2-.1.1-.4.3-.5.3-.4-.1-.5.1-.6.3-.4.9-1.1 1.6-1.7 2.4-.6.7-.7 1.8-1.8 1.9-.1 0-.1.3-.2.5-.6.6-1.1 1.2-1.7 1.6-.4.2-.6.4-.9.8-.3.5-.7 1-1.1 1.4-.7.7-1.3 1.4-2.1 2s-1 1.7-1.8 2.2c-.1.1-.1.2-.2.4-.2.5-.3 1.1-.7 1.5-.9.9-1.1 2-1.5 3.2.7-.1 1.4 0 1.8-.2.5-.4 1-.4 1.6-.4 1.2 0 2.4-.1 3.5-.5.8-.3 1.7-.5 2.6-.4 1 .1 1.8-.6 2.8-.3.6-.7 1.5-.4 2.2-.5 1-.2 2.1 0 2.9-.8.2-.2.7-.5 1-.4.7.3 1.3-.1 2-.2.6 0 1.4 0 1.9-.3.7-.5 1.4-.5 2.1-.5.2 0 .4 0 .5-.1.9-.6 2-.7 3-.8.2 0 .5-.1.6-.2.3-.4.6-.3 1-.3.5-.1 1.2 0 1.6-.3.7-.4 1.7-.1 2.2-1 0-.1.3-.1.4-.1.9.1 1.6-.3 2.5-.7zm-84.8-123.2c-1.2.2-2.2.3-3.2.4-.9.1-1.9-.3-2.7.4-.1.1-.3 0-.4 0-.5-.3-.9-.3-1.3.3 0 0-.5 0-.6-.2-.3-.5-.8-.4-1-.2-.7.8-1.6.7-2.5.7-.8 0-1.5.1-2.3.1-.2 0-.4 0-.6-.1-.4-.2-.7-.3-1.1-.1-.3.2-.7.2-1 .2-1-.1-1.9-.3-2.9.3-.1 0-.3 0-.4-.1-.8-.4-1.7-.1-2.5 0-1 .2-1.9.6-2.9.2-.6-.2-1.4-.1-2.2.2-.5.2-1.1.2-1.6.3-.3.1-.6.1-.9.1.1.5.1.9.2 1.3s.2.9.4 1.3.3.7.5 1.1c.6 1.5 1.1 3.1 1.9 4.6.5.9.4 2.1 1.4 2.7.1 0 0 .3 0 .4 0 .6.3 1 .6 1.5.7 1.2 1.7 2.3 1.1 3.9.7.3 1 .7 1.2 1.3.2.4.6.8.3 1.3.7.8.7 1.8 1 2.8.1.3.2.5.3.8.4.8.7 1.7 1.2 2.5.6 1.1.6 2.6 1.8 3.4.2.2.3.6.4.9.3.9.5 1.9 1.1 2.6.9 1.2 1.1 2.6 1.9 3.7.6.9 1.2 1.8 1.8 2.8.4-.4.7-.5 1.5-.7 1-.2 2.1-.6 3.1-.3.8.2 1.5 0 1.9-.6.3-.5.8-.5 1-.4.7.3 1.2-.1 1.7-.2.6-.1 1.2-.4 1.8-.8.2.2.3.4.4.5.4-.2.8-.4 1.3-.6.2.3.3.5.5.7.1-.3.1-.6.2-1 .3.1.5.2.7.1.7-.4 1.4-.6 2.1-.2.1.1.4-.1.6-.2.3-.3.7-.3 1-.2 1 .2 1.1.2 2-.5.2-.2.7-.3.8-.2.7.8.9.2 1.3-.3.3-.4.6-.8 1.3-.6.2.1.6 0 .7-.2.7-.8 1.5-.5 2.1 0 .6.4 1.1.4 1.7.3 0-.3-.1-.6-.1-1 .4.3.8.5 1.1.7 1.1-.2.5-1.6 1.4-2 .1.2.2.4.3.7.1-.2.4-.4.3-.5-.2-.6-.4-1.3-.8-1.8-.5-.7-.9-1.6-1.7-2.1-.1-.1-.2-.4-.1-.6.1-.6-.2-1.1-.6-1.5-.7-.9-.8-2.1-1.7-2.9-.1-.1-.2-.3-.3-.5-.7-2.2-1.9-4.2-3-6.2-.1-.3-.3-.6-.4-.8-.3-.7-.5-1.5-1.3-1.8-.1-1.5-.6-2.6-.9-2.5l-.8.8c.2.5.3 1.3.7 1.6.8.5.5 1 .3 1.6 1.1 1 1.1 1.1.3 1.9.1.5.2 1 .2 1.4.5 0 .9-.1 1.4-.1.4 1.2.8 2.3 1.1 3.4.3.2.8.4.8.5-.3.6.3.8.5 1.1.4.5.9.9.6 1.7-.1.2.2.5.4.7s.5.4.6.6c.1.4.3.6.7.8-.1.3-.3.6-.4.9.3.1.4.2.6.2-.2.8.5 1.7-.3 2.3-.3 0-.5 0-1.1-.1.5.5 1.3.5 1.2 1.1-.8.4-1.5.6-2.1 1-.2.2-.4.4-.7.3-.5-.2-.9-.4-1.1.2-.5-.3-1 0-1.3.2-1.1.6-2.2.7-3.3 1.1s-2.3.6-3.5.7c-.9.1-1.7.7-2.7.2-.3-.1-1.1.1-1.2.4-.1.4-.3.4-.6.4h-1.2c-.9 0-2.4.4-2.9.7-.1.1-.3.1-.5.1-.3 0-.5-.1-.8 0-.7.2-1.4.5-2.1.8-.2-.4-.4-.8-.6-1.3-.4.9-1.3.9-1.9 1.3-.1.1-.4-.2-.6-.3l.9-.3c-.1-.1-.8-.7-.8-.7l-.1-.1c-1-.4-1-1.3-1.2-2.1-.1-.4-.2-.9-.5-1.2-1.1-1.3-2.2-2.7-2.5-4.4-.1-1-1-1.7-1.1-2.7 0-.2-.2-.3-.3-.4-.1-.2-.3-.5-.2-.7.1-.4.1-.5-.2-.8-.7-.8-1-1.7-.5-2.5-.4-.7-.7-1.3-1-1.9-.3-.7-.6-1.5-1.1-2-.4-.4-.5-.8-.5-1.3 0-.3 0-.7-.1-.8-1.2-1.2-.4-3.3-2-4.3v-.1c0-1.1-.8-2.2-.2-3.3-.5-.8-1.3-.2-1.8-.7-.2-.7-.3-1.4 0-2.1.3-.6.8-1.1 1.1-1.7.2-.4.5-.5.8-.6.5-.1 1-.3 1.6-.2.5.1.9-.3 1.5-.3 1.2.1 2.4-.1 3.5-.2.2 0 .4.1.6.2s.4.4.6.6c0-.7.5-.9.9-.8.8.2 1.5.3 2.2-.2l.4.4c.8-1 2.1-.2 3-.8.5.6 1.1-.1 1.6.2s1.2.5 1.8.6c.7.2 1.4-.3 1.4-1 0-.5.3-.3.5-.5.1.2.4.3.4.5s-.1.5-.2.7c.5.2 1.1-.1 1.3.6-.2.1-.5.3-.7.2-.6-.2-1-.4-1.4.3-.1.1-.6.3-.4-.3l-.3-.1c-1.1 1.3-2.8 1-4.2 1.3-.4.1-1 0-1.4.1s-.8.2-1.2.2c-.3 0-.7-.1-.8 0-.5.7-1.3.5-2 .7-1 .3-2.1.5-3.1.3-.6-.1-1.1.5-1.7.1-.7.6-1.6.5-2.5.6.5 1.8 1 3.6 1.4 5.4.7.4 1.4.1 2.1 0 .5 0 1.2-.3 1.6 0 1 .6 2 1.1 2.9 2.1 1 1.1 1.6 2.5 2.8 3.6-.1.4-.2.7-.3 1.1.5.6 1.3 1.1 1.1 2.1 0 .1.2.2.3.3.2.3.4.6.5.9s.1.7.4.9.8.3 1.1.5c.4.2-.1.9.6 1.1.5.2 1 .6 1.3 1.1.6.8 1.5.9 2.3 1 .7.1 1.6.2 2.2-.5l.3-1.2c.1-.2.2-.5.2-.6-.1-.7-.3-1.3-.5-2-.2-.5-.4-.9-.1-1.4.4-.6-.7-.8-.4-1.5v-.3c.2-.3.1-.5 0-.7-.2-.3-.2-.6-.3-.9-.1-.6-.3-1.2-.4-1.9.4-.8.7-1.7.7-2.7s.3-1.9 1.3-2.5c1.1-.6 1.9-1.7 3.4-1.7.2 0 .4-.2.6-.3-.6-.6-.4-1.4-.6-2.1-.2-.6-.7-1.2-1.1-1.8s-.7-1.3-1.1-2c1-.4 1.3-1.2 1.3-2.2.2.2.3.2.6.5-.2-.7-.3-1.2-.4-1.8zm78.9 54.9c-.5-.1-1 0-1.4-.2-.8-.5-1.6-.4-2.4-.4-.4 0-.7-.1-1.1-.2-.9-.3-1.9-.7-2.8-1-.2-.1-.4-.2-.6-.2-.8-.1-2.7.5-3.7 1 0 .2 0 .4.1.5.9 1 1.1 2.2 1.5 3.4.3.9.9 2.1-.6 2.9-.1 0-.7 0-.9-.2-.4-.6-1.5-.9-.9-2 .1-.1-.1-.3-.2-.5-.2-1.2-1.5-1.7-1.7-2.8-.8.4-1.5 1.1-2.5.9-.1.2-.2.5-.4.6-1.3.9-2.1 2.1-3.2 3.2-.1.1-.3.3-.3.5 0 .9-.6 1.6-.9 2.4-.2.5-.3.8-.1 1.3.2.6.5 1.3.3 1.9-.3.9-.3 1.7-.1 2.6.1.3-.1.6-.2.9.7 1 .7 1 2.1 1.3.1 0 .3.1.4.1.5.2.9.2 1.3-.2.1-.1.3-.2.5-.2.7 0 1.3 0 1.4-1 0-.1.3-.3.5-.3 1.2-.3 1.6-1.2 2-2.2.1-.3.2-.7.3-1 .4-1 .7-1.9 2.1-1.9l-.4-.4h1.4c.1.4.4.7.4 1-.1 1.2 0 2.5-1.1 3.5-.3.2-.4.6-.6.9-.2.5-.6.9-.7 1.4-.2.8-.8.7-1.3 1l-.3.3c-.9.8-1.9 1.4-2.8 1.8-1.1.5-2.2.4-3.3.1-.4-.1-.8-.1-1.1-.1 0 .8-.2 1.5-.1 2.2s.5 1.3.6 2c.2.8.2 1.7.4 2.6.1.8.1 1.6.5 2.4.1.3.1.6.3.9.3.4.3.8.2 1.2-.3.7-.2 1.4.1 2.1.2.5.4 1 .7 1.4.4.6-.2 1.1-.1 1.6v.1l.6 2.4c.2 1 .5 2.1.7 3.1.2.8.3 1.6.5 2.4.1.3.4 2.1.3 2.4 0 .1.1.2.1.2.3-.1.7-.3 1-.4.4-.1 1 0 1.1.4.1.7.9.6 1 1.2.1.2.4.4.6.4.9.1 1.6.8 2.5.8.5 0 1 .2 1.5.2.7 0 1.4.3 2 .5.1.2.1.5.2.7 1-.9 1.9-1.2 2.9-.9h.5c.9 0 1.9-.1 2.9 0q2.25.3 1.8-1.8c-.1-.2-.2-.5-.1-.7.4-.9.1-1.9.2-2.8.2-1.4.7-2.8.3-4.3 0-.1 0-.3.1-.4.4-.8.3-1.6.2-2.5 0-.2-.1-.3-.1-.5 0-1.1.5-2.2.1-3.3v-.1c.3-1.1.2-2.2-.2-3.3-.1-.2-.1-.5 0-.7.3-2 .7-4 .5-6-.1-1.2.1-2.2.5-3.3 0-.1 0-.2.1-.3-.7-.7-.5-1.5 0-2.3.2-.3.3-.6.5-.9 0-.1 0-.2.1-.3-.2-.3-.5-.5-.7-.8.3-.6.5-1 .4-1.7-.1-.9.2-1.9.4-2.8q.15-.75.9-.6c.2 0 .4.2.6.2.8.3 1 .6.8 1.4 0 .2-.2.5-.2.6.2.8 0 1.5-.4 2.2.9.5.5 1.3.5 2.1 0 .4-.2.9-.1 1.3.2.6-.6.8-.4 1.4v.3c.2.9 0 1.7-.3 2.5.8.3.8.3 1.7.2.2 0 .5-.1.7 0 .5.3.9.1 1.4 0 .2-.1.4-.1.6-.1 1.2-.1 2.4-.1 3.5-.2.1 0 .3-.1.4-.1.5-.5 1.2-.5 1.8-.3.8.2 1.6.1 2.4-.1.4-.1.8-.2 1.2-.1.6.1 1.3.2 1.8 0 .8-.3 1.5-.2 2.3-.2h.8c.5 0 .7-.3.6-.8 0-.5-.1-1-.1-1.5 0-.6 0-1.1-.1-1.7-.1-1.2-.6-2.3-.4-3.6.1-.3 0-.7 0-1.1 0-1 .2-2.1-.5-3.1-.4-.5-.3-1.1 0-1.7-.3-.7-1.1-1.2-.6-2-.3-.6-.8-1.1-.9-1.6-.1-.8-.5-1.3-.9-2-.6-.9-1.5-1.7-2-2.8-.3-.6-.8-1.1-.8-1.8 0-.9-1.1-.9-1.1-1.8v-.1q-.3-.9-1.2-.6c-.3.1-.6.3-.7.6-.5.7-1.5.8-1.9 1.6-.1.1-.4.1-.6.1s-.4 0-.5.1c-.5.2-1.3.3-1.5.7-.5.9-1.1.3-1.7.3-.1 0-.1.1-.2.1-1.3.5-2.7 1-4 1.5h-.3c-.6.3-1.4 0-2 .3h-.2c.1-.3.1-.6.2-.9-.5.1-.7.4-.7.8h-.9c-.1-.4-.2-.6-.2-.9h-.2c-.1.4-.2.8-.3 1.3zm11.7-47.4c1.2-.8 2.3-1.5 3.2-2.6.8-.1 1.2-.8 1.7-1.3.1-.1.4-.3.6-.3 1 .3 1.5-.9 2.4-.8.8-.9 1.8-.8 2.8-.8.5 0 1 .3 1.6-.1s1.3-.5 1.9.1c.1.1.3.1.5.1.8.1 1.6.1 2.5.3.4.1 1 .2 1.2.5.4.6 1 .7 1.6.9.4.1 1 .2 1.2.5.5.6 1 1.2 1.6 1.6.4.3.6.8.4 1.4-.2.5-.6.7-1.1.6-.4-.1-.8-.1-1.2-.2-1-.5-2.1-.9-3.1-1.5-.9-.6-1.8-.7-2.7-1-1-.3-2-.3-3-.2-1.3 0-2.6.1-3.8.8-.4.2-.7.4-1.1.5-1 .4-2.2 1.4-2.8 2.4-.1.1-.3.4-.4.3-1-.2-1.3.6-1.8 1.2-.2.2-.5.5-.7.6-.8 0-1 .6-1 1.1s-.3.6-.5.7c-1.2.5-1.2.5-1.7 1.7-.1.4-.5.8-.8.9-.5.1-.8.5-.8.8-.1.6-.4.9-.8 1.2-.3.2-.7.5-.9.8-.4.6-.6 1.3-1 1.9-.3.4-.8.8-1 1.2-.4.8-.8 1.5-1.6 1.9-.2.1-.5.3-.6.5-.3.9-.9 1.5-1.6 2.1-.4.2-.4.6-.2 1h2.9c1.3.1 2 .9 1.9 2.2-.1.7-.4 1-1.1.9-.8-.1-1.6-.9-2.5 0-1.2-.5-2.4.4-3.7.1h-.6c-.4.1-.9.3-1.2.2-.4-.2-.8 0-1.2 0-1.1-.1-2.3-.2-3.4.2-.3.1-.8.1-.9-.1-.4-.5-.7-.4-1.2-.2-1.1.4-2.3.6-3.5.1-.5-.2-1-.1-1.4.1q-.9.45-1.8 0c-.1-.1-.3-.2-.4-.2-.7 0-1.4.1-2.1.1s-1.4-.4-2 .2c-.1.1-.4 0-.6-.1-1.1-.1-2.1-.3-3.1-.4-1.4.7-2.9-.3-4.3.2-.1 0-.3-.1-.4-.1-1.5-.2-3.1-.3-4.6 0-1.1.2-2.2 0-3.3-.1-.4 0-.9 0-1.3-.2-1-.6-1.9-.4-3-.2-.8.1-1.6.6-2.5.4-1-.3-1.7.4-2.5.5h-.4c-1.6-.3-3.1.3-4.6.8h-.1c-.6.9-1.7.8-2.5 1.2-.3.1-.8.1-1 .4-1.2 1-2.3 2.1-3.1 3.5-.7 1.2-1.4 2.4-1.2 3.9.5.8 1.2 1.6 1.8 2.5.1-.1.2-.3.2-.3.2.1.4.3.6.2s.4-.3.6-.4c.1 0 .3.1.5.2.1.1.3.3.4.3.6-.1 1.2 0 1.7-.3.9-.5 1.7-1.2 2.8-1.2.4-.6 1.1-.7 1.7-1 .8-.4 1.7-.9 2.4-1.5.6-.6 1.3-.6 2-.7.8-.1 1.4.4 1.9 1.2-.5.5-.9 1-1.4 1.6.4.7.9 0 1.3.2s.8.6 1.2.5c1.2-.2 2.3.2 3.5.4.4.1.9 0 1.2.5h.2c.1-.2.1-.3.2-.5.7.2 1.5 0 2.1.6.1.1.3.1.4 0 .5-.4.9 0 1.3.1.7 0 1.2.8 2 .3.1 0 .3.3.5.4.1.1.3.3.4.3.9-.2 1.6.4 2.4.6.3.1.5.2.8.2.8-.1 1.4 0 2 .5.5.3 1.2.6 1.8.6 1 .1 1.9.2 2.8.6.7.3 1.5.2 2.2.2 1.1 0 2.3-.4 3.1.6.3-.1.6-.4.8-.3.8.3 1.9-.2 2.5.7.1.1.4.2.6.2.4.1.7.1 1.1.2.9.2 1.5-.2 1.6-1.1 0-.2.1-.5.2-.6.4-.5.8-1 1.3-1.4.7-.7 1.8-.9 2.1-2 1.3-.6 2.6-1.5 4.2-.9.4.1 1 0 1.5-.1.8-.2 1.5-.6 2.2-.5s1.6.3 2.2.7c1.1.7 2.3 1 3.5 1.5.3.1.8.4.8.6.1 1 .4 1.8 1.2 2.4-.1.7.5.8.8 1.3.7-.4 1.2-.7 2-.8.4 0 .9-.3.9-.8 0-.6.5-.8.9-.9.8-.3 1.5-.7 2.1-1.3.3-.2.7-.4 1-.6.3.2.5.4.8.6.1-.3.1-.5.1-.6 0-.2 0-.4.1-.5.2-.3.5-.5.8-.8 1-.8.9-.8 1.3-2 .2-.6.6-1.2.9-1.8.4.1.6.2.9.2.7-.6 1.3-1.5 2.3-1.7.1 0 .3-.2.4-.4.6-1 1.5-1.8 2.3-2.7 1.2-1.3 2.2-2.8 3.3-4.2.1.1.2.3.3.4.2.1.4 0 .5.1.9.3 1.3 1.2.6 1.9-.6.7-.7 1.7-1.6 2.1-.2.1-.2.4-.3.6s-.3.4-.4.6c-.6 1.3-1.8 2.1-2.6 3.3-.3.5-.6 1-1 1.4-.5.4-.8.9-1.1 1.4-.1.2-.2.5-.3.5-.9.3-.9 1-.8 1.7.1.9.3 1.8.6 2.6.4.9.6 1.8 1.1 2.6.9 1.3 1.3 3 2.8 4 .4.3.5.8.7 1.3.1.2.2.5.3.5 1.1.1 1.2 1 1.4 1.6.4.2.9.2 1.1.4.7.8 1.4 1.5 2.4 1.9.4 1.1 2 .8 2.4 1.9 0 .1.4.1.6.1.5.2 1.2.3 1.4.7.3.6.9.6 1.3.9.2.1.5.1.6.3.6 1.1 1.9 1 2.6 1.7.3-.6.6-1 .7-1.5s-.1-1.1.1-1.6c.2-.6 0-1.3.6-1.8.1-.1.2-.5.2-.6-.2-.5 0-.8.2-1.1.3-.5.4-1 .4-1.6s0-1.3.2-1.8c.6-1.1.2-2.4.6-3.6 0-.1 0-.3-.1-.4-.4-.9-.2-1.9-.1-2.8s.4-1.9.1-2.8c-.1-.2 0-.4 0-.7 0-.5.2-1 0-1.4-.3-.9-.1-1.7 0-2.6 0-.7 0-1.5-.1-2.2 0-.7-.1-1.3-.1-2s0-1.3-.3-1.7-.2-.7-.2-1.2c.1-.5.2-1.1 0-1.4-.3-.5-.2-.9-.3-1.4-.1-.6.3-1.3-.3-1.9-.1-.1 0-.4.1-.7v-.9c-.2-1.1-.8-2.1-.8-3.2 0-1 .1-1.9-.6-2.8-.1-.1 0-.4 0-.5 0-1 0-1-.7-2.2-.2-.4-.5-.9-.3-1.4-1-.8-.9-2-1.4-3-.6-1.2-1.3-2.4-2.1-3.5-.6-.8-1.3-1.7-2-2.5-.2-.2-.4-.2-.6-.5-.8-1.3-1.2-2.9-2.9-3.6-.1 0-.2.2-.4.2-1.2.2-1.9-.4-1.7-1.6.1-.2.2-.4.4-.6 1-1.1 1.4-2.5 2.5-3.5.1-.1.2-.2.2-.4.1-.8.2-1.5.4-2.3.1-.7 1-1.2.3-2v-.1c.7-1.3.4-2.8.6-4.2 0-.2.1-.5 0-.6-.5-.4-.3-.8-.2-1.2s.2-.7.1-1.1-.1-.9 0-1.3c.1-.5.1-.9 0-1.3-.1-.3-.2-.6-.2-.9.2-1-.4-1.9-.7-2.8-.2-.6-.5-1.1-.6-1.8-.1-.3 0-.5-.4-.8-.4-.2-.5-1-.8-1.3-.7-.6-.9-1.3-1.2-2.1s-.7-1.4-1.4-2-1.2-1.5-2.2-1.9c-.1 0-.2-.3-.3-.5-.6-1-1.6-1.5-2.7-1.8-.5-.2-.9-.4-1.4-.7-.9-.6-2-1.1-3-.9-1.3.3-2.3 0-3.5-.3-.1 0-.2 0-.2.1 0 .2 0 .4.1.6-.8.3-1.5-.2-2.2.1-.4.2-.9.2-1.3.3-.9.2-1.9 0-2.6.6-.6.5-1.4.6-2 .5s-1.1 0-1.4.4c-.3.5-.8.6-1.2.9-.9.6-2 .8-2.5 1.9 0 .1-.2.1-.3.2-.5.4-.9.8-1.4 1.3.5.3.9.6 1.3.6.9-.1 1.7.4 2.5.6.3.1.7.2 1.1.2.8 0 1.4.8 2.3.4.1 0 .2.1.3.2.9.6 1.9 1.3 2.8 1.9q.45.3.9.3c1.2.3 2.2.8 2.4 2 .5.2 1 .3 1.4.5s.8.6 1.2.9c.2.1.3.4.4.6.2 1.2 1.4 1.6 1.9 2.6.1.3.7.5 1 .4.7-.3 1.3.2 2 .2 1.1 0 1.9.8 2.9 1.2.1.1.2.3.3.4.3.9.7 1.8.8 2.8.1 1.1-.1 2.1-1.2 2.8-.3.2-.7.4-.8.7-.3.6-.8.6-1.3.6h-2.2c-.1.2-.4.5-.4.8-.1.9-.5 1.5-1.3 2-.4.2-.6.5-.9.9s-.4.9-.7 1.3c-.7 1-1.1 2.2-2.4 2.6-.2.1-.3.2-.4.4-.3 1.1-1.4 1.4-2.1 2.2-.3.4-.7.7-1.1.9-.9.3-1.5.9-2.3 1.5-.3.2-.5.3-.8.5-.8.3-1.6.6-2.5 1 .4.9 1.5.7 2.1 1.2 0 .4 0 .7.1 1.2.5-.8 1.1-.6 1.7-.3zm-70.2 42.9c-1.3-.3-2.7-.5-4.1-.3-.2 0-.4 0-.5-.1-.4-.5-1.1 0-1.5-.4-.8.6-1.6-.3-2.5.1-.3.1-.8-.1-1.2-.3-.8-.3-1.7-.3-2.5-.3-.9 0-1.9-.1-2.8-.1-.8 0-1.6 0-2.4-.1s-1.6-.3-2.4-.5c-.5-.1-1 0-1.5 0s-.9-.1-1.4 0c-.8.1-1.7.4-2.4-.3-.1-.1-.3-.1-.4-.1-.9.5-1.4-.1-1.9-.6-.1-.1-.2-.1-.5-.3.1.4.2.7.3 1.1-.9-.2-1.6-.5-2.3 0-.1.1-.3 0-.4-.1-1-.5-2.1-1-3-1.6-.6-.4-1.3-.8-1.7-1.5-.1-.3-.6-.4-.9-.6-1-.4-1.5-1.2-1.8-2.1 0-.2.1-.4.1-.5-.4-.5-.8-1-1.4-1.6-.1.2-.2.3-.3.4-1.4-.4-1.6-.7-.7-2.1-.2-.6-.4-1.2-.7-1.9-.9.1-.7 1.1-1.3 1.5-.8 0-1.5-.3-1.6-1.1-.1-1 .3-1.9 1.3-2.3-.3-.7-.6-1.3-.8-2s-.9-1.2-.9-2c0-.6-.4-1.1-.6-1.6-.2-.3-.3-.7-.8-.6-.5 0-.8-.3-.7-.8.2-1-.4-1.9-.7-2.8-.5.7-1.1.7-1.7.5-.7-.3-.3-1.1-.4-1.7.5-.1.9-.2 1.3-.2 0-.2.1-.3.1-.4-.7-1-.7-2.3-1.8-3.1-.1-.1-.2-.3-.2-.5.1-1-.4-1.7-1.1-2.5 0 0-.2 0-.3-.1-1.1-.1-1.5-.8-.9-1.6.3-.5.3-.8.1-1.2-.2-.5.2-1.1-.4-1.5-.3.9-.3.9-1.3 1.6-.5-.2-1-.4-1.6-.6-.3-.9.5-1.3.8-1.9.4 0 .8-.1 1.2-.1 0-.8-.4-1.4-.3-2.3.1-.4-.4-1-.8-1.3-.4-.4-.6-.8-.4-1.2.3-.7 0-1.2-.3-1.7-.5-.7-.3-1.2 0-1.9.4-.7 1-1.4.8-2.4-.1-.6.3-.8.8-.9s1.1 0 1.6-.1c2-.2 4-.5 6-.7.6-.1 1.1-.1 1.7-.1.5 0 .9 0 1.3-.4.2-.2.6-.2.9-.2 1.3 0 2.6.1 3.9 0 1.6-.1 3.2-.4 4.8-.5.3 0 .6.1.9.1.1 0 .3.2.4.1.8-.7 1.7-.2 2.5-.2.3 0 .6.1.8-.1.7-.5 1.2.1 1.8 0s1.2-.6 1.7-.5q1.35.3 2.7 0c.2-.1.5.1.7.2.2-.3.4-.6.7-.8.6-.4 1.1-.4 1.5.3.5.8 1.3 1.4 1.3 2.5 0 .3.2.6.4.8 1.2 1.8 2 3.8 3 5.6.4.8.6 1.7 1.3 2.2-.1 1 .9 1.3 1.2 2s.5 1.5 1 2.1c1.4 1.8 2.1 3.9 2.8 5.9.2.5.5 1 .9 1.4.7.7 1.2 1.5 1.3 2.5.2 1.3 1.1 2.3 1.7 3.4.3.6.7 1.1.9 1.7.3.5.6 1 .8 1.5s0 1.1.3 1.5.8.7 1 1.2c0 .1.1.1.2.1.8-.4 1.6-.8 2.4-1.3.4-.2.8-.4 1.1-.9.4-.5 1-1 1.8-1.2.7-.2 1.4-.6 2.1-.9.7.5 1.4-.1 2.1-.1.8.1 1.7-.5 2.5 0 .1.1.3-.2.5-.2.8-.1 1.5-.7 2.5-.4.7.2 1.6-.1 2.4-.3.4-.1.8 0 1.2-.1.4 0 .8 0 1.2.1.6 0 1.4 0 1.9-.3 1.2-.8 2.4-.4 3.5-.3.9.1 1.7.3 2.4-.4.9.2 1.6.9 2.5.3.1-.1.4 0 .5 0 .2 0 .4.2.5.2 1.4-.6 2.7 0 4.1-.1 1.3-.1 2.7-.3 4 0 1.2.3 2.4.2 3.6.3.2 0 .4 0 .5-.1.3-.6.8 0 1.1-.1-.8-1.4-1.5-2.7-2.3-4.1-.1-.2-.2-.3-.3-.5-1.2-1.4-2.1-3.1-3-4.7-.3-.5-.3-1.1-.8-1.6-.7-.7-1.4-1.1-2.4-1.1-1.4-.1-3-.1-4.3-.6-1.1-.4-2.6-.5-2.9-2.1-.6.2-1 .4-1.4.5-.5.1-.7-.3-1.1-.5-.1-.1-.4-.3-.4-.3-.6.5-.9-.7-1.5-.2-.4.3-.8.1-.9-.3-.3-.6-.7-.6-1.2-.7s-1-.3-1.2-.9c-.1-.2-.3-.4-.5-.6-.6-.6-1.2-1.1-.6-2 .1-.2 0-.5-.1-.7-.1-.4-.1-.7.2-1 .2-.3.4-.7.6-1 .1-.1.2-.3.3-.3.7-.3.9-1 1.3-1.5.2-.3.4-.9.7-.9.7-.1.9-.5 1.2-1 .4-.5.9-.8 1.5-1.1.8-.4 1.5-1 2.3-1.5.2 0 .5.2.7.1 1.5-.5 3 0 4.5-.2.5-.1 1 .4 1.5.5.3.1.8.3 1 .2.8-.4 1.3 0 1.9.4.3.2.5.3.8.5h.2c.3-.2.7-.5 1-.5.4 0 .8.2 1.1.4 1.5.9 2.9 2 4.4 2.8 1.2.6 2.1 1.6 3.3 2.1.2.1.4.3.5.5.8 1 2 1.7 2.7 2.8.1.1.2.2.3.2.9 0 1.3.7 1.7 1.4.2.3.5.7.9.8.6.2 1 .6 1.5 1l1.8 1.5c.4.3.7.7 1 1l.8.8c1.1.9 2.1 1.9 3.2 2.8.6-.8 1-1.8 2.1-2.2.2-.1.4-.4.5-.6.7-1.3 1.9-1.9 3-2.7.2-.2.6-.3.7-.5s-.1-.5-.2-.8c0-.1 0-.3.1-.5-.7-.1-1.4-.2-2-.4-.3-.1-.7-.3-.9-.6-.6-1.1-1.8-1.5-2.8-2.2-.1-.1-.4-.1-.5-.2-.6-.8-1.6-1.1-2.2-1.9s-1.2-1.5-1.7-2.4c-.3-.5-.4-1-1-1.2-.1 0-.2-.1-.2-.2 0-1.3-1.3-2.2-1.2-3.6 0-.2-.1-.4-.1-.5-.1-.3-.1-.6-.2-.9-.1-.1-.4-.1-.5-.3-.6-1.1-1.2-2.3-1.1-3.6 0-.2.1-.4 0-.5-.8-1-.5-2.2-.5-3.3-.1-.8 0-1.6.1-2.3.1-1.2.2-2.4.2-3.5 0-.4 0-.8.4-1.1.1-.1 0-.4 0-.6 0-.3 0-.6-.1-.9l.8-1.7c.3-.7.5-1.3.8-2 .1-.2 0-.5.1-.5 1.2-.7.7-1.8.6-2.8.2-.3.5-.6.9-.3.1-.3.1-.6.2-.8.1-.1.2-.1.2-.1.9.2 1.4-.4 1.9-.9 1.2-1.5 2.6-2.7 4.5-3.3.2-.1.4-.3.7-.5.7-.4 1.2-1.1 2.1-1.2.1 0 .2-.1.2-.1.4-.9 1.3-.8 2-1.1.6-.2 1.1-.4 1.7-.4.3 0 .6-.1.9-.2.2-.1.4-.3.5-.2.8.5 1.5-.2 2.2-.2s1.4-.2 2.1-.3c.1 0 .3-.1.4-.1.7.5 1.5.3 2.3.2.3 0 .6 0 .8.1.5.3 1 .2 1.4.2.7-.1 1.4 0 2 .5.5.4 1.2.6 1.8.7 1.4.2 2.4 1.2 3.6 1.7.5.2 1 .7 1.6.8.5.1.7.4.9.8.2.5.4 1.1.7 1.6.2.3.6.5.9.7.1-.2.2-.3.4-.6.6 1 1.5 1.9 1.2 3.2.5.1.9.1 1.2.3s.6.6.7 1-.1.8-.2 1.3c.3.4.9.9.8 1.7 0 .3.4.7.7 1.1l-.2.2c.1.8.2 1.6.4 2.3.1.4.4.7.4 1.1.3 1.7.8 3.3.7 5.1-.1 1-.2 2.1 0 3.1.1.4-.2.9-.2 1.3-.3 1.3-.1 2.7-.7 4 .4 1-.5 1.7-.8 2.6-.2.6-.5 1.2-.5 1.8 0 .3-.3.6-.5.9-.4.6-.4.7.1 1.2.2.2.4.5.6.7.2.3.5.6.8.7.8.4 1.3 1.1 1.6 1.9.2.5.5.9 1 1.2.3.2.8.3.8.2.2-.7.6 0 .9-.2.4-.1.8-.3 1.2-.3 1.4-.3 2.9-.1 4.4-.6.3-.1.6 0 .9-.1.5 0 1.1.1 1.5-.1s.9.1 1.4-.3c.4-.3 1.2-.1 1.9-.1.2 0 .3.1.5 0 .7-.2 1.5-.4 2.2-.6 1.2-.3 2.3.2 3.2.9.2.1.3.5.4.7.1 1.7.5 3.3.3 4.9-.1 1.3.1 2.6.4 3.9.1.3 0 .6 0 .9v2.1c0 .4.1.7.1 1.1.1 1.6.3 3.1 0 4.7-.1.5.1 1.1.1 1.7s-.1 1.1 0 1.7.1 1.2.3 1.7c.4.9.1 1.7.1 2.5.1.8.2 1.6-.2 2.4-.1.2-.1.7.1.8.6.5.5 1.2.4 1.8-.1 1.2.2 2.5-.2 3.7-.1.2.1.5.2.8.4 1.3 0 2.5 0 3.8 0 1-.1 2 .5 3 .2.3.1.9.1 1.4q-.15 1.35 0 2.7v.3c-.5 1.2 0 2.4 0 3.6 0 .9.1 1.6-.3 2.5-.2.4 0 1.1 0 1.6 0 .9-.1 1.7-.8 2.4-.3.2-.6.4-.9.5-.5.1-1.1 0-1.6.2-.6.1-1 .1-1.6-.1q-.9-.3-1.8 0c-.7.2-1.5.1-2.2.2-1 .1-2.1 0-3.1-.3-.8-.3-1.5-.1-2.3.1-1 2.3-1.1 2.6-.7 3.5.7-.3 1.4-.5 2 .2.1.1.3.1.4.1.8-.1 1.3.4 1.5 1 .8 0 1.5-.1 2.1 0 2 .4 4 1.1 6 1.4 1 .2 2 .1 3 .1.5 0 1 .2 1.5.2 1.4-.1 2.8.1 4.3-.2.9-.2 1.9-.4 2.8-.1.4.1.9 0 1.4-.1.6-.3 1.2.2 1.8-.2s1.2-.2 1.8-.1c.1 0 .2.1.2.1.9-1 2.6-.3 3.4-1.5 0-.1.2-.1.2-.1 1.5.1 2.6-.9 3.9-1.1h.1c.4-.5.7-1.1 1.6-1.1.6 0 1.2-.5 1.8-.8.5-.3 1.1-.7 1.5-1.1.9-.9 2.4-1.2 3.2-2.3.7-.9 1.7-1.5 2.7-2.2.4-.2.6-.6.9-1 .3-.3.4-.7.7-1 1-1.2 1.3-2.8 2.5-3.9.1-.1.1-.3.1-.4 0-.8 0-1.6.7-2.1 0-1 .6-1.8.7-2.8 0-.7.2-1.3.3-2v-1.2c.1-.8.1-1.6.3-2.3.1-.6.2-1.1 0-1.6-.3-.8-.2-1.5.2-2.1-.3-1-.4-1.9-.8-2.8-.5-1.2-.8-2.6-1.3-3.8-.1-.2-.1-.3-.1-.5-.3-1.5-1.3-2.4-2.4-3.3-.2-.2-.4-.5-.6-.7-.5-.5-.9-1.1-1.4-1.6-.3-.2-.8-.1-1.1-.4-.8-.9-1.9-.9-2.9-1.2-.6-.2-1.2-.4-1.8-.7-.3.1-.7.2-1 .3-.3 0-.7.1-.9-.1-.8-.5-1.6-.4-2.4-.2-.7.1-1.3.4-2 .2-.2-.1-.5 0-.7 0-.7.2-1.3.5-2.1.8.7.8 1.4 1.7 2.2 2.5.8.7.8 1.8 1.5 2.5.1.2.2.5.3.6.8.6 1.1 1.3 1 2.3.6.5.5 1.4.7 2 .3.8.4 1.6.6 2.4.2.7.3 1.5.8 2.2.2.3.3.7.3 1 0 1.8.6 3.5 1 5.2.1.3.2.7.1.9-.2.6 0 1 .1 1.6.1.4 0 .8-.1 1.2-.2.8-.7 1.6-.2 2.5.1.1 0 .4 0 .4-.9.4-.5 1.3-.9 1.9-.3.4-.4.8-.5 1.3-.1.8-.8 1.1-1.2 1.7-.3.4-.7.8-1 1.1-.1.1-.2.3-.3.3-.9 0-1.4.8-2.2 1.1-.2.1-.4.2-.5.2-1.4-.4-2.8.4-4.1-.2-.1-.1-.4 0-.5 0-1.3.1-2.2-.6-3-1.5-.2-.2-.5-.4-.7-.6-2.3-1.4-3.9-3.4-5.1-5.8-.4-.9-1-1.9-1-2.8.1-1-.3-1.7-.6-2.5-.1-.3-.3-.6-.2-.8.5-.8 0-1.7.2-2.5.2-.9 0-1.5-.2-2.1.2-.7.4-1.2.4-1.7.1-.8-.1-1.6.5-2.2.1-.1.1-.4.1-.6-.3-1.2.4-2.1.8-3.1.3-.8.7-1.5 1.2-2.3.3-.5.4-1.2.5-1.8s.3-.9.9-1.2c.5-.3.9-.9 1.3-1.4.3-.4.5-.8.9-1.1.6-.4 1-.9 1.5-1.4-1.2-1.4-2.7-2.4-4.3-3.3-1.3-.7-2.5-1.5-4-1.6-.8 0-1.7-1.3-1.6-2.2.1-.8.6-1.3 1.4-1.1.9.2 1.9-.1 2.7.7.1.1.4 0 .5.1.3.1.7.2.8.4.2.4.4.6.8.5.1.5.6.4 1 .6s.8.2 1 .7c0 .1.1.2.2.2 1.5.1 1.9 1.9 3.2 2.2.1 0 .2.2.2.3.9 1.1 1.3 1.2 2.5.6 1.2-.7 2.5-1.2 3.9-1.1h.6c.6 0 1.4.2 1.9 0 .7-.3 1.2 0 1.8.1.4.1.9.3 1.2.2 1-.4 1.9 0 2.7.4.5.2 1.2.2 1.6.4.6.3 1.1.4 1.7.5.5 0 1.1.5 1.6.7.3.2.6.4.7.6.1.6.6.8 1.1 1.1.4.2.9.4 1.1 1 .1.2.3.4.5.5 1 .5 1.2 1.5 1.8 2.3l.9 1.5c.1.2.3.5.3.7-.1.9.4 1.6.8 2.3.3.6.5 1.3.4 1.8-.2 1 .6 1.8.2 2.7v.1c1.3 1.3.4 2.9.5 4.3 0 .2.1.4.1.6.2.6.5 1.2-.2 1.8-.2.2-.1.9 0 1.3q.15.6 0 1.2c-.2.5-.1 1.1-.2 1.6-.2 1-.9 1.9-.8 3 0 0 0 .1-.1.1-1 .7-.9 2-1.3 3-.4 1.1-.9 2-1.9 2.6-.1 1.6-.8 2.8-2.2 3.7-1.1.7-2.1 1.5-2.7 2.6-.1.1-.1.3-.2.4-1.1.3-1.9 1.2-2.9 1.7-.7.3-1.3.8-1.9 1.2-.2.2-.5.5-.8.5-1.2-.1-1.7.8-2.5 1.4-.6.4-1.3 1-2 1.1-1.3.2-2.4 1-3.6 1.4-.6.2-1.1.4-1.7.3-1-.1-1.9.1-2.8.4-1.4.3-2.8.6-4.2.7-.9.1-1.8-.2-2.6.2-.5-.7-.8.2-1.2.1-.5 0-1.1.1-1.6.2-.2 0-.4.1-.5.1-1.1-.6-2.3 0-3.5-.1s-2.4-.2-3.7-.6c-1.1-.3-2.2-.4-3.4-.6h-.3c-1.1.5-1.9-.1-2.9-.4-.9-.3-1.8-.4-2.7-.7-.4-.1-.9-.2-1.1-.5-.8-1-1.9-.9-3-1.3.4.8.3 1.4-.4 1.8-.2.1-.3.4-.5.6-.2.3-.3.8-.8.8-.1 0-.2.3-.4.5s-.3.4-.5.6c-.9.5-1.6 1.3-2 2.2-.2.5-.6.7-1 .8-1 .2-1.8.8-2.6 1.4-.8.5-1.5 1.2-2.5 1.2-.4 0-.9.4-1.2.8-1 1-2.2 1.2-3.5 1.4h-1.2c-.3 0-.7.1-.9.3-.4.3-.9.3-1.4.3-.7 0-1.5.2-2.2.5-.5.2-.9.4-1.3.2-1-.4-1.8-.2-2.5.7-.5-.2-.9-.4-1.4-.7-.1.3-.4.7-.3.9.7 1.6.6 3.5 1.8 4.8.2 1.1.5 2 .8 3.1.3 1.3.7 2.6 1.5 3.7.7.9.7 2 .8 3 .1.8.3 1.5.7 2.2s.7 1.4.7 2.2c0 .1 0 .2.1.3.3.7 1.3 1.1.8 2 .3.7.6 1.4 1 2.1.2.5.4 1 .9 1.3.4.3.6.8.8 1.2-.2.2-.3.5-.5.7.3.8 1.1 1.3 1.1 2.2 0 .1.2.3.3.4.2.2.4.3.5.5.3.8.6 1.4 1.3 1.9s1.1 1.2 1.6 1.8c.4.5.8 1.1 1.1 1.7s.7 1 1.1 1.3c.7.6 1.5 1.2 1.7 2.3.1.2.3.5.5.7q1.65 1.8 2.4 4.2c.2.5.5 1 .7 1.5s.1 1-.2 1.5c-.2.4-.5.7-.8 1.1-.1.1-.2.2-.3.2-.6-.2-.8.3-.9.6-.4.6-.9 1-1.5 1.4-.4.2-.8.5-1.1.8-.5.7-1.3 1.2-2 1.8-.3.3-.6.5-.9.8-.4.4-.7.8-1 1.1s-.7.4-1.1.7c-1.2 1-2.4 2-3.7 2.8-.1.1-.2.2-.2.3-.2 1.1-1.1 1.5-2.1 1.6-.4.7-.5 1.4-1.5 1.4-.4 0-.9.5-1.2.9-.3.3-.5.7-.9.7h-.1c-.3.9-1.2 1-1.9 1.5s-1.4 1.1-2.1 1.5c-.3.2-.7.4-1.1.5-.4.2-.9.3-1.3.5-1.1.6-1.7.5-2.5-.6-.3-.4-.7-.9-1-1.3-.2-.3-.3-.7-.4-1-.1-.2 0-.4-.1-.5-1.1-1.4-.9-3.2-1.3-4.8-.3-1.1.2-2.1 0-3.1v-.1c1.2-2.1.7-4.6 1.7-6.7.8-1.7.7-3.5 1.2-5.3.1-.2 0-.4 0-.7 0-.2-.1-.4 0-.5.8-.8.7-1.9 1-2.9.2-.7.5-1.4.7-2.1-.8-.6-1.5-1.2-2.1-1.9-.4-.5-.9-1.1-1.4-1.2-.6-.2-.8-1-1.6-.8-.2 0-.7-.4-.8-.7-.2-.7-.7-.8-1.3-1-.1 1.4.2 2.2 1 3.6.3.5.5 1.2.4 1.8 0 .8.1 1.6.1 2.4s.2 1.5.4 2.3c.3 1.1 0 3.1-.8 3.9-.4.4-1 .7-1.5 1-.2.1-.4.1-.5.2-.8.9-2.1.8-3 1.6-.1.1-.2.1-.4.2-.5 0-1.3-.1-1.6.2-.5.4-1 .6-1.5.8s-.9.6-1.4.8c-.2.1-.5.2-.8.2-1.5-.2-2.9.2-4.2.8-.5.3-1 .2-1.6.2-1.1 0-2.2.3-3.3.6-1.4.3-2.7.8-4.1 1.1-.9.2-1.9.3-2.9.4-.4.1-.7.2-1.1.2-.3.1-.6.3-.9.1-.1-.1-.4 0-.5 0-1.6.9-3.4.8-5.1 1.1-.5.1-1 .2-1.4.4-1.1.8-2.2.3-3.2-.1-.4-.2-1-.1-1.4-.7-.5-.8-.7-.7 0-1.7-.2-.4-.7-.7-.4-1.3.1-.2.2-.6.1-.8-.6-1-.1-2 .1-3 .2-1.2.4-2.4 1.5-3.3.2-.9 1.2-1.3 1.3-2.3.1-.4.4-.9.8-1.1.8-.4 1.1-1.1 1.7-1.7.9-.9 1.6-2.1 2.5-3.1.5-.6 1.3-.9 1.8-1.7.1-.2.7-.2 1.1-.3.1-.3.3-.6.5-1 .1-.2.1-.5.3-.6 1.1-.9 1.9-2 2.6-3.2.3-.4.7-.7 1-1.1.7-.8.8-2.1.3-3-.2-.4-.8-.6-.4-1.2-.7-.6-1.1-1.4-.8-2.3-.8-.7-.3-2-1.2-2.6.2-1.4-.6-2.5-.7-3.7-.2-1.2-.5-2.4-.7-3.7-.5.3-1 .1-1.6-.1-.5-.1-.7-.7-.3-1.1.3-.3.7-.5 1.2-.9v-.6c.2-1.2-.3-2.3-.9-3.4-.2-.4-.3-.8-.1-1.2.2-.5.2-1 0-1.6-.1-.3-.1-.7-.1-1.1 0-.8-.7-1.3-.6-2.1.1-.7-.2-1.4-.2-2.1-.4 0-.9.1-1.1 0-.5-.5-.8-1.1-1.1-1.5.1-1.1.9-1.2 1.6-1.5-.2-1-.6-2-.5-3 0-.2-.2-.5-.3-.7-.6-.8-.7-1.3-.1-1.8.5-.4.3-.9.4-1.3s-.3-1-.1-1.3c.3-.5-.6-.8-.1-1.2-.6-.4-.5-1-.5-1.5s-.1-.9.4-1.3c.2-.2.3-1.3.3-1.8-.1-1.2-.1-1.2-.9-1.8-.2-1.1.5-1.8 1.2-2.6.3.4.6.7 1 1.1.1-.3.1-.5.2-.8.2-.4.8-.5.8-1.1-.1-.5-.1-.9-.2-1.4.7-.3 1.3-.8 2.2-.3.4.2.4.1 1-.5-.1-.2-.2-.4-.4-.5-.4-.3-.6-.7-.3-1.2.2-.4.4-.8 1-.8s1 .2 1.1.8c0 .1.1.2.3.4.8-.4 1.5-.8 2.4-1.4-.6-.4-.9-.6-1.3-.8.1-.6-.3-1.2.5-1.6-.3-.1-.5-.3-.8-.3-1-.1-2.1-.3-3-.7-.2-.1-.5-.2-.6-.2-.5.1-1.1 0-1.6 0l-1.5-.3c-.4-.1-1 .2-1.2-.4 0-.1-.2-.1-.2-.1-.6.8-1.3-.2-2 .1-.2.1-.7-.2-1.2-.4-.2.1-.5.2-.8.3-.4.1-.7.2-1-.2-.1-.1-.1-.2-.2-.2-.5-.3-1 .6-1.5 0-.5-.5-1-.5-1.5-.2-.6-.5-1.1-1.3-2-1.1-.6-.6-1.4-.5-2.2-.7-.8.4-1.1 1.5-2.2 1.6-.1 0-.3.6-.3.6.6.4-.2.8.1 1.1-.8.5-1.5.8-2.4.4-.1.2-.2.5-.2.7-.1-.1-.2-.2-.4-.3-.5.6-1.1.2-1.7.4l-.6.3c.1.3.2.5.3.8.1.8-.5 1.4-1.2 1.2-.4-.1-.7-.2-1.1-.3-.1-.8.2-1.4.9-2.1-.6 0-1.3.1-1.8-.1-.6-.3-1.1.1-1.7.1s-1.2 0-1.9.1c.3.2.7.3.9.5.1.2.1.6 0 .9-.2.6-1.1 1-1.8.7-.5-.2-.6-.8-.3-2-.1-.1-.2-.2-.3-.2-1.5.2-2.9-.1-4.3 0-.2 0-.4.2-.6.3z"/><path d="m1.53 61.788.3-1.5c1.4-.7 1.9-.6 2.3.2.3.7.1 1.8-.4 2.1-.9.5-1.3.4-2.2-.9M47.93 104.488q-.45-.9-.6-1.5c-.2-.6 0-1 .6-1.1h1.4c.5 0 .8.5.9.9 0 .4-.1.9-.7 1-.5.1-1 .4-1.6.6M97.43 150.788c-.7.7-1.5.7-2.3.3 0-.1-.1-.2-.2-.4-.2-.9.1-1.7.8-1.9.9-.3.9.6 1.3 1 .2.3.3.7.4 1M9.33 74.488h-1.1c-.2-.8-1.2-1.5-.2-2.5h.9c1.1 0 1.5.7.9 1.7-.2.3-.4.5-.6.8M41.83 102.388c.2-.2.5-.4.7-.4.5.1 1.2.2 1.3.5.2.5.2 1.1 0 1.7-.1.5-.8.4-1.1.3q-.6-.3-.9-.9c-.1-.3 0-.7 0-1.1M94.43 135.388c0 .7-.2 1-1 1-.7 0-1.2-.5-1.2-1.2 0-.8.5-1.4 1.2-1.4s1 .5 1 1.5M88.83 172.288c-.5.1-1 .3-1.4.3-.6 0-.9-.5-.7-1 .3-.7.7-1.4 1.5-1.8.6.7.7 1.5.6 2.6M93.73 163.388c.4.5.7.9 1.1 1.4-.4.7-.5 1.5-1.4 1.9-.3-.6-.6-1.2-1-1.7.3-.7.6-1.3 1.3-1.6M14.53 83.988c1.2.6 1.2.7 1 1.4-.1.4-.1 1.1-.8 1.1-.5 0-1.4-.4-1.5-.7-.4-1.2.8-1.2 1.3-1.8M32.23 101.688c.2.5.3.8.4 1.1s.1.6.1 1c-.7.6-1.5.4-2.3 0-.4-.2-.5-.5-.2-.9.4-.6 1.1-.9 2-1.2M5.43 68.888c.5.2 1 .3 1.4.5.5.3.6.9.5 1.3-.2.4-.7.8-1.2.7-.1 0-.3 0-.4-.1-.3-.5-.7-.9-.8-1.4-.1-.3.3-.7.5-1.1M89.43 125.288c.9-.1 1.7-.3 2.3.8-.2.3-.4.7-.7 1-.2.2-.7.4-1 .3s-.5-.5-.6-.8c-.1-.4 0-.8 0-1.3M90.13 118.888c.6.5 1.1.9 1.6 1.3-.1.5-.2.9-.8.8-.2 0-.4-.2-.4.1s-.2.6-.5.5c-.2-.1-.6-.3-.6-.4-.1-.8-.3-1.7.7-2.2M61.73 104.988c.7-.6 1.5-.3 2.2-.3.2.4.3.8.5 1.1-.1.2-.3.5-.4.7-.2-.4-.4-.1-.6-.1-.3 0-.6-.1-1-.2-.2-.4-.4-.8-.7-1.3M94.43 140.188c.2.8.4 1.4-.1 2-.2.2-.5.4-.8.4-.4 0-.5-.3-.5-.7 0-.7-.2-1.4 0-2.2.5.2.9.3 1.3.5M21.23 97.188c-.4.3-.7.5-1.1.7-.8-.2-1-.8-1.2-1.4.3-.6.7-.9 1.3-.8.7.2.9.7 1 1.4M59.33 101.888h1.2c.3.8.4 1.5-.3 2-.2.2-.6.2-.8.1-.3-.1-.5-.3-.5-.8s.2-.9.4-1.3M89.53 167.888l.9-.9c1.2.7 1.3 1.1.7 2-.4.6-.9.7-1.2 0-.2-.3-.2-.7-.4-1.2M95.93 160.888c1.1.4 1.1.4 1.6 1.7-.6 1-1.3 0-2 .2-.1-.7 0-1.3.4-1.9M84.63 175.388c-.4-.8-.3-1.4.2-2 .4-.4 1-.3 1.2.3.3.9 0 1.3-1.5 1.7M24.13 99.988c-.8.6-1.4.5-2 .2-.5-.2-.3-.7-.3-1.1.4-.2.8-.4 1.3-.7.3.5.6.9 1 1.5M37.23 104.088c-.2-.2-.6-.4-.6-.7q-.15-.6 0-1.2c.1-.4.7-.5 1.2-.2.4.3.6.9.3 1.3-.2.3-.5.5-.9.8M100.23 159.288c0-.1 0 0-.1.1q-.45.75-1.2.6c-.2 0-.5-.4-.5-.7-.1-.6-.2-1.3.9-1.5.2.3.5.8.9 1.4M53.43 102.588c.5-.2.9-.4 1.2-.4.2 0 .5.1.7.3.3.2.1.5-.1.7s-.3.5-.5.6c-.4.1-.8.1-1.1-.1-.2-.1-.1-.6-.2-1M96.03 157.288c-.7-1.1-.7-1.3 0-2.2 1.3.8 1.3 1.2 0 2.2M58.13 106.288c-.6 0-1.2-.1-1.8-.1v-1.1c.7-.5 1.2.1 1.9.2 0 .3-.1.7-.1 1M10.43 82.288c.4-.3.7-.6 1-.8.3-.1.7-.1.9.3.2.3.2.6-.1.9s-.6.7-1 .4c-.3-.2-.5-.5-.9-.8M69.13 105.788c0 .5-.3.8-.7.8s-.7-.3-.7-.9c0-.5.3-.8.8-.8s.7.3.7.9M17.43 94.788l-.9-2.1c1.3.5 1.4.8.9 2.1M50.83 105.288h1.3c-.1.3-.1.7-.2.7-.5.2-1 0-1.1-.7M90.73 131.388c.7.4.7.4.3 1.6-.3-.5-.5-.9-.3-1.6M.73 57.688c.3.4.5.5.7.8-.3.2-.6.4-1.1.8.2-.6.3-1 .5-1.6M141.53 74.888c.7-.4 1.6-.5 1.9-1.4-.5-1.9-1.7-3.3-3-4.7s-2.8-2.5-4.4-3.8c-.2.3-.5.5-.7.7.4.7.3 1.4.8 1.8.1.1-.1.6-.1.6-.5 0-.6.5-.9.8-.4.3-.9.2-1.2-.1-.2-.2-.2-.4-.4-.6l-1.5 1.2c.4.2.6.3.9.4.1.6.3 1.3.4 2-.7.2-1.2.3-1.8.4-.3-.3-.5-.7-.7-.9.2-.4.4-.7.5-.9-.6.7-1.7.9-1.9 1.7.4.3.8.5 1.1.8.4.4.7 1 1.2 1.2.7.4 1.3.7 1.3 1.6 0 .1.1.3.2.3.5.5 1.1.9 1.6 1.4.2.1.4.3.4.5 0 .9.8 1.4 1.1 2 1.4.1.9-1.4 1.7-1.7-1.2-.8-1.3-.9-.9-2.4h.8c1.2 0 1.3.1 1 1.3 0 .1.1.2.1.2.2-.1.5-.3.7-.4.8-.3 1.6-1.1 2-2zm6.4-1.7c-.3 1.3-.9 2.3-2 3-.6.4-1.3.5-1.5 1.3-1.2.6-1.8 2-3.1 2.5-.2.1-.4.3-.5.5-.1.7-.7 1.1-1.2 1.3s-.7.6-1 1c-.7.2-1.3.3-2 .5.2.6.2.6-1 1.1-.6-.2-.9-.5-1.2-1.1l-.9-1.8c-.8-1.3-1.7-2.6-2.7-3.7-.9-1.1-2-2-3.1-3l-1.2-.9c-.8-.5-.9-.9-.9-1.9.1-1.1.5-1.8 1.3-2.5.3-.3.8-.7.8-1.4 0-.3.4-.8.8-.9.9-.4 1.8-.6 2.6-.9.4-.7 0-1.1-.3-1.5 1.1-1.2 1.1-1.2 1.7-.6.3-.3.6-.5.9-.8.3-.2.5-.5.8-.7.2-.2.5-.3.7-.4.1-.1.3 0 .4-.1.4-.2.8-.5 1.3-.8.7.5 1.3 1.1 2 1.5 1.2.7 2.1 1.7 3 2.7.7.8 1.6 1.3 1.9 2.3.1.2.4.4.5.6.5.6 1.4.9 1.2 1.9.6.5.8 1.3 1.2 1.9.2.3.8.5 1.3.8zM36.03 54.588c-.8-.5-.8-.5-.1-1.2-.1.3-.1.5-.1.7s.2.4.2.5M109.43 67.288c-.5.6-1 1.2-1.5 1.7-.3-.3-.6-.5-.9-.8-.5-.4-.7-1.1-.4-1.6s.7-1 1.4-1c.6 0 1.1.2 1.4.9.1.2.1.4.1.7M103.63 60.488c.3.9-.4 1.2-.7 1.8-.1.1-.3.2-.5.2-.7.2-1.3-.1-1.5-.6-.4-.7-.4-1.4 0-1.8s1.4-.5 1.9-.2c.3.1.5.4.8.6M106.03 71.888c-.4-.1-.7-.3-1.1-.4-.3-.1-.7-.2-1-.4-.7-.5-.8-1-.4-1.6s1.1-.9 1.7-.7c.5.2 1 1 .8 1.7-.1.5-.4.9-.1 1.5M106.13 63.288c.1 1.3-.2 2-1 2.3-.5.2-1-.1-1.3-.5-.5-.7-.5-1.5-.1-1.9.8-.7 1.6-.4 2.4.1M100.33 58.288c0 1.1-.2 1.3-.9 1.3-1.1 0-1.6-.4-1.6-1.3s.6-1.5 1.5-1.5c.6 0 1 .6 1 1.5M89.83 56.488c-.9-1-.6-1.9.1-2.8.5 0 1.1-.2 1.5.5.3.6.4 1.4.1 2-.4.7-1.2.2-1.7.3M114.73 70.388c.5-1.8.5-1.9 1.8-1.9.2.3.4.5.6.8.3.5.3 1.2-.2 1.6-.3.4-.7.5-1.1.2-.3-.2-.7-.4-1.1-.6M96.23 53.688c.5 0 1.2.8 1.3 1.5 0 .5-.8 1.3-1.4 1.3s-1.2-.5-1.2-1.1c0-.9.6-1.7 1.2-1.7M86.53 55.288c-.3 1.3-.4 1.5-1.3 1.4-.8 0-1.3-.5-1.5-1.2-.1-.6.5-1.4.9-1.1.5.5.6-.1.9-.1.4.3.7.7 1 1M109.23 69.988c.3-.4.7-.8 1-1.3.7-.1 1.2.3 1.4 1 .4 1-.5 1.4-.9 2.1-1-.5-1-.5-1.6-1.8M111.83 73.988c-.1-.4.4-.6.2-1.1-.2-.6.5-.9 1.1-.8.1 0 .2.1.2.1 1.1.3 1.1.3 1 1.6-.8.6-1.7 1.2-2.6.1M108.13 71.488l1.2.9c-.4.7-.6 1.4-1.4 1.7-.6.2-1 .2-1.3-.3-.3-.4-.2-.9.2-1.4l.2-.2c.3-.2.7-.5 1.1-.8M110.33 74.588c1.4.2 1.4.2 1.9 1.5-.7 1.2-1.1 1.3-2 .8-.6-.4-.6-.9.1-2.2M86.93 52.988c.2-.6.7-.9 1.2-1.2.3-.2.7-.2.8.2.1.2.1.6.1.9 0 .1-.1.1-.2.2-1.1 1.4-1.1 1.1-2 0M131.53 157.488c-.2.5-.4.9-.6 1.3-.7.4-1.3 0-1.9-.2-.2 0-.3-.2-.4-.3-.3-.5.1-1.3.9-1.9.5-.4 1.1-.3 1.5.1.3.3.4.7.6 1M134.33 155.488c-1.5.7-2 .5-3-.8.3-.9 1.1-1 1.8-1.3.5-.1 1.1.3 1.2.9.1.4 0 .7 0 1.2M126.53 147.288c.3.1.7.1 1.1.3.6.2 1.1 1 1 1.5s-.9 1-1.5 1c-.7 0-1-.3-.9-1 0-.6-.5-1.3.3-1.8M129.03 146.788c-.1-.4-.1-.8-.2-1.2-.2-.4-.2-.8.2-1.1.4-.2 1.2-.1 1.4.1.5.5.7 1.9.4 2.5-.2.4-.6.5-.9.3-.3-.1-.5-.4-.9-.6M128.83 138.588c.3 0 .5-.1.8-.1 1 0 1.3.3 1.3 1.3 0 .8-.2 1.3-.7 1.5-.4.2-.8 0-1.4-.5zM131.23 137.188c0-.6.6-1.5 1.2-1.6.5-.1 1.1.2 1.2.6.2.7 0 1.4-.6 1.6-.3.1-.6.1-.9.1-.7.1-.9 0-.9-.7M131.23 152.088c0 .1-.1.5-.4.8-.3.5-.8.3-1.2.2q-.75-.15-.6-.9c.1-.4.1-.8.3-1.2.2-.5 1-.7 1.4-.5.5.2.5.7.5 1.5M135.73 153.788c-.6-.8-1-1.3-1.4-1.9.2-.4.3-.7.5-1 .1-.2.4-.5.5-.5.2 0 .4.3.6.5.3.4.5.8.8 1.4-.3.4-.6.9-1 1.6M126.93 137.988c-.5-.4-.9-.8-1.3-1.2.3-.7.9-1.1 1.6-1.4.6.3 1 .8 1 1.6 0 .5 0 .5-1.3 1M133.23 147.488c.7.6.5 1.4.5 2.1-.7.4-1.3-.1-1.8-.2-.5-.2-.4-.7-.4-1.1s.3-.7.7-.7h1M134.63 146.788c0-.5-.1-1.1 0-1.6 0-.7.4-.9 1.1-.6.2.1.5.3.7.4.2 1.6-.2 2-1.8 1.8M126.23 153.888c1-.5 1.4.2 2 .4.5.2.3 1.4-.2 1.5s-1 0-1.5 0c-.1 0-.2-.2-.2-.3v-1.6M126.33 142.888c.2-.3.3-.6.5-.8.3-.5.9-.6 1.3-.2.4.3.4.9.1 1.4-.2.2-.5.1-.4.6.1.3-.7.5-1 .2-.2-.3-.3-.7-.5-1.1M131.83 141.488c.8.7 2 .4 2.2 1.7-.5.2-.9.3-1.4.4s-.9-.1-.9-.7c0-.4 0-.8.1-1.4M131.03 134.088c-.3.4-.6.7-.9 1.1-.5-.2-1-.5-1.4-.7.8.2 1.4-1 2.3-.4"/><path d="M135.13 75.388c-1.4-.6-1.6-1-1.4-2.1.1-.6.4-.8 1-.6.5.2 1.1.2 1.2.9.1.8 0 1.4-.8 1.8M136.33 70.088c.4-.1.7-.3 1-.4.8-.2 1.6.4 1.5 1.2 0 .6-.5.9-1.2.9-.4 0-.9-.1-1.4-.1v-1.5M141.53 74.788h-.8c-.8-.1-1-.3-.9-1.2 0-.4 0-.7.1-1.1.6-.2 1.2-.3 1.5.2s.7 1.1.2 1.8c-.1.1 0 .3-.1.4M197.73 31.988h-.1v.1h.1zm8.1 0-.1.1s0 .1.1.1h.1l-.1-.1zm-6.2 0h-.1v.4h.1l-.1-.4zm6 1.5s-.1.1 0 0c0 .1 0 0 0 0m2.4-6.9q0-.15 0 0c-.1-.1 0 0 0 0m-.7 4.9c0 .1.1.1 0 0 .1.1 0 0 0 0m-3.2 10c-.3-.6-.7-1.3-.5-2.1v-.2c-.3-.8 0-1.7 0-2.5v-1.4c0-.5-.1-.9-.1-1.5-.1 0-.4-.1-.5-.1-.3.6-.5 1.1-.9 1.5-.4.6-1 1.1-1.5 1.6l-1.3 1.3c-.5.1-.5-.3-.7-.6-.1-.3-.2-.6 0-.8l1.5-1.8c.5-.5 1-1 1.2-1.8-1 0-2 .1-3-.1-.6.5-1.4.3-2.2.3-.5 0-1 0-1.7-.1.1.1 0 0-.1 0-.2-.2-.5-.3-.4-.7.1-.3.6-.9.9-.9.7 0 1.4-.3 2.1 0 .2.1.6-.1.9-.2.2-.1.4 0 .4.2 0 .1-.1.2-.1.2h.1v-.3c1.1-.1 2.3-.2 3.5-.3.2 0 .5.1.7.2-1-.9-1.9-1.7-2.9-2.6l.3-1.2h1s.1.2.2.3v-.1c.5-.1.7.2 1 .5.2.3.4.6.6.8.1.1.3.1.5.2.4-.6.3-1.1 0-1.6.2-.5.6-1.1-.1-1.6.3-.4.4-.9.2-1.4-.1-.3-.1-.6-.1-.9 0-.8.4-1.2 1.2-1.3.6.4.9 1 1 1.9-.2.3-.2.7-.1 1.2s0 1-.1 1.6c-.1.5 0 .9.3 1.4.5-.5 1-1 1.4-1.5.4-.4.6-.9 1.1-1.2.2-.1.3-.5.5-.7s.5-.4.8-.6c.9.6.9 1.2.3 1.8-.4.4-.6 1-1 1.3-.7.5-.8 1.4-1.6 1.9-.6.4-.9 1-1.2 1.9.3-.3.5-.5.7-.6.9.2 1.8-.4 2.8-.2.1-.1.4-.2.7-.3.1 0 .3.2.4.3.1-.1.5-.2.6-.2l.6 1.5h-1.8c-.2 0-.4.1-.6.2s-.3.2-.5.2c-.7-.1-1.4.3-2.1.3l-.1.1c-.1 0-.2.1-.3.1 0 .1.1.1.1.2.1-.1.1-.2.2-.3.2.1.3.3.5.4.4.5.8 1.1 1.3 1.8-.3-.1-.4-.1-.6-.2q0 .6.6.9c.2-.1.4-.2.7-.4l.4.4c-.5.4-.6.9-.2 1.6-.4-.2-.8 0-.8-.5-.5-.2-.8-.5-.7-1.1-.3 0-.6-.1-1-.1-.2-.6-.6-1-1.2-1.3.1.6.1 1.4.2 2.1 0 .3-.1.6-.1 1-.1 1 0 2 0 3 0 .2-.2.5-.4.6-.2.2-.5.2-.7.4h-.3zM214.13 30.488c-.3.3-.4.7-.2 1.2h-.5c0 .1.1.2.1.4-.2 0-.3-.1-.5-.1v-.8c.2-.1.4-.2.5-.4.1-.1.1-.3.2-.5.2 0 .3 0 .5.1v.2M186.53 16.188s-.1 0-.1.1c.1.1.1.2.2.3 0 0 .1 0 .1-.1-.1-.1-.1-.2-.2-.3m-5.8 6.4h.2c.2-.5.3-.9.5-1.4.1-.3.2-.6.5-.8.4-.2.6-.6.4-1.1h-1.3c-.1 1.1-.1 2.2-.2 3.3zm2.9-2.3c.1.8-.4 1.4-.7 2-.5.8-.8 1.6-1.1 2.4s-.4 1.7-.7 2.4q-.3.75-.3 1.5c0 .6-.2 1.1-.3 1.7-.1.7-.2 1.5-.4 2.2-.1.4-.3.7-.7.9-.6.3-1.1.1-1.1-.6v-.2c.4-.7.2-1.5.2-2.3 0-.6 0-1.3.2-1.9.1-.5-.1-1 0-1.5.1-1 .2-1.9.2-2.9 0-.5.1-.9.1-1.4 0-1.1 0-2.1.1-3.3-.4-.2-.9-.4-1.4.1-.3.3-.6.5-.9.7-.7.5-1.6.5-2.4.6-.4.1-.9-.3-1.3-.5-.4-.1-.8-.2-1.2-.4-.5-.3-.9-.6-1.3-1.1-.2-.2-.1-.6-.2-1.1.5.3.8.1.9-.4.7.6 1.4 1.2 1.9 1.7.5-.1 1-.1 1.6-.2-.5-.8-1.2 0-1.7-.5v-.4s.1 0 .1-.1c0 0 0-.1-.1-.1h.1v.2c-.2-.1-.4-.1-.6-.3.2-.3.3-.6.5-1 1.5.2 3 .1 4.4.4.8-.8 1.1-1.8 1.6-2.7s.5-2 .7-3c.1-.3.1-.7.2-1 0-.4-.1-.8-.1-1.2 0-.7-.1-1.5.1-2.2.2-1.1.2-2.1.1-3.2.1-.2.4-.5.4-.7-.1-.8.2-1.6.5-2.3.7-.3.7-.3 1.2-.1-.4.8-.4.8.6 1.3-.2.1-.4.1-.5.1.1 1.3.7 2.5.5 3.7-.1.8-.1 1.7-.2 2.5-.1.3-.3.7-.4 1 .2.4.2.9-.1 1.3-.1.1-.1.3-.1.5 0 .5 0 1.1-.4 1.6-.1.1-.1.4-.1.6-.1.6-.2 1.3-.2 1.9-.1.7 0 1.5 0 2.2.9-.1 1.9-.1 2.8-.2.2 0 .5-.1.7-.2l1.8-1.2c.6-.5 1.1-.3 1.7-.1.5.2.5.4.3 1l-.6 1.2c-.5.3-1 .6-1.4.8s-.8.1-1.3.2c0-.1-.1-.1-.1-.2l-.6.9c-.2.3-.5.6-.9.6v-.1zM212.23 30.588c-.1.4-.1.6-.2.9-.6-.6-.5-.7.2-.9M182.43 2.288"/><path d="M182.43 2.288h-.1v.1"/></g></svg>