<svg xmlns="http://www.w3.org/2000/svg" viewBox="0 0 223 201"><title>  Group 2</title><g fill="none"><g fill="#383747"><g transform="translate(-915 -40)translate(915.23 40.488)"><path d="m42.3 58c-0.2 0.8 0.1 1.4 0.5 2.1 0.5-1-0.6-1.3-0.5-2.1zm28.5 40.2c-0.9-0.1-1.9-0.4-2.8 0h2.8zm31.5 4.3c0.8-0.6 1.4-0.2 1.9 0.3 0.4-0.2 0.7-0.3 1.1-0.4 0 0 0-0.1 0-0.1-0.7-0.2-0.7-0.2-0.8-0.8-0.7-0.2-1.3-0.3-2-0.5 0 0.4-0.1 0.9-0.1 1.5zm38.9-63.2c0.7-0.1 1.3 0.3 1.6-0.4 0.2-0.4 0.1-1 0.1-1.4-0.5-0.2-0.8-0.3-1.1-0.4-0.2 0.7-0.4 1.3-0.6 2.2zm-17.2-10.6c-0.1 0.1-0.2 0.2-0.3 0.2-0.2-0.4-0.5-0.8-0.7-1.3-0.4 0.6-0.8 1.1-1.3 1.7 0.7 0.3 1.3 0.5 1.9 0.8 0.2-0.6 0.3-1 0.4-1.4zm-56.4 66c0.9 0 1.8-0.1 2.6 0.1 0.9 0.2 1.7 0.2 2.7 0-0.2-0.3-0.3-0.5-0.5-0.5-1 0-1.8-0.7-2.9-1-0.3 0.3-0.7 0.5-0.9 0.9-0.3 0.4-1-0.3-1.1 0.5zm-19-1c0.7 0.2 1.1 0.4 1.6 0.4 1.6 0 3.3 0 4.9 0 0.3 0 0.6 0 1.1-0.1-0.4-0.8-0.6-1.6-1-2.3-0.5-0.8 0-1.7-0.3-2.5-1.2 0.5-2.4 0-3.5 0.4 0 0.1-0.1 0.3-0.1 0.3-0.7 0.1-1.3 0.1-1.8 0.2-0.6 0-1.1 0.5-1.6 0.6-0.8 0.1-1.2 0.6-1.6 1-1 0.1-2-0.4-2.6 0.6-0.1 0.1-0.3 0.2-0.5 0.2-0.9 0.1-1.8 0.4-2.6 0.2-1-0.2-1.3 0.4-1.9 0.8 0.3 0 0.5 0 0.8 0 0.4 0 1-0.2 1.2 0 0.7 0.7 1.6 0.5 2.4 0.4 1.5 0 3 0 4.5 0.5 0.4-0.2 0.8-0.5 1.1-0.6zm93.5 62.5c-1.2 0.7-2.2 1.4-3.3 1.9-0.5 0.2-0.7 0.5-0.8 1-0.2 0.5-0.4 0.9-1.1 1.1-0.9 0.2-1.8 0.6-2.4 1.4-0.1 0.2-0.5 0.2-0.7 0.3-0.6 0.2-1.1 0.3-1.4 1-0.4 0.8-1.1 1.5-1.7 2.3 0.4 0.2 0.8 0.4 1.2 0.6 0.4 0.3 0.6 0.7 0.9 1 0.8 0.3 1.4-0.3 2.1-0.4 0.6-0.1 0.9-0.1 1.3-0.7 0.3-0.5 0.7-0.8 1.4-0.8 0.8 0 1.7-0.3 2.1-1.1 0.5-0.8 1.1-1.2 1.8-1.7 1.2-0.9 1.6-2.2 1.3-3.8-0.1-0.8-0.7-1.3-0.7-2zm-22.9-124.9c0.8-0.9 1.1-1.7 1-2.6-0.1-0.8-0.9-1.3-1.6-1-0.4 0.2-0.9 0.5-1.1 0.9-0.5 0.8-1.1 1.6-0.9 2.7 0 0.2-0.1 0.4-0.1 0.7-0.1 0.8-0.5 1.7 0.2 2.4 0.1 0.1 0 0.3 0 0.5-0.5 1.9 0.5 3.7 0.2 5.5 0 0 0 0.1 0.1 0.1 0.2 0.6 0.2 1.3 0.5 1.8 0.4 0.5 0 1.4 0.8 1.7-0.5 0.4 0.4 0.6 0.2 1-0.3 0.7 0.2 1.4 0.6 1.9 0.5 0.6 0.8 1.3 1 2 0.1 0.4 0.3 0.4 0.6 0.5 0.4 0.2 0.8 0.5 1.3 0.8 0.2-0.2 0.4-0.4 0.5-0.6-0.2-0.6-0.7-1-0.5-1.7 0.1-0.2-0.2-0.6-0.4-0.6-0.4-0.1-0.4-0.4-0.4-0.6 0-0.2 0-0.5-0.1-0.7-0.8-0.7-0.3-1.8-0.9-2.6 0.4-0.7-0.1-1.3-0.3-2-0.1-0.5-0.4-1-0.4-1.4-0.1-1.4 0-2.7-0.8-4 0 0 0.1-0.1 0.1-0.2 0.3-0.8 0.5-1.7 0.3-2.1-0.4-0.8 0.3-1.6-0.1-2.4 0 0 0-0.1 0-0.1zm-6.3 130.8c0.4-0.2 0.9-0.6 1.2-0.5 0.8 0.2 1.6 0.3 2.3-0.3 0.1-0.1 0.4 0 0.5 0 1.3 0.1 2.3-0.7 3.6-1-2.1-0.1-1.7-1.5-1.5-2.8-0.6 0.2-1.1 0.5-1.6 0.4-0.7-0.1-1.4-0.1-2.1 0-1 0.2-2-0.3-3-0.4-1.5 0-2.9-0.7-4.4-0.2-0.4 0.1-0.9-0.1-1.3-0.1-1.3-0.2-2.4-1-3.4-1.7-0.3 0.8 0.1 1.4 0.3 2.1 0.1 0.4 0.4 0.9 0.4 1.3 0 0.8 0.2 1.4 0.8 1.9 0.1-0.1 0.1-0.2 0.1-0.2 0.6 0 1.2 0 1.9 0.1 0.2 0 0.4 0.3 0.6 0.4 0.7 0.3 1.4 0.6 2.2 0.3 0.7-0.2 1.4-0.5 2 0.2 0 0 0.3-0.1 0.4-0.2 0.1 0 0.2-0.1 0.4-0.1 0.3 0.3 0.5 0.6 0.7 0.8zm13.7-63.4c-0.5-0.8-0.9-1.5-1.4-2.1-0.2-0.2-0.5-0.4-0.8-0.5-0.8-0.4-1.6-0.8-2.4-1.2-0.8-0.4-1.9-1.5-2.9-0.2 0 0.1-0.2 0-0.3 0-0.5 0-1.1 0-1.6 0.1-0.4 0-1 0.3-1.1 0.1-0.6-0.6-0.7 0.3-1 0.2-1.3 0-1.7 1.2-2.7 1.6-0.1 0.1-0.2 0.3-0.3 0.5-0.2 0.4-0.5 0.8-0.7 1.2 0.3 0.3 0.7 0.7 1.1 1 0.4-0.1 0.7-0.2 1.1-0.3 0.5 0.7 1.4 0.8 2.1 0.8 0.6 0 0.5 0.5 0.7 0.8 0.7-0.6 1-0.6 1.5-0.2 1 0.7 2 0.7 3.1 0.3 0.3-0.1 0.9-0.2 1-0.5 0.3-0.7 0.7 0 1-0.1 0 0 0.1 0 0.1-0.1 1-0.7 2.1-1 3.2-1.3 0.1 0 0.1-0.1 0.2-0.2zm16.7 5.5c0.1-0.9-0.2-1.5-0.9-2-0.3-0.2-0.5-0.4-0.7-0.7-1-1.9-1.8-3.8-2.2-6.1-0.5 0.6-1 1.1-1.5 1.6-0.1-0.1-0.1-0.2-0.2-0.3-0.2 0.4-0.3 0.8-0.5 1.2-0.4 0.1-0.7 0.2-1 0.3 0 0.2 0 0.4 0.1 0.5 0.7 0.6 0.9 1.7 1.8 2.2 0.2 0.1 0.3 0.5 0.4 0.7 0 0.5 0.3 0.8 0.7 1.1 0.2 0.1 0.4 0.3 0.4 0.5 0.1 0.9 0.8 1.5 1 2.2 0.4 1.4 1.7 2.4 1.6 3.9 0.6 0.6 0.5 1.4 0.7 2.2 0.1 0.5 0.1 0.8 0.5 1.2 0.5 0.4 0.5 1.1 0.4 1.7 0 0.1-0.2 0.2-0.4 0.2-0.1 0-0.2 0.1-0.3 0.2 0.4 0.2 0.6 0.3 0.7 0.3 0.2 0.7 0.3 1.3 0.4 2 0.2 0.8-0.1 1.6 0.2 2.4 0.3 0.8 0.5 1.6 0.2 2.5-0.2 0.5-0.3 1.3 0 1.7 0.4 0.8 0.2 1.4 0.1 2.2 1.4 0.1 2.5-0.1 3.7-0.6 0.3-0.1 0.6-0.1 0.9 0 0.6 0.2 1.2 0.1 1.7-0.2 0.6-0.3 1.1-0.6 1.8-0.6 0.2 0 0.4-0.1 0.6-0.2 1.2-0.6 1.7-2 2.9-2.4 0.1 0 0.1-0.1 0.1-0.2 0.1-0.8 0.8-1.2 1.3-1.6 1-0.8 2.1-1.5 2.6-2.8-1.2-0.7-2.4-1-3.4-1.9-0.4-0.4-0.9-0.7-1.5-0.9-0.5-0.1-0.9-0.3-1.4-0.5-0.5-0.2-1.2-0.3-1.4-0.7-0.4-0.7-1.1-0.7-1.6-1-0.3-0.5-0.4-1.1-0.7-1.2-1.2-0.4-1.8-1.7-3-2.1-0.5-0.2-0.9-0.6-1.2-1-0.7-0.9-1.6-1.7-2.1-2.8-0.1-0.3-0.6-0.4-1-0.7zm-17.8 29.2c-0.1 0.9-0.3 1.6-1 1.8 0 0.6 0 1.1 0 1.6 0.1 0.7-0.1 1.5 0.3 2 0.5 0.7 0.3 1.1 0.1 1.7-0.2 0.7-0.4 1.5-0.5 2.2-0.1 0.4-0.2 0.8 0.4 1.1 0.2 0.1 0.3 0.4 0.5 0.7 0.5 1 0.3 1.5-0.8 2-0.1 0.3-0.1 0.6-0.2 0.9-0.5 1.1-0.3 2.1 0.6 3 0.1 0.1 0.2 0.2 0.2 0.3 0.3 0.6 0.2 1.4-0.4 1.7-0.8 0.4-0.9 1-0.8 1.7 0 0.6 0.1 1.2 0.1 1.7 0.4 0.1 0.7 0.2 0.9 0.4 0.4 0.3 0.7 0.7 0.9 1.2 0.1 0.2-0.2 0.6-0.3 0.8-0.2 0.3-0.5 0.5-0.7 0.8-0.4 0.4-0.5 0.8-0.2 1.2 0.3 0.5 0.7 0.1 1.1 0.2 0.1-0.2 0.1-0.4 0.2-0.5 0.8-1.3 1.2-1.3 2.1-0.2 0.6 0.7 0.6 1-0.1 1.7-0.1 0.1-0.2 0.2-0.2 0.3 0.1 0.4 0.2 0.7 0.3 1 0.2 0 0.4 0 0.5 0 1.1-0.8 2.1-1.6 3-2.7 0.3-0.4 0.8-0.9 1.1-0.8 0.9 0 1.2-1 2-1.1 0 0 0.1-0.2 0.1-0.3 0.1-1.1 0.4-1.5 1.3-1.4 0.5 0.1 0.8 0 1.1-0.3 0.3-0.2 0.6-0.3 0.9-0.5-0.6-0.8-0.7-1.8-0.3-2.2 0.3-0.3 1.4-0.3 1.7 0 0 0.2 0.1 0.4 0.1 0.6 0.3-0.2 0.6-0.4 0.8-0.6-0.9-1.3-1.1-2.7-1.3-4.1-0.2 0-0.4 0.1-0.5 0.1-1.2 0.1-1.7-0.7-1.1-1.8 0.1-0.1 0.1-0.3 0.2-0.4 0.8-0.8 0.6-1.6 0.1-2.4-0.3-0.4-0.5-0.8-0.5-1.4 0-0.7-0.9-1.2-0.7-2.1 0-0.1-0.2-0.2-0.3-0.3-0.2-0.1-0.4-0.3-0.6-0.3-0.7-0.2-0.8-0.9-1.1-1.3-0.3-0.4 0.1-0.8 0.3-1.1 0.2-0.4 0.1-0.8-0.1-1.3-0.5-0.9-0.9-1.8-1.1-2.8-0.1-0.7-0.3-1.4-0.7-2-0.9 0.3-1.8-0.1-2.8 0.1-0.6 0.1-1.2 0.1-1.6 0.6-0.1 0.1-0.3 0.2-0.5 0.2-0.8 0.1-1.6 0.2-2.5 0.3zm-27-81.1c-1.5-0.1-2.9 0.1-4.1-0.6 0 0.4 0.1 0.8 0 1-0.2 0.2-0.7 0.3-1 0.2-0.4 0-0.7-0.2-1.1-0.4 0.1-0.4 0.2-0.7 0.2-1.1-0.4-0.1-0.7-0.1-1-0.3-1.2-0.6-2.4-0.2-3.6-0.4-0.3 0-0.7 0.2-1 0.4-0.4 0.3-0.7 0.6-1.3 0.6-0.5 0-0.9 0.4-1.5 0.6-0.4 1-0.9 2-2.2 2.4-0.2 0-0.4 0.3-0.5 0.5-0.4 0.6-0.7 1.2-1.1 1.7 0.2 0.3 0.3 0.5 0.5 0.8 0.4-0.3 0.7-0.6 1-0.9 0.8 0.1 1.4 0.3 1.4 1.2-0.4 0.3-0.8 0.6-1.5 1.1 1.8 0 3.2 0.8 4.7 0.1 0.9 0.8 0.9 0.8 1.4 0.1-0.9-0.2-1.4-0.7-1.8-1.3 0.1-0.3 0.2-0.6 0.2-0.8 0-0.5 0.3-0.7 0.7-0.9 0.4-0.2 0.8-0.1 1.1 0.2 0.6 0.4 0.6 1.1 0.8 1.7 0.7-0.3 1.2-0.6 1.8-0.8 0.6-0.2 1.2-0.4 1.8-0.7 1.1-0.6 1.6-0.3 1.9 0.8 0 0.2 0.1 0.3 0.1 0.5-1 0.6-2 1.2-3.1 1.9 0.1 0.4 0.2 0.9 0.2 1.4 0.2 0.8 0.3 0.9 1.1 0.9 0.6 0 1.3 0.1 2 0.1 0.5-0.3 0.8-0.8 0.4-1.6-0.2-0.4-0.2-0.9 0.1-1.3h1.6c0.2 0.4 0.4 0.7 0.4 1.1 0 0.3-0.1 0.7-0.2 1.1 0.6-0.1 1.1-0.1 1.5-0.2 0.3 0.3 0.5 0.5 0.8 0.8 1.3 1.3 1.2 2-0.2 3-0.1 0-0.1 0.1-0.1 0.2 0.1 0.3 0.2 0.5 0.4 0.7 0.2 0.3 0.3 0.5 0.5 0.7 0.1-0.6 0.3-1.1 0.8-1.3 0.5-0.2 1.2-0.3 1.7-0.3 0.5 0 0.9 0.4 0.9 0.9 0 0.5-0.1 1.1-0.3 1.6-0.1 0.3-0.5 0.4-0.8 0.7-0.5 0.4-0.9-0.2-1.4-0.2 0.1 0.4 0.2 0.8 0.4 0.8 0.5 0.1 0.6 0.5 0.7 0.8 0.4 1.2 1 2.2 2 3 0.1 0.1 0.3 0.3 0.3 0.5 0.1 0.8 0.6 1.2 1.2 1.6 0.3 0.2 0.6 0.5 0.5 0.9-0.2 0.7 0.2 1 0.7 1.1 0.6 0.2 1.1 0.5 1.7 0.1 0.2-0.1 0.5 0 0.8 0 0.5 0.1 1 0.3 1.5 0.2 0.9-0.1 1.9 0.5 2.6-0.3 1.2 0.7 1.2 0.7 2.2 0.1v-2.5c0.9 0.1 1.6-0.4 1.8-1 0.5-1.3 1.2-2.3 2.1-3.4-0.3-0.2-0.5-0.5-0.8-0.7-0.4-0.3-0.9-0.5-1.2-1-0.5-1-1.5-1.4-2.4-2-0.3 1-1 1.2-1.9 1.1-0.4 0-0.8 0-0.9-0.4-0.1-0.6-0.2-1.2 0.2-1.7 0.4-0.1 0.7-0.1 1.2-0.2-0.5-0.4-0.9-0.8-1.4-1.2-0.5 0.3-1 0.6-1.6 0.9-0.1 0.1-0.4 0.1-0.5 0-0.6-0.3-1.2-0.5-1.3-1.4 0.4-0.5 0.8-1 1.3-1.5-0.1 0.1-0.1 0.2-0.2 0.3-0.3-0.4-0.6-0.7-0.9-1.1-0.3 0.7-1.2 0.8-2 0.8-0.5-1-1.2-2 0.2-2.8-0.6-1.1-0.6-1.1-1.3-1.3-0.4 0.8-0.7 1.1-1.1 0.9-0.3-0.2-0.7-0.5-0.9-0.9-0.1-0.2 0-0.6 0.2-0.9 0.2-0.3 0.1-0.6-0.1-0.7-0.4-0.2-0.8-0.7-1.4-0.2-0.1 0.1-0.4 0.1-0.6 0.1-0.4-0.2-0.7-0.4-1.2-0.7 0.6-1-0.4-1.3-0.8-1.9-1 0.2-1-0.8-1.4-1.3zm-56.2 11.1c-1-0.5-2-0.1-2.8-0.1-0.5 0.5-1 0.9-1.4 1.3-0.1 0.1-0.3 0.2-0.3 0.4-0.1 0.9-0.7 1.8-0.2 2.8 0.1 0.1 0.2 0.4 0.1 0.5-0.4 0.5-0.1 0.9 0.1 1.3 0.1 0.2 0.2 0.4 0.2 0.5-0.4 0.7 0.1 1.3 0.2 2 0.1 0.7-0.1 1.5 0.6 2.1 0.1 0.1 0.1 0.4 0.1 0.5-0.1 1.4-0.2 2.7-0.3 4.1 0 0.2-0.2 0.5-0.4 0.7-1.4 1-2.8 1.9-4.6 2-1.2 0.1-2-0.6-2.9-1-0.3-0.1-0.6-0.2-0.7-0.4-0.1-0.8-0.8-0.7-1.3-0.9-0.2-0.1-0.4 0-0.5-0.1-0.9-0.9-2.2-1.6-2.4-3-0.1-0.4-0.4-0.7-0.6-1-0.5-0.8-1.5-1.3-1.1-2.5 0.1-0.2-0.1-0.5-0.3-0.7-0.1-0.3-0.4-0.5-0.5-0.8-0.6-1.2-0.9-2.6-2.3-3.2-0.1 0-0.1-0.2-0.2-0.3-1-1.2-1.9-1.1-2.9-0.2 0.3 0.7 0 1.7 0.9 2.1 0.2 0.7 0.5 1.3 1.2 1.8 0.1 0.1 0.2 0.4 0.2 0.6-0.1 0.3 0 0.5 0.1 0.8 0.4 0.6 1.2 1.2 0.6 2.1 0 0.1 0.1 0.2 0.2 0.4 0.1 0.3 0.2 0.6 0.4 0.9 0.3 0.8 0.5 1.7 1 2.3 0.5 0.6 0.5 1 0.2 1.6 0.7 0.2 1 0.8 1.3 1.3 0.6 1.2 1.1 2.4 1.7 3.5 0.2 0.3 0.4 0.6 0.6 0.9 0.3 0.6 0.7 1.1 0.5 1.8-0.1 0.3 0.1 0.7 0.1 1.1 0.4-0.1 0.5-0.6 0.9-0.2 0.1 0.1 0.3 0.1 0.4 0 0.6-0.5 1.4-0.7 2.1-0.9 0.7-0.2 1.4-0.5 2.1-0.4 0.2 0 0.3-0.1 0.5-0.1 0.4-0.1 0.9-0.2 1.2-0.1 0.8 0.3 1.4 0.3 2-0.2 0.2-0.1 0.8 0 0.8-0.1 0.3-0.8 1-0.6 1.6-0.6 0.4 0 0.7 0.1 1.1 0.1 0.4 0 1 0 1.2-0.2 0.3-0.5 0.6-0.1 0.9-0.2 0.7-0.3 1.5-0.2 1.9-0.9 1.2-0.1 2.2-1.1 3.5-0.8 0.1 0 0.3-0.1 0.4-0.1 0.7-0.3 1.3-0.6 1.9-0.9 0.4 0.2 0.7 0.3 1 0.4 0.3 0.1 0.5-0.3 0.4-0.5-0.1-0.3-0.5-0.6-0.5-1 0-0.6-0.3-0.9-0.6-1.4-0.4-0.6-0.8-1.2-1.2-1.8-0.2-0.3-0.1-0.5 0.2-0.7 0.1-0.1 0.3-0.1 0.5-0.1-0.2-0.2-0.2-0.3-0.3-0.3-0.6-0.4-1.2-0.7-1.1-1.6 0.1-0.4-0.3-1-1-0.9-0.1 0-0.3-0.1-0.4-0.2 0-0.4 0.1-0.8 0-1-0.8-1.2-0.6-2.9-1.7-4-0.1-1.4-1.2-2.6-1.4-4-0.1-0.6-0.3-1.2-1-1.5-0.1 0 0-0.4 0-0.6zm151.6 42.4c0.6-0.4 1.1-0.3 1.7-0.2 1 0.1 2.2 0.5 3-0.7 0.7 0 0.7-0.8 1.2-1 0.9-0.3 1.1-1.1 1.5-1.8 0.4-0.7 0.3-1.5 0.9-2.1 0.1-0.1 0-0.4 0-0.7 0-0.9-0.1-1.7 0-2.6 0.1-0.7 0.1-1.4-0.1-2.2-0.2-0.9-1.1-1.8-0.4-2.9 0.1-0.1-0.1-0.3-0.2-0.5-0.2-0.4-0.5-0.8-0.1-1.3 0.1-0.1-0.1-0.3-0.1-0.5-0.1-0.4-0.3-0.9-0.4-1.3-0.1-0.6-0.6-1.1-0.3-1.8-0.8-0.7-0.7-1.8-1.2-2.6-0.4-0.7-0.8-1.4-0.9-2.1 0-0.4-0.2-0.5-0.3-0.7-0.1-0.3-0.1-0.6-0.3-0.9-0.5-0.8-1.1-1.5-1.7-2.3-0.6-0.8-1.3-1.4-1.7-2.2-0.2-0.4-0.5-0.3-0.8-0.1-0.2 0.2-0.4 0.4-0.6 0.6-0.4 0.4-0.8 0.6-1.2 1-0.9 1-1.6 2.2-2.2 3.4-1 2.2-1.8 4.4-2.2 6.2-0.1 0.4-0.1 0.9-0.3 1.1-0.3 0.3-0.2 0.6-0.3 0.9-0.1 0.4 0 0.8-0.1 1.2 0 0.1-0.1 0.2-0.1 0.3 0 0.4-0.1 0.9-0.1 1.3 0.1 1.5 0.3 3.1 0.2 4.6 0 0.6 0.2 1.1 0.4 1.5 0.2 0.5 0.6 1 0.9 1.5 0.4 0.5 0.5 1.2 0.8 1.7 0.4 0.7 1 1.3 1.6 1.9 0.5 0.5 1.1 0.9 1.7 1.3 0.6 0.3 0.9 1.1 1.4 1.7zm-62.9 88.9c0.6-0.2 1.1-0.5 1.6-1.1 0.7-0.9 1.6-1.7 2.8-2 0.3-0.1 0.5-0.2 0.7-0.4 0.9-0.9 1.8-1.8 2.8-2.6 0.6-0.4 1.2-0.9 1.9-1.3 0.7-0.3 1.2-1.1 1.7-1.7 0.1-0.1 0.2-0.2 0.4-0.2 0.5 0 0.8-0.4 1-0.8 0.2-0.3 0.4-0.5 0.6-0.7 0.9-1 2.4-1.2 3.1-2.5 0-0.1 0.2-0.1 0.2-0.1 0.5 0 0.8-0.4 1.1-0.7 0.8-0.7 1.6-1.4 2.4-2.1 0.4-0.3 0.7-0.6 1-1 0.5-0.8 1.1-1.4 1.9-1.8-0.2-0.2-0.4-0.3-0.5-0.5-0.6-0.9-1.2-1.8-1.8-2.8-0.5-0.8-1.1-1.5-1.8-2.2-0.9-0.8-1.5-1.9-2.3-2.8-0.1-0.2-0.2-0.5-0.4-0.5-0.7-0.2-1-0.8-1.2-1.3-0.3-0.6-0.6-1.3-1.3-1.6-0.1-0.1-0.2-0.2-0.2-0.3-1.1 0.3-1.4 1.5-2.5 1.7-0.4 0.9-1.2 1.3-2 1.7-0.9 0.5-1.8 1.1-2.8 1.4-0.7 0.3-1.6 0.5-1.6 1.6 0 0.2-0.2 0.4-0.4 0.5-0.9 0.8-1.3 1.9-1.5 3.1-0.1 0.4-0.2 0.9-0.3 1.3-0.2 0.5-0.4 1-0.5 1.6 0 0.6-0.3 1.1-0.4 1.6-0.3 1-1 1.9-0.5 3 0.1 0.1 0 0.4-0.1 0.5-0.6 0.4-0.4 1.1-0.6 1.6-0.2 0.7-0.4 1.4-0.8 2-0.4 0.7-0.2 1.4-0.5 2-0.3 0.7-0.5 1.3-0.3 2-0.5 0.9 0.1 1.7 0.3 2.6 0.2 0.8 0.5 1.6 0.8 2.6zm-7.4-20.5c-0.3-1-0.1-2.1-0.8-2.9-0.1-0.2-0.2-0.5-0.1-0.6 0.4-0.7 0-1.1-0.3-1.6-0.2-0.3-0.5-0.8-0.4-1.1 0.2-1-0.2-1.9-0.6-2.7-0.3-0.7-0.9-1.2-1.9-1.1-1 0.1-1.7 0.3-2.1 1.1-1-0.1-1.9 0-2.8-0.2-0.8-0.2-1.5 0.3-2.3 0-0.9-0.2-1.7-0.3-2.6-0.4-0.6 0-1.3 0.3-1.8 0-0.6-0.3-1.3-0.5-1.9-0.6-0.1 0-0.3-0.2-0.4-0.1-0.7 0.5-1.1 0-1.5-0.3-0.9-0.6-0.9-0.6-2 0.2-0.1 0.1-0.4 0.3-0.5 0.3-0.4-0.1-0.5 0.1-0.6 0.3-0.4 0.9-1.1 1.6-1.7 2.4-0.6 0.7-0.7 1.8-1.8 1.9-0.1 0-0.1 0.3-0.2 0.5-0.6 0.6-1.1 1.2-1.7 1.6-0.4 0.2-0.6 0.4-0.9 0.8-0.3 0.5-0.7 1-1.1 1.4-0.7 0.7-1.3 1.4-2.1 2-0.8 0.6-1 1.7-1.8 2.2-0.1 0.1-0.1 0.2-0.2 0.4-0.2 0.5-0.3 1.1-0.7 1.5-0.9 0.9-1.1 2-1.5 3.2 0.7-0.1 1.4 0 1.8-0.2 0.5-0.4 1-0.4 1.6-0.4 1.2 0 2.4-0.1 3.5-0.5 0.8-0.3 1.7-0.5 2.6-0.4 1 0.1 1.8-0.6 2.8-0.3 0.6-0.7 1.5-0.4 2.2-0.5 1-0.2 2.1 0 2.9-0.8 0.2-0.2 0.7-0.5 1-0.4 0.7 0.3 1.3-0.1 2-0.2 0.6 0 1.4 0 1.9-0.3 0.7-0.5 1.4-0.5 2.1-0.5 0.2 0 0.4 0 0.5-0.1 0.9-0.6 2-0.7 3-0.8 0.2 0 0.5-0.1 0.6-0.2 0.3-0.4 0.6-0.3 1-0.3 0.5-0.1 1.2 0 1.6-0.3 0.7-0.4 1.7-0.1 2.2-1 0-0.1 0.3-0.1 0.4-0.1 0.9 0.1 1.6-0.3 2.5-0.7zm-84.8-123.2c-1.2 0.2-2.2 0.3-3.2 0.4-0.9 0.1-1.9-0.3-2.7 0.4-0.1 0.1-0.3 0-0.4 0-0.5-0.3-0.9-0.3-1.3 0.3 0 0-0.5 0-0.6-0.2-0.3-0.5-0.8-0.4-1-0.2-0.7 0.8-1.6 0.7-2.5 0.7-0.8 0-1.5 0.1-2.3 0.1-0.2 0-0.4 0-0.6-0.1-0.4-0.2-0.7-0.3-1.1-0.1-0.3 0.2-0.7 0.2-1 0.2-1-0.1-1.9-0.3-2.9 0.3-0.1 0-0.3 0-0.4-0.1-0.8-0.4-1.7-0.1-2.5 0-1 0.2-1.9 0.6-2.9 0.2-0.6-0.2-1.4-0.1-2.2 0.2-0.5 0.2-1.1 0.2-1.6 0.3-0.3 0.1-0.6 0.1-0.9 0.1 0.1 0.5 0.1 0.9 0.2 1.3 0.1 0.4 0.2 0.9 0.4 1.3 0.2 0.4 0.3 0.7 0.5 1.1 0.6 1.5 1.1 3.1 1.9 4.6 0.5 0.9 0.4 2.1 1.4 2.7 0.1 0 0 0.3 0 0.4 0 0.6 0.3 1 0.6 1.5 0.7 1.2 1.7 2.3 1.1 3.9 0.7 0.3 1 0.7 1.2 1.3 0.2 0.4 0.6 0.8 0.3 1.3 0.7 0.8 0.7 1.8 1 2.8 0.1 0.3 0.2 0.5 0.3 0.8 0.4 0.8 0.7 1.7 1.2 2.5 0.6 1.1 0.6 2.6 1.8 3.4 0.2 0.2 0.3 0.6 0.4 0.9 0.3 0.9 0.5 1.9 1.1 2.6 0.9 1.2 1.1 2.6 1.9 3.7 0.6 0.9 1.2 1.8 1.8 2.8 0.4-0.4 0.7-0.5 1.5-0.7 1-0.2 2.1-0.6 3.1-0.3 0.8 0.2 1.5 0 1.9-0.6 0.3-0.5 0.8-0.5 1-0.4 0.7 0.3 1.2-0.1 1.7-0.2 0.6-0.1 1.2-0.4 1.8-0.8 0.2 0.2 0.3 0.4 0.4 0.5 0.4-0.2 0.8-0.4 1.3-0.6 0.2 0.3 0.3 0.5 0.5 0.7 0.1-0.3 0.1-0.6 0.2-1 0.3 0.1 0.5 0.2 0.7 0.1 0.7-0.4 1.4-0.6 2.1-0.2 0.1 0.1 0.4-0.1 0.6-0.2 0.3-0.3 0.7-0.3 1-0.2 1 0.2 1.1 0.2 2-0.5 0.2-0.2 0.7-0.3 0.8-0.2 0.7 0.8 0.9 0.2 1.3-0.3 0.3-0.4 0.6-0.8 1.3-0.6 0.2 0.1 0.6 0 0.7-0.2 0.7-0.8 1.5-0.5 2.1 0 0.6 0.4 1.1 0.4 1.7 0.3 0-0.3-0.1-0.6-0.1-1 0.4 0.3 0.8 0.5 1.1 0.7 1.1-0.2 0.5-1.6 1.4-2 0.1 0.2 0.2 0.4 0.3 0.7 0.1-0.2 0.4-0.4 0.3-0.5-0.2-0.6-0.4-1.3-0.8-1.8-0.5-0.7-0.9-1.6-1.7-2.1-0.1-0.1-0.2-0.4-0.1-0.6 0.1-0.6-0.2-1.1-0.6-1.5-0.7-0.9-0.8-2.1-1.7-2.9-0.1-0.1-0.2-0.3-0.3-0.5-0.7-2.2-1.9-4.2-3-6.2-0.1-0.3-0.3-0.6-0.4-0.8-0.3-0.7-0.5-1.5-1.3-1.8-0.1-1.5-0.6-2.6-0.9-2.5-0.3 0.3-0.5 0.5-0.8 0.8 0.2 0.5 0.3 1.3 0.7 1.6 0.8 0.5 0.5 1 0.3 1.6 1.1 1 1.1 1.1 0.3 1.9 0.1 0.5 0.2 1 0.2 1.4 0.5 0 0.9-0.1 1.4-0.1 0.4 1.2 0.8 2.3 1.1 3.4 0.3 0.2 0.8 0.4 0.8 0.5-0.3 0.6 0.3 0.8 0.5 1.1 0.4 0.5 0.9 0.9 0.6 1.7-0.1 0.2 0.2 0.5 0.4 0.7 0.2 0.2 0.5 0.4 0.6 0.6 0.1 0.4 0.3 0.6 0.7 0.8-0.1 0.3-0.3 0.6-0.4 0.9 0.3 0.1 0.4 0.2 0.6 0.2-0.2 0.8 0.5 1.7-0.3 2.3-0.3 0-0.5 0-1.1-0.1 0.5 0.5 1.3 0.5 1.2 1.1-0.8 0.4-1.5 0.6-2.1 1-0.2 0.2-0.4 0.4-0.7 0.3-0.5-0.2-0.9-0.4-1.1 0.2-0.5-0.3-1 0-1.3 0.2-1.1 0.6-2.2 0.7-3.3 1.1-1.1 0.4-2.3 0.6-3.5 0.7-0.9 0.1-1.7 0.7-2.7 0.2-0.3-0.1-1.1 0.1-1.2 0.4-0.1 0.4-0.3 0.4-0.6 0.4-0.4 0-0.8 0-1.2 0-0.9 0-2.4 0.4-2.9 0.7-0.1 0.1-0.3 0.1-0.5 0.1-0.3 0-0.5-0.1-0.8 0-0.7 0.2-1.4 0.5-2.1 0.8-0.2-0.4-0.4-0.8-0.6-1.3-0.4 0.9-1.3 0.9-1.9 1.3-0.1 0.1-0.4-0.2-0.6-0.3 0.3-0.1 0.6-0.2 0.9-0.3-0.1-0.1-0.8-0.7-0.8-0.7 0 0-0.1-0.1-0.1-0.1-1-0.4-1-1.3-1.2-2.1-0.1-0.4-0.2-0.9-0.5-1.2-1.1-1.3-2.2-2.7-2.5-4.4-0.1-1-1-1.7-1.1-2.7 0-0.2-0.2-0.3-0.3-0.4-0.1-0.2-0.3-0.5-0.2-0.7 0.1-0.4 0.1-0.5-0.2-0.8-0.7-0.8-1-1.7-0.5-2.5-0.4-0.7-0.7-1.3-1-1.9-0.3-0.7-0.6-1.5-1.1-2-0.4-0.4-0.5-0.8-0.5-1.3 0-0.3 0-0.7-0.1-0.8-1.2-1.2-0.4-3.3-2-4.3 0 0 0-0.1 0-0.1 0-1.1-0.8-2.2-0.2-3.3-0.5-0.8-1.3-0.2-1.8-0.7-0.2-0.7-0.3-1.4 0-2.1 0.3-0.6 0.8-1.1 1.1-1.7 0.2-0.4 0.5-0.5 0.8-0.6 0.5-0.1 1-0.3 1.6-0.2 0.5 0.1 0.9-0.3 1.5-0.3 1.2 0.1 2.4-0.1 3.5-0.2 0.2 0 0.4 0.1 0.6 0.2 0.2 0.1 0.4 0.4 0.6 0.6 0-0.7 0.5-0.9 0.9-0.8 0.8 0.2 1.5 0.3 2.2-0.2 0 0 0.2 0.2 0.4 0.4 0.8-1 2.1-0.2 3-0.8 0.5 0.6 1.1-0.1 1.6 0.2 0.5 0.3 1.2 0.5 1.8 0.6 0.7 0.2 1.4-0.3 1.4-1 0-0.5 0.3-0.3 0.5-0.5 0.1 0.2 0.4 0.3 0.4 0.5 0 0.2-0.1 0.5-0.2 0.7 0.5 0.2 1.1-0.1 1.3 0.6-0.2 0.1-0.5 0.3-0.7 0.2-0.6-0.2-1-0.4-1.4 0.3-0.1 0.1-0.6 0.3-0.4-0.3 0 0-0.3-0.1-0.3-0.1-1.1 1.3-2.8 1-4.2 1.3-0.4 0.1-1 0-1.4 0.1-0.4 0.1-0.8 0.2-1.2 0.2-0.3 0-0.7-0.1-0.8 0-0.5 0.7-1.3 0.5-2 0.7-1 0.3-2.1 0.5-3.1 0.3-0.6-0.1-1.1 0.5-1.7 0.1-0.7 0.6-1.6 0.5-2.5 0.6 0.5 1.8 1 3.6 1.4 5.4 0.7 0.4 1.4 0.1 2.1 0 0.5 0 1.2-0.3 1.6 0 1 0.6 2 1.1 2.9 2.1 1 1.1 1.6 2.5 2.8 3.6-0.1 0.4-0.2 0.7-0.3 1.1 0.5 0.6 1.3 1.1 1.1 2.1 0 0.1 0.2 0.2 0.3 0.3 0.2 0.3 0.4 0.6 0.5 0.9 0.1 0.3 0.1 0.7 0.4 0.9 0.3 0.2 0.8 0.3 1.1 0.5 0.4 0.2-0.1 0.9 0.6 1.1 0.5 0.2 1 0.6 1.3 1.1 0.6 0.8 1.5 0.9 2.3 1 0.7 0.1 1.6 0.2 2.2-0.5 0.1-0.4 0.2-0.8 0.3-1.2 0.1-0.2 0.2-0.5 0.2-0.6-0.1-0.7-0.3-1.3-0.5-2-0.2-0.5-0.4-0.9-0.1-1.4 0.4-0.6-0.7-0.8-0.4-1.5 0-0.1 0-0.2 0-0.3 0.2-0.3 0.1-0.5 0-0.7-0.2-0.3-0.2-0.6-0.3-0.9-0.1-0.6-0.3-1.2-0.4-1.9 0.4-0.8 0.7-1.7 0.7-2.7 0-1 0.3-1.9 1.3-2.5 1.1-0.6 1.9-1.7 3.4-1.7 0.2 0 0.4-0.2 0.6-0.3-0.6-0.6-0.4-1.4-0.6-2.1-0.2-0.6-0.7-1.2-1.1-1.8-0.4-0.6-0.7-1.3-1.1-2 1-0.4 1.3-1.2 1.3-2.2 0.2 0.2 0.3 0.2 0.6 0.5-0.2-0.7-0.3-1.2-0.4-1.8zm78.9 54.9c-0.5-0.1-1 0-1.4-0.2-0.8-0.5-1.6-0.4-2.4-0.4-0.4 0-0.7-0.1-1.1-0.2-0.9-0.3-1.9-0.7-2.8-1-0.2-0.1-0.4-0.2-0.6-0.2-0.8-0.1-2.7 0.5-3.7 1 0 0.2 0 0.4 0.1 0.5 0.9 1 1.1 2.2 1.5 3.4 0.3 0.9 0.9 2.1-0.6 2.9-0.1 0-0.7 0-0.9-0.2-0.4-0.6-1.5-0.9-0.9-2 0.1-0.1-0.1-0.3-0.2-0.5-0.2-1.2-1.5-1.7-1.7-2.8-0.8 0.4-1.5 1.1-2.5 0.9-0.1 0.2-0.2 0.5-0.4 0.6-1.3 0.9-2.1 2.1-3.2 3.2-0.1 0.1-0.3 0.3-0.3 0.5 0 0.9-0.6 1.6-0.9 2.4-0.2 0.5-0.3 0.8-0.1 1.3 0.2 0.6 0.5 1.3 0.3 1.9-0.3 0.9-0.3 1.7-0.1 2.6 0.1 0.3-0.1 0.6-0.2 0.9 0.7 1 0.7 1 2.1 1.3 0.1 0 0.3 0.1 0.4 0.1 0.5 0.2 0.9 0.2 1.3-0.2 0.1-0.1 0.3-0.2 0.5-0.2 0.7 0 1.3 0 1.4-1 0-0.1 0.3-0.3 0.5-0.3 1.2-0.3 1.6-1.2 2-2.2 0.1-0.3 0.2-0.7 0.3-1 0.4-1 0.7-1.9 2.1-1.9-0.2-0.2-0.3-0.3-0.4-0.4h1.4c0.1 0.4 0.4 0.7 0.4 1-0.1 1.2 0 2.5-1.1 3.5-0.3 0.2-0.4 0.6-0.6 0.9-0.2 0.5-0.6 0.9-0.7 1.4-0.2 0.8-0.8 0.7-1.3 1-0.1 0.1-0.2 0.2-0.3 0.3-0.9 0.8-1.9 1.4-2.8 1.8-1.1 0.5-2.2 0.4-3.3 0.1-0.4-0.1-0.8-0.1-1.1-0.1 0 0.8-0.2 1.5-0.1 2.2 0.1 0.7 0.5 1.3 0.6 2 0.2 0.8 0.2 1.7 0.4 2.6 0.1 0.8 0.1 1.6 0.5 2.4 0.1 0.3 0.1 0.6 0.3 0.9 0.3 0.4 0.3 0.8 0.2 1.2-0.3 0.7-0.2 1.4 0.1 2.1 0.2 0.5 0.4 1 0.7 1.4 0.4 0.6-0.2 1.1-0.1 1.6 0 0 0 0.1 0 0.1 0.2 0.8 0.4 1.6 0.6 2.4 0.2 1 0.5 2.1 0.7 3.1 0.2 0.8 0.3 1.6 0.5 2.4 0.1 0.3 0.4 2.1 0.3 2.4 0 0.1 0.1 0.2 0.1 0.2 0.3-0.1 0.7-0.3 1-0.4 0.4-0.1 1 0 1.1 0.4 0.1 0.7 0.9 0.6 1 1.2 0.1 0.2 0.4 0.4 0.6 0.4 0.9 0.1 1.6 0.8 2.5 0.8 0.5 0 1 0.2 1.5 0.2 0.7 0 1.4 0.3 2 0.5 0.1 0.2 0.1 0.5 0.2 0.7 1-0.9 1.9-1.2 2.9-0.9 0.2 0 0.3 0 0.5 0 0.9 0 1.9-0.1 2.9 0 1.5 0.2 2.1-0.4 1.8-1.8-0.1-0.2-0.2-0.5-0.1-0.7 0.4-0.9 0.1-1.9 0.2-2.8 0.2-1.4 0.7-2.8 0.3-4.3 0-0.1 0-0.3 0.1-0.4 0.4-0.8 0.3-1.6 0.2-2.5 0-0.2-0.1-0.3-0.1-0.5 0-1.1 0.5-2.2 0.1-3.3 0 0 0-0.1 0-0.1 0.3-1.1 0.2-2.2-0.2-3.3-0.1-0.2-0.1-0.5 0-0.7 0.3-2 0.7-4 0.5-6-0.1-1.2 0.1-2.2 0.5-3.3 0-0.1 0-0.2 0.1-0.3-0.7-0.7-0.5-1.5 0-2.3 0.2-0.3 0.3-0.6 0.5-0.9 0-0.1 0-0.2 0.1-0.3-0.2-0.3-0.5-0.5-0.7-0.8 0.3-0.6 0.5-1 0.4-1.7-0.1-0.9 0.2-1.9 0.4-2.8 0.1-0.5 0.4-0.7 0.9-0.6 0.2 0 0.4 0.2 0.6 0.2 0.8 0.3 1 0.6 0.8 1.4 0 0.2-0.2 0.5-0.2 0.6 0.2 0.8 0 1.5-0.4 2.2 0.9 0.5 0.5 1.3 0.5 2.1 0 0.4-0.2 0.9-0.1 1.3 0.2 0.6-0.6 0.8-0.4 1.4 0 0.1 0 0.2 0 0.3 0.2 0.9 0 1.7-0.3 2.5 0.8 0.3 0.8 0.3 1.7 0.2 0.2 0 0.5-0.1 0.7 0 0.5 0.3 0.9 0.1 1.4 0 0.2-0.1 0.4-0.1 0.6-0.1 1.2-0.1 2.4-0.1 3.5-0.2 0.1 0 0.3-0.1 0.4-0.1 0.5-0.5 1.2-0.5 1.8-0.3 0.8 0.2 1.6 0.1 2.4-0.1 0.4-0.1 0.8-0.2 1.2-0.1 0.6 0.1 1.3 0.2 1.8 0 0.8-0.3 1.5-0.2 2.3-0.2 0.3 0 0.6 0 0.8 0 0.5 0 0.7-0.3 0.6-0.8 0-0.5-0.1-1-0.1-1.5 0-0.6 0-1.1-0.1-1.7-0.1-1.2-0.6-2.3-0.4-3.6 0.1-0.3 0-0.7 0-1.1 0-1 0.2-2.1-0.5-3.1-0.4-0.5-0.3-1.1 0-1.7-0.3-0.7-1.1-1.2-0.6-2-0.3-0.6-0.8-1.1-0.9-1.6-0.1-0.8-0.5-1.3-0.9-2-0.6-0.9-1.5-1.7-2-2.8-0.3-0.6-0.8-1.1-0.8-1.8 0-0.9-1.1-0.9-1.1-1.8 0 0 0-0.1 0-0.1-0.2-0.6-0.6-0.8-1.2-0.6-0.3 0.1-0.6 0.3-0.7 0.6-0.5 0.7-1.5 0.8-1.9 1.6-0.1 0.1-0.4 0.1-0.6 0.1-0.2 0-0.4 0-0.5 0.1-0.5 0.2-1.3 0.3-1.5 0.7-0.5 0.9-1.1 0.3-1.7 0.3-0.1 0-0.1 0.1-0.2 0.1-1.3 0.5-2.7 1-4 1.5-0.1 0-0.2 0-0.3 0-0.6 0.3-1.4 0-2 0.3-0.1 0-0.1 0-0.2 0 0.1-0.3 0.1-0.6 0.2-0.9-0.5 0.1-0.7 0.4-0.7 0.8h-0.9c-0.1-0.4-0.2-0.6-0.2-0.9-0.1 0-0.1 0-0.2 0-0.1 0.4-0.2 0.8-0.3 1.3zm11.7-47.4c1.2-0.8 2.3-1.5 3.2-2.6 0.8-0.1 1.2-0.8 1.7-1.3 0.1-0.1 0.4-0.3 0.6-0.3 1 0.3 1.5-0.9 2.4-0.8 0.8-0.9 1.8-0.8 2.8-0.8 0.5 0 1 0.3 1.6-0.1 0.6-0.4 1.3-0.5 1.9 0.1 0.1 0.1 0.3 0.1 0.5 0.1 0.8 0.1 1.6 0.1 2.5 0.3 0.4 0.1 1 0.2 1.2 0.5 0.4 0.6 1 0.7 1.6 0.9 0.4 0.1 1 0.2 1.2 0.5 0.5 0.6 1 1.2 1.6 1.6 0.4 0.3 0.6 0.8 0.4 1.4-0.2 0.5-0.6 0.7-1.1 0.6-0.4-0.1-0.8-0.1-1.2-0.2-1-0.5-2.1-0.9-3.1-1.5-0.9-0.6-1.8-0.7-2.7-1-1-0.3-2-0.3-3-0.2-1.3 0-2.6 0.1-3.8 0.8-0.4 0.2-0.7 0.4-1.1 0.5-1 0.4-2.2 1.4-2.8 2.4-0.1 0.1-0.3 0.4-0.4 0.3-1-0.2-1.3 0.6-1.8 1.2-0.2 0.2-0.5 0.5-0.7 0.6-0.8 0-1 0.6-1 1.1 0 0.5-0.3 0.6-0.5 0.7-1.2 0.5-1.2 0.5-1.7 1.7-0.1 0.4-0.5 0.8-0.8 0.9-0.5 0.1-0.8 0.5-0.8 0.8-0.1 0.6-0.4 0.9-0.8 1.2-0.3 0.2-0.7 0.5-0.9 0.8-0.4 0.6-0.6 1.3-1 1.9-0.3 0.4-0.8 0.8-1 1.2-0.4 0.8-0.8 1.5-1.6 1.9-0.2 0.1-0.5 0.3-0.6 0.5-0.3 0.9-0.9 1.5-1.6 2.1-0.4 0.2-0.4 0.6-0.2 1h1.4c0.5 0 1 0 1.5 0 1.3 0.1 2 0.9 1.9 2.2-0.1 0.7-0.4 1-1.1 0.9-0.8-0.1-1.6-0.9-2.5 0-1.2-0.5-2.4 0.4-3.7 0.1-0.2 0-0.4 0-0.6 0-0.4 0.1-0.9 0.3-1.2 0.2-0.4-0.2-0.8 0-1.2 0-1.1-0.1-2.3-0.2-3.4 0.2-0.3 0.1-0.8 0.1-0.9-0.1-0.4-0.5-0.7-0.4-1.2-0.2-1.1 0.4-2.3 0.6-3.5 0.1-0.5-0.2-1-0.1-1.4 0.1-0.6 0.3-1.2 0.3-1.8 0-0.1-0.1-0.3-0.2-0.4-0.2-0.7 0-1.4 0.1-2.1 0.1-0.7 0-1.4-0.4-2 0.2-0.1 0.1-0.4 0-0.6-0.1-1.1-0.1-2.1-0.3-3.1-0.4-1.4 0.7-2.9-0.3-4.3 0.2-0.1 0-0.3-0.1-0.4-0.1-1.5-0.2-3.1-0.3-4.6 0-1.1 0.2-2.2 0-3.3-0.1-0.4 0-0.9 0-1.3-0.2-1-0.6-1.9-0.4-3-0.2-0.8 0.1-1.6 0.6-2.5 0.4-1-0.3-1.7 0.4-2.5 0.5-0.1 0-0.3 0-0.4 0-1.6-0.3-3.1 0.3-4.6 0.8 0 0-0.1 0-0.1 0-0.6 0.9-1.7 0.8-2.5 1.2-0.3 0.1-0.8 0.1-1 0.4-1.2 1-2.3 2.1-3.1 3.5-0.7 1.2-1.4 2.4-1.2 3.9 0.5 0.8 1.2 1.6 1.8 2.5 0.1-0.1 0.2-0.3 0.2-0.3 0.2 0.1 0.4 0.3 0.6 0.2 0.2-0.1 0.4-0.3 0.6-0.4 0.1 0 0.3 0.1 0.5 0.2 0.1 0.1 0.3 0.3 0.4 0.3 0.6-0.1 1.2 0 1.7-0.3 0.9-0.5 1.7-1.2 2.8-1.2 0.4-0.6 1.1-0.7 1.7-1 0.8-0.4 1.7-0.9 2.4-1.5 0.6-0.6 1.3-0.6 2-0.7 0.8-0.1 1.4 0.4 1.9 1.2-0.5 0.5-0.9 1-1.4 1.6 0.4 0.7 0.9 0 1.3 0.2 0.4 0.2 0.8 0.6 1.2 0.5 1.2-0.2 2.3 0.2 3.5 0.4 0.4 0.1 0.9 0 1.2 0.5 0 0 0.2 0 0.2 0 0.1-0.2 0.1-0.3 0.2-0.5 0.7 0.2 1.5 0 2.1 0.6 0.1 0.1 0.3 0.1 0.4 0 0.5-0.4 0.9 0 1.3 0.1 0.7 0 1.2 0.8 2 0.3 0.1 0 0.3 0.3 0.5 0.4 0.1 0.1 0.3 0.3 0.4 0.3 0.9-0.2 1.6 0.4 2.4 0.6 0.3 0.1 0.5 0.2 0.8 0.2 0.8-0.1 1.4 0 2 0.5 0.5 0.3 1.2 0.6 1.8 0.6 1 0.1 1.9 0.2 2.8 0.6 0.7 0.3 1.5 0.2 2.2 0.2 1.1 0 2.3-0.4 3.1 0.6 0.3-0.1 0.6-0.4 0.8-0.3 0.8 0.3 1.9-0.2 2.5 0.7 0.1 0.1 0.4 0.2 0.6 0.2 0.4 0.1 0.7 0.1 1.1 0.2 0.9 0.2 1.5-0.2 1.6-1.1 0-0.2 0.1-0.5 0.2-0.6 0.4-0.5 0.8-1 1.3-1.4 0.7-0.7 1.8-0.9 2.1-2 1.3-0.6 2.6-1.5 4.2-0.9 0.4 0.1 1 0 1.5-0.1 0.8-0.2 1.5-0.6 2.2-0.5 0.7 0.1 1.6 0.3 2.2 0.7 1.1 0.7 2.3 1 3.5 1.5 0.3 0.1 0.8 0.4 0.8 0.6 0.1 1 0.4 1.8 1.2 2.4-0.1 0.7 0.5 0.8 0.8 1.3 0.7-0.4 1.2-0.7 2-0.8 0.4 0 0.9-0.3 0.9-0.8 0-0.6 0.5-0.8 0.9-0.9 0.8-0.3 1.5-0.7 2.1-1.3 0.3-0.2 0.7-0.4 1-0.6 0.3 0.2 0.5 0.4 0.8 0.6 0.1-0.3 0.1-0.5 0.1-0.6 0-0.2 0-0.4 0.1-0.5 0.2-0.3 0.5-0.5 0.8-0.8 1-0.8 0.9-0.8 1.3-2 0.2-0.6 0.6-1.2 0.9-1.8 0.4 0.1 0.6 0.2 0.9 0.2 0.7-0.6 1.3-1.5 2.3-1.7 0.1 0 0.3-0.2 0.4-0.4 0.6-1 1.5-1.8 2.3-2.7 1.2-1.3 2.2-2.8 3.3-4.2 0.1 0.1 0.2 0.3 0.3 0.4 0.2 0.1 0.4 0 0.5 0.1 0.9 0.3 1.3 1.2 0.6 1.9-0.6 0.7-0.7 1.7-1.6 2.1-0.2 0.1-0.2 0.4-0.3 0.6-0.1 0.2-0.3 0.4-0.4 0.6-0.6 1.3-1.8 2.1-2.6 3.3-0.3 0.5-0.6 1-1 1.4-0.5 0.4-0.8 0.9-1.1 1.4-0.1 0.2-0.2 0.5-0.3 0.5-0.9 0.3-0.9 1-0.8 1.7 0.1 0.9 0.3 1.8 0.6 2.6 0.4 0.9 0.6 1.8 1.1 2.6 0.9 1.3 1.3 3 2.8 4 0.4 0.3 0.5 0.8 0.7 1.3 0.1 0.2 0.2 0.5 0.3 0.5 1.1 0.1 1.2 1 1.4 1.6 0.4 0.2 0.9 0.2 1.1 0.4 0.7 0.8 1.4 1.5 2.4 1.9 0.4 1.1 2 0.8 2.4 1.9 0 0.1 0.4 0.1 0.6 0.1 0.5 0.2 1.2 0.3 1.4 0.7 0.3 0.6 0.9 0.6 1.3 0.9 0.2 0.1 0.5 0.1 0.6 0.3 0.6 1.1 1.9 1 2.6 1.7 0.3-0.6 0.6-1 0.7-1.5 0.1-0.5-0.1-1.1 0.1-1.6 0.2-0.6 0-1.3 0.6-1.8 0.1-0.1 0.2-0.5 0.2-0.6-0.2-0.5 0-0.8 0.2-1.1 0.3-0.5 0.4-1 0.4-1.6 0-0.6 0-1.3 0.2-1.8 0.6-1.1 0.2-2.4 0.6-3.6 0-0.1 0-0.3-0.1-0.4-0.4-0.9-0.2-1.9-0.1-2.8 0.1-0.9 0.4-1.9 0.1-2.8-0.1-0.2 0-0.4 0-0.7 0-0.5 0.2-1 0-1.4-0.3-0.9-0.1-1.7 0-2.6 0-0.7 0-1.5-0.1-2.2 0-0.7-0.1-1.3-0.1-2 0-0.7 0-1.3-0.3-1.7-0.3-0.4-0.2-0.7-0.2-1.2 0.1-0.5 0.2-1.1 0-1.4-0.3-0.5-0.2-0.9-0.3-1.4-0.1-0.6 0.3-1.3-0.3-1.9-0.1-0.1 0-0.4 0.1-0.7 0-0.3 0-0.6 0-0.9-0.2-1.1-0.8-2.1-0.8-3.2 0-1 0.1-1.9-0.6-2.8-0.1-0.1 0-0.4 0-0.5 0-1 0-1-0.7-2.2-0.2-0.4-0.5-0.9-0.3-1.4-1-0.8-0.9-2-1.4-3-0.6-1.2-1.3-2.4-2.1-3.5-0.6-0.8-1.3-1.7-2-2.5-0.2-0.2-0.4-0.2-0.6-0.5-0.8-1.3-1.2-2.9-2.9-3.6-0.1 0-0.2 0.2-0.4 0.2-1.2 0.2-1.9-0.4-1.7-1.6 0.1-0.2 0.2-0.4 0.4-0.6 1-1.1 1.4-2.5 2.5-3.5 0.1-0.1 0.2-0.2 0.2-0.4 0.1-0.8 0.2-1.5 0.4-2.3 0.1-0.7 1-1.2 0.3-2 0 0 0-0.1 0-0.1 0.7-1.3 0.4-2.8 0.6-4.2 0-0.2 0.1-0.5 0-0.6-0.5-0.4-0.3-0.8-0.2-1.2 0.1-0.4 0.2-0.7 0.1-1.1-0.1-0.4-0.1-0.9 0-1.3 0.1-0.5 0.1-0.9 0-1.3-0.1-0.3-0.2-0.6-0.2-0.9 0.2-1-0.4-1.9-0.7-2.8-0.2-0.6-0.5-1.1-0.6-1.8-0.1-0.3 0-0.5-0.4-0.8-0.4-0.2-0.5-1-0.8-1.3-0.7-0.6-0.9-1.3-1.2-2.1-0.3-0.8-0.7-1.4-1.4-2-0.7-0.6-1.2-1.5-2.2-1.9-0.1 0-0.2-0.3-0.3-0.5-0.6-1-1.6-1.5-2.7-1.8-0.5-0.2-0.9-0.4-1.4-0.7-0.9-0.6-2-1.1-3-0.9-1.3 0.3-2.3 0-3.5-0.3-0.1 0-0.2 0-0.2 0.1 0 0.2 0 0.4 0.1 0.6-0.8 0.3-1.5-0.2-2.2 0.1-0.4 0.2-0.9 0.2-1.3 0.3-0.9 0.2-1.9 0-2.6 0.6-0.6 0.5-1.4 0.6-2 0.5-0.6-0.1-1.1 0-1.4 0.4-0.3 0.5-0.8 0.6-1.2 0.9-0.9 0.6-2 0.8-2.5 1.9 0 0.1-0.2 0.1-0.3 0.2-0.5 0.4-0.9 0.8-1.4 1.3 0.5 0.3 0.9 0.6 1.3 0.6 0.9-0.1 1.7 0.4 2.5 0.6 0.3 0.1 0.7 0.2 1.1 0.2 0.8 0 1.4 0.8 2.3 0.4 0.1 0 0.2 0.1 0.3 0.2 0.9 0.6 1.9 1.3 2.8 1.9 0.3 0.2 0.6 0.3 0.9 0.3 1.2 0.3 2.2 0.8 2.4 2 0.5 0.2 1 0.3 1.4 0.5 0.4 0.2 0.8 0.6 1.2 0.9 0.2 0.1 0.3 0.4 0.4 0.6 0.2 1.2 1.4 1.6 1.9 2.6 0.1 0.3 0.7 0.5 1 0.4 0.7-0.3 1.3 0.2 2 0.2 1.1 0 1.9 0.8 2.9 1.2 0.1 0.1 0.2 0.3 0.3 0.4 0.3 0.9 0.7 1.8 0.8 2.8 0.1 1.1-0.1 2.1-1.2 2.8-0.3 0.2-0.7 0.4-0.8 0.7-0.3 0.6-0.8 0.6-1.3 0.6-0.7 0-1.4 0-2.2 0-0.1 0.2-0.4 0.5-0.4 0.8-0.1 0.9-0.5 1.5-1.3 2-0.4 0.2-0.6 0.5-0.9 0.9-0.3 0.4-0.4 0.9-0.7 1.3-0.7 1-1.1 2.2-2.4 2.6-0.2 0.1-0.3 0.2-0.4 0.4-0.3 1.1-1.4 1.4-2.1 2.2-0.3 0.4-0.7 0.7-1.1 0.9-0.9 0.3-1.5 0.9-2.3 1.5-0.3 0.2-0.5 0.3-0.8 0.5-0.8 0.3-1.6 0.6-2.5 1 0.4 0.9 1.5 0.7 2.1 1.2 0 0.4 0 0.7 0.1 1.2 0.5-0.8 1.1-0.6 1.7-0.3zm-70.2 42.9c-1.3-0.3-2.7-0.5-4.1-0.3-0.2 0-0.4 0-0.5-0.1-0.4-0.5-1.1 0-1.5-0.4-0.8 0.6-1.6-0.3-2.5 0.1-0.3 0.1-0.8-0.1-1.2-0.3-0.8-0.3-1.7-0.3-2.5-0.3-0.9 0-1.9-0.1-2.8-0.1-0.8 0-1.6 0-2.4-0.1-0.8-0.1-1.6-0.3-2.4-0.5-0.5-0.1-1 0-1.5 0-0.5 0-0.9-0.1-1.4 0-0.8 0.1-1.7 0.4-2.4-0.3-0.1-0.1-0.3-0.1-0.4-0.1-0.9 0.5-1.4-0.1-1.9-0.6-0.1-0.1-0.2-0.1-0.5-0.3 0.1 0.4 0.2 0.7 0.3 1.1-0.9-0.2-1.6-0.5-2.3 0-0.1 0.1-0.3 0-0.4-0.1-1-0.5-2.1-1-3-1.6-0.6-0.4-1.3-0.8-1.7-1.5-0.1-0.3-0.6-0.4-0.9-0.6-1-0.4-1.5-1.2-1.8-2.1 0-0.2 0.1-0.4 0.1-0.5-0.4-0.5-0.8-1-1.4-1.6-0.1 0.2-0.2 0.3-0.3 0.4-1.4-0.4-1.6-0.7-0.7-2.1-0.2-0.6-0.4-1.2-0.7-1.9-0.9 0.1-0.7 1.1-1.3 1.5-0.8 0-1.5-0.3-1.6-1.1-0.1-1 0.3-1.9 1.3-2.3-0.3-0.7-0.6-1.3-0.8-2-0.2-0.7-0.9-1.2-0.9-2 0-0.6-0.4-1.1-0.6-1.6-0.2-0.3-0.3-0.7-0.8-0.6-0.5 0-0.8-0.3-0.7-0.8 0.2-1-0.4-1.9-0.7-2.8-0.5 0.7-1.1 0.7-1.7 0.5-0.7-0.3-0.3-1.1-0.4-1.7 0.5-0.1 0.9-0.2 1.3-0.2 0-0.2 0.1-0.3 0.1-0.4-0.7-1-0.7-2.3-1.8-3.1-0.1-0.1-0.2-0.3-0.2-0.5 0.1-1-0.4-1.7-1.1-2.5 0 0-0.2 0-0.3-0.1-1.1-0.1-1.5-0.8-0.9-1.6 0.3-0.5 0.3-0.8 0.1-1.2-0.2-0.5 0.2-1.1-0.4-1.5-0.3 0.9-0.3 0.9-1.3 1.6-0.5-0.2-1-0.4-1.6-0.6-0.3-0.9 0.5-1.3 0.8-1.9 0.4 0 0.8-0.1 1.2-0.1 0-0.8-0.4-1.4-0.3-2.3 0.1-0.4-0.4-1-0.8-1.3-0.4-0.4-0.6-0.8-0.4-1.2 0.3-0.7 0-1.2-0.3-1.7-0.5-0.7-0.3-1.2 0-1.9 0.4-0.7 1-1.4 0.8-2.4-0.1-0.6 0.3-0.8 0.8-0.9 0.5-0.1 1.1 0 1.6-0.1 2-0.2 4-0.5 6-0.7 0.6-0.1 1.1-0.1 1.7-0.1 0.5 0 0.9 0 1.3-0.4 0.2-0.2 0.6-0.2 0.9-0.2 1.3 0 2.6 0.1 3.9 0 1.6-0.1 3.2-0.4 4.8-0.5 0.3 0 0.6 0.1 0.9 0.1 0.1 0 0.3 0.2 0.4 0.1 0.8-0.7 1.7-0.2 2.5-0.2 0.3 0 0.6 0.1 0.8-0.1 0.7-0.5 1.2 0.1 1.8 0 0.6-0.1 1.2-0.6 1.7-0.5 0.9 0.2 1.8 0.2 2.7 0 0.2-0.1 0.5 0.1 0.7 0.2 0.2-0.3 0.4-0.6 0.7-0.8 0.6-0.4 1.1-0.4 1.5 0.3 0.5 0.8 1.3 1.4 1.3 2.5 0 0.3 0.2 0.6 0.4 0.8 1.2 1.8 2 3.8 3 5.6 0.4 0.8 0.6 1.7 1.3 2.2-0.1 1 0.9 1.3 1.2 2 0.3 0.7 0.5 1.5 1 2.1 1.4 1.8 2.1 3.9 2.8 5.9 0.2 0.5 0.5 1 0.9 1.4 0.7 0.7 1.2 1.5 1.3 2.5 0.2 1.3 1.1 2.3 1.7 3.4 0.3 0.6 0.7 1.1 0.9 1.7 0.3 0.5 0.6 1 0.8 1.5 0.2 0.5 0 1.1 0.3 1.5 0.3 0.4 0.8 0.7 1 1.2 0 0.1 0.1 0.1 0.2 0.1 0.8-0.4 1.6-0.8 2.4-1.3 0.4-0.2 0.8-0.4 1.1-0.9 0.4-0.5 1-1 1.8-1.2 0.7-0.2 1.4-0.6 2.1-0.9 0.7 0.5 1.4-0.1 2.1-0.1 0.8 0.1 1.7-0.5 2.5 0 0.1 0.1 0.3-0.2 0.5-0.2 0.8-0.1 1.5-0.7 2.5-0.4 0.7 0.2 1.6-0.1 2.4-0.3 0.4-0.1 0.8 0 1.2-0.1 0.4 0 0.8 0 1.2 0.1 0.6 0 1.4 0 1.9-0.3 1.2-0.8 2.4-0.4 3.5-0.3 0.9 0.1 1.7 0.3 2.4-0.4 0.9 0.2 1.6 0.9 2.5 0.3 0.1-0.1 0.4 0 0.5 0 0.2 0 0.4 0.2 0.5 0.2 1.4-0.6 2.7 0 4.1-0.1 1.3-0.1 2.7-0.3 4 0 1.2 0.3 2.4 0.2 3.6 0.3 0.2 0 0.4 0 0.5-0.1 0.3-0.6 0.8 0 1.1-0.1-0.8-1.4-1.5-2.7-2.3-4.1-0.1-0.2-0.2-0.3-0.3-0.5-1.2-1.4-2.1-3.1-3-4.7-0.3-0.5-0.3-1.1-0.8-1.6-0.7-0.7-1.4-1.1-2.4-1.1-1.4-0.1-3-0.1-4.3-0.6-1.1-0.4-2.6-0.5-2.9-2.1-0.6 0.2-1 0.4-1.4 0.5-0.5 0.1-0.7-0.3-1.1-0.5-0.1-0.1-0.4-0.3-0.4-0.3-0.6 0.5-0.9-0.7-1.5-0.2-0.4 0.3-0.8 0.1-0.9-0.3-0.3-0.6-0.7-0.6-1.2-0.7-0.5-0.1-1-0.3-1.2-0.9-0.1-0.2-0.3-0.4-0.5-0.6-0.6-0.6-1.2-1.1-0.6-2 0.1-0.2 0-0.5-0.1-0.7-0.1-0.4-0.1-0.7 0.2-1 0.2-0.3 0.4-0.7 0.6-1 0.1-0.1 0.2-0.3 0.3-0.3 0.7-0.3 0.9-1 1.3-1.5 0.2-0.3 0.4-0.9 0.7-0.9 0.7-0.1 0.9-0.5 1.2-1 0.4-0.5 0.9-0.8 1.5-1.1 0.8-0.4 1.5-1 2.3-1.5 0.2 0 0.5 0.2 0.7 0.1 1.5-0.5 3 0 4.5-0.2 0.5-0.1 1 0.4 1.5 0.5 0.3 0.1 0.8 0.3 1 0.2 0.8-0.4 1.3 0 1.9 0.4 0.3 0.2 0.5 0.3 0.8 0.5 0.1 0 0.2 0 0.2 0 0.3-0.2 0.7-0.5 1-0.5 0.4 0 0.8 0.2 1.1 0.4 1.5 0.9 2.9 2 4.4 2.8 1.2 0.6 2.1 1.6 3.3 2.1 0.2 0.1 0.4 0.3 0.5 0.5 0.8 1 2 1.7 2.7 2.8 0.1 0.1 0.2 0.2 0.3 0.2 0.9 0 1.3 0.7 1.7 1.4 0.2 0.3 0.5 0.7 0.9 0.8 0.6 0.2 1 0.6 1.5 1 0.6 0.5 1.2 1 1.8 1.5 0.4 0.3 0.7 0.7 1 1 0.3 0.3 0.6 0.6 0.8 0.8 1.1 0.9 2.1 1.9 3.2 2.8 0.6-0.8 1-1.8 2.1-2.2 0.2-0.1 0.4-0.4 0.5-0.6 0.7-1.3 1.9-1.9 3-2.7 0.2-0.2 0.6-0.3 0.7-0.5 0.1-0.2-0.1-0.5-0.2-0.8 0-0.1 0-0.3 0.1-0.5-0.7-0.1-1.4-0.2-2-0.4-0.3-0.1-0.7-0.3-0.9-0.6-0.6-1.1-1.8-1.5-2.8-2.2-0.1-0.1-0.4-0.1-0.5-0.2-0.6-0.8-1.6-1.1-2.2-1.9-0.6-0.8-1.2-1.5-1.7-2.4-0.3-0.5-0.4-1-1-1.2-0.1 0-0.2-0.1-0.2-0.2 0-1.3-1.3-2.2-1.2-3.6 0-0.2-0.1-0.4-0.1-0.5-0.1-0.3-0.1-0.6-0.2-0.9-0.1-0.1-0.4-0.1-0.5-0.3-0.6-1.1-1.2-2.3-1.1-3.6 0-0.2 0.1-0.4 0-0.5-0.8-1-0.5-2.2-0.5-3.3-0.1-0.8 0-1.6 0.1-2.3 0.1-1.2 0.2-2.4 0.2-3.5 0-0.4 0-0.8 0.4-1.1 0.1-0.1 0-0.4 0-0.6 0-0.3 0-0.6-0.1-0.9l0.8-1.7c0.3-0.7 0.5-1.3 0.8-2 0.1-0.2 0-0.5 0.1-0.5 1.2-0.7 0.7-1.8 0.6-2.8 0.2-0.3 0.5-0.6 0.9-0.3 0.1-0.3 0.1-0.6 0.2-0.8 0.1-0.1 0.2-0.1 0.2-0.1 0.9 0.2 1.4-0.4 1.9-0.9 1.2-1.5 2.6-2.7 4.5-3.3 0.2-0.1 0.4-0.3 0.7-0.5 0.7-0.4 1.2-1.1 2.1-1.2 0.1 0 0.2-0.1 0.2-0.1 0.4-0.9 1.3-0.8 2-1.1 0.6-0.2 1.1-0.4 1.7-0.4 0.3 0 0.6-0.1 0.9-0.2 0.2-0.1 0.4-0.3 0.5-0.2 0.8 0.5 1.5-0.2 2.2-0.2 0.7 0 1.4-0.2 2.1-0.3 0.1 0 0.3-0.1 0.4-0.1 0.7 0.5 1.5 0.3 2.3 0.2 0.3 0 0.6 0 0.8 0.1 0.5 0.3 1 0.2 1.4 0.2 0.7-0.1 1.4 0 2 0.5 0.5 0.4 1.2 0.6 1.8 0.7 1.4 0.2 2.4 1.2 3.6 1.7 0.5 0.2 1 0.7 1.6 0.8 0.5 0.1 0.7 0.4 0.9 0.8 0.2 0.5 0.4 1.1 0.7 1.6 0.2 0.3 0.6 0.5 0.9 0.7 0.1-0.2 0.2-0.3 0.4-0.6 0.6 1 1.5 1.9 1.2 3.2 0.5 0.1 0.9 0.1 1.2 0.3 0.3 0.2 0.6 0.6 0.7 1 0.1 0.4-0.1 0.8-0.2 1.3 0.3 0.4 0.9 0.9 0.8 1.7 0 0.3 0.4 0.7 0.7 1.1-0.1 0.1-0.2 0.2-0.2 0.2 0.1 0.8 0.2 1.6 0.4 2.3 0.1 0.4 0.4 0.7 0.4 1.1 0.3 1.7 0.8 3.3 0.7 5.1-0.1 1-0.2 2.1 0 3.1 0.1 0.4-0.2 0.9-0.2 1.3-0.3 1.3-0.1 2.7-0.7 4 0.4 1-0.5 1.7-0.8 2.6-0.2 0.6-0.5 1.2-0.5 1.8 0 0.3-0.3 0.6-0.5 0.9-0.4 0.6-0.4 0.7 0.1 1.2 0.2 0.2 0.4 0.5 0.6 0.7 0.2 0.3 0.5 0.6 0.8 0.7 0.8 0.4 1.3 1.1 1.6 1.9 0.2 0.5 0.5 0.9 1 1.2 0.3 0.2 0.8 0.3 0.8 0.2 0.2-0.7 0.6 0 0.9-0.2 0.4-0.1 0.8-0.3 1.2-0.3 1.4-0.3 2.9-0.1 4.4-0.6 0.3-0.1 0.6 0 0.9-0.1 0.5 0 1.1 0.1 1.5-0.1 0.4-0.2 0.9 0.1 1.4-0.3 0.4-0.3 1.2-0.1 1.9-0.1 0.2 0 0.3 0.1 0.5 0 0.7-0.2 1.5-0.4 2.2-0.6 1.2-0.3 2.3 0.2 3.2 0.9 0.2 0.1 0.3 0.5 0.4 0.7 0.1 1.7 0.5 3.3 0.3 4.9-0.1 1.3 0.1 2.6 0.4 3.9 0.1 0.3 0 0.6 0 0.9 0 0.7 0 1.4 0 2.1 0 0.4 0.1 0.7 0.1 1.1 0.1 1.6 0.3 3.1 0 4.7-0.1 0.5 0.1 1.1 0.1 1.7 0 0.6-0.1 1.1 0 1.7 0.1 0.6 0.1 1.2 0.3 1.7 0.4 0.9 0.1 1.7 0.1 2.5 0.1 0.8 0.2 1.6-0.2 2.4-0.1 0.2-0.1 0.7 0.1 0.8 0.6 0.5 0.5 1.2 0.4 1.8-0.1 1.2 0.2 2.5-0.2 3.7-0.1 0.2 0.1 0.5 0.2 0.8 0.4 1.3 0 2.5 0 3.8 0 1-0.1 2 0.5 3 0.2 0.3 0.1 0.9 0.1 1.4-0.1 0.9-0.1 1.8 0 2.7 0 0.1 0 0.2 0 0.3-0.5 1.2 0 2.4 0 3.6 0 0.9 0.1 1.6-0.3 2.5-0.2 0.4 0 1.1 0 1.6 0 0.9-0.1 1.7-0.8 2.4-0.3 0.2-0.6 0.4-0.9 0.5-0.5 0.1-1.1 0-1.6 0.2-0.6 0.1-1 0.1-1.6-0.1-0.6-0.2-1.2-0.2-1.8 0-0.7 0.2-1.5 0.1-2.2 0.2-1 0.1-2.1 0-3.1-0.3-0.8-0.3-1.5-0.1-2.3 0.1-1 2.3-1.1 2.6-0.7 3.5 0.7-0.3 1.4-0.5 2 0.2 0.1 0.1 0.3 0.1 0.4 0.1 0.8-0.1 1.3 0.4 1.5 1 0.8 0 1.5-0.1 2.1 0 2 0.4 4 1.1 6 1.4 1 0.2 2 0.1 3 0.1 0.5 0 1 0.2 1.5 0.2 1.4-0.1 2.8 0.1 4.3-0.2 0.9-0.2 1.9-0.4 2.8-0.1 0.4 0.1 0.9 0 1.4-0.1 0.6-0.3 1.2 0.2 1.8-0.2 0.6-0.4 1.2-0.2 1.8-0.1 0.1 0 0.2 0.1 0.2 0.1 0.9-1 2.6-0.3 3.4-1.5 0-0.1 0.2-0.1 0.2-0.1 1.5 0.1 2.6-0.9 3.9-1.1 0 0 0.1 0 0.1 0 0.4-0.5 0.7-1.1 1.6-1.1 0.6 0 1.2-0.5 1.8-0.8 0.5-0.3 1.1-0.7 1.5-1.1 0.9-0.9 2.4-1.2 3.2-2.3 0.7-0.9 1.7-1.5 2.7-2.2 0.4-0.2 0.6-0.6 0.9-1 0.3-0.3 0.4-0.7 0.7-1 1-1.2 1.3-2.8 2.5-3.9 0.1-0.1 0.1-0.3 0.1-0.4 0-0.8 0-1.6 0.7-2.1 0-1 0.6-1.8 0.7-2.8 0-0.7 0.2-1.3 0.3-2 0-0.4 0-0.8 0-1.2 0.1-0.8 0.1-1.6 0.3-2.3 0.1-0.6 0.2-1.1 0-1.6-0.3-0.8-0.2-1.5 0.2-2.1-0.3-1-0.4-1.9-0.8-2.8-0.5-1.2-0.8-2.6-1.3-3.8-0.1-0.2-0.1-0.3-0.1-0.5-0.3-1.5-1.3-2.4-2.4-3.3-0.2-0.2-0.4-0.5-0.6-0.7-0.5-0.5-0.9-1.1-1.4-1.6-0.3-0.2-0.8-0.1-1.1-0.4-0.8-0.9-1.9-0.9-2.9-1.2-0.6-0.2-1.2-0.4-1.8-0.7-0.3 0.1-0.7 0.2-1 0.3-0.3 0-0.7 0.1-0.9-0.1-0.8-0.5-1.6-0.4-2.4-0.2-0.7 0.1-1.3 0.4-2 0.2-0.2-0.1-0.5 0-0.7 0-0.7 0.2-1.3 0.5-2.1 0.8 0.7 0.8 1.4 1.7 2.2 2.5 0.8 0.7 0.8 1.8 1.5 2.5 0.1 0.2 0.2 0.5 0.3 0.6 0.8 0.6 1.1 1.3 1 2.3 0.6 0.5 0.5 1.4 0.7 2 0.3 0.8 0.4 1.6 0.6 2.4 0.2 0.7 0.3 1.5 0.8 2.2 0.2 0.3 0.3 0.7 0.3 1 0 1.8 0.6 3.5 1 5.2 0.1 0.3 0.2 0.7 0.1 0.9-0.2 0.6 0 1 0.1 1.6 0.1 0.4 0 0.8-0.1 1.2-0.2 0.8-0.7 1.6-0.2 2.5 0.1 0.1 0 0.4 0 0.4-0.9 0.4-0.5 1.3-0.9 1.9-0.3 0.4-0.4 0.8-0.5 1.3-0.1 0.8-0.8 1.1-1.2 1.7-0.3 0.4-0.7 0.8-1 1.1-0.1 0.1-0.2 0.3-0.3 0.3-0.9 0-1.4 0.8-2.2 1.1-0.2 0.1-0.4 0.2-0.5 0.2-1.4-0.4-2.8 0.4-4.1-0.2-0.1-0.1-0.4 0-0.5 0-1.3 0.1-2.2-0.6-3-1.5-0.2-0.2-0.5-0.4-0.7-0.6-2.3-1.4-3.9-3.4-5.1-5.8-0.4-0.9-1-1.9-1-2.8 0.1-1-0.3-1.7-0.6-2.5-0.1-0.3-0.3-0.6-0.2-0.8 0.5-0.8 0-1.7 0.2-2.5 0.2-0.9 0-1.5-0.2-2.1 0.2-0.7 0.4-1.2 0.4-1.7 0.1-0.8-0.1-1.6 0.5-2.2 0.1-0.1 0.1-0.4 0.1-0.6-0.3-1.2 0.4-2.1 0.8-3.1 0.3-0.8 0.7-1.5 1.2-2.3 0.3-0.5 0.4-1.2 0.5-1.8 0.1-0.6 0.3-0.9 0.9-1.2 0.5-0.3 0.9-0.9 1.3-1.4 0.3-0.4 0.5-0.8 0.9-1.1 0.6-0.4 1-0.9 1.5-1.4-1.2-1.4-2.7-2.4-4.3-3.3-1.3-0.7-2.5-1.5-4-1.6-0.8 0-1.7-1.3-1.6-2.2 0.1-0.8 0.6-1.3 1.4-1.1 0.9 0.2 1.9-0.1 2.7 0.7 0.1 0.1 0.4 0 0.5 0.1 0.3 0.1 0.7 0.2 0.8 0.4 0.2 0.4 0.4 0.6 0.8 0.5 0.1 0.5 0.6 0.4 1 0.6 0.4 0.2 0.8 0.2 1 0.7 0 0.1 0.1 0.2 0.2 0.2 1.5 0.1 1.9 1.9 3.2 2.2 0.1 0 0.2 0.2 0.2 0.3 0.9 1.1 1.3 1.2 2.5 0.6 1.2-0.7 2.5-1.2 3.9-1.1 0.2 0 0.4 0 0.6 0 0.6 0 1.4 0.2 1.9 0 0.7-0.3 1.2 0 1.8 0.1 0.4 0.1 0.9 0.3 1.2 0.2 1-0.4 1.9 0 2.7 0.4 0.5 0.2 1.2 0.2 1.6 0.4 0.6 0.3 1.1 0.4 1.7 0.5 0.5 0 1.1 0.5 1.6 0.7 0.3 0.2 0.6 0.4 0.7 0.6 0.1 0.6 0.6 0.8 1.1 1.1 0.4 0.2 0.9 0.4 1.1 1 0.1 0.2 0.3 0.4 0.5 0.5 1 0.5 1.2 1.5 1.8 2.3 0.3 0.5 0.6 1 0.9 1.5 0.1 0.2 0.3 0.5 0.3 0.7-0.1 0.9 0.4 1.6 0.8 2.3 0.3 0.6 0.5 1.3 0.4 1.8-0.2 1 0.6 1.8 0.2 2.7 0 0 0 0.1 0 0.1 1.3 1.3 0.4 2.9 0.5 4.3 0 0.2 0.1 0.4 0.1 0.6 0.2 0.6 0.5 1.2-0.2 1.8-0.2 0.2-0.1 0.9 0 1.3 0.1 0.4 0.1 0.8 0 1.2-0.2 0.5-0.1 1.1-0.2 1.6-0.2 1-0.9 1.9-0.8 3 0 0 0 0.1-0.1 0.1-1 0.7-0.9 2-1.3 3-0.4 1.1-0.9 2-1.9 2.6-0.1 1.6-0.8 2.8-2.2 3.7-1.1 0.7-2.1 1.5-2.7 2.6-0.1 0.1-0.1 0.3-0.2 0.4-1.1 0.3-1.9 1.2-2.9 1.7-0.7 0.3-1.3 0.8-1.9 1.2-0.2 0.2-0.5 0.5-0.8 0.5-1.2-0.1-1.7 0.8-2.5 1.4-0.6 0.4-1.3 1-2 1.1-1.3 0.2-2.4 1-3.6 1.4-0.6 0.2-1.1 0.4-1.7 0.3-1-0.1-1.9 0.1-2.8 0.4-1.4 0.3-2.8 0.6-4.2 0.7-0.9 0.1-1.8-0.2-2.6 0.2-0.5-0.7-0.8 0.2-1.2 0.1-0.5 0-1.1 0.1-1.6 0.2-0.2 0-0.4 0.1-0.5 0.1-1.1-0.6-2.3 0-3.5-0.1-1.2-0.1-2.4-0.2-3.7-0.6-1.1-0.3-2.2-0.4-3.4-0.6-0.1 0-0.2 0-0.3 0-1.1 0.5-1.9-0.1-2.9-0.4-0.9-0.3-1.8-0.4-2.7-0.7-0.4-0.1-0.9-0.2-1.1-0.5-0.8-1-1.9-0.9-3-1.3 0.4 0.8 0.3 1.4-0.4 1.8-0.2 0.1-0.3 0.4-0.5 0.6-0.2 0.3-0.3 0.8-0.8 0.8-0.1 0-0.2 0.3-0.4 0.5-0.2 0.2-0.3 0.4-0.5 0.6-0.9 0.5-1.6 1.3-2 2.2-0.2 0.5-0.6 0.7-1 0.8-1 0.2-1.8 0.8-2.6 1.4-0.8 0.5-1.5 1.2-2.5 1.2-0.4 0-0.9 0.4-1.2 0.8-1 1-2.2 1.2-3.5 1.4-0.4 0-0.8 0-1.2 0-0.3 0-0.7 0.1-0.9 0.3-0.4 0.3-0.9 0.3-1.4 0.3-0.7 0-1.5 0.2-2.2 0.5-0.5 0.2-0.9 0.4-1.3 0.2-1-0.4-1.8-0.2-2.5 0.7-0.5-0.2-0.9-0.4-1.4-0.7-0.1 0.3-0.4 0.7-0.3 0.9 0.7 1.6 0.6 3.5 1.8 4.8 0.2 1.1 0.5 2 0.8 3.1 0.3 1.3 0.7 2.6 1.5 3.7 0.7 0.9 0.7 2 0.8 3 0.1 0.8 0.3 1.5 0.7 2.2 0.4 0.7 0.7 1.4 0.7 2.2 0 0.1 0 0.2 0.1 0.3 0.3 0.7 1.3 1.1 0.8 2 0.3 0.7 0.6 1.4 1 2.1 0.2 0.5 0.4 1 0.9 1.3 0.4 0.3 0.6 0.8 0.8 1.2-0.2 0.2-0.3 0.5-0.5 0.7 0.3 0.8 1.1 1.3 1.1 2.2 0 0.1 0.2 0.3 0.3 0.4 0.2 0.2 0.4 0.3 0.5 0.5 0.3 0.8 0.6 1.4 1.3 1.9 0.7 0.5 1.1 1.2 1.6 1.8 0.4 0.5 0.8 1.1 1.1 1.7 0.3 0.6 0.7 1 1.1 1.3 0.7 0.6 1.5 1.2 1.7 2.3 0.1 0.2 0.3 0.5 0.5 0.7 1.1 1.2 1.9 2.6 2.4 4.2 0.2 0.5 0.5 1 0.7 1.5 0.2 0.5 0.1 1-0.2 1.5-0.2 0.4-0.5 0.7-0.8 1.1-0.1 0.1-0.2 0.2-0.3 0.2-0.6-0.2-0.8 0.3-0.9 0.6-0.4 0.6-0.9 1-1.5 1.4-0.4 0.2-0.8 0.5-1.1 0.8-0.5 0.7-1.3 1.2-2 1.8-0.3 0.3-0.6 0.5-0.9 0.8-0.4 0.4-0.7 0.8-1 1.1-0.3 0.3-0.7 0.4-1.1 0.7-1.2 1-2.4 2-3.7 2.8-0.1 0.1-0.2 0.2-0.2 0.3-0.2 1.1-1.1 1.5-2.1 1.6-0.4 0.7-0.5 1.4-1.5 1.4-0.4 0-0.9 0.5-1.2 0.9-0.3 0.3-0.5 0.7-0.9 0.7-0.1 0-0.1 0-0.1 0-0.3 0.9-1.2 1-1.9 1.5-0.7 0.5-1.4 1.1-2.1 1.5-0.3 0.2-0.7 0.4-1.1 0.5-0.4 0.2-0.9 0.3-1.3 0.5-1.1 0.6-1.7 0.5-2.5-0.6-0.3-0.4-0.7-0.9-1-1.3-0.2-0.3-0.3-0.7-0.4-1-0.1-0.2 0-0.4-0.1-0.5-1.1-1.4-0.9-3.2-1.3-4.8-0.3-1.1 0.2-2.1 0-3.1 0 0 0-0.1 0-0.1 1.2-2.1 0.7-4.6 1.7-6.7 0.8-1.7 0.7-3.5 1.2-5.3 0.1-0.2 0-0.4 0-0.7 0-0.2-0.1-0.4 0-0.5 0.8-0.8 0.7-1.9 1-2.9 0.2-0.7 0.5-1.4 0.7-2.1-0.8-0.6-1.5-1.2-2.1-1.9-0.4-0.5-0.9-1.1-1.4-1.2-0.6-0.2-0.8-1-1.6-0.8-0.2 0-0.7-0.4-0.8-0.7-0.2-0.7-0.7-0.8-1.3-1-0.1 1.4 0.2 2.2 1 3.6 0.3 0.5 0.5 1.2 0.4 1.8 0 0.8 0.1 1.6 0.1 2.4 0 0.8 0.2 1.5 0.4 2.3 0.3 1.1 0 3.1-0.8 3.9-0.4 0.4-1 0.7-1.5 1-0.2 0.1-0.4 0.1-0.5 0.2-0.8 0.9-2.1 0.8-3 1.6-0.1 0.1-0.2 0.1-0.4 0.2-0.5 0-1.3-0.1-1.6 0.2-0.5 0.4-1 0.6-1.5 0.8-0.5 0.2-0.9 0.6-1.4 0.8-0.2 0.1-0.5 0.2-0.8 0.2-1.5-0.2-2.9 0.2-4.2 0.8-0.5 0.3-1 0.2-1.6 0.2-1.1 0-2.2 0.3-3.3 0.6-1.4 0.3-2.7 0.8-4.1 1.1-0.9 0.2-1.9 0.3-2.9 0.4-0.4 0.1-0.7 0.2-1.1 0.2-0.3 0.1-0.6 0.3-0.9 0.1-0.1-0.1-0.4 0-0.5 0-1.6 0.9-3.4 0.8-5.1 1.1-0.5 0.1-1 0.2-1.4 0.4-1.1 0.8-2.2 0.3-3.2-0.1-0.4-0.2-1-0.1-1.4-0.7-0.5-0.8-0.7-0.7 0-1.7-0.2-0.4-0.7-0.7-0.4-1.3 0.1-0.2 0.2-0.6 0.1-0.8-0.6-1-0.1-2 0.1-3 0.2-1.2 0.4-2.4 1.5-3.3 0.2-0.9 1.2-1.3 1.3-2.3 0.1-0.4 0.4-0.9 0.8-1.1 0.8-0.4 1.1-1.1 1.7-1.7 0.9-0.9 1.6-2.1 2.5-3.1 0.5-0.6 1.3-0.9 1.8-1.7 0.1-0.2 0.7-0.2 1.1-0.3 0.1-0.3 0.3-0.6 0.5-1 0.1-0.2 0.1-0.5 0.3-0.6 1.1-0.9 1.9-2 2.6-3.2 0.3-0.4 0.7-0.7 1-1.1 0.7-0.8 0.8-2.1 0.3-3-0.2-0.4-0.8-0.6-0.4-1.2-0.7-0.6-1.1-1.4-0.8-2.3-0.8-0.7-0.3-2-1.2-2.6 0.2-1.4-0.6-2.5-0.7-3.7-0.2-1.2-0.5-2.4-0.7-3.7-0.5 0.3-1 0.1-1.6-0.1-0.5-0.1-0.7-0.7-0.3-1.1 0.3-0.3 0.7-0.5 1.2-0.9 0-0.1 0-0.4 0-0.6 0.2-1.2-0.3-2.3-0.9-3.4-0.2-0.4-0.3-0.8-0.1-1.2 0.2-0.5 0.2-1 0-1.6-0.1-0.3-0.1-0.7-0.1-1.1 0-0.8-0.7-1.3-0.6-2.1 0.1-0.7-0.2-1.4-0.2-2.1-0.4 0-0.9 0.1-1.1 0-0.5-0.5-0.8-1.1-1.1-1.5 0.1-1.1 0.9-1.2 1.6-1.5-0.2-1-0.6-2-0.5-3 0-0.2-0.2-0.5-0.3-0.7-0.6-0.8-0.7-1.3-0.1-1.8 0.5-0.4 0.3-0.9 0.4-1.3 0.1-0.4-0.3-1-0.1-1.3 0.3-0.5-0.6-0.8-0.1-1.2-0.6-0.4-0.5-1-0.5-1.5 0-0.5-0.1-0.9 0.4-1.3 0.2-0.2 0.3-1.3 0.3-1.8-0.1-1.2-0.1-1.2-0.9-1.8-0.2-1.1 0.5-1.8 1.2-2.6 0.3 0.4 0.6 0.7 1 1.1 0.1-0.3 0.1-0.5 0.2-0.8 0.2-0.4 0.8-0.5 0.8-1.1-0.1-0.5-0.1-0.9-0.2-1.4 0.7-0.3 1.3-0.8 2.2-0.3 0.4 0.2 0.4 0.1 1-0.5-0.1-0.2-0.2-0.4-0.4-0.5-0.4-0.3-0.6-0.7-0.3-1.2 0.2-0.4 0.4-0.8 1-0.8 0.6 0 1 0.2 1.1 0.8 0 0.1 0.1 0.2 0.3 0.4 0.8-0.4 1.5-0.8 2.4-1.4-0.6-0.4-0.9-0.6-1.3-0.8 0.1-0.6-0.3-1.2 0.5-1.6-0.3-0.1-0.5-0.3-0.8-0.3-1-0.1-2.1-0.3-3-0.7-0.2-0.1-0.5-0.2-0.6-0.2-0.5 0.1-1.1 0-1.6 0-0.5-0.1-1-0.2-1.5-0.3-0.4-0.1-1 0.2-1.2-0.4 0-0.1-0.2-0.1-0.2-0.1-0.6 0.8-1.3-0.2-2 0.1-0.2 0.1-0.7-0.2-1.2-0.4-0.2 0.1-0.5 0.2-0.8 0.3-0.4 0.1-0.7 0.2-1-0.2-0.1-0.1-0.1-0.2-0.2-0.2-0.5-0.3-1 0.6-1.5 0-0.5-0.5-1-0.5-1.5-0.2-0.6-0.5-1.1-1.3-2-1.1-0.6-0.6-1.4-0.5-2.2-0.7-0.8 0.4-1.1 1.5-2.2 1.6-0.1 0-0.3 0.6-0.3 0.6 0.6 0.4-0.2 0.8 0.1 1.1-0.8 0.5-1.5 0.8-2.4 0.4-0.1 0.2-0.2 0.5-0.2 0.7-0.1-0.1-0.2-0.2-0.4-0.3-0.5 0.6-1.1 0.2-1.7 0.4-0.2 0.1-0.4 0.2-0.6 0.3 0.1 0.3 0.2 0.5 0.3 0.8 0.1 0.8-0.5 1.4-1.2 1.2-0.4-0.1-0.7-0.2-1.1-0.3-0.1-0.8 0.2-1.4 0.9-2.1-0.6 0-1.3 0.1-1.8-0.1-0.6-0.3-1.1 0.1-1.7 0.1-0.6 0-1.2 0-1.9 0.1 0.3 0.2 0.7 0.3 0.9 0.5 0.1 0.2 0.1 0.6 0 0.9-0.2 0.6-1.1 1-1.8 0.7-0.5-0.2-0.6-0.8-0.3-2-0.1-0.1-0.2-0.2-0.3-0.2-1.5 0.2-2.9-0.1-4.3 0-0.2 0-0.4 0.2-0.6 0.3l0 0z"/><path d="m1.3 61.3c0.1-0.5 0.2-1 0.3-1.5 1.4-0.7 1.9-0.6 2.3 0.2 0.3 0.7 0.1 1.8-0.4 2.1-0.9 0.5-1.3 0.4-2.2-0.9"/><path d="m47.7 104c-0.3-0.6-0.5-1.1-0.6-1.5-0.2-0.6 0-1 0.6-1.1 0.5 0 0.9 0 1.4 0 0.5 0 0.8 0.5 0.9 0.9 0 0.4-0.1 0.9-0.7 1-0.5 0.1-1 0.4-1.6 0.6"/><path d="m97.2 150.3c-0.7 0.7-1.5 0.7-2.3 0.3 0-0.1-0.1-0.2-0.2-0.4-0.2-0.9 0.1-1.7 0.8-1.9 0.9-0.3 0.9 0.6 1.3 1 0.2 0.3 0.3 0.7 0.4 1"/><path d="m9.1 74c-0.2 0-0.3 0-0.5 0-0.2 0-0.4 0-0.6 0-0.2-0.8-1.2-1.5-0.2-2.5 0.2 0 0.6 0 0.9 0 1.1 0 1.5 0.7 0.9 1.7-0.2 0.3-0.4 0.5-0.6 0.8"/><path d="m41.6 101.9c0.2-0.2 0.5-0.4 0.7-0.4 0.5 0.1 1.2 0.2 1.3 0.5 0.2 0.5 0.2 1.1 0 1.7-0.1 0.5-0.8 0.4-1.1 0.3-0.4-0.2-0.7-0.5-0.9-0.9-0.1-0.3 0-0.7 0-1.1"/><path d="m94.2 134.9c0 0.7-0.2 1-1 1-0.7 0-1.2-0.5-1.2-1.2 0-0.8 0.5-1.4 1.2-1.4 0.7 0 1 0.5 1 1.5"/><path d="m88.6 171.8c-0.5 0.1-1 0.3-1.4 0.3-0.6 0-0.9-0.5-0.7-1 0.3-0.7 0.7-1.4 1.5-1.8 0.6 0.7 0.7 1.5 0.6 2.6"/><path d="m93.5 162.9c0.4 0.5 0.7 0.9 1.1 1.4-0.4 0.7-0.5 1.5-1.4 1.9-0.3-0.6-0.6-1.2-1-1.7 0.3-0.7 0.6-1.3 1.3-1.6"/><path d="m14.3 83.5c1.2 0.6 1.2 0.7 1 1.4-0.1 0.4-0.1 1.1-0.8 1.1-0.5 0-1.4-0.4-1.5-0.7-0.4-1.2 0.8-1.2 1.3-1.8"/><path d="m32 101.2c0.2 0.5 0.3 0.8 0.4 1.1 0.1 0.3 0.1 0.6 0.1 1-0.7 0.6-1.5 0.4-2.3 0-0.4-0.2-0.5-0.5-0.2-0.9 0.4-0.6 1.1-0.9 2-1.2"/><path d="m5.2 68.4c0.5 0.2 1 0.3 1.4 0.5 0.5 0.3 0.6 0.9 0.5 1.3-0.2 0.4-0.7 0.8-1.2 0.7-0.1 0-0.3 0-0.4-0.1-0.3-0.5-0.7-0.9-0.8-1.4-0.1-0.3 0.3-0.7 0.5-1.1"/><path d="m89.2 124.8c0.9-0.1 1.7-0.3 2.3 0.8-0.2 0.3-0.4 0.7-0.7 1-0.2 0.2-0.7 0.4-1 0.3-0.3-0.1-0.5-0.5-0.6-0.8-0.1-0.4 0-0.8 0-1.3"/><path d="m89.9 118.4c0.6 0.5 1.1 0.9 1.6 1.3-0.1 0.5-0.2 0.9-0.8 0.8-0.2 0-0.4-0.2-0.4 0.1 0 0.3-0.2 0.6-0.5 0.5-0.2-0.1-0.6-0.3-0.6-0.4-0.1-0.8-0.3-1.7 0.7-2.2"/><path d="m61.5 104.5c0.7-0.6 1.5-0.3 2.2-0.3 0.2 0.4 0.3 0.8 0.5 1.1-0.1 0.2-0.3 0.5-0.4 0.7-0.2-0.4-0.4-0.1-0.6-0.1-0.3 0-0.6-0.1-1-0.2-0.2-0.4-0.4-0.8-0.7-1.3"/><path d="m94.2 139.7c0.2 0.8 0.4 1.4-0.1 2-0.2 0.2-0.5 0.4-0.8 0.4-0.4 0-0.5-0.3-0.5-0.7 0-0.7-0.2-1.4 0-2.2 0.5 0.2 0.9 0.3 1.3 0.5"/><path d="m21 96.7c-0.4 0.3-0.7 0.5-1.1 0.7-0.8-0.2-1-0.8-1.2-1.4 0.3-0.6 0.7-0.9 1.3-0.8 0.7 0.2 0.9 0.7 1 1.4"/><path d="m59.1 101.4h1.2c0.3 0.8 0.4 1.5-0.3 2-0.2 0.2-0.6 0.2-0.8 0.1-0.3-0.1-0.5-0.3-0.5-0.8 0-0.5 0.2-0.9 0.4-1.3l0 0"/><path d="m89.3 167.4c0.3-0.3 0.6-0.6 0.9-0.9 1.2 0.7 1.3 1.1 0.7 2-0.4 0.6-0.9 0.7-1.2 0-0.2-0.3-0.2-0.7-0.4-1.2"/><path d="m95.7 160.4c1.1 0.4 1.1 0.4 1.6 1.7-0.6 1-1.3 0-2 0.2-0.1-0.7 0-1.3 0.4-1.9"/><path d="m84.4 174.9c-0.4-0.8-0.3-1.4 0.2-2 0.4-0.4 1-0.3 1.2 0.3 0.3 0.9 0 1.3-1.5 1.7"/><path d="m23.9 99.5c-0.8 0.6-1.4 0.5-2 0.2-0.5-0.2-0.3-0.7-0.3-1.1 0.4-0.2 0.8-0.4 1.3-0.7 0.3 0.5 0.6 0.9 1 1.5"/><path d="m37 103.6c-0.2-0.2-0.6-0.4-0.6-0.7-0.1-0.4-0.1-0.8 0-1.2 0.1-0.4 0.7-0.5 1.2-0.2 0.4 0.3 0.6 0.9 0.3 1.3-0.2 0.3-0.5 0.5-0.9 0.8"/><path d="m100 158.8c0-0.1 0 0-0.1 0.1-0.3 0.5-0.7 0.7-1.2 0.6-0.2 0-0.5-0.4-0.5-0.7-0.1-0.6-0.2-1.3 0.9-1.5 0.2 0.3 0.5 0.8 0.9 1.4"/><path d="m53.2 102.1c0.5-0.2 0.9-0.4 1.2-0.4 0.2 0 0.5 0.1 0.7 0.3 0.3 0.2 0.1 0.5-0.1 0.7-0.2 0.2-0.3 0.5-0.5 0.6-0.4 0.1-0.8 0.1-1.1-0.1-0.2-0.1-0.1-0.6-0.2-1"/><path d="m95.8 156.8c-0.7-1.1-0.7-1.3 0-2.2 1.3 0.8 1.3 1.2 0 2.2"/><path d="m57.9 105.8c-0.6 0-1.2-0.1-1.8-0.1v-1.1c0.7-0.5 1.2 0.1 1.9 0.2 0 0.3-0.1 0.7-0.1 1"/><path d="m10.2 81.8c0.4-0.3 0.7-0.6 1-0.8 0.3-0.1 0.7-0.1 0.9 0.3 0.2 0.3 0.2 0.6-0.1 0.9-0.3 0.3-0.6 0.7-1 0.4-0.3-0.2-0.5-0.5-0.9-0.8"/><path d="m68.9 105.3c0 0.5-0.3 0.8-0.7 0.8-0.4 0-0.7-0.3-0.7-0.9 0-0.5 0.3-0.8 0.8-0.8 0.5 0 0.7 0.3 0.7 0.9"/><path d="m17.2 94.3c-0.3-0.7-0.6-1.4-0.9-2.1 1.3 0.5 1.4 0.8 0.9 2.1"/><path d="m50.6 104.8h1.3c-0.1 0.3-0.1 0.7-0.2 0.7-0.5 0.2-1 0-1.1-0.7"/><path d="m90.5 130.9c0.7 0.4 0.7 0.4 0.3 1.6-0.3-0.5-0.5-0.9-0.3-1.6"/><path d="m0.5 57.2c0.3 0.4 0.5 0.5 0.7 0.8-0.3 0.2-0.6 0.4-1.1 0.8 0.2-0.6 0.3-1 0.5-1.6"/><path d="m141.3 74.4c0.7-0.4 1.6-0.5 1.9-1.4-0.5-1.9-1.7-3.3-3-4.7-1.3-1.4-2.8-2.5-4.4-3.8-0.2 0.3-0.5 0.5-0.7 0.7 0.4 0.7 0.3 1.4 0.8 1.8 0.1 0.1-0.1 0.6-0.1 0.6-0.5 0-0.6 0.5-0.9 0.8-0.4 0.3-0.9 0.2-1.2-0.1-0.2-0.2-0.2-0.4-0.4-0.6-0.5 0.4-1 0.8-1.5 1.2 0.4 0.2 0.6 0.3 0.9 0.4 0.1 0.6 0.3 1.3 0.4 2-0.7 0.2-1.2 0.3-1.8 0.4-0.3-0.3-0.5-0.7-0.7-0.9 0.2-0.4 0.4-0.7 0.5-0.9-0.6 0.7-1.7 0.9-1.9 1.7 0.4 0.3 0.8 0.5 1.1 0.8 0.4 0.4 0.7 1 1.2 1.2 0.7 0.4 1.3 0.7 1.3 1.6 0 0.1 0.1 0.3 0.2 0.3 0.5 0.5 1.1 0.9 1.6 1.4 0.2 0.1 0.4 0.3 0.4 0.5 0 0.9 0.8 1.4 1.1 2 1.4 0.1 0.9-1.4 1.7-1.7-1.2-0.8-1.3-0.9-0.9-2.4 0.2 0 0.5 0 0.8 0 1.2 0 1.3 0.1 1 1.3 0 0.1 0.1 0.2 0.1 0.2 0.2-0.1 0.5-0.3 0.7-0.4 0.8-0.3 1.6-1.1 2-2l0 0zm6.4-1.7c-0.3 1.3-0.9 2.3-2 3-0.6 0.4-1.3 0.5-1.5 1.3-1.2 0.6-1.8 2-3.1 2.5-0.2 0.1-0.4 0.3-0.5 0.5-0.1 0.7-0.7 1.1-1.2 1.3-0.5 0.2-0.7 0.6-1 1-0.7 0.2-1.3 0.3-2 0.5 0.2 0.6 0.2 0.6-1 1.1-0.6-0.2-0.9-0.5-1.2-1.1-0.3-0.6-0.6-1.2-0.9-1.8-0.8-1.3-1.7-2.6-2.7-3.7-0.9-1.1-2-2-3.1-3-0.4-0.3-0.8-0.6-1.2-0.9-0.8-0.5-0.9-0.9-0.9-1.9 0.1-1.1 0.5-1.8 1.3-2.5 0.3-0.3 0.8-0.7 0.8-1.4 0-0.3 0.4-0.8 0.8-0.9 0.9-0.4 1.8-0.6 2.6-0.9 0.4-0.7 0-1.1-0.3-1.5 1.1-1.2 1.1-1.2 1.7-0.6 0.3-0.3 0.6-0.5 0.9-0.8 0.3-0.2 0.5-0.5 0.8-0.7 0.2-0.2 0.5-0.3 0.7-0.4 0.1-0.1 0.3 0 0.4-0.1 0.4-0.2 0.8-0.5 1.3-0.8 0.7 0.5 1.3 1.1 2 1.5 1.2 0.7 2.1 1.7 3 2.7 0.7 0.8 1.6 1.3 1.9 2.3 0.1 0.2 0.4 0.4 0.5 0.6 0.5 0.6 1.4 0.9 1.2 1.9 0.6 0.5 0.8 1.3 1.2 1.9 0.2 0.3 0.8 0.5 1.3 0.8z"/><path d="m35.8 54.1c-0.8-0.5-0.8-0.5-0.1-1.2-0.1 0.3-0.1 0.5-0.1 0.7 0 0.2 0.2 0.4 0.2 0.5"/><path d="m109.2 66.8c-0.5 0.6-1 1.2-1.5 1.7-0.3-0.3-0.6-0.5-0.9-0.8-0.5-0.4-0.7-1.1-0.4-1.6 0.3-0.5 0.7-1 1.4-1 0.6 0 1.1 0.2 1.4 0.9 0.1 0.2 0.1 0.4 0.1 0.7"/><path d="m103.4 60c0.3 0.9-0.4 1.2-0.7 1.8-0.1 0.1-0.3 0.2-0.5 0.2-0.7 0.2-1.3-0.1-1.5-0.6-0.4-0.7-0.4-1.4 0-1.8 0.4-0.4 1.4-0.5 1.9-0.2 0.3 0.1 0.5 0.4 0.8 0.6"/><path d="m105.8 71.4c-0.4-0.1-0.7-0.3-1.1-0.4-0.3-0.1-0.7-0.2-1-0.4-0.7-0.5-0.8-1-0.4-1.6 0.4-0.6 1.1-0.9 1.7-0.7 0.5 0.2 1 1 0.8 1.7-0.1 0.5-0.4 0.9-0.1 1.5"/><path d="m105.9 62.8c0.1 1.3-0.2 2-1 2.3-0.5 0.2-1-0.1-1.3-0.5-0.5-0.7-0.5-1.5-0.1-1.9 0.8-0.7 1.6-0.4 2.4 0.1"/><path d="m100.1 57.8c0 1.1-0.2 1.3-0.9 1.3-1.1 0-1.6-0.4-1.6-1.3 0-0.9 0.6-1.5 1.5-1.5 0.6 0 1 0.6 1 1.5"/><path d="m89.6 56c-0.9-1-0.6-1.9 0.1-2.8 0.5 0 1.1-0.2 1.5 0.5 0.3 0.6 0.4 1.4 0.1 2-0.4 0.7-1.2 0.2-1.7 0.3"/><path d="m114.5 69.9c0.5-1.8 0.5-1.9 1.8-1.9 0.2 0.3 0.4 0.5 0.6 0.8 0.3 0.5 0.3 1.2-0.2 1.6-0.3 0.4-0.7 0.5-1.1 0.2-0.3-0.2-0.7-0.4-1.1-0.6"/><path d="m96 53.2c0.5 0 1.2 0.8 1.3 1.5 0 0.5-0.8 1.3-1.4 1.3-0.6 0-1.2-0.5-1.2-1.1 0-0.9 0.6-1.7 1.2-1.7"/><path d="m86.3 54.8c-0.3 1.3-0.4 1.5-1.3 1.4-0.8 0-1.3-0.5-1.5-1.2-0.1-0.6 0.5-1.4 0.9-1.1 0.5 0.5 0.6-0.1 0.9-0.1 0.4 0.3 0.7 0.7 1 1"/><path d="m109 69.5c0.3-0.4 0.7-0.8 1-1.3 0.7-0.1 1.2 0.3 1.4 1 0.4 1-0.5 1.4-0.9 2.1-1-0.5-1-0.5-1.6-1.8"/><path d="m111.6 73.5c-0.1-0.4 0.4-0.6 0.2-1.1-0.2-0.6 0.5-0.9 1.1-0.8 0.1 0 0.2 0.1 0.2 0.1 1.1 0.3 1.1 0.3 1 1.6-0.8 0.6-1.7 1.2-2.6 0.1"/><path d="m107.9 71c0.4 0.3 0.8 0.6 1.2 0.9-0.4 0.7-0.6 1.4-1.4 1.7-0.6 0.2-1 0.2-1.3-0.3-0.3-0.4-0.2-0.9 0.2-1.4 0.1-0.1 0.1-0.1 0.2-0.2 0.3-0.2 0.7-0.5 1.1-0.8"/><path d="m110.1 74.1c1.4 0.2 1.4 0.2 1.9 1.5-0.7 1.2-1.1 1.3-2 0.8-0.6-0.4-0.6-0.9 0.1-2.2"/><path d="m86.7 52.5c0.2-0.6 0.7-0.9 1.2-1.2 0.3-0.2 0.7-0.2 0.8 0.2 0.1 0.2 0.1 0.6 0.1 0.9 0 0.1-0.1 0.1-0.2 0.2-1.1 1.4-1.1 1.1-2 0"/><path d="m131.3 157c-0.2 0.5-0.4 0.9-0.6 1.3-0.7 0.4-1.3 0-1.9-0.2-0.2 0-0.3-0.2-0.4-0.3-0.3-0.5 0.1-1.3 0.9-1.9 0.5-0.4 1.1-0.3 1.5 0.1 0.3 0.3 0.4 0.7 0.6 1"/><path d="m134.1 155c-1.5 0.7-2 0.5-3-0.8 0.3-0.9 1.1-1 1.8-1.3 0.5-0.1 1.1 0.3 1.2 0.9 0.1 0.4 0 0.7 0 1.2"/><path d="m126.3 146.8c0.3 0.1 0.7 0.1 1.1 0.3 0.6 0.2 1.1 1 1 1.5-0.1 0.5-0.9 1-1.5 1-0.7 0-1-0.3-0.9-1 0-0.6-0.5-1.3 0.3-1.8"/><path d="m128.8 146.3c-0.1-0.4-0.1-0.8-0.2-1.2-0.2-0.4-0.2-0.8 0.2-1.1 0.4-0.2 1.2-0.1 1.4 0.1 0.5 0.5 0.7 1.9 0.4 2.5-0.2 0.4-0.6 0.5-0.9 0.3-0.3-0.1-0.5-0.4-0.9-0.6"/><path d="m128.6 138.1c0.3 0 0.5-0.1 0.8-0.1 1 0 1.3 0.3 1.3 1.3 0 0.8-0.2 1.3-0.7 1.5-0.4 0.2-0.8 0-1.4-0.5v-2.2"/><path d="m131 136.7c0-0.6 0.6-1.5 1.2-1.6 0.5-0.1 1.1 0.2 1.2 0.6 0.2 0.7 0 1.4-0.6 1.6-0.3 0.1-0.6 0.1-0.9 0.1-0.7 0.1-0.9 0-0.9-0.7"/><path d="m131 151.6c0 0.1-0.1 0.5-0.4 0.8-0.3 0.5-0.8 0.3-1.2 0.2-0.5-0.1-0.7-0.4-0.6-0.9 0.1-0.4 0.1-0.8 0.3-1.2 0.2-0.5 1-0.7 1.4-0.5 0.5 0.2 0.5 0.7 0.5 1.5"/><path d="m135.5 153.3c-0.6-0.8-1-1.3-1.4-1.9 0.2-0.4 0.3-0.7 0.5-1 0.1-0.2 0.4-0.5 0.5-0.5 0.2 0 0.4 0.3 0.6 0.5 0.3 0.4 0.5 0.8 0.8 1.4-0.3 0.4-0.6 0.9-1 1.6"/><path d="m126.7 137.5c-0.5-0.4-0.9-0.8-1.3-1.2 0.3-0.7 0.9-1.1 1.6-1.4 0.6 0.3 1 0.8 1 1.6 0 0.5 0 0.5-1.3 1"/><path d="m133 147c0.7 0.6 0.5 1.4 0.5 2.1-0.7 0.4-1.3-0.1-1.8-0.2-0.5-0.2-0.4-0.7-0.4-1.1 0-0.4 0.3-0.7 0.7-0.7 0.4 0 0.7 0 1 0"/><path d="m134.4 146.3c0-0.5-0.1-1.1 0-1.6 0-0.7 0.4-0.9 1.1-0.6 0.2 0.1 0.5 0.3 0.7 0.4 0.2 1.6-0.2 2-1.8 1.8"/><path d="m126 153.4c1-0.5 1.4 0.2 2 0.4 0.5 0.2 0.3 1.4-0.2 1.5-0.5 0.1-1 0-1.5 0-0.1 0-0.2-0.2-0.2-0.3 0-0.5 0-1.1 0-1.6"/><path d="m126.1 142.4c0.2-0.3 0.3-0.6 0.5-0.8 0.3-0.5 0.9-0.6 1.3-0.2 0.4 0.3 0.4 0.9 0.1 1.4-0.2 0.2-0.5 0.1-0.4 0.6 0.1 0.3-0.7 0.5-1 0.2-0.2-0.3-0.3-0.7-0.5-1.1"/><path d="m131.6 141c0.8 0.7 2 0.4 2.2 1.7-0.5 0.2-0.9 0.3-1.4 0.4-0.5 0.1-0.9-0.1-0.9-0.7 0-0.4 0-0.8 0.1-1.4"/><path d="m130.8 133.6c-0.3 0.4-0.6 0.7-0.9 1.1-0.5-0.2-1-0.5-1.4-0.7 0.8 0.2 1.4-1 2.3-0.4"/><path d="m134.9 74.9c-1.4-0.6-1.6-1-1.4-2.1 0.1-0.6 0.4-0.8 1-0.6 0.5 0.2 1.1 0.2 1.2 0.9 0.1 0.8 0 1.4-0.8 1.8"/><path d="m136.1 69.6c0.4-0.1 0.7-0.3 1-0.4 0.8-0.2 1.6 0.4 1.5 1.2 0 0.6-0.5 0.9-1.2 0.9-0.4 0-0.9-0.1-1.4-0.1v-1.5"/><path d="m141.3 74.3c-0.3 0-0.6 0-0.8 0-0.8-0.1-1-0.3-0.9-1.2 0-0.4 0-0.7 0.1-1.1 0.6-0.2 1.2-0.3 1.5 0.2 0.3 0.5 0.7 1.1 0.2 1.8-0.1 0.1 0 0.3-0.1 0.4l0 0"/><path d="m197.5 31.5c0 0-0.1 0-0.1 0 0 0 0 0 0 0.1 0 0 0.1 0 0.1 0 0 0 0 0 0-0.1zm8.1 0c0 0-0.1 0.1-0.1 0.1 0 0 0 0.1 0.1 0.1 0 0 0.1 0 0.1 0 0 0-0.1-0.1-0.1-0.1zm-6.2 0c0 0-0.1 0-0.1 0 0 0.1 0 0.2 0 0.4 0 0 0.1 0 0.1 0l-0.1-0.4zm6 1.5c0 0-0.1 0.1 0 0 0 0.1 0 0 0 0l0 0 0 0zm2.4-6.9 0 0 0 0c0-0.1 0-0.1 0 0-0.1-0.1 0 0 0 0zm-0.7 4.9 0 0 0 0c0 0.1 0.1 0.1 0 0 0.1 0.1 0 0 0 0zm-3.2 10c-0.3-0.6-0.7-1.3-0.5-2.1 0-0.1 0-0.2 0-0.2-0.3-0.8 0-1.7 0-2.5 0-0.5 0-0.9 0-1.4 0-0.5-0.1-0.9-0.1-1.5-0.1 0-0.4-0.1-0.5-0.1-0.3 0.6-0.5 1.1-0.9 1.5-0.4 0.6-1 1.1-1.5 1.6-0.4 0.4-0.9 0.9-1.3 1.3-0.5 0.1-0.5-0.3-0.7-0.6-0.1-0.3-0.2-0.6 0-0.8 0.5-0.6 1-1.2 1.5-1.8 0.5-0.5 1-1 1.2-1.8l0 0 0 0c-1 0-2 0.1-3-0.1-0.6 0.5-1.4 0.3-2.2 0.3-0.5 0-1 0-1.7-0.1 0.1 0.1 0 0-0.1 0-0.2-0.2-0.5-0.3-0.4-0.7 0.1-0.3 0.6-0.9 0.9-0.9 0.7 0 1.4-0.3 2.1 0 0.2 0.1 0.6-0.1 0.9-0.2 0.2-0.1 0.4 0 0.4 0.2 0 0.1-0.1 0.2-0.1 0.2 0 0 0.1 0 0.1 0 0-0.1 0-0.2 0-0.3 1.1-0.1 2.3-0.2 3.5-0.3 0.2 0 0.5 0.1 0.7 0.2-1-0.9-1.9-1.7-2.9-2.6 0.1-0.4 0.2-0.8 0.3-1.2h1c0 0 0.1 0.2 0.2 0.3 0 0 0 0 0 0 0 0 0 0 0-0.1 0.5-0.1 0.7 0.2 1 0.5 0.2 0.3 0.4 0.6 0.6 0.8 0.1 0.1 0.3 0.1 0.5 0.2 0.4-0.6 0.3-1.1 0-1.6 0.2-0.5 0.6-1.1-0.1-1.6 0.3-0.4 0.4-0.9 0.2-1.4-0.1-0.3-0.1-0.6-0.1-0.9 0-0.8 0.4-1.2 1.2-1.3 0.6 0.4 0.9 1 1 1.9-0.2 0.3-0.2 0.7-0.1 1.2 0.1 0.5 0 1-0.1 1.6-0.1 0.5 0 0.9 0.3 1.4 0.5-0.5 1-1 1.4-1.5 0.4-0.4 0.6-0.9 1.1-1.2 0.2-0.1 0.3-0.5 0.5-0.7 0.2-0.2 0.5-0.4 0.8-0.6 0.9 0.6 0.9 1.2 0.3 1.8-0.4 0.4-0.6 1-1 1.3-0.7 0.5-0.8 1.4-1.6 1.9-0.6 0.4-0.9 1-1.2 1.9 0.3-0.3 0.5-0.5 0.7-0.6 0.9 0.2 1.8-0.4 2.8-0.2 0.1-0.1 0.4-0.2 0.7-0.3 0.1 0 0.3 0.2 0.4 0.3 0.1-0.1 0.5-0.2 0.6-0.2 0.2 0.5 0.4 1 0.6 1.5-0.6 0-1.2 0-1.8 0-0.2 0-0.4 0.1-0.6 0.2-0.2 0.1-0.3 0.2-0.5 0.2-0.7-0.1-1.4 0.3-2.1 0.3 0 0 0 0-0.1 0.1-0.1 0-0.2 0.1-0.3 0.1 0 0.1 0.1 0.1 0.1 0.2 0.1-0.1 0.1-0.2 0.2-0.3 0.2 0.1 0.3 0.3 0.5 0.4 0.4 0.5 0.8 1.1 1.3 1.8-0.3-0.1-0.4-0.1-0.6-0.2l0 0 0 0c0 0.4 0.2 0.7 0.6 0.9 0.2-0.1 0.4-0.2 0.7-0.4 0.1 0.1 0.2 0.2 0.4 0.4-0.5 0.4-0.6 0.9-0.2 1.6-0.4-0.2-0.8 0-0.8-0.5l0 0 0 0c-0.5-0.2-0.8-0.5-0.7-1.1-0.3 0-0.6-0.1-1-0.1-0.2-0.6-0.6-1-1.2-1.3 0.1 0.6 0.1 1.4 0.2 2.1 0 0.3-0.1 0.6-0.1 1-0.1 1 0 2 0 3 0 0.2-0.2 0.5-0.4 0.6-0.2 0.2-0.5 0.2-0.7 0.4h-0.3z"/><path d="m213.9 30c-0.3 0.3-0.4 0.7-0.2 1.2h-0.5c0 0.1 0.1 0.2 0.1 0.4-0.2 0-0.3-0.1-0.5-0.1v-0.8c0.2-0.1 0.4-0.2 0.5-0.4 0.1-0.1 0.1-0.3 0.2-0.5 0.2 0 0.3 0 0.5 0.1v0.2"/><path d="m186.3 15.7c0 0-0.1 0-0.1 0.1 0.1 0.1 0.1 0.2 0.2 0.3 0 0 0.1 0 0.1-0.1-0.1-0.1-0.1-0.2-0.2-0.3zm-5.8 6.4c0.1 0 0.1 0 0.2 0 0.2-0.5 0.3-0.9 0.5-1.4 0.1-0.3 0.2-0.6 0.5-0.8 0.4-0.2 0.6-0.6 0.4-1.1h-1.3c-0.1 1.1-0.1 2.2-0.2 3.3zm2.9-2.3c0.1 0.8-0.4 1.4-0.7 2-0.5 0.8-0.8 1.6-1.1 2.4-0.3 0.8-0.4 1.7-0.7 2.4-0.2 0.5-0.3 1-0.3 1.5 0 0.6-0.2 1.1-0.3 1.7-0.1 0.7-0.2 1.5-0.4 2.2-0.1 0.4-0.3 0.7-0.7 0.9-0.6 0.3-1.1 0.1-1.1-0.6 0-0.1 0-0.2 0-0.2 0.4-0.7 0.2-1.5 0.2-2.3 0-0.6 0-1.3 0.2-1.9 0.1-0.5-0.1-1 0-1.5 0.1-1 0.2-1.9 0.2-2.9 0-0.5 0.1-0.9 0.1-1.4 0-1.1 0-2.1 0.1-3.3-0.4-0.2-0.9-0.4-1.4 0.1-0.3 0.3-0.6 0.5-0.9 0.7-0.7 0.5-1.6 0.5-2.4 0.6-0.4 0.1-0.9-0.3-1.3-0.5-0.4-0.1-0.8-0.2-1.2-0.4-0.5-0.3-0.9-0.6-1.3-1.1-0.2-0.2-0.1-0.6-0.2-1.1 0.5 0.3 0.8 0.1 0.9-0.4 0.7 0.6 1.4 1.2 1.9 1.7 0.5-0.1 1-0.1 1.6-0.2-0.5-0.8-1.2 0-1.7-0.5 0-0.1 0-0.2 0-0.4 0 0 0.1 0 0.1-0.1 0 0 0-0.1-0.1-0.1l0 0 0.1 0v0.2c-0.2-0.1-0.4-0.1-0.6-0.3 0.2-0.3 0.3-0.6 0.5-1 1.5 0.2 3 0.1 4.4 0.4 0.8-0.8 1.1-1.8 1.6-2.7 0.5-0.9 0.5-2 0.7-3 0.1-0.3 0.1-0.7 0.2-1 0-0.4-0.1-0.8-0.1-1.2 0-0.7-0.1-1.5 0.1-2.2 0.2-1.1 0.2-2.1 0.1-3.2 0.1-0.2 0.4-0.5 0.4-0.7-0.1-0.8 0.2-1.6 0.5-2.3 0.7-0.3 0.7-0.3 1.2-0.1-0.4 0.8-0.4 0.8 0.6 1.3-0.2 0.1-0.4 0.1-0.5 0.1 0.1 1.3 0.7 2.5 0.5 3.7-0.1 0.8-0.1 1.7-0.2 2.5-0.1 0.3-0.3 0.7-0.4 1 0.2 0.4 0.2 0.9-0.1 1.3-0.1 0.1-0.1 0.3-0.1 0.5 0 0.5 0 1.1-0.4 1.6-0.1 0.1-0.1 0.4-0.1 0.6-0.1 0.6-0.2 1.3-0.2 1.9-0.1 0.7 0 1.5 0 2.2 0.9-0.1 1.9-0.1 2.8-0.2 0.2 0 0.5-0.1 0.7-0.2 0.6-0.4 1.2-0.8 1.8-1.2 0.6-0.5 1.1-0.3 1.7-0.1 0.5 0.2 0.5 0.4 0.3 1-0.2 0.4-0.4 0.8-0.6 1.2-0.5 0.3-1 0.6-1.4 0.8-0.4 0.2-0.8 0.1-1.3 0.2 0-0.1-0.1-0.1-0.1-0.2-0.2 0.3-0.4 0.6-0.6 0.9-0.2 0.3-0.5 0.6-0.9 0.6l0-0.1 0 0z"/><path d="m212 30.1c-0.1 0.4-0.1 0.6-0.2 0.9-0.6-0.6-0.5-0.7 0.2-0.9"/><polyline points="182.2 1.8 182.2 1.8 182.2 1.8"/><path d="m182.2 1.8c0 0-0.1 0-0.1 0 0 0 0 0 0 0.1l0 0"/></g></g></g></svg>
