<svg xmlns="http://www.w3.org/2000/svg" viewBox="0 0 178 238"><style>.a{fill:#1a1919}</style><title>  Group 2</title><g fill="none"><path fill="#383747" d="M60.6 20.3c-.4 1.1-.2 3.2.5 4.2.1 0 .3 0 .4-.1.9-.2.9-.2.9-1.3v-1.4c.1-.9 0-1.8 1-2.4-.4-.1-.7-.2-1-.3 0-.2-.1-.4-.2-.7-.2.2-.4.3-.5.5.3.3.6.6.8.9 0 .1 0 .1-.1.2-.3-.1-.6-.2-.7-.2-.4.2-.7.4-1.1.6m25.2 14.8c.1-1.2.5-2.3.2-3.5-.2-.1-.4-.4-.8-.7-.6.4-1.2.9-1.8 1.4-.1.1-.2.3-.2.5 0 1.1-.2 2.1.3 3.1 1.1.5 1.7-.2 2.3-.7zm-34.3.4c-.5.9-.9 1.6-1.3 2.3.3.6.7 1.3 1 1.8.4.1.7.3 1.1.3 1.6.2 2.5-.7 2.1-2.4-.4-1.4-1.7-1.5-2.8-2.1zM10.3 98c-.1-.9-.1-1.6-.1-2.2s-.1-1.3-.1-1.9c0-.5-.1-1 0-1.6.1-.5.1-1-.6-1.3-.6.8-.4 1.8-.8 2.6.5.8.1 1.3-.6 1.6.2.2.4.4.4.5.1.7.5 1.3.3 2-.4 1.3.3 2.4.5 3.6.1.3.4.5.8.9-.1-1.7-.3-3.2.4-4.4zm65.3 14.6c-.8.6-1.5 1.1-2.2 1.6.5.7 1.1 1.4 1.4 2.3s.2 1.8.3 2.8c1.1-.1 1.6-1.2 2.7-1.5-.4-1.9-.6-3.8-2.1-5.2zM57.6 16c-.2.7-.2 1.3-.5 1.8-.6 1.2-.5 2.5-1.1 3.7-.3.7 0 1.5 0 2.3.1 1.1.5 1.4 1.8 1.2.1-.5.1-1.1.2-1.7 0-.2-.1-.5 0-.6.5-.6.1-1.1-.3-1.6.2-.1.4-.1.6-.2-.2-.6-.4-1.1-.7-1.7.4.2.7.3 1 .5.1-.8.3-1.5.4-2.2 0-.1-.3-.2-.4-.4s-.3-.3-.4-.5c.3-.1.5-.1.7-.2v-.2c-.4-.1-.8-.1-1.2-.2zm22.2 101c.4-.4.7-.7 1-.9.2-.2.4-.4.6-.5.9-.2 1.4-.7 1.9-1.4.3-.4.9-.7 1.5-.9.3-.1.7.2 1.1.4.1 0 .2 0 .4-.1-.5-.5-.8-.9-1.3-1.3-.5-.3-.7-.7-.7-1.3 0-1-.6-1.7-1.3-2.3-1 .6-2.1 1.1-3.1 1.7-.6.3-1.1.6-1.7.9.1.3.1.5.2.6.7.3.9 1 1.4 1.5.9 1.1.3 2.2.2 3.5zM8 86.4c.9-1.2 1.8-2.3 2.6-3.4q.3-.45.3-.9c.1-1.4.1-2.9 1-4.2.2-.3.2-.7.2-.9-.9-.5-1.5-1.1-2.3-1.4s-1.7-.4-2.5-1.3c.4 1.1.1 2 .5 2.9 0 .1 0 .2-.1.3-.2.4-.2.7 0 1.1.1.2.1.6.1.9 0 .9-.2 1.7.1 2.6.1.2 0 .4 0 .6-.2 1.2-.4 2.4.1 3.7m87.2 18.1c-.2-.3-.3-.9-.7-1.1-1-.6-2.1-.9-3.2-1.4h-.4l-5.3 5.3c.7.4 1.3.9 2 1 .9.1 1.8-.1 2.7-.3 1.2-.3 2.3-.8 3.2-1.1.6-.9 1.1-1.5 1.7-2.4m33.4 67.8c.5-.7 1.1-.8 1.7-.8s.5.5.6 1c.8-.3 1.6-.4 2.2-.8 1.2-.7 2.4-1.3 3.1-2.6.1-.1.2-.2.3-.2 1.1-.6 1.7-1.6 2.2-2.7.1-.2.1-.7 0-.9-.2-.4-.5-.7-.8-1.1-.9.8-1.7 1.7-3 1.8-.2 0-.4.3-.5.5-.5.5-.9 1-1.4 1.4-.8.6-1.7 1.2-2.5 1.7l-1.5.9c-.7.4-1.3.9-2.2 1.4 1 .2 1.2 1.4 2.2 1-.1-.3-.3-.5-.4-.7zm-20.5 26.3c-.5.3-.9.6-1.4.9-.9.5-1.9.9-2.8 1.4-.6.3-1.1.7-1.7 1q-1.05.6-2.1.9c-.4.2-.9.3-1.3.4-.2 0-.4 0-.5.1-.8.7-1.7.6-2.7.8-.6.1-1.2.4-1.4 1.2.2 0 .4 0 .5.1.2.1.3.2.5.2 1.4.7 2.8 1.2 4.3.2.1-.1.4-.1.5-.1.7-.2 1.5-.5 2.2-.7 1.1-.3 2-1 3-1.6.6-.4 1.1-.8 1.7-1.2 1-.7 1.6-1.7 2-2.8-.2-.3-.4-.6-.7-.9zM78.9 65.2c4.4.5 4.3-.1 6-1.1v-2c-.8-.6-1.1-1.6-.9-2.6.2-1.3-.3-2.5-.3-3.8 0-.7-.2-1.6-1.2-2-1.3.4-2.7.9-4.1 1.4 0 .1 0 .3.1.4.5 1.5.8 3.1 1.1 4.6.1.5.1 1 .4 1.3.4.5.3 1 .1 1.5-.2.4-.5.8-.7 1.2-.2.3-.3.7-.5 1.1m7.3-37c1.2-1.2 1.4-1.7 1.2-3.5-.1-1 .1-2.1-.1-3-.3-1.4-.8-2.7-1.2-4.1-.1-.5-.3-1-.5-1.5-.4-1.2-.2-2.6-1.2-3.6-.1-.1-.1-.4-.1-.5-.2-.5-.5-1-.7-1.4-.1-.2-.3-.4-.4-.6-.2-.9-.8-1.5-1.6-1.9-.2-.1-.4-.3-.4-.4-.2-.6-.7-.7-1.1-.9s-.8-.4-1.2-.7c-.5-.3-1.5-.3-1.8 0-.5.5-.6 1.5-.2 2 .5.6.9 1.4 1.9 1.4.1.7.2 1.2 1 1.4.2.1.4.4.5.7.2.3.3.7.6 1 .7.9 1.1 1.8 1.3 2.9.1.7.2 1.4.5 2 .4.9.7 1.8.7 2.8 0 .2.1.3.2.5.2.8.4 1.6.7 2.4.4 1.2-.3 2.4.3 3.6.2.5.4 1 .8 1.3h1.2zM74 56.6c-.7-.1-1.3-.2-2-.3s-1.3.7-2 .2c-1.1.6-2.2 0-3.4.2-.9.1-1.2.2-.9 1 .5.9.4 1.9.8 2.8.3.7.5 1.5.7 2.2.4 1.7.9 3.4 1.3 5.1.1.2.3.3.4.5 1.1-.2 1.9-1.1 2.9-.7.5-.3.9-.6 1.2-.6.9-.1 1.7-.1 2.5-.5.3-.1.6-.1 1-.2-.1-.8-.3-1.6-.3-2.4-.1-1.8-1.3-3.3-1.2-5.1v-.1c-.3-.7-.6-1.4-1-2.1m-30.6 65.2c.5-.4.9-.7 1.3-1.1.6-.6 1.2-1.2 1.7-1.9.2-.2.1-.7 0-1.1-.1-.2-.6-.4-.6-.4-.5.5-1.2.3-1.8.4-.7.1-1.2.4-1.4.8-1 .5-1.9.7-2.7 1.2-.9.5-1.8.6-2.7.2-.7-.3-1.5-.5-2.3-.7-.7.8-1.6.8-2.4 1-1 .3-1.9.6-2.9 1-.6.2-1.1.6-1.7.9l-.8.8c-.9.7-1.6 1.6-1.4 2.9 0 .2-.1.4-.2.6-.2.4-.3.8-.1 1.3.1.2.1.5 0 .8-.2 1.1-.3 2.1.3 3.2.5.8 1 1.5 2 1.8.4-.3.9-.7 1.3-1 .2-.2.3-.4.5-.5.3-.3.8-.6 1-.9.4-.5.5-1.3 1.3-1.5.1 0 .2-.2.2-.4.2-.6.7-.9 1.3-1.1.2 0 .4-.2.6-.3.8-.8 2-1.1 2.6-2.1.1-.1.3-.1.5-.3.5-.5 1.3-.7 1.5-1.5.1-.4.6-.7 1.1-.6.8.1 1.6-.2 2.2-.7s1.2-.6 1.8-.8zm-.4 3.1c.4.5.8.5 1.2.3.7-.3 1.3-.3 2-.1.8.2 1.6.3 2.4.2.6 0 1.3-.4 1.8.2.1.1.3.1.4 0 .7-.4 1.4 0 2 0 .4 0 .9 0 1.3-.1 1.2-.4 2.4-.4 3.7-.5.6 0 1.2.1 1.7-.3.1-.1.5-.1.7 0 .5.1 2.2.2 2.6 0 .5-.1 1-.4 1.5-.5 1.2-.2 2.4-.5 3.4-1.2.1-.1.3-.1.5-.2.4-.1.7-.1 1-.3.9-.4 1.7-.8 2.5-1.3 0-1.9.4-4-1.3-5.5-.7.4-1.4.8-2 1.3-1.1 1-2.4 1.3-3.8 1.5-.7.1-1.4.4-2.2.6-.3.1-.5.2-.8.2-1.2 0-2.5.1-3.7.3-.6.1-1.4.7-2.1.1 0 0-.2 0-.3.1-.6.4-1.2.3-1.8.1-.8-.2-1.7.3-2.4-.2-.7.3-1.3 0-1.9-.2-1.3 2.8-3.8 4.2-6.4 5.5m95.8-74c.6.9.3 2.4 1.1 3.2 1 .7 1.5 0 2-.1 1 .4 1 .4 1.8-.1.2-.1.3-.2.5-.2 1.2-.1 2.3-.4 3.4-.9 1.4-.6 2.9-.7 4.2-1.6.4-.3.8-.4 1.3-.6 1-.4 1.7-1.4 1.6-2.5 0-.3-.2-.6-.3-.7-1.6-.2-2.9.3-4.2.7-.5.1-1 .3-1.4.7-.6.4-1.2.7-1.9.8-.8.1-1.4-.1-1.6-.8-.2-.6.2-1.2.8-1.5s1.3-.6 1.9-.9c.2-.1.3-.2.5-.2 1.5-.4 3-.9 4.5-1.2 1.2-.3 2.4-.3 3.4.3.2.5.3.9.6 1.2.7.6.9 1.2.5 2 0 .1.1.2.1.3 1.3-.6 2.5-1.3 3.8-1.9.2-.1.4-.3.5-.4.7-.8 1.7-1.4 1.7-2.7 0-.1.1-.1.1-.2.6-.9.7-1.9.5-3.1-.4.1-.8.1-1.2.2-.3 0-.6.1-.9.1-1.4 0-2.7.2-4 .7-.7.2-1.4.3-2.1.5-.6.2-1.2.2-1.6.8-.1.1-.2.1-.4.2l-1.8.6c-.9.3-1.8.5-2.7.9-1.2.4-2.4.9-3.6 1.3-1.1.4-2.2.6-3.2 1.2-1.1.6-2.3 1-3.6 1.6-.1.7-.1 1.5-.3 2.6zM23.2 82.7c.2-.7.3-1.5 1.2-1.8.2 0 .3-.3.4-.4.5-.6.9-1.2 1.4-1.7 1.2-1.2 2.1-2.6 3-4.1.4-.7 1-1.4 1.3-1.9.4-.9.7-1.6 1-2.3.7-1.5 1.8-2.8 1.8-4.7-.3-.4-.7-.8-1.3-.9-.6-.2-1.2-.7-1.7-1.1-.7-.5-1.4-1-2.1-1.6-.6-.5-1.2-1-2.1-.9-.4 0-.7-.1-.8-.5q0-.15-.3-.3c-.6-.4-1.2-.8-1.8-1.1-.3.4-.7 1.1-1.2 1.4-.7.5-1.1 1.2-1.3 1.9s-.6 1.2-1.1 1.6c0 .4 0 .7-.1.9-.4.4-.5.9-.5 1.4 0 .2-.1.4-.2.5-.9 1.2-1.1 2.5-1.5 3.9-.1.5-.3 1-.5 1.4-.7 2-1.6 4-1.8 6.2 1.3.8 2.4 2 3.9 2.6.2.1.3.3.5.4q1.2 1.35 2.7 1.8c.5-.3.9-.5 1.4-.8zM126.8 133c-.1-.2-.5-.5-.5-.7 0-1-.7-1.8-1.1-2.6-.6-1.3-1.3-2.7-2.6-3.6-.2-.1-.2-.4-.4-.7-.2-.4-.4-.9-.7-1.3-1-1.4-2.3-1.5-3.5-.3-.4.4-.7.5-1.2.5-.3 0-.7.2-1 .3-1.2.4-1.7 1.6-2.8 2.2-.6.3-.9 1.1-1.7 1.3-.1 0-.3.2-.4.4-.7 1-1.3 2-2 3-.4.7-.9 1.3-1.4 1.9-1.1 1.6-2.3 3-2.4 5.1 0 .2-.1.3-.2.5-.2.5-.4 1-.5 1.6s-.3 1.4-.1 1.9c.4.9.8 1.9 1.4 2.3 1 0 1.7-.1 2.4 0 .8.1 1.5-.1 2.2-.4 1.1-.5 2.2-1 3.4-.8 1-.6 2-1.2 3.2-1.3.7-.1 1.6-.1 2.1-.8.1-.1.4-.2.6-.2 1.2-.2 2.2-.8 3.2-1.4.3-.2.7-.5 1-.6 1.3-.3 2.1-1.3 2.9-2.1.7-.7.9-1.7.5-2.7l-.3-1.2zm-32.6 37c-.2-.8-.4-1.6-.8-2.4-.3-.8-1-1.4-1.7-1.8-.8-.5-1.7-.8-2.5-1.3-.6-.4-1.2-.5-1.9-.5-.5 0-1.1-.1-1.6-.1-.8 0-1.6-.1-2.4 0-.5 0-1 .1-1.5.2h-1.2c-.3.4-.5.6-.7.9-1.8-.1-3.3.7-4.5 1.9-.3.3-.7.4-1 .6s-.7.3-.8.5c-.4.7-.9 1.2-1.5 1.7-.5.4-.8.9-1.2 1.4-.2.3-.5.5-.4 1 0 .2-.1.6-.3.7-.5.2-.5.7-.6 1.1-.2 1.1-.4 2.3-.1 3.5.4 1.2 1.4 2 2.2 2.9.1.1.4.1.5.2.7.3 1.5.7 2.2 1 1 .5 2 .7 3.1.2.3.2.6.3.8.5 2.3.1 4.5-.2 6.4-1.1 2-.9 4-1.7 5.6-3.4 1.5-1.6 3-3.1 3.6-5.5 0-.3-.1-.8-.2-1.3.2-.2.3-.4.5-.6zm35 6.7c1 2.1 1.9 4.1 2.2 6.2.5 0 .9-.1 1.2-.1 1.1 0 2.3.1 3.4.2 1.2.1 2.4 0 3.5.3.1 0 .3.1.4.1 1.1-.1 2.2-.3 3.2-.4.8-.1 1.6.1 2.4-.2.1-.1.3 0 .4 0 .5.2.9.1 1.4 0 .2-.1.5 0 .8 0 .4 0 .9.1 1.3 0 1.2-.3 2.4-.5 3.7-.4.2 0 .5 0 .6-.1.6-.5 1.2-.4 1.9-.4.3 0 .7 0 1-.2.8-.5 1.7-.5 2.6-.7 1.4-.2 2.8-.6 4.3-.9 1-.2 2-.3 3.1-.4.7-1.5.7-2.1-.1-3.3.3-.5.2-1-.2-1.5s-.7-1.1-1.1-1.6-.8-1.1-1.2-1.6c-.2-.3-.4-.6-.7-.7-.6-.4-1.4-.6-2.1-.9-1.1-.4-2.1-.9-3.3-.9-.1 0-.3 0-.4-.1-.4-.4-.9-.3-1.4-.3s-1.1-.1-1.6.1c-.6.2-1-.1-1.3-.4-.7.1-1.4.1-2 .2-1.8.3-3.7.3-5.5 0-1.4-.2-2.7-.1-4.1-.1-.2.9-.7 1.5-1.4 2l-.4.4c-.8 1.5-1.9 2.8-3.4 3.7-1.1.6-2.1 1.2-3.3 1.2-.1 0-.3 0-.4.1-.9.8-2 .7-3.3.9zm-33.4 33.8c.1.8.2 1.7.3 2.5.1.6.3 1.2.2 1.8s.1 1 .3 1.5c.1.3.4.5.4.8.5 1.3.9 2.6 1.3 3.9s.9 2.4 1.7 3.5c.2.3.4.6.5 1 .2 1.1.8 2 1.7 2.6.8.6 1.7 1.1 1.7 2.3 0 .2.2.5.4.6.5.1.9.4 1.3.7.2.1.5.1.7.1.8-.1 1.6-.4 2.4-.4 1-.1 1.9-.9 3-.6.1 0 .4-.1.5-.2.5-.7 1.3-.8 1.9-1.2.6-.3 1.2-.7 1.7-1.2.5-.4.9-1 1.4-1.4.5-.5 1.1-.8 1.2-1.6.1-.4.3-.7.6-1 .5-.7.7-1.4.8-2.1-.7-1-1.4-1.9-2.1-2.8 0-.3.2-.6.1-.8-.4-1.1-.5-2.3-1.3-3.2-1-1.2-1.3-2.7-1.7-4.1 0-.2-.1-.4-.2-.5-.6-.5-1.1-1-.9-1.9 0-.1-.1-.2-.2-.3-.6-.8-1-1.8-1.8-2.5-.1-.1-.2-.3-.2-.5.1-.7-.4-1-.8-1.4-.3-.2-.4-.6-.6-.9 0 0-.1 0-.2.1-.8.9-1.3 2-2.4 2.6l-.3.3c-.4 1.1-1.3 1.5-2.3 1.9-.5.2-1.1.5-1.6.7-.2.1-.5.2-.7.1-.6-.1-1.1.2-1.7.4-.9.5-1.8 1.1-2.9.9-.7-.1-1.3.1-2.2.5zm14.9-59.5c.3 1.6 1.1 2.9 1.8 4.4.8-.2 1.4-.1 1.8.5-.3 1.2-.3 1.2-1.4 1.3 1.6 1.9 2.7 4.1 4.1 6.2.9 0 1 .1 1.1 1.1.1.4.2.8.3 1.3 1.1-.2 1.5.3 1.7 1.2.1.3.3.6.5.8.4-.1.7-.1 1-.2 3.2 2.3 3.2 2.3 3.9 2.2-.6-.5-1.1-1-.6-1.8 1.4-.1 1.5-.1 1.6 1.4.7-.5 1.3-1 1.9-1.5.7-.5 1.4-.9 2.1-1.3.1-.1.1-.2.2-.2.2-.3.4-.6.7-.8l2.4-1.5.3-.3c.3-.7 1-.9 1.6-1.2q.45-.3 1.2-.6c-.4-1.1-.7-2.2-1.1-3.2-.3-.7-.7-1.4-.7-2.3 0-.2-.1-.6-.3-.7-.9-.7-.8-1.9-1.1-2.8s-1-1.6-.9-2.6c0 0-.1-.1-.2-.1-.2-.3-.4-.6-.7-.9.2-.7-.1-1.3-.5-1.9-.2-.2-.3-.6-.4-.9-.1-.4-.1-1-.4-1.3-.7-.8-.7-1.7-.9-2.6s-.6-1.5-1.2-2.2c-.3.2-.7.3-.9.6-.2.4-.6.5-.9.7-.9.5-1.9.9-2.8 1.5-.4.2-2.2 1.2-2.6 1.2-.5.1-1 .2-1.4.6-.3.4-.8.5-1.3.2-.1-.1-.3 0-.4 0-.5.4-.9.8-1.4.9-2 .5-3.8 1.4-5.9 1.7-.3 0-.6.2-.9.3.3.5.5 1 .7 1.5.3-.3.5-.5.8-.7.5.6.5 1.3.6 2-.4.1-.8.1-1.3.2zM50.7 6.7c-.7.5-1.2 1-1.8 1.3-.9.4-1.5 1.1-2.2 1.8-1.2 1.2-2.3 2.5-3.4 3.7-.6.7-1.2 1.4-1.7 2.2-.4.6-.5 1.3-.7 2 .4.3.7.5 1 .7-.4 1-1.1.4-1.7.3-.1.4-.1.7-.2 1-.1.4-.1.8-.3 1-.5.8-.7 1.6-.5 2.5.5.3.9.5.9 1.3l-1.3 1.3s-.1.3-.1.5v.9c1.6.6 1.8.9 1.1 2.2-.4-.1-.8-.2-1.4-.4.2.9.3 1.7.5 2.5.7.1 1.2.4 1.3 1.2-.2.3-.3.6-.5.9h-.6c-.1.9 0 1.7.4 2.3.5.7.5 1.3.2 2.1.2.2.4.3.5.5.8-.9 1-1 1.4-.8.7.4.5 1.1.4 1.8-.4.2-.8.3-1.2.5.5 1.7 1.8 2.9 2.6 4.4.9-.1 1 .1.8 1.6.4.2.9.4 1.4.6v.3c.5.5.9 1 1.3 1.4s.8.7 1.3.6c.3 0 .7-.2 1-.1 1.8.7 3.7.9 5.6 1.6 1.4.5 2.8.7 4.3 1 1.2.3 2.6.1 3.5 1 .5 0 .8-.1 1.1-.1 1.1.2 2.2.1 3.3-.1 1.3-.2 2.6-.7 4-.3.2.1.4-.1.6-.1 1-.2 1.9-.4 2.9-.7 1.1-.3 2.2-.2 3.2-.8 1.1-.6 2.3-1 3.5-1.6.7-.4 1.4-.8 1.7-1.7.2-.7.4-1.4.6-2.2-.8.2-1.5.6-2.1.6-1.2 0-2.3.8-3.5.6-.1 0-.2.1-.4.2s-.5.1-.7.1c-.9.1-1.9-.4-2.7.5-.3-.1-.6-.2-1-.3-1 .2-2 .3-2.9.4-.1 0-.3 0-.3-.1-.7-.7-1.3-.3-2 .1-.5-.2-.9-.4-1.4-.7-.7.4-1.4.6-2.3.2-.8-.4-1.7-.4-2.6-.5-1-.1-2.1.2-2.7-.6-.6 0-1.1.1-1.3-.1-.9-.7-2-.9-2.9-1.5-1 .6-1.9.4-2.8 0-.8-.4-1.5-.9-2.3-1.3-.4-.2-.8-.4-.9-.8-.1-.2-.2-.4-.4-.5-.8-.5-.8-1.2-.8-2 0-1.2.6-2.3.9-3.5.3-1.1 1-1.7 2.1-1.9.5-.1.7-.3.8-.8-.7-.1-1.2-.4-1.4-1 .4-.9.8-1.8.2-2.8-.1-.2-.1-.6 0-.7.7-.9.2-1.9.6-2.9.3-.8.2-1.7.4-2.5.5-2.1 1.1-4.2 1.8-6.2.2-.5.3-1 .6-1.5.4-.7.8-1.5 1-2.2.2-.9.8-1.5 1.3-2.2.4-.6 1-1 1.4-1.6 1.1-1.7 2.7-2.9 4.5-3.8.6-.3 1.3-.6 1.9-.9-.1-.4-.1-.7-.2-1.2-.9.2-1.7.1-2.4.6-.7.6-1.3.7-1.9.1-1.5.4-2.8.8-4.2 1.1 0 .3.2.7.1.9-.3.7-1 .3-1.4.4-.2-.2-.4-.4-.6-.7-.4.3-.8.5-1.2.8 1.4.7 1.7 1.2 1.3 1.9-.3.6-.7.6-1.8 0 0-.4 0-.9-.1-1.5zm11.8 93.6.6-.3c.2-.1.5-.1.8-.1.6 0 1.7-.2 2.2-.5.2-.1.4-.1.6-.2.8-.1 1.7-.1 2.4-.4 1.3-.6 2.8 0 4-.9.1 0 .2.1.3 0 .9-.1 1.8.1 2.7-.4.5-.2 1.1-.3 1.6-.3 1.4.2 2.7-.1 4.1-.4 1.1-.3 2.2-.9 3.3-.9 1.2-.1 2.3-.4 3.4-.8.9-.3 1.7-.9 2.5-1.5.2-.1.3-.5.3-.8 0-.8.2-1.5-.1-2.4-.3-.7 0-1.6-.1-2.4 0-.2-.1-.4-.1-.5v-2c-.6-.3-.2-1-.3-1.6 0-.5.1-1-.3-1.5-.2-.2-.2-.6-.2-.9 0-.5.1-1.2-.1-1.6-.5-.7-.4-1.2.2-1.8-.8-.5-.7-1.3-.8-2.1 0-.5-.2-1.1-.4-1.6-.3-1-.5-2-.3-3-1.1-.2-1.2-1.5-.7-2.4l-.9-2.1c-1.7.4-3.2.8-4.8 1.2-.3.1-.7.2-1 .3-.2.1-.5.2-.7.1-.8-.1-1.5.1-2.2.5-.3.2-.8.3-1.1.2-.5-.2-1 0-1.4.2-1.4.9-3.1.5-4.6 1.2h-.2c-.7 0-1.4.2-2 .6-.5.4-1.1.5-1.8.4-.8-.1-1.7 0-2.5.3-.7.3-1.3.4-1.9 0-.6.2-1.1.3-1.6.4 0 .2-.1.4 0 .6.4.9.2 1.9.2 2.8.1.7.2 1.4.3 2.2.1.9.2 1.8.2 2.6.1 1.2.1 2.3.2 3.6.5.3.6.9.4 1.5-.3 1-.2 2.1 0 3.1.1.8.3 1.6.5 2.4 0 .2 0 .4-.1.5-.5.6-.2 1.1.4 1.4.1 2.4-.3 4.7-.7 7.1zM25.6 57.8c.7.3 1.2.6 1.8.9.1-.7.5-1 1.1-1.3.4.6.5 1.3.4 1.9.8 1 2.2 1.1 2.8 2.3.1.3.6.5.9.5.9.1 1.4.6 1.7 1.3 1.2.2 1.9.9 2.7 1.6-.1.4-.2.9-.3 1.3-.7 1.6-1.4 3.1-2.1 4.7-.5 1.2-1 2.4-1.7 3.5-.3.5-.7 1-.8 1.6-.1.5-.6 1.2-1.4 1.2-.1.6-.3 1.2-.4 1.8-1.3.8-2.5 1.7-2.6 3.2-.4.3-.9.4-1.1.7-.9 1.1-1.7 2.2-2.5 3.3s-1.5 1.4-2.8.8c-1-.5-2.1-1-2.8-2-.1-.1-.2-.3-.4-.4-.9-.6-1.9-1.1-2.6-1.9-.4-.4-.9-.7-1.4-1-.1-.1-.3 0-.2 0-.3.6-.5 1.1-.7 1.5-.1.1-.1.3-.1.4.5.9-.2 1.7-.1 2.3.4.6.6.9.9 1.4-.3.3-.5.6-.8.7-.2.1-.6-.2-.8-.3.1.6.1 1.3.2 2 .1.3.2.6.6.6.2 0 .4.2.6.2v1.2c-.3.1-.6.3-1 .4-.1.3-.3.7-.1.9.4.5.1 1.1.2 1.6.8.3 1.1.5 1 .9-.1.5-.5.4-.8.3-.1.3-.2.7-.3.9.2.4.3.6.4.9-.1.3-.2.6-.2.9-.1.6.7.4.7.8-.5.7-.4 0-1 3.2.5.3 1 .6 1.6 1-.5.4-.8.7-1.2.9-.3.1-.7-.1-1.2-.2-.4.3-.8.6-1.4.9 1 .3 1.2.5 1 1-.4.9-.1 1.7.4 2.4s.8 1.5 1.4 2.5c0 0 .3.2.5.3-.1 0-.1.1-.2.1.2.7.4 1.3.6 2 1-.5 1.4-.5 1.7 0 .1.2.2.5.1.6l-.9.9c.4.3.8.6 1.2 1 .2-.4.3-.7.5-1.1.5.3 1.3 0 1.5.8.1.8-.6 1-1.1 1.3 0 .8.2 1.4.8 1.9.3.2.4.6.6.9s.2.6.4.8c.5.6.8 1.3 1 2.1.9-.3.6 1.4 1.6.8.1-.7.3-1.4.4-2.1.5-.6 1-1.1 1.5-1.6.6-.6 1.3-1.2 2-1.7.8-.6 1.7-.9 2.4-1.7.1-.1.3-.1.4-.1.5-.1 1.1-.2 1.6-.4 1.4-.5 2.9-.9 4.4-.9.9 0 1.7-.1 2.6-.2-.3-.6-.5-1.2-.7-1.8-.5-1.1-.5-2.4-1.5-3.3-.5-.5-.6-1.1-.6-1.8 0-.5-.1-.8-.5-1.1-.2-.1-.3-.4-.5-.5.1-.9 0-1.7-.6-2.5-.7-1-1.2-2.1-1.3-3.3 0-.5-.2-1.1-.4-1.6-.1-.4-.3-.8.2-1.2.4-.3.7-.7 1.1-1 1-1 1.2-2.5 2.1-3.5 0 0 .1-.1 0-.2-.2-.8.4-1.3.8-1.7 0-1.3.2-2.4 1.1-3.4.1-.1.3-.3.3-.4-.2-.8.4-1.2.7-1.8.1-.3.4-.5.4-.8-.1-1.3.8-2.2 1.3-3.3.4-.9.8-1.9 1-2.9.4-1.6.6-3.2 1-4.9.2-.9.3-1.8.1-2.7-.1-.4.1-.8.2-1.2.1-.5.2-1 .1-1.5 0-.9-.3-1.8-.2-2.8.1-1.1 0-2.2-.2-3.3-.1-.9-.4-1.8-.6-2.8 0-.2-.1-.4-.3-.4-.7-.4-.8-1-.5-1.6-.8-1.4-1.3-2.9-2.6-4.1 0 .7 0 1.3-.7 1.6.1-.6.2-1.1.2-1.6-1.3-.5-1.3-.5-6.6 0v.8c0 .8-.3 1-1.1.8-.3-.1-.5-.2-.8-.2-.8.6-.8 1.4-.4 2.3-.4.2-.7.4-1.1.7zm29.1 59.6c.6-.1 1-.3 1.5-.3.9 0 1.7.1 2.6.1.2 0 .3-.2.5-.2.5-.1 1.1-.4 1.6-.3s.9-.1 1.4-.1c1.5-.1 2.5-1.5 4.1-1.5.5-.6 1.3-.8 1.7-1.6s1.2-1.2 2-1.1c1.4.2 2.5-.5 3.6-1.1.5-.2 1-.5 1.2-.9.4-.6.9-.8 1.5-1 .6-.3 1.2-.5 1.7-1 .3-.3.7-.6 1.1-.7 1.2-.2 2-1.2 3-1.8.3-.2.6-.6.9-.8 1-.6 2.1-1.2 3.1-1.8.1-.1.3-.2.3-.3.9-1.2 1.9-2.3 3.1-3.2 0-.1-.1-.1-.1-.2-.4.2-.9.4-1.2.6-1.5 0-2.9 0-4.3.5-1.3.5-2.8.8-4.2.2-.8.6-1.5 1-2.4.9-.2 0-.4.1-.6.2-.9.4-1.8.5-2.7.6-.7 0-1.3-.1-1.8.5-.1.1-.5.2-.7.1-.5-.2-.9.1-1.4.2-.4.1-.8.3-1.2.4-1.3.3-2.6.5-3.9.7-.9.2-2 .5-2.8-.4-.1-.2-.2-.5-.2-.8 0-.2.1-.4.1-.6 0-.8-.8-1.5-1.6-1.4-1.3.2-1.8-.1-2.1-1.4-.2-1.1-.4-2.1-.6-3.2v-.5c.4-1 .1-2-.2-2.8-.4-1.2-.3-2.4-.4-3.7-.1-.9.1-1.9-.2-2.7s-.1-1.6-.1-2.4c0-.5 0-1.1-.2-1.6-.3-.7-.4-1.4-.1-2.2 0-.1.1-.2.1-.3-.2-2-.3-4-.5-6 .6-.8 1.3-1.6 2.4-.9.1-.7.2-1.3.4-1.9.3-1.1 1.3-2 2.5-2 1.1 0 2-.4 3-.6 0-.6-.1-1.1-.1-1.5 0-.1 0-.3-.1-.4-.4-.6-.5-1.1-.2-1.8.1-.2 0-.5 0-.8-.3-.9-.6-1.7-.9-2.6-.1-.4-.2-.9-.2-1.4 0-.4.1-.8-.1-1.1-.5-.7-.6-1.6-1.2-2.3-.5-.7-1-.9-1.7-.8-.2 0-.5.2-.8.1-1.5-.5-3.1-.3-4.6-1-.2-.1-.6 0-1.1 0 .2.5.4.8.5 1.2.1.3.3.7.3 1 0 1-.3 2 0 3 .1.3.1.7 0 1.1-.2.7-.5 1.3-.2 2.1.1.2-.1.5-.2.8-.1.4-.3.7-.3 1.1.1.7.2 1.4.3 2.2.4.2.8.4 1.3.5.7.2.9.7.9 1.3.1 1.1-.5 1.8-1.3 2.3-.4.2-.8.4-1.1.6-.9.8-2.1.6-3.2.8-.1 0-.2 0-.3-.1-.8-.4-1.7-.8-2.5-1.3s-.8-2.1 0-2.6 1.6-1.1 2.4-1.6c0-.4 0-.7.1-1 .2-1.3.6-2.6 0-3.9v-.2c.5-.9-.5-1.7-.2-2.6-.6-.6-.4-1.3-.4-1.8-.4-.5-.7-.9-.8-1.2-.2-.4-.3-1-.5-1.4-.3-.5-.6-.9-.9-1.3-.6-.7-1.1-1.6-1.8-2.2-.5-.4-.9-.8-1-1.5-1-.1-2 0-2.9-.3-1-.3-1.9 0-3.1 0 .8.9 1.9 1.4 2.3 2.4 0 .1.1.1.2.1.6.5 1.2 1 1.8 1.6.2.2.3.7.4 1s.2.6.4.8c.5.4.6 1 .7 1.6l.3.9c.1.4.2.8.3 1.3.1.6 0 1.5.4 1.9.6.7.3 1.1 0 1.4 0 .8-.1 1.6.1 2.2.4 1.3-.4 2.6.2 3.8v.1c.1 1.5-.4 2.9-.8 4.4.3.2.5.2.7.4.6.5.5 1.1-.2 1.4-.3.1-.6.2-1 .3l-.3 2.1c-.7.7-1 1.6-.4 2.7.3.6 0 1-.5 1.2-.6.2-.8.6-.9 1.1-.1.2-.2.5-.3.7-.3.8-.6 1.7-.9 2.4.3.4.4.6.6.7.3.2.5.5.3.9q-.3.6-.9.3c-.6-.2-.9.1-1.1.7-.1.3-.1.6-.3.9-.5 1.4-1.6 2.5-2 3.9-.5 1.5-1.5 2.8-2.3 4.2-.3.5-.6 1.1-.2 1.8.7 1.1 1.5 2.2 1.9 3.4.2.7.5 1.4.8 1.9.6 0 1.2.1 1.8.1 0 .4 0 .8-.1 1-.3.3-.7.6-1.1.9.6 1.5 1.2 3 1.7 4.5.6-.1 1-.1 1.5-.1q.15.6.3.9c-1.3 1.2-1.3 1.5.2 3.5.3-.1.5-.3.8-.3l2.4-.6c.4-.1.8-.4 1.1-.3.8.1 1.6.3 2.4.5.4.8.9 1.2 1.8 1.5 1.3.5 2.5.6 3.8.5.6-.1 1.1 0 1.4.2zm35.8 16.5c.6.3 1.1.6 1.7 1 .2-.3.3-.6.4-.9 1 0 1.2.1 1.4 1.3-.1.2-.3.4-.5.6.3.2.5.5.9.2.5-.4.8-.2 1.1.3s.6 1.1.9 1.7c.6.2 1.4.3 1.8 1 .1.1.4.2.5.2.7-.3 1.3 0 2 .5 0-.6-.4-1.1.3-1.6.3.3.7.6 1 1 .5-.5.7-1 .8-1.7.1-1 .4-1.9.8-2.8.5-1.4 1.3-2.5 2.3-3.5.2-.2.4-.5.5-.8.4-.8.7-1.8 1.6-2.3.1 0 .1-.1.1-.2.2-.7.7-1.1 1.2-1.6.3-.3.6-.6.7-1 .3-.8.8-1.2 1.6-1.2.8-1 1.5-1.9 2.9-2.1.5-.1.9-.5 1.3-.7.3-.2.5-.4.8-.6-.7-.7-1.4-1.6-2.3-2.1-1.2-.7-2.1-1.8-3.2-2.7-1-.8-1.8-1.8-3.1-2.3-1.3-1.4-3-2.2-4.5-3.2-1.1-.7-2.2-1.5-3.2-2.2-.3-.2-.6-.5-.9-.8-.2.4-.3.9-.6 1-.8.4-1.2 1.3-2.1 1.5-.1 0-.3.2-.4.3-.8 1-2 1.2-3.2 1.3-.9.1-1.7.4-2.3 1.3-.5.8-1 1.6-1.7 2.3-1.1 1-2.2 2-3.4 2.9-.9.7-1.8 1.3-2.8 1.9-.5.3-1 .4-1.5.6s-1.1.3-1.8.5c-1-.3-1.7-.1-2.4.7-.6.6-1 1.4-2 1.6-.2.1-.4.3-.6.4-.8.5-1.3 1.5-2.5 1.4-.1 0-.2.1-.4.2-1.4.9-3.1 1.5-4.8 1.8-1.4.3-2.8.6-4.2 1h-.5c-1.1.2-2.3.2-3.4.5-1.3.4-2.6.4-3.9.5-.4 0-.8-.2-1.2-.1-1.4.2-2.8.2-4.2.1h-.7c.6 1.1.6 1.8.1 2.1s-1.3-.1-1.8-1.1c.3-.4.5-.8.8-1.2-.5-.3-1 .1-1.5.5-.8-.9-1.8-1-2.7-.7-.7.2-1.3 0-1.9-.3-.2-.1-.5-.2-.8-.4 0 .3 0 .5.1.7.2.5.7 1 .7 1.5.1.8.4 1.2 1 1.4.1.8.3 1.5.4 2.4.3-.5.5-.8.7-1 1.3.6 1.4.9.8 2.1-.3 0-.5.1-.7.1.5 1.6 1 3 1.8 4.4 1.3-.1 1.6.5.8 2 .4.8.8 1.6 1.2 2.5s.6 1.8 1.6 2.2c0 .7.1 1.3.8 1.6.9-.1 1.3-.1 1.4.4.2.5-.1 1-.7 1.4.1.9.7 1.6 1.2 2.4.4.7.8 1.4 1.1 2.1.4.3.7.6.7 1.3 0 .2.2.4.3.5.4.3.9.4 1.1.8.3.4.3.9.4 1.4.3-.1.6-.3.9-.4.4.4 1.1.6.8 1.4-.4.1-.7.3-1.1.4.5.6.9 1.2 1.4 1.8 0-.9.6-1.2 1.3-1.3.7.6.7.6.3 1.6-.4.1-.8.3-1.3.5.4 1.3 1.7 2 2.1 3.3.1.3.5.6.9.8.1.1.3.2.5.2.2.1.3.2.5.3q-.45.9.3 1.5c.5-.2 1.1-.2 1.5.3.3.7-.3 1.6.5 2.2.2-.1.5-.3.8-.5.2.3.4.5.6.8-.3.2-.5.3-.8.5.7.8 1 1.8 2.1 2.1.4-1 .6-2 1-2.9.2-.6.6-1.1.9-1.6.6-1.1 1.1-2.2 2.3-2.8.4-.2.6-.6.9-1 .3-.3.6-.8 1-.9.7-.1 1.1-.7 1.7-1.1.2-.1.3-.3.5-.4.7-.3 1.4-.5 2.1-.8l3.3-1.2c.2-.1.4-.1.6-.1 1.1-.1 2.2.1 3.2-.2 1.2-.3 2.1-.1 3.1.4.4 0 .7-.2 1.1-.1.9.2 1.7.7 2.7.7.1 0 .2.1.3.2.4.3.9.6 1.5 1.1 0-.4.1-.7 0-1-.3-.6-.9-1.2-.5-2 0-.1 0-.2-.1-.3-.5-.9-.9-1.9-1.4-2.8-.6-1.1-1.3-2.1-1.8-3.3-.5-1.1-.8-2.3-1.2-3.4-.7-1.7-1.4-3.3-2.2-4.9-.3-.7-.6-1.4-.9-2-.7-1.1-1.2-2.3-2.2-3.2-.2-.2-.3-.6-.4-.9-.2-.5-.4-1-.7-1.5-.4-.6-.9-1-1.4-1.6-.6 0-1.3-.3-1.5-.7-.2-.6-.1-1.1.3-1.6.3-.3.5-.7.9-.8.9-.4 1.6-1 2.3-1.7.3-.3.8-.6 1.1-.9.5-.4 1.2-.7 1.5-1.4.3-.5.6-1 1-1.2.5-.3.8-.7 1.1-1.2.5-.8 1.2-1 2-.4.9.6.9 2.2.2 3.2-.7.8-1.3 1.6-2 2.5 1.3.9 2.6 1.4 3.9 2.1zm43.9-80.4c.3-1.1-.6-2-.6-2.9-.4-.2-.8-.3-1.1-.4 0-1.1.1-1.2 1.2-1.2.1-.7.3-1.4.4-2.1-.7-.2-1.6-.5-2.5.1.1.3.2.7.3 1.1h-1.5v-1c-1-.6-1.8.1-2.8.2 0 1-.3 1.4-.9 1.3-.6 0-.7-.3-.6-1.3h-3.4c-.1 0-.1.1-.2.2.3.1.5.3.8.4-.8.6-.8.6-1.3-.3-1.1.1-2.4.1-3.6.2.2.3.3.5.4.7-.7-.2-1.2-.7-2-.4-.7.2-1.5 0-2.1.6-.9-.6-1.8 0-2.7 0s-1.8 0-2.7.5c-.1.9-.4 1.3-1.2 1.3-.2 0-.4-.2-.6-.3.1-.3.3-.6.4-.9-.3 0-.5.1-.8.1-1.1-.1-2 .1-2.6 1.1h-.1c-.8-.8-1.7-.7-2.6-.4-1.1.3-2.1.8-3.3.7.1.5.8.9.3 1.4-.4.4-.8.4-1.3.3-.4-1.3-1.5-1.4-2.5-1.4-.1.5-.1 1-.2 1.5h-1.4l-.3-1.2h-2.2c.2.7.4 1.3-.3 1.5-1 .4-1.4-.5-1.8-1.2h-1.6c-.6 0-1.2-.1-1.8.3.3.4.6.8.8 1.3.3.6.6 1.3.8 2 .2.6.2 1.3.3 1.9.6 0 1.2-.3 1.5.3.1.3.1.7 0 1s-.4.5-.6.8c.2.7.5 1.3.6 2.1.2 1.9.3 1.8 1.8 2.1.1 0 .1.1.3.2-.1.4-.2 1-.4 1.7.1.2.3.6.5 1.2.6-1.3 1.3-1.4 2.2-.2-.2.6-.6.9-1.2 1.1-.4-.2-.7-.3-1.2-.6.4 1 .7 1.8.9 2.5 1.2.2 1.7 1.1 1 1.9-.2.3-.2.6-.4.8-.3.7.2 1.2.1 1.7.6-.1 1.1-.2 1.7-.4-.5-.3-1.1-.5-.9-1.2.1-.3.4-.6.7-.6.7-.2 1.1.2 1.4.9-.2.3-.4.5-.7.9.4.1.8.3 1 .2.6-.5 1.4-.3 2.1-.4 0-1.2.1-1.6.7-1.7.2 0 .4 0 .5.1.3.3.5.6.7.9 1.2.4 2-.5 2.9-.8 1.5.9 1.8 1 3 .9q.3-.75 1.2-.9c.6-.1 1 .2 1.3.6 1.5-.4 2.9-.8 4.3-1.1l-.2-.2c.2-.3.4-.7.6-1.1.5.3.8.6 1.1.8 1.5-.5 2.9-.9 4.3-1.3 0-.5-.1-.9-.1-1.3.4-.2.7-.3 1.1-.4.3.3.5.6.9 1 .8-.3 1.6-.7 2.4-.9s1.4-.6 1.9-1.4c.3-.6.7-.6 1.3-.3.2.1.4.2.6.4.4-.3.7-.5 1.1-.8-.2-.2-.3-.4-.5-.6-.4-.3-.5-.7-.2-1.1.2-.2.7-.4 1-.4s.5.4.8.6c-.3.4-.4.6-.6.9.8-.2 1.6-.3 2-.8.7-.8 2-1.1 2.5-2.1 1.8-1.2 2.9-3 4.4-4.4.3-.3.5-.8.7-1.2-.3-.2-.6-.3-.8-.5-.2.3-.4.6-.7.9-.4-.2-.7-.4-1.1-.6 0-1 0-1 1-1.2-.1-.8-.7-1.2-1.3-1.6zM80.9 194.7c.3 1.1.7 2.1 1.8 2.6.5.3.8.6.9 1.1.1.6.4 1 1 1.1.8.1 1.1.6 1.1 1.1.7.6 1.3 1.2 1.9 1.6s1.3.8 1.9 1.1c0-.5-.1-1 .1-1.2.4-.4.9-.2 1.5-.1 0 .4-.1.8-.1 1.3.8-.1 1.4-.3 1.9-1 .2-.2.3-.4.6-.5.7-.3 1.4-.5 2-.7.1-.6.1-1.2.8-1.5.7.3 1.4.6 1.8.8.9-.3 1.5-.4 2-.7.7-.3 1.5-.2 1.9-1 0-.1.2-.1.3-.1.8-.3 1.3-1.2 2.3-1.1.1 0 .1-.1.2-.1.4-.4.9-.7 1.4-1.2 0-.6.2-1.3-.4-1.8-.6-.7-1.1-1.3-1.1-2.4 0-.9-.8-1.8-.9-2.8 0-.2-.3-.5-.3-.7.1-.8-.4-1.2-.8-1.7-.2-.2-.4-.4-.5-.7-.2-1-.6-2-1.2-2.9-.1-.2-.2-.5-.3-.8-.3-.8-.5-1.6-.8-2.3-.2-.4-.5-.7-.7-1-.4-.7-.6-1.6-1.1-2.2-.5-.7-1.1-1.4-1.1-2.3 0-.2-.2-.3-.4-.5-.2.4-.4.7-.6 1-.6 1.1-1.1 2.1-1.8 3.2-.2.3-.5.7-.9.8-.6.1-.9.5-1.3 1-.2.3-.5.6-.9.8-1 .6-2 1.3-3.1 1.8-1.5.6-2.8 1.7-4.5 2-1 .2-1.9.5-2.9.5-1.6.1-3.2 0-4.8 0-.2 0-.4.1-.6.1.2.3.2.7.4.9.5.4.6.8.6 1.4 0 .3.1.7.2.8.5.4.6 1 .9 1.4.4.6.5 1.3.8 1.9.8 1.2 1.5 2.4 2.7 3.3zm-42-181c.4-.5.7-1 1.1-1.5.2-.3.6-.5.9-.8.5-.5 1-1.1 1.4-1.6.5-.6 1-1.3 1.6-1.8 1.5-1.4 3.3-2.4 4.8-3.6 1.3-1.1 2.9-1.5 4.4-2.3.3-.2.7-.2 1.1-.3.6-.2 1.2-.5 1.8-.7.3-.1.6-.1.9-.1.2 0 .4.1.5 0 1.6-.7 3.3-.6 5-.9.3 0 .6.1 1 .2L64 0v.2c1.3.1 2.6.3 3.9.3.4 0 .8 0 1.1.3.1.1.3.1.5.1q1.5 0 2.7.9c.2.2.5.2.8.3 1.1.2 2.1.3 3.2.5.6.1 1.1.1 1.7.1.8.3 1.5.9 2.5.8.1 0 .3.1.4.2 1.3.9 2.7 1.8 4 2.7.3.2.5.6.8.9 1.3.3 2.4.9 2.9 2.2.2.6.6 1.1 1 1.5q1.05.9 1.2 2.1c.1.9.7 1.5 1.1 2.1.5.8.5 1.7 1 2.5.3.6.3 1.2.4 1.8.1.9-.1 2 .7 2.8.2.2.2.7.1.9-.2.5-.2.8.1 1.2v.2c-.2 1.3-.3 2.7-.5 4V30c0 .3.1.7 0 1q-.45 1.5-.6 3c0 .4-.2.8-.4 1.2-.2.5-.4.9-.6 1.4-.2.7-.3 1.4-1.2 1.6-.2.1-.4.3-.5.5-.5 1.1-1.5 1.6-2.4 2.2-.6.4-1 1.1-1.5 1.6 0 .7-.1 1.3-.1 1.9-.2.1-.3.3-.5.4 1.3.5.8 1.2.4 2 .4-.1.7-.1 1-.2.6-.2 1.2-.4 1.9 0 .4.2.9.2 1.3.1 1.3-.3 2.7.1 4-.1.8-.1 1.7-.1 2.5-.1.6 0 1.1.1 1.6.1 1.1 0 2.2-.1 3.3-.2.9-.1 1.7-.3 2.5-.4.2 0 .4-.1.5-.1 1.1.4 2.1-.2 3.1-.4.7-.2 1.4-.1 2.1-.2.4 0 .8-.1 1.2-.2.2 0 .4-.2.5-.1.8.3 1.4-.1 2.2-.2 1.4-.2 2.8-.4 4.2-.5s2.8-.2 4.1-.7c.6-.2 1.4-.2 2-.1.5 0 .9.1 1.4.1.4 0 .8 0 1.2-.2.3-.1.8-.1 1.1 0 .7.5 1.4.3 2 .2.7 0 1.4-.1 2-.4.6-.2 1.1 0 1.6.1.9.2 1.8.3 2.7.4.6 0 1.2.1 1.8.4.5.3 1.2.5 1.8.5.5 0 1.2-.2 1.6-.6.7-.5 1.3-.8 2.1-.8.2 0 .5 0 .6-.2 1-1 2.4-1.1 3.7-1.6 1.1-.5 2.4-.7 3.5-1.2.3-.2.8-.2 1.2-.3.8-.2 1.6-.2 2.3-.8.4-.3 1-.7 1.6-.3.1.1.3 0 .4 0 1.1-.9 2.4-.7 3.7-1 .6-.1 1.2-.3 2-.6.3.1.8.1 1.4-.2.3-.2.8-.1 1.2 0 1.4.7 3.1 2.5 2.2 4.3-.1.2-.2.6-.1.9.2 1 .1 1.8-.8 2.3-.1.5-.1 1-.2 1.4 0 .1-.1.3-.2.4-1.3.9-2.4 2-3.6 2.9-.1.1-.3.1-.5.2-.3.1-.6.1-.8.3-1 .6-1.9 1.4-2.9 2-.7.4-1.5.5-2.3.6-.4.1-.8.2-1.2.4-1.2.7-2.5 1.3-3.8 1.9-.9.4-1.9.7-2.9 1-1.4.4-2.8.9-4.3 1.2-.9.2-1.8.2-2.8.4-.2.5-.2 1-.9 1.2-.2.1-.4.6-.5.9-.4 1.2-.4 1.2-1.4 1.8.2.7-.3 1.2-.7 1.7s-.8.9-1.2 1.5c-.3.6-1 1.1-1.6 1.6-.2.2-.6.2-.9 0s-.7-.1-1 .3c-.2.3-.6.5-.9.7-.4.2-.8.3-1.1.6-1 .9-2.1 1.6-3.4 1.9-.2 0-.3.3-.5.4-.2.2-.5.4-.7.5-.9.1-1.5.7-2.1 1.2-.7 0-1.3.2-1.9.6s-1.3.6-2 .8c-.2.1-.5.1-.7.3-.4.5-.9.6-1.5.6-.6.1-1.2.3-1.7.6-.8.4-1.7.6-2.6.6-.3 0-.6.1-.9.2l-2.1.9c-.1 0-.1.1-.2.1-1.2-.5-2.2.4-3.3.5-1.3.1-2.6.4-3.9.6l-3.6.3-4.2.3c-.7.1-1.4.2-2.2.3.3 1.4.5 2.8.8 4.1.2 1 .5 2 .3 3-.1.3.1.7.2 1.1.1.6.3 1.2.1 1.8-.1.3.2.7.3 1.1-.1.3-.3.7-.5 1h.2c.2 1.3.4 2.5.7 4.1-.6.6-1.4 1.3-2.2 2.1-.2.2-.3.4-.5.7 1.2.3 2.2.8 3.3.9 1.8.1 2.7 1.4 3.5 2.6.6.9.7 2.2 1.1 3.6.3.1.9.4 1.3.7.8.5 1.5 1.2 2.2 1.8.2.2.4.4.6.5 1 .3 1.8.9 2.5 1.6.1.1.3.2.5.3 1.4.4 2.2 1.6 3.2 2.4 1.2.9 2.2 2 3.5 2.7.9.5 1.7 1.3 2.6 2 .8.7 1.6 1.5 2.4 2.1s1.8 1.1 2.7 1.6c.3.2.6.3.9.5s.7.4 1.1.6c.3.5.7 1.1 1.3 1.6.6.6 1.4 1.4 1.6 2.2.3 1 .8 1.7 1.5 2.4.3.3.5.7.5 1.2 0 .3.1.7.3.9.9.6 1 1.7 1.4 2.5.1.1.1.3.1.4.2 1.7.4 3.4.4 5.1 0 .7.2 1.2.6 1.7.5.7.9 1.6 1.3 2.4.6 1.2 1.2 2.5 1.8 3.7.3.7.8 1.2.8 2 0 .4.3.9.5 1.3.4.6.7 1.1.7 1.8 0 .2.1.4.2.5.6.8.7 1.8 1 2.8.4 1.1.9 2.1 1 3.3 0 .2.3.3.4.5.2.3.4.6.4.8-.2.8.2 1.4.7 2 .4.6.6 1.1.7 1.8s.4 1.4 1 2c.4.3.5.9.8 1.5 1.2.1 2.5 0 3.7-.2.9-.2.9-.2 1.6.2.3-.1.6-.3.9-.3 1.8 0 3.6 0 5.4.2 1 .1 2 .3 3 .1.2 0 .3-.1.4 0 1.2.5 2.5.5 3.8.7 1.6.2 2.8 1.1 4.2 1.8.5.2 2.4 2.4 2.8 3 .3.5.6.9 1 1.4.1.2.3.4.3.6.6 1.7 1.4 3.4.3 5.2-.3.5-.1.9.1 1.2.5.9.4 1.3-.3 2-.2.2-.3.6-.6.9-.7.6-1.4 1.1-2 1.8-1 1.1-2.5 1-3.7 1.5-.2.1-.4 0-.6.1-.8.3-1.6.6-2.5.5-.3 0-.6.2-.9.4-.4.3-.9.5-1.4.3s-1-.2-1.4.2c-.1.1-.3.2-.5.2-1.8-.2-3.5 1-5.3.7-.3 0-.6.1-.8.2-.1 0-.2.2-.3.2-1.1.1-2.2.1-3.3.1-.8 0-1.5 0-2.3.1-.8.2-1.6.5-2.5.1-.2-.1-.5-.1-.8 0-1.2.2-2.4.2-3.5.3-1.9.1-3.9.2-5.6-1-.7-.4-1.3-.7-1.6-1.5 0-.2-.3-.3-.4-.5-.3-.4-.6-.8-.7-1.2-.1-1-.6-1.7-1-2.5-.1-.3-.3-.5-.3-.8-.1-.4.1-1-.4-1.3.1-1.3-.6-2.4-1-3.6l-1.8-1.2c-.6-.3-1.3-.6-1.9-.9-.1 0-.2-.1-.3-.1-1-.9-2.1-1.8-3.1-2.8-.2-.2-.3-.4-.5-.6-.9-.8-1.9-1.6-2.7-2.5-1-1.1-2.1-2.1-2.8-3.6-.5-1.2-1.6-2.2-2.4-3.3-.2-.3-.3-.6-.5-1s-.3-.8-.6-1.1c-.6-.7-.9-1.6-1.3-2.5-.5-1.2-1-2.5-1.6-3.7-.2-.4-.6-.8-.9-1-.3-1-.7-1.8-.9-2.7-.3-1.1-.9-2.1-1.8-2.6s-1.7-1.3-2.7-1.7c-.4-.1-.8-.4-1.1-.7s-.6-.6-1-.8-.8-.3-1.2-.5-.7-.4-1-.6c-1.6-1.2-2.9-2.8-4.8-3.7-1.1-1.4-2.8-2-4.1-3-.9-.8-2-1.3-3.1-1.9-.3.2-.7.3-1 .5 0 .9.7 1.3 1.1 1.8.7.8 1.1 1.7 1.5 2.7.3.8.8 1.4 1.4 2 .5.6.8 1.5 1.1 2.2.2.4.2.8.4 1.1 1 2.2 2.2 4.2 2.9 6.5.2.5.6.9.9 1.4s.6 1.1.9 1.6c.2.4.4.9.5 1.3.3 1.2 1.1 2.3 1.4 3.5.4 1.5.8 3.1 1.3 4.6.2.7.4 1.3.5 2 0 .3-.2.6-.4 1 .3.7.6 1.6.9 2.4.4 1.4 1.4 2.4 2.2 3.5.6.8.9 1.7 1.3 2.6.2.6.5 1 1 1.3.5.4.9.8.8 1.5v.2c.8.8.7 2.2 1.8 2.9.2.1.3.4.4.6.2.7.3 1.4.4 2q0 .3.3.6c1.1 1.3 1.7 2.9 2.3 4.6.2.6.3 1.3.9 1.7.1.1.3.4.2.6-.1.8.4 1.4.8 2 .3.6.7 1.1.7 1.8 0 .3.3.7.6.9.4.3.5.6.5 1-.1 1 0 2.1.5 3 .4.7.8 1.3 1.3 1.9.4.5.9 1 1.3 1.6l.3.6c.1.2.1.4.2.6.6.8 1.3 1.6 1.9 2.5.2.2.3.4.4.6.3 1.5 1 2.8 1.9 4.1.6.9 1.3 1.8 1.3 3 0 .8.4 1.6.6 2.4 0 .1.3.2.4.4.2.3.4.6.4 1 0 .8.3 1.4.7 2 .2.4.4.8.5 1.2.2.6.3 1.2.8 1.7.3.2.4.9.3 1.2-.4.9-.2 1.9-.5 2.7s-.8 1.7-1.3 2.4c-.5.8-1.1 1.6-1.6 2.4 0 0 0 .1-.1.1-.4.7-1.4.7-1.8 1.5s-1.2.9-2 1.2c-.1 0-.3.1-.4.2-.4.6-1.1.8-1.8.6-.3.7-.8.8-1.5.8s-1.3.2-2 .4c-.1 0-.2.2-.4.4h-.2c-.8-.3-1.5-.6-2.5-.5-.8.1-1.7-.3-2.5-.7-.4-.2-.5-.7-.9-1.2q-1.05-.15-1.8-1.2c-.4-.6-.9-1.2-1.4-1.8-.1-.1-.2-.3-.4-.4-1.1-.7-1.7-1.8-2.4-2.8-.7-1.1-1.3-2.2-1.7-3.4-.2-.7-1-1.2-.8-2.1 0-.1-.1-.2-.2-.3-.9-.8-1.1-2-1.3-3.1-.2-.8-.6-1.5-.4-2.3.1-.2-.2-.5-.4-.7-.5-.6-.6-1.2-.5-1.9 0-.6-.1-1.3-.1-1.9 0-.8 0-1.6-.1-2.5-.5-.2-1.1-.6-1.1-1.3 0-.2-.3-.4-.5-.5-.9-.5-1.9-1-2.8-1.5-.7-.4-1.3-.7-1.9-1.1-.3-.2-.4-.7-.6-1.1-.2 0-.4-.1-.7-.2-.6-.2-1.1-.5-1.5-1-.6-.8-1.1-1.6-2.2-1.9-.2-.1-.5-.3-.6-.5-.2-.8-.9-1.1-1.4-1.6-.8-.8-1.4-1.8-2.1-2.7-.2-.3-.2-.7-.3-.9-1-.9-1.7-1.8-2.2-3-.1-.4-.4-.8-.6-1.1-.5-1-.9-2-1.4-3-.1-.3-.1-.6-.3-.8-.6-.7-.8-1.6-.9-2.4-.1-.7-.4-1.2-1.2-1.4-.3-.1-.6-.3-.8-.6-1.1-1.2-2.1-2.5-3.2-3.7-.3-.3-.8-.4-1.1-.8-.5-.6-1.1-1.2-1.3-1.9-.2-.6-.7-1-1.1-1.5-.8-1-1.6-1.8-2.2-2.9-.4-.8-1.2-1.5-1.8-2.2-.2-.2-.3-.6-.4-.8-.1-.1-.1-.3-.1-.4-1.1-.7-1-2.1-2.1-2.9-.5-.4-.7-1.2-1.1-1.7-.5-.7-1.2-1.2-1.4-2.2-.1-.5-.5-1.1-.9-1.5-.4-.6-.6-1.3-1.3-1.7-.2-.1-.2-.7-.4-1.1s-.5-.9-.7-1.3c-.7-1.2-1.4-2.4-2.1-3.7-.5-.9-1.2-1.7-1.5-2.9-.3-1-1-1.9-1.5-2.9-.2-.5-.5-1-.6-1.5-.1-.7-.4-1.2-.8-1.8-.5-.9-.9-1.7-1.2-2.7-.1-.6-.6-1.2-.9-1.8-.5-1.1-1.4-2.1-1.4-3.4 0-.1-.1-.3-.2-.4-.7-.8-.9-1.7-1.2-2.7s-.7-1.9-1-2.9c-.1-.3-.2-.6-.2-.9v-.8c-1.2 0-1.5 1.5-2.4 1.5-.7.8-1.2 1.5-1.8 2.1-.5.4-.8 1-1.3 1.4-1.2.8-1.9 2.1-3.3 2.7-.8.4-1.6.3-2.3.2s-1.5-.4-2-1.1c-.3-.5-.9-.9-1.2-1.4-.4-.8-.8-1.6-1-2.5-.2-1 0-2.1 0-3.2-1.2 0-1.9-.6-2.3-1.5-.1-.3-.3-.6-.7-.6-.2 0-.4-.2-.5-.4-.6-.9-1.2-1.6-2.2-2.2-.2-.1-.3-.5-.4-.9-.2-1-.6-1.9-1.7-2.3-.2-.1-.4-.4-.5-.6-.3-.9-.7-1.6-1.3-2.4-.8-.9-1.4-2.1-1.9-3.2-.6-1.2-1-2.5-1.6-3.7-.4-.9-.9-1.8-1-2.9-.1-.9-.6-1.7-.9-2.5l-.9-2.4c-.1-.3-.2-.7-.3-1-.1-.4-.2-.8-.4-1.4.4-1.1-.5-2.3-.5-3.6-.1 0-.2-.1-.3-.1-.1.3-.2.5-.3.8-1-.5-1-.5-.8-1.6.3 0 .6-.1.9-.1.1-1.1 0-2-1-2.8-.2-.6.2-1.1.8-1.5.3-1.3-.4-2.2-.8-3.2.3-.4.6-.6.8-.8.1-.7 0-1.4.2-1.9.2-.7-.5-1-.6-1.4.9-1.5.2-2.9-.2-4.4.5-.7.8-1.5.2-2.4-.1-.1-.3-.1-.7-.2.4-.2.6-.4.7-.4 0-.6.1-1.1.1-1.6.1-1.1 0-2.1-.7-3.1.1-.5.5-1.1.1-1.5-.7.1-1.3.1-2 .1v-1.4c.5-.7.9 0 1.6.2-.2-.4-.2-.7-.4-1-.8-1-1-2.2-1.3-3.3-.1-.3-.1-.6-.2-.9h-.7v-1.5c.2.1.4.1.7.2-.2-1.6.5-3 1-4.5-.3-.3-.6-.6-1-1.1.5-.3.9-.7 1.3-.8.5-.1.7-.5.9-.9.6-1.2.4-2.4.2-3.6-.1-.5-.1-1-.2-1.7-.2-.4-.8.3-1.2 0-.5-1.1-.5-1.3 0-2 .7.1.7.7 1 1.2.6-.3.1-.7.1-1v-1.3c0-.4-.2-.8-.2-1.1-.5-.1-1-.1-1.3-.3-.3-.3-.2-.8-.4-1.4.7-.1 1.2-.1 1.7-.2.7-.8.2-1.5.1-2.1-.6-.3-1.2-.6-1.7-.9-.1-.1 0-.6 0-.9.6-.1 1.1-.3 1.7-.4v-2.5c-.5-.5-1.4.1-1.6-.7.2-1.2 1.5-.2 1.9-1.1-.3-.5-.4-1.2.2-1.7-.6-.8-1.4-.1-1.9-.5-.3-1.1-.1-1.3 1.4-1.5v-2.6c-.6.5-1 .3-1.4 0-.5-.4-.4-.8.2-1.1.4-.2.7-.3 1.1-.5.2-.3.3-.6.4-.9L5 25.6c-.9.1-1.4-.3-1.6-1.2.6-.8 1.1-.9 2-.2.1-.7 0-1.5.2-2.2.2-.8.5-1.7.8-2.5-.2-.3-.5-.6-.6-.9-.1-.2 0-.5.1-.8.2-.5.6-.6 1.7-.3-.6-.7-.7-1.3-.5-2.2.8-.2 1.6-.7 2.6-.5.1-.3.1-.8.3-1.1s.5-.5.9-.8l.9.3c.1.4.2.7.3 1.1h1.7c.1-.2.2-.3.3-.4.5-.7.7-.8 1.4-.5.9.4 1.7.5 2.7.4.4-.9 1-.8 1.9-.5.8.3 1.7 0 2.6 0 .5 0 1-.3 1.5-.1.3.1.7.1 1 0 1.3-.6 2.7-.3 4-.3h.8c.5 0 1.1-.1 1.6-.1h1.3c-.1-.6-.3-1.1.3-1.5.2-.1.5-.2.7-.1.6.3.3.8.3 1.4.9-.1 1.7-.3 2.6-.4.1-.2.2-.5.3-.8.7.3 1.2.7 1.8.9s1.2.2 2 .3c.1.5.3 1 .4 1.5-.4.4-.9.7-1.3 1-1.9 0-3.8 0-5.5.8.1 1 .1 1-1.5 1.3-.1-.4-.2-.8-.3-1.3-.7 0-1.4.1-2 .1-.4 1.1-.7 1.4-1.3 1.3-.8-.1-.7-.7-.8-1.3-.9 0-1.7-.3-2.3.8-.4.6-1.1.6-1.7 0-.4-.4-.8-.5-1.3-.3-.3.1-.7.1-1 .1-.2.3-.5.7-.8 1.1-.5-.4-.9-.6-1.2-.9-.5.1-.9.4-1.2.3-.8-.3-1.4 0-2 .4-1.5-.8-2.8-.2-4.1.3.3.1.6.3.9.4.6-.4.9-1.2 1.7-.8.8.3.7 1.1.6 1.8 1.5-.1 2.7.9 4.1 1.4.4-.9.9-1.3 1.5-1.1s.6.8.1 2.1l2.4.3c.1 1.3.1 1.3-.6 2.3-.3.1-.5.1-.8.2-.2.5-.4 1-.6 1.4-1.9 0-2.1-.3-1.8-1.9-.2-.1-.4-.2-.7-.2-.4-.1-.8-.1-1.1-.4-.6-.4-1.2-.5-1.8-.6-.4-.1-.7-.1-.9.3-.3.6-.8.5-1.3.3.1-.4.1-.9.2-1.3-.8-.2-1.5-.5-2.3-.7-.3-1-1.3-.8-2-1.1-.3.6-.7 1.1-.9 1.7s-.3 1.3-.4 1.9c.4.2.7.3.9.4-.1.8-.2 1.5-1.2 1.5v2.1c.9.2 1.1.6 1.2 1.5-.4.1-.8.3-1.1.4-.1.4-.1.8-.2 1.1-.1.6-.1 1 .6 1.1.2 0 .5.4.5.6-.1.4-.2.9-.5 1.2-.5.5-.7 1-.4 1.7.1.2 0 .5.1.7.5.1 1.1-.1 1.3.5s0 1-.6 1.3c-.2-.1-.4-.1-.6-.2-.8.9.1 1.8-.2 2.5.5.3.9.6 1.3.8-.1.8-.4 1.2-1.1 1.1-.1.9-.1 1.7-.2 2.4.5.3.8.5 1.2.8-.2.3-.4.6-.5.8-.5.6-.7 1.2-.7 1.9s.3 1.5 0 2.2c-.1.2.1.5.1.8 1.2-.5 1-1.6 1.3-2.4-.1-.4-.1-.8-.1-1.2 0-.2 0-.4.1-.7.1-1.4.2-2.8.3-4.1.7-.3 1.4-.7 2.1-1 0-.5.1-.9.1-1.4h.9c.2.6.4 1.1.7 1.7.9.3 1.8.6 2.7.1-.5-.8-.7-1.2-.2-1.5.3-.2.8-.3 1.2-.2.5.1.6.6.4 1.6.8.3 1.8.4 2.2 1.6-.3.2-.6.4-1 .7.1.6 0 1.3.2 1.8.3.9.9 1.6.1 2.5v.1c0 .8 0 1.7.3 2.5.1.4.1.7 0 1.1-.3.9-.4 1.9 0 2.8.2.5.3.9-.2 1.4-.2.2-.2.5-.3.8-.1.4-.1.9-.2 1.3.4.3.8.5 1.2.8-.2 1.1-1 1.2-1.9 1.3-.2.3-.4.6-.4.8 0 .8-.4 1-1.1 1.1-.1-.1-.2-.1-.3-.2-.5-.8-1.2-1.3-2.2-1.5-.5-.1-.6-.5-.4-.9.1-.2.2-.5.2-.7 1.7-.1 2.2-.6 2.1-1.9-.1-.9.6-1.8.2-2.8.4-1.6.4-3.2.2-4.9 0-.4.2-.9.1-1.3-.4-1.2 0-2.3-.2-3.6-1.1-.1-2.1-.2-3.2-.2-.3 0-.8.3-.8.6-.2 1.1-.3 2.3-.5 3.5.2.1.5.1.6.2.7.4 1 1.4.5 2s-.9 1.3-1.6 1.6c-.6.3-1.2.7-1.7 1.2-.5.6-.8 1.3-1.2 2s-.5 1.5-1 2.2c-.8 1.1-.9 2.5-1.3 3.7-.1.2 0 .5 0 .8.2 1.2.4 2.4.5 3.6 0 .2 0 .5.1.6.6.9 1.2 1.8 1.9 2.7 1 1.3 2.1 2.5 3.1 3.7 1.2-.1 1.8.9 2.8 1.4.4-.8.2-1.5-.5-2-.4-.3-.9-.6-1.3-1-1.3-1-2-2.5-2.9-3.8-.5-.7-.8-1.5-1.1-2.3-.1-.2-.2-.4-.1-.5.3-.5 0-.8-.2-1.2-.6-1.2-.4-2.6 0-3.7.5-1.4.9-2.9 1.8-4.2.7-.9 1.2-2 1.8-2.9.2-.3.6-.5 1-.6.6-.2.9 0 1.1.6.3 1-.2 1.8-.8 2.5s-.8 1.5-1 2.4c-.1.3-.1.6-.3.8-1 1.5-1.3 3-.7 4.7.2.5.2 1.1.3 1.6 0 .1.1.2.1.3.2-.1.5-.3.6-.4 1.3.8 1.4 1.3.4 2.2.1.1.1.3.2.4.1.2.3.4.5.6.3-.4.5-.7.8-.9.5-.4 1.1-.3 1.5.2.4.4.3 1-.2 1.4-.2.2-.5.3-.8.5.5.3.8.6 1.2.9.6-1.1 1.1-2.2 1.7-3.3-1.1.1-1.4 0-1.8-1 .3-.3.6-.6 1-.9.4.2.8.3 1.2.5.1-.4.2-.7.2-1 0-1.1.2-1.4 1.4-1.5-.1-1 .9-1.5 1.2-2.4.4-.9 1.3-1.4 1.7-2.2.5-.8 1.3-1.2 1.7-1.7-.2-.7-.3-1.2-.4-1.8 0-.6.1-1.2.1-1.7 0-.4 0-.8.1-1.2.4-1.3 0-2.6-.2-3.8-.5.1-.9.1-1.3.1-.1-.4-.2-.7-.3-1 .7-.8.7-.8 2 0v-2.6c0-.9-.2-1.9-.3-2.8-.1-.7-.1-1.4-.1-2-.3.1-.7.2-1 .3-.4-.7-.5-1.2 0-1.6.3.1.6.2 1 .3-.1-1.1-.2-2.1-.2-3.1q.15-1.35 0-2.7c0-.3.2-.7.2-1.1 0-1.1-.2-2.2-.2-3.4 0-.4.2-.9.4-1.2.4-.6.9-1.1 1.4-1.6-.2 0-.5 0-.6-.1-.2-.1-.5-.3-.5-.6 0-.1.2-.4.4-.5.4-.2.8-.3 1.3-.5.1.6.2 1 .2 1.4.8-.3 1.7-.4 2.3-1 .8-.7 1.2-.3 1.9.1 0 .4-.1.7-.1 1.1.8.1 1.5.4 2.2-.2.3-1.5.7-1.7 1.9-1.4.2.4.3.9.6 1.1.5.5 1.3.2 1.9-.3l.6-.6c.3-.3.5-.6.7-.9.2-.4.1-.8.2-1.2-.6-.4-1.5-.3-1.7-1.2.2-.2.5-.6.8-.8.3-.1.8 0 1.2 0 .3-.3.6-.6.5-1.2 0-.3.2-.7.5-.9.9-1 1.5-2.1 1.7-3.4z"/><path d="M163.3 190.3c1.2 1.3 1.1 1.7-.3 2.2-.5-.3-.8-.8-.8-1.4.1-.6.5-.8 1.1-.8M156.8 194.6c-.6-.6-.8-1.2-.5-1.6.2-.4.6-.4 1-.3.5.1.9.4.9 1 .1.5-.2.6-1.3 1M3.6 73.6c-.5 1-1.3 1-2.1.1.3-.8.3-.8 1.2-1.3.3.4.6.8.9 1.3M165.7 190.4l-1.2-.3c-.1-.3-.2-.6-.2-.9.7-.6 1.4-.7 1.8-.4.3.3.2 1-.3 1.6M1.8 76.9c.2-.1.4-.2.6-.2.2-.1.3-.2.4-.3 1.2 1 1.2 1.3.2 2.1-.6-.4-1.4-.5-1.1-1.6M169.7 188.4c.6.6.8 1.1.5 1.4-.3.5-.9.3-1.3.2-.2 0-.4-.3-.5-.5-.1-.5.3-.9 1.3-1.2M155.9 190.9v1c-.3.4-.8.7-1.2.3-.4-.3-.6-.9-.4-1.5.5-.3 1-.2 1.6.1M158.3 192.2c-.3-.9.1-1.2.7-1.6.3.1.6.2 1 .3.3.5.4 1-.1 1.2-.4.2-1 0-1.6 0M2.6 51.8c.3.2.5.3.8.4.2 1.1 0 1.6-.5 1.6-.3 0-.7-.2-.9-.4-.4-.4-.1-1 .6-1.6M168.1 190.6v1.4c-.4.4-.8.6-1.4.2-.4-.3-.4-.8-.2-1.2.3-.6 1-.3 1.6-.4M174.1 190.3c-1.1 0-1.5-.3-1.4-1.1.1-.5.4-.8.9-.8s.7.3.6.8c0 .3 0 .6-.1 1M170.7 190.7c.9-.3.9-.3 1.6.9-.1.2-.1.5-.3.6-.3.2-.7.2-1 .2-.2 0-.3-.4-.3-.7s0-.6.1-1M3.6 20c-.7.6-1.4.7-2.1 0 .4-.5.8-.9 1.2-1.4.6.3 1.1.6 1 1.4M153.8 194c-.7.2-1.3.7-1.9-.1.1-.4.2-.7.4-1.1 1.1-.1 1.5.1 1.5 1.2M3.1 82.6c-.6-.2-.9-.3-1.3-.4-.2-.5-.2-.9.3-1.1s1.1-.1 1.6.5c-.2.3-.3.7-.5 1.1M1.5 15.9c.2-.4.4-.7.6-1 .6.1 1.3 0 1.7.9-.5.3-1.1.5-1.7.8-.1-.2-.3-.4-.5-.6M174.9 192.3c-.1-.4-.1-.9-.2-1.4.5-.2.9-.3 1.4-.4l.6.6c-.2.8-.9.8-1.4 1.3-.1 0-.2-.1-.3-.1M5 13l.4.4c.1.1.1.2.2.2 0 .7-.6.8-1 .9-.3.1-.4 0-.9-.8.4-.2.9-.5 1.3-.7M20.1 11.5c-.1.8-.9.4-1.3.7-.1.1-.5-.2-.7-.4-.1-.1 0-.4.1-.5.3-.4 1.3-.6 1.7-.2.1.1.2.2.2.3M162.1 193.3c-.8 1.1-.9 1.1-1.9.2.3-.9.9-1 1.9-.2M15.7 11.4c-.1.4-.1.8-.2 1.1-.9-.1-.9-.1-1.5-.8.4-.8 1-.4 1.7-.4M2.2 86.7c0-.5-.1-1-.1-1.5.7 0 1.3.3 1.3.7s-.2.5-1.2.7M162.1 189.2c-.1 1-.6 1.4-1.2 1-.2-.1-.3-.3-.3-.5s.2-.4.4-.4c.4-.1.8-.1 1.2-.1M27.2 12.4c-.3-.2-.5-.4-.8-.6.2-.3.4-.6.7-.7s.8-.1.9.3c.2.7-.5.7-.9 1M11.7 11.8c-.3.3-.7.6-1.1 1-.3-.4-.5-.6-.8-1.1.8-.1 1.3-.1 1.8-.2.1.1.1.2.2.3M151.6 191.2c0 .9-.5 1-1 1.1s-.6-.3-.6-.8c.5-.1 1-.2 1.7-.3M.3 18.5c.1-.5.1-.9.2-1.3.7.1 1.1.3 1 .9-.1.5-.5.6-1.1.4M.2 22.9c-.1-.5-.1-.7-.2-1.1.4-.1.7-.3 1.2-.4v1.2c-.3.1-.6.2-1 .4M49.6 145.3c-.1-.5-.1-1.1-.2-1.6.7-.3 1.2-.7 1.8-.2.3.2.6.6.4 1.1-.2.6-.7.8-2 .7M47.2 131.2c0 .7.3 1.5-.6 1.8-.4.2-.9.1-1.2-.4-.2-.4-.4-.8 0-1.2.2-.2.6-.4.9-.4s.6.1.9.2M61.5 163.7c-.3.1-.5.2-.8.3-.4-.4-.7-.8-1-1.1.1-.9.8-.9 1.3-1.2.8.4.8 1.1.5 1.9M44.4 131c-1.2-.3-1.2-.3-1.1-1.6.8-.6 1.3-.8 1.6-.4.4.4.2 1.3-.5 2M47.5 141.8c.4-.2.7-.4 1-.7.2.1.4.2.5.3.3.4.7.9.3 1.4-.2.2-.7.3-1.1.2-.6-.1-.8-.4-.8-1.2M59.5 155.8c.2.9.2 1.5-.5 1.9-1.2-.5-1.2-.6-1.1-1.9zM52.1 147.4c-.4-.5-1-.9-.6-1.6.2-.4.7-.4 1.1-.3.6.1 1 .3.8 1-.4.3-.8.5-1.3.9M58.2 151.4c.6.5 1.6.3 1.5 1.5-.3.2-.7.5-1 .7-.4-.5-.7-.9-1-1.3.2-.2.3-.5.6-.9M52.7 141c.3.5.5.8.6 1.2s0 .8-.4 1-.7-.2-.9-.4c-.3-.3-.5-.7-.2-1.1.2-.2.5-.4.9-.7M56.9 151.7c-1-.5-1.1-.7-1-1.3s.3-.8.9-.8c.7 0 .9.3.8 1 0 .1-.1.3-.2.4-.1.2-.3.4-.5.7M54.4 147.2c1 .8 1.2 1.3.8 2-.2.5-1 .5-1.1 0-.1-.4-.2-.8-.1-1.2 0-.3.3-.5.5-.8M64.2 162c.4 0 .7 0 1.2-.1.2.4.3.8.5 1.3l-.9.6c-1-.3-1-.4-.7-1.8M50.1 135c.7.3 1.3.5 1.2 1.3 0 .2-.3.5-.5.5-.5-.1-1.1.3-1.4-.4-.3-.6.1-1 .6-1.4M61 157.7c.1.4.2.6.3.9.1.7-.1 1-.5 1-.4.1-1-.3-1.1-.7-.1-.2 0-.5 0-.8.3-.1.5-.2.7-.2.2-.1.3-.1.7-.2M51.7 151.1v-1.5c1.1-.3 1.4-.2 1.8.4.3.5.1 1-.5 1h-1.3M51.3 140.4c-.6.3-1.1.9-1.8.3-.2-.5 0-.8.3-1.1.4-.4.7-.6 1.4-.4 0 .3.1.7.1 1.2M67.1 167.9c.5.4.8.7.6 1.3-.1.4-.4.7-.9.7s-.8-.1-1-.8c.4-.3.8-.7 1.3-1.1M54.6 151.5c.2.3.5.6.7.9-.5 1.1-.5 1.1-1.7.6-.3-.9-.2-1.2 1-1.4M63.9 167.6c.3-.7.5-1.3.8-1.8 1.1.5 1.2.9.5 2.3-.3-.1-.7-.3-1.2-.5M90.7 133.8c-.3-.5-.4-1.1 0-1.7.3-.4.7-.5 1-.3.4.2.4.6.3.9-.3.5-.5 1.1-1.3 1M47.4 133.4c.3-.1.5-.3.6-.2.5.2.9.5 1.3.7-.2 1-.2 1-1.3 1.1-.2-.5-.3-.9-.5-1.6M67.6 164.3c0 .3 0 .7-.1 1l-1.2.3c-.4-.4-.7-.8-.3-1.4.3-.4.6-.4 1.6.1M51.7 138.4v-1.2c.4-.1.7-.2 1.1-.2.4.7.2 1.3.2 2.1-.5-.3-.9-.5-1.3-.7M88.3 131.2c0-1.1 0-1.1 1.2-1.4.4.3.7.7.4 1.2-.4.7-1 .2-1.6.2M64.1 165.1c-.5.3-.9.5-1.4.8-.3-.2-.5-.4-.8-.7.3-.4.5-.7.7-1 .7-.2 1 .3 1.5.9M55.8 154.7c.3-.5.5-.9 1.1-.7.5.2.8.6.6 1.2-.9.4-.9.4-1.7-.5M62.7 159.7c.3.3.6.5.8.9.1.2.1.6 0 .8-.1.1-.5.2-.7.1-.3-.2-.6-.4-.7-.7-.2-.4.2-.7.7-1M45.6 135.8c.4-.3.6-1 1.2-.6s.3 1 .3 1.5c-.9.2-.9.2-1.4-.9M54.6 145.4c-.4-.5-.7-.8-1-1.1.6-.6.9-.6 1.7.2-.2.3-.4.5-.7.8M50.2 131c.6.6.7 1.1.5 1.7-.7.2-.8-.3-1.1-.8.2-.3.3-.5.6-.9M39.8 108.9c-.4 0-.8-.6-.8-1.1s.7-1.1 1.4-1c.5 0 .9.4.9.8 0 .6-.9 1.3-1.4 1.3M41 98.8v1.5c-.4.1-.7.3-1 .3-.4 0-.8-.4-.9-.8 0-.5.2-.8.7-.9.3 0 .7-.1 1.2-.1M40.2 94.2c.3.4.6.7.9 1l-.6 1.2c-.4 0-.7-.1-1.1-.1-.3-1.4-.2-1.5.9-2.1M37.4 100.5c.4.2.8.3 1.3.5.2.6.1 1.1-.4 1.5-.3.3-.7.2-1-.1-.8-.6.1-1.2-.1-1.8l.2-.2M39.2 103.2c.6-.2 1.1-.8 1.7-.3.3.3.6.7.2 1.2-.2.3-.4.7-1 .5-.5-.2-.8-.6-.9-1.4M40.1 90c.7.6.9 1.1.6 1.7-.1.2-.4.5-.6.5-.3 0-.6-.2-.7-.5-.4-.7-.2-1.2.8-1.8M41.3 109.1c.4-.1.8-.2 1.2-.2.5.5.5 1 .4 1.5-.2.6-.7.7-1.2.3-.4-.4-.5-.7-.3-1.6M42.1 94.5c-.3-.2-.6-.4-.8-.5-.1-1.4 0-1.6 1.3-1.4.4 1 .4 1.1-.4 1.9M39 93.1c0 .9-.6 1.2-1.4 1.3-.1-.2-.3-.5-.3-.8s.1-.6.3-.8q.45-.6 1.5.3M41.5 90c-.1-.6-.2-1.2.4-1.8.4.2.7.4 1.1.6 0 1.3-.3 1.5-1.5 1.2M42.3 114.8c-.4-.1-.7-.1-1-.2-.1-.9.1-1.3.6-1.5.4-.1.8-.1 1 .3.4.7-.3.9-.6 1.4M46.2 65.8c-.4-.4-.8-.7-1.1-.9.4-.9.4-.9 1.7-.7.5.7-.1 1.1-.6 1.6M43.3 78.4c.6 0 1.1.1 1.6.1.2.5.3 1-.2 1.2-.3.1-.7.2-1 .1-.5-.2-.5-.7-.4-1.4M37 96.8c.6.1 1.2.2 2 .4-.5.5-.8.9-1.1 1.2-1.1-.6-1.2-.7-.8-1.6M36.2 98.4c.2.6.3 1.1.5 1.9-.7-.2-1.1-.3-1.6-.4-.2-1-.2-1 1.1-1.5M43 84.9c-.1.3-.2.6-.4 1.1l-.9-.1c-.2-1-.1-1.4.3-1.6.3-.1.4-.1.9.6M46.9 69.1c-.9.5-.9.5-1.7-.3.3-.2.6-.4.8-.6.7-.4 1-.2 1 .6 0 .1 0 .2-.1.3M46.2 72c.6.5.6.5.3 1.5-.4.1-.9.3-1-.3s.3-.9.8-1.1M40.9 105.7c.3-.2.5-.4.8-.7l.6 1.5c-.2.2-.4.3-.7.4-.3-.4-.5-.8-.7-1.2M43.9 111.3c.1.5.3 1 .5 1.7-.5-.2-.8-.2-.8-.3-.2-.5-.3-1 .4-1.4M16.2 99.3c-.1-.7.6-1.3 1-1.3.5 0 1 .6 1 1.2 0 .7-.4 1.3-1.1 1.3q-.9 0-.9-1.2M15.9 92.5c-.3.6 0 1.4-.8 1.7-.6 0-1-.4-1.1-1 0-.4 0-.8.4-1.1.5-.3 1-.1 1.5.4M14.1 97.6c.2-.4.3-.7.5-1 .1-.2.4-.4.6-.4.3 0 .6.3.7.5.2.3.2.7.2 1-.1.1-.1.2-.1.2-.3.2-.5.4-.8.5-.3-.2-.6-.5-1-.8M17.6 96c-.4 0-.7-.1-1.1-.1 0-.5-.1-.9-.2-1.4.5-.3 1-.7 1.6-.2q.6.45-.3 1.8M16.7 106.4c.5.2.9.5 1.4.7 0 .9-.9.8-1 1.5-1.2-.8-1.2-1.2-.3-2.2M16.1 101c-.3 1.1-.7 1.3-2 .8 0-.4.1-.9.1-1.4.9-.2 1.3.3 1.9.6M22.2 116.1c-.8.7-1.3.8-1.8.3-.3-.4-.2-1 .6-1.7.6.3 1.2.6 1.2 1.4M12.3 106.7c.6-.2 1.2-.3 1.6.4.2.4-.1.8-.4 1-.3.3-.6.4-1 .2s-.5-.7-.2-1.7M16.1 112.1c0-1 .5-1.4 1.3-1.2.5.1.8.5.7.9-.1.5-.6.8-1 .7-.1 0-.3-.1-.4-.1-.2-.1-.4-.2-.5-.3M20.1 113.2c0 .6-.1 1.2-.7 1.6-1-.3-1.3-.6-1.1-1.1.2-.6.8-.8 1.8-.5M14.4 84.1c1.4-.3 1.6-.1 1.4 1.3-.3.2-.6.5-1.1.3-.6-.4-.3-1-.3-1.6M19.8 118.4c-1.1.5-1.3.4-1.7-.6.3-.3.6-.6.8-.9 1 .2 1 .2.8 1.5M17 102.2c.9.6 1.1 1.2.5 1.8q-.45.45-.9 0c-.5-.6-.4-1.2.4-1.8M17.8 90.3c.1.2.2.5.3.7-.1.6-1.1.9-1.9.6.1-1.1.4-1.3 1.6-1.3M14.2 109.1c.3-.1.6-.4.8-.4.3 0 .6.1.7.3s.1.5 0 .8-.4.6-.6.9c-.6-.3-.9-.8-.9-1.6M32.2 53.6c.5.1.9.3.9.8.1.5-.3.8-.8 1-.4-.1-.9-.2-.9-.8 0-.5.3-.8.7-1M14.9 88l.9.3c.2.7 0 1-.6 1.2-.5.2-.9.2-1.2-.5.3-.3.6-.7.9-1.1M17 85.7c.5.2.8.4 1.3.6-.4.5-.7.9-1.1 1.5-.3-.4-.5-.6-.7-.8.2-.4.3-.8.5-1.3M31.2 56.8c-.5.7-1.1.4-1.7.4 0-.4-.1-.7-.1-1 1.1-.4 1.2-.4 1.8.6M18.8 108.8c.5.2.9.3 1.5.5-.4.4-.7.8-1 1.1-.1.1-.5.1-.6 0-.2-.2-.3-.5-.3-.8s.3-.5.5-.8M15.8 104.7c.2.9-.1 1.3-.8 1.5-.3-.3-1-.5-.7-1.1.3-.8 1 0 1.6-.4M20.4 120.1c-.2-.3-.2-.5.1-.7s.7-.2 1.1.1c-.4.6-.4.6-1.2.6M66.4 81.4c-.2-.2-.5-.3-.6-.6-.3-1.3-.8-2.6-.1-3.9.3-.5.4-1 1.1-.7.1 0 .4-.2.5-.3 1.2.1 1.5 1.1 2.3 1.9-.3.8-.6 1.6-1 2.4 0 .1-.2.3-.3.3-.8-.2-1.2.5-1.8.9M72.8 77.9c-.3-1.2-.1-2.2.7-3 .6-.7 1.8-.6 2.4 0 .1.1.3.4.3.6 0 .6 0 1.3-.1 1.9-.3 1.3-1.4 1.7-2.5 1-.2-.1-.4-.3-.8-.4M79.1 76.1c.7-2 1.5-2.7 3.1-2.6.3.5.7 1 1 1.5-.3.7-.2 1.6-1 2-.4.2-.8.5-1.2.7-.2.1-.6 0-.7-.1-.5-.5-.8-1-1.2-1.4M101.5 60.1c.5-.7 1.4-1.2 1.9-1 .3.1.5.5.6.7.1.5-.1.9-.5 1.1-.3.2-.7.3-1 .1-.3-.3-.6-.6-.9-1M126.4 57.3c0 .6-.1 1.2-.1 1.9-.7-.1-1.2-.2-1.7-.3-.2-.7-.1-1.4.4-1.8.4-.4.9-.2 1.4.2M131.4 54.9c1.4 1 1.5 1.5.3 2.2-.2-.1-.5-.3-.7-.4s-.5-.2-.7-.3c.1-.9.6-1.3 1.2-1.5M123.7 58.8c0 .8 1.2 1 .6 1.8-.3.4-.7.6-1.3.4-.5-.2-.8-.5-.8-1.1 0-.8.8-.8 1.5-1.2M91.3 54.1c.2-1 .4-1.3.9-1.3s.9.4 1 1c.1.4.1.8-.4 1-.5.3-.9.1-1.6-.7M91 57c-.5-.1-1-.3-1.5-.4q-.15-1.35.9-1.8c1.1.5 1.3 1 .6 2.3M107 59.1c.5 0 1 .4 1 1 0 .5-.6 1.1-1.2 1.1s-.9-.4-.9-1c0-.7.5-1.1 1.1-1.1M89.4 59.7c.6-.6 1.2-.3 1.8-.3.7 1.1.6 1.5-.5 2-.7-.3-1.1-.8-1.3-1.7M103.7 67.4c-.1.6-.1 1.1-.2 1.6 0 .1-.1.2-.2.2-.5.4-.9 0-1.3-.2-.2-.1-.4-.6-.3-.8.1-.3.5-.6.8-.8.3-.1.7 0 1.2 0M109.7 58.7c-1.1.4-1.5.4-1.8-.1-.2-.4-.2-.8.2-1.1.3-.3 1.1-.5 1.5-.3s.4.5.2 1.5M98.7 67.4c.5 0 .9.5.9 1.1s-.4 1-.8.9c-.6 0-1.2-.6-1.2-1 0-.6.6-1 1.2-1M130.4 58.1c0 .6-.3.9-1 .9-.6 0-1-.4-.9-1 0-.6.6-1 1.1-1 .6 0 .8.4.8 1.1M126.7 57c.1-.8-.5-1.5.2-1.9.3-.2.8-.1 1.1 0 .6.3.3 1 .3 1.5-.5.1-1 .2-1.7.4M100.8 63.3l-1.4-.7c.2-.5.3-.9.4-1.3.8-.2 1.4-.1 1.7.6.3.6-.2 1-.7 1.4M108.1 54.9c-.1-.5-.1-1.1-.2-1.6.7-.1 1.1-.6 1.7-.1.3.3.5.6.2 1.1-.3.7-.9.8-1.8.7M105.7 57.5c0 1-.1 1.3-.7 1.5-.4.1-.8.1-1.1-.3-.3-.5-.3-1 0-1.3.4-.4.8-.3 1.7.2M97.6 58.7c-.4.2-.7.4-1 .5-1-.7-1.2-1.1-.8-1.7s.7-.6 1.7.1c0 .3.1.6.1 1.1M99.8 54.5c-.1-1.2 0-1.3.6-1.5.4-.2.9-.2 1.1.2s.2 1 0 1.5c-.1.4-.5.3-1.6-.2M103.6 62.2c.3-.8.8-1.2 1.6-1 .5.6.5 1.2.1 1.9-.8.1-1.3-.3-1.7-.9M103.9 67.2c0-.4-.1-.6-.1-.9 0-.4.2-.8.6-1 .5-.1 1 .1 1.3.5s0 1.1-.5 1.2h-.2c-.3 0-.6 0-1.1.1M125.7 54.9c-.3-.1-.6-.2-1-.3 0-.3-.1-.7 0-1 .2-.6.8-.7 1.4-.8.6 1 .6 1.1-.4 2.2M99.5 65.5c.6 0 1-.1 1.4 0 .5.1.8.4.8.9 0 .4-.2.7-.6.8s-.9.1-1.2-.3c-.2-.3-.3-.7-.5-1.4M99.8 70.1c.4-.3.8-.6 1.1-.8.7.4 1 1 .8 1.4-.1.3-.8.8-1.2.7-.6-.2-.5-.8-.7-1.3M107.8 56c0 .6-.4 1-.9 1-.6 0-1-.6-1-1.2 0-.4.4-.7 1-.7.7 0 1 .3 1 .9M130.9 51.1c.6-.1 1.2-.3 1.6.3.3.4.4.9 0 1.3-1.8-.1-2-.3-1.6-1.5M132.7 60.3c-.7.7-1.4.9-1.8.5-.2-.2-.3-.5-.2-.7.1-.6.5-.9 1-.9.7 0 .9.5 1 1.1M128.2 59.6c.2.8.1 1.3-.7 1.7-.3-.2-.6-.4-.8-.7-.3-.3-.4-.7-.2-1 .2-.4.6-.5 1.1-.3zM126.4 52.4c.1-1.3.1-1.3 1.9-1.5.1.3.1.6.2.9-.3.2-.5.3-.7.4-.1.1-.2.4-.4.6-.4-.2-.8-.3-1.1-.5M122 57.1c0 .2.1.3.1.5.1.3.4.8 0 1s-.9.2-1.4.1q-.6-.15-.3-.9c.3-.7.7-.9 1.7-.7M96.5 60.9c.4.4.8.7 1.2 1-.1.9-.5 1.1-1.7.9-.3-1.1-.3-1.2.5-1.9M102.7 65.4c-1-.5-1.1-.8-1-1.5.1-.4.5-.8.9-.8.5 0 .6.4.7.7.1.6.2 1.2-.6 1.5M118.6 63.4h1.4c.1.4.2.7.3 1.1-.4.2-.8.4-1.1.6-1.1-.4-1.2-.7-.6-1.7M121.4 63.2c-.8-.2-1.1-.5-1-1s.4-1 .8-1c.4-.1.7.2.9.6.3.5.2.8-.6 1.5M101.8 58.2c-.4.5-.8 1-1.5.7-.5-.2-.6-.7-.5-1.1.1-.3.5-.5.8-.6.5-.2.8.2 1.2 1M103.9 55.8c-.4.9-1 1.1-1.7.9-.4-.2-.5-.6-.3-1.4.8-.2 1.5-.3 2 .6M95.2 57c-.4-.1-.9-.3-1.2-.4-.1-.6-.3-1.2.3-1.6.3-.2.6-.1.9.1.5.4.5.9 0 1.8M97.8 64.7c-.2-.5-.3-.9.1-1.3.4-.3.7-.3 1.1 0 .6.3.6.8.5 1.4-.6.5-1.1.1-1.7-.1M111.9 54c.2-.4.4-.7.7-1.2.4.1.8.3 1.1.4.2.9.1 1.5-.4 1.9-.4-.5-.7-.8-1-1.2-.1 0-.2.1-.3.1M123.2 63.1c.4 0 1 .6 1 1 0 .3-.7 1-1 1-.4 0-.8-.5-.8-1.1 0-.4.4-.9.8-.9M125.3 50.8c-.5-.2-1-.4-.8-.9.1-.3.4-.7.7-.9.3-.1.7 0 1 .2.3.3.2.7-.1 1-.2.2-.5.4-.8.7M117.9 65.5c.2.9.2.9-.2 1.6-.6.1-1-.2-1.3-.7-.4-.6 0-1.1.7-1.1.3 0 .6.1.9.2M120 56.1c0 .7-.2.9-.8.9-.5 0-1-.7-1-1.2 0-.6.4-.6.8-.6.8 0 1 .2 1 .9M129.5 55c-1.2-.6-1.2-1 0-2 .5.1.9.3.9.9s-.3.9-1 1.1M116.4 53.1c.6.1 1.3-.3 1.6.4.2.3-.1.8-.1 1.1-.8.3-1.4.1-1.9-.6.1-.3.3-.6.4-.9M119.3 53.1c-.4-.4-.8-.7-1.2-1 .2-.4.3-.7.5-1 .7-.1 1.1.2 1.4.7.2.5-.1.8-.6 1.3M112 51.8c0 .5-.4.9-.8 1-.5 0-1-.5-1-1s.6-.9 1.1-.9.8.4.8.9M97 69.2c.3.5.6.8.9 1.2-.5.4-.9.7-1.4 1.1-.2-.5-.4-.9-.7-1.4.4-.3.8-.6 1.3-.9M110.7 65.5c-.3-.2-.6-.4-.9-.5.2-.5.3-.9.4-1.3.6-.1 1.3-.1 1.5.5.3.8-.6.9-1.1 1.3M103.7 51.1c-.2.7-.3 1.1-.5 1.7-.4-.1-.8-.3-1.2-.4 0-.5-.4-1.1.2-1.4.3-.2.9 0 1.5.1M111.8 69.1c-.6 0-1.2 0-1.5-.6s.2-1 .6-1.4c1 .6 1.2.9.9 1.9M126 62.9c-.7 0-1.3 0-1.8-.7.4-.4.8-.7 1.1-1 1 .3 1.1.5.7 1.8M106 64.9c-.2-1-.2-1 1-1.7.5.1.9.4.8 1s-.7.8-1.7.7M110.3 59.2c1.1-.1 1.8.3 1.8.9s-.4.7-1.8.6zM116.1 62l.6-.9c.6.3 1.4.3 1.4 1.1 0 .6-.5.9-1.1 1-.2-.3-.5-.7-.8-1.2M116.7 50.7c-.1-.6-.5-1.2.1-1.7.3-.2.7-.1 1 .2.2.2.4.6.3.8-.3.6-.7.9-1.5.7M107.1 50.8c.4.5 1.1.8.7 1.7-.4 0-.9 0-1.4-.1-.2-.1-.5-.4-.5-.6s.2-.4.4-.6.5-.3.8-.4M110.6 56.8q-.9-.6-.6-1.5c1.2-.4 1.7-.2 1.9.8-.5.2-.9.4-1.3.6M94.3 63.3c.4.2.7.2 1 .3.1.6.2 1.2-.4 1.4-.6.3-1-.1-1.5-.7.3-.4.6-.7 1-1.1M111.7 62.4c.3-.8.6-1.2 1.4-1.2.2.2.4.5.7.9-.2.3-.4.6-.7 1-.5-.3-1-.5-1.4-.7M108.8 63.5c-.4-.5-.7-1-1-1.4.7-.8 1.2-.9 1.7-.5.4.4.2 1-.7 1.9M106 67.6h1.1c.4 0 .7.2.7.6s-.1.7-.5.8c-.2.1-.5.1-.8.2-.7-.3-.6-.9-.5-1.6M115.6 55c.1.7.2 1.3.3 2.1-.7-.2-1.1-.4-1.6-.5-.1-1.1 0-1.3 1.3-1.6M95 67.4c.1.3.3.6.4.8-.4.5-.6 1.3-1.6.9-.3-1.1-.2-1.3 1.2-1.8M122.7 56.7v-1.3c.1-.4.4-.6.8-.4s.9.3.8.9-.5.8-1 .8zM98.6 59.1c1 .6 1.1 1 .2 2-1.3-.4-1.4-.9-.2-2M116.7 57.3c.8-.2 1.2-.1 1.4.4.1.2.1.6-.1.8-.3.2-.7.4-1 .4-.4 0-.4-.4-.3-1.6M92.1 63.2c-.5-.7.2-1.3-.1-2 .9.1 1.3.5 1.6 1-.1.9-.9.7-1.5 1M134.6 53.4c.1.7-.2 1.1-.9 1.3-.1 0-.1 0-.2-.1-.7-.6-.8-1.1-.5-1.5s.8-.3 1.7.3M113.5 58.9h-.8c-.4-.4-.3-1.7.1-1.9s.7 0 .9.3c.4.5.3 1-.1 1.6M99.1 55.2c.3.5.3.9.1 1.4s-.8.5-1 .1-.3-.9-.5-1.4h1.4M114.3 51.2h1.4c.1.5.1.9.2 1.3-1.5.3-1.7.2-1.5-1.3M97.3 67c-.9.2-1.4-.1-1.7-.8.2-.2.4-.4.7-.6.2-.1.6-.3.7-.3.2.1.3.4.4.7s0 .6 0 .9M122.7 52.4c-.1-.7-.3-1.3.7-1.8.2.3.5.7.8 1.1-.4.9-.4.9-1.5.7M118.2 60c.5-.3.8-.9 1.4-.6.4.2.5.6.4.9-.1.2-.4.5-.7.6-.6.2-.9-.2-1.1-.9M93 57.1c.1.6.2 1 .2 1.4-1.2.5-1.6.1-1.5-1.2.4-.1.8-.1 1.3-.2M115.8 59.5c.1.7.2 1.3-.3 1.8-.9-.3-1.1-.5-1-1.2.1-.6.3-.7 1.4-.5M109.2 67c-.6 0-1-.4-.9-.9.1-.4.2-.7.7-.7s1 .4 1 .8c0 .5-.3.8-.8.8M113.2 50.8c-.3-.2-.7-.3-1-.5.2-1.1.3-1.2 1.3-1.3.6.9.6 1-.2 1.7M108.2 71.1c.1-.5.1-1 .2-1.4 1-.2 1-.2 1.4.6-.5.9-.5.9-1.6.7M130.2 50.5c-.5-.1-.9-.2-1.2-.4-.1 0-.2-.1-.4-.2 0-.6.4-1 .9-1 .3 0 .7.3.8.6.1.2-.1.6-.1 1M96.3 54.6c-.6-.5-.6-1-.2-1.4.2-.2.6-.2.9-.2.5.2.5.6.3 1.2-.3.1-.7.3-1 .4M105.4 53.2c.3.6.2 1.1-.3 1.4-.3.2-.7.1-.8-.2s-.3-.6-.2-.9c.3-.6.8-.5 1.4-.3M122.4 66.9c-.5 0-.9.1-1.3.1-.3-.1-.6-.4-.6-.6s.3-.6.6-.7c.3-.2.7-.1.9.3.1.2.2.5.4 1M114.6 68.9c-.5-.9-.5-1.1.3-1.7.3.3.9.4.9 1-.1.6-.7.6-1.1.8M122 49.2c.1.2.1.4.1.6v.4c-.5.1-.9.2-1.4.2-.2-.4-.6-.8-.2-1.3.4-.4.9-.1 1.4.1M121 54.7c-.1-.2-.4-.4-.5-.7-.1-.4.5-.9 1-.9q.6 0 .6.6c0 .4-.5 1-1.1 1M133.8 58.9c-.4 0-.9-.5-.9-.8 0-.4.4-.8.8-.7.4 0 .9.5.9.8 0 .4-.4.7-.8.7M115.9 64.9c-.6.2-1.1.3-1.4-.3-.1-.2 0-.6.2-.8s.6-.2.8-.2c.5.2.7.6.4 1.2M87.3 53.7c.4-.2.7-.4 1.1-.7.3.2.6.4.9.7-1 1.1-1.4 1.1-2.1 0M112.5 67c-.1-.6-.3-1.2.3-1.6.5.4 1.1.6 1.1 1.5-.5 0-.9 0-1.4.1M105.5 71c-.8.2-.9-.4-1.3-.8.2-.3.4-.5.6-.9.4.3.6.5 1 .7-.1.3-.2.7-.3 1M94 59.4h1.3c0 .4 0 .8.1 1.2-1.3.2-1.6-.1-1.3-1.2M129.5 63.2c-.5-.3-.8-.6-.5-1.1q.3-.6 1.5-.3c.3.9-1 .7-.9 1.4M20.4 52.2c-.1.6-.2 1-.2 1.5-1.6.4-1.6.4-2.1-.8l.4-.4c.1-.2.3-.3.4-.6.2.1.4.1.6.2.2 0 .4.1.9.2M8.6 27.4c-.8-.3-.7-.9-.7-1.5.1-.6.6-.8 1-1 .9.3.7 1.1 1 1.7-.5.3-.9.5-1.3.7M20.4 36.4c-.3.3-.5.7-.8.9s-.8.2-1 .1c-.3-.2-.5-.6-.6-1s.2-.7.7-.7c.7-.1 1.3.1 1.8.7M15.4 23c.5.7.7 1.2.3 1.9-.4.5-.9.3-1.4.3v-1.7c.4-.1.7-.3 1.2-.4M11.4 37.6c-.5-.5-.9-.8-1.4-1.3.3-.3.6-.7.9-1.1.6.1 1 .4 1 1s.1 1.2-.5 1.4M18 57.1c.3-.9.6-1.1 1.4-1 .4 0 .6.2.7.6.1.5-.1 1.1-.5 1.2-.8.3-1.1-.4-1.6-.8M17.1 39.7c-1.3-1-1.2-1.7.2-2.4.3.3.6.6.9 1-.4.5-.7.9-1.1 1.4M19.1 27.2c.6 0 1 .4 1 .8 0 .6-.6 1.3-1.1 1.2-.4 0-.8-.6-.8-1.2s.4-.9.9-.9M17 33.4c.3.1.5.3.8.4.2 1.3.1 1.5-.5 1.7-.5.1-.9-.1-1.2-.5s-.1-.7.9-1.5M7.9 34.2c.6-.5 1.2-.8 1.9-.5.4 1.8-.2 2-1.5 1.6-.1-.3-.2-.7-.4-1.1M34.5 17.6c-.3 1-.6 1.4-1.2 1.4-.4 0-.6-.3-.6-.6-.1-.7 0-1.2.4-1.3.6-.2 1.1.1 1.4.6M25.9 21c.2.6.3 1.1.5 1.7-.6 0-1.1.1-1.5 0-.2 0-.5-.3-.6-.5 0-.2.1-.6.3-.7.3-.2.7-.3 1.2-.5M12.7 39.6c-1-1-1-1.3-.1-2.2.3.2.7.5 1 .7.1 1.1.1 1.1-.9 1.5M16.5 25.3h1.2c.1.3.3.6.4.9-.1.2-.3.4-.4.4-.4.1-.8.7-1.3.2-.4-.4-.2-.9.1-1.5M29.3 16.8c.9.5 1.2 1 .8 1.7-.1.2-.4.5-.7.5-.2 0-.5-.2-.7-.4-.4-.7-.3-1.1.5-1.7M20.6 40.7c-.8.3-1.3.5-1.8.7-.2-.2-.4-.4-.5-.7-.1-.2-.1-.6.1-.8s.6-.4.9-.3c.5.2.8.6 1.4 1M15.5 29c-.6 0-1.2.2-1.4-.4-.1-.3.1-.9.3-1.2.4-.5.8-.2 1.3.2-.1.4-.1.9-.2 1.4M8.3 23l-.3-.9c.2-.2.4-.5.6-.8 1 .1 1.3.3 1.3.8s-.6.9-1.6.9M13.1 64.4c-.4-.4-.7-.7-.9-1-.1-.3-.1-.8 0-.9.2-.2.7-.2 1-.1.4.1.7.4.5.8-.1.4-.4.7-.7 1.2M15.9 32.5c-.6.8-.7.8-1.7.3 0-.5-.2-1.1.4-1.4.4-.2.7 0 1.2 1.1M20.4 54.1c.5 0 .8 0 1.1.1.1.4.2.7.2 1q0 .75-.6.9c-.5.1-.8-.2-.9-.6 0-.4.1-.8.1-1.3M20.1 18.2c.8-1.2.9-1.2 2-.5l-.3.9c-1.1.3-1.2.3-1.7-.4M18.8 47.8c.3.1.6.2.8.3.3.5.1 1.3-.3 1.4-.3.2-.7.2-1-.1-.4-.5-.3-.9.5-1.6M28.9 20.9c1.3.1 1.5.5 1 1.5-.2.3-.4.7-.8.4-.3-.2-.4-.7-.4-1s.2-.6.3-1M23.8 20.5c-.6.1-1.2.2-1.4-.5-.1-.4.1-.7.4-.9s.7-.3 1 0c.4.4.5.9 0 1.4M17.9 18.5c-1.1.6-1.4.5-1.8-.5.4-.6 1.1-.5 1.7-.7 0 .5 0 .9.1 1.3M24.4 18.6c-.2-1.1-.2-1.1.5-1.7.4.3.8.6 1.2.8-.6 1.2-.6 1.2-1.7.9M10.2 28.9c-.4-.6-.3-1.1.1-1.4.3-.2.8-.1 1.1 0 .2.1.2.6.1.9-.2.7-.8.6-1.4.5M12.4 25.3c.6.1 1.1.2 1.6.3-.5 1.1-.9 1.4-1.5 1.2-.5-.2-.5-.4-.1-1.5M11.8 34.3c.2-.3.3-.6.5-.9.5.2.9.3 1.4.5 0 .5-.2 1-.6 1.1-.5.2-.9-.1-1.2-.7M16.8 29.4c.4.1.7.2 1 .2.1 1.1-.1 1.4-1.3 1.3-.6-.8-.6-.8.3-1.6M11.7 32.2c-.6.7-.6.7-1.6.9 0-.4-.1-.8-.1-1.2 1.1-.5 1.2-.5 1.8.3M14 36.7c.2-1 .7-1.3 1.4-1.1.4.1.6.5.3.9-.3.6-.8.6-1.8.2M27.6 18.8c.3.2.5.5.8.7l-.6 1.2c-.5 0-.9-.1-.9-.6-.1-.5 0-1 .8-1.3M31.4 19.2c.6 0 1 .2 1 .6s-.3.7-.8.7c-.6 0-1.1-.3-1.1-.7 0-.5.4-.6.9-.6M19.7 45.4c-1.4-.2-1.5-.4-1.3-1.5.3 0 .6 0 .9-.1.4.5.9.9.4 1.6M8 37.9h1.4c.3.3.4.8.1 1.1-.2.2-.6.3-.9.2q-.75-.3-.6-1.2M19.9 32.7c-.4.2-.8.4-1.1.6-.5-.1-.7-.5-.5-1 .1-.3.5-.7.7-.7.6 0 .8.5.9 1.1M35.5 16.7c-.5-.4-.7-.9-.4-1.4.1-.2.6-.3.8-.2.4.1.9.3.8.9-.1.7-.7.5-1.1.7M13.6 31.1c-.8.2-.9-.4-1.1-.8s-.2-.4.3-1.1c.3.1.7.3 1 .5-.1.6-.2 1-.3 1.4M34.3 22.7c-.6.2-1 .1-1.3-.4-.2-.4 0-.7.3-.8s.8-.1 1 0c.4.3.3.8 0 1.2M21.7 43.4c-.8-.1-1.2-.4-1.2-1s.3-.9.9-1c.5.6.3 1.3.3 2M7.7 30.3c.2-.7.7-.7 1.2-1 .3.5.5.9.8 1.5-.9.1-1.5 0-2-.5M10.6 23.3c.5.1 1 0 1.1.7-.2.2-.4.5-.6.7-.8-.3-.8-.3-.5-1.4M21.2 33.4c.2.6.3.9.4 1.4-.4 0-.8 0-1.1-.1-.1-.1-.3-.5-.2-.6.1-.2.5-.3.8-.6M40.3 29.8c.6-.7 1.3-.2 2-.4.3.6.6 1.2.1 1.6s-1.1.3-1.7 0c-.1-.4-.2-.8-.3-1.3M42.8 16.5c-.2-.4-.3-.9-.6-1.5.8 0 1.4-.6 1.9 0 .3.3.6.8.3 1.3-.2.4-.4.4-1.6.3M45.9 12.4c.7 1.3.7 1.9.2 2.1q-.9.45-1.5-.9c.4-.4.9-.7 1.4-1.2M43.9 37.4c-.7 0-1-.5-1.1-1.1-.1-.4.1-.6.8-1.1 1.4.8 1.4 1.2.4 2.2M41.9 27.4c-.5-.4-.9-.6-1.4-1 .1-.4.2-.8.4-1.1.8-.3 1.3.1 1.7.7-.2.4-.4.8-.6 1.3M40.8 34.9c0-.5-.6-1 .1-1.4.4-.3 1-.1 1.4.4.3.3.5.6.2 1s-.7.5-1.7.1M43.9 39.2c.8.5.6 1.2.5 2-.4 0-.8.1-1.1.1-.6-1-.6-1.2.7-2M57.3 6.1c-.4-.7-.4-1.1.1-1.4.6-.3.9-.3 1.3.1.2.2.3.6.2.9 0 .2-.4.3-.7.4s-.6 0-.9 0M42.2 22.5c-.5 0-1.2.4-1.5-.3-.1-.2 0-.7.1-.9.3-.2.7-.2 1-.1.5.1.5.5.4 1.3M42.8 18.9c.7.2 1.1.4 1.6.6-.1.4-.2.8-.3 1.3-.5 0-.9-.1-1.3-.1V19M44.1 27.2v1.2c-.1.5-.4.7-.9.5s-.7-.6-.6-1c.2-.6.8-.7 1.5-.7M43.3 23c.4.1.8.1 1 .3.4.4.2.9-.1 1.3-1.3.3-1.4.1-.9-1.6M48.4 10.9v1.3c-.2.1-.5.2-.8.4-.2-.4-.5-.8-.7-1.2.4-.6.8-.7 1.5-.4M49.1 8.8c1-.1 1.4 0 1.5.6 0 .4-.2.7-.6.8-.7 0-.9-.3-.9-1.3M43.8 31.2c.1.6.3.9.2 1.2 0 .2-.2.7-.4.7-.3 0-.7-.2-.8-.4s0-.7.1-.9.5-.3.8-.6M46.2 17.4c-.4.6-.3 1.4-1.3 1.5.1-.6.1-1.2.2-1.9.4.2.7.3 1.1.4M45.7 41.6c.2.5.3 1 .4 1.4-.5.3-.8.2-1-.2q-.3-.75.6-1.2M56.7 7.4c-.5.3-1 .5-1.7.9.1-.9.6-1.2 1-1.5.2-.1.5.2.7.3 0 .1 0 .2-.1.3M119.4 163.4c-1.3-.9-1.3-1.1-.5-2.2 1.3.1 1.7.3 1.7 1.1.1.9-.7.9-1.2 1.1M116.5 159.7c.5-.3.7-.4 1.1-.6.2.1.5.2.6.4.2.3.3.6.2.9 0 .2-.3.5-.5.6-.4.1-.8.1-1.1-.3l-.3-.9M122.1 165.3q-.6-.15-.9-.3c-.3-.2-.7-.5-.5-.9.1-.3.5-.7.8-.8.5-.3 1.1.2 1 .8 0 .4-.2.7-.4 1.2M112.6 151.2c.4-.2.7-.4 1-.6.3.5 1.1.9.7 1.7-.1.2-.5.4-.8.4-.6-.1-.9-.5-.9-1.4M115.3 152.7c.4.5.7.8 1 1.3q-.6.3-.9.6c-.8-.7-.8-.9-.1-1.9M114.8 157.5c.5-.3.9-.4 1.2.1s.1.9-.4 1.2c-.5-.3-1-.6-.8-1.3M124.4 166.8c-.9.7-1.2.6-1.8-.6.7-.4.9-.4 1.8.6M89.6 200.5c-.2.3-.3.4-.5.6-.5.6-.9.7-1.4.4-.6-.4-.7-1.1-.4-1.7s1-.7 1.5-.3c.3.3.5.6.8 1M83.1 190.8c-.6.2-1.3.6-1.8 0s0-1.1.4-1.5c1.5.1 1.7.3 1.4 1.5M85.5 194.1c0-.6.3-1 .7-1s1.1.7 1 1.1c0 .6-.5 1.1-1 1.1s-.8-.4-.8-1.2M90.3 197.3c1 .8 1 .8.7 2-.9.2-1.4.1-1.6-.5q-.3-.9.9-1.5M94.3 197.4c.4.2.8.3 1.1.5.3.7.1 1.2-.4 1.6s-.9.2-1.1-.3c-.2-.6-.1-1.1.4-1.7M88.9 195.5c.7.5.3 1.1.2 1.7-.5.1-1.1.3-1.4-.3-.1-.3-.2-.7-.1-1 .3-.6.9-.5 1.4-.4M84.2 193.6c-.4-.5-.7-.9-1-1.2.2-.6.4-1 1-1s1 .2 1.1 1c-.3.3-.6.7-1.1 1.2M85.8 197.5c.5.4 1.3-.1 1.5.7.1.6-.3.9-.8 1.3-.5-.3-.9-.7-1.5-1.1.3-.4.6-.6.9-.9M91.4 200.3c.3-.6.9-.6 1.4-.6.4 0 .7.1.8.6 0 .5-.1.8-.6.9-.4.1-.7 0-1.2 0l-.3-.9M80.1 189.3c-.9-.3-.8-1-.7-1.6 1-.5 1.4-.4 1.7.2s0 1-.9 1.5M91.6 196.9c.1-.5.2-.9.3-1.3.6-.2 1.1-.1 1.5.5.2.4 0 .7-.2 1-.5.5-1 .2-1.5-.1M80 191.1c.3.2.6.3.9.6.4.4.4.9.1 1.2-.3.4-.7.3-1.1-.2-.2-.3-.4-.6-.6-1 .3-.2.5-.4.7-.6M81.2 194.6c.2-.4.4-.8.6-1.1 1.4.3 1.5.6.7 1.8-.4-.2-.9-.5-1.3-.7M83.6 195.6h1.3c0 .4.1.7.1 1.1-.6.3-1 .8-1.7.3.1-.5.1-.9.2-1.4M89.6 194.2c.6.1 1.1.2 1.5.2.1.6-.1.8-.6.8s-.8-.3-.9-1M81.5 185.9h1c.2 0 .2.3.4.5-.2.1-.4.3-.6.3-.3-.1-.6-.3-.8-.4 0-.1.1-.2.1-.4M79.2 173.2c.2-.3.4-.5.6-.8 0 0 0-.1-.1-.1-.3.1-.7.2-1.1.4-.2-.9.1-1.5.4-2.2.8.2 1.5.5 1.7 1.1 0 1.3-.3 2.5-.8 3.5-.5 1.1-.4 2.4-1.5 3.2-.4-.2-.7-.4-1-.6-.1-.6-.1-1.1.2-1.8s.1-1.5.2-2.2c.1-.8.3-.9 1.3-.5M75.5 168.2c.4.4.7.7 1.1 1 0 .3-.1.6-.1.9-.7 0-1.1.3-1.1 1.2.2-.4.4-.6.7-1.1.1.5.1.7.1.9-.1.4-.3.9-.5 1.3s-.1.7.2 1.1c-.3.4-.6.7-1.1 1.2 0-.5 0-.8.1-1.2-.2 0-.3 0-.3.1-.1.2-.1.4-.1.6 0 .3 0 .6-.1 1-.3-.3-.5-.5-.9-.8 0-.2-.1-.5-.1-.9.3-.2.6-.4.8-.6.1-.7.1-1.3.2-1.9 0-.2.2-.4.1-.6-.3-1.1.8-1.4 1-2.2M73.3 175.3c.3.1.7.3 1.1.5-.1.2-.3.4-.4.7.1.1.2.3.3.5-.2.2-.4.5-.6.8-.2-.1-.4-.1-.5-.3-.5-.8-.5-1.5.1-2.2M117.2 126.3c1 .2 1.6.8 1.9 1.8-.1.8-.6 1.6-.5 2.5 0 .3-.1.7-.2 1-.8 1.6-.8 3.4-1.2 5.1-.2 1-.5 1.9-.6 2.9-.1.5-.7.9-1.1.9-.6-.1-1.1-.5-1-1.2.1-1.3.3-2.6.5-3.8.1-.7.3-1.4.4-2.1.1-.4.3-.7.4-1.1.1-.3.1-.5.2-.8.1-.4 0-.8.2-1.1.3-.6.5-1.2.5-1.9s.5-1.4.7-2.2M114.3 128.4c.8.5 1.2 1.1.7 2-.1.2-.2.4-.1.5.3.8 0 1.5-.2 2.2-.3 1.2-.7 2.3-1.2 3.4-.1.2-.3.4-.4.6-.2.2-.5.5-.8.7-.9-.4-1-1-.7-2.1.3-1.2.4-2.4.8-3.5.3-.8.3-1.6.6-2.4.2-.6.5-1.1 1.3-1.3" class="a"/></g></svg>