<svg xmlns="http://www.w3.org/2000/svg" viewBox="0 0 178 238"><style>.a{fill:#1A1919;}</style><title>  Group 2</title><g fill="none"><path d="m60.6 20.3c-0.4 1.1-0.2 3.2 0.5 4.2 0.1 0 0.3 0 0.4-0.1 0.9-0.2 0.9-0.2 0.9-1.3 0-0.5 0-0.9 0-1.4 0.1-0.9 0-1.8 1-2.4-0.4-0.1-0.7-0.2-1-0.3 0-0.2-0.1-0.4-0.2-0.7-0.2 0.2-0.4 0.3-0.5 0.5 0.3 0.3 0.6 0.6 0.8 0.9 0 0.1 0 0.1-0.1 0.2-0.3-0.1-0.6-0.2-0.7-0.2-0.4 0.2-0.7 0.4-1.1 0.6zm25.2 14.8c0.1-1.2 0.5-2.3 0.2-3.5-0.2-0.1-0.4-0.4-0.8-0.7-0.6 0.4-1.2 0.9-1.8 1.4-0.1 0.1-0.2 0.3-0.2 0.5 0 1.1-0.2 2.1 0.3 3.1 1.1 0.5 1.7-0.2 2.3-0.7zm-34.3 0.4c-0.5 0.9-0.9 1.6-1.3 2.3 0.3 0.6 0.7 1.3 1 1.8 0.4 0.1 0.7 0.3 1.1 0.3 1.6 0.2 2.5-0.7 2.1-2.4-0.4-1.4-1.7-1.5-2.8-2.1zm-41.2 62.5c-0.1-0.9-0.1-1.6-0.1-2.2 0-0.6-0.1-1.3-0.1-1.9 0-0.5-0.1-1 0-1.6 0.1-0.5 0.1-1-0.6-1.3-0.6 0.8-0.4 1.8-0.8 2.6 0.5 0.8 0.1 1.3-0.6 1.6 0.2 0.2 0.4 0.4 0.4 0.5 0.1 0.7 0.5 1.3 0.3 2-0.4 1.3 0.3 2.4 0.5 3.6 0.1 0.3 0.4 0.5 0.8 0.9-0.1-1.7-0.3-3.2 0.4-4.4zm65.3 14.6c-0.8 0.6-1.5 1.1-2.2 1.6 0.5 0.7 1.1 1.4 1.4 2.3 0.3 0.9 0.2 1.8 0.3 2.8 1.1-0.1 1.6-1.2 2.7-1.5-0.4-1.9-0.6-3.8-2.1-5.2zm-18-96.6c-0.2 0.7-0.2 1.3-0.5 1.8-0.6 1.2-0.5 2.5-1.1 3.7-0.3 0.7 0 1.5 0 2.3 0.1 1.1 0.5 1.4 1.8 1.2 0.1-0.5 0.1-1.1 0.2-1.7 0-0.2-0.1-0.5 0-0.6 0.5-0.6 0.1-1.1-0.3-1.6 0.2-0.1 0.4-0.1 0.6-0.2-0.2-0.6-0.4-1.1-0.7-1.7 0.4 0.2 0.7 0.3 1 0.5 0.1-0.8 0.3-1.5 0.4-2.2 0-0.1-0.3-0.2-0.4-0.4-0.1-0.2-0.3-0.3-0.4-0.5 0.3-0.1 0.5-0.1 0.7-0.2v-0.2c-0.4-0.1-0.8-0.1-1.2-0.2zm22.2 101c0.4-0.4 0.7-0.7 1-0.9 0.2-0.2 0.4-0.4 0.6-0.5 0.9-0.2 1.4-0.7 1.9-1.4 0.3-0.4 0.9-0.7 1.5-0.9 0.3-0.1 0.7 0.2 1.1 0.4 0.1 0 0.2 0 0.4-0.1-0.5-0.5-0.8-0.9-1.3-1.3-0.5-0.3-0.7-0.7-0.7-1.3 0-1-0.6-1.7-1.3-2.3-1 0.6-2.1 1.1-3.1 1.7-0.6 0.3-1.1 0.6-1.7 0.9 0.1 0.3 0.1 0.5 0.2 0.6 0.7 0.3 0.9 1 1.4 1.5 0.9 1.1 0.3 2.2 0.2 3.5zm-71.8-30.6c0.9-1.2 1.8-2.3 2.6-3.4 0.2-0.3 0.3-0.6 0.3-0.9 0.1-1.4 0.1-2.9 1-4.2 0.2-0.3 0.2-0.7 0.2-0.9-0.9-0.5-1.5-1.1-2.3-1.4-0.8-0.3-1.7-0.4-2.5-1.3 0.4 1.1 0.1 2 0.5 2.9 0 0.1 0 0.2-0.1 0.3-0.2 0.4-0.2 0.7 0 1.1 0.1 0.2 0.1 0.6 0.1 0.9 0 0.9-0.2 1.7 0.1 2.6 0.1 0.2 0 0.4 0 0.6-0.2 1.2-0.4 2.4 0.1 3.7zm87.2 18.1c-0.2-0.3-0.3-0.9-0.7-1.1-1-0.6-2.1-0.9-3.2-1.4-0.1 0-0.3 0-0.4 0-1.8 1.8-3.5 3.5-5.3 5.3 0.7 0.4 1.3 0.9 2 1 0.9 0.1 1.8-0.1 2.7-0.3 1.2-0.3 2.3-0.8 3.2-1.1 0.6-0.9 1.1-1.5 1.7-2.4zm33.4 67.8c0.5-0.7 1.1-0.8 1.7-0.8 0.6 0 0.5 0.5 0.6 1 0.8-0.3 1.6-0.4 2.2-0.8 1.2-0.7 2.4-1.3 3.1-2.6 0.1-0.1 0.2-0.2 0.3-0.2 1.1-0.6 1.7-1.6 2.2-2.7 0.1-0.2 0.1-0.7 0-0.9-0.2-0.4-0.5-0.7-0.8-1.1-0.9 0.8-1.7 1.7-3 1.8-0.2 0-0.4 0.3-0.5 0.5-0.5 0.5-0.9 1-1.4 1.4-0.8 0.6-1.7 1.2-2.5 1.7-0.5 0.3-1 0.6-1.5 0.9-0.7 0.4-1.3 0.9-2.2 1.4 1 0.2 1.2 1.4 2.2 1-0.1-0.3-0.3-0.5-0.4-0.7zm-20.5 26.3c-0.5 0.3-0.9 0.6-1.4 0.9-0.9 0.5-1.9 0.9-2.8 1.4-0.6 0.3-1.1 0.7-1.7 1-0.7 0.4-1.4 0.7-2.1 0.9-0.4 0.2-0.9 0.3-1.3 0.4-0.2 0-0.4 0-0.5 0.1-0.8 0.7-1.7 0.6-2.7 0.8-0.6 0.1-1.2 0.4-1.4 1.2 0.2 0 0.4 0 0.5 0.1 0.2 0.1 0.3 0.2 0.5 0.2 1.4 0.7 2.8 1.2 4.3 0.2 0.1-0.1 0.4-0.1 0.5-0.1 0.7-0.2 1.5-0.5 2.2-0.7 1.1-0.3 2-1 3-1.6 0.6-0.4 1.1-0.8 1.7-1.2 1-0.7 1.6-1.7 2-2.8-0.2-0.3-0.4-0.6-0.7-0.9zm-29.2-133.4c4.4 0.5 4.3-0.1 6-1.1v-2c-0.8-0.6-1.1-1.6-0.9-2.6 0.2-1.3-0.3-2.5-0.3-3.8 0-0.7-0.2-1.6-1.2-2-1.3 0.4-2.7 0.9-4.1 1.4 0 0.1 0 0.3 0.1 0.4 0.5 1.5 0.8 3.1 1.1 4.6 0.1 0.5 0.1 1 0.4 1.3 0.4 0.5 0.3 1 0.1 1.5-0.2 0.4-0.5 0.8-0.7 1.2-0.2 0.3-0.3 0.7-0.5 1.1zm7.3-37c1.2-1.2 1.4-1.7 1.2-3.5-0.1-1 0.1-2.1-0.1-3-0.3-1.4-0.8-2.7-1.2-4.1-0.1-0.5-0.3-1-0.5-1.5-0.4-1.2-0.2-2.6-1.2-3.6-0.1-0.1-0.1-0.4-0.1-0.5-0.2-0.5-0.5-1-0.7-1.4-0.1-0.2-0.3-0.4-0.4-0.6-0.2-0.9-0.8-1.5-1.6-1.9-0.2-0.1-0.4-0.3-0.4-0.4-0.2-0.6-0.7-0.7-1.1-0.9-0.4-0.2-0.8-0.4-1.2-0.7-0.5-0.3-1.5-0.3-1.8 0-0.5 0.5-0.6 1.5-0.2 2 0.5 0.6 0.9 1.4 1.9 1.4 0.1 0.7 0.2 1.2 1 1.4 0.2 0.1 0.4 0.4 0.5 0.7 0.2 0.3 0.3 0.7 0.6 1 0.7 0.9 1.1 1.8 1.3 2.9 0.1 0.7 0.2 1.4 0.5 2 0.4 0.9 0.7 1.8 0.7 2.8 0 0.2 0.1 0.3 0.2 0.5 0.2 0.8 0.4 1.6 0.7 2.4 0.4 1.2-0.3 2.4 0.3 3.6 0.2 0.5 0.4 1 0.8 1.3h1.2zm-12.2 28.4c-0.7-0.1-1.3-0.2-2-0.3-0.7-0.1-1.3 0.7-2 0.2-1.1 0.6-2.2 0-3.4 0.2-0.9 0.1-1.2 0.2-0.9 1 0.5 0.9 0.4 1.9 0.8 2.8 0.3 0.7 0.5 1.5 0.7 2.2 0.4 1.7 0.9 3.4 1.3 5.1 0.1 0.2 0.3 0.3 0.4 0.5 1.1-0.2 1.9-1.1 2.9-0.7 0.5-0.3 0.9-0.6 1.2-0.6 0.9-0.1 1.7-0.1 2.5-0.5 0.3-0.1 0.6-0.1 1-0.2-0.1-0.8-0.3-1.6-0.3-2.4-0.1-1.8-1.3-3.3-1.2-5.1 0 0 0-0.1 0-0.1-0.3-0.7-0.6-1.4-1-2.1zm-30.6 65.2c0.5-0.4 0.9-0.7 1.3-1.1 0.6-0.6 1.2-1.2 1.7-1.9 0.2-0.2 0.1-0.7 0-1.1-0.1-0.2-0.6-0.4-0.6-0.4-0.5 0.5-1.2 0.3-1.8 0.4-0.7 0.1-1.2 0.4-1.4 0.8-1 0.5-1.9 0.7-2.7 1.2-0.9 0.5-1.8 0.6-2.7 0.2-0.7-0.3-1.5-0.5-2.3-0.7-0.7 0.8-1.6 0.8-2.4 1-1 0.3-1.9 0.6-2.9 1-0.6 0.2-1.1 0.6-1.7 0.9-0.3 0.3-0.5 0.5-0.8 0.8-0.9 0.7-1.6 1.6-1.4 2.9 0 0.2-0.1 0.4-0.2 0.6-0.2 0.4-0.3 0.8-0.1 1.3 0.1 0.2 0.1 0.5 0 0.8-0.2 1.1-0.3 2.1 0.3 3.2 0.5 0.8 1 1.5 2 1.8 0.4-0.3 0.9-0.7 1.3-1 0.2-0.2 0.3-0.4 0.5-0.5 0.3-0.3 0.8-0.6 1-0.9 0.4-0.5 0.5-1.3 1.3-1.5 0.1 0 0.2-0.2 0.2-0.4 0.2-0.6 0.7-0.9 1.3-1.1 0.2 0 0.4-0.2 0.6-0.3 0.8-0.8 2-1.1 2.6-2.1 0.1-0.1 0.3-0.1 0.5-0.3 0.5-0.5 1.3-0.7 1.5-1.5 0.1-0.4 0.6-0.7 1.1-0.6 0.8 0.1 1.6-0.2 2.2-0.7 0.6-0.5 1.2-0.6 1.8-0.8zm-0.4 3.1c0.4 0.5 0.8 0.5 1.2 0.3 0.7-0.3 1.3-0.3 2-0.1 0.8 0.2 1.6 0.3 2.4 0.2 0.6 0 1.3-0.4 1.8 0.2 0.1 0.1 0.3 0.1 0.4 0 0.7-0.4 1.4 0 2 0 0.4 0 0.9 0 1.3-0.1 1.2-0.4 2.4-0.4 3.7-0.5 0.6 0 1.2 0.1 1.7-0.3 0.1-0.1 0.5-0.1 0.7 0 0.5 0.1 2.2 0.2 2.6 0 0.5-0.1 1-0.4 1.5-0.5 1.2-0.2 2.4-0.5 3.4-1.2 0.1-0.1 0.3-0.1 0.5-0.2 0.4-0.1 0.7-0.1 1-0.3 0.9-0.4 1.7-0.8 2.5-1.3 0-1.9 0.4-4-1.3-5.5-0.7 0.4-1.4 0.8-2 1.3-1.1 1-2.4 1.3-3.8 1.5-0.7 0.1-1.4 0.4-2.2 0.6-0.3 0.1-0.5 0.2-0.8 0.2-1.2 0-2.5 0.1-3.7 0.3-0.6 0.1-1.4 0.7-2.1 0.1 0 0-0.2 0-0.3 0.1-0.6 0.4-1.2 0.3-1.8 0.1-0.8-0.2-1.7 0.3-2.4-0.2-0.7 0.3-1.3 0-1.9-0.2-1.3 2.8-3.8 4.2-6.4 5.5zm95.8-74c0.6 0.9 0.3 2.4 1.1 3.2 1 0.7 1.5 0 2-0.1 1 0.4 1 0.4 1.8-0.1 0.2-0.1 0.3-0.2 0.5-0.2 1.2-0.1 2.3-0.4 3.4-0.9 1.4-0.6 2.9-0.7 4.2-1.6 0.4-0.3 0.8-0.4 1.3-0.6 1-0.4 1.7-1.4 1.6-2.5 0-0.3-0.2-0.6-0.3-0.7-1.6-0.2-2.9 0.3-4.2 0.7-0.5 0.1-1 0.3-1.4 0.7-0.6 0.4-1.2 0.7-1.9 0.8-0.8 0.1-1.4-0.1-1.6-0.8-0.2-0.6 0.2-1.2 0.8-1.5 0.6-0.3 1.3-0.6 1.9-0.9 0.2-0.1 0.3-0.2 0.5-0.2 1.5-0.4 3-0.9 4.5-1.2 1.2-0.3 2.4-0.3 3.4 0.3 0.2 0.5 0.3 0.9 0.6 1.2 0.7 0.6 0.9 1.2 0.5 2 0 0.1 0.1 0.2 0.1 0.3 1.3-0.6 2.5-1.3 3.8-1.9 0.2-0.1 0.4-0.3 0.5-0.4 0.7-0.8 1.7-1.4 1.7-2.7 0-0.1 0.1-0.1 0.1-0.2 0.6-0.9 0.7-1.9 0.5-3.1-0.4 0.1-0.8 0.1-1.2 0.2-0.3 0-0.6 0.1-0.9 0.1-1.4 0-2.7 0.2-4 0.7-0.7 0.2-1.4 0.3-2.1 0.5-0.6 0.2-1.2 0.2-1.6 0.8-0.1 0.1-0.2 0.1-0.4 0.2-0.6 0.2-1.2 0.4-1.8 0.6-0.9 0.3-1.8 0.5-2.7 0.9-1.2 0.4-2.4 0.9-3.6 1.3-1.1 0.4-2.2 0.6-3.2 1.2-1.1 0.6-2.3 1-3.6 1.6-0.1 0.7-0.1 1.5-0.3 2.6zm-115.6 31.8c0.2-0.7 0.3-1.5 1.2-1.8 0.2 0 0.3-0.3 0.4-0.4 0.5-0.6 0.9-1.2 1.4-1.7 1.2-1.2 2.1-2.6 3-4.1 0.4-0.7 1-1.4 1.3-1.9 0.4-0.9 0.7-1.6 1-2.3 0.7-1.5 1.8-2.8 1.8-4.7-0.3-0.4-0.7-0.8-1.3-0.9-0.6-0.2-1.2-0.7-1.7-1.1-0.7-0.5-1.4-1-2.1-1.6-0.6-0.5-1.2-1-2.1-0.9-0.4 0-0.7-0.1-0.8-0.5 0-0.1-0.1-0.2-0.3-0.3-0.6-0.4-1.2-0.8-1.8-1.1-0.3 0.4-0.7 1.1-1.2 1.4-0.7 0.5-1.1 1.2-1.3 1.9-0.2 0.7-0.6 1.2-1.1 1.6 0 0.4 0 0.7-0.1 0.9-0.4 0.4-0.5 0.9-0.5 1.4 0 0.2-0.1 0.4-0.2 0.5-0.9 1.2-1.1 2.5-1.5 3.9-0.1 0.5-0.3 1-0.5 1.4-0.7 2-1.6 4-1.8 6.2 1.3 0.8 2.4 2 3.9 2.6 0.2 0.1 0.3 0.3 0.5 0.4 0.8 0.9 1.7 1.5 2.7 1.8 0.5-0.3 0.9-0.5 1.4-0.8zm103.6 50.3c-0.1-0.2-0.5-0.5-0.5-0.7 0-1-0.7-1.8-1.1-2.6-0.6-1.3-1.3-2.7-2.6-3.6-0.2-0.1-0.2-0.4-0.4-0.7-0.2-0.4-0.4-0.9-0.7-1.3-1-1.4-2.3-1.5-3.5-0.3-0.4 0.4-0.7 0.5-1.2 0.5-0.3 0-0.7 0.2-1 0.3-1.2 0.4-1.7 1.6-2.8 2.2-0.6 0.3-0.9 1.1-1.7 1.3-0.1 0-0.3 0.2-0.4 0.4-0.7 1-1.3 2-2 3-0.4 0.7-0.9 1.3-1.4 1.9-1.1 1.6-2.3 3-2.4 5.1 0 0.2-0.1 0.3-0.2 0.5-0.2 0.5-0.4 1-0.5 1.6-0.1 0.6-0.3 1.4-0.1 1.9 0.4 0.9 0.8 1.9 1.4 2.3 1 0 1.7-0.1 2.4 0 0.8 0.1 1.5-0.1 2.2-0.4 1.1-0.5 2.2-1 3.4-0.8 1-0.6 2-1.2 3.2-1.3 0.7-0.1 1.6-0.1 2.1-0.8 0.1-0.1 0.4-0.2 0.6-0.2 1.2-0.2 2.2-0.8 3.2-1.4 0.3-0.2 0.7-0.5 1-0.6 1.3-0.3 2.1-1.3 2.9-2.1 0.7-0.7 0.9-1.7 0.5-2.7-0.1-0.4-0.2-0.8-0.3-1.2zm-32.6 37c-0.2-0.8-0.4-1.6-0.8-2.4-0.3-0.8-1-1.4-1.7-1.8-0.8-0.5-1.7-0.8-2.5-1.3-0.6-0.4-1.2-0.5-1.9-0.5-0.5 0-1.1-0.1-1.6-0.1-0.8 0-1.6-0.1-2.4 0-0.5 0-1 0.1-1.5 0.2-0.4 0-0.9 0-1.2 0-0.3 0.4-0.5 0.6-0.7 0.9-1.8-0.1-3.3 0.7-4.5 1.9-0.3 0.3-0.7 0.4-1 0.6-0.3 0.2-0.7 0.3-0.8 0.5-0.4 0.7-0.9 1.2-1.5 1.7-0.5 0.4-0.8 0.9-1.2 1.4-0.2 0.3-0.5 0.5-0.4 1 0 0.2-0.1 0.6-0.3 0.7-0.5 0.2-0.5 0.7-0.6 1.1-0.2 1.1-0.4 2.3-0.1 3.5 0.4 1.2 1.4 2 2.2 2.9 0.1 0.1 0.4 0.1 0.5 0.2 0.7 0.3 1.5 0.7 2.2 1 1 0.5 2 0.7 3.1 0.2 0.3 0.2 0.6 0.3 0.8 0.5 2.3 0.1 4.5-0.2 6.4-1.1 2-0.9 4-1.7 5.6-3.4 1.5-1.6 3-3.1 3.6-5.5 0-0.3-0.1-0.8-0.2-1.3 0.2-0.2 0.3-0.4 0.5-0.6zm35 6.7c1 2.1 1.9 4.1 2.2 6.2 0.5 0 0.9-0.1 1.2-0.1 1.1 0 2.3 0.1 3.4 0.2 1.2 0.1 2.4 0 3.5 0.3 0.1 0 0.3 0.1 0.4 0.1 1.1-0.1 2.2-0.3 3.2-0.4 0.8-0.1 1.6 0.1 2.4-0.2 0.1-0.1 0.3 0 0.4 0 0.5 0.2 0.9 0.1 1.4 0 0.2-0.1 0.5 0 0.8 0 0.4 0 0.9 0.1 1.3 0 1.2-0.3 2.4-0.5 3.7-0.4 0.2 0 0.5 0 0.6-0.1 0.6-0.5 1.2-0.4 1.9-0.4 0.3 0 0.7 0 1-0.2 0.8-0.5 1.7-0.5 2.6-0.7 1.4-0.2 2.8-0.6 4.3-0.9 1-0.2 2-0.3 3.1-0.4 0.7-1.5 0.7-2.1-0.1-3.3 0.3-0.5 0.2-1-0.2-1.5-0.4-0.5-0.7-1.1-1.1-1.6-0.4-0.5-0.8-1.1-1.2-1.6-0.2-0.3-0.4-0.6-0.7-0.7-0.6-0.4-1.4-0.6-2.1-0.9-1.1-0.4-2.1-0.9-3.3-0.9-0.1 0-0.3 0-0.4-0.1-0.4-0.4-0.9-0.3-1.4-0.3-0.5 0-1.1-0.1-1.6 0.1-0.6 0.2-1-0.1-1.3-0.4-0.7 0.1-1.4 0.1-2 0.2-1.8 0.3-3.7 0.3-5.5 0-1.4-0.2-2.7-0.1-4.1-0.1-0.2 0.9-0.7 1.5-1.4 2-0.1 0.1-0.3 0.3-0.4 0.4-0.8 1.5-1.9 2.8-3.4 3.7-1.1 0.6-2.1 1.2-3.3 1.2-0.1 0-0.3 0-0.4 0.1-0.9 0.8-2 0.7-3.3 0.9zm-33.4 33.8c0.1 0.8 0.2 1.7 0.3 2.5 0.1 0.6 0.3 1.2 0.2 1.8-0.1 0.6 0.1 1 0.3 1.5 0.1 0.3 0.4 0.5 0.4 0.8 0.5 1.3 0.9 2.6 1.3 3.9 0.4 1.3 0.9 2.4 1.7 3.5 0.2 0.3 0.4 0.6 0.5 1 0.2 1.1 0.8 2 1.7 2.6 0.8 0.6 1.7 1.1 1.7 2.3 0 0.2 0.2 0.5 0.4 0.6 0.5 0.1 0.9 0.4 1.3 0.7 0.2 0.1 0.5 0.1 0.7 0.1 0.8-0.1 1.6-0.4 2.4-0.4 1-0.1 1.9-0.9 3-0.6 0.1 0 0.4-0.1 0.5-0.2 0.5-0.7 1.3-0.8 1.9-1.2 0.6-0.3 1.2-0.7 1.7-1.2 0.5-0.4 0.9-1 1.4-1.4 0.5-0.5 1.1-0.8 1.2-1.6 0.1-0.4 0.3-0.7 0.6-1 0.5-0.7 0.7-1.4 0.8-2.1-0.7-1-1.4-1.9-2.1-2.8 0-0.3 0.2-0.6 0.1-0.8-0.4-1.1-0.5-2.3-1.3-3.2-1-1.2-1.3-2.7-1.7-4.1 0-0.2-0.1-0.4-0.2-0.5-0.6-0.5-1.1-1-0.9-1.9 0-0.1-0.1-0.2-0.2-0.3-0.6-0.8-1-1.8-1.8-2.5-0.1-0.1-0.2-0.3-0.2-0.5 0.1-0.7-0.4-1-0.8-1.4-0.3-0.2-0.4-0.6-0.6-0.9 0 0-0.1 0-0.2 0.1-0.8 0.9-1.3 2-2.4 2.6-0.1 0.1-0.2 0.2-0.3 0.3-0.4 1.1-1.3 1.5-2.3 1.9-0.5 0.2-1.1 0.5-1.6 0.7-0.2 0.1-0.5 0.2-0.7 0.1-0.6-0.1-1.1 0.2-1.7 0.4-0.9 0.5-1.8 1.1-2.9 0.9-0.7-0.1-1.3 0.1-2.2 0.5zm14.9-59.5c0.3 1.6 1.1 2.9 1.8 4.4 0.8-0.2 1.4-0.1 1.8 0.5-0.3 1.2-0.3 1.2-1.4 1.3 1.6 1.9 2.7 4.1 4.1 6.2 0.9 0 1 0.1 1.1 1.1 0.1 0.4 0.2 0.8 0.3 1.3 1.1-0.2 1.5 0.3 1.7 1.2 0.1 0.3 0.3 0.6 0.5 0.8 0.4-0.1 0.7-0.1 1-0.2 3.2 2.3 3.2 2.3 3.9 2.2-0.6-0.5-1.1-1-0.6-1.8 1.4-0.1 1.5-0.1 1.6 1.4 0.7-0.5 1.3-1 1.9-1.5 0.7-0.5 1.4-0.9 2.1-1.3 0.1-0.1 0.1-0.2 0.2-0.2 0.2-0.3 0.4-0.6 0.7-0.8 0.8-0.5 1.6-1 2.4-1.5 0.1-0.1 0.2-0.2 0.3-0.3 0.3-0.7 1-0.9 1.6-1.2 0.3-0.2 0.7-0.4 1.2-0.6-0.4-1.1-0.7-2.2-1.1-3.2-0.3-0.7-0.7-1.4-0.7-2.3 0-0.2-0.1-0.6-0.3-0.7-0.9-0.7-0.8-1.9-1.1-2.8-0.3-0.9-1-1.6-0.9-2.6 0 0-0.1-0.1-0.2-0.1-0.2-0.3-0.4-0.6-0.7-0.9 0.2-0.7-0.1-1.3-0.5-1.9-0.2-0.2-0.3-0.6-0.4-0.9-0.1-0.4-0.1-1-0.4-1.3-0.7-0.8-0.7-1.7-0.9-2.6s-0.6-1.5-1.2-2.2c-0.3 0.2-0.7 0.3-0.9 0.6-0.2 0.4-0.6 0.5-0.9 0.7-0.9 0.5-1.9 0.9-2.8 1.5-0.4 0.2-2.2 1.2-2.6 1.2-0.5 0.1-1 0.2-1.4 0.6-0.3 0.4-0.8 0.5-1.3 0.2-0.1-0.1-0.3 0-0.4 0-0.5 0.4-0.9 0.8-1.4 0.9-2 0.5-3.8 1.4-5.9 1.7-0.3 0-0.6 0.2-0.9 0.3 0.3 0.5 0.5 1 0.7 1.5 0.3-0.3 0.5-0.5 0.8-0.7 0.5 0.6 0.5 1.3 0.6 2-0.4 0.1-0.8 0.1-1.3 0.2zm-60-144.3c-0.7 0.5-1.2 1-1.8 1.3-0.9 0.4-1.5 1.1-2.2 1.8-1.2 1.2-2.3 2.5-3.4 3.7-0.6 0.7-1.2 1.4-1.7 2.2-0.4 0.6-0.5 1.3-0.7 2 0.4 0.3 0.7 0.5 1 0.7-0.4 1-1.1 0.4-1.7 0.3-0.1 0.4-0.1 0.7-0.2 1-0.1 0.4-0.1 0.8-0.3 1-0.5 0.8-0.7 1.6-0.5 2.5 0.5 0.3 0.9 0.5 0.9 1.3-0.3 0.3-0.7 0.7-1.3 1.3 0 0-0.1 0.3-0.1 0.5 0 0.3 0 0.6 0 0.9 1.6 0.6 1.8 0.9 1.1 2.2-0.4-0.1-0.8-0.2-1.4-0.4 0.2 0.9 0.3 1.7 0.5 2.5 0.7 0.1 1.2 0.4 1.3 1.2-0.2 0.3-0.3 0.6-0.5 0.9-0.3 0-0.5 0-0.6 0-0.1 0.9 0 1.7 0.4 2.3 0.5 0.7 0.5 1.3 0.2 2.1 0.2 0.2 0.4 0.3 0.5 0.5 0.8-0.9 1-1 1.4-0.8 0.7 0.4 0.5 1.1 0.4 1.8-0.4 0.2-0.8 0.3-1.2 0.5 0.5 1.7 1.8 2.9 2.6 4.4 0.9-0.1 1 0.1 0.8 1.6 0.4 0.2 0.9 0.4 1.4 0.6 0 0.1 0 0.3 0 0.3 0.5 0.5 0.9 1 1.3 1.4 0.4 0.4 0.8 0.7 1.3 0.6 0.3 0 0.7-0.2 1-0.1 1.8 0.7 3.7 0.9 5.6 1.6 1.4 0.5 2.8 0.7 4.3 1 1.2 0.3 2.6 0.1 3.5 1 0.5 0 0.8-0.1 1.1-0.1 1.1 0.2 2.2 0.1 3.3-0.1 1.3-0.2 2.6-0.7 4-0.3 0.2 0.1 0.4-0.1 0.6-0.1 1-0.2 1.9-0.4 2.9-0.7 1.1-0.3 2.2-0.2 3.2-0.8 1.1-0.6 2.3-1 3.5-1.6 0.7-0.4 1.4-0.8 1.7-1.7 0.2-0.7 0.4-1.4 0.6-2.2-0.8 0.2-1.5 0.6-2.1 0.6-1.2 0-2.3 0.8-3.5 0.6-0.1 0-0.2 0.1-0.4 0.2-0.2 0.1-0.5 0.1-0.7 0.1-0.9 0.1-1.9-0.4-2.7 0.5-0.3-0.1-0.6-0.2-1-0.3-1 0.2-2 0.3-2.9 0.4-0.1 0-0.3 0-0.3-0.1-0.7-0.7-1.3-0.3-2 0.1-0.5-0.2-0.9-0.4-1.4-0.7-0.7 0.4-1.4 0.6-2.3 0.2-0.8-0.4-1.7-0.4-2.6-0.5-1-0.1-2.1 0.2-2.7-0.6-0.6 0-1.1 0.1-1.3-0.1-0.9-0.7-2-0.9-2.9-1.5-1 0.6-1.9 0.4-2.8 0-0.8-0.4-1.5-0.9-2.3-1.3-0.4-0.2-0.8-0.4-0.9-0.8-0.1-0.2-0.2-0.4-0.4-0.5-0.8-0.5-0.8-1.2-0.8-2 0-1.2 0.6-2.3 0.9-3.5 0.3-1.1 1-1.7 2.1-1.9 0.5-0.1 0.7-0.3 0.8-0.8-0.7-0.1-1.2-0.4-1.4-1 0.4-0.9 0.8-1.8 0.2-2.8-0.1-0.2-0.1-0.6 0-0.7 0.7-0.9 0.2-1.9 0.6-2.9 0.3-0.8 0.2-1.7 0.4-2.5 0.5-2.1 1.1-4.2 1.8-6.2 0.2-0.5 0.3-1 0.6-1.5 0.4-0.7 0.8-1.5 1-2.2 0.2-0.9 0.8-1.5 1.3-2.2 0.4-0.6 1-1 1.4-1.6 1.1-1.7 2.7-2.9 4.5-3.8 0.6-0.3 1.3-0.6 1.9-0.9-0.1-0.4-0.1-0.7-0.2-1.2-0.9 0.2-1.7 0.1-2.4 0.6-0.7 0.6-1.3 0.7-1.9 0.1-1.5 0.4-2.8 0.8-4.2 1.1 0 0.3 0.2 0.7 0.1 0.9-0.3 0.7-1 0.3-1.4 0.4-0.2-0.2-0.4-0.4-0.6-0.7-0.4 0.3-0.8 0.5-1.2 0.8 1.4 0.7 1.7 1.2 1.3 1.9-0.3 0.6-0.7 0.6-1.8 0 0-0.4 0-0.9-0.1-1.5zm11.8 93.6c0.2-0.1 0.4-0.2 0.6-0.3 0.2-0.1 0.5-0.1 0.8-0.1 0.6 0 1.7-0.2 2.2-0.5 0.2-0.1 0.4-0.1 0.6-0.2 0.8-0.1 1.7-0.1 2.4-0.4 1.3-0.6 2.8 0 4-0.9 0.1 0 0.2 0.1 0.3 0 0.9-0.1 1.8 0.1 2.7-0.4 0.5-0.2 1.1-0.3 1.6-0.3 1.4 0.2 2.7-0.1 4.1-0.4 1.1-0.3 2.2-0.9 3.3-0.9 1.2-0.1 2.3-0.4 3.4-0.8 0.9-0.3 1.7-0.9 2.5-1.5 0.2-0.1 0.3-0.5 0.3-0.8 0-0.8 0.2-1.5-0.1-2.4-0.3-0.7 0-1.6-0.1-2.4 0-0.2-0.1-0.4-0.1-0.5 0-0.6 0-1.3 0-2-0.6-0.3-0.2-1-0.3-1.6 0-0.5 0.1-1-0.3-1.5-0.2-0.2-0.2-0.6-0.2-0.9 0-0.5 0.1-1.2-0.1-1.6-0.5-0.7-0.4-1.2 0.2-1.8-0.8-0.5-0.7-1.3-0.8-2.1 0-0.5-0.2-1.1-0.4-1.6-0.3-1-0.5-2-0.3-3-1.1-0.2-1.2-1.5-0.7-2.4-0.3-0.7-0.6-1.4-0.9-2.1-1.7 0.4-3.2 0.8-4.8 1.2-0.3 0.1-0.7 0.2-1 0.3-0.2 0.1-0.5 0.2-0.7 0.1-0.8-0.1-1.5 0.1-2.2 0.5-0.3 0.2-0.8 0.3-1.1 0.2-0.5-0.2-1 0-1.4 0.2-1.4 0.9-3.1 0.5-4.6 1.2 0 0-0.1 0-0.2 0-0.7 0-1.4 0.2-2 0.6-0.5 0.4-1.1 0.5-1.8 0.4-0.8-0.1-1.7 0-2.5 0.3-0.7 0.3-1.3 0.4-1.9 0-0.6 0.2-1.1 0.3-1.6 0.4 0 0.2-0.1 0.4 0 0.6 0.4 0.9 0.2 1.9 0.2 2.8 0.1 0.7 0.2 1.4 0.3 2.2 0.1 0.9 0.2 1.8 0.2 2.6 0.1 1.2 0.1 2.3 0.2 3.6 0.5 0.3 0.6 0.9 0.4 1.5-0.3 1-0.2 2.1 0 3.1 0.1 0.8 0.3 1.6 0.5 2.4 0 0.2 0 0.4-0.1 0.5-0.5 0.6-0.2 1.1 0.4 1.4 0.1 2.4-0.3 4.7-0.7 7.1zm-36.9-42.5c0.7 0.3 1.2 0.6 1.8 0.9 0.1-0.7 0.5-1 1.1-1.3 0.4 0.6 0.5 1.3 0.4 1.9 0.8 1 2.2 1.1 2.8 2.3 0.1 0.3 0.6 0.5 0.9 0.5 0.9 0.1 1.4 0.6 1.7 1.3 1.2 0.2 1.9 0.9 2.7 1.6-0.1 0.4-0.2 0.9-0.3 1.3-0.7 1.6-1.4 3.1-2.1 4.7-0.5 1.2-1 2.4-1.7 3.5-0.3 0.5-0.7 1-0.8 1.6-0.1 0.5-0.6 1.2-1.4 1.2-0.1 0.6-0.3 1.2-0.4 1.8-1.3 0.8-2.5 1.7-2.6 3.2-0.4 0.3-0.9 0.4-1.1 0.7-0.9 1.1-1.7 2.2-2.5 3.3-0.8 1.1-1.5 1.4-2.8 0.8-1-0.5-2.1-1-2.8-2-0.1-0.1-0.2-0.3-0.4-0.4-0.9-0.6-1.9-1.1-2.6-1.9-0.4-0.4-0.9-0.7-1.4-1-0.1-0.1-0.3 0-0.2 0-0.3 0.6-0.5 1.1-0.7 1.5-0.1 0.1-0.1 0.3-0.1 0.4 0.5 0.9-0.2 1.7-0.1 2.3 0.4 0.6 0.6 0.9 0.9 1.4-0.3 0.3-0.5 0.6-0.8 0.7-0.2 0.1-0.6-0.2-0.8-0.3 0.1 0.6 0.1 1.3 0.2 2 0.1 0.3 0.2 0.6 0.6 0.6 0.2 0 0.4 0.2 0.6 0.2v1.2c-0.3 0.1-0.6 0.3-1 0.4-0.1 0.3-0.3 0.7-0.1 0.9 0.4 0.5 0.1 1.1 0.2 1.6 0.8 0.3 1.1 0.5 1 0.9-0.1 0.5-0.5 0.4-0.8 0.3-0.1 0.3-0.2 0.7-0.3 0.9 0.2 0.4 0.3 0.6 0.4 0.9-0.1 0.3-0.2 0.6-0.2 0.9-0.1 0.6 0.7 0.4 0.7 0.8-0.5 0.7-0.4 0-1 3.2 0.5 0.3 1 0.6 1.6 1-0.5 0.4-0.8 0.7-1.2 0.9-0.3 0.1-0.7-0.1-1.2-0.2-0.4 0.3-0.8 0.6-1.4 0.9 1 0.3 1.2 0.5 1 1-0.4 0.9-0.1 1.7 0.4 2.4 0.5 0.7 0.8 1.5 1.4 2.5 0 0 0.3 0.2 0.5 0.3-0.1 0-0.1 0.1-0.2 0.1 0.2 0.7 0.4 1.3 0.6 2 1-0.5 1.4-0.5 1.7 0 0.1 0.2 0.2 0.5 0.1 0.6-0.3 0.3-0.6 0.6-0.9 0.9 0.4 0.3 0.8 0.6 1.2 1 0.2-0.4 0.3-0.7 0.5-1.1 0.5 0.3 1.3 0 1.5 0.8 0.1 0.8-0.6 1-1.1 1.3 0 0.8 0.2 1.4 0.8 1.9 0.3 0.2 0.4 0.6 0.6 0.9 0.2 0.3 0.2 0.6 0.4 0.8 0.5 0.6 0.8 1.3 1 2.1 0.9-0.3 0.6 1.4 1.6 0.8 0.1-0.7 0.3-1.4 0.4-2.1 0.5-0.6 1-1.1 1.5-1.6 0.6-0.6 1.3-1.2 2-1.7 0.8-0.6 1.7-0.9 2.4-1.7 0.1-0.1 0.3-0.1 0.4-0.1 0.5-0.1 1.1-0.2 1.6-0.4 1.4-0.5 2.9-0.9 4.4-0.9 0.9 0 1.7-0.1 2.6-0.2-0.3-0.6-0.5-1.2-0.7-1.8-0.5-1.1-0.5-2.4-1.5-3.3-0.5-0.5-0.6-1.1-0.6-1.8 0-0.5-0.1-0.8-0.5-1.1-0.2-0.1-0.3-0.4-0.5-0.5 0.1-0.9 0-1.7-0.6-2.5-0.7-1-1.2-2.1-1.3-3.3 0-0.5-0.2-1.1-0.4-1.6-0.1-0.4-0.3-0.8 0.2-1.2 0.4-0.3 0.7-0.7 1.1-1 1-1 1.2-2.5 2.1-3.5 0 0 0.1-0.1 0-0.2-0.2-0.8 0.4-1.3 0.8-1.7 0-1.3 0.2-2.4 1.1-3.4 0.1-0.1 0.3-0.3 0.3-0.4-0.2-0.8 0.4-1.2 0.7-1.8 0.1-0.3 0.4-0.5 0.4-0.8-0.1-1.3 0.8-2.2 1.3-3.3 0.4-0.9 0.8-1.9 1-2.9 0.4-1.6 0.6-3.2 1-4.9 0.2-0.9 0.3-1.8 0.1-2.7-0.1-0.4 0.1-0.8 0.2-1.2 0.1-0.5 0.2-1 0.1-1.5 0-0.9-0.3-1.8-0.2-2.8 0.1-1.1 0-2.2-0.2-3.3-0.1-0.9-0.4-1.8-0.6-2.8 0-0.2-0.1-0.4-0.3-0.4-0.7-0.4-0.8-1-0.5-1.6-0.8-1.4-1.3-2.9-2.6-4.1 0 0.7 0 1.3-0.7 1.6 0.1-0.6 0.2-1.1 0.2-1.6-1.3-0.5-1.3-0.5-6.6 0 0 0.3 0 0.5 0 0.8 0 0.8-0.3 1-1.1 0.8-0.3-0.1-0.5-0.2-0.8-0.2-0.8 0.6-0.8 1.4-0.4 2.3-0.4 0.2-0.7 0.4-1.1 0.7zm29.1 59.6c0.6-0.1 1-0.3 1.5-0.3 0.9 0 1.7 0.1 2.6 0.1 0.2 0 0.3-0.2 0.5-0.2 0.5-0.1 1.1-0.4 1.6-0.3 0.5 0.1 0.9-0.1 1.4-0.1 1.5-0.1 2.5-1.5 4.1-1.5 0.5-0.6 1.3-0.8 1.7-1.6 0.4-0.8 1.2-1.2 2-1.1 1.4 0.2 2.5-0.5 3.6-1.1 0.5-0.2 1-0.5 1.2-0.9 0.4-0.6 0.9-0.8 1.5-1 0.6-0.3 1.2-0.5 1.7-1 0.3-0.3 0.7-0.6 1.1-0.7 1.2-0.2 2-1.2 3-1.8 0.3-0.2 0.6-0.6 0.9-0.8 1-0.6 2.1-1.2 3.1-1.8 0.1-0.1 0.3-0.2 0.3-0.3 0.9-1.2 1.9-2.3 3.1-3.2 0-0.1-0.1-0.1-0.1-0.2-0.4 0.2-0.9 0.4-1.2 0.6-1.5 0-2.9 0-4.3 0.5-1.3 0.5-2.8 0.8-4.2 0.2-0.8 0.6-1.5 1-2.4 0.9-0.2 0-0.4 0.1-0.6 0.2-0.9 0.4-1.8 0.5-2.7 0.6-0.7 0-1.3-0.1-1.8 0.5-0.1 0.1-0.5 0.2-0.7 0.1-0.5-0.2-0.9 0.1-1.4 0.2-0.4 0.1-0.8 0.3-1.2 0.4-1.3 0.3-2.6 0.5-3.9 0.7-0.9 0.2-2 0.5-2.8-0.4-0.1-0.2-0.2-0.5-0.2-0.8 0-0.2 0.1-0.4 0.1-0.6 0-0.8-0.8-1.5-1.6-1.4-1.3 0.2-1.8-0.1-2.1-1.4-0.2-1.1-0.4-2.1-0.6-3.2 0-0.2 0-0.4 0-0.5 0.4-1 0.1-2-0.2-2.8-0.4-1.2-0.3-2.4-0.4-3.7-0.1-0.9 0.1-1.9-0.2-2.7-0.3-0.8-0.1-1.6-0.1-2.4 0-0.5 0-1.1-0.2-1.6-0.3-0.7-0.4-1.4-0.1-2.2 0-0.1 0.1-0.2 0.1-0.3-0.2-2-0.3-4-0.5-6 0.6-0.8 1.3-1.6 2.4-0.9 0.1-0.7 0.2-1.3 0.4-1.9 0.3-1.1 1.3-2 2.5-2 1.1 0 2-0.4 3-0.6 0-0.6-0.1-1.1-0.1-1.5 0-0.1 0-0.3-0.1-0.4-0.4-0.6-0.5-1.1-0.2-1.8 0.1-0.2 0-0.5 0-0.8-0.3-0.9-0.6-1.7-0.9-2.6-0.1-0.4-0.2-0.9-0.2-1.4 0-0.4 0.1-0.8-0.1-1.1-0.5-0.7-0.6-1.6-1.2-2.3-0.5-0.7-1-0.9-1.7-0.8-0.2 0-0.5 0.2-0.8 0.1-1.5-0.5-3.1-0.3-4.6-1-0.2-0.1-0.6 0-1.1 0 0.2 0.5 0.4 0.8 0.5 1.2 0.1 0.3 0.3 0.7 0.3 1 0 1-0.3 2 0 3 0.1 0.3 0.1 0.7 0 1.1-0.2 0.7-0.5 1.3-0.2 2.1 0.1 0.2-0.1 0.5-0.2 0.8-0.1 0.4-0.3 0.7-0.3 1.1 0.1 0.7 0.2 1.4 0.3 2.2 0.4 0.2 0.8 0.4 1.3 0.5 0.7 0.2 0.9 0.7 0.9 1.3 0.1 1.1-0.5 1.8-1.3 2.3-0.4 0.2-0.8 0.4-1.1 0.6-0.9 0.8-2.1 0.6-3.2 0.8-0.1 0-0.2 0-0.3-0.1-0.8-0.4-1.7-0.8-2.5-1.3-0.8-0.5-0.8-2.1 0-2.6 0.8-0.5 1.6-1.1 2.4-1.6 0-0.4 0-0.7 0.1-1 0.2-1.3 0.6-2.6 0-3.9 0-0.1 0-0.2 0-0.2 0.5-0.9-0.5-1.7-0.2-2.6-0.6-0.6-0.4-1.3-0.4-1.8-0.4-0.5-0.7-0.9-0.8-1.2-0.2-0.4-0.3-1-0.5-1.4-0.3-0.5-0.6-0.9-0.9-1.3-0.6-0.7-1.1-1.6-1.8-2.2-0.5-0.4-0.9-0.8-1-1.5-1-0.1-2 0-2.9-0.3-1-0.3-1.9 0-3.1 0 0.8 0.9 1.9 1.4 2.3 2.4 0 0.1 0.1 0.1 0.2 0.1 0.6 0.5 1.2 1 1.8 1.6 0.2 0.2 0.3 0.7 0.4 1 0.1 0.3 0.2 0.6 0.4 0.8 0.5 0.4 0.6 1 0.7 1.6 0.1 0.3 0.2 0.6 0.3 0.9 0.1 0.4 0.2 0.8 0.3 1.3 0.1 0.6 0 1.5 0.4 1.9 0.6 0.7 0.3 1.1 0 1.4 0 0.8-0.1 1.6 0.1 2.2 0.4 1.3-0.4 2.6 0.2 3.8 0 0 0 0.1 0 0.1 0.1 1.5-0.4 2.9-0.8 4.4 0.3 0.2 0.5 0.2 0.7 0.4 0.6 0.5 0.5 1.1-0.2 1.4-0.3 0.1-0.6 0.2-1 0.3-0.1 0.7-0.2 1.4-0.3 2.1-0.7 0.7-1 1.6-0.4 2.7 0.3 0.6 0 1-0.5 1.2-0.6 0.2-0.8 0.6-0.9 1.1-0.1 0.2-0.2 0.5-0.3 0.7-0.3 0.8-0.6 1.7-0.9 2.4 0.3 0.4 0.4 0.6 0.6 0.7 0.3 0.2 0.5 0.5 0.3 0.9-0.2 0.4-0.5 0.5-0.9 0.3-0.6-0.2-0.9 0.1-1.1 0.7-0.1 0.3-0.1 0.6-0.3 0.9-0.5 1.4-1.6 2.5-2 3.9-0.5 1.5-1.5 2.8-2.3 4.2-0.3 0.5-0.6 1.1-0.2 1.8 0.7 1.1 1.5 2.2 1.9 3.4 0.2 0.7 0.5 1.4 0.8 1.9 0.6 0 1.2 0.1 1.8 0.1 0 0.4 0 0.8-0.1 1-0.3 0.3-0.7 0.6-1.1 0.9 0.6 1.5 1.2 3 1.7 4.5 0.6-0.1 1-0.1 1.5-0.1 0.1 0.4 0.2 0.7 0.3 0.9-1.3 1.2-1.3 1.5 0.2 3.5 0.3-0.1 0.5-0.3 0.8-0.3 0.8-0.2 1.6-0.4 2.4-0.6 0.4-0.1 0.8-0.4 1.1-0.3 0.8 0.1 1.6 0.3 2.4 0.5 0.4 0.8 0.9 1.2 1.8 1.5 1.3 0.5 2.5 0.6 3.8 0.5 0.6-0.1 1.1 0 1.4 0.2zm35.8 16.5 0 0c0.6 0.3 1.1 0.6 1.7 1 0.2-0.3 0.3-0.6 0.4-0.9 1 0 1.2 0.1 1.4 1.3-0.1 0.2-0.3 0.4-0.5 0.6 0.3 0.2 0.5 0.5 0.9 0.2 0.5-0.4 0.8-0.2 1.1 0.3 0.3 0.5 0.6 1.1 0.9 1.7 0.6 0.2 1.4 0.3 1.8 1 0.1 0.1 0.4 0.2 0.5 0.2 0.7-0.3 1.3 0 2 0.5 0-0.6-0.4-1.1 0.3-1.6 0.3 0.3 0.7 0.6 1 1 0.5-0.5 0.7-1 0.8-1.7 0.1-1 0.4-1.9 0.8-2.8 0.5-1.4 1.3-2.5 2.3-3.5 0.2-0.2 0.4-0.5 0.5-0.8 0.4-0.8 0.7-1.8 1.6-2.3 0.1 0 0.1-0.1 0.1-0.2 0.2-0.7 0.7-1.1 1.2-1.6 0.3-0.3 0.6-0.6 0.7-1 0.3-0.8 0.8-1.2 1.6-1.2 0.8-1 1.5-1.9 2.9-2.1 0.5-0.1 0.9-0.5 1.3-0.7 0.3-0.2 0.5-0.4 0.8-0.6-0.7-0.7-1.4-1.6-2.3-2.1-1.2-0.7-2.1-1.8-3.2-2.7-1-0.8-1.8-1.8-3.1-2.3-1.3-1.4-3-2.2-4.5-3.2-1.1-0.7-2.2-1.5-3.2-2.2-0.3-0.2-0.6-0.5-0.9-0.8-0.2 0.4-0.3 0.9-0.6 1-0.8 0.4-1.2 1.3-2.1 1.5-0.1 0-0.3 0.2-0.4 0.3-0.8 1-2 1.2-3.2 1.3-0.9 0.1-1.7 0.4-2.3 1.3-0.5 0.8-1 1.6-1.7 2.3-1.1 1-2.2 2-3.4 2.9-0.9 0.7-1.8 1.3-2.8 1.9-0.5 0.3-1 0.4-1.5 0.6-0.5 0.2-1.1 0.3-1.8 0.5-1-0.3-1.7-0.1-2.4 0.7-0.6 0.6-1 1.4-2 1.6-0.2 0.1-0.4 0.3-0.6 0.4-0.8 0.5-1.3 1.5-2.5 1.4-0.1 0-0.2 0.1-0.4 0.2-1.4 0.9-3.1 1.5-4.8 1.8-1.4 0.3-2.8 0.6-4.2 1-0.2 0-0.4 0-0.5 0-1.1 0.2-2.3 0.2-3.4 0.5-1.3 0.4-2.6 0.4-3.9 0.5-0.4 0-0.8-0.2-1.2-0.1-1.4 0.2-2.8 0.2-4.2 0.1-0.2 0-0.4 0-0.7 0 0.6 1.1 0.6 1.8 0.1 2.1-0.5 0.3-1.3-0.1-1.8-1.1 0.3-0.4 0.5-0.8 0.8-1.2-0.5-0.3-1 0.1-1.5 0.5-0.8-0.9-1.8-1-2.7-0.7-0.7 0.2-1.3 0-1.9-0.3-0.2-0.1-0.5-0.2-0.8-0.4 0 0.3 0 0.5 0.1 0.7 0.2 0.5 0.7 1 0.7 1.5 0.1 0.8 0.4 1.2 1 1.4 0.1 0.8 0.3 1.5 0.4 2.4 0.3-0.5 0.5-0.8 0.7-1 1.3 0.6 1.4 0.9 0.8 2.1-0.3 0-0.5 0.1-0.7 0.1 0.5 1.6 1 3 1.8 4.4 1.3-0.1 1.6 0.5 0.8 2 0.4 0.8 0.8 1.6 1.2 2.5 0.4 0.9 0.6 1.8 1.6 2.2 0 0.7 0.1 1.3 0.8 1.6 0.9-0.1 1.3-0.1 1.4 0.4 0.2 0.5-0.1 1-0.7 1.4 0.1 0.9 0.7 1.6 1.2 2.4 0.4 0.7 0.8 1.4 1.1 2.1 0.4 0.3 0.7 0.6 0.7 1.3 0 0.2 0.2 0.4 0.3 0.5 0.4 0.3 0.9 0.4 1.1 0.8 0.3 0.4 0.3 0.9 0.4 1.4 0.3-0.1 0.6-0.3 0.9-0.4 0.4 0.4 1.1 0.6 0.8 1.4-0.4 0.1-0.7 0.3-1.1 0.4 0.5 0.6 0.9 1.2 1.4 1.8 0-0.9 0.6-1.2 1.3-1.3 0.7 0.6 0.7 0.6 0.3 1.6-0.4 0.1-0.8 0.3-1.3 0.5 0.4 1.3 1.7 2 2.1 3.3 0.1 0.3 0.5 0.6 0.9 0.8 0.1 0.1 0.3 0.2 0.5 0.2 0.2 0.1 0.3 0.2 0.5 0.3-0.3 0.6-0.2 1.1 0.3 1.5 0.5-0.2 1.1-0.2 1.5 0.3 0.3 0.7-0.3 1.6 0.5 2.2 0.2-0.1 0.5-0.3 0.8-0.5 0.2 0.3 0.4 0.5 0.6 0.8-0.3 0.2-0.5 0.3-0.8 0.5 0.7 0.8 1 1.8 2.1 2.1 0.4-1 0.6-2 1-2.9 0.2-0.6 0.6-1.1 0.9-1.6 0.6-1.1 1.1-2.2 2.3-2.8 0.4-0.2 0.6-0.6 0.9-1 0.3-0.3 0.6-0.8 1-0.9 0.7-0.1 1.1-0.7 1.7-1.1 0.2-0.1 0.3-0.3 0.5-0.4 0.7-0.3 1.4-0.5 2.1-0.8 1.1-0.4 2.2-0.8 3.3-1.2 0.2-0.1 0.4-0.1 0.6-0.1 1.1-0.1 2.2 0.1 3.2-0.2 1.2-0.3 2.1-0.1 3.1 0.4 0.4 0 0.7-0.2 1.1-0.1 0.9 0.2 1.7 0.7 2.7 0.7 0.1 0 0.2 0.1 0.3 0.2 0.4 0.3 0.9 0.6 1.5 1.1 0-0.4 0.1-0.7 0-1-0.3-0.6-0.9-1.2-0.5-2 0-0.1 0-0.2-0.1-0.3-0.5-0.9-0.9-1.9-1.4-2.8-0.6-1.1-1.3-2.1-1.8-3.3-0.5-1.1-0.8-2.3-1.2-3.4-0.7-1.7-1.4-3.3-2.2-4.9-0.3-0.7-0.6-1.4-0.9-2-0.7-1.1-1.2-2.3-2.2-3.2-0.2-0.2-0.3-0.6-0.4-0.9-0.2-0.5-0.4-1-0.7-1.5-0.4-0.6-0.9-1-1.4-1.6-0.6 0-1.3-0.3-1.5-0.7-0.2-0.6-0.1-1.1 0.3-1.6 0.3-0.3 0.5-0.7 0.9-0.8 0.9-0.4 1.6-1 2.3-1.7 0.3-0.3 0.8-0.6 1.1-0.9 0.5-0.4 1.2-0.7 1.5-1.4 0.3-0.5 0.6-1 1-1.2 0.5-0.3 0.8-0.7 1.1-1.2 0.5-0.8 1.2-1 2-0.4 0.9 0.6 0.9 2.2 0.2 3.2-0.7 0.8-1.3 1.6-2 2.5 1.3 0.9 2.6 1.4 3.9 2.1zm43.9-80.4 0 0c0.3-1.1-0.6-2-0.6-2.9-0.4-0.2-0.8-0.3-1.1-0.4 0-1.1 0.1-1.2 1.2-1.2 0.1-0.7 0.3-1.4 0.4-2.1-0.7-0.2-1.6-0.5-2.5 0.1 0.1 0.3 0.2 0.7 0.3 1.1h-1.5v-1c-1-0.6-1.8 0.1-2.8 0.2 0 1-0.3 1.4-0.9 1.3-0.6 0-0.7-0.3-0.6-1.3-1.1 0-2.2 0-3.4 0-0.1 0-0.1 0.1-0.2 0.2 0.3 0.1 0.5 0.3 0.8 0.4-0.8 0.6-0.8 0.6-1.3-0.3-1.1 0.1-2.4 0.1-3.6 0.2 0.2 0.3 0.3 0.5 0.4 0.7-0.7-0.2-1.2-0.7-2-0.4-0.7 0.2-1.5 0-2.1 0.6-0.9-0.6-1.8 0-2.7 0-0.9 0-1.8 0-2.7 0.5-0.1 0.9-0.4 1.3-1.2 1.3-0.2 0-0.4-0.2-0.6-0.3 0.1-0.3 0.3-0.6 0.4-0.9-0.3 0-0.5 0.1-0.8 0.1-1.1-0.1-2 0.1-2.6 1.1 0 0-0.1 0-0.1 0-0.8-0.8-1.7-0.7-2.6-0.4-1.1 0.3-2.1 0.8-3.3 0.7 0.1 0.5 0.8 0.9 0.3 1.4-0.4 0.4-0.8 0.4-1.3 0.3-0.4-1.3-1.5-1.4-2.5-1.4-0.1 0.5-0.1 1-0.2 1.5h-1.4c-0.1-0.4-0.2-0.8-0.3-1.2h-2.2c0.2 0.7 0.4 1.3-0.3 1.5-1 0.4-1.4-0.5-1.8-1.2-0.6 0-1.1 0-1.6 0-0.6 0-1.2-0.1-1.8 0.3 0.3 0.4 0.6 0.8 0.8 1.3 0.3 0.6 0.6 1.3 0.8 2 0.2 0.6 0.2 1.3 0.3 1.9 0.6 0 1.2-0.3 1.5 0.3 0.1 0.3 0.1 0.7 0 1-0.1 0.3-0.4 0.5-0.6 0.8 0.2 0.7 0.5 1.3 0.6 2.1 0.2 1.9 0.3 1.8 1.8 2.1 0.1 0 0.1 0.1 0.3 0.2-0.1 0.4-0.2 1-0.4 1.7 0.1 0.2 0.3 0.6 0.5 1.2 0.6-1.3 1.3-1.4 2.2-0.2-0.2 0.6-0.6 0.9-1.2 1.1-0.4-0.2-0.7-0.3-1.2-0.6 0.4 1 0.7 1.8 0.9 2.5 1.2 0.2 1.7 1.1 1 1.9-0.2 0.3-0.2 0.6-0.4 0.8-0.3 0.7 0.2 1.2 0.1 1.7 0.6-0.1 1.1-0.2 1.7-0.4-0.5-0.3-1.1-0.5-0.9-1.2 0.1-0.3 0.4-0.6 0.7-0.6 0.7-0.2 1.1 0.2 1.4 0.9-0.2 0.3-0.4 0.5-0.7 0.9 0.4 0.1 0.8 0.3 1 0.2 0.6-0.5 1.4-0.3 2.1-0.4 0-1.2 0.1-1.6 0.7-1.7 0.2 0 0.4 0 0.5 0.1 0.3 0.3 0.5 0.6 0.7 0.9 1.2 0.4 2-0.5 2.9-0.8 1.5 0.9 1.8 1 3 0.9 0.2-0.5 0.6-0.8 1.2-0.9 0.6-0.1 1 0.2 1.3 0.6 1.5-0.4 2.9-0.8 4.3-1.1-0.1-0.1-0.1-0.1-0.2-0.2 0.2-0.3 0.4-0.7 0.6-1.1 0.5 0.3 0.8 0.6 1.1 0.8 1.5-0.5 2.9-0.9 4.3-1.3 0-0.5-0.1-0.9-0.1-1.3 0.4-0.2 0.7-0.3 1.1-0.4 0.3 0.3 0.5 0.6 0.9 1 0.8-0.3 1.6-0.7 2.4-0.9s1.4-0.6 1.9-1.4c0.3-0.6 0.7-0.6 1.3-0.3 0.2 0.1 0.4 0.2 0.6 0.4 0.4-0.3 0.7-0.5 1.1-0.8-0.2-0.2-0.3-0.4-0.5-0.6-0.4-0.3-0.5-0.7-0.2-1.1 0.2-0.2 0.7-0.4 1-0.4 0.3 0 0.5 0.4 0.8 0.6-0.3 0.4-0.4 0.6-0.6 0.9 0.8-0.2 1.6-0.3 2-0.8 0.7-0.8 2-1.1 2.5-2.1 1.8-1.2 2.9-3 4.4-4.4 0.3-0.3 0.5-0.8 0.7-1.2-0.3-0.2-0.6-0.3-0.8-0.5-0.2 0.3-0.4 0.6-0.7 0.9-0.4-0.2-0.7-0.4-1.1-0.6 0-1 0-1 1-1.2-0.1-0.8-0.7-1.2-1.3-1.6zm-53.5 141.2 0 0c0.3 1.1 0.7 2.1 1.8 2.6 0.5 0.3 0.8 0.6 0.9 1.1 0.1 0.6 0.4 1 1 1.1 0.8 0.1 1.1 0.6 1.1 1.1 0.7 0.6 1.3 1.2 1.9 1.6 0.6 0.4 1.3 0.8 1.9 1.1 0-0.5-0.1-1 0.1-1.2 0.4-0.4 0.9-0.2 1.5-0.1 0 0.4-0.1 0.8-0.1 1.3 0.8-0.1 1.4-0.3 1.9-1 0.2-0.2 0.3-0.4 0.6-0.5 0.7-0.3 1.4-0.5 2-0.7 0.1-0.6 0.1-1.2 0.8-1.5 0.7 0.3 1.4 0.6 1.8 0.8 0.9-0.3 1.5-0.4 2-0.7 0.7-0.3 1.5-0.2 1.9-1 0-0.1 0.2-0.1 0.3-0.1 0.8-0.3 1.3-1.2 2.3-1.1 0.1 0 0.1-0.1 0.2-0.1 0.4-0.4 0.9-0.7 1.4-1.2 0-0.6 0.2-1.3-0.4-1.8-0.6-0.7-1.1-1.3-1.1-2.4 0-0.9-0.8-1.8-0.9-2.8 0-0.2-0.3-0.5-0.3-0.7 0.1-0.8-0.4-1.2-0.8-1.7-0.2-0.2-0.4-0.4-0.5-0.7-0.2-1-0.6-2-1.2-2.9-0.1-0.2-0.2-0.5-0.3-0.8-0.3-0.8-0.5-1.6-0.8-2.3-0.2-0.4-0.5-0.7-0.7-1-0.4-0.7-0.6-1.6-1.1-2.2-0.5-0.7-1.1-1.4-1.1-2.3 0-0.2-0.2-0.3-0.4-0.5-0.2 0.4-0.4 0.7-0.6 1-0.6 1.1-1.1 2.1-1.8 3.2-0.2 0.3-0.5 0.7-0.9 0.8-0.6 0.1-0.9 0.5-1.3 1-0.2 0.3-0.5 0.6-0.9 0.8-1 0.6-2 1.3-3.1 1.8-1.5 0.6-2.8 1.7-4.5 2-1 0.2-1.9 0.5-2.9 0.5-1.6 0.1-3.2 0-4.8 0-0.2 0-0.4 0.1-0.6 0.1 0.2 0.3 0.2 0.7 0.4 0.9 0.5 0.4 0.6 0.8 0.6 1.4 0 0.3 0.1 0.7 0.2 0.8 0.5 0.4 0.6 1 0.9 1.4 0.4 0.6 0.5 1.3 0.8 1.9 0.8 1.2 1.5 2.4 2.7 3.3zm-42-181c0.4-0.5 0.7-1 1.1-1.5 0.2-0.3 0.6-0.5 0.9-0.8 0.5-0.5 1-1.1 1.4-1.6 0.5-0.6 1-1.3 1.6-1.8 1.5-1.4 3.3-2.4 4.8-3.6 1.3-1.1 2.9-1.5 4.4-2.3 0.3-0.2 0.7-0.2 1.1-0.3 0.6-0.2 1.2-0.5 1.8-0.7 0.3-0.1 0.6-0.1 0.9-0.1 0.2 0 0.4 0.1 0.5 0 1.6-0.7 3.3-0.6 5-0.9 0.3 0 0.6 0.1 1 0.2 0.2-0.1 0.4-0.2 0.6-0.3v0.2c1.3 0.1 2.6 0.3 3.9 0.3 0.4 0 0.8 0 1.1 0.3 0.1 0.1 0.3 0.1 0.5 0.1 1 0 1.9 0.3 2.7 0.9 0.2 0.2 0.5 0.2 0.8 0.3 1.1 0.2 2.1 0.3 3.2 0.5 0.6 0.1 1.1 0.1 1.7 0.1 0.8 0.3 1.5 0.9 2.5 0.8 0.1 0 0.3 0.1 0.4 0.2 1.3 0.9 2.7 1.8 4 2.7 0.3 0.2 0.5 0.6 0.8 0.9 1.3 0.3 2.4 0.9 2.9 2.2 0.2 0.6 0.6 1.1 1 1.5 0.7 0.6 1.1 1.3 1.2 2.1 0.1 0.9 0.7 1.5 1.1 2.1 0.5 0.8 0.5 1.7 1 2.5 0.3 0.6 0.3 1.2 0.4 1.8 0.1 0.9-0.1 2 0.7 2.8 0.2 0.2 0.2 0.7 0.1 0.9-0.2 0.5-0.2 0.8 0.1 1.2 0 0.1 0 0.1 0 0.2-0.2 1.3-0.3 2.7-0.5 4 0 0.5 0 0.9 0 1.4 0 0.3 0.1 0.7 0 1-0.3 1-0.5 2-0.6 3 0 0.4-0.2 0.8-0.4 1.2-0.2 0.5-0.4 0.9-0.6 1.4-0.2 0.7-0.3 1.4-1.2 1.6-0.2 0.1-0.4 0.3-0.5 0.5-0.5 1.1-1.5 1.6-2.4 2.2-0.6 0.4-1 1.1-1.5 1.6 0 0.7-0.1 1.3-0.1 1.9-0.2 0.1-0.3 0.3-0.5 0.4 1.3 0.5 0.8 1.2 0.4 2 0.4-0.1 0.7-0.1 1-0.2 0.6-0.2 1.2-0.4 1.9 0 0.4 0.2 0.9 0.2 1.3 0.1 1.3-0.3 2.7 0.1 4-0.1 0.8-0.1 1.7-0.1 2.5-0.1 0.6 0 1.1 0.1 1.6 0.1 1.1 0 2.2-0.1 3.3-0.2 0.9-0.1 1.7-0.3 2.5-0.4 0.2 0 0.4-0.1 0.5-0.1 1.1 0.4 2.1-0.2 3.1-0.4 0.7-0.2 1.4-0.1 2.1-0.2 0.4 0 0.8-0.1 1.2-0.2 0.2 0 0.4-0.2 0.5-0.1 0.8 0.3 1.4-0.1 2.2-0.2 1.4-0.2 2.8-0.4 4.2-0.5 1.4-0.1 2.8-0.2 4.1-0.7 0.6-0.2 1.4-0.2 2-0.1 0.5 0 0.9 0.1 1.4 0.1 0.4 0 0.8 0 1.2-0.2 0.3-0.1 0.8-0.1 1.1 0 0.7 0.5 1.4 0.3 2 0.2 0.7 0 1.4-0.1 2-0.4 0.6-0.2 1.1 0 1.6 0.1 0.9 0.2 1.8 0.3 2.7 0.4 0.6 0 1.2 0.1 1.8 0.4 0.5 0.3 1.2 0.5 1.8 0.5 0.5 0 1.2-0.2 1.6-0.6 0.7-0.5 1.3-0.8 2.1-0.8 0.2 0 0.5 0 0.6-0.2 1-1 2.4-1.1 3.7-1.6 1.1-0.5 2.4-0.7 3.5-1.2 0.3-0.2 0.8-0.2 1.2-0.3 0.8-0.2 1.6-0.2 2.3-0.8 0.4-0.3 1-0.7 1.6-0.3 0.1 0.1 0.3 0 0.4 0 1.1-0.9 2.4-0.7 3.7-1 0.6-0.1 1.2-0.3 2-0.6 0.3 0.1 0.8 0.1 1.4-0.2 0.3-0.2 0.8-0.1 1.2 0 1.4 0.7 3.1 2.5 2.2 4.3-0.1 0.2-0.2 0.6-0.1 0.9 0.2 1 0.1 1.8-0.8 2.3-0.1 0.5-0.1 1-0.2 1.4 0 0.1-0.1 0.3-0.2 0.4-1.3 0.9-2.4 2-3.6 2.9-0.1 0.1-0.3 0.1-0.5 0.2-0.3 0.1-0.6 0.1-0.8 0.3-1 0.6-1.9 1.4-2.9 2-0.7 0.4-1.5 0.5-2.3 0.6-0.4 0.1-0.8 0.2-1.2 0.4-1.2 0.7-2.5 1.3-3.8 1.9-0.9 0.4-1.9 0.7-2.9 1-1.4 0.4-2.8 0.9-4.3 1.2-0.9 0.2-1.8 0.2-2.8 0.4-0.2 0.5-0.2 1-0.9 1.2-0.2 0.1-0.4 0.6-0.5 0.9-0.4 1.2-0.4 1.2-1.4 1.8 0.2 0.7-0.3 1.2-0.7 1.7-0.4 0.5-0.8 0.9-1.2 1.5-0.3 0.6-1 1.1-1.6 1.6-0.2 0.2-0.6 0.2-0.9 0-0.3-0.2-0.7-0.1-1 0.3-0.2 0.3-0.6 0.5-0.9 0.7-0.4 0.2-0.8 0.3-1.1 0.6-1 0.9-2.1 1.6-3.4 1.9-0.2 0-0.3 0.3-0.5 0.4-0.2 0.2-0.5 0.4-0.7 0.5-0.9 0.1-1.5 0.7-2.1 1.2-0.7 0-1.3 0.2-1.9 0.6-0.6 0.4-1.3 0.6-2 0.8-0.2 0.1-0.5 0.1-0.7 0.3-0.4 0.5-0.9 0.6-1.5 0.6-0.6 0.1-1.2 0.3-1.7 0.6-0.8 0.4-1.7 0.6-2.6 0.6-0.3 0-0.6 0.1-0.9 0.2-0.7 0.3-1.4 0.6-2.1 0.9-0.1 0-0.1 0.1-0.2 0.1-1.2-0.5-2.2 0.4-3.3 0.5-1.3 0.1-2.6 0.4-3.9 0.6-1.2 0.1-2.4 0.2-3.6 0.3-1.4 0.1-2.8 0.2-4.2 0.3-0.7 0.1-1.4 0.2-2.2 0.3 0.3 1.4 0.5 2.8 0.8 4.1 0.2 1 0.5 2 0.3 3-0.1 0.3 0.1 0.7 0.2 1.1 0.1 0.6 0.3 1.2 0.1 1.8-0.1 0.3 0.2 0.7 0.3 1.1-0.1 0.3-0.3 0.7-0.5 1 0.1 0 0.1 0 0.2 0 0.2 1.3 0.4 2.5 0.7 4.1-0.6 0.6-1.4 1.3-2.2 2.1-0.2 0.2-0.3 0.4-0.5 0.7 1.2 0.3 2.2 0.8 3.3 0.9 1.8 0.1 2.7 1.4 3.5 2.6 0.6 0.9 0.7 2.2 1.1 3.6 0.3 0.1 0.9 0.4 1.3 0.7 0.8 0.5 1.5 1.2 2.2 1.8 0.2 0.2 0.4 0.4 0.6 0.5 1 0.3 1.8 0.9 2.5 1.6 0.1 0.1 0.3 0.2 0.5 0.3 1.4 0.4 2.2 1.6 3.2 2.4 1.2 0.9 2.2 2 3.5 2.7 0.9 0.5 1.7 1.3 2.6 2 0.8 0.7 1.6 1.5 2.4 2.1 0.8 0.6 1.8 1.1 2.7 1.6 0.3 0.2 0.6 0.3 0.9 0.5 0.3 0.2 0.7 0.4 1.1 0.6 0.3 0.5 0.7 1.1 1.3 1.6 0.6 0.6 1.4 1.4 1.6 2.2 0.3 1 0.8 1.7 1.5 2.4 0.3 0.3 0.5 0.7 0.5 1.2 0 0.3 0.1 0.7 0.3 0.9 0.9 0.6 1 1.7 1.4 2.5 0.1 0.1 0.1 0.3 0.1 0.4 0.2 1.7 0.4 3.4 0.4 5.1 0 0.7 0.2 1.2 0.6 1.7 0.5 0.7 0.9 1.6 1.3 2.4 0.6 1.2 1.2 2.5 1.8 3.7 0.3 0.7 0.8 1.2 0.8 2 0 0.4 0.3 0.9 0.5 1.3 0.4 0.6 0.7 1.1 0.7 1.8 0 0.2 0.1 0.4 0.2 0.5 0.6 0.8 0.7 1.8 1 2.8 0.4 1.1 0.9 2.1 1 3.3 0 0.2 0.3 0.3 0.4 0.5 0.2 0.3 0.4 0.6 0.4 0.8-0.2 0.8 0.2 1.4 0.7 2 0.4 0.6 0.6 1.1 0.7 1.8 0.1 0.7 0.4 1.4 1 2 0.4 0.3 0.5 0.9 0.8 1.5 1.2 0.1 2.5 0 3.7-0.2 0.9-0.2 0.9-0.2 1.6 0.2 0.3-0.1 0.6-0.3 0.9-0.3 1.8 0 3.6 0 5.4 0.2 1 0.1 2 0.3 3 0.1 0.2 0 0.3-0.1 0.4 0 1.2 0.5 2.5 0.5 3.8 0.7 1.6 0.2 2.8 1.1 4.2 1.8 0.5 0.2 2.4 2.4 2.8 3 0.3 0.5 0.6 0.9 1 1.4 0.1 0.2 0.3 0.4 0.3 0.6 0.6 1.7 1.4 3.4 0.3 5.2-0.3 0.5-0.1 0.9 0.1 1.2 0.5 0.9 0.4 1.3-0.3 2-0.2 0.2-0.3 0.6-0.6 0.9-0.7 0.6-1.4 1.1-2 1.8-1 1.1-2.5 1-3.7 1.5-0.2 0.1-0.4 0-0.6 0.1-0.8 0.3-1.6 0.6-2.5 0.5-0.3 0-0.6 0.2-0.9 0.4-0.4 0.3-0.9 0.5-1.4 0.3-0.5-0.2-1-0.2-1.4 0.2-0.1 0.1-0.3 0.2-0.5 0.2-1.8-0.2-3.5 1-5.3 0.7-0.3 0-0.6 0.1-0.8 0.2-0.1 0-0.2 0.2-0.3 0.2-1.1 0.1-2.2 0.1-3.3 0.1-0.8 0-1.5 0-2.3 0.1-0.8 0.2-1.6 0.5-2.5 0.1-0.2-0.1-0.5-0.1-0.8 0-1.2 0.2-2.4 0.2-3.5 0.3-1.9 0.1-3.9 0.2-5.6-1-0.7-0.4-1.3-0.7-1.6-1.5 0-0.2-0.3-0.3-0.4-0.5-0.3-0.4-0.6-0.8-0.7-1.2-0.1-1-0.6-1.7-1-2.5-0.1-0.3-0.3-0.5-0.3-0.8-0.1-0.4 0.1-1-0.4-1.3 0.1-1.3-0.6-2.4-1-3.6-0.6-0.4-1.2-0.8-1.8-1.2-0.6-0.3-1.3-0.6-1.9-0.9-0.1 0-0.2-0.1-0.3-0.1-1-0.9-2.1-1.8-3.1-2.8-0.2-0.2-0.3-0.4-0.5-0.6-0.9-0.8-1.9-1.6-2.7-2.5-1-1.1-2.1-2.1-2.8-3.6-0.5-1.2-1.6-2.2-2.4-3.3-0.2-0.3-0.3-0.6-0.5-1-0.2-0.4-0.3-0.8-0.6-1.1-0.6-0.7-0.9-1.6-1.3-2.5-0.5-1.2-1-2.5-1.6-3.7-0.2-0.4-0.6-0.8-0.9-1-0.3-1-0.7-1.8-0.9-2.7-0.3-1.1-0.9-2.1-1.8-2.6-0.9-0.5-1.7-1.3-2.7-1.7-0.4-0.1-0.8-0.4-1.1-0.7-0.3-0.3-0.6-0.6-1-0.8-0.4-0.2-0.8-0.3-1.2-0.5-0.4-0.2-0.7-0.4-1-0.6-1.6-1.2-2.9-2.8-4.8-3.7-1.1-1.4-2.8-2-4.1-3-0.9-0.8-2-1.3-3.1-1.9-0.3 0.2-0.7 0.3-1 0.5 0 0.9 0.7 1.3 1.1 1.8 0.7 0.8 1.1 1.7 1.5 2.7 0.3 0.8 0.8 1.4 1.4 2 0.5 0.6 0.8 1.5 1.1 2.2 0.2 0.4 0.2 0.8 0.4 1.1 1 2.2 2.2 4.2 2.9 6.5 0.2 0.5 0.6 0.9 0.9 1.4 0.3 0.5 0.6 1.1 0.9 1.6 0.2 0.4 0.4 0.9 0.5 1.3 0.3 1.2 1.1 2.3 1.4 3.5 0.4 1.5 0.8 3.1 1.3 4.6 0.2 0.7 0.4 1.3 0.5 2 0 0.3-0.2 0.6-0.4 1 0.3 0.7 0.6 1.6 0.9 2.4 0.4 1.4 1.4 2.4 2.2 3.5 0.6 0.8 0.9 1.7 1.3 2.6 0.2 0.6 0.5 1 1 1.3 0.5 0.4 0.9 0.8 0.8 1.5 0 0.1 0 0.2 0 0.2 0.8 0.8 0.7 2.2 1.8 2.9 0.2 0.1 0.3 0.4 0.4 0.6 0.2 0.7 0.3 1.4 0.4 2 0 0.2 0.1 0.4 0.3 0.6 1.1 1.3 1.7 2.9 2.3 4.6 0.2 0.6 0.3 1.3 0.9 1.7 0.1 0.1 0.3 0.4 0.2 0.6-0.1 0.8 0.4 1.4 0.8 2 0.3 0.6 0.7 1.1 0.7 1.8 0 0.3 0.3 0.7 0.6 0.9 0.4 0.3 0.5 0.6 0.5 1-0.1 1 0 2.1 0.5 3 0.4 0.7 0.8 1.3 1.3 1.9 0.4 0.5 0.9 1 1.3 1.6 0.1 0.2 0.2 0.4 0.3 0.6 0.1 0.2 0.1 0.4 0.2 0.6 0.6 0.8 1.3 1.6 1.9 2.5 0.2 0.2 0.3 0.4 0.4 0.6 0.3 1.5 1 2.8 1.9 4.1 0.6 0.9 1.3 1.8 1.3 3 0 0.8 0.4 1.6 0.6 2.4 0 0.1 0.3 0.2 0.4 0.4 0.2 0.3 0.4 0.6 0.4 1 0 0.8 0.3 1.4 0.7 2 0.2 0.4 0.4 0.8 0.5 1.2 0.2 0.6 0.3 1.2 0.8 1.7 0.3 0.2 0.4 0.9 0.3 1.2-0.4 0.9-0.2 1.9-0.5 2.7-0.3 0.8-0.8 1.7-1.3 2.4-0.5 0.8-1.1 1.6-1.6 2.4 0 0 0 0.1-0.1 0.1-0.4 0.7-1.4 0.7-1.8 1.5-0.4 0.8-1.2 0.9-2 1.2-0.1 0-0.3 0.1-0.4 0.2-0.4 0.6-1.1 0.8-1.8 0.6-0.3 0.7-0.8 0.8-1.5 0.8-0.7 0-1.3 0.2-2 0.4-0.1 0-0.2 0.2-0.4 0.4h-0.2c-0.8-0.3-1.5-0.6-2.5-0.5-0.8 0.1-1.7-0.3-2.5-0.7-0.4-0.2-0.5-0.7-0.9-1.2-0.7-0.1-1.3-0.5-1.8-1.2-0.4-0.6-0.9-1.2-1.4-1.8-0.1-0.1-0.2-0.3-0.4-0.4-1.1-0.7-1.7-1.8-2.4-2.8-0.7-1.1-1.3-2.2-1.7-3.4-0.2-0.7-1-1.2-0.8-2.1 0-0.1-0.1-0.2-0.2-0.3-0.9-0.8-1.1-2-1.3-3.1-0.2-0.8-0.6-1.5-0.4-2.3 0.1-0.2-0.2-0.5-0.4-0.7-0.5-0.6-0.6-1.2-0.5-1.9 0-0.6-0.1-1.3-0.1-1.9 0-0.8 0-1.6-0.1-2.5-0.5-0.2-1.1-0.6-1.1-1.3 0-0.2-0.3-0.4-0.5-0.5-0.9-0.5-1.9-1-2.8-1.5-0.7-0.4-1.3-0.7-1.9-1.1-0.3-0.2-0.4-0.7-0.6-1.1-0.2 0-0.4-0.1-0.7-0.2-0.6-0.2-1.1-0.5-1.5-1-0.6-0.8-1.1-1.6-2.2-1.9-0.2-0.1-0.5-0.3-0.6-0.5-0.2-0.8-0.9-1.1-1.4-1.6-0.8-0.8-1.4-1.8-2.1-2.7-0.2-0.3-0.2-0.7-0.3-0.9-1-0.9-1.7-1.8-2.2-3-0.1-0.4-0.4-0.8-0.6-1.1-0.5-1-0.9-2-1.4-3-0.1-0.3-0.1-0.6-0.3-0.8-0.6-0.7-0.8-1.6-0.9-2.4-0.1-0.7-0.4-1.2-1.2-1.4-0.3-0.1-0.6-0.3-0.8-0.6-1.1-1.2-2.1-2.5-3.2-3.7-0.3-0.3-0.8-0.4-1.1-0.8-0.5-0.6-1.1-1.2-1.3-1.9-0.2-0.6-0.7-1-1.1-1.5-0.8-1-1.6-1.8-2.2-2.9-0.4-0.8-1.2-1.5-1.8-2.2-0.2-0.2-0.3-0.6-0.4-0.8-0.1-0.1-0.1-0.3-0.1-0.4-1.1-0.7-1-2.1-2.1-2.9-0.5-0.4-0.7-1.2-1.1-1.7-0.5-0.7-1.2-1.2-1.4-2.2-0.1-0.5-0.5-1.1-0.9-1.5-0.4-0.6-0.6-1.3-1.3-1.7-0.2-0.1-0.2-0.7-0.4-1.1-0.2-0.4-0.5-0.9-0.7-1.3-0.7-1.2-1.4-2.4-2.1-3.7-0.5-0.9-1.2-1.7-1.5-2.9-0.3-1-1-1.9-1.5-2.9-0.2-0.5-0.5-1-0.6-1.5-0.1-0.7-0.4-1.2-0.8-1.8-0.5-0.9-0.9-1.7-1.2-2.7-0.1-0.6-0.6-1.2-0.9-1.8-0.5-1.1-1.4-2.1-1.4-3.4 0-0.1-0.1-0.3-0.2-0.4-0.7-0.8-0.9-1.7-1.2-2.7-0.3-1-0.7-1.9-1-2.9-0.1-0.3-0.2-0.6-0.2-0.9 0-0.2 0-0.5 0-0.8-1.2 0-1.5 1.5-2.4 1.5-0.7 0.8-1.2 1.5-1.8 2.1-0.5 0.4-0.8 1-1.3 1.4-1.2 0.8-1.9 2.1-3.3 2.7-0.8 0.4-1.6 0.3-2.3 0.2-0.7-0.1-1.5-0.4-2-1.1-0.3-0.5-0.9-0.9-1.2-1.4-0.4-0.8-0.8-1.6-1-2.5-0.2-1 0-2.1 0-3.2-1.2 0-1.9-0.6-2.3-1.5-0.1-0.3-0.3-0.6-0.7-0.6-0.2 0-0.4-0.2-0.5-0.4-0.6-0.9-1.2-1.6-2.2-2.2-0.2-0.1-0.3-0.5-0.4-0.9-0.2-1-0.6-1.9-1.7-2.3-0.2-0.1-0.4-0.4-0.5-0.6-0.3-0.9-0.7-1.6-1.3-2.4-0.8-0.9-1.4-2.1-1.9-3.2-0.6-1.2-1-2.5-1.6-3.7-0.4-0.9-0.9-1.8-1-2.9-0.1-0.9-0.6-1.7-0.9-2.5-0.3-0.8-0.6-1.6-0.9-2.4-0.1-0.3-0.2-0.7-0.3-1-0.1-0.4-0.2-0.8-0.4-1.4 0.4-1.1-0.5-2.3-0.5-3.6-0.1 0-0.2-0.1-0.3-0.1-0.1 0.3-0.2 0.5-0.3 0.8-1-0.5-1-0.5-0.8-1.6 0.3 0 0.6-0.1 0.9-0.1 0.1-1.1 0-2-1-2.8-0.2-0.6 0.2-1.1 0.8-1.5 0.3-1.3-0.4-2.2-0.8-3.2 0.3-0.4 0.6-0.6 0.8-0.8 0.1-0.7 0-1.4 0.2-1.9 0.2-0.7-0.5-1-0.6-1.4 0.9-1.5 0.2-2.9-0.2-4.4 0.5-0.7 0.8-1.5 0.2-2.4-0.1-0.1-0.3-0.1-0.7-0.2 0.4-0.2 0.6-0.4 0.7-0.4 0-0.6 0.1-1.1 0.1-1.6 0.1-1.1 0-2.1-0.7-3.1 0.1-0.5 0.5-1.1 0.1-1.5-0.7 0.1-1.3 0.1-2 0.1v-1.4c0.5-0.7 0.9 0 1.6 0.2-0.2-0.4-0.2-0.7-0.4-1-0.8-1-1-2.2-1.3-3.3-0.1-0.3-0.1-0.6-0.2-0.9h-0.7v-1.5c0.2 0.1 0.4 0.1 0.7 0.2-0.2-1.6 0.5-3 1-4.5-0.3-0.3-0.6-0.6-1-1.1 0.5-0.3 0.9-0.7 1.3-0.8 0.5-0.1 0.7-0.5 0.9-0.9 0.6-1.2 0.4-2.4 0.2-3.6-0.1-0.5-0.1-1-0.2-1.7-0.2-0.4-0.8 0.3-1.2 0-0.5-1.1-0.5-1.3 0-2 0.7 0.1 0.7 0.7 1 1.2 0.6-0.3 0.1-0.7 0.1-1 0-0.4 0-0.9 0-1.3 0-0.4-0.2-0.8-0.2-1.1-0.5-0.1-1-0.1-1.3-0.3-0.3-0.3-0.2-0.8-0.4-1.4 0.7-0.1 1.2-0.1 1.7-0.2 0.7-0.8 0.2-1.5 0.1-2.1-0.6-0.3-1.2-0.6-1.7-0.9-0.1-0.1 0-0.6 0-0.9 0.6-0.1 1.1-0.3 1.7-0.4v-2.5c-0.5-0.5-1.4 0.1-1.6-0.7 0.2-1.2 1.5-0.2 1.9-1.1-0.3-0.5-0.4-1.2 0.2-1.7-0.6-0.8-1.4-0.1-1.9-0.5-0.3-1.1-0.1-1.3 1.4-1.5v-2.6c-0.6 0.5-1 0.3-1.4 0-0.5-0.4-0.4-0.8 0.2-1.1 0.4-0.2 0.7-0.3 1.1-0.5 0.2-0.3 0.3-0.6 0.4-0.9-0.1-0.4-0.2-0.8-0.3-1.2-0.9 0.1-1.4-0.3-1.6-1.2 0.6-0.8 1.1-0.9 2-0.2 0.1-0.7 0-1.5 0.2-2.2 0.2-0.8 0.5-1.7 0.8-2.5-0.2-0.3-0.5-0.6-0.6-0.9-0.1-0.2 0-0.5 0.1-0.8 0.2-0.5 0.6-0.6 1.7-0.3-0.6-0.7-0.7-1.3-0.5-2.2 0.8-0.2 1.6-0.7 2.6-0.5 0.1-0.3 0.1-0.8 0.3-1.1 0.2-0.3 0.5-0.5 0.9-0.8 0.3 0.1 0.6 0.2 0.9 0.3 0.1 0.4 0.2 0.7 0.3 1.1h1.7c0.1-0.2 0.2-0.3 0.3-0.4 0.5-0.7 0.7-0.8 1.4-0.5 0.9 0.4 1.7 0.5 2.7 0.4 0.4-0.9 1-0.8 1.9-0.5 0.8 0.3 1.7 0 2.6 0 0.5 0 1-0.3 1.5-0.1 0.3 0.1 0.7 0.1 1 0 1.3-0.6 2.7-0.3 4-0.3 0.3 0 0.5 0 0.8 0 0.5 0 1.1-0.1 1.6-0.1 0.4 0 0.9 0 1.3 0-0.1-0.6-0.3-1.1 0.3-1.5 0.2-0.1 0.5-0.2 0.7-0.1 0.6 0.3 0.3 0.8 0.3 1.4 0.9-0.1 1.7-0.3 2.6-0.4 0.1-0.2 0.2-0.5 0.3-0.8 0.7 0.3 1.2 0.7 1.8 0.9 0.6 0.2 1.2 0.2 2 0.3 0.1 0.5 0.3 1 0.4 1.5-0.4 0.4-0.9 0.7-1.3 1-1.9 0-3.8 0-5.5 0.8 0.1 1 0.1 1-1.5 1.3-0.1-0.4-0.2-0.8-0.3-1.3-0.7 0-1.4 0.1-2 0.1-0.4 1.1-0.7 1.4-1.3 1.3-0.8-0.1-0.7-0.7-0.8-1.3-0.9 0-1.7-0.3-2.3 0.8-0.4 0.6-1.1 0.6-1.7 0-0.4-0.4-0.8-0.5-1.3-0.3-0.3 0.1-0.7 0.1-1 0.1-0.2 0.3-0.5 0.7-0.8 1.1-0.5-0.4-0.9-0.6-1.2-0.9-0.5 0.1-0.9 0.4-1.2 0.3-0.8-0.3-1.4 0-2 0.4-1.5-0.8-2.8-0.2-4.1 0.3 0.3 0.1 0.6 0.3 0.9 0.4 0.6-0.4 0.9-1.2 1.7-0.8 0.8 0.3 0.7 1.1 0.6 1.8 1.5-0.1 2.7 0.9 4.1 1.4 0.4-0.9 0.9-1.3 1.5-1.1 0.6 0.2 0.6 0.8 0.1 2.1 0.8 0.1 1.6 0.2 2.4 0.3 0.1 1.3 0.1 1.3-0.6 2.3-0.3 0.1-0.5 0.1-0.8 0.2-0.2 0.5-0.4 1-0.6 1.4-1.9 0-2.1-0.3-1.8-1.9-0.2-0.1-0.4-0.2-0.7-0.2-0.4-0.1-0.8-0.1-1.1-0.4-0.6-0.4-1.2-0.5-1.8-0.6-0.4-0.1-0.7-0.1-0.9 0.3-0.3 0.6-0.8 0.5-1.3 0.3 0.1-0.4 0.1-0.9 0.2-1.3-0.8-0.2-1.5-0.5-2.3-0.7-0.3-1-1.3-0.8-2-1.1-0.3 0.6-0.7 1.1-0.9 1.7-0.2 0.6-0.3 1.3-0.4 1.9 0.4 0.2 0.7 0.3 0.9 0.4-0.1 0.8-0.2 1.5-1.2 1.5v2.1c0.9 0.2 1.1 0.6 1.2 1.5-0.4 0.1-0.8 0.3-1.1 0.4-0.1 0.4-0.1 0.8-0.2 1.1-0.1 0.6-0.1 1 0.6 1.1 0.2 0 0.5 0.4 0.5 0.6-0.1 0.4-0.2 0.9-0.5 1.2-0.5 0.5-0.7 1-0.4 1.7 0.1 0.2 0 0.5 0.1 0.7 0.5 0.1 1.1-0.1 1.3 0.5 0.2 0.6 0 1-0.6 1.3-0.2-0.1-0.4-0.1-0.6-0.2-0.8 0.9 0.1 1.8-0.2 2.5 0.5 0.3 0.9 0.6 1.3 0.8-0.1 0.8-0.4 1.2-1.1 1.1-0.1 0.9-0.1 1.7-0.2 2.4 0.5 0.3 0.8 0.5 1.2 0.8-0.2 0.3-0.4 0.6-0.5 0.8-0.5 0.6-0.7 1.2-0.7 1.9 0 0.7 0.3 1.5 0 2.2-0.1 0.2 0.1 0.5 0.1 0.8 1.2-0.5 1-1.6 1.3-2.4-0.1-0.4-0.1-0.8-0.1-1.2 0-0.2 0-0.4 0.1-0.7 0.1-1.4 0.2-2.8 0.3-4.1 0.7-0.3 1.4-0.7 2.1-1 0-0.5 0.1-0.9 0.1-1.4h0.9c0.2 0.6 0.4 1.1 0.7 1.7 0.9 0.3 1.8 0.6 2.7 0.1-0.5-0.8-0.7-1.2-0.2-1.5 0.3-0.2 0.8-0.3 1.2-0.2 0.5 0.1 0.6 0.6 0.4 1.6 0.8 0.3 1.8 0.4 2.2 1.6-0.3 0.2-0.6 0.4-1 0.7 0.1 0.6 0 1.3 0.2 1.8 0.3 0.9 0.9 1.6 0.1 2.5 0 0 0 0.1 0 0.1 0 0.8 0 1.7 0.3 2.5 0.1 0.4 0.1 0.7 0 1.1-0.3 0.9-0.4 1.9 0 2.8 0.2 0.5 0.3 0.9-0.2 1.4-0.2 0.2-0.2 0.5-0.3 0.8-0.1 0.4-0.1 0.9-0.2 1.3 0.4 0.3 0.8 0.5 1.2 0.8-0.2 1.1-1 1.2-1.9 1.3-0.2 0.3-0.4 0.6-0.4 0.8 0 0.8-0.4 1-1.1 1.1-0.1-0.1-0.2-0.1-0.3-0.2-0.5-0.8-1.2-1.3-2.2-1.5-0.5-0.1-0.6-0.5-0.4-0.9 0.1-0.2 0.2-0.5 0.2-0.7 1.7-0.1 2.2-0.6 2.1-1.9-0.1-0.9 0.6-1.8 0.2-2.8 0.4-1.6 0.4-3.2 0.2-4.9 0-0.4 0.2-0.9 0.1-1.3-0.4-1.2 0-2.3-0.2-3.6 0 0 0 0 0 0-1.1-0.1-2.1-0.2-3.2-0.2-0.3 0-0.8 0.3-0.8 0.6-0.2 1.1-0.3 2.3-0.5 3.5 0.2 0.1 0.5 0.1 0.6 0.2 0.7 0.4 1 1.4 0.5 2-0.5 0.6-0.9 1.3-1.6 1.6-0.6 0.3-1.2 0.7-1.7 1.2-0.5 0.6-0.8 1.3-1.2 2-0.4 0.7-0.5 1.5-1 2.2-0.8 1.1-0.9 2.5-1.3 3.7-0.1 0.2 0 0.5 0 0.8 0.2 1.2 0.4 2.4 0.5 3.6 0 0.2 0 0.5 0.1 0.6 0.6 0.9 1.2 1.8 1.9 2.7 1 1.3 2.1 2.5 3.1 3.7 1.2-0.1 1.8 0.9 2.8 1.4 0.4-0.8 0.2-1.5-0.5-2-0.4-0.3-0.9-0.6-1.3-1-1.3-1-2-2.5-2.9-3.8-0.5-0.7-0.8-1.5-1.1-2.3-0.1-0.2-0.2-0.4-0.1-0.5 0.3-0.5 0-0.8-0.2-1.2-0.6-1.2-0.4-2.6 0-3.7 0.5-1.4 0.9-2.9 1.8-4.2 0.7-0.9 1.2-2 1.8-2.9 0.2-0.3 0.6-0.5 1-0.6 0.6-0.2 0.9 0 1.1 0.6 0.3 1-0.2 1.8-0.8 2.5-0.6 0.7-0.8 1.5-1 2.4-0.1 0.3-0.1 0.6-0.3 0.8-1 1.5-1.3 3-0.7 4.7 0.2 0.5 0.2 1.1 0.3 1.6 0 0.1 0.1 0.2 0.1 0.3 0.2-0.1 0.5-0.3 0.6-0.4 1.3 0.8 1.4 1.3 0.4 2.2 0.1 0.1 0.1 0.3 0.2 0.4 0.1 0.2 0.3 0.4 0.5 0.6 0.3-0.4 0.5-0.7 0.8-0.9 0.5-0.4 1.1-0.3 1.5 0.2 0.4 0.4 0.3 1-0.2 1.4-0.2 0.2-0.5 0.3-0.8 0.5 0.5 0.3 0.8 0.6 1.2 0.9 0.6-1.1 1.1-2.2 1.7-3.3-1.1 0.1-1.4 0-1.8-1 0.3-0.3 0.6-0.6 1-0.9 0.4 0.2 0.8 0.3 1.2 0.5 0.1-0.4 0.2-0.7 0.2-1 0-1.1 0.2-1.4 1.4-1.5-0.1-1 0.9-1.5 1.2-2.4 0.4-0.9 1.3-1.4 1.7-2.2 0.5-0.8 1.3-1.2 1.7-1.7-0.2-0.7-0.3-1.2-0.4-1.8 0-0.6 0.1-1.2 0.1-1.7 0-0.4 0-0.8 0.1-1.2 0.4-1.3 0-2.6-0.2-3.8-0.5 0.1-0.9 0.1-1.3 0.1-0.1-0.4-0.2-0.7-0.3-1 0.7-0.8 0.7-0.8 2 0 0-0.9 0-1.8 0-2.6 0-0.9-0.2-1.9-0.3-2.8-0.1-0.7-0.1-1.4-0.1-2-0.3 0.1-0.7 0.2-1 0.3-0.4-0.7-0.5-1.2 0-1.6 0.3 0.1 0.6 0.2 1 0.3-0.1-1.1-0.2-2.1-0.2-3.1 0.1-0.9 0.1-1.8 0-2.7 0-0.3 0.2-0.7 0.2-1.1 0-1.1-0.2-2.2-0.2-3.4 0-0.4 0.2-0.9 0.4-1.2 0.4-0.6 0.9-1.1 1.4-1.6-0.2 0-0.5 0-0.6-0.1-0.2-0.1-0.5-0.3-0.5-0.6 0-0.1 0.2-0.4 0.4-0.5 0.4-0.2 0.8-0.3 1.3-0.5 0.1 0.6 0.2 1 0.2 1.4 0.8-0.3 1.7-0.4 2.3-1 0.8-0.7 1.2-0.3 1.9 0.1 0 0.4-0.1 0.7-0.1 1.1 0.8 0.1 1.5 0.4 2.2-0.2 0.3-1.5 0.7-1.7 1.9-1.4 0.2 0.4 0.3 0.9 0.6 1.1 0.5 0.5 1.3 0.2 1.9-0.3 0.2-0.2 0.4-0.4 0.6-0.6 0.3-0.3 0.5-0.6 0.7-0.9 0.2-0.4 0.1-0.8 0.2-1.2-0.6-0.4-1.5-0.3-1.7-1.2 0.2-0.2 0.5-0.6 0.8-0.8 0.3-0.1 0.8 0 1.2 0 0.3-0.3 0.6-0.6 0.5-1.2 0-0.3 0.2-0.7 0.5-0.9 0.9-1 1.5-2.1 1.7-3.4z" fill="#383747"/><path d="m163.3 190.3c1.2 1.3 1.1 1.7-0.3 2.2-0.5-0.3-0.8-0.8-0.8-1.4 0.1-0.6 0.5-0.8 1.1-0.8" class="a"/><path d="m156.8 194.6c-0.6-0.6-0.8-1.2-0.5-1.6 0.2-0.4 0.6-0.4 1-0.3 0.5 0.1 0.9 0.4 0.9 1 0.1 0.5-0.2 0.6-1.3 1" class="a"/><path d="m3.6 73.6c-0.5 1-1.3 1-2.1 0.1 0.3-0.8 0.3-0.8 1.2-1.3 0.3 0.4 0.6 0.8 0.9 1.3" class="a"/><path d="m165.7 190.4c-0.4-0.1-0.8-0.2-1.2-0.3-0.1-0.3-0.2-0.6-0.2-0.9 0.7-0.6 1.4-0.7 1.8-0.4 0.3 0.3 0.2 1-0.3 1.6" class="a"/><path d="m1.8 76.9c0.2-0.1 0.4-0.2 0.6-0.2 0.2-0.1 0.3-0.2 0.4-0.3 1.2 1 1.2 1.3 0.2 2.1-0.6-0.4-1.4-0.5-1.1-1.6" class="a"/><path d="m169.7 188.4c0.6 0.6 0.8 1.1 0.5 1.4-0.3 0.5-0.9 0.3-1.3 0.2-0.2 0-0.4-0.3-0.5-0.5-0.1-0.5 0.3-0.9 1.3-1.2" class="a"/><path d="m155.9 190.9v1c-0.3 0.4-0.8 0.7-1.2 0.3-0.4-0.3-0.6-0.9-0.4-1.5 0.5-0.3 1-0.2 1.6 0.1" class="a"/><path d="m158.3 192.2c-0.3-0.9 0.1-1.2 0.7-1.6 0.3 0.1 0.6 0.2 1 0.3 0.3 0.5 0.4 1-0.1 1.2-0.4 0.2-1 0-1.6 0" class="a"/><path d="m2.6 51.8c0.3 0.2 0.5 0.3 0.8 0.4 0.2 1.1 0 1.6-0.5 1.6-0.3 0-0.7-0.2-0.9-0.4-0.4-0.4-0.1-1 0.6-1.6" class="a"/><path d="m168.1 190.6v1.4c-0.4 0.4-0.8 0.6-1.4 0.2-0.4-0.3-0.4-0.8-0.2-1.2 0.3-0.6 1-0.3 1.6-0.4" class="a"/><path d="m174.1 190.3c-1.1 0-1.5-0.3-1.4-1.1 0.1-0.5 0.4-0.8 0.9-0.8 0.5 0 0.7 0.3 0.6 0.8 0 0.3 0 0.6-0.1 1" class="a"/><path d="m170.7 190.7c0.9-0.3 0.9-0.3 1.6 0.9-0.1 0.2-0.1 0.5-0.3 0.6-0.3 0.2-0.7 0.2-1 0.2-0.2 0-0.3-0.4-0.3-0.7 0-0.3 0-0.6 0.1-1" class="a"/><path d="m3.6 20c-0.7 0.6-1.4 0.7-2.1 0 0.4-0.5 0.8-0.9 1.2-1.4 0.6 0.3 1.1 0.6 1 1.4" class="a"/><path d="m153.8 194c-0.7 0.2-1.3 0.7-1.9-0.1 0.1-0.4 0.2-0.7 0.4-1.1 1.1-0.1 1.5 0.1 1.5 1.2" class="a"/><path d="m3.1 82.6c-0.6-0.2-0.9-0.3-1.3-0.4-0.2-0.5-0.2-0.9 0.3-1.1 0.5-0.2 1.1-0.1 1.6 0.5-0.2 0.3-0.3 0.7-0.5 1.1" class="a"/><path d="m1.5 15.9c0.2-0.4 0.4-0.7 0.6-1 0.6 0.1 1.3 0 1.7 0.9-0.5 0.3-1.1 0.5-1.7 0.8-0.1-0.2-0.3-0.4-0.5-0.6" class="a"/><path d="m174.9 192.3c-0.1-0.4-0.1-0.9-0.2-1.4 0.5-0.2 0.9-0.3 1.4-0.4 0.2 0.2 0.4 0.4 0.6 0.6-0.2 0.8-0.9 0.8-1.4 1.3-0.1 0-0.2-0.1-0.3-0.1" class="a"/><path d="m5 13c0.2 0.2 0.3 0.3 0.4 0.4 0.1 0.1 0.1 0.2 0.2 0.2 0 0.7-0.6 0.8-1 0.9-0.3 0.1-0.4 0-0.9-0.8 0.4-0.2 0.9-0.5 1.3-0.7" class="a"/><path d="m20.1 11.5c-0.1 0.8-0.9 0.4-1.3 0.7-0.1 0.1-0.5-0.2-0.7-0.4-0.1-0.1 0-0.4 0.1-0.5 0.3-0.4 1.3-0.6 1.7-0.2 0.1 0.1 0.2 0.2 0.2 0.3" class="a"/><path d="m162.1 193.3c-0.8 1.1-0.9 1.1-1.9 0.2 0.3-0.9 0.9-1 1.9-0.2" class="a"/><path d="m15.7 11.4c-0.1 0.4-0.1 0.8-0.2 1.1-0.9-0.1-0.9-0.1-1.5-0.8 0.4-0.8 1-0.4 1.7-0.4" class="a"/><path d="m2.2 86.7c0-0.5-0.1-1-0.1-1.5 0.7 0 1.3 0.3 1.3 0.7 0 0.4-0.2 0.5-1.2 0.7" class="a"/><path d="m162.1 189.2c-0.1 1-0.6 1.4-1.2 1-0.2-0.1-0.3-0.3-0.3-0.5 0-0.2 0.2-0.4 0.4-0.4 0.4-0.1 0.8-0.1 1.2-0.1" class="a"/><path d="m27.2 12.4c-0.3-0.2-0.5-0.4-0.8-0.6 0.2-0.3 0.4-0.6 0.7-0.7 0.3-0.1 0.8-0.1 0.9 0.3 0.2 0.7-0.5 0.7-0.9 1" class="a"/><path d="m11.7 11.8c-0.3 0.3-0.7 0.6-1.1 1-0.3-0.4-0.5-0.6-0.8-1.1 0.8-0.1 1.3-0.1 1.8-0.2 0.1 0.1 0.1 0.2 0.2 0.3" class="a"/><path d="m151.6 191.2c0 0.9-0.5 1-1 1.1-0.5 0.1-0.6-0.3-0.6-0.8 0.5-0.1 1-0.2 1.7-0.3" class="a"/><path d="m0.3 18.5c0.1-0.5 0.1-0.9 0.2-1.3 0.7 0.1 1.1 0.3 1 0.9-0.1 0.5-0.5 0.6-1.1 0.4" class="a"/><path d="m0.2 22.9c-0.1-0.5-0.1-0.7-0.2-1.1 0.4-0.1 0.7-0.3 1.2-0.4v1.2c-0.3 0.1-0.6 0.2-1 0.4" class="a"/><path d="m49.6 145.3c-0.1-0.5-0.1-1.1-0.2-1.6 0.7-0.3 1.2-0.7 1.8-0.2 0.3 0.2 0.6 0.6 0.4 1.1-0.2 0.6-0.7 0.8-2 0.7" class="a"/><path d="m47.2 131.2c0 0.7 0.3 1.5-0.6 1.8-0.4 0.2-0.9 0.1-1.2-0.4-0.2-0.4-0.4-0.8 0-1.2 0.2-0.2 0.6-0.4 0.9-0.4 0.3 0 0.6 0.1 0.9 0.2" class="a"/><path d="m61.5 163.7c-0.3 0.1-0.5 0.2-0.8 0.3-0.4-0.4-0.7-0.8-1-1.1 0.1-0.9 0.8-0.9 1.3-1.2 0.8 0.4 0.8 1.1 0.5 1.9" class="a"/><path d="m44.4 131c-1.2-0.3-1.2-0.3-1.1-1.6 0.8-0.6 1.3-0.8 1.6-0.4 0.4 0.4 0.2 1.3-0.5 2" class="a"/><path d="m47.5 141.8c0.4-0.2 0.7-0.4 1-0.7 0.2 0.1 0.4 0.2 0.5 0.3 0.3 0.4 0.7 0.9 0.3 1.4-0.2 0.2-0.7 0.3-1.1 0.2-0.6-0.1-0.8-0.4-0.8-1.2" class="a"/><path d="m59.5 155.8c0.2 0.9 0.2 1.5-0.5 1.9-1.2-0.5-1.2-0.6-1.1-1.9h1.6" class="a"/><path d="m52.1 147.4c-0.4-0.5-1-0.9-0.6-1.6 0.2-0.4 0.7-0.4 1.1-0.3 0.6 0.1 1 0.3 0.8 1-0.4 0.3-0.8 0.5-1.3 0.9" class="a"/><path d="m58.2 151.4c0.6 0.5 1.6 0.3 1.5 1.5-0.3 0.2-0.7 0.5-1 0.7-0.4-0.5-0.7-0.9-1-1.3 0.2-0.2 0.3-0.5 0.6-0.9" class="a"/><path d="m52.7 141c0.3 0.5 0.5 0.8 0.6 1.2 0.1 0.4 0 0.8-0.4 1-0.4 0.2-0.7-0.2-0.9-0.4-0.3-0.3-0.5-0.7-0.2-1.1 0.2-0.2 0.5-0.4 0.9-0.7" class="a"/><path d="m56.9 151.7c-1-0.5-1.1-0.7-1-1.3 0.1-0.6 0.3-0.8 0.9-0.8 0.7 0 0.9 0.3 0.8 1 0 0.1-0.1 0.3-0.2 0.4-0.1 0.2-0.3 0.4-0.5 0.7" class="a"/><path d="m54.4 147.2c1 0.8 1.2 1.3 0.8 2-0.2 0.5-1 0.5-1.1 0-0.1-0.4-0.2-0.8-0.1-1.2 0-0.3 0.3-0.5 0.5-0.8" class="a"/><path d="m64.2 162c0.4 0 0.7 0 1.2-0.1 0.2 0.4 0.3 0.8 0.5 1.3-0.3 0.2-0.6 0.4-0.9 0.6-1-0.3-1-0.4-0.7-1.8" class="a"/><path d="m50.1 135c0.7 0.3 1.3 0.5 1.2 1.3 0 0.2-0.3 0.5-0.5 0.5-0.5-0.1-1.1 0.3-1.4-0.4-0.3-0.6 0.1-1 0.6-1.4" class="a"/><path d="m61 157.7c0.1 0.4 0.2 0.6 0.3 0.9 0.1 0.7-0.1 1-0.5 1-0.4 0.1-1-0.3-1.1-0.7-0.1-0.2 0-0.5 0-0.8 0.3-0.1 0.5-0.2 0.7-0.2 0.2-0.1 0.3-0.1 0.7-0.2" class="a"/><path d="m51.7 151.1v-1.5c1.1-0.3 1.4-0.2 1.8 0.4 0.3 0.5 0.1 1-0.5 1-0.4 0-0.8 0-1.3 0" class="a"/><path d="m51.3 140.4c-0.6 0.3-1.1 0.9-1.8 0.3-0.2-0.5 0-0.8 0.3-1.1 0.4-0.4 0.7-0.6 1.4-0.4 0 0.3 0.1 0.7 0.1 1.2" class="a"/><path d="m67.1 167.9c0.5 0.4 0.8 0.7 0.6 1.3-0.1 0.4-0.4 0.7-0.9 0.7-0.5 0-0.8-0.1-1-0.8 0.4-0.3 0.8-0.7 1.3-1.1" class="a"/><path d="m54.6 151.5c0.2 0.3 0.5 0.6 0.7 0.9-0.5 1.1-0.5 1.1-1.7 0.6-0.3-0.9-0.2-1.2 1-1.4" class="a"/><path d="m63.9 167.6c0.3-0.7 0.5-1.3 0.8-1.8 1.1 0.5 1.2 0.9 0.5 2.3-0.3-0.1-0.7-0.3-1.2-0.5" class="a"/><path d="m90.7 133.8c-0.3-0.5-0.4-1.1 0-1.7 0.3-0.4 0.7-0.5 1-0.3 0.4 0.2 0.4 0.6 0.3 0.9-0.3 0.5-0.5 1.1-1.3 1l0 0" class="a"/><path d="m47.4 133.4c0.3-0.1 0.5-0.3 0.6-0.2 0.5 0.2 0.9 0.5 1.3 0.7-0.2 1-0.2 1-1.3 1.1-0.2-0.5-0.3-0.9-0.5-1.6" class="a"/><path d="m67.6 164.3c0 0.3 0 0.7-0.1 1-0.4 0.1-0.8 0.2-1.2 0.3-0.4-0.4-0.7-0.8-0.3-1.4 0.3-0.4 0.6-0.4 1.6 0.1" class="a"/><path d="m51.7 138.4v-1.2c0.4-0.1 0.7-0.2 1.1-0.2 0.4 0.7 0.2 1.3 0.2 2.1-0.5-0.3-0.9-0.5-1.3-0.7" class="a"/><path d="m88.3 131.2c0-1.1 0-1.1 1.2-1.4 0.4 0.3 0.7 0.7 0.4 1.2-0.4 0.7-1 0.2-1.6 0.2" class="a"/><path d="m64.1 165.1c-0.5 0.3-0.9 0.5-1.4 0.8-0.3-0.2-0.5-0.4-0.8-0.7 0.3-0.4 0.5-0.7 0.7-1 0.7-0.2 1 0.3 1.5 0.9" class="a"/><path d="m55.8 154.7c0.3-0.5 0.5-0.9 1.1-0.7 0.5 0.2 0.8 0.6 0.6 1.2-0.9 0.4-0.9 0.4-1.7-0.5" class="a"/><path d="m62.7 159.7c0.3 0.3 0.6 0.5 0.8 0.9 0.1 0.2 0.1 0.6 0 0.8-0.1 0.1-0.5 0.2-0.7 0.1-0.3-0.2-0.6-0.4-0.7-0.7-0.2-0.4 0.2-0.7 0.7-1" class="a"/><path d="m45.6 135.8c0.4-0.3 0.6-1 1.2-0.6 0.6 0.4 0.3 1 0.3 1.5-0.9 0.2-0.9 0.2-1.4-0.9" class="a"/><path d="m54.6 145.4c-0.4-0.5-0.7-0.8-1-1.1 0.6-0.6 0.9-0.6 1.7 0.2-0.2 0.3-0.4 0.5-0.7 0.8" class="a"/><path d="m50.2 131c0.6 0.6 0.7 1.1 0.5 1.7-0.7 0.2-0.8-0.3-1.1-0.8 0.2-0.3 0.3-0.5 0.6-0.9" class="a"/><path d="m39.8 108.9c-0.4 0-0.8-0.6-0.8-1.1 0-0.5 0.7-1.1 1.4-1 0.5 0 0.9 0.4 0.9 0.8 0 0.6-0.9 1.3-1.4 1.3" class="a"/><path d="m41 98.8v1.5c-0.4 0.1-0.7 0.3-1 0.3-0.4 0-0.8-0.4-0.9-0.8 0-0.5 0.2-0.8 0.7-0.9 0.3 0 0.7-0.1 1.2-0.1" class="a"/><path d="m40.2 94.2c0.3 0.4 0.6 0.7 0.9 1-0.2 0.4-0.4 0.8-0.6 1.2-0.4 0-0.7-0.1-1.1-0.1-0.3-1.4-0.2-1.5 0.9-2.1" class="a"/><path d="m37.4 100.5c0.4 0.2 0.8 0.3 1.3 0.5 0.2 0.6 0.1 1.1-0.4 1.5-0.3 0.3-0.7 0.2-1-0.1-0.8-0.6 0.1-1.2-0.1-1.8l0.2-0.2" class="a"/><path d="m39.2 103.2c0.6-0.2 1.1-0.8 1.7-0.3 0.3 0.3 0.6 0.7 0.2 1.2-0.2 0.3-0.4 0.7-1 0.5-0.5-0.2-0.8-0.6-0.9-1.4" class="a"/><path d="m40.1 90c0.7 0.6 0.9 1.1 0.6 1.7-0.1 0.2-0.4 0.5-0.6 0.5-0.3 0-0.6-0.2-0.7-0.5-0.4-0.7-0.2-1.2 0.8-1.8" class="a"/><path d="m41.3 109.1c0.4-0.1 0.8-0.2 1.2-0.2 0.5 0.5 0.5 1 0.4 1.5-0.2 0.6-0.7 0.7-1.2 0.3-0.4-0.4-0.5-0.7-0.3-1.6" class="a"/><path d="m42.1 94.5c-0.3-0.2-0.6-0.4-0.8-0.5-0.1-1.4 0-1.6 1.3-1.4 0.4 1 0.4 1.1-0.4 1.9" class="a"/><path d="m39 93.1c0 0.9-0.6 1.2-1.4 1.3-0.1-0.2-0.3-0.5-0.3-0.8 0-0.3 0.1-0.6 0.3-0.8 0.3-0.4 0.8-0.3 1.5 0.3" class="a"/><path d="m41.5 90c-0.1-0.6-0.2-1.2 0.4-1.8 0.4 0.2 0.7 0.4 1.1 0.6 0 1.3-0.3 1.5-1.5 1.2" class="a"/><path d="m42.3 114.8c-0.4-0.1-0.7-0.1-1-0.2-0.1-0.9 0.1-1.3 0.6-1.5 0.4-0.1 0.8-0.1 1 0.3 0.4 0.7-0.3 0.9-0.6 1.4" class="a"/><path d="m46.2 65.8c-0.4-0.4-0.8-0.7-1.1-0.9 0.4-0.9 0.4-0.9 1.7-0.7 0.5 0.7-0.1 1.1-0.6 1.6" class="a"/><path d="m43.3 78.4c0.6 0 1.1 0.1 1.6 0.1 0.2 0.5 0.3 1-0.2 1.2-0.3 0.1-0.7 0.2-1 0.1-0.5-0.2-0.5-0.7-0.4-1.4" class="a"/><path d="m37 96.8c0.6 0.1 1.2 0.2 2 0.4-0.5 0.5-0.8 0.9-1.1 1.2-1.1-0.6-1.2-0.7-0.8-1.6" class="a"/><path d="m36.2 98.4c0.2 0.6 0.3 1.1 0.5 1.9-0.7-0.2-1.1-0.3-1.6-0.4-0.2-1-0.2-1 1.1-1.5" class="a"/><path d="m43 84.9c-0.1 0.3-0.2 0.6-0.4 1.1l-0.9-0.1c-0.2-1-0.1-1.4 0.3-1.6 0.3-0.1 0.4-0.1 0.9 0.6" class="a"/><path d="m46.9 69.1c-0.9 0.5-0.9 0.5-1.7-0.3 0.3-0.2 0.6-0.4 0.8-0.6 0.7-0.4 1-0.2 1 0.6 0 0.1 0 0.2-0.1 0.3" class="a"/><path d="m46.2 72c0.6 0.5 0.6 0.5 0.3 1.5-0.4 0.1-0.9 0.3-1-0.3-0.1-0.6 0.3-0.9 0.8-1.1" class="a"/><path d="m40.9 105.7c0.3-0.2 0.5-0.4 0.8-0.7 0.2 0.5 0.4 1 0.6 1.5-0.2 0.2-0.4 0.3-0.7 0.4-0.3-0.4-0.5-0.8-0.7-1.2" class="a"/><path d="m43.9 111.3c0.1 0.5 0.3 1 0.5 1.7-0.5-0.2-0.8-0.2-0.8-0.3-0.2-0.5-0.3-1 0.4-1.4" class="a"/><path d="m16.2 99.3c-0.1-0.7 0.6-1.3 1-1.3 0.5 0 1 0.6 1 1.2 0 0.7-0.4 1.3-1.1 1.3-0.6 0-0.9-0.4-0.9-1.2" class="a"/><path d="m15.9 92.5c-0.3 0.6 0 1.4-0.8 1.7-0.6 0-1-0.4-1.1-1 0-0.4 0-0.8 0.4-1.1 0.5-0.3 1-0.1 1.5 0.4" class="a"/><path d="m14.1 97.6c0.2-0.4 0.3-0.7 0.5-1 0.1-0.2 0.4-0.4 0.6-0.4 0.3 0 0.6 0.3 0.7 0.5 0.2 0.3 0.2 0.7 0.2 1-0.1 0.1-0.1 0.2-0.1 0.2-0.3 0.2-0.5 0.4-0.8 0.5-0.3-0.2-0.6-0.5-1-0.8" class="a"/><path d="m17.6 96c-0.4 0-0.7-0.1-1.1-0.1 0-0.5-0.1-0.9-0.2-1.4 0.5-0.3 1-0.7 1.6-0.2 0.4 0.3 0.3 0.9-0.3 1.8" class="a"/><path d="m16.7 106.4c0.5 0.2 0.9 0.5 1.4 0.7 0 0.9-0.9 0.8-1 1.5-1.2-0.8-1.2-1.2-0.3-2.2" class="a"/><path d="m16.1 101c-0.3 1.1-0.7 1.3-2 0.8 0-0.4 0.1-0.9 0.1-1.4 0.9-0.2 1.3 0.3 1.9 0.6" class="a"/><path d="m22.2 116.1c-0.8 0.7-1.3 0.8-1.8 0.3-0.3-0.4-0.2-1 0.6-1.7 0.6 0.3 1.2 0.6 1.2 1.4" class="a"/><path d="m12.3 106.7c0.6-0.2 1.2-0.3 1.6 0.4 0.2 0.4-0.1 0.8-0.4 1-0.3 0.3-0.6 0.4-1 0.2-0.4-0.2-0.5-0.7-0.2-1.7" class="a"/><path d="m16.1 112.1c0-1 0.5-1.4 1.3-1.2 0.5 0.1 0.8 0.5 0.7 0.9-0.1 0.5-0.6 0.8-1 0.7-0.1 0-0.3-0.1-0.4-0.1-0.2-0.1-0.4-0.2-0.5-0.3" class="a"/><path d="m20.1 113.2c0 0.6-0.1 1.2-0.7 1.6-1-0.3-1.3-0.6-1.1-1.1 0.2-0.6 0.8-0.8 1.8-0.5" class="a"/><path d="m14.4 84.1c1.4-0.3 1.6-0.1 1.4 1.3-0.3 0.2-0.6 0.5-1.1 0.3-0.6-0.4-0.3-1-0.3-1.6" class="a"/><path d="m19.8 118.4c-1.1 0.5-1.3 0.4-1.7-0.6 0.3-0.3 0.6-0.6 0.8-0.9 1 0.2 1 0.2 0.8 1.5" class="a"/><path d="m17 102.2c0.9 0.6 1.1 1.2 0.5 1.8-0.3 0.3-0.6 0.3-0.9 0-0.5-0.6-0.4-1.2 0.4-1.8" class="a"/><path d="m17.8 90.3c0.1 0.2 0.2 0.5 0.3 0.7-0.1 0.6-1.1 0.9-1.9 0.6 0.1-1.1 0.4-1.3 1.6-1.3" class="a"/><path d="m14.2 109.1c0.3-0.1 0.6-0.4 0.8-0.4 0.3 0 0.6 0.1 0.7 0.3 0.1 0.2 0.1 0.5 0 0.8-0.1 0.3-0.4 0.6-0.6 0.9-0.6-0.3-0.9-0.8-0.9-1.6" class="a"/><path d="m32.2 53.6c0.5 0.1 0.9 0.3 0.9 0.8 0.1 0.5-0.3 0.8-0.8 1-0.4-0.1-0.9-0.2-0.9-0.8 0-0.5 0.3-0.8 0.7-1" class="a"/><path d="m14.9 88c0.3 0.1 0.6 0.2 0.9 0.3 0.2 0.7 0 1-0.6 1.2-0.5 0.2-0.9 0.2-1.2-0.5 0.3-0.3 0.6-0.7 0.9-1.1" class="a"/><path d="m17 85.7c0.5 0.2 0.8 0.4 1.3 0.6-0.4 0.5-0.7 0.9-1.1 1.5-0.3-0.4-0.5-0.6-0.7-0.8 0.2-0.4 0.3-0.8 0.5-1.3" class="a"/><path d="m31.2 56.8c-0.5 0.7-1.1 0.4-1.7 0.4 0-0.4-0.1-0.7-0.1-1 1.1-0.4 1.2-0.4 1.8 0.6" class="a"/><path d="m18.8 108.8c0.5 0.2 0.9 0.3 1.5 0.5-0.4 0.4-0.7 0.8-1 1.1-0.1 0.1-0.5 0.1-0.6 0-0.2-0.2-0.3-0.5-0.3-0.8 0-0.3 0.3-0.5 0.5-0.8" class="a"/><path d="m15.8 104.7c0.2 0.9-0.1 1.3-0.8 1.5-0.3-0.3-1-0.5-0.7-1.1 0.3-0.8 1 0 1.6-0.4" class="a"/><path d="m20.4 120.1c-0.2-0.3-0.2-0.5 0.1-0.7 0.3-0.2 0.7-0.2 1.1 0.1-0.4 0.6-0.4 0.6-1.2 0.6" class="a"/><path d="m66.4 81.4c-0.2-0.2-0.5-0.3-0.6-0.6-0.3-1.3-0.8-2.6-0.1-3.9 0.3-0.5 0.4-1 1.1-0.7 0.1 0 0.4-0.2 0.5-0.3 1.2 0.1 1.5 1.1 2.3 1.9-0.3 0.8-0.6 1.6-1 2.4 0 0.1-0.2 0.3-0.3 0.3-0.8-0.2-1.2 0.5-1.8 0.9" class="a"/><path d="m72.8 77.9c-0.3-1.2-0.1-2.2 0.7-3 0.6-0.7 1.8-0.6 2.4 0 0.1 0.1 0.3 0.4 0.3 0.6 0 0.6 0 1.3-0.1 1.9-0.3 1.3-1.4 1.7-2.5 1-0.2-0.1-0.4-0.3-0.8-0.4" class="a"/><path d="m79.1 76.1c0.7-2 1.5-2.7 3.1-2.6 0.3 0.5 0.7 1 1 1.5-0.3 0.7-0.2 1.6-1 2-0.4 0.2-0.8 0.5-1.2 0.7-0.2 0.1-0.6 0-0.7-0.1-0.5-0.5-0.8-1-1.2-1.4" class="a"/><path d="m101.5 60.1c0.5-0.7 1.4-1.2 1.9-1 0.3 0.1 0.5 0.5 0.6 0.7 0.1 0.5-0.1 0.9-0.5 1.1-0.3 0.2-0.7 0.3-1 0.1-0.3-0.3-0.6-0.6-0.9-1" class="a"/><path d="m126.4 57.3c0 0.6-0.1 1.2-0.1 1.9-0.7-0.1-1.2-0.2-1.7-0.3-0.2-0.7-0.1-1.4 0.4-1.8 0.4-0.4 0.9-0.2 1.4 0.2" class="a"/><path d="m131.4 54.9c1.4 1 1.5 1.5 0.3 2.2-0.2-0.1-0.5-0.3-0.7-0.4-0.2-0.1-0.5-0.2-0.7-0.3 0.1-0.9 0.6-1.3 1.2-1.5" class="a"/><path d="m123.7 58.8c0 0.8 1.2 1 0.6 1.8-0.3 0.4-0.7 0.6-1.3 0.4-0.5-0.2-0.8-0.5-0.8-1.1 0-0.8 0.8-0.8 1.5-1.2" class="a"/><path d="m91.3 54.1c0.2-1 0.4-1.3 0.9-1.3 0.5 0 0.9 0.4 1 1 0.1 0.4 0.1 0.8-0.4 1-0.5 0.3-0.9 0.1-1.6-0.7" class="a"/><path d="m91 57c-0.5-0.1-1-0.3-1.5-0.4-0.1-0.9 0.2-1.5 0.9-1.8 1.1 0.5 1.3 1 0.6 2.3" class="a"/><path d="m107 59.1c0.5 0 1 0.4 1 1 0 0.5-0.6 1.1-1.2 1.1-0.6 0-0.9-0.4-0.9-1 0-0.7 0.5-1.1 1.1-1.1" class="a"/><path d="m89.4 59.7c0.6-0.6 1.2-0.3 1.8-0.3 0.7 1.1 0.6 1.5-0.5 2-0.7-0.3-1.1-0.8-1.3-1.7" class="a"/><path d="m103.7 67.4c-0.1 0.6-0.1 1.1-0.2 1.6 0 0.1-0.1 0.2-0.2 0.2-0.5 0.4-0.9 0-1.3-0.2-0.2-0.1-0.4-0.6-0.3-0.8 0.1-0.3 0.5-0.6 0.8-0.8 0.3-0.1 0.7 0 1.2 0" class="a"/><path d="m109.7 58.7c-1.1 0.4-1.5 0.4-1.8-0.1-0.2-0.4-0.2-0.8 0.2-1.1 0.3-0.3 1.1-0.5 1.5-0.3 0.4 0.2 0.4 0.5 0.2 1.5" class="a"/><path d="m98.7 67.4c0.5 0 0.9 0.5 0.9 1.1 0 0.6-0.4 1-0.8 0.9-0.6 0-1.2-0.6-1.2-1 0-0.6 0.6-1 1.2-1" class="a"/><path d="m130.4 58.1c0 0.6-0.3 0.9-1 0.9-0.6 0-1-0.4-0.9-1 0-0.6 0.6-1 1.1-1 0.6 0 0.8 0.4 0.8 1.1" class="a"/><path d="m126.7 57c0.1-0.8-0.5-1.5 0.2-1.9 0.3-0.2 0.8-0.1 1.1 0 0.6 0.3 0.3 1 0.3 1.5-0.5 0.1-1 0.2-1.7 0.4" class="a"/><path d="m100.8 63.3c-0.4-0.2-0.8-0.4-1.4-0.7 0.2-0.5 0.3-0.9 0.4-1.3 0.8-0.2 1.4-0.1 1.7 0.6 0.3 0.6-0.2 1-0.7 1.4" class="a"/><path d="m108.1 54.9c-0.1-0.5-0.1-1.1-0.2-1.6 0.7-0.1 1.1-0.6 1.7-0.1 0.3 0.3 0.5 0.6 0.2 1.1-0.3 0.7-0.9 0.8-1.8 0.7" class="a"/><path d="m105.7 57.5c0 1-0.1 1.3-0.7 1.5-0.4 0.1-0.8 0.1-1.1-0.3-0.3-0.5-0.3-1 0-1.3 0.4-0.4 0.8-0.3 1.7 0.2" class="a"/><path d="m97.6 58.7c-0.4 0.2-0.7 0.4-1 0.5-1-0.7-1.2-1.1-0.8-1.7 0.4-0.6 0.7-0.6 1.7 0.1 0 0.3 0.1 0.6 0.1 1.1" class="a"/><path d="m99.8 54.5c-0.1-1.2 0-1.3 0.6-1.5 0.4-0.2 0.9-0.2 1.1 0.2 0.2 0.4 0.2 1 0 1.5-0.1 0.4-0.5 0.3-1.6-0.2" class="a"/><path d="m103.6 62.2c0.3-0.8 0.8-1.2 1.6-1 0.5 0.6 0.5 1.2 0.1 1.9-0.8 0.1-1.3-0.3-1.7-0.9" class="a"/><path d="m103.9 67.2c0-0.4-0.1-0.6-0.1-0.9 0-0.4 0.2-0.8 0.6-1 0.5-0.1 1 0.1 1.3 0.5 0.3 0.4 0 1.1-0.5 1.2-0.1 0-0.1 0-0.2 0-0.3 0-0.6 0-1.1 0.1" class="a"/><path d="m125.7 54.9c-0.3-0.1-0.6-0.2-1-0.3 0-0.3-0.1-0.7 0-1 0.2-0.6 0.8-0.7 1.4-0.8 0.6 1 0.6 1.1-0.4 2.2" class="a"/><path d="m99.5 65.5c0.6 0 1-0.1 1.4 0 0.5 0.1 0.8 0.4 0.8 0.9 0 0.4-0.2 0.7-0.6 0.8-0.4 0.1-0.9 0.1-1.2-0.3-0.2-0.3-0.3-0.7-0.5-1.4" class="a"/><path d="m99.8 70.1c0.4-0.3 0.8-0.6 1.1-0.8 0.7 0.4 1 1 0.8 1.4-0.1 0.3-0.8 0.8-1.2 0.7-0.6-0.2-0.5-0.8-0.7-1.3" class="a"/><path d="m107.8 56c0 0.6-0.4 1-0.9 1-0.6 0-1-0.6-1-1.2 0-0.4 0.4-0.7 1-0.7 0.7 0 1 0.3 1 0.9" class="a"/><path d="m130.9 51.1c0.6-0.1 1.2-0.3 1.6 0.3 0.3 0.4 0.4 0.9 0 1.3-1.8-0.1-2-0.3-1.6-1.5" class="a"/><path d="m132.7 60.3c-0.7 0.7-1.4 0.9-1.8 0.5-0.2-0.2-0.3-0.5-0.2-0.7 0.1-0.6 0.5-0.9 1-0.9 0.7 0 0.9 0.5 1 1.1" class="a"/><path d="m128.2 59.6c0.2 0.8 0.1 1.3-0.7 1.7-0.3-0.2-0.6-0.4-0.8-0.7-0.3-0.3-0.4-0.7-0.2-1 0.2-0.4 0.6-0.5 1.1-0.3 0.2 0.1 0.4 0.2 0.6 0.3" class="a"/><path d="m126.4 52.4c0.1-1.3 0.1-1.3 1.9-1.5 0.1 0.3 0.1 0.6 0.2 0.9-0.3 0.2-0.5 0.3-0.7 0.4-0.1 0.1-0.2 0.4-0.4 0.6-0.4-0.2-0.8-0.3-1.1-0.5" class="a"/><path d="m122 57.1c0 0.2 0.1 0.3 0.1 0.5 0.1 0.3 0.4 0.8 0 1-0.4 0.2-0.9 0.2-1.4 0.1-0.4-0.1-0.5-0.4-0.3-0.9 0.3-0.7 0.7-0.9 1.7-0.7" class="a"/><path d="m96.5 60.9c0.4 0.4 0.8 0.7 1.2 1-0.1 0.9-0.5 1.1-1.7 0.9-0.3-1.1-0.3-1.2 0.5-1.9" class="a"/><path d="m102.7 65.4c-1-0.5-1.1-0.8-1-1.5 0.1-0.4 0.5-0.8 0.9-0.8 0.5 0 0.6 0.4 0.7 0.7 0.1 0.6 0.2 1.2-0.6 1.5" class="a"/><path d="m118.6 63.4h1.4c0.1 0.4 0.2 0.7 0.3 1.1-0.4 0.2-0.8 0.4-1.1 0.6-1.1-0.4-1.2-0.7-0.6-1.7" class="a"/><path d="m121.4 63.2c-0.8-0.2-1.1-0.5-1-1 0.1-0.5 0.4-1 0.8-1 0.4-0.1 0.7 0.2 0.9 0.6 0.3 0.5 0.2 0.8-0.6 1.5" class="a"/><path d="m101.8 58.2c-0.4 0.5-0.8 1-1.5 0.7-0.5-0.2-0.6-0.7-0.5-1.1 0.1-0.3 0.5-0.5 0.8-0.6 0.5-0.2 0.8 0.2 1.2 1" class="a"/><path d="m103.9 55.8c-0.4 0.9-1 1.1-1.7 0.9-0.4-0.2-0.5-0.6-0.3-1.4 0.8-0.2 1.5-0.3 2 0.6" class="a"/><path d="m95.2 57c-0.4-0.1-0.9-0.3-1.2-0.4-0.1-0.6-0.3-1.2 0.3-1.6 0.3-0.2 0.6-0.1 0.9 0.1 0.5 0.4 0.5 0.9 0 1.8" class="a"/><path d="m97.8 64.7c-0.2-0.5-0.3-0.9 0.1-1.3 0.4-0.3 0.7-0.3 1.1 0 0.6 0.3 0.6 0.8 0.5 1.4-0.6 0.5-1.1 0.1-1.7-0.1" class="a"/><path d="m111.9 54c0.2-0.4 0.4-0.7 0.7-1.2 0.4 0.1 0.8 0.3 1.1 0.4 0.2 0.9 0.1 1.5-0.4 1.9-0.4-0.5-0.7-0.8-1-1.2-0.1 0-0.2 0.1-0.3 0.1" class="a"/><path d="m123.2 63.1c0.4 0 1 0.6 1 1 0 0.3-0.7 1-1 1-0.4 0-0.8-0.5-0.8-1.1 0-0.4 0.4-0.9 0.8-0.9" class="a"/><path d="m125.3 50.8c-0.5-0.2-1-0.4-0.8-0.9 0.1-0.3 0.4-0.7 0.7-0.9 0.3-0.1 0.7 0 1 0.2 0.3 0.3 0.2 0.7-0.1 1-0.2 0.2-0.5 0.4-0.8 0.7" class="a"/><path d="m117.9 65.5c0.2 0.9 0.2 0.9-0.2 1.6-0.6 0.1-1-0.2-1.3-0.7-0.4-0.6 0-1.1 0.7-1.1 0.3 0 0.6 0.1 0.9 0.2" class="a"/><path d="m120 56.1c0 0.7-0.2 0.9-0.8 0.9-0.5 0-1-0.7-1-1.2 0-0.6 0.4-0.6 0.8-0.6 0.8 0 1 0.2 1 0.9" class="a"/><path d="m129.5 55c-1.2-0.6-1.2-1 0-2 0.5 0.1 0.9 0.3 0.9 0.9 0 0.6-0.3 0.9-1 1.1" class="a"/><path d="m116.4 53.1c0.6 0.1 1.3-0.3 1.6 0.4 0.2 0.3-0.1 0.8-0.1 1.1-0.8 0.3-1.4 0.1-1.9-0.6 0.1-0.3 0.3-0.6 0.4-0.9" class="a"/><path d="m119.3 53.1c-0.4-0.4-0.8-0.7-1.2-1 0.2-0.4 0.3-0.7 0.5-1 0.7-0.1 1.1 0.2 1.4 0.7 0.2 0.5-0.1 0.8-0.6 1.3" class="a"/><path d="m112 51.8c0 0.5-0.4 0.9-0.8 1-0.5 0-1-0.5-1-1 0-0.5 0.6-0.9 1.1-0.9 0.5 0 0.8 0.4 0.8 0.9" class="a"/><path d="m97 69.2c0.3 0.5 0.6 0.8 0.9 1.2-0.5 0.4-0.9 0.7-1.4 1.1-0.2-0.5-0.4-0.9-0.7-1.4 0.4-0.3 0.8-0.6 1.3-0.9" class="a"/><path d="m110.7 65.5c-0.3-0.2-0.6-0.4-0.9-0.5 0.2-0.5 0.3-0.9 0.4-1.3 0.6-0.1 1.3-0.1 1.5 0.5 0.3 0.8-0.6 0.9-1.1 1.3" class="a"/><path d="m103.7 51.1c-0.2 0.7-0.3 1.1-0.5 1.7-0.4-0.1-0.8-0.3-1.2-0.4 0-0.5-0.4-1.1 0.2-1.4 0.3-0.2 0.9 0 1.5 0.1" class="a"/><path d="m111.8 69.1c-0.6 0-1.2 0-1.5-0.6-0.3-0.6 0.2-1 0.6-1.4 1 0.6 1.2 0.9 0.9 1.9" class="a"/><path d="m126 62.9c-0.7 0-1.3 0-1.8-0.7 0.4-0.4 0.8-0.7 1.1-1 1 0.3 1.1 0.5 0.7 1.8" class="a"/><path d="m106 64.9c-0.2-1-0.2-1 1-1.7 0.5 0.1 0.9 0.4 0.8 1-0.1 0.6-0.7 0.8-1.7 0.7" class="a"/><path d="m110.3 59.2c1.1-0.1 1.8 0.3 1.8 0.9 0 0.6-0.4 0.7-1.8 0.6v-1.5" class="a"/><path d="m116.1 62c0.2-0.3 0.4-0.6 0.6-0.9 0.6 0.3 1.4 0.3 1.4 1.1 0 0.6-0.5 0.9-1.1 1-0.2-0.3-0.5-0.7-0.8-1.2" class="a"/><path d="m116.7 50.7c-0.1-0.6-0.5-1.2 0.1-1.7 0.3-0.2 0.7-0.1 1 0.2 0.2 0.2 0.4 0.6 0.3 0.8-0.3 0.6-0.7 0.9-1.5 0.7" class="a"/><path d="m107.1 50.8c0.4 0.5 1.1 0.8 0.7 1.7-0.4 0-0.9 0-1.4-0.1-0.2-0.1-0.5-0.4-0.5-0.6 0-0.2 0.2-0.4 0.4-0.6 0.2-0.2 0.5-0.3 0.8-0.4" class="a"/><path d="m110.6 56.8c-0.6-0.4-0.8-0.9-0.6-1.5 1.2-0.4 1.7-0.2 1.9 0.8-0.5 0.2-0.9 0.4-1.3 0.6" class="a"/><path d="m94.3 63.3c0.4 0.2 0.7 0.2 1 0.3 0.1 0.6 0.2 1.2-0.4 1.4-0.6 0.3-1-0.1-1.5-0.7 0.3-0.4 0.6-0.7 1-1.1" class="a"/><path d="m111.7 62.4c0.3-0.8 0.6-1.2 1.4-1.2 0.2 0.2 0.4 0.5 0.7 0.9-0.2 0.3-0.4 0.6-0.7 1-0.5-0.3-1-0.5-1.4-0.7" class="a"/><path d="m108.8 63.5c-0.4-0.5-0.7-1-1-1.4 0.7-0.8 1.2-0.9 1.7-0.5 0.4 0.4 0.2 1-0.7 1.9" class="a"/><path d="m106 67.6c0.4 0 0.8 0 1.1 0 0.4 0 0.7 0.2 0.7 0.6 0 0.4-0.1 0.7-0.5 0.8-0.2 0.1-0.5 0.1-0.8 0.2-0.7-0.3-0.6-0.9-0.5-1.6" class="a"/><path d="m115.6 55c0.1 0.7 0.2 1.3 0.3 2.1-0.7-0.2-1.1-0.4-1.6-0.5-0.1-1.1 0-1.3 1.3-1.6" class="a"/><path d="m95 67.4c0.1 0.3 0.3 0.6 0.4 0.8-0.4 0.5-0.6 1.3-1.6 0.9-0.3-1.1-0.2-1.3 1.2-1.8" class="a"/><path d="m122.7 56.7c0-0.5 0-0.9 0-1.3 0.1-0.4 0.4-0.6 0.8-0.4 0.4 0.2 0.9 0.3 0.8 0.9-0.1 0.6-0.5 0.8-1 0.8-0.1 0-0.3 0-0.6 0" class="a"/><path d="m98.6 59.1c1 0.6 1.1 1 0.2 2-1.3-0.4-1.4-0.9-0.2-2" class="a"/><path d="m116.7 57.3c0.8-0.2 1.2-0.1 1.4 0.4 0.1 0.2 0.1 0.6-0.1 0.8-0.3 0.2-0.7 0.4-1 0.4-0.4 0-0.4-0.4-0.3-1.6" class="a"/><path d="m92.1 63.2c-0.5-0.7 0.2-1.3-0.1-2 0.9 0.1 1.3 0.5 1.6 1-0.1 0.9-0.9 0.7-1.5 1" class="a"/><path d="m134.6 53.4c0.1 0.7-0.2 1.1-0.9 1.3-0.1 0-0.1 0-0.2-0.1-0.7-0.6-0.8-1.1-0.5-1.5 0.3-0.4 0.8-0.3 1.7 0.3l0 0" class="a"/><path d="m113.5 58.9h-0.8c-0.4-0.4-0.3-1.7 0.1-1.9 0.4-0.2 0.7 0 0.9 0.3 0.4 0.5 0.3 1-0.1 1.6" class="a"/><path d="m99.1 55.2c0.3 0.5 0.3 0.9 0.1 1.4-0.2 0.5-0.8 0.5-1 0.1-0.2-0.4-0.3-0.9-0.5-1.4h1.4" class="a"/><path d="m114.3 51.2h1.4c0.1 0.5 0.1 0.9 0.2 1.3-1.5 0.3-1.7 0.2-1.5-1.3" class="a"/><path d="m97.3 67c-0.9 0.2-1.4-0.1-1.7-0.8 0.2-0.2 0.4-0.4 0.7-0.6 0.2-0.1 0.6-0.3 0.7-0.3 0.2 0.1 0.3 0.4 0.4 0.7 0.1 0.3 0 0.6 0 0.9" class="a"/><path d="m122.7 52.4c-0.1-0.7-0.3-1.3 0.7-1.8 0.2 0.3 0.5 0.7 0.8 1.1-0.4 0.9-0.4 0.9-1.5 0.7" class="a"/><path d="m118.2 60c0.5-0.3 0.8-0.9 1.4-0.6 0.4 0.2 0.5 0.6 0.4 0.9-0.1 0.2-0.4 0.5-0.7 0.6-0.6 0.2-0.9-0.2-1.1-0.9" class="a"/><path d="m93 57.1c0.1 0.6 0.2 1 0.2 1.4-1.2 0.5-1.6 0.1-1.5-1.2 0.4-0.1 0.8-0.1 1.3-0.2" class="a"/><path d="m115.8 59.5c0.1 0.7 0.2 1.3-0.3 1.8-0.9-0.3-1.1-0.5-1-1.2 0.1-0.6 0.3-0.7 1.4-0.5" class="a"/><path d="m109.2 67c-0.6 0-1-0.4-0.9-0.9 0.1-0.4 0.2-0.7 0.7-0.7 0.5 0 1 0.4 1 0.8 0 0.5-0.3 0.8-0.8 0.8" class="a"/><path d="m113.2 50.8c-0.3-0.2-0.7-0.3-1-0.5 0.2-1.1 0.3-1.2 1.3-1.3 0.6 0.9 0.6 1-0.2 1.7" class="a"/><path d="m108.2 71.1c0.1-0.5 0.1-1 0.2-1.4 1-0.2 1-0.2 1.4 0.6-0.5 0.9-0.5 0.9-1.6 0.7" class="a"/><path d="m130.2 50.5c-0.5-0.1-0.9-0.2-1.2-0.4-0.1 0-0.2-0.1-0.4-0.2 0-0.6 0.4-1 0.9-1 0.3 0 0.7 0.3 0.8 0.6 0.1 0.2-0.1 0.6-0.1 1" class="a"/><path d="m96.3 54.6c-0.6-0.5-0.6-1-0.2-1.4 0.2-0.2 0.6-0.2 0.9-0.2 0.5 0.2 0.5 0.6 0.3 1.2-0.3 0.1-0.7 0.3-1 0.4" class="a"/><path d="m105.4 53.2c0.3 0.6 0.2 1.1-0.3 1.4-0.3 0.2-0.7 0.1-0.8-0.2-0.1-0.3-0.3-0.6-0.2-0.9 0.3-0.6 0.8-0.5 1.4-0.3" class="a"/><path d="m122.4 66.9c-0.5 0-0.9 0.1-1.3 0.1-0.3-0.1-0.6-0.4-0.6-0.6 0-0.2 0.3-0.6 0.6-0.7 0.3-0.2 0.7-0.1 0.9 0.3 0.1 0.2 0.2 0.5 0.4 1" class="a"/><path d="m114.6 68.9c-0.5-0.9-0.5-1.1 0.3-1.7 0.3 0.3 0.9 0.4 0.9 1-0.1 0.6-0.7 0.6-1.1 0.8" class="a"/><path d="m122 49.2c0.1 0.2 0.1 0.4 0.1 0.6 0 0.1 0 0.2 0 0.4-0.5 0.1-0.9 0.2-1.4 0.2-0.2-0.4-0.6-0.8-0.2-1.3 0.4-0.4 0.9-0.1 1.4 0.1" class="a"/><path d="m121 54.7c-0.1-0.2-0.4-0.4-0.5-0.7-0.1-0.4 0.5-0.9 1-0.9 0.4 0 0.6 0.2 0.6 0.6 0 0.4-0.5 1-1.1 1" class="a"/><path d="m133.8 58.9c-0.4 0-0.9-0.5-0.9-0.8 0-0.4 0.4-0.8 0.8-0.7 0.4 0 0.9 0.5 0.9 0.8 0 0.4-0.4 0.7-0.8 0.7" class="a"/><path d="m115.9 64.9c-0.6 0.2-1.1 0.3-1.4-0.3-0.1-0.2 0-0.6 0.2-0.8 0.2-0.2 0.6-0.2 0.8-0.2 0.5 0.2 0.7 0.6 0.4 1.2" class="a"/><path d="m87.3 53.7c0.4-0.2 0.7-0.4 1.1-0.7 0.3 0.2 0.6 0.4 0.9 0.7-1 1.1-1.4 1.1-2.1 0" class="a"/><path d="m112.5 67c-0.1-0.6-0.3-1.2 0.3-1.6 0.5 0.4 1.1 0.6 1.1 1.5-0.5 0-0.9 0-1.4 0.1" class="a"/><path d="m105.5 71c-0.8 0.2-0.9-0.4-1.3-0.8 0.2-0.3 0.4-0.5 0.6-0.9 0.4 0.3 0.6 0.5 1 0.7-0.1 0.3-0.2 0.7-0.3 1" class="a"/><path d="m94 59.4h1.3c0 0.4 0 0.8 0.1 1.2-1.3 0.2-1.6-0.1-1.3-1.2" class="a"/><path d="m129.5 63.2c-0.5-0.3-0.8-0.6-0.5-1.1 0.2-0.4 0.7-0.5 1.5-0.3 0.3 0.9-1 0.7-0.9 1.4" class="a"/><path d="m20.4 52.2c-0.1 0.6-0.2 1-0.2 1.5-1.6 0.4-1.6 0.4-2.1-0.8 0.1-0.1 0.3-0.3 0.4-0.4 0.1-0.2 0.3-0.3 0.4-0.6 0.2 0.1 0.4 0.1 0.6 0.2 0.2 0 0.4 0.1 0.9 0.2" class="a"/><path d="m8.6 27.4c-0.8-0.3-0.7-0.9-0.7-1.5 0.1-0.6 0.6-0.8 1-1 0.9 0.3 0.7 1.1 1 1.7-0.5 0.3-0.9 0.5-1.3 0.7" class="a"/><path d="m20.4 36.4c-0.3 0.3-0.5 0.7-0.8 0.9-0.3 0.2-0.8 0.2-1 0.1-0.3-0.2-0.5-0.6-0.6-1-0.1-0.4 0.2-0.7 0.7-0.7 0.7-0.1 1.3 0.1 1.8 0.7" class="a"/><path d="m15.4 23c0.5 0.7 0.7 1.2 0.3 1.9-0.4 0.5-0.9 0.3-1.4 0.3v-1.7c0.4-0.1 0.7-0.3 1.2-0.4" class="a"/><path d="m11.4 37.6c-0.5-0.5-0.9-0.8-1.4-1.3 0.3-0.3 0.6-0.7 0.9-1.1 0.6 0.1 1 0.4 1 1 0 0.6 0.1 1.2-0.5 1.4" class="a"/><path d="m18 57.1c0.3-0.9 0.6-1.1 1.4-1 0.4 0 0.6 0.2 0.7 0.6 0.1 0.5-0.1 1.1-0.5 1.2-0.8 0.3-1.1-0.4-1.6-0.8" class="a"/><path d="m17.1 39.7c-1.3-1-1.2-1.7 0.2-2.4 0.3 0.3 0.6 0.6 0.9 1-0.4 0.5-0.7 0.9-1.1 1.4" class="a"/><path d="m19.1 27.2c0.6 0 1 0.4 1 0.8 0 0.6-0.6 1.3-1.1 1.2-0.4 0-0.8-0.6-0.8-1.2 0-0.6 0.4-0.9 0.9-0.9" class="a"/><path d="m17 33.4c0.3 0.1 0.5 0.3 0.8 0.4 0.2 1.3 0.1 1.5-0.5 1.7-0.5 0.1-0.9-0.1-1.2-0.5-0.3-0.4-0.1-0.7 0.9-1.5" class="a"/><path d="m7.9 34.2c0.6-0.5 1.2-0.8 1.9-0.5 0.4 1.8-0.2 2-1.5 1.6-0.1-0.3-0.2-0.7-0.4-1.1" class="a"/><path d="m34.5 17.6c-0.3 1-0.6 1.4-1.2 1.4-0.4 0-0.6-0.3-0.6-0.6-0.1-0.7 0-1.2 0.4-1.3 0.6-0.2 1.1 0.1 1.4 0.6" class="a"/><path d="m25.9 21c0.2 0.6 0.3 1.1 0.5 1.7-0.6 0-1.1 0.1-1.5 0-0.2 0-0.5-0.3-0.6-0.5 0-0.2 0.1-0.6 0.3-0.7 0.3-0.2 0.7-0.3 1.2-0.5" class="a"/><path d="m12.7 39.6c-1-1-1-1.3-0.1-2.2 0.3 0.2 0.7 0.5 1 0.7 0.1 1.1 0.1 1.1-0.9 1.5" class="a"/><path d="m16.5 25.3h1.2c0.1 0.3 0.3 0.6 0.4 0.9-0.1 0.2-0.3 0.4-0.4 0.4-0.4 0.1-0.8 0.7-1.3 0.2-0.4-0.4-0.2-0.9 0.1-1.5" class="a"/><path d="m29.3 16.8c0.9 0.5 1.2 1 0.8 1.7-0.1 0.2-0.4 0.5-0.7 0.5-0.2 0-0.5-0.2-0.7-0.4-0.4-0.7-0.3-1.1 0.5-1.7" class="a"/><path d="m20.6 40.7c-0.8 0.3-1.3 0.5-1.8 0.7-0.2-0.2-0.4-0.4-0.5-0.7-0.1-0.2-0.1-0.6 0.1-0.8 0.2-0.2 0.6-0.4 0.9-0.3 0.5 0.2 0.8 0.6 1.4 1" class="a"/><path d="m15.5 29c-0.6 0-1.2 0.2-1.4-0.4-0.1-0.3 0.1-0.9 0.3-1.2 0.4-0.5 0.8-0.2 1.3 0.2-0.1 0.4-0.1 0.9-0.2 1.4" class="a"/><path d="m8.3 23c-0.1-0.3-0.2-0.6-0.3-0.9 0.2-0.2 0.4-0.5 0.6-0.8 1 0.1 1.3 0.3 1.3 0.8 0 0.5-0.6 0.9-1.6 0.9" class="a"/><path d="m13.1 64.4c-0.4-0.4-0.7-0.7-0.9-1-0.1-0.3-0.1-0.8 0-0.9 0.2-0.2 0.7-0.2 1-0.1 0.4 0.1 0.7 0.4 0.5 0.8-0.1 0.4-0.4 0.7-0.7 1.2" class="a"/><path d="m15.9 32.5c-0.6 0.8-0.7 0.8-1.7 0.3 0-0.5-0.2-1.1 0.4-1.4 0.4-0.2 0.7 0 1.2 1.1" class="a"/><path d="m20.4 54.1c0.5 0 0.8 0 1.1 0.1 0.1 0.4 0.2 0.7 0.2 1 0 0.5-0.2 0.8-0.6 0.9-0.5 0.1-0.8-0.2-0.9-0.6 0-0.4 0.1-0.8 0.1-1.3" class="a"/><path d="m20.1 18.2c0.8-1.2 0.9-1.2 2-0.5-0.1 0.3-0.2 0.6-0.3 0.9-1.1 0.3-1.2 0.3-1.7-0.4" class="a"/><path d="m18.8 47.8c0.3 0.1 0.6 0.2 0.8 0.3 0.3 0.5 0.1 1.3-0.3 1.4-0.3 0.2-0.7 0.2-1-0.1-0.4-0.5-0.3-0.9 0.5-1.6" class="a"/><path d="m28.9 20.9c1.3 0.1 1.5 0.5 1 1.5-0.2 0.3-0.4 0.7-0.8 0.4-0.3-0.2-0.4-0.7-0.4-1 0-0.3 0.2-0.6 0.3-1" class="a"/><path d="m23.8 20.5c-0.6 0.1-1.2 0.2-1.4-0.5-0.1-0.4 0.1-0.7 0.4-0.9 0.3-0.2 0.7-0.3 1 0 0.4 0.4 0.5 0.9 0 1.4" class="a"/><path d="m17.9 18.5c-1.1 0.6-1.4 0.5-1.8-0.5 0.4-0.6 1.1-0.5 1.7-0.7 0 0.5 0 0.9 0.1 1.3" class="a"/><path d="m24.4 18.6c-0.2-1.1-0.2-1.1 0.5-1.7 0.4 0.3 0.8 0.6 1.2 0.8-0.6 1.2-0.6 1.2-1.7 0.9" class="a"/><path d="m10.2 28.9c-0.4-0.6-0.3-1.1 0.1-1.4 0.3-0.2 0.8-0.1 1.1 0 0.2 0.1 0.2 0.6 0.1 0.9-0.2 0.7-0.8 0.6-1.4 0.5" class="a"/><path d="m12.4 25.3c0.6 0.1 1.1 0.2 1.6 0.3-0.5 1.1-0.9 1.4-1.5 1.2-0.5-0.2-0.5-0.4-0.1-1.5" class="a"/><path d="m11.8 34.3c0.2-0.3 0.3-0.6 0.5-0.9 0.5 0.2 0.9 0.3 1.4 0.5 0 0.5-0.2 1-0.6 1.1-0.5 0.2-0.9-0.1-1.2-0.7" class="a"/><path d="m16.8 29.4c0.4 0.1 0.7 0.2 1 0.2 0.1 1.1-0.1 1.4-1.3 1.3-0.6-0.8-0.6-0.8 0.3-1.6" class="a"/><path d="m11.7 32.2c-0.6 0.7-0.6 0.7-1.6 0.9 0-0.4-0.1-0.8-0.1-1.2 1.1-0.5 1.2-0.5 1.8 0.3" class="a"/><path d="m14 36.7c0.2-1 0.7-1.3 1.4-1.1 0.4 0.1 0.6 0.5 0.3 0.9-0.3 0.6-0.8 0.6-1.8 0.2" class="a"/><path d="m27.6 18.8c0.3 0.2 0.5 0.5 0.8 0.7-0.2 0.4-0.4 0.8-0.6 1.2-0.5 0-0.9-0.1-0.9-0.6-0.1-0.5 0-1 0.8-1.3" class="a"/><path d="m31.4 19.2c0.6 0 1 0.2 1 0.6 0 0.4-0.3 0.7-0.8 0.7-0.6 0-1.1-0.3-1.1-0.7 0-0.5 0.4-0.6 0.9-0.6" class="a"/><path d="m19.7 45.4c-1.4-0.2-1.5-0.4-1.3-1.5 0.3 0 0.6 0 0.9-0.1 0.4 0.5 0.9 0.9 0.4 1.6" class="a"/><path d="m8 37.9h1.4c0.3 0.3 0.4 0.8 0.1 1.1-0.2 0.2-0.6 0.3-0.9 0.2-0.5-0.2-0.7-0.6-0.6-1.2" class="a"/><path d="m19.9 32.7c-0.4 0.2-0.8 0.4-1.1 0.6-0.5-0.1-0.7-0.5-0.5-1 0.1-0.3 0.5-0.7 0.7-0.7 0.6 0 0.8 0.5 0.9 1.1" class="a"/><path d="m35.5 16.7c-0.5-0.4-0.7-0.9-0.4-1.4 0.1-0.2 0.6-0.3 0.8-0.2 0.4 0.1 0.9 0.3 0.8 0.9-0.1 0.7-0.7 0.5-1.1 0.7" class="a"/><path d="m13.6 31.1c-0.8 0.2-0.9-0.4-1.1-0.8-0.2-0.4-0.2-0.4 0.3-1.1 0.3 0.1 0.7 0.3 1 0.5-0.1 0.6-0.2 1-0.3 1.4" class="a"/><path d="m34.3 22.7c-0.6 0.2-1 0.1-1.3-0.4-0.2-0.4 0-0.7 0.3-0.8 0.3-0.1 0.8-0.1 1 0 0.4 0.3 0.3 0.8 0 1.2" class="a"/><path d="m21.7 43.4c-0.8-0.1-1.2-0.4-1.2-1 0-0.6 0.3-0.9 0.9-1 0.5 0.6 0.3 1.3 0.3 2" class="a"/><path d="m7.7 30.3c0.2-0.7 0.7-0.7 1.2-1 0.3 0.5 0.5 0.9 0.8 1.5-0.9 0.1-1.5 0-2-0.5" class="a"/><path d="m10.6 23.3c0.5 0.1 1 0 1.1 0.7-0.2 0.2-0.4 0.5-0.6 0.7-0.8-0.3-0.8-0.3-0.5-1.4" class="a"/><path d="m21.2 33.4c0.2 0.6 0.3 0.9 0.4 1.4-0.4 0-0.8 0-1.1-0.1-0.1-0.1-0.3-0.5-0.2-0.6 0.1-0.2 0.5-0.3 0.8-0.6" class="a"/><path d="m40.3 29.8c0.6-0.7 1.3-0.2 2-0.4 0.3 0.6 0.6 1.2 0.1 1.6-0.5 0.4-1.1 0.3-1.7 0-0.1-0.4-0.2-0.8-0.3-1.3" class="a"/><path d="m42.8 16.5c-0.2-0.4-0.3-0.9-0.6-1.5 0.8 0 1.4-0.6 1.9 0 0.3 0.3 0.6 0.8 0.3 1.3-0.2 0.4-0.4 0.4-1.6 0.3" class="a"/><path d="m45.9 12.4c0.7 1.3 0.7 1.9 0.2 2.1-0.6 0.3-1.1 0-1.5-0.9 0.4-0.4 0.9-0.7 1.4-1.2" class="a"/><path d="m43.9 37.4c-0.7 0-1-0.5-1.1-1.1-0.1-0.4 0.1-0.6 0.8-1.1 1.4 0.8 1.4 1.2 0.4 2.2" class="a"/><path d="m41.9 27.4c-0.5-0.4-0.9-0.6-1.4-1 0.1-0.4 0.2-0.8 0.4-1.1 0.8-0.3 1.3 0.1 1.7 0.7-0.2 0.4-0.4 0.8-0.6 1.3" class="a"/><path d="m40.8 34.9c0-0.5-0.6-1 0.1-1.4 0.4-0.3 1-0.1 1.4 0.4 0.3 0.3 0.5 0.6 0.2 1-0.3 0.4-0.7 0.5-1.7 0.1" class="a"/><path d="m43.9 39.2c0.8 0.5 0.6 1.2 0.5 2-0.4 0-0.8 0.1-1.1 0.1-0.6-1-0.6-1.2 0.7-2" class="a"/><path d="m57.3 6.1c-0.4-0.7-0.4-1.1 0.1-1.4 0.6-0.3 0.9-0.3 1.3 0.1 0.2 0.2 0.3 0.6 0.2 0.9 0 0.2-0.4 0.3-0.7 0.4-0.3 0.1-0.6 0-0.9 0" class="a"/><path d="m42.2 22.5c-0.5 0-1.2 0.4-1.5-0.3-0.1-0.2 0-0.7 0.1-0.9 0.3-0.2 0.7-0.2 1-0.1 0.5 0.1 0.5 0.5 0.4 1.3" class="a"/><path d="m42.8 18.9c0.7 0.2 1.1 0.4 1.6 0.6-0.1 0.4-0.2 0.8-0.3 1.3-0.5 0-0.9-0.1-1.3-0.1v-1.7" class="a"/><path d="m44.1 27.2c0 0.4 0 0.8 0 1.2-0.1 0.5-0.4 0.7-0.9 0.5-0.5-0.2-0.7-0.6-0.6-1 0.2-0.6 0.8-0.7 1.5-0.7" class="a"/><path d="m43.3 23c0.4 0.1 0.8 0.1 1 0.3 0.4 0.4 0.2 0.9-0.1 1.3-1.3 0.3-1.4 0.1-0.9-1.6" class="a"/><path d="m48.4 10.9v1.3c-0.2 0.1-0.5 0.2-0.8 0.4-0.2-0.4-0.5-0.8-0.7-1.2 0.4-0.6 0.8-0.7 1.5-0.4" class="a"/><path d="m49.1 8.8c1-0.1 1.4 0 1.5 0.6 0 0.4-0.2 0.7-0.6 0.8-0.7 0-0.9-0.3-0.9-1.3" class="a"/><path d="m43.8 31.2c0.1 0.6 0.3 0.9 0.2 1.2 0 0.2-0.2 0.7-0.4 0.7-0.3 0-0.7-0.2-0.8-0.4-0.1-0.2 0-0.7 0.1-0.9 0.1-0.2 0.5-0.3 0.8-0.6" class="a"/><path d="m46.2 17.4c-0.4 0.6-0.3 1.4-1.3 1.5 0.1-0.6 0.1-1.2 0.2-1.9 0.4 0.2 0.7 0.3 1.1 0.4" class="a"/><path d="m45.7 41.6c0.2 0.5 0.3 1 0.4 1.4-0.5 0.3-0.8 0.2-1-0.2-0.2-0.5 0-0.9 0.6-1.2" class="a"/><path d="m56.7 7.4c-0.5 0.3-1 0.5-1.7 0.9 0.1-0.9 0.6-1.2 1-1.5 0.2-0.1 0.5 0.2 0.7 0.3 0 0.1 0 0.2-0.1 0.3" class="a"/><path d="m119.4 163.4c-1.3-0.9-1.3-1.1-0.5-2.2 1.3 0.1 1.7 0.3 1.7 1.1 0.1 0.9-0.7 0.9-1.2 1.1" class="a"/><path d="m116.5 159.7c0.5-0.3 0.7-0.4 1.1-0.6 0.2 0.1 0.5 0.2 0.6 0.4 0.2 0.3 0.3 0.6 0.2 0.9 0 0.2-0.3 0.5-0.5 0.6-0.4 0.1-0.8 0.1-1.1-0.3-0.1-0.3-0.2-0.6-0.3-0.9" class="a"/><path d="m122.1 165.3c-0.4-0.1-0.7-0.2-0.9-0.3-0.3-0.2-0.7-0.5-0.5-0.9 0.1-0.3 0.5-0.7 0.8-0.8 0.5-0.3 1.1 0.2 1 0.8 0 0.4-0.2 0.7-0.4 1.2" class="a"/><path d="m112.6 151.2c0.4-0.2 0.7-0.4 1-0.6 0.3 0.5 1.1 0.9 0.7 1.7-0.1 0.2-0.5 0.4-0.8 0.4-0.6-0.1-0.9-0.5-0.9-1.4" class="a"/><path d="m115.3 152.7c0.4 0.5 0.7 0.8 1 1.3-0.4 0.2-0.7 0.4-0.9 0.6-0.8-0.7-0.8-0.9-0.1-1.9" class="a"/><path d="m114.8 157.5c0.5-0.3 0.9-0.4 1.2 0.1 0.3 0.5 0.1 0.9-0.4 1.2-0.5-0.3-1-0.6-0.8-1.3" class="a"/><path d="m124.4 166.8c-0.9 0.7-1.2 0.6-1.8-0.6 0.7-0.4 0.9-0.4 1.8 0.6" class="a"/><path d="m89.6 200.5c-0.2 0.3-0.3 0.4-0.5 0.6-0.5 0.6-0.9 0.7-1.4 0.4-0.6-0.4-0.7-1.1-0.4-1.7 0.3-0.6 1-0.7 1.5-0.3 0.3 0.3 0.5 0.6 0.8 1" class="a"/><path d="m83.1 190.8c-0.6 0.2-1.3 0.6-1.8 0-0.5-0.6 0-1.1 0.4-1.5 1.5 0.1 1.7 0.3 1.4 1.5" class="a"/><path d="m85.5 194.1c0-0.6 0.3-1 0.7-1 0.4 0 1.1 0.7 1 1.1 0 0.6-0.5 1.1-1 1.1-0.5 0-0.8-0.4-0.8-1.2" class="a"/><path d="m90.3 197.3c1 0.8 1 0.8 0.7 2-0.9 0.2-1.4 0.1-1.6-0.5-0.2-0.6 0.1-1.1 0.9-1.5" class="a"/><path d="m94.3 197.4c0.4 0.2 0.8 0.3 1.1 0.5 0.3 0.7 0.1 1.2-0.4 1.6-0.5 0.4-0.9 0.2-1.1-0.3-0.2-0.6-0.1-1.1 0.4-1.7" class="a"/><path d="m88.9 195.5c0.7 0.5 0.3 1.1 0.2 1.7-0.5 0.1-1.1 0.3-1.4-0.3-0.1-0.3-0.2-0.7-0.1-1 0.3-0.6 0.9-0.5 1.4-0.4" class="a"/><path d="m84.2 193.6c-0.4-0.5-0.7-0.9-1-1.2 0.2-0.6 0.4-1 1-1 0.6 0 1 0.2 1.1 1-0.3 0.3-0.6 0.7-1.1 1.2" class="a"/><path d="m85.8 197.5c0.5 0.4 1.3-0.1 1.5 0.7 0.1 0.6-0.3 0.9-0.8 1.3-0.5-0.3-0.9-0.7-1.5-1.1 0.3-0.4 0.6-0.6 0.9-0.9" class="a"/><path d="m91.4 200.3c0.3-0.6 0.9-0.6 1.4-0.6 0.4 0 0.7 0.1 0.8 0.6 0 0.5-0.1 0.8-0.6 0.9-0.4 0.1-0.7 0-1.2 0-0.1-0.3-0.2-0.6-0.3-0.9" class="a"/><path d="m80.1 189.3c-0.9-0.3-0.8-1-0.7-1.6 1-0.5 1.4-0.4 1.7 0.2 0.3 0.6 0 1-0.9 1.5" class="a"/><path d="m91.6 196.9c0.1-0.5 0.2-0.9 0.3-1.3 0.6-0.2 1.1-0.1 1.5 0.5 0.2 0.4 0 0.7-0.2 1-0.5 0.5-1 0.2-1.5-0.1" class="a"/><path d="m80 191.1c0.3 0.2 0.6 0.3 0.9 0.6 0.4 0.4 0.4 0.9 0.1 1.2-0.3 0.4-0.7 0.3-1.1-0.2-0.2-0.3-0.4-0.6-0.6-1 0.3-0.2 0.5-0.4 0.7-0.6" class="a"/><path d="m81.2 194.6c0.2-0.4 0.4-0.8 0.6-1.1 1.4 0.3 1.5 0.6 0.7 1.8-0.4-0.2-0.9-0.5-1.3-0.7l0 0" class="a"/><path d="m83.6 195.6h1.3c0 0.4 0.1 0.7 0.1 1.1-0.6 0.3-1 0.8-1.7 0.3 0.1-0.5 0.1-0.9 0.2-1.4" class="a"/><path d="m89.6 194.2c0.6 0.1 1.1 0.2 1.5 0.2 0.1 0.6-0.1 0.8-0.6 0.8-0.5 0-0.8-0.3-0.9-1" class="a"/><path d="m81.5 185.9c0.3 0 0.7 0 1 0 0.2 0 0.2 0.3 0.4 0.5-0.2 0.1-0.4 0.3-0.6 0.3-0.3-0.1-0.6-0.3-0.8-0.4 0-0.1 0.1-0.2 0.1-0.4" class="a"/><path d="m79.2 173.2c0.2-0.3 0.4-0.5 0.6-0.8 0 0 0-0.1-0.1-0.1-0.3 0.1-0.7 0.2-1.1 0.4-0.2-0.9 0.1-1.5 0.4-2.2 0.8 0.2 1.5 0.5 1.7 1.1 0 1.3-0.3 2.5-0.8 3.5-0.5 1.1-0.4 2.4-1.5 3.2-0.4-0.2-0.7-0.4-1-0.6-0.1-0.6-0.1-1.1 0.2-1.8 0.3-0.7 0.1-1.5 0.2-2.2 0.1-0.8 0.3-0.9 1.3-0.5" class="a"/><path d="m75.5 168.2c0.4 0.4 0.7 0.7 1.1 1 0 0.3-0.1 0.6-0.1 0.9-0.7 0-1.1 0.3-1.1 1.2 0.2-0.4 0.4-0.6 0.7-1.1 0.1 0.5 0.1 0.7 0.1 0.9-0.1 0.4-0.3 0.9-0.5 1.3-0.2 0.4-0.1 0.7 0.2 1.1-0.3 0.4-0.6 0.7-1.1 1.2 0-0.5 0-0.8 0.1-1.2-0.2 0-0.3 0-0.3 0.1-0.1 0.2-0.1 0.4-0.1 0.6 0 0.3 0 0.6-0.1 1-0.3-0.3-0.5-0.5-0.9-0.8 0-0.2-0.1-0.5-0.1-0.9 0.3-0.2 0.6-0.4 0.8-0.6 0.1-0.7 0.1-1.3 0.2-1.9 0-0.2 0.2-0.4 0.1-0.6-0.3-1.1 0.8-1.4 1-2.2" class="a"/><path d="m73.3 175.3c0.3 0.1 0.7 0.3 1.1 0.5-0.1 0.2-0.3 0.4-0.4 0.7 0.1 0.1 0.2 0.3 0.3 0.5-0.2 0.2-0.4 0.5-0.6 0.8-0.2-0.1-0.4-0.1-0.5-0.3-0.5-0.8-0.5-1.5 0.1-2.2" class="a"/><path d="m117.2 126.3c1 0.2 1.6 0.8 1.9 1.8-0.1 0.8-0.6 1.6-0.5 2.5 0 0.3-0.1 0.7-0.2 1-0.8 1.6-0.8 3.4-1.2 5.1-0.2 1-0.5 1.9-0.6 2.9-0.1 0.5-0.7 0.9-1.1 0.9-0.6-0.1-1.1-0.5-1-1.2 0.1-1.3 0.3-2.6 0.5-3.8 0.1-0.7 0.3-1.4 0.4-2.1 0.1-0.4 0.3-0.7 0.4-1.1 0.1-0.3 0.1-0.5 0.2-0.8 0.1-0.4 0-0.8 0.2-1.1 0.3-0.6 0.5-1.2 0.5-1.9 0-0.7 0.5-1.4 0.7-2.2" class="a"/><path d="m114.3 128.4c0.8 0.5 1.2 1.1 0.7 2-0.1 0.2-0.2 0.4-0.1 0.5 0.3 0.8 0 1.5-0.2 2.2-0.3 1.2-0.7 2.3-1.2 3.4-0.1 0.2-0.3 0.4-0.4 0.6-0.2 0.2-0.5 0.5-0.8 0.7-0.9-0.4-1-1-0.7-2.1 0.3-1.2 0.4-2.4 0.8-3.5 0.3-0.8 0.3-1.6 0.6-2.4 0.2-0.6 0.5-1.1 1.3-1.3" class="a"/></g></svg>
