<svg xmlns="http://www.w3.org/2000/svg" viewBox="0 0 168 200"><title>  Group 3</title><g fill="#383747"><path d="M59 79.7c.4.6.8.3 1.2.2.4 0 .9 0 1.3-.1.3-.1.7-.2 1-.3v-.2c-1.1.1-2.3.2-3.5.3zm16.2 17.7c-.9.4-1.8.8-2.8 1.2 0 .3-.1.5-.2.9 1.6 0 3.1.2 4.4-1.1-.5-.3-1-.7-1.5-1zm-28.8-16c1-.4 1.6.3 2 .9.6.8 1.4 1.1 2.2 1.5.8-.4 1.1-1.1 1-2.3-.2-.2-.5-.5-.8-.7-.4-.4-.8-.6-1.4-.1-.4.3-1 .4-1.6.1-.2-.1-.4-.2-.7-.2-.4 0-.7.1-.6.8zm-4.2-45.8c.2.2.6.3.6.5.1.3.5.8-.1 1.1h-.2c0-.3-.1-.6-.2-1.1-.3.2-.6.4-.6.5.1.6-.3 1.3.2 1.7h4.2c-.1-.6-.2-1.1-.1-1.5.2-.6.1-1.1-.2-1.6.3-.8.3-.8-.1-1.8-1.2-.1-2.4-.3-3.7-.4-.3 1-.3 1.9.3 2.7zm8.3 58.2c1.1-.2 2.1-.8 3.1-.8.3-.5.4-.9.5-1.4.2-1.2 0-2.4 0-3.6 0-.2.1-.4.2-.6 0-.3.1-.6 0-.8-.5-.6-.8-1.4-1.7-1.5-.5.3-1.1.6-1.6 1 .1.9.1 1.7.2 2.6.3 1.7.4 3.4-.6 4.9v.2zm28.8 77.4c.5.1 1 .3 1.4.3s.8-.3 1.1-.2c.8.2 1.7-.1 2.5 0 .2 0 .5 0 .7-.1 1.5-.3 3-.8 4.6-.7.7 0 1.5.2 1.9-.9-.1-.3-.3-.7-.5-1.1-.4.1-.7.3-1 .2-.9-.3-1.7.6-2.6-.1-.6.3-1.3-.2-1.8.4-.1.1-.3 0-.4 0-.4-.1-.9-.3-1.3.1s-.9-.3-1.3.3c-.8-.1-1.6-.1-2.3.2-.1 0-.3-.2-.5-.2-.3 0-.7.1-1.1.1.2.6.3 1.1.5 1.6zM41.8 56.9v2.4c.5.1 1 .1 1.5.2.1.2.2.5.3.7-.2-.1-.3-.2-.4-.3-.2.4-.3.9-.5 1.3-.3-.2-.4-.3-.7-.4q-.15 1.65-.3 3c.4 0 .7 0 .9.1.4.3.9.3 1.4.3h.5c.7.5 1.2.1 1.8-.3 0-1.1-.3-2.1.2-3.1-.4-.1-.6-.1-.9-.2.1-.4.3-.6.4-.9h.4c-.1-1-.3-1.9-.4-2.8-1.3-.6-2.7-.1-4.1 0zm1.1-46.6v3.6c1 .6 2-.5 3 0 .3-.8-.5-1.1-.7-1.8.3-.4.6-.8.9-1.1-.1-.7-.1-1.4-.2-2-.1-.3-.4-.6-.5-1s0-.9.5-1.1c.1 0 .1-.2.1-.4.2-.6.3-1.1.3-1.7 0-1.1.1-1.5-.1-2.2l-2.7-.3c-.3.5-.5.8-.3 1.3.1.2.1.5 0 .7-.1.7 0 .9.7.8.4-.1.7-.1.9.3 0 .1-.1.2-.1.3v.5c-.1.6-.6.7-1 .3-.2-.2-.3-.4-.4-.7-.1.7-.4 1.4-.3 2 .1.7-.7 1.2-.1 1.9.6-1 1-.8 2.2.2-.2.4-.5.9-1 1-.7.2-.6-.7-1.2-.7zm63.9 160.5c0 .3-.2.5-.1.7.1.4.2.7.1 1.1-.1.7.5 1.2 1.3 1.1.2 0 .5-.1.7-.1.8.1 1.5.2 2.3.3.1 0 .3 0 .4-.1.5-.4 1.1-.3 1.7-.3 1-.1 2-.2 3-.2 0-.3 0-.4.1-.6.1-.7.2-.8.9-.8.3 0 .5.1.8.2h.7v-1.7c-.8.1-1.4.1-2.1.2s-1.4.2-2.1.1c-.9-.2-1.7 0-2.6 0-.6 0-1.3.2-1.9.2-1 0-1.9-.1-3.1-.1zM128 90.9c1.2-.9 2.4-1.8 3.6-2.8-.2-.3-.5-.7-.7-1.1-.2-.2-.5-.6-.5-.7.3-.7-.4-1-.6-1.5-.1-.3-.5-.5-.5-.8-.1-1-.8-1.6-1.2-2.4-.4.4-.8.7-1 1.1-.3.5-.7.8-1.2 1.1-.4.3-.8.6-1.3.9.3.5.6 1 .8 1.4.3.7.8 1.3 1 2 .3 1 .9 1.9 1.5 2.8zm-51.7 54.9c.3-.1.5-.2.8-.3.5-.2 1-.6 1.5-.6s.7-.1 1.1-.3c.5-.2 1-.7 1.6-.7.1 0 .3-.1.4-.2.6-.7 1.2-1.4 1.5-2.2s0-1.7-.3-2.5c-.3-.7-1.1-.8-1.8-.9-.3-.1-.7-.1-1-.3-.5-.3-1-.5-1.5-.1-.4-.2-.7-.4-1-.5-.4.1-.7.2-1 .2l-.6 2.7c.1.2.3.6.2.9-.2.7.3 1.5-.3 2.1v.1c.1.8.2 1.7.2 2.5zm37.7-3.1c-.4-.6-.6-1-1-1.5-.7-.9-1.4-1.7-2.7-1.6-.2 0-.5 0-.6-.2-.4-.4-.9-.4-1.4-.3-.4 0-.8.2-1.1.1-.7-.2-1.2 0-1.7.3-1.1-.5-2 .3-3.1.2.4 1.8.8 3.4.7 5.1 0 .7.4 1.1 1.1 1.1.3 0 .6-.1.8 0 1.2.6 2.2-.5 3.4-.3.5-.6 1.2-.4 1.8-.6s1.4-.3 1.9-.6c.7-.5 1.3-1.1 1.9-1.7m-17.3-26.1c.6-.4 1.1-.2 1.7-.2 1.1.1 2.2.2 3.2.1.9-.1 1.7-.1 2.5 0 .7.1 1.4.1 2 0 .9-.2 1.8-.4 2.7-.3.5 0 1-.2 1.4-.3.7-.1 1.3-.2 2-.3.3 0 .6 0 .8-.1 1-.6 2.2-.1 3.2-.7.6.3 1-.2 1.5-.4-.1-.6-.2-1.1-.3-1.6-.5.1-1 .3-1.5.4-2 .2-4 .6-5.9 1.2q-.45.15-.9 0c-.9-.3-1.8-.1-2.7.1-.5.1-1.1.1-1.6.1h-.9c-.2 0-.3.1-.5.1-1 0-1.9-.1-2.9-.1h-1.1c-.9-.1-1.8-.2-2.7.2-.1.1-.3 0-.5-.1-.2 0-.4-.1-.6-.1-.8 0-1.6.3-2.3.1-1.5-.3-3 .3-4.5-.1-.5-.2-1.1-.2-1.7-.2-1.1 0-2.1-.2-3.1-.7-.2-.1-.5 0-.8-.1.1.6.1 1.2.2 1.8.3.1.7.1 1.1.2h1.8c.9 0 1.9.5 2.8.2.2-.1.5 0 .8.2.8.5 1.7.5 2.6.3.2 0 .5-.1.7 0 .6.2 1.2.2 1.9 0 .5-.1 1.1-.3 1.5.4zm-53.8-24c.6.4 1.3.8 1.8 1.2.7.6 1.4.8 2.3.2 1-.7 1.8-1.4 2-2.7.1-.6-.1-1.1-.1-1.7.1-1.2-.4-2.2-.6-3.2-.1-.7-.5-1.1-1-1.6-.4-.3-.7-.7-.9-.9-1.2-.4-2.2-1.1-3.6-.4-.8.6-1.2 1.6-1.2 2.7 0 1 .2 2 .3 3 .1 1.2.8 2.2 1 3.3zm85.3 28c-2.5-.3-4.9-.6-7.4-.9v5.3c.3-.4.5-.6.7-.9.4-.5 1-.8 1.1-1.5.1-.3.3-.5.6-.7.7-.5 1.5-.1 1.5.7 0 .2-.1.5-.1.7-.1 1-.8 1.6-1.4 2.2-.5.5-1.2.9-1.8 1.4-.2.1-.4.3-.7.5.1.7.2 1.4.3 2.2.1.7-.3 1.5.1 2.3.3.6-.3 1.4.2 2 1 0 1.5-.5 2.1-1 .3-.2.6-.5.8-.8.4-.7 1.1-1.1 1.5-1.9.6-1.3 1.3-2.6 2-3.9q-.45-.75 0-1.5c.2-.3.3-.8.3-1.1 0-.9.1-1.9.3-2.9zm-9.6 56.9c-.6-.5-1-1.1-.9-2-.4-.1-.8-.2-1.1-.1-1.2.1-2.4 0-3.5.6-.1 0-.2.1-.3.1-1 0-1.9-.1-2.9-.1-.3 0-.5 0-.8.1-.3 1.4-.9 2.5-2.3 2.9-.2.1-.5.3-.7.4-1 .9-1.8 1.9-2.9 2.6-.1 0-.1.2-.2.2-.1.7-.6.8-1.1.8-.3.5-.7.9-.7 1.3 0 .7-.3 1.3-.4 1.9-.1.4 0 .9 0 1.5 1.9-.7 3.8-.7 5.5-1.4.2-.1.4-.2.5-.1.4.3.8 0 1.1-.1.2-.1.4 0 .7 0 .7 0 1.4.2 1.9-.5 0 0 .1 0 .2-.1.2.1.4.2.5.2.7-.1 1.1-.2 1.6-.2.3 0 .6 0 .8-.1.5-.4.9-.3 1.4-.3 1.2-.4 2.4-.7 3.5-1.1v-3.6c0-.2.1-.5 0-.7-.3-.8-.3-1.5.3-2.2zm-47.4 8c1-.1 2-.1 3-.2s2-.2 3.1-.4c.4-.1.9-.1 1.3-.3.6-.2 1.2-.4 1.8-.2.6.1 1.3.2 1.8-.1.3-.2.7-.2 1-.3 1.1-.1 2.2-.1 3.3-.2.5-.1 1-.5 1.6-.2.4-.4.8-.4 1.3-.4.7 0 1.3-.1 1.8-.6.1-.5.2-1.1-.4-1.5-.1-.1-.2-.3-.1-.5.1-.4-.1-.8-.2-1.2-.1-1.4-.6-2.7-.7-4.1 0-.4-.3-.9-.2-1.3.1-.5-.1-.9-.5-1.3-1 .2-1.9.5-2.9.5s-1.9.2-2.9.2h-2.9c-.2.5-.5.9-.6 1.4s-.4.8-.8 1.1c-.3.2-.7.4-1 .7-.6.8-1.3 1.4-2.2 1.6-.3.3-.5.8-.8.9-.9.3-1.2 1-1.7 1.6-.2.2-.3.4-.5.5-1.1 1.1-1.7 2.4-1.6 4zM56.6 85.6c-.1.7-.1 1.3-.1 1.9 0 .9.2 1.7.2 2.6 0 1.1-.1 2.3-.2 3.4 0 .1 0 .2-.1.3-.3 1-.2 1.3.7 1.7 1.2.5 2.3 1.1 3.7 1.4 1.2.2 2.4.7 3.5 1.1.7.3 1.6-.1 2.1.7h.2c.5-.2.9.2 1.3.4.3.2.6.3.9.4q.9.3 1.2-.6c.1-.3.3-.5.4-.8.6-1 1.4-1.6 2.4-2-.3-.3-.5-.6-.8-.9 1 0 1 0 1.3.7.8-.1 1.6-.3 2.4-.4.2-.5.3-1 1-.9.6 0 1.2-.1 1.4.7-.3.7-.9.8-1.6.9.7.4 1.5.7 2.1 1 .2.3.3.6.4.9.1-.1.3-.1.3-.1 0-.5.1-1.1 0-1.6-.1-1.1-.7-2.2-.1-3.3.1-.1 0-.3 0-.4 0-.7-.1-1.4-.1-2.1 0-.4.1-.8.1-1.2-.5-.1-.8-.1-1.1-.2-.2-1.2 1.2-.7 1.4-1.4-.1-.7-.1-1.3-.2-2-.2 0-.4.1-.6.1-.4 0-.7-.1-.8-.6s.2-.7.5-.9c.5-.3 1-.3 1.3.1.1-1.1.2-2.2.4-3.3.1-.5 0-1 .2-1.4.4-.6.2-1.1-.2-1.7.9-.7.7-1.7.9-2.7-.5-.2-.8-.2-1.1.3-.4.6-.6 1.4-1.5 1.7-.3.1-.8.6-.7.9.1 1-.5.9-1 1-1 .9-1.6 2-2.7 2.7-.6.4-.9 1.2-1.4 1.8.6 0 1.2.1 1.3.9.7-.7.7-.7 1.6 0-.4.4.1 1.1-.7 1.4-.3-.2-.6-.4-.8-.5-.3.2-.5.4-.8.6.4.8.4.8-.1 1.5-.4 0-.7.1-1.2.1-.1-.3-.2-.6-.4-.9.4-.3.6-.5 1-.7-1.2-.3-2.2-.7-3.4-.3-.1 0-.3-.1-.4-.1h-2c-.7-.3-1.4-.3-2.2-.3-.3 0-.6.2-.8.1-.6-.5-1.1.2-1.6 0-.5.7-.7.1-1-.2-1.3.5-2.6.5-3.9.4-.3 0-.6.1-.7.2zm-7.8 94.3c-.1-.3-.3-.6-.4-.8v-2.9c0-1.3.3-2.5 0-3.9-.4-1.8.4-3.7-.2-5.6-.1-.2.1-.4.2-.6 0-.4.1-.7 0-1.1 0-.8-.3-1.6-.1-2.3s.1-1.3 0-1.9c-.1-1.2 0-2.4 0-3.6 0-.2.1-.4.1-.6v-4.7c-1-.1-1.2-.3-.8-1.3l.6.3v-2.6c-.7-.2-1.1-.5-1.2-1.1.2-.7.8-.9 1.3-1 0-.8 0-1.5-.1-2.2 0-.6-.1-1.1-.2-1.7 0-.2 0-.5.1-.7.4-.6.4-1.2-.1-1.8.3-.7.4-1.3.1-1.9-.2-.4-.1-.9 0-1.3.2-.9.1-1.9 0-2.8-.1-1.2 0-2.4.1-3.7 0-.3.1-.7.1-1 0-.6-.1-1.3-.1-2-.2-.2-.5-.5-.9-.8.3-.4.6-.7.8-1v-1.2c-.2-1.5.5-2.9 0-4.4-.2-.8-.4-1.4-1.2-1.9l1.1-1.1v-3.2c-.2 0-.4-.1-.8-.1.4-.2.6-.3.8-.5-.1-.9-.2-1.9-.3-2.8-.6 0-.9-.2-.9-.8.4-.3.7-.6 1-.8 0-.6.2-1.1.1-1.6-.1-.8.4-1.5 0-2.3-.3-.7-.2-1.3.1-1.7-.1-.7-.2-1.1-.2-1.6 0-.6.1-1.2.1-1.8 0-.5-.1-1-.1-1.5 0-.6.1-1.2.1-1.8-1.8 1-3.3.6-4.8-.3v4.8l.5-.5.9.3c.2 1.1-.1 1.4-1.4 1.6.1.7.1 1.5.2 2.2.6.1 1 .2 1.1 1-1 .8-1.6 1.9-1.1 3.3.4-.1.9-.2 1.2.4.2.4.1.8-.2 1-.1.2-.5.1-.8.2 0-.4-.1-.7-.1-.9-.5 1.1-.2 2.2-.2 3.3 1 .3 1.5.7 1.4 1.2 0 .2-.2.5-.3.6-.2.2-.6.2-.8.3-.1.8-.2 1.5-.2 2.2.2-.1.3-.1.5-.2.7.4 1 1 .8 1.8-.5-.1-.9-.1-1.3-.1.1.9 0 1.9.2 2.8.3 1.1.2 2.2.1 3.3-.1.5.1.8.5 1.1l.6.3q0 1.05-.9 1.2c0 .4 0 .7-.1 1.1-.1.6 0 1.1.5 1.5.4.3.4.7 0 1-1 .8-.2 1.9-.4 2.8 0 .1.3.3.5.4s.4.3.8.5c-.5.4-.8.7-1.3 1.2.2 1 .4 2.1.6 3.2-1 1.3-.5 2.6.1 4.1l-.4.2c-.1.7-.1 1.3-.2 1.8-.3.8-.4 1.6.2 2.3-.5 1.2-.4 2.4-.5 3.7 0 1.3 0 2.5.1 3.8.7 0 1.1.2 1.1.9 0 .2-.1.4-.2.5-.2.2-.5.3-.8.4 0 .2.1.5 0 .7-.4 1-.2 1.9.9 2.5-.4.3-.7.5-1 .7v3.9c.2-.2.3-.3.4-.3.6.6-.3.7-.4 1.2v1.8c0 .2 0 .5.1.6.9.7.4 1.3 0 1.9-.5.8-.4 1.4.3 2.1.6.6.6 1 .1 1.6l-.3.6c-.1 1.1-.2 2.2-.2 3.3 0 1.4.1 2.8.1 4.2.4 0 .7-.1 1 0 .8.1 1.4-.4 2.2-.5.1 0 .2-.3.2-.5.2.3.4.5.8.9.2-.5.4-.8.5-1.1zM39.7 67.3c-.1-.1-.3-.3-.4-.3-.5 0-1.1-.1-1.5.1-1.1.4-2.2-.1-3.3.3-.6-.3-1.1-.1-1.5.2-.5-.1-.9-.4-1.2-.3-1.2.6-2.7 0-3.8.8-.1 0-.1.1-.2.1-.9 0-1.9-.1-2.8-.1-.7 0-1.4 0-1.9.7-.5.6-1.1.9-1.8 1.1-.1 0-.3.1-.3.2 0 .6-.5.7-.9 1-.8.6-1.7 1.1-2.6 1.6v.6c-.3.1-.5.1-.6.1-.2.3-.3.6-.4.7.5.9 1.1 1.7 1.5 2.6.5.9.9 1.8 1.8 2.4.1.1.3.2.3.4.1.7.6.9.9 1.1.9-.2 1.7-.5 2.5-.6h.4c.5.3 1 .1 1.4 0 .5-.1 1-.3 1.4-.1.9.3 1.7-.3 2.5 0 .7.2 1.6-.1 2.3-.1.8 0 1.5.1 2.3.1.7 0 1.3-.1 2-.1.4 0 .8.1 1.2 0 .2-.1.6-.1.8 0 .7.2 1.3 0 1.8-.3V79c.8 0 1.6.1 2.4.1.4 0 .9-.3 1.1-.2.5.2.9 0 1.4 0 .3 0 .6-.1.9 0 .8.1 1.5.2 2.3.3.4-1.2 1.8-.4 2.4-1.3.5.4.9.7 1.4 1.1.3-.1.8-.1 1-.4.3-.3.7-.4.9-.7 1.1.2 2.1.6 3.1 0h.2c.8.4 1.5 0 2.2-.1 1.1-.2 2.3-.2 3.4-.3 1 0 1.1-.1 1.5-1.1-.3-.5-.7-1.1-.5-1.7.2-.5.2-.9.1-1.4-.1-.2-.1-.4-.1-.6 0-.6.1-1.2.1-1.8 0-.4.1-.8.1-1.4-.3-.5-.3-.5-.2-1.1.2-.8.2-1.7 0-2.4-.7.1-1.4.4-1.9.2-1-.4-2-.1-2.9 0-.8.1-1.5.2-2.3.1-.2 0-.4.1-.5.1-.3 0-.6.1-.9.1-.4 0-.9-.1-1.3-.1-.6 0-1.2.1-1.8.1q-1.5-.15-3 .3c-.3.1-.6.5-1 .6-.4 0-.8-.3-1.2-.3-1.1-.1-2.2 0-3.3-.1-1.3-.1-2.6.4-4 .6zM19.1 42.5c.1 1.5.1 2.8.2 4.1.1 1.4.7 2.7.1 4.1v.2c0 .6.1 1.2.1 1.8v2.4c.5-.1.9 0 1.2-.2.9-.5 1.9-.5 2.9-.5 1.1 0 2.1-.1 3.1-.4.5-.1 1-.2 1.5-.2.5.1 1 0 1.5-.1.8-.2 1.6-.6 2.5-.2.3.1.8 0 1.2 0 .2 0 .3-.1.5-.1 1.1.1 2.2.1 3.2-.4.2.1.5.2.7.3.6-.4.6-.4 1.2-.3.2 0 .5.1.6 0 .5-.3 1-.2 1.2.1.5 0 .9-.1 1.3-.1.7 0 1.5.1 2.2 0 1.1-.3 2.4 0 3.5-.4h.2c.6.2 1.3.3 1.9.5.3.1.7.1 1 0 .9-.1 1.9-.3 2.8-.4.5 0 1 .1 1.4.1h3.8c.5 0 1-.1 1.4 0 1.1.3 2 0 2.9-.4.8-.4 1.2-1.3 2.1-1.6.8-1.3 2.3-1.8 3.5-2.7.6-.4 1-.9 1.5-1.4-.6-.7-1-1.4-1.7-1.8-.9-.7-1.6-1.4-2.3-2.2-.2-.2-.4-.4-.6-.5-.7-.3-1.2-.8-1.7-1.3-.6-.6-1.3-.9-2.2-.8-.7.1-1.5.2-2.2.2-1.7.1-3.5.1-5.2.2h-.3c-1.1.1-2.1.2-3.2.2-1.1-.1-2.1.1-3.1.1-.6 0-1.3.1-1.9.1-1.3-.1-2.5-.1-3.8 0-.3 0-.7.3-1 .2-.6-.2-1 0-1.4.3-.2 0-.4-.1-.5-.1-1 .1-2.1-.4-3.1.1-1.1-.3-2.2.1-3.3 0-1.4-.1-2.8.4-4.2.3s-2.8.9-4.3.4c0 0-.1 0-.2.1-.4.4-1 .2-1.5.3-.7.1-1.4-.3-2 .2-.1.1-.3 0-.4 0h-1.3zM7 22.7c.3.3.5.8.8 1 .5.3.8.8 1.1 1.3.1.2.2.4.4.6.9.9 1.6 2 2.2 3.2.4.7.7.9 1.6.8.4 0 .8-.1 1.1 0 .5.3.9.1 1.4 0 .3-.1.6 0 .9 0 .6.1 1.2.3 1.7.2 1.6-.3 3.1-.2 4.7-.1.9.1 1.7-.1 2.6-.1 1.5 0 2.9-.1 4.4-.2.1 0 .3.1.4.1.4 0 .7.1 1.1 0 .4 0 .8-.1 1.2-.1.9 0 1.9.2 2.8 0 .3-.1.8-.1 1 .1.5.4 1.1.2 1.5.2s.9-.1 1.3-.1c.6.1 1.2.2 1.8-.1.2-.1.5 0 .8 0s.6.1.8.1c1.4-.4 2.8 0 4.2-.6h.1c1 .1 1.9.4 2.9.3.8-.1 1.6.2 2.4-.1.3-.1.7-.1 1.1 0 1.1.2 2.1-.1 3.1-.1.4 0 .7.1 1.1 0 1.1-.3 2.1-.1 3.2 0h.9c.8-.1 1.6-.2 2.4-.2h1.6c.1-.7.2-1.3.1-1.8-.1-2.1-.3-4.1-.4-6.2 0-.4.1-.7.1-1.1-.1-1.1-.3-2.3-.5-3.5-.5.5-1 .1-1.6.1-.4 0-.8-.1-1.2-.1s-.9.1-1.3.1h-4.2c-.6 0-1.1.2-1.7.2s-1.2-.1-1.8-.2h-3.2c-.4 0-.9.4-1.3.3-.7-.1-1.5-.2-2.1-.4-.9-.3-1.7.1-2.5-.1-.3-.1-.7 0-1 .1-.8.3-1.6.2-2.5.1s-1.8-.3-2.7-.2c-.9.2-1.9-.4-2.8.3-.1.1-.3-.1-.5-.1-.9-.1-1.8-.2-2.6-.2-.6 0-1.3.1-1.9.2-.4 0-.9-.2-1.3-.1-1.1 0-2.2.1-3.3.2-.4 0-.9-.3-1.2-.1-1 .4-2.1.2-3.2.3-1 .1-2 .3-3-.1-.3-.1-.8 0-1 .2-.6.6-1.6.7-2 1.6-.1.2-.4.3-.7.4-.2.1-.4 0-.5.1-.4.7-1 .7-1.8.8-.1.6-.6.9-1.2 1-.1 0-.3.1-.4.2-1.1.6-2.1 1.3-3.3 2zm76.9 52.2c-.2.4-.7.7-.7 1.1 0 .5-.2.9-.3 1.4-.3 1.5-.5 3-.7 4.5.1 0 .2 0 .6.1-.5.3-.8.6-1.1.8.1 0 .2.1.3.1l-.3 2.4c.1 0 .3.1.4.2.2.6 0 1-.4 1.2-.1.7-.2 1.4-.3 2 0 .3-.1.5-.1.8.2 1.1 0 2.2-.1 3.4-.1.9.1 1.8.2 2.7 0 .8.1 1.6 0 2.4s-.1 1.5.3 2.3c.1.2.1.4.1.7v.7c0 .3.1.7.1 1v1.3c0 .5.1 1 .2 1.5s.1.9.2 1.4c.2 1 .5 1.9.5 2.9 0 .7.1 1.2.6 1.8 1.6.3 3.3.6 5 .9.2 0 .5-.2.8-.1 1.5.5 3.1 0 4.7.3.6.1 1.4-.4 2 .1h.3c.7-.1 1.3-.2 2-.2h.9c1 .1 2-.1 3.1.1.6.1 1.2-.1 1.8-.2s1.2.1 1.8-.1c1.4-.3 2.9 0 4.3-.3.6-.1 1.2-.1 1.7-.2 2.1-.5 4-1.4 6.2-1.3 0-.7-.2-1.3 0-1.9.5-1.6 0-3.3.5-4.9v-.1c0-.8 0-1.5.2-2.2.2-.9.2-1.7.3-2.6.1-.6.1-1.3.3-1.9.1-.4 0-.8-.1-1.2-.1-.6-.1-1.1.1-1.7.2-.4.3-.9.2-1.2-.5-1-.4-2-.6-3-.1-.4-.4-.8-.4-1.2 0-.9-.1-1.8-.5-2.7-.1-.1 0-.3 0-.5.2-1.1-.2-2.2.5-3.2-.2-1.1.6-1.7 1.4-2.4.3.5.6 1 .8 1.3-.3 1.9-.8 3.6-.2 5.4.2-1 .4-1.2.9-1.1s.9.9.6 1.5c-.1.2-.2.4-.4.5-.3 0-.7-.1-1-.2-.2 1.3.5 2.3 1.1 3.2-.1.7-.1 1.2-.1 1.7 0 .3-.1.6-.1.9v1.4c0 .3.1.7.1 1-.3 1.1-.3 2.2-.3 3.3-.1 1.3-.2 2.5-.6 3.8.8-.2 1.2.1 1.5.9-.2.2-.4.4-.7.5-.2.1-.5-.1-.8-.2-.2 1.5.2 3.1-.4 4.8.3.5.3 1.1-.2 1.7.2.3.4.6.2 1.1-.2.4-.2.9-.3 1.4s-.2 1-.2 1.5c1.1.2 1.1.2 1.1 1.3v1.5c.7.8 1.6 1 2.6.9.4-.1.7 0 1.1 0s.8.2 1.3.1 1.1-.2 1.6.2c.2.2.6.1.9.1.2 0 .4.1.6.1.3.1.6.2 1 .3-.1-.5-.2-1-.1-1.2.2-.4.1-.7 0-1.1-.1-.3-.1-.6 0-1 .1-.7.1-1.5.2-2.2v-1c.1-.9.4-1.8-.2-2.7.8-1 .1-2.3.6-3.4-.4-.6.1-1.2.2-1.8 0-.6-.1-1.2-.2-1.8 0-.2-.1-.5-.2-.7-.2-.7-.6-1.3-.7-2-.2-1.8.2-3.4 1.5-4.5 0-1.4.1-2.7.1-4.2-.7.6-1.3 1.3-2.2 1.1-.3.9-.7 1.3-1.2 1.1-.4-.2-.9-.5-1.2-.9-.4-.5-.6-1.1-.8-1.6-.4-.5-.9-.9-1.1-1.4-.6-1.2-1.2-2.5-2-3.6-.7-1.1-.6-1.9.3-2.7.6-.6 1.4-1.1 2.2-1.6.6-.4 1.1-.9 1.5-1.6.1-.2 0-.7-.1-.8-.6-.4-.5-1.4-1.4-1.5 0 0-.1-.1-.1-.2q-.15-.75-.9-1.2c-.3-.2-.5-.5-.7-.7-.3-.6-.8-.9-1.5-1l-1.2 2.4c-.5-.1-.9-.2-1.4-.3 0-1.2.4-2.2 1-3.3-2.3-1-4.4-2-6.5-3-.2.3-.3.7-.7.9-.7.4-1 1-1.3 1.6-.2.3-.4.5-.7.7-.9.6-1.7 1.3-2.8 1.5-.3.1-.5.3-.8.4-.9.4-1.7.9-2.7 1.1-1.2.2-2.4.2-3.5.2-.6 0-1.1-.1-1.6-.5v-.2c.1 0 .2-.1.3-.1l-.6-.9c.7-.5 1.4-.7 2-.4.5.2 1 0 1.5-.1.2 0 .5-.2.7-.2.7.1 1.3-.2 1.9-.5 1.2-.7 2.4-1.3 3.6-2 .3-.2.8-.4 1-.7.4-.7.9-1.3 1.3-2 .5-.9 1.1-1.5 1.7-2.1.3-1.1.3-2.2 1.4-2.7.5-.3.7-.7.7-1.3 0-.5.1-1.1.1-1.6.1-1.1.3-2.3.1-3.4-.3-1.3-.4-2.7-.6-4.1-.4-2.3-.9-3.3-2.1-5.5l-.6-1.2c-.1-.2-.1-.4-.3-.5-.7-.6-.9-1.7-1.9-1.8-.1 0-.2-.3-.3-.4-.6-.4-1.2-.8-1.9-1.2-.3-.2-.6-.3-.9-.4-.5-.3-.9-.7-1.4-.7-1.2-.1-2.2-.9-3.4-1-.6-.1-1.3-.5-1.8-.4-.9.2-1.6.1-2.5-.1s-1.7.1-2.6 0c-.4-.1-.9-.2-1.2 0-.8.4-1.6.4-2.4.8-1 .4-1.8 1-2.6 1.7-.5.5-.9 1-1.4 1.5-1.3 1.3-2.5 2.7-3.2 4.4-.2.4-.2 1-.3 1.5-.3 1.5-1.2 2.8-.8 4.4v.1c-.5.2-.1.5-.2.8s0 .7-.1 1c-.2.7-.1 1.4.1 2.1.1.6.1 1.3 0 1.9-.1.4-.1.8.1 1.3.1.3.1.6.1.9.1.6.1 1.1.3 1.7.1.5.3.9.5 1.4s.3 1 .5 1.4c.3.5.7 1 1 1.5.6.8 1.2 1.7 1.8 2.5.5.7 1.1 1.3 1.8 1.6.9.4 1.8.7 2.8 1 0 .3.1.6 0 .8-.1.3-.3.6-.5.7-1.1.3-2.2 0-3.2-.4-.4-.2-.9-.5-1.5-.8 0 0-.2-.3-.4-.4-.4-.1-.5-.3-.6-.7-.1-.5-.5-.8-1-1-.5.6-.6 1.4-.6 2.2zm-4.1 53c-.1.2-.4.6-.3.7.2.4 0 .7-.1 1.1l-1.5 4.2c-.1.4-.2.8-.3 1.3.2.1.4.2.5.2s.3.1.5.1c-1-1.3-.9-1.7.4-2.1 1.1.6.5 1.4.2 2.1h1c1.4.2 2.7.6 3.7 1.7.2.2.3.5.5.6.9.6 1 1.5 1.1 2.5.1.8-.4 1.5-.3 2.2.1 1.2-.7 1.8-1.3 2.4-.7.7-1.7 1.1-2.6 1.7-.6.4-1.3.4-1.8.7-1 .5-2 .6-3.1.9-.3 1.2.2 2.4.2 3.6.6-.6.6-.6 1.7-.1 0 .2 0 .6-.1.7-.4.3-.9.4-1.5.7.1.7.2 1.5.3 2.3.4.1.8.3 1.2.4 0 .7-.4 1.1-1 1.4v2.1c1.6 1.1 1.4 1.2.6 2.4.1 1.3.2 2.5.3 3.7 0 .2 0 .5.1.7.1.4.3.9.4 1.3h1v-1c.4.1.6.1.8.3.1.1.1.4.1.5 1.2-.1 2.4-.2 3.6-.4 1.4-.2 2.8-.5 4.3-.4.6 0 1.2-.1 1.9 0 .4.1.8 0 1-.5-.1-.7-.9-1.4-.3-2-.1-1.1-.3-2.1-.4-3.1 0-1.3.2-2.5.1-3.8-.1-1.4-.3-2.8-.2-4.2 0-.2 0-.4-.1-.5-.7-.7 0-1.6-.3-2.4-.1-.2.1-.5-.2-.7-.1-.1-.1-.4 0-.5.4-.7.3-1.5.3-2.3 0-.2.1-.4.2-.6.3-.7.8-1.5.9-2.2s.4-1.2.7-1.5c.2-.8.3-1.5.6-2.1.7-1.4 1.5-2.7 2.2-4.1.3-.6.6-1.1.8-1.7.3-.5.5-1 .8-1.6-.9-.2-1.7-.5-2.6-.7-.5-.6-1.1-1.2-1.8-1.9.2-.4.3-.8.4-1.2.3-.1.6-.1.8-.1.9.5 1.6 1.5 2.8 1.3h.1c.8.9 2.1.6 3 1.2.5.3 1 .5 1.6.6.5.1.9.3 1.2.7.8.8.7 1.2-.2 2 .6.4.1.9.1 1.4.1.5.1 1 .2 1.5h.8c.9-.1 1.8-.5 2.7-.2h.1c.3-.4.7-.3 1.1-.2s.9-.1 1.4-.1 1 .1 1.5.1c.3 0 .7 0 .9.2.6.4 1.2.5 2 .5.3.4.6.7.9 1.2.9 0 1.3.6 1.6 1.4.2.5.4 1.1.6 1.6.2.7.3 1.3 0 2s-.6 1.3-1.4 1.6c-.2.1-.3.2-.4.3-.7.5-1.4 1-2.1 1.4-.4.2-.9.3-1.3.3-.9.1-1.9.3-2.8.4-1 .1-2 .3-3 .4-.4 0-.8-.1-1.3-.2q.15.6.3.9c.3 0 .5 0 .8.1-.3.4-.6.7-.7.9.2 1.1.3 1.9.4 2.8.8.3.8.3 1.1 1.2-.3.2-.5.4-.8.6.4 1.2-.1 2.4.5 3.4 0 .1-.1.2-.1.3 0 .2-.1.4 0 .5.6.6-.1 1.5.5 2.1-.4 1 .1 1.8.5 2.6.6-.6 1.1-.6 1.6.2.1.2.2.6.1.7-.1.2-.5.2-.7.2-.3 0-.6-.1-1-.2 0 .3-.1.4-.1.5.1.6.2 1.2.1 1.9-.1.5.2 1 .3 1.6h.1c0-.4.1-.8.1-1.3.7.4 1.1 1 1.1 1.7h.5c.7.1 1.4.2 2-.5.1-.1.6-.1.7.1.4.3.7.2 1.1.2 1.1-.1 2.2-.3 3.3-.3s2.2 0 3.2-.3l.3-1.5c-.1-.3-.2-.7-.2-1 .3-1.3.4-2.6.4-3.9 0-.7.2-1.5 0-2.2-.2-1.1-.3-2.1 0-3.2.1-.2 0-.4 0-.7v-.9c0-.7.2-1.4.1-2-.2-.8 0-1.6 0-2.4 0-.4-.2-.9-.1-1.3s.2-.7 0-1.1c-.1-.2 0-.5 0-.8 0-1.3.2-2.5.1-3.8-.2-1.4-.3-2.8-.1-4.2.1-.4.1-.8 0-1.3-.1-.7-.2-1.5-.1-2.2 0-1.2.4-2.4 0-3.6-.3-.8-.3-1.8-.2-2.7 0-.5 0-1-.1-1.4-.1-.3-.1-.6-.1-.9 0-1.1.3-2.2 0-3.4-.1-.3 0-.6.1-.9 0-.4.1-.8.1-1.2v-.6c0-.4.2-.8 0-1.1-.2-.5 0-.8.2-1.1-.3-.7-.5-1.4-.8-2.1-.5 0-1.1.1-1.6.1-.5.1-1.1.2-1.6.3-.2 0-.5-.1-.7.1-.8.6-1.7.6-2.5.7-.6.1-1.3.3-1.9.3-.9 0-1.8.1-2.8.3-1.1.3-2.3.2-3.5.2-1 0-2-.1-3-.1-.8 0-1.5.1-2.3.1-.4 0-.8-.2-1.2-.2-1.1.1-2.2.1-3.2 0s-1.9 0-2.9-.1c-1.1-.1-2.3-.2-3.4-.3-.2 0-.4 0-.6-.1-.5-.3-1.1-.4-1.7-.4s-1.2-.1-1.9-.2c-.4.9-.7 1.8-1.1 2.7-.2.5-.4 1.1-.4 1.7.1.9-.9 1.5-.5 2.5-.5.2-.5.8-.7 1.2-.2.5-.3 1-.5 1.5-.1.3-.3.6-.4.8zm86 71.9c-.5-.2-1-.7-1.6-.6-.1 0-.2 0-.2-.1-.4-.7-1.3-.5-1.8-1-.1-.1-.4-.1-.6-.2-.3-.1-.6-.1-.9-.2-1.2-.7-2.6-1.2-3.9-1.8-1.1-.5-2.2-.7-3.3-1.1-.5-.2-1-.3-1.4-.5-.6-.4-1.3-.6-2-.7-.2 0-.4-.1-.5-.2-.4-.6-1.1-.5-1.6-.8-.3-.2-.7-.3-1.1-.4-.5-.2-1.1-.4-1.7-.5-1-.7-2-1.2-3.3-1.2-.1 0-.3-.1-.4-.1-1.2-.8-2.6-1.1-4-1.3-.4-.1-.9-.4-1.3-.5-.6-.2-1.2-.4-1.9-.6-.8-.2-1.6-.2-2.4-.4-.7-.1-1.4-.1-2-.4-1-.4-2.1-.2-3-.9-.1-.1-.3-.1-.5-.1-1.1.2-2.2-.5-3.3-.5-.3 0-.5-.3-.8-.4-.4-.2-.7-.3-1-.5-.7.8-.3 1.7-.8 2.5-.5.1-1.1.3-1.6.5-.2.1-.4.2-.5.3-.2.1-.3.3-.5.3-.8 0-1.6 0-2.3.1s-1.5.3-2.2.4c-.4.1-.8.1-1.2.2-.3.1-.6.2-1 .3-.3.1-.5.2-.8.1-.6-.1-1 0-1.6.1-.7.2-1.5.2-2.2.3s-1.4-.1-2 .3c-1.1-.3-2.1.2-3.2.2-.4 0-.8.1-1.2 0-1.3-.3-2.4-1.8-2-3.3.3-1.1.3-2.2.5-3.3 0-.3.1-.5.2-.8-.5-.1-.9-.6-1.5-.5-.5 0-1.1-.3-1.6-.5 0-1.3.2-1.5 1.4-1.5.7-.1 1.4 0 2.2 0 .2 0 .4-.1.5 0 1.2.6 1.8-.3 2.4-1 .2-.2.3-.8.8-.5.2-.5.6-.8 1-1.1.8-.7 2-1 2.5-2.2l-.4-.8c-.2.3-.3.6-.5.8-1-.4-1.6-1.1-1.4-2 .1-.6-.2-1-.2-1.5-.1-.4-.2-.8-.1-1.3-.2-.2-.4-.5-.6-.7.1-.3.3-.6.4-.9-.2-.3-.4-.6-.6-1 .2-.6.2-1.2-.2-1.9.1-.2.3-.5.4-.7-.2-.5-.4-1.1-.6-1.6q-.15-.3 0-.6c.3-.8 0-1.4-.2-2.1-.4-1.1-.4-2.3-.5-3.5-.1-1.1-.2-2.1-.3-3.2-.1-.6 0-1.3-.4-1.9-.1-.1-.1-.3-.1-.4.4-1.3-.3-2.5-.4-3.7-.1-.7-.2-1.5-.4-2.2-.3-1.1 0-2.3-.5-3.3-.1-.1 0-.3 0-.4.2-1.1 0-2.1-.3-3.1-.1-.3 0-.6 0-.9 0-.2.1-.5 0-.7-.5-.8 0-1.8-.5-2.6v-.3c.1-.9.1-.9-.7-1.3-.7 1-1.4 2-1.9 3-.2.4-.2 1-.5 1.4-.5.9-1 1.7-1.5 2.6-.1.2-.2.5-.3.8-.2.5-.2 1-.5 1.4-.4.5-.4.9-.3 1.4-.7 1.1-1.1 2.2-1 3.4.1 1.7 0 3.4.1 5.1 0 .7.2 1.4.3 2.1 0 .2.1.3.1.5-.1.7-.2 1.3.2 1.9.1.1-.1.4-.1.6 0 .5-.2 1-.1 1.4.3 1.1.1 2.2.1 3.3.1.9-.3 1.8.2 2.7.2.3.1.8 0 1.2-.2.8.1 1.6.2 2.3.1.6 0 1.1.2 1.7.3.6-.5 1.4-1.4 1.6-.4 0-.6-.6-1.2-.2l.5.5c-.1.6-.3 1.3.1 1.9l.1.1c-.4 1.1.5 1.9.6 2.9 0 .1.1.2.1.3-.4.8.3 1.5.3 2.3 0 .6.2 1.2.3 1.8v.4c.5 1.3.5 1.6-.6 2.4.1.2.1.4.2.7-.7.7-1.6 1-2.6 1.1-1.3.2-2.5.4-3.8.6-.3 0-.6.1-.9.1-1.4.1-2.8.1-4.1.2-.2 0-.3 0-.5.1-1 .5-2.1.2-3.1.3s-1.9.1-2.9.2c-.6 0-1.1.1-1.7.2-.9 0-1.8.1-2.7.1-.8 0-1.1-.3-1.1-1.1 0-.2 0-.5-.1-.7-.5-.6-.6-1.3-.4-2 .1-.2 0-.4.1-.6.2-.5.3-1.1.6-1.6 1-1.4 2-2.7 3.1-4 .1-.1.1-.3.2-.3 1 0 1.4-1.1 2.2-1.4.3-.1.5-.5.8-.7.7-.6 1.4-1.2 2-1.8.1-.1.2-.3.3-.5-.6-.5-1.2-.8-1.3-1.6-.1-.9-.2-1.8-.3-2.6-.1-.5-.2-.9-.3-1.3-.1-.6-.2-1.1-.3-1.7-.1-1.2-.1-2.5-.4-3.7-.2-.9.1-2-.6-2.8-.2-.2-.2-.6-.1-.9.3-.7 0-1.3-.3-2 .5-.6.3-1.3 0-1.9-.4-1-.5-2.1-.3-3.1 0-.1.1-.2.1-.3-.4-.8-.3-1.7-.4-2.5-.1-.7-.3-1.4-.2-2.2.1-.7.1-1.5.1-2.2 0-.8-.1-1.6 0-2.4.1-1.3-.3-2.6.3-3.9.4-.8.8-1.7.6-2.6 0-.1 0-.1.1-.2.6-.8.6-1.8.9-2.7.1-.3.3-.5.6-.8-.2-.5-.1-1 .2-1.6.4-.9.7-1.9 1.1-2.8.2-.4.3-.9.5-1.3.2-.5.5-1 .6-1.5.2-.8.4-1.5.8-2.3.3-.6.3-1.3.4-1.9 0-.2.1-.4.2-.6.4-.6.6-1.2.7-2 0-.6.5-1.2.8-1.9-.5-.9-.4-1.9-.4-2.8 0-1.2 0-2.4-.5-3.5-.1-.1-.1-.3-.1-.4.4-.7-.1-1.4-.3-2-.3-1.4-.5-2.9-.4-4.3.1-.4-.1-.7-.2-1-.2-.6-.3-1.2-.4-1.7-.9.3-1.7.8-2.6 1-1.1.2-2.3.3-3.4.4s-2.1 0-3.2-.3c-.4-.1-.8.1-1.3 0-.6-.1-1.1-.4-1.6-.7-.2-.1-.5-.1-.8-.2-.8-.1-1.5-.3-2.3-.4-.4-.1-.7-.3-1-.4-.5-.3-1-.7-1.7-.4-.1 0-.3 0-.4-.1-1-.3-2.1-.5-2.9-1.1-1.1-.7-2.5-1-3.6-1.9-.4-.3-.8-.5-1.2-.7-.2-.1-.5-.2-.7-.1-.3.1-.6.2-.8.3-.5.3-1 .4-1.6 0 0 1-.4 1.8.1 2.6.1.3.2.6.2.9-.3 1.5-.2 3.1-.1 4.6.1 1.4.1 2.7.1 4.1-.1 1.3-.3 2.6-.1 4 0 .1-.1.2 0 .2.5.7.1 1.5.2 2.2v2.3c0 .3-.1.6 0 .8.3.5.2 1-.2 1.3.1.9.3 1.7.4 2.5 0 .2 0 .4-.1.5-.4.5-.3 1-.1 1.5.1.2.1.4.1.6 0 1.1-.2 2.2-.1 3.2.2 1.1 0 2.1-.1 3.1-.1.5 0 1 0 1.5.1.9.3 1.8.2 2.7-.1.8-.1 1.6.1 2.4.2 1 0 1.9-.2 2.6.1.7.3 1.1.3 1.6 0 .7-.3 1.4-.2 2 .2.8-.2 1.7.3 2.5q.15.15 0 .3c-.4 1.5.4 3-.1 4.5.3.6 0 1.2-.1 1.9 0 .1-.1.2-.1.3.4 1.4.1 2.7 0 4.1 0 .5.1.9.1 1.4.2 1.9-.1 3.8.1 5.7 0 .3.1.6.2.9 0 .1.1.2.1.3-.5 1.3.5 2.7-.3 4-.1.1-.1.3 0 .4.1.9.1 1.8.2 2.6.1.6.1 1.3.2 1.9s0 1.2-.1 1.8c-.2 1.3.2 2.6.1 3.8-.1.4-.1.8-.2 1.3.8.1 1.6.1 2.4.4.4.2 1.1.1 1.6-.1.4-.2.8-.2 1.3-.1.3.1.6 0 1 0 1.1-.2 2.1.1 3.2-.2.8-.2 1.7-.3 2.5-.4.4-.1.9.2 1.3.1.8 0 1.6-.3 2.4-.3.9.1 1.8-.4 2.6.1.3 1.4-.1 1.9-1.5 2-.6.1-1.2.2-1.9.3h-.2c-1.6-.1-3.1.3-4.7.2-.6-.1-1.2.1-1.7.3s-.8 0-1.2-.2c-1.1.6-2.1.8-3.4.4-.4.5-.8.7-1.3.4-.9.4-1.7.9-2.5 1-.5.1-1.2-.1-1.7-.1-.8 0-1.6.1-2.4.2-.5.1-.9.3-1.6.6-1.1-.5-2.2.2-3.4.4-.4.1-.7.2-1.1.2q-1.8.15-3.6.9c-.1 0-.2.1-.3.1-1.5-.2-2.8.9-4.3.7-.1 0-.1 0-.2.1-.9.7-2.1.4-3.1.8-.4.2-.9.4-1.4.2-.1-.1-.4 0-.5.1-.7.5-1.4.6-2.2.6-.1 0-.3.1-.4.1-.6-.3-.9.2-1.2.5-.6.1-1.3-.2-1.8.4-1-.2-1.7.6-2.6.7s-1.9.4-2.8.6c-.2 0-.4.1-.5.3-.3.3-.5.4-.9.2-.2-.1-.4.1-.6.1-.9.3-1.8.6-2.6.9-.1 0-.2 0-.2.1-.3.8-1.1.5-1.6.7-.7.4-1.5.6-2.2 1-.5.3-1 .2-1.5.5-.8.5-1.7.7-2.5 1.3-1.3 1-2.4.8-3.5-.5 0-.6.3-1 1-1.3.9-.4 1.7-1 2.6-1.2.2 0 .3-.2.5-.4.5-.4 1-.7 1.7-.6.2 0 .4 0 .6-.1 1.5-.8 3.1-1.1 4.6-1.8.1-.1.3-.2.4-.1.8.1 1.4-.3 1.9-.7.7-.4 1.4-.9 2.3-.8.1 0 .2 0 .3-.1 1.3-.8 2.8-1.1 4.2-1.6 1.3-.5 2.7-.6 3.8-1.5.1-.1.3-.1.5-.1.7 0 1.2-.2 1.8-.6.4-.3.9-.5 1.4-.6l5.7-1.5c.6-.1 1.1-.3 1.7-.4.5 0 1.1-.2 1.6.2.2.2.7.2 1 .1 1-.2 2.1-.4 3.1-.4.8 0 1-.3.9-1.1 0-.1-.1-.2-.1-.3.4-1.1.1-2.3.1-3.4-.1-.9.2-1.8 0-2.8-.2-.9-.1-1.8-.1-2.7v-4.6c0-.9-.2-1.8 0-2.7s0-1.8 0-2.6c0-.9 0-1.8.1-2.7 0-.2.1-.5.3-.8-.1-.2-.3-.5-.3-.8-.1-.3-.1-.6 0-.8.2-.5.3-1 0-1.5-.2-.4-.2-.9-.1-1.4.1-.8.1-1.6 0-2.5 0-.6-.2-1.2-.1-1.7.2-1.1.2-2.2-.1-3.3 0-.1-.1-.3-.1-.4.6-.7.1-1.5.3-2.2.2-.8-.2-1.7.2-2.4.1-.1.1-.3.1-.4-.6-1.1.1-2.2-.1-3.3-.2-1-.2-1.9-.3-2.9 0-.3-.1-.5 0-.8.2-.7.4-1.3 0-1.9-.1-.2.1-.5.1-.8-.1-1.5.2-3-.3-4.5-.1-.3-.1-.6-.1-.9.1-.8.2-1.5.2-2.3 0-.5-.2-1-.2-1.3-.1-.7-.2-1.3-.1-1.8 0-.9-.2-1.8.2-2.7.2-.4 0-.9-.1-1.4 0-.2-.2-.4-.1-.6.3-1-.1-2 0-3 .1-.9-.1-1.8-.2-2.8v-.5c.3-1.2.2-2.5.2-3.7s-.1-2.4-.1-3.7c0-.7.3-1.4 0-2.2-.1-.4.1-.9.1-1.3 0-.6 0-1.3-.1-1.9-.2-.8 0-1.6.1-2.4 0-.4.1-.7 0-1.1-.2-.6-.3-1.2-.7-1.8s-.4-1.2-.4-1.8c0-.3-.1-.7-.2-1-.4-1.6-.3-3.1.3-4.7.2-.6.6-1.4 0-2.1-.9.2-1.7.3-2.6.5-.2 0-.4 0-.5-.1-.2-.4-.4-.2-.6-.1-.8.2-1.7.3-2.5.2h-.5c-1 .5-1.9.4-2.9.2-.2 0-.5-.1-.7-.1-1.4.5-2.8-.1-4.2.4-.3.1-.6-.1-1-.2-.8-.1-1.7.1-2.5-.1s-1.7-.4-2.5-1c-.5-.5-.9-1.2-1.6-1.6-.1-.1-.2-.3-.2-.4-.1-.2-.1-.4-.2-.6-1.1-1-1.6-2.3-2.2-3.5-.3-.5-.7-.9-1.1-1.4-.4-.6-.4-1.1 0-1.7.3-.3.5-.7.7-1 .1-.1.2-.3.3-.4 1.1-.5 1.8-1.4 2.6-2.2 1-.1 1.3-1.1 2.2-1.5.7-.3 1.3-1.1 1.9-1.6.5-.4 1-.6 1.5-.9.6-.4 1.2 0 1.7.2q.9.3 1.8 0c.8-.3 1.6-.5 2.5-.4.3 0 .7-.1 1-.1.2 0 .3-.1.5-.1 1.3.4 2.6.1 3.9-.3.4-.1.7-.1 1.1.1.3.2.9 0 1.5-.1 0 0 .2.1.3.2.6-.2 1.1-.3 1.5-.4 0-.3-.1-.7 0-1.1s.2-.7 0-1.1c-.1-.1-.1-.4 0-.5.4-.5.2-1.1.2-1.6-.1-.4 0-.9 0-1.4 0-.6.2-1.2-.3-1.8-.4 0-.8.1-1.2.1-.5 0-1.1-.1-1.6-.1-.7 0-1.4-.2-2.1.2-.4.3-1.1.2-1.6.1-.8-.3-1.6.2-2.4.1-.5 0-.9.1-1.4.1l-1.8.3c-.2 0-.4.2-.6.1-.9-.4-1.7.1-2.6.1-.8 0-1.6.3-2.4-.1-.3-.1-.7 0-1-.1s-.6-.4-1.1-.7c-.1 0-.4 0-.6.1-.9.1-1.2-.1-1.2-1.1v-.2c-.6-.8-.2-1.7-.4-2.5-.3-1.6.1-3.2-.2-4.8-.1-.8.1-1.7.1-2.5 0-.3-.2-.6-.2-.9-.1-1.2-.1-2.4-.2-3.5 0-.6.3-1 .8-1.1.2-.1.4-.2.7-.2.8-.2 1.6-.3 2.5-.4.5-.1.9-.2 1.4-.2 1 .1 2 0 3-.2.5-.1 1.1 0 1.7 0 .7 0 1.4.1 2.1-.3.2-.1.5 0 .7-.1 1-.1 2 0 2.9-.3.8-.2 1.7-.1 2.6-.2.9 0 1.9 0 2.8-.2.6-.1 1-.1 1.5.3.1-.3.2-.5.2-.7 0-.7 0-1.5.1-2.2v-.6c-.2-.8-.5-1.6-.1-2.4-.6-.4-1.1-.2-1.6-.1-.2 0-.4.2-.6.2-.7-.4-1.3-.1-2-.2-1.6 0-3.2-.2-4.8-.3-.1 0-.3-.1-.4 0-1.1.4-2.2.2-3.3.1-.5 0-1.1-.1-1.6.1-.7.3-1.4.2-1.9 0-1-.2-1.8.1-2.7.2-.2 0-.4.1-.6.1-1-.1-1.9-.3-2.9.1-.3.1-.8-.2-1.2-.4l-.1.2c-1.1.1-2.3.3-3.4-.2-.5-.2-.7-.4-1-1.2-.3 0-.6 0-1.1-.1-.1-.2-.3-.5-.5-.7-.6-.9-1-2-1.8-2.8-.7-.7-1-1.7-1.7-2.4-.5-.5-.8-1.1-1.4-1.5-.6-.3-.7-2-.1-2.6.5-.5.8-1.1 1.6-1.2.5-.1 1-.7 1.4-1.1.1-.1.3-.2.4-.3 1.4-.4 2.4-1.4 3.7-2 .9-.4 1.7-1.1 2.5-1.6.4-.3.8-.6 1.2-1 .7-.2 1.4-.3 2.1.2.4.2 1.1 0 1.7-.1.1 0 .3-.2.3-.2 1 .5 1.9-.3 2.9.1.4.2 1.1-.1 1.6-.1 1-.1 2-.1 3-.1.1 0 .2.1.3.1.6-.6 1.4 0 2.1-.3.2-.1.6 0 .9.1.2 0 .4.1.5.1.5-.4 1-.2 1.3.2 2.6-.7 5.2 0 7.8-.3.3-1.4.4-2.9.1-4.3 0-.1.1-.2.1-.4.1-.9.4-1.8.1-2.7-.1-.2.1-.5.1-.7.1-.9.2-1.8.2-2.8-.1-.7.1-1.4.4-1.9.2-.6.9-.9 1.5-.9h2.4c.6 0 1.2 0 1.7-.1.6-.1 1.1 0 1.6.2s.8.6.8 1.2c0 1 .2 2 .2 3.1 0 1.5-.1 2.9-.2 4.4 0 .6 0 1.2-.1 1.8 0 1-.1 2-.1 3.1.6.2 1.2.1 1.9 0 .2 0 .4-.1.6 0 1.1.5 2.1.2 3.2 0 .6-.1 1.2.1 2.1.2.9-.3 2.1-.4 3.4-.2.5.1 1.1.1 1.7 0 .8-.2 1.7-.1 2.5.1.3-.4.5-.8.7-1.2.8-.3 1.3.1 1.9.6 0 .4 0 .9.1 1.4v.2c.6 1 .1 2.1.5 3.1.1.2 0 .4 0 .6v2.7c.2 1.3.4 2.7.5 4 .1.5.1 1 0 1.4-.2.7 0 1.2.3 1.8.3.4.4.9.7 1.4-.6.4-1.1.8-1.7 1.3 0 .3 0 .7-.1 1.2-.4.3-.9.6-1.5.4-.1-.1-.3 0-.5.1-.8.5-1.6.3-2.4.1-.4.4-.7.5-1.3.4-.9-.2-1.8.1-2.7.1-.7 0-1.5-.1-2.2-.2-.2 0-.4-.1-.6 0-.9.3-1.9 0-2.8 0-.2 0-.3-.1-.5-.2-.5.5-1.1.4-1.7.3-.9-.2-1.9-.2-2.9-.3 0 1.7 0 3.3.3 4.9 1-.2 2 .2 3-.3.6-.3 1.4-.1 2.1-.1h1.9c.3 0 .6.1.9.1.2 0 .5.1.7 0 .5-.3 1-.1 1.5-.2 1-.1 2-.1 3 .1.3.1.7-.1.9-.3.5-.4.9-.3 1.4 0 .1.1.3.2.4.3 1.3 1 2.6 2 3.8 3.1 1.1 1 2.2 2.2 3.3 3.3.2.2.3.4.5.7s.4.6.6.8c.8.6.9 1.7.2 2.4-.3.3-.7.4-.9.6-.3.5-.8.8-1 1.4-.3.9-1.1 1.6-1.9 2.2-.6.4-.9.8-1.1 1.5-.2.1-.7.1-.7.2-.3 1.2-1.6 1.3-2.2 2.2-.3.4-.9.6-1.4.9-.2.1-.5 0-.6-.4-.2-.7-.3-.7.1-1.7-.6 0-.3.6-.4.6-.5.4-.9.7-1.3.9-.5.4-1.2.4-1.8.4h-1.6c-.5 0-1-.2-1.5-.3-.4 0-.7.1-1.1.1h-.7c-1-.1-2-.1-3-.2-.2 0-.5 0-.7-.1q-.75-.3-1.5 0c-.2.1-.5 0-.8 0-.3.8.5 1.8-.2 2.6.1.6.4 1 .2 1.6-.1.4.1.9.2 1.4.2.6.2 1.1-.4 1.3.1.4.2.6.3.9 1.6-.2 3.2-.4 4.7-.5 1.1-.1 2.2.1 3.3.1.2 0 .4-.1.6-.1 1-.1 2-.4 3.1-.1h2.1c.3 0 .7.1.9 0 .6-.4 1.3-.2 1.9-.3.5.7.6 1.4.8 2.2.3 1-.1 2 .1 3.1.2.7.3 1.3 0 2-.1.3 0 .8.1 1.2.1.6.2 1.1 0 1.7s-.3 1.2.1 1.8c.2.2.1.6.1.9 0 .5-.2 1-.1 1.4.2 1.2.1 1.6-.9 2.3-.2.1-.3.4-.4.6-.3 1.1-.8 1.6-1.9 1.4h-1.1c-1.2.1-2.3 0-3.5-.1-.1 0-.2-.1-.2-.1-1.3 1-2.8.7-4.3.7-.1.4-.2.7-.3 1.1.4.3.8.4 1.4.4.8-.1 1.7-.7 2.5-.2h.2c1.7-.6 3.4-.3 5.1-.6 1-.2 2 .3 2.9.3.3 0 .6.1.8 0 .3-.2.6 0 .9.1 1.1.5 2 .3 2.8-.5.7-.7 1.3-1.5 2-2.2l.7-.7c.2-.2.5-.4.7-.6.4-.7.7-1.4 1.6-1.6.1 0 .3-.2.4-.4.3-1.1 1.5-1.5 2-2.5.1-.2.6-.3.9-.4.4-1 1.2-1.6 2.2-2.1.4-.2.7-.5 1.1-.7.3-.2.6-.4 1-.6.2-.5.2-.9-.3-1.4-.4-.4-.4-.8-.1-1.3-.6-.4-.9-.9-1-1.6 0-.5-.2-1-.3-1.5-.1-.7-.2-1.5-.4-2.2-.2-.6-.4-1.2-.3-1.8 0-.2.1-.4.1-.7 0-.5.1-1.1-.1-1.5s-.2-.8-.1-1.3.1-.9.1-1.4c-.1-.7 0-1.4.2-2.1.3-.9.5-1.9.5-2.9v-.2c.5-.6.5-1.4.8-2 .6-1.2 1.2-2.3 1.9-3.4.4-.6 1.1-1.1 1.6-1.7l.8-.8 1.9-1.9c.1-.1.3-.3.4-.2.7.1 1.1-.4 1.6-.8.8-.7 2-.8 2.9-1.3.1 0 .1 0 .2-.1 1.3-.5 1.3-.5 2.2.3 1.4 0 2.7-.3 4.1 0 .3.1.6 0 1 0 .2 0 .5 0 .7.1.6.4 1.3.5 1.9.3 1 .6 2 1.1 3.2 1.2.2 0 .4.1.5.2.3.1.5.3.8.4.2.1.4.1.4.2.3.4.7.6 1.2.8.8.4 1.6.9 2.3 1.4.5.4.9.9 1.2 1.4 1 1.5 1.9 3.1 2.8 4.7.4.8.5 1.7.7 2.6.3 1.3.7 2.5 1 3.8.2.8.2 1.6.2 2.4v1.4c0 1.6.1 3.2-.4 4.7-.1.4-.2.8-.4 1.1-.4.7-.9 1.3-1.4 2-.1.2-.1.4-.3.7.7.3 1.3.6 2 .9.4.2.8.2 1.1.4 1 .5 2.1 1 3.1 1.5.4.2.8.5 1.1.8.5.6 1.3.5 1.8.9 1 .7 1.7 1.7 2.5 2.7.7.8 1.1 1.6 1.7 2.4.4.6.8 1.2 1.2 1.9.3.5.5 1 .9 1.3.5.4.5 1.1.9 1.5.5.6.9 1.3 1.2 2 .5 1.3 1.1 2.6 1.6 3.8-.4.8-.7 1.5-.5 2.4.1.2-.1.5-.2.7-.2.9-.4 1.8-.1 2.7.1.1 0 .3 0 .5-.2 1.1-.4 2.3-.3 3.4.1 1.3-.1 2.6-.4 3.9-.1.5-.1 1.1-.1 1.7 0 .9-.1 1.8-.1 2.7 0 .3-.1.6-.2 1 .3.5.5 1 0 1.6-.1 1.7-.2 3.3-.2 5v1.5c-.1 1-.3 2-.1 3.1.1.6-.3 1.4-.6 2-.1.3-.7.3-1.1.5 0 .7-.3 1.5-.1 2.2.1.1.1.3 0 .4-.7 1.2-.3 2.7-1.1 3.9-.5.7-.7 1.7-1.1 2.5s-.9 1.5-1.4 2.2c-.2.4-.5.7-.8 1-.2.2-.5.4-.7.6l-1.5 1.2q-1.05.6-2.4 1.2c0 .7-.1 1.5-.1 2.3 0 1.6 0 3.3.1 4.9 0 1-.5 2 .2 2.9.1.1 0 .4 0 .6-.1 1.1-.2 2.2-.2 3.2 0 .5.2 1 .1 1.5-.2 1 .3 2 0 2.9-.3 1-.1 1.8-.1 2.8 0 .6.1 1.2-.2 1.8-.1.2 0 .5 0 .7.1.9.3 1.7-.1 2.6-.1.3 0 .6 0 .9 0 .4-.1.7-.2 1.1v.3c0 .9 0 1.9.1 2.8 0 .4.1.8.2 1.2 0 .2.1.6 0 .6-.5.4-.3 1-.4 1.5-.1.9 0 1.8 0 2.7-.3.2-.5.3-.9.5 0 .4 0 .8.1 1.2.2.8.3 1.7.3 2.6 0 .5.1 1.1.3 1.6.2.4.1.8 0 1.2-.1.8-.1 1.7-.1 2.5 0 .3-.1.5-.1.6.4.2.8.5 1.1.7-.1-1.1 1-2.2 2.3-2.1.6 0 1.1.1 1.7.2.1.1.2.3.3.5.6.2 1.1.3 1.6.5.1 0 .3-.1.5-.1.3 0 .6 0 .8.1.3.2.6.2.9.2s.5.2.8.2c.6.1 1.2.3 1.9.4.7 0 1.3.3 1.9.6l.1.1c.7-.3 1.3.3 2 .4s1.3.3 2 .5c.1.2.3.4.5.6.8 0 1.6.1 2.4.1.4.6.9 1.1 1.8.9h.4c.9.4 1.9.8 2.8 1.1 1.4.5 2.7 1.2 4.1 1.7 1.1.4 2.1.9 3.2 1.2 1.1.4 2.1.6 3 1.3.1.1.3.1.5.1s.4-.1.5 0c.8.8 2.2.6 3 1.4.4.4 1.2.5 1.8.6.2.1.4 0 .5.1 1 .9 2.5.8 3.5 1.8.4.3 1 .1 1.3.6v2.1h-1.4zM125.6 31c.4-.1.9-.4 1.3-.4 1.7-.1 3.4-.3 4.9.7.5.4.9.8 1.2 1.3.3.6.6 1.3.9 1.9.1.2 0 .5 0 .8-.1.5-.2 1.1-.2 1.6 0 .4-.3.8-.6 1.1-.6.8-1.3 1.6-2.4 1.9-.7.2-1.3.6-2 .9.1.5.1 1 .2 1.5.1.4 0 .6-.3.9-.2.1-.3.2-.5.4-.7.6-1.5.5-1.9-.3-.3-.6-.4-1.2-.2-1.8.1-.5.3-1 .3-1.5.1-1.1.5-1.5 1.6-1.6 1-.1 1.6-.7 2.5-1 .3-.1.6-.5.6-.9.2-.8.2-1.7.3-2.5-1-1-2.1-1.4-3.4-1.2-.8.1-1.4-.3-2-.5-.5-.2-.5-.8-.3-1.5M129.1 49.1c-.1.2-.2.5-.5.7-.3.3-.7.6-1.1.6-1.2.2-2-.8-1.7-2s.9-1.7 2.1-1.7c.4 0 .7.2.8.6.1.5.2 1 .4 1.7"/><path d="M80.1 127c.2 0 .5.1.7.1.5.1.7.5.8 1 0 .5-.4.7-.8.8-.5-.2-.9-.5-1.1-1 .1-.3.3-.6.4-.8M96.6 50.6c.2-1 .1-1.2-.7-1.5-.6-.2-1.3-.4-2-.5-.5-.1-1 0-1.2.7.1.2.1.5.2.7.2.8.2.9 1.1 1s1.8-.1 2.6-.5zm-4.2 2.1c0-.1-.1-.3-.1-.5 0-.8-.7-.9-1.2-1.1s-.9.1-1.3.4c-1.2 1.1-1.6 2.6-2 4-.1.4-.4.8-.3 1.2.2.7 0 1.4.1 2 .2.7.3 1.3.3 2 0 .9.6 1.7 1 2.5.4.9 1.2 1.3 2.2 1.4.7-.7.7-1 .4-1.7-.6-1.3-1.3-2.6-.9-4.1 0-.1-.1-.1-.1-.2-.2-2.2.7-4.1 1.9-5.9m13.1 18v-.9c-.4.4-.5 1.1-1.3.9-.1 0-.3.3-.4.4-.1-.1-.2-.3-.4-.4-.3.5-1 .9-1.6.8-.5-.1-.9 0-1.3.4-.7-.5-1.4-.6-2.2-.3-.3.1-.8.1-1.1 0-1.5-.4-3-.7-4.4-1.2-1.2-.5-2.5-1.1-3.3-2.3-.5-.7-1.3-1.2-1.9-1.9-.2-.2-.3-.4-.5-.6-.1-.2-.2-.5-.4-.7-1.2-1.4-1.4-3-1.5-4.7 0-.9-.1-1.8-.1-2.8 0-.4.1-.9.3-1.3.5-1.3 1-2.6 1.8-3.8.6-.8 1.3-1.4 1.7-2.3.1-.2.2-.3.3-.4 1-.6 1.6-1.8 2.9-1.9.2 0 .3-.2.5-.3.1-.1.2-.3.3-.3 1.3-.1 2.3-1.5 3.8-1.1.2 0 .4.1.5 0 1.2-.7 2.5-.2 3.7-.2 1.3 0 2.5.5 3.7.9.8.3 1.6.5 2.3.8.2.1.5.1.6.3.5.8 1.4 1.1 2.2 1.6.2.1.5.3.5.4.1.7.8.8 1 1 .3.8.5 1.3.6 1.8s0 1.1 0 1.8c.1.1.3.3.3.8-.1.4.2.8.7.9-.2.2-.4.3-.5.5s0 .4 0 .6c.1.6.2 1.3.2 1.9 0 .2 0 .5-.2.7-.4.6-.1 1.2-.3 1.9.9-.3 0-1.1.7-1.4.1.4.3.7.4 1-.2.7-.5 1.3-.7 2.2q.15-.15 0 0c-1 .8-1.1.8-1.1 1.9 0 .8-.2 1.3-.7 1.8-1.1 1.2-2.3 2.1-3.8 2.7-.4.2-.8.5-1.5.9zM95.9 97.7c.4-.4.8-.7 1.4-.4.1.1.3 0 .4 0h2c1 .1 2.1 0 3.1.2 1.1.3 2-.5 3.1-.2.6.2 1.4-.1 2.1-.1.4 0 .8-.1 1.1-.2.1-.3.2-.6.1-.8-.2-1.3-.4-2.7-.6-4-.1-.7.1-1.4-.3-2v-.3c.4-.7 0-1.4-.1-2-.1-.4-.3-.9-.2-1.3.1-.6.1-1.1-.1-1.6-.1-.1-.1-.3-.1-.5.2-.8.2-1.6-.1-2.4-.1-.2 0-.5-.1-.7-.2-.4-.6.1-.8 0-.4-.2-.7.1-1.1.1-.7 0-1.4 0-2.1.1h-.8c-.6.1-1.3.3-1.9.2-.7 0-3.2-.2-3.8 0-.5.2-.9-.2-1.4-.1-.5 0-1 .3-1.5.3-.8-.1-1.5 0-2.2 0-.7.1-1.4.2-2.2.3.1.4.2.8.2 1.2-.1 1.1.5 2.2.3 3.3.6.8.3 1.6.1 2.4v.5c.4 1.2.3 2.4.4 3.7 0 .3-.1.5-.2.8.7.9.1 2 .3 3 .2.3.5.4 1 .4.5-.1 1-.1 1.5-.1.1 0 .3.1.4 0 .6-.5 1.2-.2 1.9.3zm12-18.5c.7.3 1.2.6 1.7.8 0-.1.1-.1.1-.2.2.3.3.6.4.8.4.2.8.2 1.1.5.2.2.3.6.4.9.1.5 0 .9 0 1.4 0 .3.3.6.2.8-.1 1.3.2 2.6.3 4 .1 1.7.1 3.5.2 5.2.1 1.3.5 2.6.4 3.9-.1.7-.4 1.3-.9 1.7-.4.4-.9.7-1.3 1.1-.4.3-.8.5-1.3.4h-.6c-.6.2-1.3.3-2 .1-.2-.1-.5-.1-.7 0-1.4.3-2.8.4-4.1 0h-.2c-1.1.6-2.3.3-3.4.5-.8.1-1.7 0-2.5 0h-2.3c-.4 0-.7 0-1.1-.1-.9-.2-1-.5-.5-1.4h-1.9c-.9-.7-.7-1.6-.9-2.5-.1-.4 0-.9-.1-1.4-.1-.6-.3-1.2 0-1.8.1-.2 0-.5 0-.7-.1-1-.1-2-.2-2.9 0-.2-.1-.4-.2-.6s-.2-.4-.2-.6c-.1-1.9-.1-3.8-.2-5.7 0-.6-.1-1.2-.2-1.9-.1-1.1.5-1.9 1.7-1.9 1.8-.1 3.6-.1 5.5-.2.7 0 1.4-.1 2.2-.2.2 0 .5-.1.6.1.6.5 1.3.2 1.9.1 1.1-.2 2.1-.3 3.2-.3h.2c.6-.5 1.3-.2 1.8-.1 1.1.1 2.1 0 2.9-.1zM83.7 99.4c.8.6 1.1 1.2.9 2-1.6.4-1.8.2-1.8-1.2.3-.2.5-.5.9-.8M83.8 78.4c.3.3.6.5.9.8-.5.4.2 1.2-.7 1.6-.3-.2-.6-.3-1-.5-.1-.7.1-1.3.8-1.8M84.6 103.9v1.6c-.4.1-.8.3-1.3.5-.1-.6-.2-1.1-.4-1.7.6-.1 1.1-.2 1.7-.4M120.4 111.4c.2-.4 0-1 .7-1 .4 0 1 .4 1 .8s.2.9-.3 1.1c-.8.3-1-.5-1.4-.8M83.8 110.4c-.5-.5-.5-1.2-.5-1.7-.1-.5.4-.7.8-.4.8.6.7 1.6-.3 2.1M123.3 99.7c.5.1 1 .2 1 .9 0 .5-.2.9-.7 1s-.7-.2-.9-.5c-.4-.7.3-1 .6-1.4M122.2 96.6l.6-.6c.6 0 .9.1 1.4.1.1.4.2.9-.3 1.3-.4.3-1.2 0-1.8-.8M82.8 84.3c.2-.5.4-.8.6-1.2.4-.2.8.1 1.1.5-.1.4-.2.8-.3 1.4-.6-.3-1-.5-1.5-.7M83.1 97.4l-.3-.9c.4-.4.8-.7 1.4-.6.4 1.3.2 1.6-1 1.5M124.1 92.9l-1.2.3c-.1 0-.1 0-.2-.1-.2-.6-.2-1.1.4-1.4 1 .3 1 .3 1 1.2M84.1 87.1c-.1.8.2 1.5-.6 1.9-.4-.2-.8-.4-.7-.9.1-.6.6-.7 1.3-1M84 92.9c-.4-.1-.8-.2-1.1-.3.1-.3.1-.6.2-.8.1-.1.3-.3.5-.3.2.1.4.3.4.4.1.2 0 .5 0 .9M83.8 74.9c.6-.1.6-.1 1.1.6-.2.2-.3.4-.5.7-.2-.1-.4-.1-.6-.2 0-.4.1-.8.1-1.2M122.2 106.9c-.4 1-.5 1-1.3.7.1-.3.2-.6.3-1 .3.1.6.2 1 .3M121.3 114.8c.5-.3.7-.1.8.3s.5.9-.4 1.2c-.1-.2-.2-.5-.2-.7-.1-.2-.1-.4-.2-.8M123 104c.6.5.6.6.2 1.4-.7-.4-.7-.5-.2-1.4M106.5 154.2c.3.3.5.7.7 1 .4.6.3.9-.4 1.2-.4.2-.8.1-1.1-.1-.6-.3-.7-1.2-.1-1.6.2-.1.4-.2.9-.5M83.8 123.8c.4-.8.9-1.2 1.3-1.1.4.2.6.5.6 1 0 .6-.4 1.2-.8 1.3-.8.1-.7-.8-1-1.1M79 153.1c.4.1.8.3 1.2.4.2 1.1-.1 1.5-1.2 1.6-.8-1.1-.8-1.3 0-2M80.5 162.4c-.3.5-.5 1-1.2 1-.4 0-1-.5-1.1-.9-.1-.5.2-.7.6-.9.5.2 1.3 0 1.7.8M82.8 124.7c.5.4.8.9.8 1.5-.9.3-1.5.2-2.1-.2.1-.7.5-1.1 1.2-1.4M106.7 158.9c.1.3.3.6.4.9.2.3.2.6-.1.8-.3.3-1 .4-1.2.2q-.3-.3-.3-.6c0-.5.5-1.1 1.2-1.3M78.5 150.8c.1-.7.5-1.1.9-1.5.1-.1.6 0 .7.1.2.3.2.8.3 1.1 0 .1-.2.4-.4.4-.5 0-1-.1-1.5-.1M83.6 122.2c-.2.1-.5.3-.7.5-.3-.1-.6-.2-.8-.3-.2-1.1-.1-1.1.8-1.5.8.5.8.5.7 1.4M82.7 129.1l.9.3c0 .5.2 1-.3 1.4s-.9 0-1.3-.1c-.3-.8.4-1.1.7-1.6M80.5 155.9c.4-.3.8-.6 1.1-.8.9.8.9.9.1 1.9-.3-.1-.7-.2-1-.3-.1-.3-.1-.5-.2-.8M79.9 132.7c-.2-.9.1-1.5.6-1.6s.6.1.9 1.2c-.4.6-1 .4-1.5.4M79.4 157.6c.5.2.7.6.7 1.1-.3.1-.5.3-.8.4-.2.1-.5.1-.6 0s-.2-.4-.2-.6c.1-.4.4-.8.9-.9M85.1 118.6c-.1.5-.1.9-.2 1.3-.1.2-.4.5-.5.5-.2-.1-.5-.3-.6-.6-.2-.7.1-1 1.3-1.2M82 164c-.2 1.1-.2 1.1-.9 1.4-.2-.2-.3-.5-.5-.8.2-.3.3-.7.5-1.1.4.2.6.3.9.5M105.9 152.3c-.3-1 .4-1.3.8-1.7.6.1.6.6.5 1-.1.7-.8.5-1.3.8M109.4 165.4c0 .5.1.8.1 1.1-.4.1-.8.3-1.1.4-.2-.2-.4-.3-.6-.5.1-.3.2-.6.3-1 .2.3.3.4.5.6.2-.1.4-.2.8-.5M107.7 162.5c-.1-.9 0-1.1.9-1.4.2 1.1 0 1.4-.9 1.4M81.6 159.5c0 .4 0 .7-.1.9s-.4.4-.6.4c-.1 0-.4-.3-.4-.5s.1-.5.3-.7c.2-.1.5-.1.9-.2M82.6 135c-.3-.3-.5-.5-.8-.7.2-.4 0-.9.6-.9.4 0 .5.4.4 1.1 0 .1-.1.2-.2.5M84.2 128.6c-.7-.7-.7-.9.1-1.6.5.4.5.4-.1 1.6M108.6 158.6c-.9-.3-.9-.3-.8-1.1.9 0 1 .1.8 1.1M40 23.5c.4-.6.9-.7 1.2-1.1.4-.4 1.2-.5 1.9-.6.6-.1 1.1.4 1.5.7l.3.3c1 1.2 1.5 1.4 2.9.6 1.1-.6 2.3-.9 3.5-.9.3 0 .7.2 1.1.3.5.2 1 .5 1.6.3.4-.1 1.1 0 1.4.3.4.5.8.1 1.2 0 0 .2.1.4.1.5v.5c.3.3.9.1 1 .8-2.4 0-4.8.2-7.1-.6-.5.3-1 .8-1.7.7-.2 0-.4.2-.5.3s-.3.3-.4.3c-.8-.1-1.6.3-2.4-.1-.9-.4-1.5-.8-1.9-1.7l-.2-.2c-.2.1-.5.3-.8.5-1.1.7-2.2 1.5-3.6.9-.5-.2-.9-.6-1.3-1-.4-.5-.7-1.1-1.1-1.7-.1-.1-.2-.1-.3-.2-.2.1-.5.1-.6.2-.6.6-1.3.7-2 1h-.2c-.8 1-1.8.5-2.7.4h-.3c-.3.4-.8.7-.8 1.4 0 .1-.3.3-.4.5-.3.2-.5.3-.8.5-.2.1-.5.2-.7.4 0-.1-.1-.1-.1-.2.1-.1.3-.2.5-.4-.2-.4-.5-.8-.7-1.2-.1-.5.3-.6.8-.7 0-.7.1-1.3.9-1.7-.2-.5-.4-.9-.6-1.3 0-.4.1-.8.1-1.2.1-.8.2-.9 1-1h.3c1.1-.1 1.7.6 1.3 1.7-.2.4-.2.7.1 1H33v-.1l.9-.3c.3-.1.6-.2.8-.4.4-.4.9-.5 1.4-.7.4-.2.8-.2 1.1.1.6.4 1.2.8 1.6 1.5.3.5.8.9 1.4 1.5M26.8 19.8c-.3.5-.4.9-.2 1.4.1.2.1.5 0 .7-.4.9.1 1.6.6 2.4-.4.3-.7.7-.5 1.2.1.4.4.7.6 1-.1 0-.1.1-.2.1-.5-.2-1-.4-1.4-.8-.6-.5-.8-1.3-.7-2s.2-1.3-.2-2c-.3-.6 0-1.4 0-2.2s.8-1.2.9-2c.4 0 .7.1 1 .1l.9 1.2c0 .6-.2.9-.8.8M30.9 47.5c-.2.4-.3.8-.5 1.3.6-.2.9-.5 1.1-.9.4-.6.8-1.3 1.2-1.9.3-.4.8-.3 1.1-.1.2.1.3.5.4.7 0 .3-.1.6-.2 1 .2 0 .3.1.4 0 .4-.6 1-.7 1.6-.9 1-.3 1.7-1.1 2.3-1.8.8-.2 1.4-.4 2-.5.3-.1.8 0 1.1.1 1 .5 1.9 1 2.3 2.2 0 .1.1.2.2.3.6-.1 1-.3 1.3-.9.5-.7 1.2-1.2 2-1.5.8-.2.9-.2 1.5.5-.1.6-.2 1.2-.4 1.8 1.9.3 2.9-.9 3.9-2.1 1.3-.1 1.4-.1 1.7 1 .2.5.3.7.9.5s1.2-.1 1.9-.2c.2 0 .4 0 .5-.1.9-.8 1.7-.2 2.6.2-.1.4-.2.7-.3 1.1-.3-.1-.5-.2-.8-.4v.6c-.9.3-1.7.6-2.5.7-1 .2-2 .6-3.1-.1-1.2-.7-1.8-.5-3 .9-1-.1-2.1-.2-3.2-.2-.2-.3-.3-.6-.5-1-.4.2-.9.4-1.3.7-.6.4-1.1.6-1.9.3-.6-.7-1.4-1.3-2-2.1-.5-.7-1.3-.5-1.6.2q-1.05.6-1.8.9c-.5.2-1 .5-1.7.4-.4.7-.9 1.1-1.9.8-.3-.1-.7.3-1.2.1-.1-.1-.6.4-.7.7-.3.7-.8 1-1.4 1h-1.3c-.2 0-.6-.2-.6-.4-.1-.7-.5-1.4-.2-2.1.2-.4.4-.8.6-1.3.6-.2 1.2-.5 1.8.2M29.8 76c-.6-.3-1.1-.4-1.4-.8-.8-.8-1.7-1.5-1.4-3 .3-.1.6-.2.9-.4.7.7 1.3 1.2 2 1.9.2 0 .6 0 .9.1l.6.6c1.2-.2 1.8-1 2.6-1.7 0-.7.6-1 1.1-1.4.2-.1.4-.2.5-.2.8.6.8.6.7 1.4h.4c0 .4-.2 1 .3 1.2.3.1.7 0 .9 0 .4-.6.6-1.1.9-1.6.3-.4.7-.8 1-1.3.3-.4.7-.5 1.2-.4.2.3.3.6.6.8.3.3.4.6.5 1 .1.6.3 1.2 1 1.2 1.2-.8 2.4-1.6 3.6-2.3.6.5 1.2.7 1.9.7.2 0 .4.2.6.3.8.2 1.6.6 2.5.4 1.2-.3 2.4-.2 3.6-.3.7-.1 1.4-.2 2.2-.3v.4c.2 0 .4.1.7.1-.1.2-.1.3-.1.3-.5.6-1.3.7-2 .9-.8.2-1.6.4-2.4.5-.5.1-1.1.1-1.6.1-.2 0-.5-.1-.7-.2-.5.2-.9.6-1.5.1-.1-.1-.5.1-.8.1-.5-.7-1.5-.6-2.2-.9-.4.3-.9.6-1.3.9-.1.1-.3.2-.4.3-.5 1-1.3.9-2.2.8-.3 0-.5-.1-.8-.1-.7.1-1.1-.3-1.4-.9-.1-.3-.3-.6-.5-.9-.2 1.1-1.1 1.4-1.7 2.1-.3.4-1.1.6-1.6.5s-1-.6-1.5-1c-.3-.2-.4-.6-.6-.9-.6 1.1-1.4 1.9-2.7 2-.7.1-1.3 0-2-.1h-.6M46.9 163c-.8.1-1.3 0-1.7-.6-.2-.3-.4-.7-.1-1 .3-.2.7-.5 1-.4.3 0 .6.4.7.8s0 .8 0 1.3M44.6 137.1c.2-.4.3-.7.5-1 .4-.7 1.1-.7 1.4 0 .1.3.2.6.2.9-1.4.9-1.4.9-2.2.1M44.6 124.1c.2-.4.3-.6.5-1.1.3.1.7.1 1 .3.2.1.4.4.5.7.2.4-.1.7-.5.9-.6.2-1.1 0-1.5-.8M46.7 115.5c0 .7-.4 1.1-1 1.1-.5 0-1-.4-1-.9 0-.6.6-1.1 1.3-1.1.4 0 .7.3.7.8M46.5 158.4c-.6 0-1.3.4-1.7-.3-.2-.4 0-.9.3-1.2.3-.2 1-.1 1.3.2.4.3.4.6 0 1.3M45.9 131.7c.5 0 .9.4.9.9 0 .4-.7 1-1.1 1s-.6-.4-.6-1.1c0-.5.3-.8.9-.8M46.3 175.2c-.6.2-1.1 0-1.4-.5.1-.4.1-.9.7-1 .4-.1.8-.1 1 .3.3.5 0 .9-.2 1.2M46.4 169.4c.7.8.7.8.1 1.3-.2.2-.4.4-.5.6-.6-.2-1-.6-.9-1.2.1-.8.9-.4 1.3-.8M45 128.6c.1-.3.2-.5.3-.8h1.3c.3.5.5.9.1 1.3-.3.3-.9.1-1.7-.5M44.7 149.2c.2-.2.3-.5.5-.7 0 0 .1-.1.2-.1s.3 0 .4.1c.3.1.9.1.8.6-.1.4-.5.7-.8.9-.2.1-.5.1-.6-.2-.1-.2-.3-.4-.5-.6M45.3 165.4h1.3c0 .3-.1.6-.1.9-.1.6-.5.8-.9.7-.3-.1-.6-.6-.6-1.1 0-.2.2-.4.3-.6M45.7 141.8c-.2-.3-.4-.5-.7-.9.4-.3.4-1.1 1.1-.9.3.1.5.5.6.8.1.4-.3.7-1 .9M46.3 120.4h-1.1c-.5-.9.4-1.1.5-1.6 1 .3 1.1.8.5 1.6M45.3 99.8c-.2-.6-.3-1-.4-1.4.4-.3.7-.6 1.1-.9.2.6.3 1.2.5 1.8-.3.1-.7.2-1.2.4M46.3 177.9c.3.9.1 1.4-.5 1.9-.6-.5-.7-1-.5-1.8.4 0 .7-.1 1.1-.1M45.2 110.6c1.2-.1 1.2 0 1.2 1.5-.5-.1-1-.1-1.3-.3-.2-.2 0-.8 0-1.2M46.1 108.1c-.4-.2-.7-.3-1-.4v-.8c.3-.1.6-.2.9-.4.3.1.6.2 1 .4zM46.4 145.7l-1.5-.3c.3-.5.5-.9.8-1.3 1.1.4 1.3.8.7 1.6M45.9 103.8c-.9-.6-.9-.6-.3-1.7.4 0 .7.2.8.6.1.5-.1.9-.5 1.2M47.6 167.4c.5.5.6 1 .4 1.6-.5.2-.9-.1-1-.5-.2-.5.2-.8.6-1.1M46 152.7l.3 1.2c-.5 0-.8-.1-1.2-.1-.1-.9-.1-.9.9-1.1M59.6 92.1c-.3-.3-.6-.7-.9-1.1.3-.3.5-.6.8-.9.3-.2.6-.4.9-.1s.5.6.4 1.1c-.2.6-.5.9-1.2 1.1M75.7 90.2c.6-.5 1.1-.5 1.6-.1.3.2.5 1 .3 1.3-.4.5-.9.6-1.5.4-.1-.5-.2-1-.4-1.6M63 88.3c-.1.3-.1.6-.2.8-.2.3-.5.7-.7.7-.4 0-.8-.3-1.1-.6s-.1-.7.2-1c.5-.4 1.1-.3 1.8.1M65.2 94.9c-.6 1.4-1 1.4-1.9.2-.1-.8.4-1 1.1-1.3.3.3.5.7.8 1.1M63.2 90.1c.6.1 1.2-.4 1.6.3.3.5.1.8-.3 1.2-1.4.2-1.7 0-1.4-1.5M66.3 94.2c-1-.4-1.1-.6-1-1.6.3-.2.6-.3 1-.5.9.6.9.7.3 1.5zM57.4 93.4c-.1 0-.2.1-.4.1-.3-.3-.3-.6-.1-1 .5-.7 1.1-.4 1.8-.1-.2.5-.4 1.1-.7 1.9-.3-.4-.5-.7-.7-.9M77.7 82.5c-.1.2-.2.4-.3.5-.2.2-.6.5-.7.4-.3-.2-.6-.5-.6-.8-.1-.4.1-.8.2-1.1 1-.2 1.2.5 1.5 1.1M69.7 87.8c.6.1 1.1.2 1.6.3.1.8 0 1.4-.6 1.9-.7-.5-1.2-1.1-1-2.3M66.3 89.9c-.4-.3-.7-.5-.9-.8-.3-.3-.2-.9.1-1.2.4-.4.8-.1 1.1.1s.6.6.3 1c-.2.3-.3.5-.6.9M79.4 79.6v1.8c-1.1-.1-1.6-.4-1.5-1.2.1-.6.2-.7 1.5-.6M62.3 94.1c-.4-.5-1.3-.7-1-1.6.8-.5 1-.5 1.4 0 .4.6.4 1-.3 1.7M67.3 91c.1-.3.3-.6.5-1 .5.2.9.4 1.2.5.3.8-.3 1-.6 1.4-.7-.2-.7-.2-1.1-.9M67.2 86.8c.3-.3.6-.5.9-.8.6 0 1 .2 1 .8 0 .3-.5.8-1 .9-.4.1-.5 0-.9-.8M74.6 87.8c.2.3.5.6.7.9.1.2.1.5 0 .6-.1.2-.4.3-.6.2-.4-.1-.7-.2-1.1-.4.1-.7.1-1.3 1-1.4M59.2 87.6c-.3-.9 0-1.5.7-2 .6.4.7.9.3 2h-1M64.6 86c.2.6.4 1.1-.1 1.5-.1.1-.6 0-.8-.2-.4-.2-.5-.7-.3-1.1.2-.6.7-.3 1.2-.3M77.5 86.2c0 .8-.1 1.3-.6 1.8-.3-.4-.6-.7-.9-1s-.1-.7.3-.8.8 0 1.2 0M69.3 94.8c-.2 1-.7 1.4-1.4 1-.2-.1-.3-.4-.3-.6s.2-.4.4-.5c.4-.2.8-.2 1.3.1M71.1 93.6c-.9.4-.9.4-1.6-.8.2-.7.7-.5 1.2-.5.1.4.2.8.3 1.3M71.8 91.7c-.4-.8-.2-1.3.8-1.6.2.4.4.8.6 1.3-.6.2-1 .3-1.4.4M74.5 92.1c.4.3.7.5 1 .8-.2.5-.3.9-.8 1.1-.6-.6-.7-1-.2-1.8M59.7 94.4c.8 0 1.1.3 1.1.8s-.2.6-1 .6c0-.4-.1-.9-.1-1.3M58 89.5c-.6-.1-1-.3-1.1-.8 0-.3.2-.4.9-.5 0 .4.1.8.1 1.3M45.2 62.4c-.3.8-.8.9-1.5.8-.2-.7-.1-1.1.3-1.3.6-.3.9.1 1.2.6M45.1 58.5c-.5.2-.9.4-1.4.7-.1-.5-.2-.8-.4-1.3zM44.6 35.7c-.6-.4-1.1-.8-1-1.6.3-.2.5-.3.8-.5.3.3.7.5 1 .8.2.6-.3.8-.8 1.2"/><path d="M104.9 88.6c-.1.7-.6 1-1.1 1.1s-1 .1-1.5.1c-.7.4-1.5.5-2.4.4-1.3-.2-2.7.1-4.1.2-.3 0-.5.1-.8.1-.8 0-1-.2-1.4-1.1.4-.8 1.2-.8 1.9-1 .8-.2 1.5-.3 2.4-.3 1.1 0 2.2-.3 3.3-.3 1 0 2 .1 2.9.2.3 0 .5.4.8.6M100.2 86.5c-.3.1-.5.1-.8.2-.9.2-1.6-.5-1.4-1.4q.3-1.05 1.2-1.5c1.6.8 1.7 1.3.9 2.6M103.3 86.6c-.6 0-1.2-.5-1.2-1.1 0-.7.7-1.6 1.4-1.7.4 0 1.2.9 1.3 1.6 0 .5-.7 1.2-1.4 1.2M95.4 86.5c-1.5.5-1.7.4-2.4-1.2.5-1 1-1.3 1.7-1s.9 1 .7 2.2M141.7 151.4v.1h.1zm-4.8 0h-.1v.3h.1zm5.9-.4s0 .1 0 0c.1.1 0 0 0 0m-2.5 7.7c-.2-.5-.6-1-.4-1.6v-.2c-.2-.6 0-1.3 0-2v-1c0-.3-.1-.7-.1-1.1-.1 0-.3 0-.4-.1-.2.4-.4.8-.7 1.2-.3.5-.8.8-1.1 1.3l-1 1c-.4.1-.4-.3-.5-.5s-.2-.4 0-.6c.4-.5.7-.9 1.1-1.4.4-.4.8-.8.9-1.4-.8 0-1.5.1-2.3-.1-.5.4-1.1.2-1.7.2-.4 0-.8 0-1.3-.1.1 0 0 0 0 0-.2-.2-.4-.3-.3-.6s.5-.7.7-.7c.5 0 1.1-.3 1.6 0 .2.1.5-.1.7-.1s.3 0 .3.2c0 .1-.1.1-.1.2h.1v-.2c.9-.1 1.8-.2 2.6-.3.2 0 .4.1.6.1-.8-.7-1.5-1.3-2.2-2l.3-.9h.8s.1.1.1.3c.4-.1.5.2.7.4s.3.4.5.6c.1.1.2.1.3.1.3-.4.2-.8 0-1.2.1-.4.5-.8 0-1.2.2-.3.3-.7.2-1-.1-.2-.1-.5 0-.7 0-.6.3-.9.9-1 .4.3.7.8.8 1.4-.1.2-.2.5-.1.9s0 .8-.1 1.2 0 .7.2 1.1c.4-.4.8-.8 1.1-1.2.3-.3.4-.7.9-.9.2-.1.2-.4.4-.5.2-.2.4-.3.6-.5.7.5.7.9.2 1.4-.3.3-.5.8-.8 1-.5.4-.6 1.1-1.2 1.5q-.6.45-.9 1.5l.5-.5c.7.1 1.4-.3 2.2-.1.1 0 .3-.2.6-.2.1 0 .2.2.3.3.1 0 .4-.2.4-.2.1.4.3.7.5 1.2h-1.4c-.2 0-.3.1-.5.2-.1 0-.2.1-.3.1-.6-.1-1.1.2-1.6.2h-.1c-.1 0-.2.1-.2.1l.1.1c0-.1.1-.2.1-.2l.3.3c.3.4.6.8 1 1.4-.2-.1-.3-.1-.4-.1 0 .3.1.6.5.7.2-.1.3-.2.5-.3l.3.3c-.4.3-.4.7-.1 1.2-.3-.2-.6 0-.6-.4-.4-.2-.6-.4-.5-.8-.3 0-.5-.1-.8-.1-.2-.4-.5-.8-.9-1 0 .5.1 1 .1 1.6 0 .2-.1.5-.1.7-.1.8 0 1.6 0 2.3 0 .2-.1.4-.3.5l-.6.3h-.3zM153.4 162.7h-.1c0 .1.1.1.1.2 0-.1-.1-.1-.1-.2zm-2.6 3.1h.1c.1-.2.1-.4.2-.7.1-.1.1-.3.2-.4.2-.1.3-.3.2-.5h-.6v1.5zm1.3-1.1q0 .6-.3.9c-.2.4-.4.8-.5 1.2l-.3 1.2c-.1.2-.1.5-.1.7 0 .3-.1.5-.1.8-.1.3-.1.7-.2 1 0 .2-.1.3-.3.4-.3.2-.5.1-.5-.3v-.1c.2-.3.1-.7.1-1.1 0-.3 0-.6.1-.9.1-.2 0-.5 0-.7 0-.5.1-.9.1-1.4v-2.2c-.2-.1-.4-.2-.7 0-.1.1-.3.2-.4.3-.3.2-.8.3-1.1.3-.2 0-.4-.1-.6-.2s-.4-.1-.6-.2-.4-.3-.6-.5c-.1-.1-.1-.3-.1-.5.3.1.4 0 .4-.2.3.3.7.5.9.7.2 0 .5-.1.8-.1-.3-.4-.6 0-.8-.2v-.3.1c-.1 0-.2-.1-.3-.1.1-.2.1-.3.2-.5.7.1 1.4 0 2.1.1.4-.4.5-.9.7-1.3.2-.5.2-.9.3-1.4 0-.2.1-.3.1-.5v-.5c0-.3-.1-.7 0-1q.15-.75 0-1.5c.1-.1.2-.2.2-.3 0-.4 0-.7.2-1.1.3-.1.3-.1.5 0-.2.4-.2.4.3.6-.1 0-.2.1-.2.1.1.6.4 1.1.3 1.7 0 .4 0 .8-.1 1.2 0 .2-.1.3-.2.5q.15.3 0 .6v.2c0 .3 0 .5-.1.7-.1.1 0 .2 0 .3 0 .3-.1.6-.1.9v1c.4 0 .9-.1 1.3-.1.1 0 .2-.1.3-.1.3-.2.5-.4.8-.6s.5-.2.8-.1c.2.1.2.2.1.5l-.3.6c-.2.2-.4.3-.7.4-.2.1-.4.1-.6.1v-.1c-.1.1-.2.3-.3.4-.1.2-.2.3-.4.3z"/></g></svg>