<svg xmlns="http://www.w3.org/2000/svg" viewBox="0 0 186 279"><title>  astronaut-2-solo</title><g fill="none"><g fill="#383747"><path d="m65.9 36.9c-0.3 0.1-0.5 0.3-0.8 0.4 0 0.3 0.1 0.6 0.1 0.9l0.8-0.4c-0.1-0.3-0.1-0.6-0.2-1l0.1 0.1zm0.2 20.2c0 0.6-0.1 1.1-0.1 1.7 0.7-0.4 0.9-1 1.1-1.6-0.4 0-0.7-0.1-1-0.1zm-5.2-24.1c1.8-0.1 3.1-0.5 3.7-1.7 1-0.6 1.7-0.3 2.4 0.1 0.3-0.3 0.6-0.5 0.9-0.7-0.3-0.7-0.3-0.7 0-1.5 0.1-0.2 0-0.4 0-0.6-0.3 0-0.6-0.1-0.8-0.1-0.3 0-0.7 0-1 0.1-1 0.3-1.9 0.9-2.9 1.1-0.8 0.2-1.1 0.9-1.2 1.4-0.1 0.7-0.3 1.2-1 1.8l-0.1 0.1zm72.7-12c1.3-1 1.8-3 3.6-3.7-0.1-0.1-0.2-0.1-0.3-0.1-2.6 0.4-5.2 1.1-7.8 1.4-1.3 0.1-2.6 0.4-3.9 0.6 0.5 0.3 0.3 0.9 0.5 1.4 0.2 0.4 0.3 0.7 0.1 1.1-0.2 0.6 0 0.7 0.6 0.8s1.1-0.3 1.6-0.4c1.2-0.2 2.3-0.9 3.6-0.5 0.1 0 0.2 0 0.3-0.1 0.6-0.2 1.2-0.3 1.7-0.5zm-48.5 111.5c0.2 0 0.3-0.1 0.4-0.1 0.6-0.1 1.2-0.4 1.7-0.2 0.8 0.3 1.4 0.1 2.1-0.2 0.6-0.3 1.1-0.3 1.8-0.2s1.5 0.5 2.2 0c0.6-0.4 1.2-0.4 1.8-0.2 0.3-0.2 0.6-0.5 0.9-0.6 1-0.1 2-0.1 3-0.2 0.5 0 0.9-0.1 1.3-0.2-0.1-1-0.2-1.7-0.3-2.5-0.1-0.7-0.1-1.5-0.2-2.1-1 0-2-0.1-2.9 0.2-1 0.3-2 0.5-2.9 0.6-1.5 0.2-2.9 0.4-4.4 0.5-0.7 0.1-1.3 0-2 0.4-0.4 0.2-0.9 0.3-1.4 0.3-0.6 0-1.1 0.3-1.6 0.5 0.1 0.4 0.3 0.9 0.2 1.2-0.3 1 0.1 1.8 0.3 2.8zm42.7-4.9c0.3-0.5 0.7-0.6 1.2-0.5s0.9 0 1.3-0.2c0.6-0.3 1.2-0.4 1.8-0.5s1.3-0.2 1.9-0.2c0.8 0 1.6-0.5 2.3 0.2 0.1-0.2 0.1-0.3 0.2-0.3 0.1-0.1 0.1-0.2 0.2-0.4 1.2-0.1 2.3-0.1 3.5-0.2 0.6-1.1 1.8-0.5 2.9-0.8 0-0.2 0.1-0.5 0-0.6-0.4-0.9-0.4-1.8-0.2-2.7 0.1-0.6-0.1-0.9-0.5-1.2-0.7 0.8-1.6 0.5-2.4 0.4-1.5-0.2-2.9 0.5-4.4 0.6-0.7 0.1-1.4 0.2-2.1 0.3-1.7 0.2-3.4 0.3-5 0.5-0.5 0-0.9 0-1.5 0.1 0 1.9 0.3 3.6 0.8 5.4v0.1zm-3.8 0.7c0-0.3 0.1-0.7 0-1.1-0.4-1.4-0.7-2.8-0.4-4.3-1.9-0.3-3.1-0.2-4.8 0.6-0.2 0.1-0.4 0.2-0.6 0.1-1.2-0.3-2.3-0.1-3.4 0.3-0.3 0.1-0.7 0.1-1 0.2-0.8 0.1-1.7 0.1-2.5 0.3-0.9 0.3-1.8 0.2-2.3 0.1-1.8 0.3-3.3 0.6-4.7 0.8-0.4 1.6-0.4 3.2-0.1 4.8 1.1-0.7 2-0.4 2.8 0 0.4-0.1 0.6-0.1 0.9-0.2 0.6-0.1 1.2 0.2 1.6-0.4 0.1-0.1 0.4-0.2 0.5-0.1 0.5 0.3 1 0 1.5 0 0.3 0 0.6 0.1 1.2 0.2 0.6-0.3 1.4-0.6 2.3-0.4 0.5 0.1 1.1 0.1 1.5-0.1 0.4-0.3 0.8-0.3 1.2-0.3h1.5c0.8-0.1 1.7-0.3 2.5-0.2 0.7 0.1 1.4 0.1 2.2-0.1l0.1-0.2zm-59.2-20.3c-0.5-0.8-0.9-1.7-1.8-2.1-0.2-0.1-0.2-0.3-0.4-0.5-1.4-1.6-3-2.6-5.2-2-0.1 0-0.3 0.1-0.4 0.1-1.1-0.2-2 0.4-2.7 1-0.9 0.7-1.6 1.6-2.3 2.5-0.3 0.4-0.5 0.9-0.7 1.4-0.2 0.6-0.3 1.1-0.5 1.8 0.1 0.5 0.3 1.1 0.3 1.7-0.1 1.1 0.1 2.1 0.1 3.2 0 0.4 0.2 0.6 0.6 0.6 0.9-0.2 1.9-0.3 2.8-0.7 1-0.5 2-1 3.2-1.1 0.3 0 0.6-0.2 0.9-0.4 0.9-0.6 1.6-1.4 2.6-1.9 0.7-0.4 1.3-1 1.6-1.7 0.3-0.6 0.8-1 1.3-1.2s0.6-0.5 0.8-0.8l-0.2 0.1zm72.1-86.9c0.1 0.3 0.1 0.7 0.3 0.9 0.4 0.3 0.4 0.7 0.4 1.1 0.2 1.5 0.3 3 0.7 4.5 0.3 1.4 0.8 2.8 0.5 4.3-0.1 0.4 0.1 0.8 0.2 1.3 0.3 1.2 0.6 2.3 0.8 3.5s0.6 2.3 0.3 3.5c-0.1 0.8-0.2 1.7 0.3 2.4 0.1 0.1 0.1 0.4 0.1 0.5-0.3 0.8 0 1.6 0 2.4s0 1.7 0.4 2.5c0.2 0.3 0.1 0.8 0 1.2 0 0.5-0.1 0.9-0.2 1.2 0.7 1.3 2 1.6 3 2.2s1.8 1.6 3.2 1.9c-0.2-0.4-0.5-0.8-0.5-1.1 0-1.1-0.4-2-0.9-2.9-0.1-0.2 0-0.5-0.1-0.7-0.2-0.8 0.2-1.6-0.4-2.3s-0.4-1.6-0.5-2.4c-0.1-0.7-0.1-1.4-0.4-2.1-0.1-0.2-0.2-0.4-0.2-0.6 0-1.1-0.3-2.1-0.6-3.2-0.1-0.2-0.2-0.5-0.1-0.7 0.3-1.4-0.9-2.6-0.4-3.9 0-0.1-0.1-0.2-0.2-0.4-0.1-0.3-0.2-0.5-0.2-0.8-0.2-1.2-0.1-2.6-0.6-3.8-0.1-0.2-0.1-0.6 0-0.8 0.1-0.8-0.1-1.5 0.1-2.3 0.2-0.7-0.6-1.3-0.6-2-0.1-1.1-0.5-2.1-0.5-3.2 0-1.3-0.4-2.5-0.8-3.7-1 1.1-1.5 2.6-3 3.4l-0.1 0.1zm-26.1 172.2c-0.1 0.5-0.1 0.9-0.2 1.4l-0.9 3.6c-0.3 1.4-0.6 2.7-0.9 4.1-0.1 0.5-0.2 1.1-0.3 1.6-0.2 0.7-0.4 1.4-0.6 2.2-0.1 0.4-0.2 0.8-0.4 1.2-0.6 1.2-1.3 2.4-1.9 3.7-0.5 1.2-1.1 2.3-2 3.2-0.6 0.6-0.8 1.5-1.7 1.9-0.3 0.1-0.6 0.3-0.9 0.4-0.2 0.9 0.5 1.1 1 1.5 1.1 1 2.3 1.5 3.7 1.1 0.6-0.2 1.4 0 2-0.6 0.4-0.4 1-0.6 1.4-1s0.8-0.9 1.1-1.4c0.1-0.1 0.2-0.1 0.2-0.1 0.2-1 0.3-2 0.5-2.9 0-0.1 0.1-0.2 0.2-0.4 0.4-0.5 0.4-1 0.4-1.6 0-0.9-0.2-1.8 0.4-2.6 0.2-0.3 0.2-0.7 0.2-1-0.2-1-0.3-2 0.2-2.9 0.1-0.1 0.1-0.4 0.1-0.5-0.4-0.7 0-1.3 0.2-1.9-0.3-0.7-0.4-1.3-0.1-2 0.2-0.6 0.2-1.3 0.3-1.9 0.2-1.4 0-2.8 0.4-4.2 0.3-1.2 0.5-2.4 0.7-3.6 0.1-0.7 0.3-1.4 0.2-2s-0.1-1.2 0-1.8c0.2-0.7 0-0.8-0.7-1.1-0.2-0.1-0.4-0.1-0.7-0.2-0.1 0.6-0.3 1.1-0.2 1.5 0.2 0.9 0 1.7-0.5 2.5-0.2 0.4-0.6 0.9-0.5 1.3 0.3 1.1-0.4 1.8-0.8 2.8l0.1-0.3zm34.7-96.8c0.1 0.8 0.2 1.3 0.2 1.8 0.1 0.6 0 1.2 0.2 1.7 0.5 1 0 2.3 0.9 3.2 0.1 0.1-0.1 0.3 0 0.4 0.2 0.9-0.1 1.8 0.4 2.6 0.3 0.5 0.2 1.3 0.3 2v0.9c0.2 1.2 0.5 2.3 0.7 3.5 0.1 0.7 0.3 1.4-0.3 2.1 0.3 0.7 0.5 1.3 0.8 2 0.2 0.5 0.6 1.2 0.4 1.6-0.2 0.8 0 1.3 0.3 1.9 0.4 0.7 0.1 1.4 0.2 2.1 0.3 1.7 0.5 3.5 1 5.2 0.2 0.5 0.3 1 0.5 1.5 0.5 1.6 0.5 3.5 1.8 4.9 0.1 0.1 0.1 0.2 0.1 0.3-0.1 0.7 0.5 1.1 0.8 1.6 0.6-0.2 1.2-0.3 1.9-0.5-0.1-0.7-0.2-1.4-0.2-2-0.2-1.4-1-2.7-0.9-4.2 0-0.1 0-0.3-0.1-0.4-0.4-0.5-0.4-1.2-0.4-1.8 0-0.7 0-1.4-0.5-2-0.3-0.4-0.4-1-0.3-1.7 0.1-0.4 0.3-1 0.1-1.2-0.6-0.6-0.5-1.2-0.6-1.9s0-1.5-0.2-2.2c-0.3-1.4-0.2-2.8-0.8-4.1-0.1-0.1-0.1-0.3 0-0.4 0.2-0.5 0.2-1 0-1.6s-0.2-1.3-0.3-1.9l-0.6-5.1c-0.1-0.4-0.3-0.9-0.2-1.3 0.3-0.9-0.3-1.8-0.1-2.7 0.1-0.4-0.1-1-0.1-1.7-0.3-0.5-1.1-0.4-1.7-0.8-1-0.6-2.1-1.3-3.3-2v0.2zm-67.2 106.7c0.1 0.3 0.2 0.7 0.5 0.9 1 1.2 2 2.3 3.3 3.1 0.4 0.3 0.8 0.5 1.1 0.9 0.2 0.2 0.5 0.3 0.7 0.4 0.3 0.1 0.6 0.1 0.8 0.3 1.1 0.9 2.6 1 3.8 1.7 0.9 0.5 1.9 0.6 2.8 1.1 0.3 0.2 0.7 0.2 1.1 0.4 0.8 0.5 2 0.1 2.5 1.1 0.7-0.1 1.5 0.2 2.1-0.4 0-0.2-0.1-0.5-0.1-0.8v-0.7c0.3-0.8 0.2-1.5 0-2.2-0.1-0.2-0.3-0.4-0.3-0.7 0-1-0.5-1.8-0.9-2.7-0.3-0.7-0.7-1.4-1-2-0.5-0.3-0.8-0.6-1.2-0.8-1-0.6-1.5-1.9-2.8-2-0.1 0-0.1-0.2-0.2-0.3-0.5-0.5-1.2-0.6-1.9-0.7-1.3-0.2-2.5 0.6-3.7 0h-0.2c-0.7 0.5-1.5 0.3-2.3 0.4-0.4 0-0.8 0.1-1.1 0.4-1 0.8-2.3 1.3-3 2.5v0.1zm-21.3-113.5c0.7-0.5 1.3-1 1.9-1.5 0.3-0.2 0.5-0.4 0.7-0.6 0.6-0.6 1-1.3 1.9-1.4 0.1 0 0.3-0.2 0.3-0.3 0.3-0.9 1.1-1.1 1.7-1.5 0.1-0.1 0.3-0.2 0.4-0.3 0.9-0.8 1.7-1.6 2.6-2.4 0.5-0.4 0.9-0.9 1.3-1.4 0.4-0.4 0.5-0.9 0.1-1.4-0.5-0.6-0.8-1.4-1.3-2s-0.7-1.4-1.5-1.7c-0.1 0-0.1-0.1-0.1-0.2-1.1-1.3-2.2-2.7-3.3-4-0.4 0.6-0.8 1.1-1.2 1.6-0.7 0.9-1.7 1.6-2.4 2.6-0.7 0.9-1.6 1.7-2.2 2.8-0.6 1.2-1.3 2.3-1.8 3.5-0.1 0.2-0.2 0.4-0.3 0.4-0.6 0.4-0.5 0.9-0.2 1.5-0.3 0.2-0.6 0.5-0.9 0.7 0.1 0 0.1 0.1 0.2 0.1-0.2 0.5-0.3 1-0.5 1.5 0.7 0.3 1.2 0.8 1.6 1.5 0.1 0.2 0.2 0.5 0.4 0.6 1 0.5 2 0.9 2.6 1.9zm102 114.6c-0.2-0.3-0.4-0.7-0.7-0.8-0.9-0.4-1.8-0.9-2.6-1.5-0.2-0.2-0.6-0.1-0.9-0.1-1.1-0.1-2.3-0.1-3.3-0.8-0.1-0.1-0.3-0.1-0.5-0.1-0.5-0.1-1 0-1.5-0.2-0.9-0.2-1.7-0.7-2.6-0.8-0.7-0.1-1.5-0.5-2 0.5 0 0.1-0.2 0.1-0.3 0.1-0.7 0.3-1.5 0.6-2.2 1-0.6 0.3-1.2 0.4-1.7 0.8-1 0.7-1.8 1.5-2.8 2.1-1.1 0.7-1 1.8-1 2.8 0 0.7 0.8 1.1 1.5 1.4 0.5 0.2 1 0.6 1.6 0.2h0.2c1.2 0.3 2.4 0.5 3.6 0.7 1.1 0.3 2.2-0.1 3.3 0.2 0.1 0 0.3 0 0.4-0.1 1.5-0.3 3-0.7 4.5-0.8 1.4-0.1 2.6-0.7 3.9-1.1 1.6-0.5 2.7-1.7 3.1-3.5zm21.5-83.2h-0.3c-0.7-0.2-1.3 0.3-2.1 0.4-1.7 0.2-3.4 0.1-5 0.7-0.1 0-0.2 0.1-0.3 0-0.9-0.4-1.6 0.1-2.4 0.4 0.1 1 0.1 2-1.3 2.1 0.4 1.2 0.5 2.3 0.2 3.4-0.1 0.3 0 0.6 0 0.9 0.1 0.9 0.1 1.7 0.2 2.6 0.1 0.8 0.2 1.7 0.2 2.5 0 0.3 0.1 0.7 0 1-0.1 1.2 0.1 1.6 1.3 2 1 0.4 2 0.6 3 1 0.4 0 0.8-0.5 1.3-0.2 0.4 0.3 0.8 0.2 1.2 0.1 0.5-0.2 1-0.1 1.5-0.4 0.7-0.4 1.6-0.5 2.3-0.8 0.7-0.4 1.6-0.6 1.9-1.5 0-0.6 0-1.2 0.1-1.8 0-0.3 0.1-0.6 0-0.9-0.1-1.5-0.3-3-0.4-4.5-0.1-1.3-0.3-2.5-0.7-3.7-0.2-0.5-0.4-1-0.1-1.3-0.3-0.7-0.5-1.2-0.7-1.8l0.1-0.2zm-32.3 133.2c0.2 0.8 0.5 1.5 0.6 2.2 0.2 1.3 0.5 2.6 0.5 3.9 0 0.1 0.1 0.3 0.1 0.4 0.3 1.4 0.7 2.9 1.2 4.2 0.2 0.4 0.4 1 0.3 1.4-0.2 0.5 0.1 0.8 0.3 1.2 0.4 0.7 0.8 1.3 1.1 2 0.4 1 0.6 2.1 1.7 2.6 0.1 0 0.2 0.1 0.2 0.2 0.4 0.4 0.8 0.9 1.2 1.3s1 0.7 1.5 1c0.1 0.1 0.3 0.1 0.4 0.1 1.2 0 2.4 0 3.3-0.8 0.3-0.3 0.8-0.5 0.9-0.8 0.1-0.9 0.9-1.5 1-2.3 0.3-1.4 0.6-2.8 0.3-4.3-0.1-0.4 0-0.8 0-1.2 0-0.3 0-0.6-0.1-0.8-0.1-0.3-0.2-0.5-0.3-0.8-0.3-1-0.5-2.1-0.9-3.1-0.3-0.8-0.6-1.7-0.8-2.5-0.2-0.5-0.2-1-0.4-1.5-0.2-0.7-0.3-1.4-0.2-2.2 0-0.3-0.2-0.7-0.3-0.9-0.6-0.1-1-0.3-1.5-0.2-0.6 0.1-1.3 0.3-1.9 0.4-1.6 0.4-3.1 0.7-4.7 1h-0.5c-0.4-0.3-0.9-0.2-1.3-0.2s-0.7-0.1-1.1-0.1c-0.3 0-0.5-0.1-0.8-0.1l0.2-0.1zm-138-162.8v0.6c0.2 0.6 0.3 1.3 0 1.9-0.1 0.2 0 0.4 0 0.5 0.1 2 0.6 3.8 1.4 5.6 0.4 0.9 0.1 1.6-0.7 2.2-0.2 0.1-0.3 0.3-0.5 0.4-0.4 0.4-0.9 0.7-1.4 1-0.4 0.3-0.9 0.4-1.3 0.7-0.5 0.3-0.9 0.8-1.4 1.1-0.5 0.4-1.2 0.7-1.4 1.4-1 0-1 0.9-1.4 1.4-0.7 0.8-0.6 1.7-0.5 2.7 0.1 0.4 0.2 0.9 0.1 1.3-0.2 0.5 0 0.9 0.1 1.4 0.2 1.1 0.8 2.1 0.7 3.2 0 0.3 0.2 0.8 0.4 1.1 0.3 0.4 0.5 0.8 0.5 1.4s0.8 1.7 1.4 1.9c1.5 0.4 3 0.5 4.4 0.2 1.3-0.3 2.6-0.8 3.8-1.3 0.1-0.1 0.3-0.2 0.3-0.4 0.6-1 0.8-2.2 0.8-3.4 0.1-1.3-0.1-2.7-0.2-4 0-0.1 0-0.3-0.1-0.4-0.4-0.3-0.3-0.8-0.4-1.2 0-0.3-0.2-0.5-0.3-0.8-0.3-0.7-0.5-1.4-0.8-2.1s-0.3-1.7-1-2.2c-0.8-0.6-1-1.3-0.9-2.3 0.1-0.1 0.3-0.2 0.4-0.3 0.8-0.4 1.5 0.6 2.4 0.1 0.1-0.1 0.4 0.1 0.6 0.2 1.1 0.8 1.5 2.3 2.5 3.3 0 0 0.1 0.1 0.1 0.2-0.3 0.8 0.3 1.5 0.5 2.2 0.1 0.5 0.5 1 0.7 1.5 0.4 1.1 1 2.1 0.9 3.3 0 0.3 0.1 0.7 0 1-0.1 0.6 0 1.3-0.5 1.7 0.8 0.2 1.5-0.1 2.3-0.4 0.3-0.2 0.6-0.4 1.1-0.3 0.5 0 1.1-0.2 1.6-0.5 0.6-0.3 1.1-0.6 1.9-0.3-0.4-1.5-0.7-2.8-1-4 0-0.6 0.2-1.1 0-1.4-0.3-0.5-0.3-0.9-0.3-1.4 0-0.7 0.1-1.4-0.1-2.1-0.3-0.8-0.3-1.5-0.3-2.3 0-0.3-0.1-0.5-0.4-0.7-0.5-0.4-1.2-0.2-1.7-0.5-0.8-0.5-1.6-0.6-2.4-0.1-1.1-0.7-2.8-0.5-3-2.3-0.5 0.2-0.5 1.1-1.2 0.6-0.3-0.8-0.8-1.7-1-2.5-0.2-0.9-0.5-1.8-0.4-2.6 0.1-0.9-1.1-1.6-0.2-2.5-0.1-0.1-0.4-0.3-0.4-0.4 0-0.2 0.2-0.4 0.3-0.6s0.3-0.3 0.4-0.5l-0.2-0.2c-0.1 0.2-0.3 0.4-0.6 0.7-0.4-1.1-1.2-1.4-2.2-1.5-0.4 0.2-0.8 0.5-1.3 0.8l-0.1-0.1zm87.1-35.6c1.1-0.7 2.3-1.1 3.6-0.8 0.8 0.2 1.4 0 2-0.4 0.6-0.3 1.2-0.8 2-0.4 0.1 0 0.3-0.1 0.4-0.1 0.3-0.1 0.7-0.2 1-0.3s0.6 0 0.8-0.1c0.9-0.4 1.8-0.7 2.9-0.8 0.4 0 0.8-0.2 1.2-0.3s0.8-0.2 1.1-0.3c1.4-0.3 2.8-0.8 3.7-1.9 0.8-1 2-1.4 2.9-2.4-0.1-0.6 0.4-1 1-1.3 0.7-0.4 1-0.9 1.3-1.6 0.1-0.2 0.2-0.5 0.4-0.6l1.5-1.2c0.2-1.5 0.9-2.7 0.9-4.2 0-0.8 0.5-1.5 0.1-2.3-0.1-0.2 0.1-0.5 0.2-0.7s0.2-0.4 0.2-0.6l-0.3-2.7c0-0.2-0.1-0.4 0-0.6 0.2-1.3 0-2.5-0.5-3.8-0.2-0.4-0.3-0.9-0.3-1.3s0.1-0.8-0.1-1.2c-0.1-0.3 0-0.8-0.4-1.2-0.1-0.1 0-0.6 0.2-0.8 0.1-0.2 0.3-0.3 0.6-0.5-0.6-0.9-0.8-1.8-0.6-2.8-0.6-0.3-0.6-0.9-0.8-1.4-0.3-1-0.7-2-1.1-2.9-0.1-0.3-0.5-0.4-0.7-0.7-0.2-0.2-0.4-0.4-0.5-0.7-0.2-1.2-1.1-1.9-1.9-2.7-1.2-1.1-2.5-2.1-3.6-3.2-0.4-0.4-0.8-0.8-1.4-1s-1.1-0.5-1.5-0.9c-0.2-0.2-0.5-0.3-0.7-0.4-1.2-0.4-2.5-0.8-3.7-1.1-0.1 0-0.1-0.1-0.2-0.1-0.6-0.5-1.3-0.7-2.1-0.7-0.7 0-1.4 0-2-0.4-0.4-0.3-0.9-0.4-1.3-0.5-1.3-0.1-2.6-0.2-3.9-0.2-1.4 0-2.9 0.5-4.3 0.4-0.1 0-0.3 0.1-0.4 0.1-1.1 0.7-2.4 0.5-3.6 0.9-0.5 0.2-1.2 0.1-1.6 0.3-0.9 0.5-1.7 0.8-2.5 0.3-0.6 1.2-1.8 1.5-2.7 1.7-0.5 0.4-0.7 0.7-1.1 0.8-0.9 0.4-1.6 1-2.3 1.5-0.7 0.6-1.2 1.4-2 1.8-1 0.6-1.1 1.8-2 2.5-0.7 1.8-2.1 3.2-2.5 5.2 0 0.1-0.1 0.2-0.2 0.4-0.2 0.6-0.5 1.2-0.7 1.9-0.4 1.4 0 2.9-0.9 4.1-0.1 0.1 0 0.3 0 0.4 0.1 1 0.2 2 0.2 2.9 0 1.1-0.2 2.3-0.4 3.4 0.1 0.3 0.4 0.5 0.4 0.7 0 0.8 0 1.5 0.4 2.2 0.2 0.4 0.4 0.8 0.5 1.3 0.5 1.6 1.2 3.2 1.5 4.8 0.1 0.4 0.2 0.8 0.4 1.2 0.6 0.9 1.2 1.7 1.1 2.9 0 0.1 0 0.1 0.1 0.2 0.7 2.1 2.1 3.7 3.8 5 0.6 0.4 1.1 0.8 1.5 1.3 0.9 0.1 2.7 1.2 3.1 1.8 0.6 0.3 1 0.5 1.3 0.7 1.5 1.2 3.1 1.9 5.1 1.9 0.4 0 0.9 0 1.3 0.1 0.7 0.2 1.3 0.1 2-0.2 0.3-0.2 0.7-0.3 1-0.4 0.7-0.2 1.3-0.3 2-0.4 0.5-0.1 0.9-0.2 1.3 0.2l-0.2 0.2zm64.3 150.7c-1 1-1.8 1.9-2.7 2.8-0.2 0.2-0.6 0.4-0.9 0.5-0.5 0.2-1 0.3-1.5 0.4-1 0.2-2.1 0.5-3 1-0.1 0.1-0.4 0-0.5 0.1-0.9 0.3-2 0-2.8 0.7-0.1 0.1-0.3 0.1-0.4 0.1-0.5-0.1-0.9 0-1.3 0.3-0.1 0.1-0.3 0.1-0.4 0.1-1.1-0.3-2.2-0.2-3.3 0.2-0.2 0.1-0.5-0.1-0.7-0.2-0.7-0.4-1.5-0.6-2.3-0.3-0.4 0.2-0.9 0.1-1.4 0-1-0.3-2-0.5-2.9-1-0.6-0.3-1.1-0.5-1.5-1.1-0.4 0.4-0.7 0.8-0.9 1 0 0.8 0 1.4 0.1 2 0.1 0.8 0.2 1.7 0.4 2.5 0.1 0.4 0.4 0.8 0.6 1.3 1.2 0.3 1.3 0.4 1.2 1.6-0.3 0.2-0.7 0.3-1.1 0.5l1.5 4.8c1.2 0.3 1.2 0.3 1.1 1.7-0.3 0.2-0.5 0.4-0.8 0.7 0.3 0.9 0.5 1.7 0.8 2.7 0.6-0.3 1 0.7 1.6 0.1v0.8h-0.8v1.1c0.7-0.3 1.1-0.3 1.6 0.1 0.2 0.2 0.4 0.6 0.3 0.7-0.3 0.6-0.7 0.9-1.5 0.7 0.4 1.1 0.6 2.3 1.4 3.1 0.1 0.1 0.2 0.2 0.1 0.3-0.4 0.6 0.3 0.8 0.4 1.2 1.5-0.2 1.8 0 2.3 1.2-0.5 0.3-0.9 0.5-1.6 0.9-0.2-0.2-0.4-0.5-0.6-0.7 0.3 0.6 0.8 1.2 0.9 1.8 0.1 1.5 1.2 2.6 1.4 4l0.8-0.4c0.3-0.2 0.6-0.4 0.9-0.1 0.2 0.2 0.3 0.6 0.3 0.9 0 0.7-0.4 1.1-1 1.4 0.8 1 0.8 2.5 1.7 3.1 0.6 0 1 0.2 1.4 0s0.6-0.5 0.9-0.7c0.7 0 1 0.6 1.4 1.1 0.6-0.3 1.2-0.8 1.9-0.2 0.8-0.8 2.1-0.5 2.9-1.3 0.1-0.1 0.2 0 0.3 0 1.6-0.2 3.1-0.4 4.6-0.9 0.5-0.2 1-0.3 1.6 0-0.5-1-0.2-1.9 0-2.8 0-0.2 0.1-0.4 0-0.7-0.2-0.9-0.4-1.8 0-2.7 0.1-0.1 0-0.4-0.1-0.5-0.4-0.6-0.2-1.2-0.1-1.8 0-0.3 0.1-0.5 0-0.8-0.1-0.6-0.2-1.3-0.2-1.9 0-1.2 0.1-2.5 0.2-3.7 0-0.2 0.1-0.4 0-0.5-0.6-0.9-0.3-1.8-0.2-2.7 0.1-1.1 0.1-2.1 0.1-3.2 0-0.6-0.2-1.1 0.1-1.7 0.1-0.1 0.1-0.3 0-0.4-0.4-0.4-0.2-0.9-0.1-1.3 0-0.9 0.1-1.8 0.2-2.7 0-0.2-0.1-0.5-0.2-0.7-0.5-0.8-0.4-1.6-0.1-2.3s-0.1-1.2-0.1-1.7c0-0.6 0.2-1.2 0.3-1.8v-0.1c-0.2-0.9-0.5-1.7-0.2-2.6 0.1-0.2 0-0.6-0.1-0.9 0-0.4-0.1-0.9-0.1-1.3 0-0.6 0-1.2 0.1-1.8zm-81.1-119.8c-0.4 1.1-0.1 1.7 0.8 2.4 0.3 0.2 0.6 0.6 0.7 1 0.1 0.5-0.6 0.4-0.9 0.6 0 0 0 0.1-0.2 0.2 0 0.8-0.1 1.8 0.5 2.5 0.5 0.7 0.3 1.1 0 1.7-0.1 0.2-0.3 0.4-0.3 0.6 0 1-0.1 2.1 0 3.1 0.1 1.1-0.3 1.8-1.1 2.4 0 0.2 0 0.5 0.1 0.6 0.6 0.9 0.9 2 0.8 3.1v0.1c0.2 1.3 0.4 2.5 0.6 3.8 0.2 1.2 0.4 2.4 0.7 3.6 0.1 0.5 0.3 0.9 0.1 1.4-0.1 0.3 0 0.7 0.1 1 0.3 0.7 0.6 1.5 0.4 2.3-0.1 0.4 0 0.7 0.4 1 0.3 0.2 0.5 0.5 1 1-0.5 0.2-0.8 0.2-1.1 0.3 0 0.1 0.1 0.3 0.1 0.4 0.1 0.3 0.3 0.6 0.3 0.9 0 1 0.5 1.9 0 2.9-0.1 0.1 0.1 0.4 0.2 0.6 0.1 0.4 0.2 0.9 0.3 1.4 0.9 0.1 1.7-0.2 2.5-0.6 0.3-0.2 0.8-0.5 1.1-0.4 0.6 0.3 0.9 0 1.4-0.2 0.4-0.2 0.9-0.4 1.4-0.2 0.4 0.2 1-0.1 1.5-0.2 0.2 0 0.4-0.1 0.6-0.1 0.8 0.2 1.7 0.1 2.4-0.3 0.2-0.1 0.6-0.2 0.8-0.2 1.7 0.1 3.4-0.1 5-0.6 0.7-0.2 1.4-0.4 2.1-0.3 0.3 0.1 0.7 0 0.9-0.2 0.7-0.5 1.4-0.4 2.2-0.4 1.3-0.1 2.6-0.7 3.9-0.5 0.4-0.7 1.1-0.2 1.7-0.3 0.7-0.1 1.5-0.3 2.2 0.2 0.4-0.7 1.1-0.7 1.7-0.7 0.7 0 1.5-0.2 2.2-0.3 0.8-0.1 1.6-0.3 2.5-0.4h0.5 1c0.5 0 0.9-0.2 1.4-0.2 0.6-0.1 1.3 0.1 1.9-0.4 0.2-0.2 0.6-0.3 0.8-0.2 1 0.3 1.8-0.1 2.7-0.3 0.8-0.1 1.6-0.1 2.4-0.2 0.5 0 1 0.1 1.5 0.1 0.7 0 1.4-0.1 2.1-0.2 0.5-0.1 1.1-0.1 1.6-0.2 0.5-0.2 0.9-0.3 1.2 0.3 0.2-0.3 0.4-0.5 0.5-0.6l3.9-0.3c0-0.6 0.2-1.2 0-1.6-0.5-1.2-0.1-2.5-0.8-3.6v-0.2c0-0.9-0.5-1.8-0.3-2.8 0.1-0.4-0.3-0.8-0.4-1.2-0.1-0.3-0.2-0.7-0.1-0.9 0.2-0.9-0.1-1.7 0-2.6 0-0.2-0.1-0.5-0.2-0.6-0.7-0.7-0.5-1.7-0.6-2.5 0-1-0.1-2-0.6-2.8-0.6-1.1-0.4-2.2-0.3-3.3-0.5-2.1-1-4.2-1.4-6.1-0.7-0.6-1.3-1-2-1.6-0.1 0-0.4-0.1-0.6-0.1-0.3-0.4-0.6-0.8-0.9-1.2 0-0.1-0.1-0.1-0.1-0.2-0.2-0.2-0.5-0.4-0.8-0.5-0.7-0.1-1.2-0.7-1-1.3s0-1.1-0.2-1.6c-0.3-0.8-0.7-1.7-0.2-2.5-0.6-0.8-0.6-0.8-0.6-1.7 0-0.3-0.1-0.6-0.2-0.9s-0.2-0.7-0.3-1c-0.4-1.4-0.7-2.8-1.1-4.2-0.6-2.1-1.1-4.1-1.3-6.3 0-0.2-0.1-0.4-0.2-0.6-0.4-0.5-0.3-1.1-0.1-1.5-0.1-0.5-0.4-0.9-0.3-1.2 0.1-0.4 0-0.7-0.1-1-0.2-0.8-0.5-1.6-0.1-2.5 0.1-0.1 0-0.3 0-0.4 0-1-0.1-2 0-3 0-0.8 0.3-1.7 0.2-2.5-0.1-1.2 0-2.4 0.4-3.2-0.2-1-0.3-1.6-0.4-2.4h-4l-2.1 1.5c-0.2 0.2-0.6 0.4-0.6 0.7-0.1 0.6-0.5 0.8-0.9 1.1-0.2 0.1-0.3 0.3-0.5 0.5s-0.3 0.5-0.5 0.7c-0.5 0.5-1 0.6-1.7 0.9-1 0.4-1.9 1.1-2.8 1.7-0.2 0.1-0.5 0.3-0.8 0.3-1.6-0.1-2.9 1.1-4.5 1.1-0.9 0-1.7 0.7-2.6 0.6-0.2 0-0.5-0.1-0.6 0-0.9 0.6-2 0.4-3 0.5s-2.2 0.1-3 0.6c-0.9 0.5-1.7 0.4-2.6 0.6-1.1 0.2-2.3 0.3-3.4 0.6-1.4 0.3-2.9 0.1-4.3 0.1-1 0-2-0.2-3-0.2-0.3 0-0.5 0.1-0.8-0.1-0.8-0.6-1.9-0.2-2.7-0.8-0.1-0.1-0.3 0.1-0.4 0.1-0.9-0.6-1.8-1.2-2.6-1.7-2 1-3.8 2.1-5.6 3.4 0.5 0.8 0.8 1.4 0.4 2.2-0.1 0.1-0.1 0.4 0 0.5 0.4 1.2 0.8 2.5 1.3 3.7s0.5 2.6 1.3 3.7c0.1 0.1 0 0.2 0 0.3 0 0.9 0.3 1.7 0.9 2.5 0.7-0.5 1.4-0.3 1.4 0.3 0 0.5 0.5 0.4 0.4 0.8-0.3 0.6-0.8 0.9-1.4 0.8 0.2 0.8 0.4 1.5 0.6 2.3 0.6 0.5 0.7 0.5 0.4 1.5 0 0.1-0.1 0.3-0.1 0.4 0.2 1.2 0.5 2.4 0.6 3.7 0 0.6 0.3 1 0.5 1.5 0.6-0.3 1.2-0.2 1.6 0.2 0.4 0.3 0.5 0.8 0 1.1-0.4 0.3-0.9 0.5-1.5 0.8l0.1 0.1zm46.3 94.7c0 1.1-0.1 2.2 0.4 3.2 0.2-0.1 0.5-0.2 0.8-0.4 0.3 0.4 1.1 0.4 1.1 1.1 0 0.8-0.5 1.2-1.1 1.6 0.3 0.7 0.5 1.4 0.8 2 0.3 0.7 0.6 1.3 0.9 1.9 0.6 0.4 1.1 0.6 1.5 1 0.3 0.3 0.4 0.6 0.1 0.9s-0.6 0.6-0.8 0.9c0 0.7 0.1 1.3 0.1 1.9 1.3 0.7 0.6 2 1 3.1 0.2-0.3 0.3-0.4 0.5-0.6 1.4 1 1.4 1.6 0.2 2.2 0 0.3 0.1 0.6 0.1 0.9 0 0.4 0.1 0.8 0.4 1.1 0.5 0.4 0.6 1 0.7 1.6s0.2 1.1 0.3 1.7c0.1 0.1 0.2 0.1 0.3 0.2 0.2-0.3 0.3-0.5 0.5-0.8 0.7-1 1.3-2.1 2.2-3 0.3-0.3 0.5-0.5 0.8-0.7 1-0.6 2-1.1 3-1.8 1.1-0.6 2.1-1.3 3.4-1.6 1-0.2 2-0.6 3-1 0.2-0.1 0.5-0.2 0.7-0.3 1.1-0.3 1.9 0.3 2 1.5 1 0.1 2 0.1 2.9 0.2 0.3 0 0.5 0.3 0.8 0.4 0.8 0.2 1.7 0.3 2.5 0.5 0.9 0.2 1.7 0.5 2.6 0.7 0.6 1 2 1.3 2.4 2.5 0 0.1 0.3 0.1 0.4 0.2 0.4-0.5 0.5-1 0.2-1.5-0.5-1-0.4-2 0-3-0.3-0.5-0.6-0.9-0.4-1.5 0.1-0.3 0.1-0.6 0-0.9-0.7-1.7 0.1-3.5-0.6-5.1v-0.2c0.3-0.6 0.1-1.1-0.1-1.6-0.2-0.6 0-1 0.1-1.4-0.1-0.5-0.2-0.9-0.3-1.2-0.3-0.8 0.2-1.8-0.5-2.6v-0.3c0.4-0.9 0.2-1.8 0-2.6-0.1-0.9-0.6-1.8-0.4-2.8 0.2-1.1-0.3-2-0.6-3-0.2-0.8-0.2-1.5 0.2-2.3-0.9-0.6-0.3-1.9-1.1-2.6-0.1-0.1 0-0.3 0-0.4 0-1 0.6-2-0.2-3v-0.2c0.2-1-0.8-2-0.3-3.1 0.1-0.1-0.2-0.4-0.4-0.6-0.3-0.5-0.8-0.9-0.4-1.5 0.1-0.1 0-0.3-0.1-0.4-0.6-1.1-0.5-2.4-0.6-3.6-0.1-0.6-0.1-1-0.5-1.5-0.2-0.2-0.3-0.6-0.3-0.9s-0.1-0.4-0.1-0.7c-0.2-0.9-0.1-1.8-0.6-2.7v-0.1c0.2-0.4-0.1-0.7-0.2-1.1-0.2-0.6-0.8-1.1-0.6-1.8 0.1-0.5 0-0.9-0.3-1.2-0.5-0.6-0.5-1.2-0.2-2-0.6-0.6-0.3-1.6-1-2.1-0.1 0 0-0.2-0.1-0.3-0.1-0.5-0.3-1-0.5-1.5-0.3-0.9-0.5-1.8-1.2-2.5-0.1-0.1-0.1-0.2-0.1-0.3 0.1-0.5-0.2-0.7-0.5-1-0.4-0.6-1-1.1-0.5-1.7-0.3-0.8-0.6-1.4-0.7-2.1-0.2-1-0.6-1.8-1.3-2.5-0.5 0.3-0.9 0.6-1.3 0.8-1.5-0.6-1.8-1-1.8-2.5v-0.4c0-0.7-0.5-1.2-1.2-1.1-0.3 0-0.7 0.2-1 0.3-0.8 0.4-1.5 0.6-2.4 0.4-0.2 0-0.4-0.1-0.5 0-0.7 0.3-1.6 0.2-2.2 0.8-0.1 0.1-0.4 0.1-0.6 0.1-0.4-0.1-0.9-0.2-1.4-0.2-0.1-0.1-0.1-0.3-0.2-0.5h-0.2v0.6c-2.2 0.7-2.4 0.7-3.8 0.4-0.4 0.5-1 0.7-1.7 0.6-0.3 0-0.6 0.1-0.9 0.2-0.7 0.2-1.4 0.5-2.1 0.4-0.9 0-1.6 0.5-2.5 0.4-0.7-0.1-1.4 0.4-2.1 0.2-1.4-0.3-2.7 0.6-4 0.1-0.1 0-0.2 0.1-0.3 0.1-0.8 0.5-1.6 0.6-2.6 0.3-0.4-0.1-0.9 0-1.3 0-0.3 0-0.5 0-0.8-0.1 0 0.1 0.1 0.3 0.1 0.3-0.4 0-0.9-0.1-1.3-0.1s-0.8 0.2-1.2 0.3c-0.5 0.1-1 0.1-1.6 0.2-0.4 0-0.8 0.1-1.2 0.2-0.9 0.1-1.8 0.2-2.7 0.3-1.2 0.2-2.3 0.6-3.5 0.6-0.9 0-1.9 0.1-2.7 0.5-0.9 0.5-1.5 0.3-2.2-0.1-0.2 0.1-0.4 0.3-0.6 0.4-0.4 0.1-0.8 0.2-1.1 0.3-0.9 0.1-1.8 0.5-2.6 0.3-0.7-0.1-1.1 0.2-1.6 0.4-0.7-0.1-1.3-0.4-1.9-0.3-1.4 0.3-2.8 0.8-4.2 1.1 0 0.4-0.1 0.6-0.1 0.9-0.2 1.4-0.3 2.7-0.3 4.1 0 0.4-0.3 0.8-0.4 1.2-0.1 1.7 0.5 3.5-0.2 5.4 0.3 0.5 0.7 1.1-0.1 1.6-0.1 0 0 0.2 0 0.3-0.1 0.4-0.2 0.8-0.3 1.4 0.1 0.5 0.1 0.5-0.2 1.3-0.1 0.3-0.1 0.8-0.1 1.1 0.2-1.2 0.2-1.2 1.3-1.1 0 0.6 0.2 1.2-0.6 1.5-0.2 0-0.4 0.4-0.3 0.5 0.2 0.5-0.1 0.8-0.3 1.2-0.1 0.2 0 0.5 0 0.8 0.5 0.1 0.9 0.1 1.3 0.2 0.5 0.6 0.5 1.1 0.1 1.6-0.5 0.7-1 0.1-1.6 0.1-0.1 0.6-0.1 1.2-0.2 1.7 0 0.6-0.1 1.1-0.1 1.7s-0.5 1.1-0.3 1.8c0.2 0.6 0 1.2-0.4 1.8s-0.4 1.3-0.3 2c0.1 0.6 0.5 1 1 1.2-0.6 0.6-1.1 1.1-1.6 1.7-0.1 0.1-0.1 0.2-0.1 0.3 0 0.6 0.1 1.2 0.2 1.8 0 0.1 0.1 0.1 0.1 0.2 0.3 0 0.6 0.1 0.8 0.1 0.1 0.2 0.2 0.3 0.2 0.4 0 0.3 0.1 0.7-0.1 0.9s-0.6 0.2-0.9 0.1c-0.3 0-0.6-0.1-0.9-0.2 0.1 0.3 0.1 0.5 0.1 0.7 0 0.5 0.2 1.2 0 1.6-0.6 1.2-0.6 2.3-0.2 3.5-0.1 0.4-0.3 0.7-0.4 1-0.1 0.9-0.1 1.7-0.2 2.6 0 0.2 0.2 0.4 0.3 0.6 0.1 0.3 0.2 0.7 0.1 0.9-0.5 0.7-0.2 1.6-0.6 2.4-0.1 0.3 0 0.7 0 1h0.5c0.2 0.5 0.2 0.9-0.2 1.2s-0.4 0.7-0.3 1.1c0 0.3 0.1 0.6-0.1 0.9s-0.1 0.7-0.2 1.1c0.8 0.1 1.1 0.6 1.1 1.2-0.2 0.8-0.9 0.6-1.4 0.8 0 0.9 0.1 1.7 0.1 2.6 0.9 0 1.2 0.5 1 1.5 1.2-0.5 2.3-1 3.5-1.5 0.5 0.1 1 0.3 1.5 0.3s1.1-0.2 1.6-0.2c1.9-0.3 3.8-0.3 5.6 0.8 0.1 0.1 0.3 0.1 0.4 0.1 0.4 0 0.7 0.2 1 0.5 0.5 0.4 1 0.8 1.4 1.3s1.1 0.6 1.5 1c0.5 0.5 0.8 1.2 1.2 1.7 0.4 0.6 0.9 1.1 1.4 1.6 0.3 0.3 0.5 0.7 0.6 1.1 0 0.3 0.1 0.6 0.2 0.9 0.4 1.5 0.8 3.1 1.3 4.8 0.2-1.1 0.7-1.8 1.7-2-0.3-0.7 0-1 0.3-1.4 0.6-0.7 1-1.6 1.4-2.4 0.2-0.3 0.3-0.7 0.5-1.1 0.2-0.6 0.4-1.1 0.7-1.7 0.1-0.2 0.1-0.3 0.2-0.5l0.9-5.1c0.2-1.2 0.6-2.5 0.5-3.7 0-0.9 0.3-1.7 0.5-2.5 0.2-0.7 0.5-1.5 0.3-2.2-0.2-0.9 0.1-1.6 0.5-2.4-0.4-0.6-0.1-1.2 0-1.8 0.1-1 0.2-1.9 0.6-2.9 0.1-0.1-0.1-0.3-0.1-0.5 0-0.4 0-0.7 0.1-1.1 0.3-1.6 0.9-3.3 0.9-4.9 0-1.9 0.5-3.7 0.9-5.5 0.3-1.3 0.5-2.6 0.6-3.9 0.1-0.7 0-1.5 0.4-2-0.1-0.8-0.2-1.4-0.3-1.9-0.5 0.1-1.1 0.1-1.5 0.2-0.7-0.6-0.9-1.2-0.6-2 1.6-1.4 2-1.5 4.1-1.4 0.4 0 0.9-0.1 1.3-0.2 1.3-0.4 2.5-0.8 3.9-0.4 0.2 0 0.4-0.1 0.6-0.2s0.3-0.2 0.5-0.2c0.8 0.2 1.4-0.2 2-0.5s1.2-0.5 1.8 0c0.6 0.9 0.9 1.8-0.1 3 0.1-0.6 0.1-0.9 0.1-1.2-0.3 0.6-0.4 1.5-0.8 2-0.5 0.7-0.5 1.4-0.8 2.1 1.3 1 0.7 2.6 1.3 3.8 1.2-0.2 1.2 0.9 1.9 1.4-0.4 0.3-0.7 0.6-1.1 0.9 0.2 0.4 0.2 0.9-0.2 1.3 0.4 0.8 1.1 1.5 0.8 2.3-0.1 0.6 0 1 0.3 1.5 0.6-0.4 0.6-0.4 2.2 0.1-0.2 0.4-0.3 0.8-0.5 1-0.4 0.3-1 0.4-1.5 0.6 0.2 0.6 0.4 1.2 0.6 2 0.6 0.4 1.5 0.8 1.3 1.9-0.2 0.1-0.5 0.3-0.8 0.4 0.3 0.5 0.6 1 0.9 1.5l0.2-0.1zm31.4-110.8c-0.5-0.4-1-0.9-1.5-1.3-0.2 0.3-0.3 0.5-0.5 0.6-0.3 0.3-0.7 0.4-1 0.2-0.2-0.2-0.3-0.6-0.3-0.8 0-0.4 0.2-0.8 0.3-1.1-0.2-0.4-0.5-0.8-0.7-1.2-0.4 0.5-0.6 1.2-1.4 1-0.3-0.1-0.6-0.5-0.8-0.8s0.1-0.6 0.4-0.7c0 0.2 0.1 0.4 0.1 0.6 0.3-0.2 0.5-0.4 0.7-0.6-0.5-0.6-1-1.2-1.6-1.8-0.8 1.1-1.2 1.3-1.8 1s-0.6-0.9-0.1-1.8c-0.2-0.3-0.3-0.6-0.5-0.9l-1.2 0.9c-0.2-0.3-0.4-0.5-0.6-0.7 0.3-0.4 0.6-0.7 0.9-1-0.9-0.8-1.5-1.9-2.7-2.1-0.2 0-0.4-0.3-0.6-0.6-0.3-0.4-0.6-0.7-1.1-0.8-0.7-0.2-1.3-0.7-2-1.1-0.6-0.4-1.1-0.9-1.7-1.3-1.3-0.9-2.7-1.7-4-2.6l-0.3-0.3h-0.2c0 0.3-0.1 0.5-0.1 0.8-0.3 0.1-0.6 0.2-0.9 0.4-0.9-0.6 0.1-1.1 0-1.7-0.2-0.1-0.4-0.1-0.6-0.2-0.3-0.1-0.7-0.1-0.8-0.3-0.4-0.8-1.1-0.7-1.7-1.1-0.8 1.4-0.5 2.8-0.5 4.1 0 0.6 0.2 1.1-0.2 1.6 1.1 1 0.2 2 0 3 0.7 0.3 0.9 0.9 0.6 1.4-0.2 0.4-0.1 0.7-0.1 1 0 0.2 0.1 0.5 0.2 0.7 0.1 0.9 0.3 1.8 0.4 2.8 0.1 0.9-0.1 1.8 0.3 2.7l0.1 0.1c0.3-0.2 0.5-0.3 0.9-0.6 0.1 0.4 0.3 0.8 0.3 1.1 0 0.8-1 0.4-1.3 0.9 0.1 0.5 0.1 0.9 0.2 1.3s0.1 1 0.4 1.2c0.6 0.4 0.6 1.1 0.9 1.7-0.3 0.2-0.6 0.3-0.9 0.5v1.4c0 0.3 0.1 0.8 0.3 0.9 0.7 0.5 0.5 1.1 0.6 1.7 0 0.3 0.2 0.6 0.3 0.9 0.8-0.5 1.2-0.5 1.6-0.1 0.4 0.3 0.4 0.7 0.3 1.1-0.1 0.5-0.6 0.7-1.5 0.7-0.1 0.8 0.2 2 0.5 2.3 1 0.8 1.7 2 2.9 2.5 0.2 0.1 0.3 0.3 0.5 0.4 0.6 0.6 1.1 1.2 1.7 1.8 0.4 0.3 0.9 0.5 1.2 0.9 0.4 0.5 0.9 0.7 1.5 0.6l0.3 0.3c0.5 0.6 1.3 0.9 2 1.2 0.2-0.8 0.7-0.6 1.2-0.5 0.7 0.1 0.7 0.7 0.8 1.2 0.8 0.5 1.6 0.9 2.2 1.3 0.8 0.1 1.5 0.1 2.3 0.1 0.5-0.7 0.8-0.8 1.4-0.5 0.2 0.1 0.5 0.3 0.6 0.5 0.1 0.4 0.1 0.9 0.2 1.5 0.3 0.1 0.7 0.2 1.2 0.3 0.5 0 0.9 0 1.2 0.5 0.6 1 1.6 1.6 2.6 2.1 0.4 0.2 0.8 0.5 0.8 0.9-0.1 0.8 0.4 1.2 1.1 1.7-0.3 0.4-0.5 0.7-0.8 0.9s-0.7 0.3-1.2 0.5c0.6 0.9 0.6 2.1 1.6 2.8 0.2 0.1 0.3 0.5 0.3 0.8 0 0.7 0.4 1.2 0.8 1.8 0.1-0.6 0.4-0.8 1-0.6 0 0.4 0 0.9-0.1 1.3 0 0.2 0 0.5 0.1 0.7 0.2 0.5 0.3 1.1 0.5 1.7 0.3 0.5 0.9 0.9 1 1.5s0.7 1 0.7 1.7c0 0.9 0.8 1.4 1.4 1.9l0.9 0.6c0 0.4 0 0.9-0.1 1.4 0.2 0.2 0.4 0.5 0.6 0.8 1.1-0.2 2.2-0.5 3.3-0.7-1.1-0.5-1.2-0.7-1-1.8h0.8c0.8 0 1 0.3 0.7 1-0.1 0.3-0.3 0.6 0 0.9 0.3-0.1 0.5-0.3 0.8-0.3 0.3-0.1 0.6 0 0.8-0.1 1-0.1 1-0.1 1.2-1.1 0.3-0.2 0.7-0.3 1.1-0.5l0.9 0.6c0.5-0.1 1-0.3 1.5-0.4l0.6-1.8c-0.8-1.3-0.5-3-1.3-4.3 0.1-1.6-1-3.1-0.7-4.8 0-0.1 0-0.2-0.1-0.3-0.5-1-0.1-2.2-0.9-3.2-0.1-0.1 0-0.5 0-0.7 0-0.5 0-1-0.2-1.4-0.6-1.5-0.4-3.2-1.1-4.8-0.3-0.8-0.4-1.8-0.8-2.5-0.3-0.5-0.6-1-0.6-1.7-0.1-1.4-0.9-2.6-1.3-3.9-0.1-0.4-0.4-0.8-0.6-1.1-0.2 0.2-0.4 0.3-0.6 0.4 0-0.2-0.1-0.2-0.1-0.3-0.1-1.4-0.2-1.5-1.6-1.6-0.9-0.1-1.2-0.8-0.6-1.8-0.8-1-1.7-2-2.6-3.1-0.2 0-0.4 0-0.5 0.1l-2.7-2.7-0.5 0.5-0.5-0.5c0.1-0.4 0.3-0.8 0.4-1-0.4-0.3-0.6-0.5-0.9-0.7-0.8 0.6-1.2 0.8-1.5 0.4-0.2-0.3-0.4-0.7-0.3-1 0.1-0.4 0.3-0.8 0.5-1.2-0.2-0.3-0.6-0.7-0.7-1-0.1-0.5-0.4-0.5-0.7-0.7l0.3-0.6zm-94.1 17c-0.6 0.3-1.2 0.6-1.8 1.1-0.6 0.6-1.4 1.1-2.1 1.7-0.6 0.5-1.3 0.9-1.9 1.5-0.5 0.5-1 0.6-1.7 0.4 0 0.8-0.4 1.3-0.9 1.7-1.2-0.3-1.4-0.9-0.7-2.1 0.3 0 0.5 0 0.9-0.1-0.5-0.5-1-0.9-1.4-1.3-0.4 0.7-0.9 1.1-1.4 1s-0.6-0.4-0.7-0.9c-0.1-0.6 0.4-0.7 0.9-0.7-0.6-0.4-1.2-0.6-1.4-1.3-0.2-0.4-0.8-0.9-1.5-0.5 0 0.7 0.1 1.4-0.1 1.9-0.2 0.6-0.1 1.1 0 1.7-0.2 0.3-0.5 0.7-0.6 0.8-1 0.4-1.8 0.8-2.6 1.1-0.3 0.1-0.6 0.1-0.9 0.2-0.3 0-0.6 0.1-0.9 0.1 0 0-0.1 0.1-0.1 0.2 0.1 0.3 0.3 0.6 0.4 0.8-0.4 0.4-0.7 0.8-1.1 1.3-0.3-0.4-0.6-0.6-0.7-0.9-0.1-0.2 0.1-0.5 0.3-0.8-1.4 0-2.3 1.2-3.5 1.6-0.8 0.2-1.3 1.3-2.3 1-0.1 0-0.2 0.1-0.4 0.2-0.8 0.4-1.6 0.7-2.5 1.1 0.6 0.4 1.2 0.6 1.1 1.4-0.1 0.5-0.4 0.8-0.9 0.9-0.7-0.4-0.8-1.2-0.9-1.9-1.1 0.5-2.1 1.1-3.2 1.6-0.3 0.2-0.8 0.2-1.1 0.2-1.2-0.2-1.8 0.3-1.6 1.6 0.1 0.5 0.3 1.1 0.1 1.7-0.2 0.5 0.1 1.2 0.2 1.8 0.1 0.4 0.5 0.6 0.4 1.1-0.1 0.3 0.3 0.7 0.3 1 0.1 0.5 0 1 0 1.3 0.1 0.5 0.3 0.9 0.3 1.3 0.2 1.3 0.1 2.6 0.6 3.8 0.2 0.4 0.3 0.7 0.7 0.9 0.4 0.1 0.7 0.3 1.1 0.4 0-0.8 0.5-1.2 1.1-1.5 0.8 0.2 0.8 0.9 0.9 1.5h2.3c0.3-0.5 0.5-0.9 0.8-1.3 0.5 0.2 0.9 0.2 1.2 0.5 0.2 0.2 0.2 0.7 0.2 1 0.5 0.1 0.9 0.2 1.4 0.2h3.7c0.6 0 1.1 0.2 1.7 0.2 1-0.1 2-0.2 3.1-0.3 0.1-1.4 0.1-2.8 0.2-4.2v-0.3c-0.7-1.1-0.1-2.1 0.1-3.1 0.1-0.5 0.2-1.1 0.5-1.5 0.2-0.4 0.6-0.8 0.6-1.3 0.1-0.3 0.3-0.8 0.6-0.9 0.8-0.2 0.9-0.9 1.4-1.4v-0.3c-0.2 0.2-0.4 0.3-0.6 0.5-1.4-0.7-1.4-0.7-1.1-1.7 1.3-0.7 1.4-0.6 1.8 0.8 1 0.2 1.7-0.7 2.5-0.9 0.2 0 0.4-0.4 0.5-0.6 0.8-0.1 1.5-0.1 2.3-0.2l-0.6-0.6c0.5-0.4 0.6-1.2 1.5-1.1 0.3 0.5 0.5 0.9-0.1 1.5 0.8 0.1 1.4 0.1 2 0.2 0.2 0 0.4 0 0.5 0.1l2.7 1.5c0.2 0.1 0.3 0.3 0.5 0.3 0.5 0.1 0.8 0.5 1 0.9 0.2 0.6 0.6 0.9 1.1 1.1 0.3 0.4 0.7 0.9 1 1.2 0.5-0.5 1-0.9 1.5-1.4 0-0.1 0-0.4 0.1-0.6s0.2-0.5 0.3-0.7c-0.6-1-0.5-1.8 0.3-2.3 0.8 0.3 0.6 0.9 0.5 1.5 0.4-0.4 0.6-0.8 0.9-1.2 0.4-0.6 0.7-1.2 1.1-1.7 0.3-0.4 0.9-0.6 1.1-1 0.3-0.7 0.8-0.8 1.4-0.9 0.8-1 1.5-2 2.2-2.9 0.4-0.5 0.5-0.9 0.3-1.5-0.1-0.3-0.3-0.7-0.2-1 0.2-1.2-0.3-2.3-0.4-3.5 0-0.2-0.1-0.4-0.1-0.6 0.2-0.7 0-1.3-0.3-2-0.4-0.8-0.9-1.5-0.5-2.4 0.1-0.2-0.1-0.5-0.2-0.7-0.3-0.6-0.6-1.2-0.2-1.9-0.5-0.3-0.7-0.8-0.6-1.4 0-0.3 0.1-0.7 0-1-0.2-0.5-0.2-0.9-0.3-1.4-0.1-0.9-0.3-1.8-1.3-2.4 0.3-0.2 0.6-0.3 0.8-0.4-0.1-0.4-0.3-0.8-0.2-1.1 0.2-0.5 0-0.8-0.1-1.2-0.1-0.5-0.3-1.1-0.4-1.6-0.4-1.7-1.2-3.2-1.1-5 0-0.3-0.2-0.6-0.3-0.9-0.2-0.5-0.5-1-0.8-1.5-0.3 0.2-0.6 0.6-1 0.8-1.1 0.4-2 1.1-2.5 2.1-0.1 0.1-0.3 0.3-0.4 0.3-1.1 0.3-1.7 1.1-2.4 1.9-0.6 0.7-0.5 1 0.2 1.5 0.6 0.4 1.1 0.7 1.2 1.5 0.1 0.5 0.4 1 1.2 0.8 0.6-0.1 1.2 0.4 1.1 1-0.1 0.7 0.3 1.2 0.7 1.7 0.4-0.4 0.9-0.6 1.3-0.2 0.6 0.6 0.1 1.1-0.2 1.7 0.3 0.3 0.5 0.7 0.8 1 0.4-0.3 0.7-0.5 0.9-0.7 0.6 0.3 0.5 0.8 0.4 1.2-0.1 0.3-0.5 0.6-0.8 1 0.1 0.7 0.9 1.4 0.1 2.1 0.5 0.3 1.2 0.2 1.1 1.1-0.6 0.1-1.2 0.3-1.5-0.1-0.5 0.4-1 0.7-1.4 1 0.4 0.5 0.7 0.9 0.9 1.3-0.3 0.5-0.2 1.2-1.1 1.1-0.1-0.5-0.2-1-0.4-1.7-0.7 0.5-1.3 1-2.1 1.6 0.7 0.4 1.3 0.9 1.1 1.8h-1.5c0-0.4 0-0.7-0.1-1-0.4 0.4-0.8 0.7-1.2 1.1-0.3 0.3-0.5 0.6-0.7 0.9l-0.4-0.3zm14.6 32.1c-0.1-0.8-0.1-1.7-0.3-2.5-0.2-1.3-0.4-2.5-0.8-3.8-0.1-0.5-0.2-0.9-0.1-1.2-0.1-0.6-0.2-1-0.2-1.5 0-0.4 0-0.7-0.1-1.1-0.2-0.7-0.3-1.3-0.2-2 0.1-0.6-0.3-1.2-0.4-1.9-0.1-0.9-0.1-1.8-0.2-2.7v-3.2h-0.7c0 0.2 0.1 0.5 0 0.5-1.7 1.1-2.7 2.9-4 4.4-0.2 0.2-0.3 0.4-0.4 0.6-0.2 0.6-0.7 1-1.1 1.5-0.6 0.7-1.6 1.1-1.7 2.2 0 0.2-0.3 0.3-0.4 0.4s-0.2 0-0.3 0.1c-0.7 0.7-1.5 1.4-2.2 2.1-0.2 0.2-0.3 0.4-0.5 0.6-0.5 0.5-0.9 1-1.4 1.4-0.2 0.2-0.3 0.4-0.5 0.4-1-0.1-1.4 1-2.1 1.3-0.4 0.2-0.6 0.8-1.1 1-0.2 0.1-0.5 0.2-0.7 0.2-0.8 0-1.5 0.2-2.1 0.7-0.1 0.1-0.2 0.1-0.4 0.2-1.1 0.2-2.1 0.5-3.2 0.9-0.5 0.2-1.1 0.1-1.7 0.3-0.4 0.1-0.8 0.3-1.2 0.7-0.4 0-0.8 0-1.2-0.1-0.7-0.2-1.3-0.5-2 0-0.2 0.1-0.6 0.1-0.8 0-1-0.6-2-0.2-3.1-0.2-0.8 0-1.6-0.1-2.5-0.1-0.4 0-0.8 0.2-1.3 0.3-0.6-0.2-1.3-0.4-2-0.6-0.2 0.2-0.4 0.3-0.6 0.4-0.7-0.3-1.4-0.4-2.2-0.3s-1.7-0.3-2.5-0.6c-0.5-0.2-0.9-0.5-1.5-0.3-0.1 0-0.3-0.2-0.4-0.3-1.4 1.2-2.7 0.8-3.5-0.9-0.8-0.1-1.3 0.5-2 0.8-0.4 0.2-0.7 0.5-1.2 0.3-0.2-0.1-0.6 0.1-0.9 0.3-1 0.5-2.1 0.4-3.1 0.9-0.5 0.2-1.1 0.3-1.9 0.5-0.2 0.3-0.5 0.8-0.9 1.5-0.3 0.2-0.7 0.6-1.2 0.9s-0.9 0.8-1.6 0.7c-0.4 0-0.8 0.3-1.1 0.6-0.5 0.4-0.9 0.4-1.5 0.3-0.5-0.1-1 0.2-1.5 0.3s-0.9 0.1-1.3 0.1c-0.9 0-1.8-0.3-2.7-0.3-1.3-0.1-2.6-0.9-3.1-2.1-0.1-0.3-0.3-0.6-0.4-0.9-0.4-0.7-0.5-1.5-0.7-2.3-0.1-0.7-0.2-1.4-0.7-2-0.2-0.2-0.2-0.7-0.2-1 0-0.8-0.2-1.6-0.4-2.5-0.3-0.9-0.8-1.9-0.1-2.9 0.3-0.5 0.2-1.3 0.4-1.9 0.2-0.8 0.5-1.5 0.9-2.3 0.1-0.2 0.3-0.4 0.5-0.5 0.5-0.6 1.1-1.1 1.6-1.6 0.2-0.2 0.4-0.4 0.7-0.6 0.8-0.4 1.5-1.1 2.5-1.4 0.2 0 0.3-0.2 0.4-0.4 0.5-0.5 0.5-0.5 1.4-0.4 0.7-0.9 0.2-1.8-0.2-2.5s-0.4-1.3-0.2-2c-0.2-0.3-0.5-0.6-0.9-1 0-1.1-0.1-2.3 0-3.5 0.1-1.8 1.2-3.1 2.8-3.9 0.1-0.1 0.2-0.1 0.3-0.1 1 0.1 2.1 0 2.9 0.3 1 0.4 2.1 1.1 2.3 2.4 0.1 0.9 0.3 1.7 0.8 2.4 0.2 0.4 0 1 0.1 1.5 0.2 0.7 0.3 1.4 0.4 2.1s0.4 1.4 0.6 2.1c1 0.1 1.9 0.1 2.8 0.3 0.8 0.1 1.7 0 2.4 0.7 0.6-0.4 1.1-0.1 1.4 0.4 0.9 0 1.5-0.4 2.2-0.9 0.7-0.6 1.5-1 2.2-1.5 0.1-0.1 0.3-0.1 0.4-0.1 0.6 0 1-0.3 1.4-0.7 0.1-0.1 0.3-0.4 0.4-0.3 0.9 0.1 1.5-0.8 2.4-0.8 0.1 0 0.3-0.1 0.4-0.1 0.6-0.6 1.3-0.7 2.1-0.8 0.2-0.2 0.4-0.5 0.6-0.7 1.1-0.3 2.2-0.5 3-1.5 0.1-0.2 0.3-0.3 0.5-0.4 1.1-0.1 2-1 3.1-1.3 0.9-0.2 1.8-0.7 2.8-0.7 0.2 0 0.5-0.3 0.6-0.5 0.4-0.9 0.7-1.8 1.1-2.6 0.1-0.2 0.1-0.3 0.2-0.5 0.5-0.5 0.7-1 0.6-1.7 0-0.7 0.1-1.2 0.8-1.6 0.5-0.3 0.8-1 1.1-1.6 0.5-1 0.9-2.1 1.4-3.1 0.5-0.9 1.1-1.7 1.7-2.5 0.8-1.2 1.9-2.2 2.6-3.5 0.9-1.5 2.1-2.7 3.2-4 0.7-0.8 1.3-1.7 2-2.4 0.4-0.5 1.1-0.7 1.5-1.2 0.4-0.3 0.8-0.8 1.2-1.2-0.9-0.9-0.6-2.1-0.9-3.1 0-0.1 0-0.3 0.1-0.4 0.3-0.6 0.1-1.1-0.2-1.7s-0.6-1.3-0.4-2c-0.7-1.1-0.2-2.5-0.6-3.7-0.1-0.2-0.1-0.5-0.2-0.8 0.1-0.1 0.2-0.3 0.3-0.5 0.2-0.4 0.2-0.7-0.1-1-0.4-0.3-0.4-0.7-0.4-1.1-0.1-0.7-0.6-1.4-0.5-2.1 0-0.7 0-1.4-0.3-2-0.2-0.3-0.2-0.6 0-0.9 0-0.1-0.1-0.2-0.1-0.4-0.3 0.4-0.5 0.6-0.7 0.9-0.7-0.1-0.7-0.5-0.7-1s0.3-0.7 0.7-0.7c0.6-0.9 0-1.7-0.2-2.6-0.4-0.2-0.8-0.4-1.2-0.7-0.1-0.7 0.2-1 0.9-1.2-0.1-0.5-0.3-1-0.4-1.6-0.1-0.4 0-0.8 0-1.3-0.5-0.3-1.1-0.7-1.7-1 0-0.3 0.1-0.7 0.1-1.1-0.3-0.2-0.7-0.3-1-0.5-0.2-0.1-0.3-0.4-0.4-0.6 0.2-0.1 0.5-0.4 0.7-0.3 0.3 0 0.6 0.2 0.9 0.4 0.2 0.1 0.5 0.2 0.7 0.3 0.9-1.9 1.1-4 2.6-5.8 0.7-0.3 1.7-0.7 2.8-0.9 0.9-0.2 1.8-0.7 2.7-1.1 0.5-0.2 1.1-0.3 1.8-0.6 0.1-0.7 0.1-1.6 0.2-2.4 0.1-0.4 0.3-0.8 0.6-1.2 0.1-0.8 0.1-1.6 0.2-2.4 0-0.3 0.2-0.5 0.4-0.7 0.4-0.4 0.7-0.9 0.8-1.5 0-0.3 0.3-0.7 0.5-1 0-0.1 0.1-0.1 0.2-0.1 0.2-0.9 0.8-1.6 1.2-2.4s0.9-1.5 1.8-1.9c-0.3-0.9 0.7-1.1 1.1-1.6 0.9-1.2 2.3-1.9 3.4-2.9 0.2-0.2 0.4-0.5 0.6-0.8 0.6 0.1 1-0.3 1.5-0.6 0.8-0.5 1.7-0.8 2.6-1.2 0.2-0.1 0.5-0.2 0.7-0.4 0.5-0.3 0.9-0.6 1.5-0.3 0.1 0 0.3 0.1 0.3 0 0.6-0.8 1.6-0.4 2.3-0.9 0.2-0.1 0.4-0.1 0.6-0.1 0.4-0.1 0.8-0.1 1.1-0.2 0.6-0.2 1.2-0.4 1.9-0.6 0.6 0.5 1.3 0 2-0.2 0.8-0.2 1.8 0.1 2.5-0.5h0.2c0.9 0.4 1.8 0 2.7 0 1.6 0 3 0.3 4.5 0.9 0.6 0.3 1.3 0.3 1.9 0.4s1.3 0.2 1.9 0.4c1.1 0.4 2.2 0.8 3.4 1 0.1 0 0.2 0.1 0.3 0.1 0.5 0.8 1.4 0.8 2 1.3l0.6 0.3c0.4 0.1 0.8 0.2 1.1 0.7l0.3 0.3c1.2 0.4 2 1.3 2.7 2.4 0.2 0.4 0.7 0.5 1.2 0.7 0.2 0.4 0.5 0.7 0.7 1.1 0.1 0.2 0.2 0.4 0.3 0.4 1.2 0.3 1.4 1.7 2.4 2.2 0.2 0.1 0.2 0.4 0.4 0.4 0.9 0.2 1.2 1 1.5 1.7 0.2 0.3 0.3 0.6 0.4 1 0.3-0.1 0.6-0.2 0.9-0.3 1.2-0.1 2.5-0.1 3.7-0.3 0.5-0.1 1-0.3 1.5-0.4s1-0.2 1.6-0.3c0.3-0.1 0.6-0.1 0.9-0.2l1.2-0.3h0.8c0.3 0 0.7 0.2 0.9 0.1 1.4-0.8 2.8-0.3 4-0.4 0.6 0.5 1 0.9 1.4 1.2 0.7 0.6 0.8 1.4 1 2.1 0.2 1.2 0.8 2.3 0.4 3.6-0.1 0.2 0 0.5 0.1 0.7 1 1.6 0.9 3.4 1.1 5.1 0 0.2-0.1 0.4 0 0.5 0.7 1.1 0.2 2.3 0.4 3.5l0.3 1.8c0.3 1 0.5 1.9 0.4 3-0.1 1 0.3 2.1 0.5 3.2 0.1 0.6 0.2 1.1 0.3 1.7s0.3 1.3 0.4 1.9c0.3 1.1 0.8 2.2 0.6 3.6 0.9 1 0.8 2.4 1.2 3.7 0.5 1.7 0.5 3.5 0.9 5.2 0.2 0.7 0.4 1.5 0.6 2.3 0.2 0.3 0.6 0.7 0.9 1.2 0.4 0.5 0.8 0.9 1.3 1.2 1.3 0.8 2.5 1.8 3.5 3.1 0.7 0.8 1.6 1.4 2.4 2.2 0.4 0.3 0.7 0.7 1.1 1.1 0.3 0.4 0.8 0.7 1 1 0.6 0.8 1.4 1.2 1.9 2.1 0.4 0.6 0.8 1.4 1.6 1.7 0.2 0.1 0.4 0.4 0.4 0.6 0.3 1.2 1.2 1.9 2 2.6 0.4 0.3 0.7 0.6 0.9 1.1 0.4 0.7 1.1 1.2 1.6 1.9 0.6 0.8 1.2 1.6 1.8 2.5 0.1 0.2 0.3 0.4 0.4 0.5 0.9 0.5 1.3 1.3 1.7 2.1 0.1 0.2 0.2 0.4 0.4 0.6 0.5 0.6 0.8 1.3 0.9 2.1 0.1 0.6 0.5 1.3 1 1.8 0.6 0.6 0.6 1.4 1 2.1 0.1 0.2 0.1 0.5 0.3 0.7 0.9 1.1 0.9 2.5 1.3 3.7 0.6 2.3 0.9 4.6 1.8 6.9 0.1 0.3 0 0.7 0.1 1 0.1 1.2 0.8 2.1 1 3.3 0.2 1.4 0.8 2.8 0.7 4.3 0 0.3 0 0.7 0.2 1 0.4 0.9 0.5 1.8 0.3 2.7-0.1 0.4 0.1 0.8 0.1 1.2v2.4c0.4 0.5 1 1.2 1.4 2 0.7 1.4 0.7 3 1.4 4.4 0.3 0.6 0.1 1.4 0.3 2.1 0.3 0.9 0 1.8 0.3 2.6 0.2 0.7 0.4 1.3 0.5 2v4.2s-0.1 0-0.1 0.1c0 0.6-0.1 1.2-0.1 1.8-0.1 0.6-0.2 1.1-0.3 1.7 0 0.1 0.1 0.3 0 0.3-0.5 0.7-0.9 1.4-1.5 2-0.4 0.4-0.8 0.9-1.4 0.7-0.6 0.5-1.1 0.9-1.5 1.3-0.3 0-0.6-0.2-0.9-0.1-0.7 0.2-1.4 0.5-2.1 0.8-0.2 0.1-0.5 0.2-0.7 0.3-0.7 0.1-1.4-0.2-2.1 0.2-0.1 0.1-0.3 0-0.4-0.1-1.1-0.3-2.2-0.7-3.3-0.9-0.7-0.1-1.4-0.4-1.8-1-0.6 0.9-1.3 0.3-1.9 0.2-0.2-0.5-0.4-0.9-0.6-1.4-0.2-0.4-0.6-1-0.5-1.3 0.4-0.7-0.4-0.9-0.3-1.4 0.1-0.1 0.3-0.2 0.3-0.2-0.1-0.4-0.1-0.7-0.2-1-0.1 0-0.3-0.1-0.6-0.1-0.3-0.4-0.4-0.9-0.3-1.4 0-0.4 0.3-0.9 0-1.4-0.2-0.3-0.4-0.8-0.1-1.3 0.1-0.2 0.1-0.6 0-0.8-0.4-0.9-0.3-1.8-0.2-2.7 0-0.4-0.2-0.8-0.1-1.2 0.2-1.3 0.6-2.6 0.9-3.8 0.1-0.2 0.3-0.4 0.3-0.4-0.4-0.3-0.7-0.7-1.1-1-0.2-0.2-0.4-0.3-0.5-0.5-0.2-0.3-0.4-0.6-0.5-0.9-0.2-0.8-0.6-1.4-1.2-2-0.4-0.3-0.6-0.8-0.8-1.2-0.5-1.1-0.7-2.3-1.5-3.3-0.7-0.9-1-1.9-1.3-2.9-0.3-1.1-0.9-1.9-1.4-2.9-0.3-0.6-0.8-1.2-1.1-1.9-0.5-1.3-1-2.7-1.5-4.1-0.1 0-0.3-0.1-0.5-0.2 0.1-0.2 0.1-0.4 0.2-0.6-0.5-0.5-0.9-0.4-1.3-0.1v1.5c0.1 0.4 0.4 0.8 0.3 1.2-0.2 0.7-0.1 1.4 0.1 2.1 0.1 0.2 0 0.4-0.1 0.6 0 0.2-0.1 0.5 0 0.7 0.6 2.3 0.8 4.6 0.9 6.9 0 0.4 0.1 0.9 0.2 1.3l0.3 1.5c0.1 0.9 0 1.8 0.4 2.6 0.3 0.8 0.5 1.6 0.7 2.5s0.2 1.8 0.2 2.7c0 0.4 0.2 0.9 0.3 1.3 0.1 0.5 0.2 1 0.4 1.5s0.1 1.2 0.3 1.6c0.2 0.6 0.2 1.2 0.3 1.8 0.1 0.7 0.1 1.4 0.3 2.1s0.5 1.3 0.7 2c0.1 0.7 0.1 1.5 0.2 2.3 0 0.2-0.2 0.4-0.3 0.5-0.7 0.7-1.6 1.1-2.5 1.4-0.5 0.1-0.9 0.3-1.4 0.5 0.2 0.4 0.3 0.7 0.5 1 0.2 0.5 0.4 1 0.7 1.4s0.4 0.7 0.4 1.2c0.2 1.1 0.3 2.2 0.7 3.2 0.3 0.8 0.7 1.6 0.6 2.5-0.1 0.5 0.1 0.9 0.5 1.3 0.2 0.2 0.4 0.6 0.4 0.9 0.1 0.7 0 1.3 0.1 2 0.1 0.8 0.4 1.6 0.6 2.5 0.4 1.9 1.1 3.7 1 5.6v0.3c0.4 1.2 0.8 2.5 0.7 3.8 0 0.1 0 0.2 0.1 0.3 0.6 0.8 0.4 1.8 0.6 2.7 0.1 1 0.1 2.1 0.5 3 0.1 0.1 0.2 0.3 0.1 0.4-0.2 0.8 0.1 1.6 0.4 2.3 0.2 0.4 0.5 0.8 0.4 1.2-0.1 1 0 1.9 0.3 2.9 0.4 1.5 0.5 3.1 0.7 4.7 0 0.1 0.1 0.3 0.1 0.4-0.5 0.6-0.2 1.1-0.1 1.7 0.1 0.5 0.5 1 0.1 1.5 0 0.1 0.1 0.3 0.1 0.4 0.2 0.5 0.4 1.1 0.4 1.6 0 0.6 0.6 1.2-0.1 1.7-0.1 0 0 0.3 0.1 0.4 0.2 1.2 0.3 2.4 0.6 3.6 0.1 0.5 0 0.8-0.4 1.1 0.8 1.6 0.4 3.3 0.8 5-0.4 1.1 0.5 2.2 0.1 3.4 0.4 1.6 0.1 3.1 0 4.7 0.2 0.2 0.4 0.5 0.6 0.8-0.1 1.1-0.2 2.1-0.2 3.2 0 1.6 0.1 3.1 0.1 4.7 0 0.2 0.1 0.5 0 0.6-0.2 0.4-0.1 0.7 0 1 0.1 0.7 0.3 1.5 0 2-0.4 0.8-0.3 1.5-0.1 2.3 0.1 0.4 0.5 0.8 0.1 1.3s-0.3 1-0.2 1.5c0 0.5 0.3 1.1-0.1 1.6-0.1 0.1 0 0.3 0.1 0.4 0.4 0.5 0.3 1 0.3 1.6s0.1 1.2 0.1 1.9c0 0.1-0.2 0.3-0.3 0.6 0.7 1.2 0.3 2.5 0.4 3.7s0 2.3 0 3.5 0.5 2.3 0 3.5v0.3c0 0.5 0.1 1 0 1.4-0.1 0.6 0 1.1 0.2 1.7 0.7 1.7 0.1 3.4-1.4 4.6 0.1 0.7 0.2 1.4 0.2 2.2 0 0.2 0.1 0.6-0.1 0.7-0.4 0.6-0.9 1.1-1.4 1.7-0.2 0.2-0.5 0.4-0.7 0.6 0.3 0.4 0.5 0.8 0.6 1 0 0.4-0.1 0.8 0 1 0.7 2 1.8 4 1.9 6.2 0 0.4 0.4 0.8 0.4 1.2-0.1 1.3 0.5 2.5 0 3.8-0.1 0.3-0.1 0.7 0.1 1 0.3 0.5 0 1-0.1 1.4-0.3 0.7-0.7 1.5-0.7 2.2 0 0.5-0.1 0.9-0.3 1.3-0.3 0.6-0.8 1.2-1.1 1.8-0.4 0.9-1.2 1.4-2.1 1.7-0.6 0.2-1.2 0.4-1.9 0.7h-3.5c-0.5-0.4-0.9-0.7-1.4-1.1-0.6-0.5-1.2-0.9-1.8-1.4-0.3-0.3-0.6-0.7-0.9-1-0.4-0.6-0.8-0.9-1.3-1.4-0.6-0.5-1-1.2-1.4-1.9-0.4-0.8-0.8-1.6-0.9-2.4-0.1-0.9-0.7-1.7-0.8-2.7-0.2-1.3-0.6-2.6-0.8-3.9 0-0.3-0.1-0.7-0.3-0.9-0.5-0.6-0.3-1.2-0.1-1.9-0.5-0.5-0.7-1.2-0.6-2 0-0.5 0.1-1.1-0.3-1.6-0.2-0.2-0.1-0.6-0.1-0.8-0.1-1-0.3-2-1-2.8-0.3-0.3-0.7-0.5-0.9-0.8-1.1-1.4-2.6-2.4-3.2-4.1 0-0.1-0.1-0.2-0.2-0.3-0.9-0.5-0.9-1.5-1.1-2.3-0.1-0.4-0.2-0.9-0.5-1.3-0.5-0.7-0.6-1.5-0.8-2.3-0.2-0.7-0.4-1.3-0.6-1.9-0.2-0.4-0.5-0.8-0.5-1.3-0.1-0.5-0.3-1-0.6-1.4s-0.4-0.9-0.4-1.4c-0.1-1.7-0.6-3.3-1.2-4.8-0.1-0.1 0-0.3 0-0.5s0.1-0.5 0-0.6c-0.7-0.5-0.6-1.3-1.1-1.9 0.2-0.2 0.3-0.4 0.4-0.7-0.2-0.6-0.4-1.1-0.7-1.7-0.1-0.3-0.3-0.6-0.3-0.9 0-1.2-0.5-2.3-0.8-3.4-0.2-0.6-0.1-1.3-0.1-2 0-0.4 0-1-0.2-1.3-0.6-0.8-0.5-1.6-0.3-2.4 0.1-0.5 0-1-0.2-1.5-0.8-1.5-0.9-3.2-1.2-4.8-0.1-0.5-0.3-1-0.4-1.6-0.4-1.6-1-3.2-1.2-4.8-0.1-1-0.4-1.8-0.9-2.7-0.2-0.4-0.2-1-0.3-1.5-0.1-0.3-0.1-0.7-0.3-0.9-0.6-0.9-0.7-2-0.7-3 0-0.4-0.1-0.7-0.3-1.1-0.3-0.5-0.5-1.1-0.7-1.7-0.2-0.8-0.4-1.5-0.9-2.1-0.3-0.3-0.3-0.8-0.5-1.2-0.2-0.8-0.2-1.7-0.8-2.4 0 0-0.1-0.1-0.1-0.2 0.1-1.2-0.6-2.3-0.7-3.5-0.1-0.9-0.5-1.8-0.8-2.7-0.3-1-1-1.9-0.8-3 0.1-0.2-0.3-0.5-0.3-0.8-0.2-0.9-0.4-1.7-0.7-2.6-0.2-0.9-0.5-1.7-0.8-2.5-0.6-1.6-1.2-3.2-1.7-4.9-0.2-0.9-0.3-1.7-1-2.4-1 0-1.2 0.8-1.5 1.5 0.2 1 0.3 2.1 0.2 3.2 0 0.1-0.1 0.3 0 0.4 0.5 0.9-0.2 1.7-0.2 2.6 0 0.3-0.2 0.5-0.3 0.6 0.1 0.5 0.2 0.9 0.2 1.3 0 0.8-0.3 1.5-0.1 2.3 0.1 0.7-0.3 1.4-0.8 1.9 0.6 1.1 0.4 2.2 0 3.3-0.2 0.5-0.3 1-0.4 1.6 1.4 0.5 2.7 1 3.2 2.3 0.5 1.1 1 2.3 0.1 3.5 0.5 0.7 0.8 1.3 0.3 2.1 0 0.1-0.1 0.1-0.1 0.2 0.2 1.4-0.5 2.8-0.4 4.2 0 0.4-0.1 0.7-0.2 1.1-0.1 0.8-0.3 1.7-0.3 2.5 0 0.4 0 0.7-0.2 1-0.1 0.2-0.1 0.4-0.1 0.6 0.2 1.4-0.3 2.7-0.3 4v1.1c0 0.2 0 0.5-0.1 0.7-0.3 1-0.6 2.1-0.4 3.2 0.1 0.3-0.2 0.6-0.4 1 0.3 0.5 0.2 1 0.2 1.6-0.2 1.3-0.9 2.6-0.9 3.9 0 1.4-1 2.3-1.3 3.6 0 0.1-0.1 0.3-0.2 0.4-1.2 0.5-1.7 1.6-2.6 2.4-0.2 0.2-0.5 0.3-0.7 0.4-0.3 0.2-0.9 0.1-1.1 0.7 0 0.1-0.4 0.1-0.6 0.2-1 0.1-1.9 0.3-2.9 0.4-0.3 0-0.6 0-0.8-0.1-0.4-0.1-0.8-0.3-1.2-0.3-0.6 0-1-0.3-1.3-0.7-0.3-0.5-0.7-0.8-1.2-1.1s-1.3-1.4-1.5-1.9c-0.1-0.3-0.2-0.5-0.2-0.9-0.6 0.1-1.3-0.1-1.9 0.3-0.2 0.2-0.7 0-1-0.1s-0.6-0.2-0.8-0.2c-2.8 0-4.9-1.6-7.3-2.7-0.8-0.4-1.6-0.6-2.2-1.3-1.1-1.3-2.8-1.7-4.1-2.8-0.5-0.4-1.1-0.8-1.6-1.3-0.7-0.8-1.7-1.2-2.6-1.9 0-0.2-0.1-0.4-0.1-0.7-0.9-0.5-1.4-1.4-1.5-2.8 0-0.3-0.1-0.6-0.4-0.9-0.6-0.7-0.7-1.6-0.3-2.4 0.2-0.4 0.2-0.7 0-1.1-0.1-0.2-0.2-0.5-0.2-0.8 0-0.8 0.1-1.5 0.1-2.3 0-0.2-0.1-0.5-0.3-0.7 0.1 0.6-0.1 1.1-0.8 1.2-0.5 0.1-1.1-0.2-1.2-0.6s0.1-0.8 0.7-0.9c0.4-0.1 0.9-0.2 1.5-0.3 0.2-0.8 0.5-1.8 0.6-2.7s-0.2-1.8-0.1-2.7c0-0.8 0.2-1.7 0.2-2.5s0.2-1.6-0.6-2.2c0-0.8 1.1-0.8 1.1-1.6-0.1-0.6-0.1-1.2-0.1-1.8-0.2-0.2-0.4-0.4-0.7-0.6 0.1-0.4 0.1-0.7 0.2-1.1 0.3-0.2 0.5-0.4 0.7-0.6 0.1-0.9 0.2-1.6 0.3-2.4-0.7-0.1-1.1-0.5-1.2-1-0.1-0.7 0.2-0.9 1.3-1.3 0-0.8 0.8-1.6 0.3-2.6-0.7 0.1-1.5 0.3-1.9-0.7 0.2-0.7 0.7-0.9 1.4-0.9 0.6 0 0.6 0 0.9-0.3 0.1-1.1 0.2-2 0.3-3 0.1-0.6 0.4-1.2 0.5-1.8 0-0.1 0.1-0.2 0-0.2-0.5-1 0.2-1.9 0.4-2.8 0-0.2 0.1-0.4 0-0.6-0.3-1.5 0.1-2.9 0.4-4.3 0.1-0.5 0-1.1-0.2-1.7-0.1 0.3-0.2 0.5-0.4 1-0.3-0.3-0.7-0.5-0.8-0.8-0.2-0.7 0.5-0.8 0.9-1.4 0.2 0.3 0.4 0.5 0.6 0.7 0.5-0.5 0-1-0.1-1.4 0.1-0.6 0.3-1.1 0.4-1.7-0.7-0.1-1.3-0.2-1.9-0.3-0.1-1 0.2-1.2 1.5-1.3 0.1 0.3 0.3 0.6 0.5 1 0.1-0.4 0.2-0.7 0.2-1 0.1-1.2 0.1-2.3 0.2-3.5 0.1-0.8 0.3-1.5 0-2.2 0-0.1-0.1-0.3 0-0.3 0.6-0.7 0.3-1.6 0.6-2.3 0.2-0.4 0-1 0-1.5l-0.6-0.3v-1.1h0.9c0.2-0.9 0.4-1.8 0.7-2.9-0.5 0.1-0.7 0.2-1 0.2-0.5-0.2-0.7-0.9-0.4-1.7h1.3c0.3-0.7 0.3-1.6 0.4-2.4 0.1-0.6 0.1-1.2 0.2-1.8v-0.1c-0.7-1 0-2.2-0.5-3.3-0.4 0.5-1 0.5-1.5 0.2-0.3-0.1-0.4-0.6-0.6-0.8 0.3-0.9 1-1 1.7-1.2-0.3-0.7-1.2-1.3-0.6-2.2-0.3-0.3-0.5-0.6-0.9-0.9 0.1-0.3 0.3-0.7 0.4-1-0.2-0.6-0.4-1.1-0.6-1.6l-0.1-0.8z"/><path d="m78.6 125.2c-0.4 0.3-0.7 0.5-1 0.8-0.3-0.1-0.6-0.3-0.8-0.4-0.2-1.8 0.2-2.2 1.9-1.5v1.1"/><path d="m73.1 181.6 1.3 1.3c-0.3 0.4-0.5 0.6-0.7 0.9-0.5 0.5-1.2 0.3-1.4-0.3s0-1.3 0.8-1.9"/><path d="m75.4 155.2c-0.4-0.3-0.7-0.5-0.9-0.8-0.5-0.7-0.2-1.3 0.7-1.4 0.2 0 0.5 0 0.8 0.1 0.5 0.1 0.7 0.5 0.5 1-0.2 0.4-0.6 0.7-1 1.2"/><path d="m76.4 118.1c-0.4 0.9-1 1.1-1.8 0.8l-0.3-1.2c1-1 1.6-0.9 2.2 0.4"/><path d="m58.6 42.4c-0.3 0.6-0.7 1.1-1.5 1-0.6-0.1-0.8-0.4-0.7-1.2 0.1-0.5 0.3-0.8 0.9-0.6 0.5 0.1 1.1-0.1 1.3 0.8"/><path d="m59.5 59.4c-0.7-0.4-1.2-0.9-1.1-1.6 0.1-0.8 0.9-0.6 1.4-0.9 0.6 0.9 0.5 1.7-0.3 2.5"/><path d="m78.5 138.3c0 0.6-0.4 1-0.9 1s-0.9-0.5-0.9-1c0-0.6 0.4-1.2 0.8-1.2 0.5 0 1 0.5 1 1.2"/><path d="m75.2 161.6c0.6 0.2 1.1 0.5 1.1 1.3 0 0.6-0.4 1-1 1.1-1.1-0.8-1.2-1.5-0.1-2.3"/><path d="m75.4 168.5c-0.9-0.8-0.9-0.8-1.1-1.6 0.6-0.2 1.2-0.4 1.9-0.5 0.4 1.4 0.3 1.9-0.7 2.1"/><path d="m56.6 46.1c0.5 0.1 1 0.1 1.4 0.2 0.4 0.9 0.4 0.9-0.5 1.7-1.8-0.5-1.7-1.1-0.9-1.9"/><path d="m73.1 190.6c0.9 0.6 0.9 0.6 1.2 1.6-0.2 0.2-0.5 0.4-0.8 0.6-0.4-0.1-0.7-0.3-1-0.4-0.6-0.3-0.7-0.6-0.2-1l0.8-0.8"/><path d="m71.7 187.2c0.4-0.1 0.7-0.1 0.9-0.1 0.2-0.3 0.4-0.6 0.6-0.8 0.5 0 0.6 0.3 0.7 0.6v0.6c0 0.4 0 0.8-0.5 0.9-0.3 0-0.8-0.1-1.1-0.3-0.2-0.2-0.3-0.5-0.6-0.9"/><path d="m78 148c-1 0-1 0-1.4-1 0.3-0.3 0.5-0.6 0.8-0.9 1.5 0.3 1.5 0.3 0.6 1.9"/><path d="m74.1 169.5c-0.4 0.4-0.9 0.7-1.2 1.1-1.1-0.7-1.1-1-0.2-2 1 0.1 1 0.1 1.4 0.9"/><path d="m56.3 55.9c0.5-0.4 0.8-0.6 1.3-1 0.5 0.1 0.7 0.3 0.7 0.8 0 0.6-0.1 0.7-1.3 1-0.2-0.3-0.5-0.6-0.7-0.8"/><path d="m72.3 173.2c1-0.1 1-0.1 1.5 0.8l-0.3 0.9c-1.3 0.2-1.6-0.2-1.2-1.7"/><path d="m74 106.8c-0.2 0.2-0.4 0.5-0.6 0.6-0.3 0.1-0.7 0.1-1 0-0.4-0.2-0.6-0.6-0.4-1 0.2-0.2 0.6-0.5 0.9-0.5 0.5 0 0.9 0.2 1.1 0.9"/><path d="m59.5 63.4c-0.2-0.1-0.4-0.1-0.6-0.2-0.1-0.1-0.2-0.2-0.4-0.3 0.1-0.4 0.2-0.7 0.3-1.1 0.8-0.2 1.3-0.1 1.5 0.4 0.2 0.6-0.1 1-0.7 1.2"/><path d="m73.8 178.9c-0.4 0.2-0.8 0.4-1.2 0.5-0.7-0.8-0.7-0.8 0.1-1.9 1 0.2 1.2 0.5 1.1 1.4"/><path d="m58.3 38.6c-0.5 0.1-0.9 0.2-1.4 0.3-0.1-0.6-0.7-1-0.2-1.5 0.2-0.2 0.5-0.3 0.7-0.3 0.4 0 0.8 0.7 0.9 1.5"/><path d="m79.9 130.3c0.2 0.1 0.2 0.1 0.3 0.1 0.2 0.1 0.4 0.3 0.7 0.5-0.1 0.4-0.3 0.9-0.5 1.3-0.7 0.2-1-0.2-1.2-0.7-0.2-0.6 0.2-0.9 0.7-1.2"/><path d="m60.2 52.8c0 0.6 0.1 1.1 0.1 1.6-0.8 0.3-1.3-0.3-1.7-0.6-0.3-0.2 0-0.8 0.4-0.9h0.5c0.2 0 0.3-0.1 0.6-0.1"/><path d="m76.4 113.7c-0.3 0.2-0.4 0.3-0.6 0.4-0.4 0.3-0.9 0.5-1.1 0.1-0.2-0.3-0.2-0.8-0.2-1.2 0.1-0.4 0.4-0.5 0.8-0.3 0.4 0.3 0.7 0.6 1.1 1"/><path d="m54.8 34.7c1 0.4 1.2 0.8 0.9 1.5-0.2 0.5-0.7 0.6-1 0.2-0.5-0.5-0.4-1.2 0.1-1.7"/><path d="m78.6 120.1v0.8c-0.4 0.1-0.8 0.2-1.2 0.4-0.3-0.4-0.5-0.7-0.8-1.1 0.7-0.7 1.4-0.4 2 0"/><path d="m59.5 48c0.8 0.4 0.8 0.4 0.6 1.4-1.1 0.6-1.1 0.6-1.6-0.3 0-0.1 0.1-0.1 0.1-0.1h0.4c0.1-0.3 0.2-0.6 0.3-0.8h0.1"/><path d="m76.9 143.4c0.1-0.5 0.2-1 0.3-1.4 0.5 0.1 1.1-0.2 1.5 0.6-0.1 0.2-0.2 0.6-0.4 0.9-0.5 0-0.9-0.1-1.3-0.1"/><path d="m54.8 45.6c-0.1-0.7-0.4-1.4 0.6-1.7 0.3 0.3 0.9 0.5 0.7 1.1-0.2 0.5-0.6 0.7-1.3 0.6"/><path d="m74.6 157.7c0.5 0.1 0.7 0.1 1 0.2 0.2 0.1 0.6 0.2 0.6 0.4 0.1 0.3-0.1 0.6-0.5 0.7-0.1 0-0.2 0.1-0.4 0.2-0.3-0.2-0.5-0.4-0.9-0.6 0-0.3 0-0.6 0.1-1"/><path d="m72.4 164.4c1.1 0 1.1 0 1.7 0.7-0.5 0.2-0.8 0.9-1.5 0.6-0.4-0.2-0.4-0.4-0.2-1.3"/><path d="m57.4 52.2c-1-0.8-1-1.3-0.2-1.6 0.2-0.1 0.6 0 0.8 0.1 0.1 0.1 0.1 0.5 0.1 0.7-0.1 0.3-0.4 0.5-0.6 0.8"/><path d="m75.6 109.9c-0.6 0.2-1 0.2-1.3-0.2-0.1-0.3-0.1-0.7 0-0.9 0.2-0.4 0.6-0.3 1-0.2 0.1 0.4 0.2 0.9 0.3 1.4"/><path d="m73.4 159.6c0.2 0.4 0.3 0.8 0.5 1.3-0.2 0.1-0.3 0.3-0.5 0.4-0.4 0.2-0.8 0-0.8-0.4 0-0.5-0.1-1.1 0.8-1.2"/><path d="m60.9 61.2c0.1-0.7-0.3-1.4 0.7-1.7 0.2 0.5 0.4 1 0.6 1.7-0.5 0-0.8 0-1.3-0.1"/><path d="m77.8 128.1c0.3 0.4 0.5 0.8 0.7 1.1-0.1-0.1-0.3-0.1-0.4-0.2-0.3 0.3-0.5 0.6-0.7 0.8-0.2-0.5-0.2-1 0.4-1.7"/><path d="m77.6 134.5c-0.6 0-0.7-0.3-0.8-0.6-0.1-0.5 0.2-0.7 0.6-0.7s0.8 0.1 0.7 0.5c-0.1 0.3-0.4 0.6-0.6 0.8"/><path d="m56 40.3c-0.5 0.3-0.9 0.4-1.3 0.7-0.2-0.5-0.3-0.9-0.4-1.3 0.9-0.5 1.1 0.2 1.7 0.6"/><path d="m57.5 61.1c-0.2-0.5-0.3-1-0.5-1.6 0.8-0.1 0.9 0.5 1.1 0.9 0.1 0.2-0.2 0.5-0.3 0.7h-0.3"/><path d="m73.8 111.9c-1 0.1-1 0.1-1-0.9 0.9-0.1 1 0 1 0.9"/><path d="m143.3 90.1c0-0.3-0.1-0.6-0.1-1.1 0.5-0.1 0.9-0.3 1.4-0.4 0.6 0.3 0.7 0.8 0.8 1.4-0.3 0.2-0.5 0.4-0.8 0.6-0.3-0.1-0.6-0.1-0.9-0.2l-0.3-0.3"/><path d="m126.7 181.7c0-0.9 0.6-1.1 1.4-1.2 0.5-0.7 1-1.5 0.7-2.7 0.5 0.1 0.9 0.1 1.3 0.1v1.9c0 0.2-0.1 0.6-0.3 0.7-0.6 0.3-0.7 0.9-0.8 1.4-0.9 0.5-1.6 0.3-2.3-0.3"/><path d="m81.5 186.3v1.5c-0.4 0.2-0.9 0.4-1.4 0.6-0.2-0.4-0.3-0.8-0.5-1.1-0.2-0.4-0.2-0.7 0.1-1s0.7-0.5 1.1-0.3c0.2 0.1 0.4 0.2 0.7 0.4"/><path d="m124.2 165.7c0.5-0.9 1.3-1 2.1-1.1 0.5-0.1 0.6 0.8 0.3 1.3-0.5 0.6-1.2 0.7-1.8 0.2-0.2-0.1-0.3-0.3-0.6-0.5"/><path d="m133.8 202.2c-0.1-0.1-0.1-0.2-0.2-0.4-0.2-0.4-0.3-0.8 0.2-1 0.4-0.2 0.9-0.5 1.4-0.2 0.4 0.3 0.6 0.6 0.5 1.1s-0.5 0.8-1 0.7c-0.3 0-0.6-0.2-0.9-0.2"/><path d="m83.8 194.2c-0.2 0.2-0.5 0.4-0.7 0.6-0.5-0.2-0.9-0.3-1.4-0.5 0.4-1.2 0.8-1.7 1.6-1.6 0.6 0.1 0.6 0.3 0.6 1.4"/><path d="m81.5 183.2c-0.7-0.3-1.4 0.7-2.2-0.1 0.2-0.4 0.4-0.9 0.6-1.3 0.3-0.1 0.7-0.2 1-0.3 0.8 0.7 0.8 0.7 0.6 1.7"/><path d="m133 191.2c-1.1 0.1-1.5 0-1.7-0.6-0.2-0.7 0.1-1.2 0.9-1.5 1 0.8 1 0.8 0.8 2.1"/><path d="m129.7 189.1c-0.7-0.6-0.9-1.2-0.5-1.7 0.3-0.3 1-0.5 1.4-0.2 0.5 0.3 0.6 0.7 0.1 1.8-0.3 0-0.6 0.1-0.9 0.1"/><path d="m81.7 167.4c0-1.5 0.3-1.7 1.8-1.2 0.3 0.7 0.3 1.1-0.1 1.5-0.7 0.6-1-0.4-1.6-0.4"/><path d="m126.9 172c0.3-0.2 0.6-0.4 0.9-0.7 0.9 0.3 1.2 0.6 1.1 1.2-0.1 0.4-0.5 0.9-1 0.9s-0.8-0.3-1-1.4"/><path d="m125.1 171.2c-0.6-0.7-0.8-1.2-0.5-1.6 0.2-0.4 0.6-0.6 1-0.4 0.5 0.2 0.8 0.5 0.8 1 0 1-0.9 0.6-1.3 1"/><path d="m85.6 147.8c-0.3 0-0.5 0.1-0.7 0-0.4-0.1-0.7-0.3-0.6-0.8 0.1-0.3 0-0.6 0-1.1 0.5-0.1 0.9-0.1 1.3-0.1 0.5 0.7 0.4 1.3 0.1 2"/><path d="m133.3 197c0.2-1.1 1-1 1.8-1 0.2 0.7 0.3 1.3-0.3 1.9-0.6-0.1-1.2-0.1-1.5-0.8"/><path d="m82.3 172.4c-0.9-0.9-0.8-1.3 0.4-1.9 0.8 0.3 1 0.7 0.9 1.2-0.2 0.9-1 0.4-1.4 0.7"/><path d="m88.3 140.6c-0.6 0.5-1.1 0.5-1.7 0.3-0.2-1.2 0.1-1.6 0.9-1.7 0.6 0 0.8 0.2 0.8 1.4"/><path d="m128 175.7c1 0.9 0.9 1.2-0.1 2.2l-1.2-0.9c-0.1-0.9 0.8-0.9 1.2-1.4"/><path d="m129.1 183.9c0.2-0.5 0.4-1 0.7-1.5 0.4 0.1 0.7 0.3 1.2 0.4-0.1 0.6-0.1 1.2-0.4 1.5-0.4 0.5-0.9-0.1-1.5-0.4"/><path d="m84.4 159.5c0.3-0.1 0.5-0.2 0.8-0.3 0.8 0.5 0.9 0.6 0.6 1.3-0.2 0.4-0.4 0.7-0.9 0.6-0.6-0.1-0.7-0.5-0.5-1.6"/><path d="m81.6 178.2c-0.4 0.3-0.7 0.6-1 0.8-0.8-0.2-0.8-0.9-1.1-1.4 0.5-1 1.1 0.1 1.7-0.3 0.1 0.3 0.2 0.5 0.4 0.9"/><path d="m82.7 174.9c1.1 0.8 1.2 1 0.8 1.8h-0.3-0.9c-0.7-1-0.7-1.1 0.4-1.8"/><path d="m82.1 163.2 0.3-1.5c0.6-0.2 0.9-0.1 1.2 0.5 0.2 0.4 0.2 0.8-0.1 1.2-0.5 0.5-0.8 0.2-1.3-0.1"/><path d="m132.8 195.6c-1.4-0.4-1.4-0.4-1.2-1.7h1.4c0.1 0.6 0.2 1.2-0.2 1.7"/><path d="m88.3 144.1c-0.4 1.1-1 1.3-2 0.8v-0.8c0.3-0.5 0.9-0.5 2 0"/><path d="m85.8 151.9c-0.2 0.1-0.4 0.2-0.6 0.2-1-0.6-1.1-0.8-0.9-1.2s0.6-0.6 1-0.5c0.5 0.1 0.6 0.6 0.6 1.5"/><path d="m123.3 162.5c1.1 0.1 1.1 0.1 1 1.6-0.4 0.3-0.7 0.6-1.4 0.3 0.1-0.6 0.3-1.2 0.4-1.8"/><path d="m135.5 193.1c-0.7 0.1-1.2 0.2-1.7 0.2-0.1-0.5-0.2-0.8-0.4-1.3 0.4-0.1 0.8-0.2 1.3-0.4l0.7 1.4"/><path d="m79.7 192.3c-0.1-1 0.6-1.3 1.3-1.6 0.4 0.1 0.8 0.2 0.8 0.9-0.7 0-1 1.2-2 0.7"/><path d="m128.2 168.9h-0.9c-0.7-0.3-0.6-0.8 0.1-1.8 1 0.4 1.2 0.8 0.7 1.8"/><path d="m86 155.1c0.2 0.5 0.1 1-0.4 1.2-0.3 0.1-0.8 0-1.1-0.3-0.2-0.2-0.2-0.6-0.2-1 0-0.1 0.5-0.2 0.7-0.2 0.3 0 0.5 0.2 0.9 0.3"/><path d="m80 195.3c1.1-0.2 1.5-0.1 1.5 0.4 0 0.4-0.6 1.1-1 1.1-0.5 0-0.6-0.3-0.5-1.5"/><path d="m133.1 186.3c-0.7 0.6-1.2 0.6-1.6 0.1-0.4-0.4-0.2-0.7 0.7-1.6 0 0.2 0 0.4 0.1 0.5v0.6c0.3 0.1 0.6 0.3 0.9 0.4"/><path d="m83.5 180.9c-1.1-0.4-1.3-0.8-1.1-1.3 0.2-0.3 0.5-0.5 0.8-0.3 0.2 0.2 0.4 0.4 0.4 0.7 0.1 0.2-0.1 0.5-0.2 0.8"/><path d="m131.6 180.7c0.9 0.4 1 1 0.9 1.8h-1c0-0.6 0.1-1.2 0.1-1.8"/><path d="m84.8 141.3c0.8 0.8 0.8 1.2 0.2 2-0.3-0.2-0.5-0.4-0.8-0.7 0.2-0.4 0.4-0.8 0.6-1.3"/><path d="m136.5 200c-0.3-0.2-0.6-0.4-0.8-0.6 0 0 0-0.1-0.1-0.2 0.2-0.3 0.5-0.6 0.9-0.9 0.4 0.7 0.4 1.2 0.1 1.8"/><path d="m84.9 190.7c0.3 0.9 0.3 0.9 0 1.6-0.8-0.5-0.8-0.9 0-1.6"/><path d="m83.8 169c0.3-0.2 0.5-0.4 0.7-0.5 0.4 0.1 0.4 0.7 0.2 1.4-0.6 0.1-0.7-0.4-0.9-0.9"/><path d="m86.2 148.7c0.5 0.1 0.9 0.1 1.3 0.1v0.7c-0.4 0.4-0.9 0.1-1.3-0.9"/><path d="m82 189.8c0.6-0.5 1.1-0.6 1.6-0.4 0.1 0.6-0.5 0.6-0.8 0.8-0.2-0.1-0.5-0.3-0.8-0.5"/><path d="m88.3 85.1c0.2 1.3 0.4 2.4 0.6 3.5 0-1.1 0.4-2.4-0.6-3.5zm31.8 15.7c0.2 0.1 0.4 0.2 0.5 0.2 2.2-0.5 4.4-1 6.5-1.5 0-0.5-0.1-1 0-1.4 0.3-0.9 0-1.5-0.4-2.2-0.2-0.3-0.4-0.6-0.2-1.1 0.1-0.2 0-0.6-0.1-0.8-0.7-1.4-0.6-3-0.9-4.5-0.1-0.5 0.1-1-0.4-1.5-0.2-0.1-0.1-0.5-0.1-0.8v-1.2c-0.2-0.9-0.8-1.7-0.6-2.8 0-0.2-0.1-0.3-0.1-0.5-0.1-0.4-0.1-0.8-0.2-1.3 0-0.3 0-0.6-0.1-0.9-0.3-1.1-0.5-2.2-0.8-3.4-0.6 0.1-1.3 0-1.8 0.3-0.8 0.5-1.6 0.7-2.4 0.9h-0.3c-0.1-0.3-0.3-0.5-0.4-0.8-0.2 0.2-0.6 0.3-0.6 0.5-0.1 0.5-0.5-0.5-0.5 0.2-0.7 0.2-1.3 0.8-2.1 0.9-0.7 0-1.4 0.2-2.1 0.3s-1.4 0.3-2 0.4c-0.4 0.1-0.9 0.1-1.3 0.1-0.2 0-0.4-0.1-0.6 0-1 0.2-2 0.4-3 0.7-0.7 0.2-1.3 0.3-2 0.5-1.6 0.3-3.1 0.5-4.7 0.8-0.9 0.2-1.8 0.4-2.6 0.5-1.1 0.1-2.3 0.2-3.4 0.3-0.7 0.1-1.5 0.2-2.3 0.4 0.1 0.7 0.3 1.2 0.4 1.8 0.3 1.7 1.1 3.2 1 5 0 0.8-0.1 1.7 0.5 2.4 0.1 0.1 0.1 0.3 0.1 0.5l0.3 1.8c0.3 1.3 0.7 2.6 0.6 3.9 0 0.2 0 0.5 0.1 0.7 0.5 1 0.9 2.1 0.7 3.3v0.4c0.4 0.8 0.5 1.7 0.3 2.6 0 0.1 0 0.1 0.1 0.3 0.2 0 0.5 0 0.7-0.1 0.7-0.6 1.6-0.6 2.4-0.5 0.2 0 0.5 0 0.6-0.2 0.3-0.6 0.9-0.4 1.3-0.5 0.4 0 0.8 0.1 1.1-0.1 0.8-0.6 1.8-0.5 2.7-0.6 0.8 0 1.6 0 2.3-0.3 1.2-0.4 2.5-0.7 3.8-0.4h0.5c1.1-0.4 2.2-1 3.4-0.6 0.1 0 0.3-0.1 0.4-0.1 0.6-0.1 1.1-0.3 1.7-0.6 0.4-0.3 1.1-0.2 1.7-0.2 0.3 0 0.5-0.1 0.7-0.1 0.7 0.2 1.2-0.1 1.7-0.5l-0.1-0.2zm-31.9-18.3c-0.8-0.9-0.8-1.1-0.3-1.8 0.8-0.3 1.4-0.6 2.1-0.8 0.5-0.1 1.1-0.1 1.6-0.2 0.3-0.1 0.7-0.3 1-0.3 0.3-0.1 0.7-0.2 1-0.1 0.5 0.2 0.7 0 1.2-0.2 0.9-0.4 1.8-0.5 2.8-0.8 1.1-0.3 2.2-0.6 3.3-0.7 0.1 0 0.2 0 0.3-0.1 0.6-0.8 1.6-0.7 2.4-0.8s1.5-0.2 2.3-0.4c1.1-0.3 2.2-0.4 3.3-0.8 0.8-0.3 1.7-0.3 2.6-0.5 1.2-0.2 2.3-0.4 3.5-0.6s2.3-0.4 3.5-0.7l1.2-0.3c1.1-0.4 2.2 0 2.8 1.1 0.1-0.3 0.2-0.7 0.4-1 0.9-0.6 1.7-0.4 2.1 0.6 0.2 0.4 0.3 0.8 0.3 1.3 0 0.7 0.6 1.2 0.5 2-0.1 0.6 0.4 1.3 0.5 2 0.2 0.7 0.3 1.4 0.4 2.1 0 0.3 0 0.6 0.1 0.9 0.1 1.4 0.5 2.7 0.9 4 0.2 0.8 0.1 1.6 0.6 2.4 0.1 0.1 0 0.3 0 0.4-0.3 0.6-0.1 1 0.2 1.5s0.4 1.1 0.5 1.6c0.1 0.7 0.2 1.5 0.2 2.3v0.2c0.2 1.1 0.5 2.3 0.7 3.4 0 0.2 0.1 0.4 0.1 0.5-0.2 0.4 0 0.7 0.1 1 0.2 0.7 0.1 1-0.6 1.4-0.6 0.3-1.3 0.5-1.9 0.8-0.2 0.9-0.5 1.9-0.7 2.8-1.1-0.1-1.9 0.6-2.9 0.3-0.2-0.1-0.4 0.1-0.6 0.2s-0.4 0.2-0.5 0.2c-1-0.3-1.9 0.7-2.9 0.4-0.5 0.5-1.2 0.3-1.8 0.5-0.1 0-0.3 0.1-0.4 0-1.3-0.3-2.5 0-3.7 0.4-0.5 0.2-1.1 0-1.7 0-0.2 0-0.6-0.1-0.7 0.1-0.4 0.7-1 0.2-1.5 0.2-0.4 0-0.9 0-1.3 0.2-0.9 0.4-2 0.4-2.9 0.6-0.6 0.1-1.2 0-1.8 0-2.3 0.2-4.7 0.4-7 0.7-1.1 0.1-2.3-0.2-3.3 0.4-0.3 0.1-0.7-0.1-1-0.1s-0.6-0.1-1.1-0.1c-0.1-1-0.3-2-0.5-3.1-0.1-0.4-0.3-0.7-0.4-1.1-0.2-1.1-0.3-2.3-0.5-3.4-0.1-1.2-0.1-2.4-0.5-3.6-0.3-0.9-0.4-1.9-0.6-2.8-0.1-0.5-0.3-1-0.5-1.5s-0.3-1-0.2-1.6c0.1-0.7-0.2-1.4-0.4-2.1-0.3-0.7-0.3-1.5-0.4-2.2-0.1-0.6-0.3-1.2-0.5-1.8-0.1-0.3-0.3-0.6-0.4-1-0.3-1.1-0.2-1.3 0.9-1.7 0.1 0 0.1-0.1 0.2-0.2l-0.1-0.1z"/><path d="m109.4 58c0 0.2 0 0.4-0.1 0.5-0.3 0.7-0.7 1.4-0.9 2-0.9 0.1-1.6 0.2-2.4 0.3-0.1 0-0.3 0.2-0.4 0.3-0.2 0.4-0.4 0.4-0.8 0.3h-0.5c-0.6 0.1-0.6 0.1-1.2-0.4-0.5 0.2-1.1 0.4-1.6 0.6 0 0.2 0.1 0.4 0.1 0.6-1-0.3-1.7 0.1-2.4 0.7-0.2 0.2-0.4 0.3-0.7 0.3-1 0.1-2 0-2.9 0.2-1.3 0.3-2.6 0-3.8 0.4-0.8 0.3-1.8 0.2-2.7 0.2-0.3 0-0.6-0.3-1.1-0.5 0.1-0.6 0.3-1.1 0.4-1.8 0.9 0 1.5-0.9 2.4-0.3 0.6-0.6 1.3-0.8 2.1-0.5 0.1 0 0.2 0.1 0.3 0l2.4-0.6c0.3-0.1 0.7 0.1 1.1 0.1 0.4-0.4 0.9-0.9 1.7-0.5 0.1 0 0.3 0 0.4-0.1 0.4-0.1 0.8-0.3 1.2-0.3 0.7-0.1 1.3-0.4 2.1-0.8 0.2 0.1 0.5 0.4 1 0.6 0.4-0.1 0.9-0.3 1-0.9 1.1 0 2-0.2 2.9-0.6 0.7-0.2 1.5 0 2.3 0"/><path d="m78.7 68.9c1.1 0.5 1.3 1.1 0.6 1.8-0.3 0.2-1.2 0.4-1.5 0.2-0.5-0.3-0.4-1.1 0.1-1.5 0.3-0.2 0.5-0.3 0.8-0.5"/><path d="m79.8 77.1v-1.2c0.6 0 1.1 0 1.6 0.1s0.8 0.6 0.6 1c-0.2 0.5-0.9 0.8-1.3 0.6-0.3-0.2-0.6-0.3-0.9-0.5"/><path d="m86.4 121.5c-1.4 1.2-1.5 1.2-2.3 0 0.4-0.5 0.4-1.3 1.2-1.3 0.7 0 0.8 0.7 1.1 1.3"/><path d="m83 109c1.2 0.7 1.2 0.8 0.9 2.1-0.5 0-1 0.1-1.5 0.1-0.4-1.3-0.3-1.6 0.6-2.1"/><path d="m79.5 61.7c-0.4 0.2-0.9 0.4-1.4 0.6-0.2-0.6-0.4-1.1-0.6-1.6 0.5-0.6 0.9-0.6 1.5-0.4 0.6 0.3 0.6 0.7 0.5 1.3"/><path d="m82.2 88.4c0-0.7 0.1-1.4 0.9-1.8 0.3 0.2 0.6 0.4 1 0.8-0.7 0.4 0.2 1.4-0.8 1.7-0.3-0.2-0.7-0.4-1-0.6"/><path d="m83.4 93.5c-0.5-0.2-0.9-0.5-1.4-0.7 0.2-0.5 0.4-0.9 0.6-1.3 0.6 0 1.1 0.1 1.4 0.7 0.2 0.3 0 0.6-0.7 1.3"/><path d="m82.5 106.7c-0.2-0.3-0.3-0.4-0.4-0.6-0.1-0.1-0.2-0.3-0.3-0.5 0.5-0.5 1.1-0.9 1.7-0.6s0.3 0.9 0.3 1.3c-0.5 0.1-0.9 0.2-1.4 0.3"/><path d="m80.8 73.4c-0.4-0.6-0.7-1.1-0.9-1.6 0.6-0.8 0.9-0.9 1.5-0.5 0.5 0.4 0.4 1-0.6 2.1"/><path d="m83.3 95.8c0.2 0.4 0.5 0.7 0.5 1 0.1 0.3 0 0.8-0.2 0.8-0.3 0.1-0.8 0.1-1.1-0.1-0.3-0.1-0.5-0.4-0.4-0.8 0.1-0.5 0.5-0.8 1.2-1"/><path d="m77.7 64.9c0.3-0.2 0.6-0.3 0.9-0.5 0.3 0.3 0.6 0.5 0.9 0.8-0.1 0.5-0.1 1-0.6 1.2s-0.8 0.1-1-0.4c-0.1-0.3-0.1-0.6-0.2-1.1"/><path d="m76.7 62.4c0.7 0.4 0.6 1 0.5 1.6-0.3 0.1-0.6 0.2-0.9 0.3-0.6-0.3-0.5-0.8-0.5-1.5 0.1 0.2 0.2 0.3 0.3 0.5 0.2-0.3 0.3-0.6 0.5-0.9"/><path d="m81.2 67.1c-0.1 0.6-0.3 1.1-0.4 1.6-0.8-0.3-1.1-0.7-0.8-1.3 0.2-0.5 0.5-0.6 1.2-0.3"/><path d="m83.7 101c-0.1 0.3-0.2 0.6-0.4 1-0.5-0.1-0.9-0.3-1.4-0.4 0.1-0.5 0.1-1 0.7-1.2 0.5-0.2 0.7 0.1 1 0.6"/><path d="m84.3 116.8 0.3-0.3c0.1-0.1 0.2-0.3 0.3-0.4 0.8 0.3 0.6 1 0.7 1.7-0.4 0.1-0.7 0.1-1 0.2-0.1-0.4-0.2-0.7-0.4-1.1"/><path d="m79.9 81.2c0.5-0.3 0.9-0.6 1.3-0.9 0.5 0.1 0.5 0.5 0.5 0.9-1 0.9-1 0.9-1.8 0"/><path d="m84.4 103.8c-0.2-1 0-1.2 1.2-1.2 0.1 0.4 0.2 0.7 0.2 1.2h-1.4"/><path d="m83.5 82.7c0 0.3 0 0.4-0.1 0.6 0 0.2-0.1 0.3-0.2 0.5-0.2 0.1-0.3 0.1-0.5 0.1h-0.5c-0.2-1.1 0.1-1.4 1.3-1.3"/><path d="m85.3 111.8v1.8c-0.4-0.2-0.7-0.3-0.9-0.4-0.1-1-0.1-1 0.9-1.4"/><path d="m76.7 68.8c-0.7-0.6-0.4-1.3-0.5-2.2 0.4 0.2 0.8 0.3 0.8 0.4 0.1 0.6 0.3 1.2-0.3 1.8"/><path d="m82.9 115.3c0.1-0.5 0.2-1.1 0.2-1.7 1 0.2 0.7 0.9 0.7 1.4-0.2 0.1-0.5 0.3-0.7 0.4-0.1 0-0.2-0.1-0.2-0.1"/><path d="m110.8 58.7c0 0.4 0 0.7-0.1 1-0.4 0-0.8 0.1-1.2 0.1 0-0.3 0-0.6-0.1-0.8 0.4-0.1 0.9-0.2 1.4-0.3"/><path d="m84.7 107.4c0.2 0.1 0.4 0.2 0.7 0.3v1c-0.1 0-0.2 0.1-0.3 0.1-0.6-0.2-0.6-0.4-0.4-1.3"/><path d="m86.3 123.4c0.4-0.1 0.7-0.2 1-0.3v1.4c-0.7 0-0.6-0.6-1-1"/><path d="m152.3 74.9c0.4 0.2 0.7 0.4 1 0.5 0.3 0.2 0.5 0.4 0.8 0.5-0.2 0.4-0.5 0.8-0.7 1.2-1 0-1.2-0.1-1.5-1-0.1-0.4-0.3-0.7-0.7-0.9-0.3-0.1-0.5-0.3-0.7-0.4-1-0.6-1.1-1.2-0.2-2 0.1-0.1 0.2-0.1 0.3-0.2 1 0.4 1.6 1.1 1.6 2.3"/><path d="m162.3 104.4c-0.6-0.2-1-0.5-1.1-1.1-0.1-0.7 0.3-1.2 0.9-1.4 1.6 1.1 1.6 1.4 0.2 2.6"/><path d="m137.7 84.2c-0.8-0.4-1.4-1.2-1.1-1.7 0.4-0.9 1.1-0.3 1.7-0.4 0.8 1.3 0.7 1.4-0.5 2.2"/><path d="m145.4 87.7c0.1-0.3 0.1-0.7 0.3-1 0.1-0.2 0.4-0.4 0.7-0.4 0.7-0.1 1.2 0.4 1.2 1 0 0.3-0.2 0.7-0.4 0.9s-0.7 0.1-1 0-0.5-0.3-0.9-0.6"/><path d="m157.7 95.4c-0.9-0.4-1.2-0.8-1.1-1.4 0.1-0.4 0.6-1 1-1 0.5-0.1 0.8 0.3 1 0.7 0.4 0.9-0.3 1.2-0.8 1.8"/><path d="m140.8 83c0.4-0.4 0.7-0.8 1.1-1.3 0.4 0.1 0.8 0.3 1.1 0.4 0 0.3 0.1 0.6 0.1 0.9 0 0.8-0.3 1.1-1 0.9-0.5-0.1-0.9-0.3-1.2-1"/><path d="m137.6 72.8c0.3 0.3 0.6 0.5 0.7 0.7 0.4 0.6-0.1 1.7-0.8 1.8-0.2 0-0.5-0.1-0.6-0.3-0.3-0.3-0.5-0.7-0.7-1.1 0.5-0.4 0.9-0.7 1.4-1.1"/><path d="m136.6 67.2c-0.1 0.3-0.3 0.7-0.4 1.1-0.4 0-0.7 0-1.1 0.1-0.2-0.5-0.5-0.9-0.7-1.4-0.1-0.2 0.1-0.5 0.3-0.6 0.4-0.4 1-0.1 1.9 0.9"/><path d="m157.6 86.3c-0.2-0.1-0.3-0.2-0.4-0.2l-0.6-0.6c0.4-1.2 0.6-1.3 1.5-1.2 0.5 0 0.7 0.2 0.8 0.7 0.2 1-0.7 1-1.3 1.4"/><path d="m172.6 115.2c-0.6-1.2-0.6-1.3 0.1-2.1 0.4 0.1 0.7 0.2 1.1 0.3 0.6 1.8 0.4 2.1-1.2 1.8"/><path d="m158.6 95.6c0.3 0 0.6 0 1 0.1 0.1-0.1 0.2-0.3 0.4-0.7 0.4 0.5 0.7 0.9 1 1.2-0.1 0.7-0.6 1-1.1 1.2-1.2-0.6-1.3-0.7-1.2-1.8"/><path d="m163.2 87c0.6-0.2 1.3-0.4 2-0.6 0.2 0.7 0.3 1.2 0 1.8s-0.7 0.7-1.2 0.2c-0.3-0.3-0.6-0.7-0.9-1 0-0.1 0.1-0.2 0.1-0.3"/><path d="m147.1 65.9c-0.5 0-0.9-0.1-1.3-0.1-0.4-0.7-0.4-1.3 0.1-1.7 0.3-0.3 1.3-0.2 1.6 0.2 0.5 0.7-0.2 1.1-0.3 1.6"/><path d="m138.7 80c1.5-0.3 1.7-0.3 2.1 0.7-0.5 1-0.5 1-1.7 0.9-0.6-0.4-0.5-1-0.4-1.6"/><path d="m164.5 95.1c0.5 0.4 1 0.7 0.9 1.4-0.1 0.6-0.6 0.8-1.1 0.9-1.3-0.9-1.3-1.5 0.2-2.3"/><path d="m156.4 76.1c0.3-0.4 0.6-0.9 1.2-0.8 0.5 0 1.1 0.5 1.2 0.9 0 0.5-0.4 0.8-1.1 0.9s-1.1-0.2-1.3-1"/><path d="m152.4 88.9c0.4-0.1 0.7-0.2 1.1-0.4 0.8 0.4 0.8 1 0.7 1.7-0.5 0.1-1 0.1-1.5 0.2s-0.7-0.2-0.6-0.7c0.1-0.3 0.2-0.5 0.3-0.8"/><path d="m140.4 86h-1.2c0.1-0.6-1-1-0.2-1.7 0.4-0.3 1.3-0.3 1.7 0s0.3 0.6-0.3 1.7"/><path d="m145.6 79.2c-0.2-1.2 0.1-1.7 0.8-1.8s1 0.2 1.2 1.4c-0.5 0.8-1.3 0.4-2 0.4"/><path d="m168.1 92.9c-0.2-0.4-0.4-0.7-0.6-1.1 0.4-0.8 0.8-1 1.4-0.8 0.5 0.2 0.9 0.9 0.8 1.3-0.1 0.5-0.6 0.7-1.6 0.6"/><path d="m156.5 91.8c-0.3 0.4-0.6 0.8-0.8 1.2-0.8-0.2-1.2-0.5-1.4-1.2 0.3-0.6 0.7-1.2 1.6-1 0.2 0.3 0.4 0.6 0.7 1"/><path d="m150.4 91c0.6-0.3 1.1-0.4 1.6 0.2 0.1 0.5 0.2 1.1-0.4 1.4-0.3 0.2-0.8 0.4-1.2 0-0.4-0.5-0.5-1 0-1.7"/><path d="m152.3 71c0.8-0.4 0.8-0.4 1.7 0.2 0 0.3 0 0.7 0.1 1-0.3 0.2-0.6 0.5-1 0.7-0.9-0.4-0.9-1.1-0.8-2"/><path d="m165.3 107.6c0.4-0.8 0.9-1.2 1.4-1.1s0.7 0.6 0.5 1.9c-1.2 0.2-1.5 0.1-1.9-0.7"/><path d="m156.6 88.8c0.8 0 1.5-0.3 1.9 0.4 0.2 0.2 0.1 0.7 0 1-0.4 0.6-1.1 0.4-1.8 0.3 0-0.5-0.1-1-0.1-1.6"/><path d="m149.6 67.4c-0.3 0.4-0.6 0.8-0.9 1.1-0.5-0.2-1.2-1-1.2-1.5 0-0.4 0.2-0.6 0.5-0.7h0.6c0.2 0 0.4 0.1 0.6 0.1 0.1 0.4 0.1 0.7 0.2 1"/><path d="m172.1 100.9c0.3-0.7 0.9-1 1.5-1.1 0.6 0.2 0.8 0.6 0.7 1.1-0.1 0.3-0.3 0.7-0.5 0.7-0.6 0.1-1.3 0-1.7-0.7"/><path d="m141.9 66.1c-0.8-0.3-1-0.9-0.8-1.6 1.1-0.6 1.7-0.5 1.9 0.1 0.2 0.5-0.2 1.1-1.1 1.5"/><path d="m148.1 88.9c0.6-0.1 1.1-0.2 1.7 0.2-0.1 0.4-0.2 0.8-0.4 1.2-0.1 0.2-0.4 0.5-0.6 0.5-0.3 0-0.6-0.2-0.8-0.4-0.3-0.4-0.3-1 0-1.5"/><path d="m155.5 75.1c-0.4-0.3-0.7-0.6-1.2-1 0.1-0.3 0.1-0.6 0.2-1h1.4c0.6 0.9 0.6 1.1-0.5 2"/><path d="m149.6 87.3c0.2-0.2 0.3-0.5 0.5-0.6 0.4-0.4 1.2-0.4 1.5 0.1 0.3 0.4 0.1 1.2-0.2 1.5-0.3 0.2-1.1 0-1.5-0.3l-0.3-0.6"/><path d="m142.2 86.4c1 0.9 0.9 1.6-0.2 2.2-0.3-0.2-0.5-0.3-0.8-0.5-0.2-1.1-0.1-1.5 1-1.7"/><path d="m138.2 70c-0.5 0.3-0.9 0.7-1.4 0.3-0.8-0.6 0-1.2-0.1-1.8 1.2-0.5 1.3 0.2 1.5 1.6"/><path d="m165.2 90.9c0.2 1.1 0 1.5-0.5 1.7s-1 0-1.4-0.5c-0.3-0.4-0.2-0.8 0.2-1 0.5-0.2 1.1-0.2 1.7-0.3"/><path d="m165.3 82.4c0.1 1-0.1 1.4-0.7 1.6-0.4 0.1-0.7-0.1-0.9-0.4-0.3-0.4-0.1-1.3 0.3-1.6 0.3-0.3 0.5-0.2 1.3 0.5"/><path d="m166.9 104.1c-1.5-0.7-1.7-1.2-0.9-2.2 1.6 0.5 1.9 1.2 0.9 2.2"/><path d="m139.2 61.5c1.1 0.4 1.1 0.4 1.5 1.8-0.3 0.2-0.7 0.4-1 0.5-0.9-0.6-1-1.2-0.5-2.4"/><path d="m154.8 79.4c-0.6-0.7-0.7-0.9-0.3-1.4 0.3-0.4 0.9-0.6 1.3-0.4 0.5 0.3 0.5 0.6 0.3 1.5-0.4 0.1-0.8 0.2-1.3 0.3"/><path d="m161 78.6c-0.4 0.9-1 0.6-1.6 0.6-0.5-0.9-0.6-1.1-0.1-1.5 0.5-0.5 1-0.5 1.3 0.1 0.2 0.3 0.3 0.6 0.4 0.8"/><path d="m167.1 90.3c-0.6 0.1-1.1 0.2-1.6-0.4 0.1-0.3 0.3-0.7 0.5-1 0.2-0.4 0.4-0.7 0.9-0.5s0.8 0.8 0.6 1.2c-0.1 0.2-0.2 0.4-0.4 0.6"/><path d="m171.9 90.3c-0.5 0.1-1 0.1-1.6 0.2-0.1-0.2-0.5-0.6-0.4-0.7 0.2-0.4 0.6-0.7 1-0.9 0.5-0.2 1.1 0 1.4 0.7-0.1 0.2-0.3 0.5-0.4 0.7"/><path d="m160 84c-0.3-0.2-0.5-0.3-0.7-0.4s-0.3-0.1-0.5-0.2c0-0.8 0.4-1.4 1.2-1.7 0.3 0.4 0.5 0.7 0.8 1.1-0.3 0.4-0.6 0.8-0.9 1.2"/><path d="m171.2 104.1c-1.4-0.6-1.4-0.8-0.3-2.2 1.3 0.3 1.4 1 0.3 2.2"/><path d="m154.9 83.7c-0.4-0.9-0.3-1.5 0.1-1.8 0.2-0.1 0.6-0.1 0.8 0 0.4 0.3 0.7 1.1 0.6 1.4-0.1 0.4-0.4 0.4-1.5 0.3"/><path d="m159.1 92.3c-0.1-0.9 0.1-1.5 0.5-1.5s0.8 0.2 1 0.4c0.3 0.2 0.2 1.1-0.1 1.3-0.6 0.5-1 0-1.5-0.2"/><path d="m169.7 95.5c0 1.4-0.3 1.7-1.7 1.5-0.1-0.6-0.3-1.3 0.4-1.8 0.5-0.4 0.9 0.1 1.3 0.3"/><path d="m138.5 64.3v1.3c-0.7 0.3-1.5 0.4-1.8-0.2-0.4-0.6 0.2-1.1 0.7-1.5 0.4 0.1 0.7 0.3 1.1 0.4"/><path d="m172 112.4c-0.3 0.1-0.6 0.3-1 0.4-0.3 0-0.7 0-0.8-0.1-0.1-0.2-0.2-0.7-0.1-0.9 0.2-0.3 0.5-0.6 0.9-0.8 0.2-0.1 0.6 0 0.7 0.2 0.3 0.4 0.5 0.8 0.2 1.3"/><path d="m163.3 109.2c0.8-0.6 1.4-0.6 1.9 0 0.4 0.5 0.3 0.8-0.5 1.5-1.2 0.1-0.7-1.1-1.4-1.5"/><path d="m163.5 101.3c0.2-1.3 0.3-1.4 1.5-1.3 0.4 1.1 0.4 1.4-0.2 1.8s-0.9 0-1.3-0.5"/><path d="m140.7 72.3c-0.4 0.2-0.6 0.4-0.9 0.6-0.8-0.4-1-0.9-0.8-1.4 0.2-0.4 0.5-0.6 1-0.6 0.5 0.1 0.7 0.6 0.8 1.4"/><path d="m169.8 109.8c-0.4 0.6-0.8 1-1.5 0.8-0.4-0.1-0.5-0.5-0.5-1.4 1-0.5 1.3-0.4 2 0.5"/><path d="m138.6 76.5c0.2-0.5 0.3-0.8 0.5-1.2 0.3 0 0.5-0.1 0.7-0.1 0.3 0.1 0.7 0.2 0.8 0.4 0.1 0.3 0 0.7-0.2 1-0.2 0.2-0.5 0.5-0.9 0.3-0.3-0.1-0.6-0.2-0.9-0.4"/><path d="m161.4 99.6c-0.7-0.8-0.4-1.3 0-1.8 1.2-0.2 1.5 0 1.5 1.3-0.5 0.2-1 0.3-1.5 0.5"/><path d="m136.7 79.1v-1.3c0.6-0.4 1.1-0.4 1.5 0 0.2 0.2 0.2 0.5 0.2 0.8-0.1 0.4-1 0.7-1.7 0.6"/><path d="m143.3 84.3h1.5c0.3 0.4 0.5 1 0.1 1.4-0.2 0.3-0.8 0.3-1.2 0.3s-0.7-0.4-0.5-0.7c0.4-0.4 0-0.7 0-1"/><path d="m161.6 93.3c0.9-0.1 1 0 1.2 0.6 0.2 0.5 0 0.9-0.3 1.1-0.2 0.1-0.7 0.1-1 0-0.5-0.3-0.5-0.6 0-1.7"/><path d="m166 92.9c0.5 0.6 1.7 0.4 1.5 1.6-0.3 0.2-0.5 0.4-0.8 0.6-0.3-0.1-0.6-0.3-0.9-0.4v-1.7c0.1 0 0.1-0.1 0.2-0.1"/><path d="m171.9 97.9v1.1c-0.4 0.1-0.7 0.2-1.2 0.4-0.3-0.3-0.6-0.5-0.8-0.8 0.6-1.1 0.6-1.1 2-0.7"/><path d="m141.4 70.3c-0.2-0.6-0.1-1.1 0.3-1.6 0.3-0.4 0.7-0.5 1.1-0.1 0.4 0.3 0.4 0.8 0.1 1.2-0.3 0.3-0.6 0.4-1.4 0.5"/><path d="m167.3 111.1v1.5c-0.5 0.3-1 0.4-1.4 0-0.2-0.3-0.2-0.9-0.1-1.2 0.3-0.6 0.9-0.3 1.5-0.3"/><path d="m157.1 80.1c1-0.4 1.1-0.4 1.9 0.3-0.4 0.4-0.3 1.3-1.2 1.2-0.5-0.1-0.6-0.5-0.6-1.5"/><path d="m145.8 68.7c0.3 0 0.7-0.1 1 0s0.5 0.4 0.6 0.7c0 0.2-0.2 0.5-0.4 0.7-0.4 0.3-1 0.2-1.4-0.1-0.4-0.4-0.3-0.5 0.1-1.2"/><path d="m145.1 80.1v0.5c-0.1 0.7-0.4 1.1-1 1.1-0.5 0-0.8-0.5-0.8-1.2 0-0.5 0.3-0.7 0.7-0.6 0.3 0 0.7 0.1 1.1 0.2"/><path d="m153.9 84.5c0.2 0.7 0 1.3-0.4 1.5s-0.7 0.1-0.9-0.2c-0.2-0.4-0.3-0.8-0.4-1.2 0.7-0.7 1.2 0.1 1.8-0.1"/><path d="m163.2 89.5c-0.2 0.3-0.5 0.5-0.7 0.7-0.3 0.3-0.6 0.5-0.9 0.2-0.3-0.2-0.5-0.5-0.4-0.9s0.3-0.7 0.8-0.8c0.5 0 0.9 0.1 1.2 0.7"/><path d="m151.3 70c-0.6 0.3-1 0.3-1.3-0.1-0.3-0.3-0.2-0.7 0-1 0.4-0.7 1-0.5 1.7-0.4-0.1 0.5-0.3 1-0.4 1.5"/><path d="m134.4 62.8c0.7-1.1 1.1-1.2 2.1-0.3-0.1 0.3-0.3 0.7-0.4 0.9-0.8 0.2-1.3 0.1-1.7-0.6"/><path d="m137.4 59.5c0.6 0.3 1.2 0.5 1 1.2 0 0.3-0.4 0.6-0.7 0.6s-0.7-0.1-0.9-0.3c-0.3-0.3-0.1-0.8 0.6-1.5"/><path d="m170.1 107.3c0.2-0.1 0.4-0.3 0.6-0.4s0.3-0.1 0.5-0.2c0.5 0.2 0.9 0.6 0.6 1.1-0.2 0.4-0.7 0.7-1.2 0.9-0.1 0-0.5-0.3-0.5-0.5-0.1-0.2 0-0.6 0-0.9"/><path d="m153.7 79.9c0.1 0.3 0.3 0.6 0.3 0.9 0.1 0.7-0.3 0.9-1 0.7-0.2-0.1-0.5-0.1-0.8-0.2-0.1-1.1 0.1-1.2 1.4-1.3"/><path d="m150.3 77.5c0.5-0.3 0.8-0.1 1 0.3s0.3 0.9 0.5 1.3c-0.6 0.4-1.1 0.5-1.7-0.1 0.1-0.5 0.1-1 0.2-1.5"/><path d="m143.1 71.8c0.4-0.4 0.6-0.7 0.8-0.9 0.2-0.1 0.6-0.2 0.9-0.1 0.2 0.1 0.3 0.5 0.3 0.7 0 0.3-0.1 0.7-0.3 0.8-0.3 0.1-0.7 0-1 0-0.2 0-0.3-0.2-0.7-0.5"/><path d="m149.7 71.7c-1.1 1.3-1.1 1.3-2-0.1 0.6-0.9 1-0.9 2 0.1"/><path d="m134.8 75.1c1.7 1 1.7 1.2 0.3 2.1-1-0.8-1.1-1.2-0.3-2.1"/><path d="m140.8 78.5c0.6-0.6 1.2-1.1 1.9-1.2 0.3 1.1 0.3 1.2-0.8 1.9-0.1-0.1-0.3-0.1-0.5-0.2s-0.3-0.2-0.6-0.4"/><path d="m162.6 79.9 0.3 0.9c-0.1 0.2-0.3 0.4-0.5 0.5-0.7 0.2-1.1-0.2-1.5-0.7 0.4-0.9 0.4-0.9 1.6-0.7"/><path d="m159.7 86.4c0.7-0.1 1 0.3 1.2 0.7s0.1 0.8-0.4 0.9c-0.3 0.1-0.7 0.1-1.1 0.2-0.4-0.7 0-1.2 0.4-1.7"/><path d="m145.8 73.1c0.9 0 0.9 1 1.7 1v0.3c-0.4 0.3-0.7 0.5-1 0.7-1-0.5-0.9-1.2-0.6-2"/><path d="m167.9 100.6c0.1-0.2 0.2-0.2 0.2-0.3 0.4-0.3 0.9-0.6 1.4-0.2 0.1 0.1 0.2 0.4 0.2 0.6-0.2 0.5-0.4 1.1-1.2 1.1-0.2-0.3-0.3-0.7-0.5-1.1"/><path d="m173.9 106.1c-0.6-0.3-1.2-0.5-1.8-0.8 0.5-0.8 1.1-0.8 1.8-0.8 0.4 0.5 0.5 1 0 1.6"/><path d="m167 97.6c0.1 0.3 0.1 0.5 0.2 0.7 0.2 0.7 0.1 0.9-0.4 1s-1-0.2-1-0.7c0-0.2 0-0.4 0.1-0.8 0.4-0.1 0.8-0.1 1.2-0.2"/><path d="m168.4 104.3c0.4 0.2 0.7 0.3 1 0.5v0.8c-0.4 0.3-1.8 0.1-1.9-0.2-0.1-0.2 0-0.5 0.2-0.7s0.5-0.3 0.7-0.4"/><path d="m140.5 67.2c0 0.7-0.2 0.9-0.7 0.9s-0.9-0.4-0.9-0.9c0-0.4 0.6-0.9 0.9-0.9 0.4 0 0.6 0.3 0.6 0.9"/><path d="m148.1 79.9c1.2-0.2 1.5 0.1 1.6 0.6 0.1 0.8-0.6 0.7-1 1-0.9-0.8-0.9-0.8-0.5-1.5"/><path d="m133.6 61.3c-0.3 0-0.6 0.1-1 0.1-0.1-0.6-0.2-1.1-0.3-1.6 1.3-0.4 1.5-0.2 1.3 1.5"/><path d="m169.8 87.4c-0.3 0.2-0.5 0.4-0.7 0.5-0.4 0.2-0.8 0.2-1.1-0.2s0-0.8 0.3-1c0.3-0.3 0.7-0.3 1 0.1 0.2 0.2 0.3 0.4 0.4 0.7"/><path d="m149.6 85.1c-0.1 0.7-0.6 0.9-1.1 0.9-0.6 0-0.6-0.6-0.9-0.9 0.2-0.3 0.4-0.5 0.6-0.8 0.5 0.3 0.9 0.6 1.3 0.9"/><path d="m143.6 66.4c0.2-0.1 0.4-0.1 0.8-0.2 0.1 0.4 0.2 0.8 0.2 1.2-0.1 0.6-0.4 0.8-1.3 0.7-0.1-0.5-0.1-0.5 0.4-1.6"/><path d="m135.2 57.4 0.9 0.9c0 0.6-0.3 0.9-0.9 0.8-0.4 0-0.7-0.3-0.8-0.7-0.1-0.5 0.2-0.8 0.8-1"/><path d="m170.1 94.1c0.1-0.2 0.3-0.5 0.4-0.7 0.2-0.4 0.5-0.6 0.8-0.4 0.4 0.2 0.6 0.5 0.5 1-0.3 0.8-0.9 1-1.6 0.4-0.1-0.1-0.1-0.2-0.2-0.3"/><path d="m142.1 75.1c-1.1-0.9-1-1.5 0.1-2 0.8 0.8 0.8 1.4-0.1 2"/><path d="m144.3 61.9c0.3 0.3 0.5 0.7 0.8 1-0.8 0.8-1.3 0.9-1.7 0.4s-0.2-0.8 0.9-1.5"/><path d="m161.2 85.5v-0.6c0-0.1 0-0.2 0.1-0.3 0.4-0.4 1.3 0 1.9 0.7-0.4 0.2-0.7 0.4-1.1 0.7-0.3-0.2-0.5-0.3-0.9-0.5"/><path d="m166.7 84.2c0.7 0.6 0.5 1.1 0.2 1.7h-1.1c-0.2-1.2-0.1-1.4 0.9-1.7"/><path d="m152.1 82.4c-0.3 0.6-0.4 1-0.7 1.5-0.4-0.2-0.8-0.4-1.3-0.6 0.2-0.4 0.4-0.7 0.6-1.1 0.5 0.1 0.9 0.2 1.4 0.3"/><path d="m147.5 83c-0.3 0.4-0.6 0.7-0.9 1-0.7-0.3-0.8-0.8-0.6-1.4s0.7-0.4 1.2-0.4c0.1 0.2 0.2 0.5 0.4 0.7"/><path d="m137.6 57c-0.8-0.7-0.9-1.3-0.2-2.1 0.6 0.4 0.8 1 0.9 1.7-0.2 0.1-0.5 0.3-0.7 0.4"/><path d="m141.6 59.8c0.4 0.1 0.6 0.1 0.8 0.2s0.5 0.3 0.6 0.5c0 0.1-0.2 0.4-0.4 0.5-0.4 0.2-0.8 0.3-1.4 0.5 0.2-0.7 0.3-1.2 0.4-1.7"/><path d="m148 76.3c0.2-0.4 0.4-0.7 0.6-1.1 0.4 0.2 0.7 0.4 1 0.6 0.3 0.8-0.3 1-0.9 1.2-0.2-0.2-0.4-0.5-0.7-0.8"/><path d="m158.1 70.9c0 0.6 0.2 1.2-0.4 1.8-0.3-0.2-0.6-0.3-1-0.5 0.1-0.4 0.1-0.7 0.2-1 0.4-0.1 0.8-0.2 1.1-0.3"/><path d="m154.9 86.5c1.1-0.3 1.1-0.3 1.5 0.8-0.2 0.5-0.6 0.6-1 0.4-0.6-0.2-0.6-0.7-0.5-1.2"/><path d="m134.8 70.9c1.2 0 1.3 0.4 0.7 1.5-1.1 0-1.2-0.3-0.7-1.5"/><path d="m164.4 104.6c0.3 0.5 0.6 1-0.1 1.6-0.4-0.2-0.7-0.5-1.1-0.7 0.1-0.8 0.4-1.1 1.2-0.9"/><path d="m132.4 55.2c0.9 0.4 0.9 1 1 1.7-0.3 0.1-0.6 0.3-0.7 0.2-0.2-0.1-0.3-0.4-0.3-0.7v-1.1"/><path d="m133.6 65.9h-0.4c-0.2-0.1-0.4-0.1-0.6-0.2 0-0.2-0.1-0.3-0.1-0.5 0-0.1 0-0.3 0.1-0.5h1.1c0 0.4 0 0.8-0.1 1.3"/><path d="m169 113.5c0.1 0.2 0.2 0.4 0.4 0.7-0.4 0.2-0.7 0.4-1 0.6-0.6-0.7-0.5-0.9 0.6-1.3"/><path d="m144.2 76.1c0.3 0.1 0.5 0.2 0.6 0.3 0.2 0.2 0.3 0.4 0.3 0.7 0 0-0.3 0.3-0.4 0.2-0.2-0.1-0.5-0.3-0.6-0.5-0.1-0.1 0-0.3 0.1-0.7"/><path d="m173 97c-0.6-0.3-0.6-0.8-0.4-1.1 0.1-0.1 0.5-0.1 1-0.2-0.3 0.6-0.4 0.9-0.6 1.3"/><path d="m147.6 237.1 0.5 0.5c0.3 0.4 0.7 0.7 0.3 1.2-0.4 0.4-1.4 0.5-1.8 0.2s-0.4-1.3 0.2-1.6c0.3-0.2 0.6-0.2 0.9-0.3"/><path d="m147.7 241.5 0.6 1.2c0.2 0.4 0 0.8-0.3 1-0.4 0.3-0.7 0.1-1-0.1s-0.5-0.4-0.6-0.6c0-0.9 0.6-1.3 1.3-1.6"/><path d="m141.9 229.4c0.3-0.4 0.6-0.8 0.9-1.2 1.1 0.3 1.2 0.4 1.2 1.1 0 0.4 0 0.8-0.5 1-0.8 0.2-1.1-0.3-1.6-0.9"/><path d="m139.4 221.1c-0.9 0.5-0.9 0.5-1.7 0.3-0.2-0.5-0.2-1 0.1-1.5s1-0.5 1.3 0.1c0.2 0.4 0.2 0.8 0.3 1.2"/><path d="m142.7 234.9c-0.3-0.7-0.9-1.4-0.2-2.1 0.9-0.3 1.2 0.4 1.6 1.1-0.4 0.4-0.5 1.2-1.5 1"/><path d="m145.3 239.3c0.8 0.7 1 1.3 0.6 1.8-0.2 0.3-0.5 0.5-0.9 0.3-0.8-0.3-0.8-0.2-0.8-1.3 0.3-0.2 0.7-0.5 1.1-0.8"/><path d="m145.4 235c0.9 0.8 0.9 0.8 0.5 1.9-0.6 0.2-1.2 0.1-1.7-0.3 0.1-0.7 0.2-1.4 1.2-1.5"/><path d="m148.2 246.6c0.3 1.4-0.1 2-1.6 1.6-0.1-0.2-0.2-0.5-0.4-0.8 0.9-1 1.2-1.1 1.9-0.8"/><path d="m136.3 215.1c-0.3-0.2-0.6-0.4-0.6-0.5 0-0.5 0.1-1.1 0.2-1.6 0-0.2 0.2-0.4 0.4-0.6 0.5 0.4 1.2 0.6 1 1.3-0.1 0.5-0.6 0.9-1 1.4"/><path d="m139.6 222.9c0.8-0.9 0.9-1 1.9-0.7 0.1 0.5 0.3 1-0.2 1.3-0.1 0.1-0.4 0.1-0.6 0-0.4-0.2-1-0.1-1.1-0.7"/><path d="m139.9 226.4c0.6 0.1 1.3 0 1.4 0.7 0 0.2-0.2 0.7-0.4 0.8-0.3 0.1-0.9 0.1-1.1 0-0.5-0.4-0.1-0.9 0.2-1.4"/><path d="m145.7 232c-0.7 0.3-1.1-0.2-1.8-0.3 1.1-0.7 1.5-0.6 1.8 0.3"/><path d="m105.9 17.2c-0.5 0.1-1 0.2-1.4 0.3-0.4 0.8-1.1 1.4-1.1 2.4 0 0.2-0.1 0.4-0.3 0.5-0.9 0.7-1.2 1.6-1.4 2.8 0.4 0 0.7-0.1 1.2-0.1 0.1 0.1 0.4 0.2 0.7 0.4 0.2-0.3 0.4-0.6 0.4-0.8-0.4-1 0.3-0.8 0.9-0.8 0.2-0.4 0.4-0.9 0.6-1.3 0.2-0.5 0.4-0.9 0.6-1.4 0.1-0.4 0.2-0.8 0.3-1.3-0.1-0.1-0.2-0.3-0.5-0.6v-0.1zm-3.2 25.9c0.2-0.2 0.3-0.6 0.5-0.9 0.2-0.2 0.4-0.5 0.6-0.6 1.3-0.3 1.9-1.6 3.2-1.9-0.5-0.3-0.8-0.5-0.7-1.1 0.2-0.9-0.4-1.7-1.3-2-0.3-0.1-0.6-0.3-0.8-0.5l-1.2-0.9c-0.7-0.6-1.8-0.6-1.9-1.5-0.8-0.5-1.5-0.9-2.2-1.2-0.8-0.3-1.5-0.4-1.9-1.3-0.6 0.2-1.1 0.1-1.6-0.3-0.4-0.4-1-0.5-1-0.9 0.6-1.1 1.3-1.9 1.6-2.9 0.2-0.9 0.8-1.4 1.4-1.9 0-0.3 0.1-0.6 0.1-0.7 0.4-0.3 0.7-0.4 0.8-0.7 0.7-1.3 1.4-2.7 2.1-3.9 0.3-0.6 0.4-1.3 1.1-1.7 0.2-0.1 0.2-0.5 0.2-0.8s-0.1-0.7-0.2-1.1c-0.1-0.1-0.2-0.1-0.4-0.2-0.6-0.3-1.1-0.5-1.6 0.1-0.1 0.2-0.5 0.2-0.7 0.2-1.5 0.2-3.1 0.4-4.6 0.7-1 0.2-1.2 0.3-1.4 1.4-0.3 1.3 0 1.8 1.2 2.2 0.4 0.1 0.8 0.2 1.2 0.4-0.6 1.2-1.2 2.3-1.7 3.4-0.4 0.8-0.7 1.5-1.5 2 0 0.8-0.1 1.5-0.6 2-0.3 0.4-0.6 0.8-0.8 1.2-0.4 0.6-0.7 1.2-0.4 1.9 0.5 0.8 1.3 1.4 2.1 1.6 0.9 0.2 1.1 0.9 1.6 1.4 0.5 0.2 0.9 0.3 1.3 0.5 0.3 0.1 0.8 0.3 0.8 0.4-0.1 0.6 0.4 0.7 0.7 0.7 0.6 0.1 1.2 0.2 1.2 1 0 0.1 0.3 0.3 0.5 0.4 0.4 0.2 0.9 0.5 1.5 0.8-0.6 0.4-1.1 0.7-1.4 1.1-0.2 0.2-0.4 0.6-0.6 0.9-0.4 0.7 0.1 1.2 0.4 1.8 0.5 0.8 1.4 1.1 2.3 1.2 0.6 0.1 1.3-0.2 2.1-0.3zm-16.2-3.4c-0.1-0.6-0.2-1.2-0.4-1.8-0.1-0.4-0.2-0.9-0.4-1.2-1.1-1.5-1.4-3.3-1.4-5.1 0-1.1-0.2-2.2-0.3-3.3 0-0.3 0-0.7 0.2-1 0.3-0.5 0.3-0.9 0-1.3-0.1-0.1-0.1-0.3-0.2-0.5 0.6-0.3 1.1-0.7 1.6-0.9 0.6-0.2 0.8-0.7 0.8-1.3 0-0.9-0.1-1.9-0.2-2.8 0-0.2-0.3-0.5-0.5-0.7-0.5-0.3-1-0.6-1.6-0.3-0.7 0.3-1.6 0.1-2 1-0.1 0.3-0.7 0.4-1.1 0.6-0.3 0.1-0.7 0.2-0.8 0.2-0.4 0.7-0.6 1.2-1 1.7-0.3 0.4-0.5 0.9-0.2 1.4l0.3 0.9c-0.3 0.2-0.5 0.4-0.5 0.4-0.1 0.9-0.2 1.6-0.2 2.4 0 0.9-0.2 1.7-0.1 2.6 0.1 0.7 0.3 1.5-0.2 2.2 0.3 0.3 0.5 0.6 0.7 0.8-0.2 0.2-0.3 0.5 0 0.7 0.2 0.2 0.4 0.4 0.4 0.6-0.2 0.7 0.3 1.2 0.4 1.7 0 0.2 0.1 0.4 0.1 0.6 0.1 0.6 0.1 1.2 0.2 1.8 0 0.1 0.1 0.2 0.2 0.2 0.3 0.3 0.5 0.5 0.3 0.9-0.1 0.2 0.2 0.6 0.3 0.8 0.7 0.8 1.5 1.5 2.2 2.3 0.3 0.3 0.6 0.7 1 1 1.2 0.5 2.5 1.1 3.6 1.6 1.8-0.1 3.4-0.8 4.8-1.6 0.6-0.8-0.1-1.8 0.1-2.7 0-0.1 0-0.1-0.1-0.2-0.6-1-2.2-1.8-3.4-1.5-0.9 0.2-1.6 0-2.7-0.1l0.1-0.1zm3.6 12.6c0.1-0.5 0.2-0.9 0.3-1.4-0.3 0.1-0.7 0.1-1.1 0.2-0.2-0.6-0.7-0.7-1.3-0.6-1 0.2-1.8-0.2-2.6-0.4-0.4-0.1-0.8-0.2-1.3-0.3-0.9-0.1-1.7-0.6-2.6-0.9-1-0.4-1.9-0.9-2.8-1.5-0.3-0.2-0.7-0.5-0.7-0.8-0.1-0.7-0.5-1.1-0.8-1.6-0.4-0.6-0.6-1.2-0.4-2l0.6 0.3s0.1-0.1 0-0.2c-0.8-0.9-0.9-2.2-1.5-3.2-0.5-0.8-0.9-1.7-0.8-2.7 0-0.4-0.3-0.9-0.4-1.3-0.3-1-0.6-2.1-0.9-3.1 0.4-0.7-0.3-1.2-0.2-1.9s0-1.4-0.1-2c-0.2-1-0.3-2 0.2-3 0.7-1.4 0.8-2.9 1.8-4.2 0.5-0.7 0.6-1.7 1.1-2.4 0.8-1 1.2-2.3 2.6-3 0.6-0.3 1-1 1.5-1.6l0.6-0.6c1.3-0.8 2.6-1.8 4-2.4 0.8-0.4 1.5-0.9 2.6-1 0.6 0 1.2-0.7 1.9-0.7 0.3 0 0.6 0 0.9-0.1 0.8-0.3 1.6-0.7 2.4-0.9 0.5-0.1 1.1 0.1 1.7 0.1 0.3 0 0.6 0 0.9-0.1 0.5-0.1 1-0.4 1.6-0.1 1-0.5 1.9 0.5 2.9 0.1 0.6-0.2 1.4 0.2 2.2 0.3 0.9 0.2 1.7 0.3 2.6 0.5l1.2 0.3c0.8 0.3 1.6 0.7 2.4 0.9 0.9 0.2 1.6 0.8 2.4 1.3 0.7 0.4 1.4 1 2.1 1.2 0.8 0.3 1.5 0.7 2.2 1 0.4 0.2 0.6 0.4 0.9 0.6 0.4 0.3 0.5 0.8 0.9 1.1s0.6 0.9 0.3 1.5c-0.4 0.8-0.1 1.4 0.4 2.1 0.1 0.2 0.2 0.4 0.2 0.6 0.1 1.4 0.3 2.8 0.8 4.1 0.1 0.2 0 0.4 0.1 0.6l0.3 2.1c0 0.2 0.1 0.4 0.1 0.6 0 1.7 0.2 3.3 0.6 4.9 0.1 0.4 0 0.9 0.1 1.4v0.4c0.7 1 0.3 1.7-0.4 2.3-0.1 0.1-0.2 0.2-0.2 0.4-0.1 1.1-1 1.8-1.6 2.4s-1.3 1.2-1.9 1.9c-0.6-0.2-0.5 0.7-0.9 0.7h-0.4c-0.4 0.4-0.8 0.7-1 1.2-0.5 1-1.5 1.4-2.3 1.9-0.5 0.3-1 0.7-1.6 0.9-0.6 0.3-1.1 0.9-1.7 1.1-0.5 0.2-0.9 0.7-1.6 0.5-0.1 0-0.2 0-0.3 0.1-0.9 0.4-1.7 0.9-2.7 1.1-0.9 0.2-1.5 0.7-2.1 1.3-0.9 0.1-1.9-0.2-2.5 0.7-0.6-0.3-1-1-1.8-0.8 0 0.2 0.1 0.3 0.1 0.5-1.1 0.7-2.1 0-3.1-0.1-0.6 0.3-1.2 0.7-1.9 0.9s-1.4 0.3-2.2 0.5l0.2 0.3z"/><path d="m72.6 86.6c-0.5 0.5-0.7 1.2-1.4 1.1-0.7 0-0.8-0.7-1.1-1.2v-0.3c0.2-0.5 0.3-1.2 1-1.1s1.2 0.7 1.5 1.4"/><path d="m66.6 67.3c0.9 0.3 1.2 0.8 1.1 1.4-0.1 0.5-0.5 0.9-0.9 0.9-0.5 0-1.2-0.3-1.3-0.7-0.3-1 0.5-1.2 1.1-1.6"/><path d="m68 90.5c-0.1 0.8-0.5 1.3-1.2 1.6-0.6 0.2-0.9 0-1-0.6v-0.3-0.7c1-0.7 1-0.7 2.2 0"/><path d="m73.4 83c0.9 0.4 0.9 1.2 1 1.9-0.7 0.8-1 0.8-1.7 0.1-0.6-0.7-0.5-1 0.7-2"/><path d="m43.2 104.7c0.1-0.4 0.1-0.8 0.3-1.1 0.3-0.5 1.1-0.5 1.5-0.1 0.6 0.5 0.7 1.3 0.2 1.7-0.3 0.3-0.7 0.4-1.1 0.1-0.3-0.2-0.5-0.3-1-0.6"/><path d="m54.6 99.7c0 0.5-1 1.4-1.6 1.4-0.4 0-0.9-0.6-0.8-1 0-0.6 0.8-1.2 1.4-1.2 0.5 0 1 0.4 1 0.8"/><path d="m43.8 109.8c-0.1-0.5-0.2-1-0.3-1.6 0.3-0.2 0.5-0.4 0.8-0.7 0.8 0.2 1.4 1.2 1.2 1.8-0.2 0.5-0.8 0.7-1.7 0.5"/><path d="m45.7 99.9c-0.1 0.6-0.6 0.7-1 0.9-0.5 0.2-1.2-0.2-1.4-0.7s0-1.1 0.6-1.2c0.3-0.1 0.7 0 0.9 0.1 0.4 0.3 0.6 0.6 0.9 1"/><path d="m50.1 100.3c-0.4 0.3-0.7 0.5-1 0.8-0.9-0.5-1.3-1-1.2-1.6 0.1-0.5 0.5-0.8 1-0.8 0.6 0 0.7 0.2 1.1 1.6"/><path d="m40.8 100.8c-0.9 0.4-0.9 0.4-1.7 0-0.1-0.5-0.3-1-0.5-1.5 0.6-0.4 1.2-0.4 1.7-0.1 0.6 0.4 0.5 1 0.4 1.6"/><path d="m53.8 96.6c-0.7-0.5-1.5-0.6-1.7-1.5 0.4-0.3 0.7-0.5 1.1-0.7 0.4-0.3 0.7-0.3 1.1 0 0.4 0.4 0.5 1 0.2 1.4-0.2 0.3-0.4 0.5-0.6 0.8"/><path d="m43.1 97.7c0 0.1 0 0.3-0.1 0.5-0.2 0.3-0.4 0.6-0.6 0.7-0.2 0-0.5-0.3-0.8-0.4-0.1-0.1-0.1-0.3-0.2-0.4-0.4-0.4-0.4-0.8-0.1-1.2s0.7-0.5 1.2-0.4c0.4 0.1 0.6 0.5 0.6 1.2"/><path d="m44 112.2c1.2-0.1 1.2-0.1 1.5 1.5 0 0.1-0.1 0.1-0.1 0.2-0.3 0.2-0.6 0.4-0.9 0.7-1.1-0.6-1.2-1.2-0.5-2.4"/><path d="m67.5 96.2h-1.7c-0.1-0.7-0.4-1.5 0.3-2 0.3-0.2 0.9 0 1.4 0v2"/><path d="m40.9 101.7c0.5-0.4 0.7-1.1 1.5-0.8 0.6 0.2 1 0.8 0.9 1.2-0.1 0.5-0.6 0.9-1.3 0.9-0.8 0-0.7-0.7-1.1-1.3"/><path d="m47.5 112h-1.5c-0.2-0.4-0.3-0.7-0.4-1.1 0.3-0.3 0.6-0.6 0.9-1l1.2 0.3c0.3 0.6 0.2 1.1-0.2 1.7"/><path d="m57.6 96.5c-0.6 0-1-0.4-0.9-1 0-0.6 0.4-1.1 1-1 0.6 0 1.1 0.4 1.1 1s-0.5 1-1.1 1"/><path d="m67.8 70.8c0-0.7 0.4-1.2 0.9-1.2 0.6 0 1.1 0.4 1.1 0.9s-0.7 1.3-1.3 1.3c-0.5 0-0.8-0.3-0.8-0.9"/><path d="m38.8 109.2c0.2-0.5 0.3-0.9 0.5-1.3 0.5 0.1 1 0.1 1.6 0.2 0 0.5 0.1 1 0 1.4-0.1 0.7-0.6 0.8-1.2 0.4-0.3-0.2-0.6-0.5-0.9-0.7"/><path d="m64.7 96.3c0.7 0.5 0.6 1.2 0.6 1.8 0 0.4-0.6 0.7-1.1 0.6-0.6-0.1-0.9-0.6-0.8-1.1 0.2-0.6 0.5-1.1 1.3-1.3"/><path d="m43.1 111.2c0 0.8-0.2 1-0.8 1-0.7 0-1-0.4-1-1.2s0.1-1 0.8-1 1 0.3 1 1.2"/><path d="m50.2 92.1c0.3 0 0.6 0 0.9 0.1s0.5 0.3 0.9 0.5c-0.1 0.3-0.1 0.6-0.2 1-0.2 0.5-0.6 0.8-1 0.6-0.6-0.2-0.9-0.6-0.7-1.1 0.1-0.3 0.2-0.7 0.2-1"/><path d="m40.6 105.4h-1.1c-0.5-1.2-0.5-1.5 0-1.8 0.4-0.2 1-0.2 1.3 0.1 0.5 0.4 0.4 0.8-0.2 1.7"/><path d="m56.4 97.3-0.3 1.2-1.2 0.3c-0.7-0.8-0.8-1.2-0.3-1.8s0.8-0.6 1.8 0.2"/><path d="m38.7 113c0.7-0.3 1.2-0.5 1.7-0.7 0.3 0.6 1 1 0.6 1.7-0.3 0.5-0.8 0.5-1.4 0.3-0.2-0.4-0.5-0.8-0.9-1.3"/><path d="m68.4 65.4c0.5 0.2 1 0.5 1.5 0.7 0 1 0 1.1-0.9 1.3-0.5 0.1-0.8 0-1.2-0.8-0.3-0.6 0.1-0.8 0.6-1.2"/><path d="m67.9 88.2c1.4-0.8 1.6-0.7 2 0.6l-0.6 0.9h-1.2l-0.3-1.5"/><path d="m68.2 92.2c0.6 0.1 1.1 0.2 1.6 0.3v1.3c-0.9 0.4-1 0.4-2-0.1 0.1-0.5 0.2-0.9 0.4-1.5"/><path d="m72.8 89.7c-0.1-0.4-0.2-0.7-0.4-1.1 0.3-0.4 0.6-0.7 0.9-1 0.8 0.3 1.2 0.7 1.2 1.1-0.1 0.5-0.8 1-1.7 1"/><path d="m30 103.5c0.6-0.1 1-0.2 1.5-0.3 0.3 0.5 0.5 0.9 0.7 1.4-0.7 0.3-1.3 0.5-2 0.7-0.1-0.7-0.2-1.2-0.3-1.8"/><path d="m63.7 94c-0.3-0.8-0.2-1.4 0.3-1.9 0.2-0.2 0.9-0.1 1 0.1 0.5 0.5 0.3 1.1-0.1 1.7h-1.3"/><path d="m49.2 96.5c-0.2-0.1-0.4-0.2-0.6-0.2s-0.3-0.1-0.5-0.1c-0.2-0.7-0.3-1.3 0.3-1.9 0.6 0.1 1.1 0.3 1.4 1 0.2 0.6-0.1 0.9-0.6 1.2"/><path d="m37.7 105.6c0.4 0 0.8 0.1 0.8 0.6s-0.7 1.4-1 1.4c-0.4 0-1-0.7-1-1.1 0-0.6 0.4-0.9 1.2-0.9"/><path d="m42.8 107.6h-0.4-0.6c-0.8-0.9-0.9-1.2-0.5-1.7 0.3-0.3 0.7-0.5 1.1-0.3 0.6 0.3 0.7 0.9 0.4 1.9"/><path d="m50.5 98.4c-0.1-0.5-0.8-1.1-0.2-1.6 0.3-0.2 1-0.2 1.4 0 0.4 0.1 0.4 0.5 0.3 0.9-0.2 0.5-0.8 0.8-1.5 0.7"/><path d="m34 111.7c-0.7 0.5-1.4 0.6-1.8 0.1-0.1-0.2-0.2-0.6-0.1-0.8 0.1-0.4 1-0.9 1.3-0.8 0.4 0.1 0.6 0.6 0.5 1.4"/><path d="m59.9 92c0.5 0.3 1.2 0.3 1.1 1-0.1 0.5-0.3 0.9-0.8 1-0.3 0-0.7-0.1-0.8-0.3-0.3-0.5-0.1-1.1 0.6-1.7"/><path d="m69.8 96.9c0.1 0.4 0.2 0.7 0.4 1.1-1.4 0.6-1.6 0.5-2.5-0.5 0.6-0.5 1.2-0.7 2.1-0.6"/><path d="m71 92c-0.3-0.5-0.5-0.8-0.7-1.2 0.3-0.6 0.6-1.1 1.3-0.9 0.4 0.1 0.7 0.4 0.7 0.9 0 0.7-0.6 0.9-1.3 1.2"/><path d="m37.2 110.4c1-0.4 1.6 0 1.7 1.2l-1.2 0.6c-0.6-0.8-0.6-0.8-0.5-1.9"/><path d="m67.3 98.9v1c-0.3 0.3-0.7 0.6-1 0.9-0.8-0.3-0.8-0.3-0.7-1.5 0.4-0.4 0.9-0.8 1.7-0.4"/><path d="m61.2 100.2c0.1-0.4 0.2-0.7 0.3-1.1 0.4 0 0.8-0.1 1.2-0.1 0.3 1.2 0.2 1.6-0.4 1.8-0.5 0.2-0.7 0.1-1.2-0.6"/><path d="m48.1 97.9c-0.8 0.3-1.3 0.5-1.9 0.6-0.2-0.3-0.3-0.5-0.4-0.7-0.3-0.4-0.1-0.7 0.2-1s0.6-0.3 0.9 0 0.6 0.6 1.1 1"/><path d="m59.4 98.7c0-0.7-0.2-1.2-0.1-1.6 0.2-0.4 0.7-0.6 1.3-0.4 0.1 0.4 0.7 0.8 0.3 1.3-0.3 0.3-0.8 0.4-1.5 0.6"/><path d="m71.4 72c0.3 0.4 0.6 0.7 0.9 1.1-0.4 0.3-0.7 0.6-1 0.9-0.8-0.4-1-0.9-0.9-1.7 0.3-0.1 0.7-0.2 1-0.3"/><path d="m36.3 113.9c-0.3 0.1-0.5 0.2-0.7 0.3-0.5-0.1-0.8-0.7-0.8-1.5l0.2-0.2c0.2-0.1 0.4-0.2 0.5-0.2 0.6 0.1 0.8 0.6 0.7 1.7"/><path d="m62.1 96.3c-0.7-0.6-0.9-1-0.6-1.4 0.2-0.4 0.6-0.5 1-0.4s0.6 0.6 0.5 1.4c-0.3 0.1-0.7 0.2-1 0.4"/><path d="m70.4 94.7c0.7-0.1 1.4-0.2 1.7 0.8-0.4 0.3-0.7 0.6-1.1 0.9-1-0.4-1.1-0.6-0.6-1.7"/><path d="m64 88c0.4-0.4 0.8-0.3 1.2 0.1 0.3 0.3 0.2 1.2 0 1.5-0.1 0.1-0.2 0.2-0.3 0.2-0.1 0.1-0.3 0.1-0.4 0.1-0.3-0.6-0.4-1.3-0.3-2"/><path d="m35 109.7c-0.8-1.3-0.7-1.6 0.5-1.8l0.8 0.8c-0.4 0.4-0.4 1.2-1.3 1"/><path d="m47.2 106c0.1 1.3 0.1 1.4-1.1 1.4-0.5-0.8-0.5-1.1-0.2-1.5 0.5-0.5 0.9-0.2 1.3 0.1"/><path d="m32.8 101.3c1.3 0.3 1.4 0.7 0.6 1.7-0.3-0.1-0.7-0.2-1.1-0.3-0.1-0.6-0.1-0.6 0.5-1.4"/><path d="m73.4 91.8c0.5 0.9 0.6 1.1 0.3 2.2-0.8 0.1-0.8 0.1-1.3-0.7 0.3-0.4 0.6-0.9 1-1.5"/><path d="m66 104.8v-1c1-0.6 1.3-0.4 1.7 0.9-0.3 0.2-0.5 0.3-0.8 0.5-0.3-0.2-0.6-0.3-1-0.5"/><path d="m32.1 106.3c0.4-0.3 0.8-0.7 1.3-0.5 0.4 0.2 0.5 0.7 0.4 1.2-0.2 0.2-0.5 0.4-0.9 0.7-0.3-0.5-0.6-0.9-0.8-1.4"/><path d="m63.3 90.6c0 0.3 0 0.6 0.1 0.9-1 0.6-1.2 0.5-1.9-0.6 0.8-0.6 0.9-0.6 1.9-0.2"/><path d="m47.2 103c-1.2-0.4-1.3-0.5-1.2-1.6 0.1 0 0.1-0.1 0.2-0.1h0.8c0.3 0.5 1 1 0.3 1.7"/><path d="m34.8 104.8v-1.3c0.5-0.2 1-0.3 1.3 0.2 0.1 0.2 0.2 0.6 0.1 0.8-0.3 0.4-0.8 0.6-1.4 0.2"/><path d="m73.9 79-0.3 0.9c-0.1 0.3-0.1 0.5-0.2 0.8-0.8-0.1-1-0.4-0.9-1 0.1-0.7 0.6-0.9 1.4-0.7"/><path d="m30.5 107.9c0.6 0.1 1 0.2 1.4 0.3 0.1 1.2 0.1 1.3-1 1.6-0.1-0.6-0.2-1.1-0.4-1.9"/><path d="m49.7 104.3c-0.5 0.2-0.9 0.5-1.4 0.7-0.2-0.3-0.4-0.5-0.6-0.8 0.2-0.2 0.3-0.4 0.4-0.5 0.6-0.3 1.1 0.1 1.5 0.6"/><path d="m64.8 101c0.7 1 0.7 1 0 1.7l-0.3-0.3c-0.1-0.1-0.1-0.2-0.1-0.4-0.2 0-0.3 0.1-0.5 0.1-0.4-0.3-0.1-0.8 0.8-1.2"/><path d="m37.4 102.8c-0.8-0.5-0.9-0.8-0.6-1.1 0.1-0.1 0.5-0.2 0.6-0.2 0.4 0.1 0.4 0.4 0 1.3"/><path d="m82.9 201.9c0.8 0.3 0.9 0.6 0.8 1.3-0.1 0.4-0.3 0.6-0.6 0.6-0.4 0-1-0.3-1.1-0.7-0.2-0.8 0.6-0.9 1-1.2"/><path d="m116.2 90.3c0.7-0.9 1-1 2-0.6 0.7 0.3 1.3 0.7 1.6 1.4 0.2 0.5 0 0.8-0.4 1-1.3 0.7-2.7 0.9-4.2 0.9-0.9 0-1.9 0-2.8 0.1-1.1 0.1-2.1 0.5-3.2 0.7-0.6 0.1-1.1 0.6-1.8 0.3-1 0.5-2.1-0.1-3.2 0.5-0.7 0.4-1.6 0.5-2.4 0.2-0.4-0.1-0.9 0-1.4 0-0.1-0.4-0.3-0.8-0.4-1.1 0.6-1 1.5-1.4 2.5-1.3l1.2-0.3c1.2-0.1 2.4-0.2 3.6-0.4 0.2 0 0.4-0.2 0.6-0.3 0.4-0.1 0.7-0.2 1.1-0.2 0.7 0 1.4 0.1 2.1-0.3 0.5-0.3 0.8 0 0.9 0.6 1.3-0.9 2.7-1.2 4.3-1.1"/><path d="m108.3 80.7h0.9c0.6 0 1 0.6 0.9 1.1-0.2 1-0.4 1.9-0.9 2.8-0.3 0.6-1 1-1.5 0.9-0.7-0.2-1-0.8-0.9-1.6v-0.1c-0.4-1.4 0.6-2.1 1.4-3.1"/><path d="m101.9 87.1c-1.2 0.5-2 0.3-2.7-0.6 0 0-0.1 0-0.1-0.1-0.4-0.6 0-1.3 0.1-1.8s0.6-0.8 1.1-0.9c1.5-0.1 2.4 1.1 1.8 2.6-0.1 0.3-0.2 0.5-0.3 0.8"/></g></g></svg>
