<svg xmlns="http://www.w3.org/2000/svg" viewBox="0 0 148 201"><title>  Group</title><g fill="#383747"><path d="m109.2 111.5-.1-.1c-2 .3-4 .6-6 1-.6.1-1.3.6-1.3 1.4 1.6.1 6.5-1.5 7.4-2.4zM92.5 114c-2.1 0-4.1-.2-6.1-.1-1.2.1-2.4.3-3.3-.3-1.7.7-3.3.2-5 .2v1.6c1.5 0 2.9.1 4.7.1.7.6 1.9.9 3.1.6.6-.1 1.3-.3 1.9-.2 1.6.1 3.2-.2 4.8-.7V114zM13.1 56.9c-1.7.6-2.2 2-1.3 3.4.3.5.9.9 1.2 1.3 1.1 1.3 2.6 1.9 4.1 2.5.9.3 1.5-.4 1.2-1.2-.6-1.7-1.3-3.3-2.9-4.4-.8-.5-1.5-1.1-2.3-1.6M72.7 113c-3.2-.2-6.1-1.2-9.4-1.8-.1 0-.4-.3-.7-.6-.6.3-1.2.3-1.8-.2-.2-.2-.7-.1-1-.1-.4 0-.7.3-1 .2s-.4-.5-.6-.7c-.3.4-.5.7-.7 1.2 1.6.6 3.2 1.1 4.7 1.7.7.3 1.4.7 2.2.9 1.2.3 2.5.6 3.7.8 1.5.3 3.1.6 4.9.9-.1-.8-.1-1.5-.2-2.2zM91 179.7c0 .2.1.3.1.5.6-1.3 1.2-.4 1.7-.4 2.5 0 4.9.1 7.4.1 1 0 2 0 2.9-.1 1.4-.1 1.8-.8 1.4-2.3h-5c-2.4 0-4.9.1-7.3 0-1.1 0-2.1.2-2.9.8-.6-.2-1.2-.3-1.9-.6.4.7.7 1.2 1 1.7.6-.1 1.5.1 2-.9.2.5.3.8.5 1.1zm-45.7.1c1.1.2 1.8-.2 2.3-1.1 2.2 1.1 4.4 1.1 6.8 1.1s4.7.4 6.8-.4c.1-1 .1-2 .2-2.9-1.7-.3-3.2-.6-4.8-.3-.6.1-1.2.3-1.7 0-1.3-.7-2.6-.3-3.9-.4-1.2-.1-2.4 0-3.5-.3-.7-.2-1.2 0-1.8.6q.15 1.05.3 2.4c-.2.3-.4.7-.7 1.3M124 69.7c-1.4 1.3-2.4 2.8-3.4 4.4-.5.7-.3 1.3.1 1.9.9 1.4 1.9 2.7 2.6 4.2.5 1 .8 2.1 1.2 3.3 1.7-.6 3.3-1.4 4.7-2.4-.1-.6-.2-1.2-.2-1.7-.1-1.1-.3-2-1.2-2.8-.3-.3-.5-.8-.6-1.2-.2-.6-.3-1.2-.6-1.7-.8-1.3-1.8-2.6-2.7-4zM12.7 79c1.9-.3 3.9-.7 5.8-.9 1.5-.2 2.5-.8 3.1-2.1.3-.6.3-1.4.5-2 .7-1.7 1.2-3.5.8-5.4 0-.1.1-.3.1-.4.2-1.7-.5-2.7-2.4-3.3-1.1 2.2-3.1 1.9-5 1.6-.2 2.6-.5 4.9-1.4 7.2q-.45 1.2-.6 2.4c-.1 1-.7 1.9-1.1 3zm4.8-67.9c-.9-.4-2.1.1-2.9-.8-.3-.3-.7.1-.8.5s-.1.8-.1 1.1c0 .6.2 1.2.1 1.7-.3 1-.6 2-.6 3 0 .9-.4 1.9 0 2.8.1.2 0 .5 0 .7-.4 1-.2 2.1-.2 3.1 0 .4.1.8 0 1.3-.1 1.4-.2 2.7-.3 4.1-.1 1.6-.1 3.2-.2 4.8-.1 1.1-.3 2.2.1 3.3 1.1 0 2.2 0 3.2.1.1-.7.2-1.4.2-2.1 0-2 .6-3.9.4-5.9-.2-2.3.7-4.5.4-6.9 0-.2 0-.5.1-.7.2-1.9.5-3.7.7-5.6.1-1.5.1-2.9.1-4.5zM4.7 77.2c1.2.6 2.5.6 3.8.8 1.2.2 1.9-.5 2.5-1.5.5-.7.2-1.5.5-2.2 1.1-3 1.9-6 1.4-9.2 0-.1-.1-.2 0 0-1.4-1.4-2.4-2.7-3-4.4-.4 0-1-.2-1.2-.1-.8.7-1.4.1-2.2-.4-.4 1.2-.8 2.3-1.2 3.4-.1.3-.1.7-.2 1-.5 1.2.2 2.6-.6 3.7v.3c-.1 1.9-.1 3.8-.3 5.7-.1 1 .1 2 .5 2.9m44.8 73c1.2-.1 2.2-.1 3.2-.2 1.3-.1 2.5-.2 3.7-.3.4-.1.8-.3 1.2-.5.3-.2.5-.4.8-.6 2.8-1.8 2.1-5.6-.3-7.1-1-.6-2.1-1-3.2-1.6-1-.6-1.9-.9-2.9-.2-.8-1-1.6-1.3-2.7-1-.1.4-.3.7-.4 1.1-.5-.2-.8-.4-1.2-.6-.6.6-.1 1.2-.3 1.8-.2.2-.5.4-.6.5 0 .6-.1 1.1-.1 1.6 1.4 1 1.3 1.3-.2 2-.3.1-.6.6-.6.9s.2.7.5.9c.2.2.6.2.9.2.1 1.2.1 1.2-1.2 1.5.2 1.3.8 1.9 1.8 1.6.1-.4.1-.8.2-1.2 1.4-.1 1.5-.1 1.4 1.2m53 1.4c-.3-.8-.5-1.7-1-2.5-1-1.8-2.5-3.1-4.6-3.6-.3-.1-.6-.2-.9-.4-.8-.5-1.6-.7-2.6-.7-.4 0-.8-.1-1.1-.1-.4.2-.7.5-1 .6-.5.3-1.1.4-1.6.7-1.1.6-2 1.4-1.9 2.9 0 2.2 0 4.4-.1 6.6.7.5 1.2.3 1.5-.4.5.3 1 .6 1.3.8.9-.3 1.7-.3 2.5-.2 1.4.1 2.9.1 4.3.2l.1-.1c1.2-.4 2.3-.9 3.5-1.3.7-.2 1.1-.8 1.3-1.4.1-.3.2-.6.3-1.2zM128 41.2c1.5-2.1 1.5-4.4 1.6-6.7-1 0-1 0-1.3-1.2.4-.1.7-.1 1.1-.2.1-.2.3-.4.3-.6v-3.9c0-.2 0-.5.2-.7.4-.3.3-.6.2-1-.2-.8-.4-1.6-.6-2.5.8-.8.8-.8.7-1.7-1-.6-1.1 1.4-2.2.6-.6-1.1-1.6-.9-2.5-.7-.2.8-.4 1.4-.4 2.1s.2 1.5.3 2.4c0 .1-.1.4-.2.6-.4.7-.5 1.4.3 2 .3.2.3.9.4 1.5-.6 0-.9-.1-1.3-.1-.1.8-.1 1.5-.2 2.3.6-.1 1.1-.2 1.4.7-.5.2-1 .4-1.5.7.1.3.1.8.2 1.3-1 .6-.6 1.6-.7 2.3.3.4.6.7.8 1-.7.8-1.7 1.4-1.3 2.6.3.1.6.2 1 .4v1.3c-.4 0-.7.1-1.1.1-.2.8-.6 1.5-.6 2.2-.1.8.3 1.6.3 2.4s-.4 1.7-.2 2.5c.3 1.1 0 2.1-.2 3.1-.1.7-.3 1.4-.2 2.1.1.6.3 1.4.7 1.6.6.4.8.9 1 1.5.4 1 .8 2 1.1 2.8.6.1 1.2.1 1.5.4.5.4.2.8-.1 1.3-.1.1.2.5.3.8.6-.6.8-1.1.6-1.9-.2-.5-.4-1.1-.2-1.8.5-1.2.5-2.4-.4-3.5.7-.8.9-1.9.4-2.7-.3-.5-.4-1.1 0-1.3 1-.5.6-1.4.9-2.1-.4-.2-.7-.4-1-.6.1-.4.1-.8.2-1.1.3-.1.6-.2.8-.3.2-1.1.4-2.1.6-3.2 0-.2.1-.6-.1-.7-.5-.5-.2-1 0-1.6.3-.9.4-1.8-.4-2.5zM117.5 138c1.3 0 2.2-.8 3.2-1.6 1.1-.9 1.6-2.1 2.4-3.1 1-1.4 1.7-2.9 2.2-4.6.3-1.1.5-2.3.7-3.5.3-1.5.3-3 0-4.6-.2.1-.4.1-.6.1-1.3.5-2.7.5-4.1.3-1.5-.2-3-.4-4.4-1.1-.3-.2-.7-.1-1.3-.1-.7 1.2-1.3 2.5-2.1 3.6-.9 1.2-1.6 2.4-1.7 4.1.6-.2 1-.3 1.4-.5 1.2-.8 2.4-1.6 3.1-3.1.7-1.4 1.8-1.3 2.6.1-.4.7-.8 1.3-1.1 2-.4.8-.9 1.5-1.7 2.1-.7.5-1.5 1.1-1.9 1.9-1 1.8-2 3.6-2.3 5.8.6.3 1.3.7 2.1 1.1.4.2.9.4 1.4.5.7.2 1.4.3 2.2.4zm-37.9 55.6c.4.1.9.4 1.3.3 1.9-.5 3.8.2 5.6.2s3.6.2 5.4.3c2 0 4.1-.1 6.1-.1 2.1 0 4.1-.7 6-1.7.7-.4 1.2-1 1.4-1.9.3-1.7.1-3.4.2-5.2 0-.3-.3-.7-.5-1-.6-.7-1.5-.9-2.3-1-.9-.2-1.8-.3-2.7-.4-1.4-.3-2.8-.1-4.2-.1-1.9 0-3.7.1-5.6.2-2.1.1-4.1.1-6.2.8-1.2.4-2.1 1.1-2.8 2-1.2 1.4-1.2 3.3-1.4 5-.1.8-.1 1.7-.2 2.7zm-17.2-10.8c-1.2 0-2.4-.1-3.5.2-1.9.4-3.8-.2-5.8.1-.9.1-1.8-.3-2.7-.3-1.2 0-2.4-.6-3.5.4-.3.3-.9.4-1.4.3-1.5-.3-2.8.5-4.2.6-2.1.1-3.5 1.7-5 2.9-1 .8-1.6 2-1.8 3.2-.2 1.1.1 2.3.1 3.4 1.9.2 3.8.4 5.6.6.6.1 1.2.3 1.8.3 1.6.1 3.2-.1 4.7.1 2.2.3 4.4 0 6.6.1 1.2 0 2.3-.1 3.5-.2.9-.1 1.8-.1 2.7-.3.5-.1 1.1-.5 1.2-.9.4-1 .7-2.1.9-3.2.2-1 .2-1.9.3-2.9.1-1.4.2-2.9.3-4.2zM22.9 6c-.1.3-.3.6-.3 1-.1 1.5-.2 3.1-.2 4.6.1 1.5-.4 3-.1 4.5.2 1.3-.2 2.7-.1 4.1.2 2.5-.3 4.9-.3 7.3 0 1.5.1 2.9.1 4.4 0 1.1.1 2.2.1 3.3.1.8.2 1.5.4 2.3 0 .2.2.4.2.6.1 1.3.3 1.5 1.5 1.5 1.5 0 3 0 4.5.1s3 .7 4.6 0c.2-.1.5.1.7.2.7-.5 1.2-1.1 1.4-2 .1-.8.4-1.6.7-2.5-1.4-.2-.9-1.1-.9-1.9-.5-.3-1-.8-1.5-.8-1.8-.1-3.6-.1-5.4-.1-.3 0-.6-.2-.8-.2 0-2.2 0-4.2.2-6.2.1-1.5 0-2.9.2-4.4.2-1.7.5-3.5.5-5.2 0-1.6.2-3.2.3-4.8.5-.1.8-.2 1.2-.2 1.2 0 2.3.1 3.5.1.3 0 .5 0 .8.1.8.1 1.3-.1 1.5-.9.2-1.3.4-2.6.5-3.9 0-.2-.2-.5-.3-.6-.5-.3-1.2-.7-1.7-.6-1 .2-2 0-3.1 0-2.7.1-5.4-.5-8.2.3zm58.6 49.2c.3.3.7.7 1.2 1 .4.2.9.1 1.4.2.9.2 1.7.5 2.6.5 2-.1 3.9.3 5.9-.1 1.1-.2 2.2 0 3.2-.2 1.4-.2 2.8-.5 4.1-1.1 2.7-1.2 5.3-2.7 7.4-4.9.3-.3.6-.5 1.1-.3.7.2 1.2-.2 1.3-1 .1-1 .1-2 .2-2.9 0-.3.1-.6.1-.9.3-1.7.6-3.4.8-5s.1-3.3.2-4.9c0-1.2.1-2.4.1-3.6 0-.8.1-1.6-.1-2.3-.5-1.5-.4-3.2-1.3-4.6-.1-.1 0-.4-.1-.6-.3-1.3-.3-2.8-1.7-3.6-.2-.1-.3-.4-.4-.6-.3-.4-.6-.9-.9-1.2-.4-.5-.9-1-1.3-1.5-1.2-1.4-2.5-2.5-4.2-3.4-1.1-.5-1.9-1.5-3.2-1.5-.1 0-.2-.1-.2-.2-.8-.8-1.8-1.1-2.9-1.3-1.8-.3-3.5-.3-5.3-.1-.2 0-.5.1-.7 0-1.6-.4-3.2 0-4.8.3l.3.9c-.5.2-.9.3-1.6.6.3-.7.4-1.1.6-1.5-.8.2-1.6.3-2.1.4-.2.6-.4 1.1-.7 1.8-.6-.4-1.1-.7-1.6-1-1.1.4-2.4.8-3.2 1.8-.2.3-.6.6-.9.6-1 .2-1.1.7-.8 1.6q-.9.15-1.5.3c-.2.6-.2 1.4-.6 1.7-1.1 1-1.7 2.3-2.2 3.6-.1.1 0 .3 0 .4.4.3.7.5 1 .7-.2.9-.8 1-1.4 1-.2 1-.6 1.8-.6 2.7-.1.8.2 1.7.3 2.5-.3.1-.6.2-.8.3 0 .6-.1 1.1-.1 1.6.4.2.7.4 1.1.6-.1.5-.1.9-.2 1.3-.5.1-.8.1-1.2.2-.1.6-.3 1.2-.4 1.9.5.1 1.1.2 1.7.3.1.3.2.7.4 1.1-.6.2-1.1.3-1.6.4l.3 1.8c1.2.2 1.2.2 1.3 1.3-.5.2-.9.4-1.5.6.1.6.1 1.3.2 2 .7-.1 1.2-.2 1.3.5 0 .2 0 .6-.1.7-.4.2-.8.3-1.2.5.1.6.3 1.1.4 1.6 1.2.6 1.2.6.6 1.6-.1.2 0 .5 0 1.1.7-.5 1.2-.9 1.6-1.2-.2-.7-.3-1.2.6-1.3l.8.8-.8.8c0 .3.1.6.1 1-.4.2-.8.4-1.4.8 2.7 1.7 4.8 3.7 7.5 4.5.7-.3 1.1-.5 1.6-.7.2.5.3.9.4 1.3.8.1 1.6.2 2.5.4zM60 94.4c-.6.8-.2 1.7-.1 2.6.5 0 .9.1 1.4.1-.1.6-.2 1.1-.3 1.7-.5-.1-.7-.1-1-.1-.6 2 .1 4-.5 5.8.2.3.4.7.7 1 0 .5-.1 1.1-.1 1.6.7.2 1.3.4 1.7.5.3-.6.6-1.2.8-1.7h.4c.2.3.6.7.5 1-.1.4-.5.7-.8 1.1.7.3 1.5.6 2.3.8 2.1.5 4.2.8 6.2 1.3 1.1.3 2.1.2 3.1-.3 1.6-.9 3.3-.6 3.9 1.6 4.8.1 9.6.3 14.4.4.2-.6.3-1 .4-1.4.2-.5.4-.8 1-.8h2.2c.5 0 1.1.1 1.2.7.1 1 .7 1.1 1.3 1 .5.5.8.9 1.4 1.5.2-.8.3-1.3.5-2.1.8.1 1.7-.2 2.4-.2.9 0 1.3-.6 2.1-.7 1.7-.2 3.3-.8 5.1-1.2 0-.6.1-1.1.1-1.5 0-1.2-.2-2.5 0-3.7.2-1.5.5-3 .4-4.5-.2-2.5.3-5 .2-7.5-.1-1.7.2-3.5-.8-5.1-.1-.1-.2-.4-.1-.6.2-2.6-.7-5.1-.6-7.8.1-1.8-.3-3.7.4-5.5.1-.2 0-.4 0-.6-.2-1.3.3-2.6.9-3.7.3-.7.9-1.2 1.4-1.8.4-.4 1-.7 1.5-.3.6.4.5 1 .4 1.6-.2.5-.5 1-.6 1.5-.1.4 0 .8 0 1.1q.75.3 1.2.6c-.2 1.1-1.1.6-1.6.8-.6 6.4-.7 5.9.1 9.9.7-.3 1.4-.5 2.1.4-.6.4-1.2.7-1.8 1.1.1.5.3 1.1.4 1.7.4.1.8.2 1.2.4 0 .6-.1 1.2-.1 2 .5-.3.7-.5 1-.7 1.2.7 1.2.8.6 1.7-.4.5-.3 1 0 1.4.4.7.8 1.3 1.2 2 .1.1.2.4.3.4 1 0 .8.7 1.1 1.4-.5.2-.9.4-1.4.6-.2-.5-.4-.9-.5-1.2h-.3c.2 1 .8 2.2-.5 2.8.3.9 0 1.8.6 2.6.4.6-.2 1-.7 1.1.1.7.1 1.2.1 1.7.4.4.7.8 1.2 1.3-.6.4-.9.6-1.4.9 0 .4-.1.9-.1 1.3.5.4.9.7 1.6 1.2-.7.4-1.2.6-1.7.9 0 .4 0 1 .1 1.6.5.2.9.5 1.4.7 0 .5-.1.8-.1 1.2-.4.1-.7.2-1 .2 0 .6-.1 1.2-.1 1.8.5.2.9.3 1.4.5-.3.5-.5.8-.7 1.1-.5.6-.5 1.2-.1 1.8.3.7.7 1.3 1 2 1.3-.3 1.3-.3 2.2.9.3 0 .7-.1 1-.1 1.4.3 2.6-.4 3.9-.7 1.8-.5 2.1-2.2 2.8-3.6.5-1 .7-2.1 1-3.2.3-.8.7-1.5.8-2.3.4-2.1.6-4.3 1-6.5-.2-.1-.4-.1-.6-.2-.9-.4-1.9-.8-2.3-1.8-.4-.9-.5-1.8-.8-2.7-.1-.5-.4-1-.4-1.5 0-.7.2-1.3.3-2 .2-1.6 1.5-3.6 2.7-4.8.7-.6 1.5-1.2 1.3-2.4-.1-.7-.2-1.5-.4-2.3-.9 1.1-1.9 1.7-3.2 1.8-.6.1-1.3.1-1.9.5-.5.3-1.1.1-1.4-.4-.6-1-1-2-1.6-3-1-1.7-2-3.4-3-5-.9-1.6-1.1-3.2-.1-4.7 1.2-1.9 2.6-3.7 4-5.7-.3-.7-.7-1.7-1-2.7-.2-.5-.5-1-1.1-1.3-.3-.2-.6-.6-.8-1-.7-1.5-1.3-3-2.1-4.8-.3.9-.4 1.6-.7 2.1-.3.6-.8 1-1.3 1.4-.1.1-.5-.1-.8-.1-.5-2.1.3-3.9 1.1-5.6-.7-.1-1.2-.2-1.8-.3-1.3-.2-2.7-.4-4-.6-.5-.1-1.2-.2-1.5 0-1.7 1.5-3.7 2.4-5.7 3.4-1.6.8-3.3 1.3-5 1.9-.4.2-.9.5-1.3.5-1.5-.1-2.8.6-4.3.6-2.8.1-5.5-.3-8.3-.7-.8-.1-1.6-.6-2.4-.7-2.7-.5-5.1-1.7-7.5-2.9-.6-.3-1.2-.5-1.8-.9-.7-.5-1.4-.9-2.2-.7-.2 0-.3-.1-.5-.2 0-.3.1-.6.1-.9-.6-.2-1.1-.5-1.7-.7-.6-1.3-1.1-1.5-2.6-.7.4.4.7.8 1 1.1.4.3.9.6 1.5 1.1-.8.4-1.3.7-1.7 1-.8.9-.7 2.2-1.1 3.2.3.4.7.7 1.1 1.2-2.5 1.5-2.5 3.7-2 6-.5.3-.9.5-1.3.8-.1.7-.2 1.4-.4 2.2.5-.5.9-.8 1.4-.4 0 .4-.1.8-.1 1.4q-.9-.3-1.5-.6c-.6.5 0 1.1.1 1.6-1 .7-1.1 1.6-.7 2.6.4.3.7.5 1 .8-.2.2-.3.4-.4.4-1.3 0-1.5.9-1.5 1.9 0 .2.1.5 0 .7-.3.8-.4 1.5 0 2.4.1.2 0 .8-.2.9-.7.5-.7 1.2-.7 1.8.5.5.9.9 1.5 1.4-.7.3-1.1.5-1.5.7-.2 1-.5 1.9-.5 2.9s.3 2.1.4 3.4c.3-.6.5-.8.7-1.3.4.4.6.7.8.9-.6 1.2-1.3.8-1.9.5.1 1 .1 1.9.2 2.7 0 .3.2.7.4 1zm-5.7 28.5c-1.1.3-1.1 1.2-1.3 2.1.5.1.9.2 1.4.4-.2.5-.3.9-.4 1.3-.7.4-1.2.1-1.6-.7-.1.5-.2.8-.2 1.1.3 1.2.3 1.2-.8 1.7 0 1.6-1.8 2.8-.7 4.4-.7.9-1.5 1.5-1.3 2.7.9.2 1.9.3 2.7.6.7.3 1 .2 1.4-.3.1-.1.3 0 .5-.1.1.3.1.6.2.9 1.2.4 2.3.7 3.4 1.2 1.3.7 2.6 1.6 3.8 2.6.5.4.8 1.2 1 1.8.2.5.2 1 .4 1.5.4.9.1 1.7 0 2.5-.2 1.6-1.5 2.5-2.6 3.4-1.2 1-2.5 1.7-4.2 1.8-1.8.2-3.6.7-5.5.6-.5 0-1 .1-1.1.8 0 .3-.4.5-.8.8l-.7-1.4c-.5 0-1.1-.1-1.6-.1 0 .7-.1 1.2-.1 1.8.7-.6 1.1-.1 1.5.3.1.1 0 .6-.1.7-.5.5-.9.1-1.3-.2h-.1v3.2c.5-.3.9-.5 1.6-.9.1.8.2 1.2.3 1.9h-1.8c-.1.6-.1 1.2-.2 1.8-.1.8-.5 1.6.1 2.5.2.2-.1.8-.2 1.2-.2.8-.5 1.5.1 2.3.2.2.2.8.1 1q-1.05 1.65.3 3c.1.1 0 .2 0 .3-.2.2-.4.5-.9 1 5.8-.1 11.2.5 16.8.9.1-1 .1-2 .2-2.9.3-1.9.7-3.8.9-5.8.2-2.5.1-5 .2-7.6-.5.3-.8.6-1.2.8-1-.7-1.2-.9-.8-1.6s.8-1.3 1.3-1.9c1.6-1.7 3.1-3.5 4.5-5.3 1.2-1.5 2.1-3.2 3.4-4.5 1.7-1.8 2.6-4.1 3.9-6.1.7-1.1 1.2-2.3 1.6-3.6.2-.7.5-1.5.2-2-1-.4-1.7-.8-2.4-1.1-.2-1.2.6-1.6 1.2-2.2 1.7.7 3.5 1.2 5 2.1 1.6.9 3.6.9 4.9 2.3-.2.3-.4.6-.6.8.4.2.8.4 1.3.7-1.6 1.5-.3 2.8.1 3.9.7.6 1.3 1.1 2 1.6-.4.5-.7.9-1 1.3l-1.2-.9c.1 1 .3 1.9.4 2.9.8-.3 1.6.4 2.2-.3-.1-.6-.1-1.1-.2-1.6 1.7-.1 3.3-.2 4.8-.2.4 0 .9 0 1.3.1 1.8.6 3.5 1.2 5.2 2.1.9.5 1.4 1.3 2.2 1.9 1 .7 1.7 1.5 2.1 2.6.4 1 .5 2 .7 3 .1.3 0 .6-.1.8-.4.8-.9 1.5-1.4 2.3-.2.3-.5.8-.8.9-1.7.6-3.4 1.2-5.1 1.7h-.3c-1.6-.2-3.2.1-4.7.1-1.1 0-2.4.3-3.3-.7-.4-.4-1-.3-1.4.1 0 .5.1.9.1 1.3v4.9c0 2.1.5 4.3-.3 6.4-.2.5-.2 1.2.4 1.7.2.2.3.5.4.7-1.6.9-1.6.9-1.1 2.4.3.1.6.3.9.3 1.7-.2 3.4-.2 5-.3.9 0 1.9-.2 2.8-.2 1.2 0 2.3.5 3.5-.1.2-.1.5.1.7.1 1.6-.1 3.3.5 4.9-.2.4-1.6.9-3.2.2-4.9-.1-.1 0-.4.1-.6.5-1.8.4-3.6.3-5.4 0-.6 0-1.1.6-1.5.5-.3.7-.8.5-1.5s-.2-1.5-.1-2.3c.1-1.8.2-3.6.3-5.3 0-1-.1-2.1 0-3.1.2-2.5.5-4.9.7-7.4.1-2 .1-4 .1-6 0-.8.1-1.5.1-2.3 0-2.4-.4-4.9.8-7.1.1-.2.1-.6.1-.8.4-2.4.4-4.8.6-7.2 0-.4 0-.9-.2-1.2-.4-1-.4-1.3.3-2.1l.4-.8c-1.5.9-2.8 1.5-4.3 1.6-.8 0-1.7.2-2.4.5-1 .6-2 .6-3 .8-.6.1-1.3.2-1.9.3-.1.3-.1.5-.1.7-.1 1-.9 1.7-1.8 1.5-1.2-.2-2.4-.4-3.3-1.5-.2-.3-.8-.5-1.1-.4-1 .5-2.1.2-3.1.4-1.1.2-2.2.4-3.2.4-1.2 0-2.3-.1-3.5-.2h-4.5c-.5 1.4-1.8 1.2-2.9 1.1-1.2-.2-1.4-1.5-1.7-2.6-3.9-.1-7.6-1.5-11.5-2.2-.2.1-.5.3-.7.5-.8-.2-1.3-.6-1-1.4-.7-.5-1.9 0-2.2-1.2-.2.4-.4.7-.6 1l.6.9c-1 1.6-1.9 3.1-2.9 4.7.7.1 1.2.4 1.1 1.1-.1 1.3-1.3.3-1.8.9.1.4.1.8.2 1.3zM46.7 86c1.1-.7 2.2-1.4 3.4-2.2.4.1.8.3 1.2.4s.8.2 1.1.1c.4-.1.7-.4 1.1-.5.2-.1.5 0 .6.1.1.2.2.5.1.8-.1.2-.3.4-.5.8 1 .3 1.8.5 2.7.8.8-.6.4-1.3.1-1.6.1-1.3.9-2.2.1-3.3-.1-.1 0-.4 0-.5.2-.8.4-1.6.6-2.5-.9 0-.8-.5-.9-1 1.3-1.3 1.4-1.5 1.3-2.8h-.8c-.1-.5-.1-.9-.2-1.3.5 0 .9-.1 1.2-.1.4-2.2 1-4.2 1.2-6.3.1-1.4 1.1-2.7.4-4 .4-.6.9-1.1 1.1-1.7.5-1.9.8-3.8 1.6-5.6.1-.3.1-.6.1-.9-.4-.3-.8-.5-1.1-.7.1-.3.1-.6.1-.9-3.4 2.5-6.2 5.4-8.1 8.9.2.5.4.9.7 1.5-.7.1-1.2.1-1.5.1-.8 1.4-1.5 2.8-2.3 4.2.2.2.4.5.7.9.2-.9.7-1.1 1.4-.6-.1.8-.7 1-1.2 1.4-.5.3-.8 1-1.1 1.5-1.8-1.1-3.3-2.7-5.5-1.6-.4-.4-.8-.9-1.2-1.1-.7-.3-1.5-.4-2.2-.5-1.5-.2-3.1-.4-4.6-.6-.3.3-.6.5-1 .9-.6-1.2-1.7-1.1-2.7-1.1-.6.8-1.1 1.1-1.6.7-.1-.3-.2-.6-.4-1-.6.1-1.1.2-1.7.2 0 .1.1.2.1.2-.4.4-.9.8-1.4 1.3 0 .4-.1.9-.1 1.5.5.1.9.2 1.3.2-.1 1.2-.1 1.2-1.3 1.5-.2 1.3-.5 2.5-.7 3.9.1.2.4.5.7.8-.3.3-.5.6-.7.7-.7.1-.9.7-1.1 1.2-.6 1-1.2 2-1.8 3.1.1.1.4.3.6.5.1-.4.2-.7.3-1 .1 0 .2 0 .3-.1.2.3.6.7.5 1-.1.7.2.9.9.9.2 0 .4 0 .5.1 1.2 1.1 2.8 1.7 4.2 2.1.6-.2 1-.5 1.4-.3.3.1.5.7.9 1.3 1 .4 2.2.8 3.4 1.3.3-.4.5-.7.9-1.4.2 2.2 1.6 2.7 3.1 2.9.1 0 .1.1.2.2 1.1.4 2.2.9 3.3 1.3.2.1.5-.1.8-.2.1-1.5.7-2.8 1.8-3.8zm85.7-23.1c-.1 1.3-.3 2.6-.4 4q-.15 1.8 0 3.6c0 .4.3.9.4 1.1-.4 1-.7 1.9-1.1 2.8.5.2.8.3 1.1.5.1.6 0 1-.6 1.1-.6.2-.7.6-.6 1.1.3 1.1.6 2.3 1 3.4.2.5.4 1.1.5 1.6.1.2.2.4.1.5-.2 2.6.7 5.2.1 7.7-.1.3.1.7.1 1.1v1.4c0 .9.1 1.9.1 2.8s-.2 1.8-.3 2.7c0 .1-.1.2-.1.3.5 2.4-.1 4.7-.3 7 0 .4 0 .8-.1 1.1-.9 2.2-1.5 4.5-2.2 6.7-.5 1.7-.9 3.4-1.3 5.1v.6c.6 2.3.2 4.7-.3 7-.3 1.3-.5 2.6-.9 3.9-.2.7-.4 1.3-.8 1.9-.9 1.5-1.3 3.2-2.5 4.6-1.7 1.9-3.4 3.7-6 4.1-.5.1-1.1 0-1.7 0-.8-.1-1.5-.1-2.3-.4-.8-.2-1.5-.6-2.4-1-.1.8-.3 1.4-.3 2.1-.1 1.6-.3 3.2-.1 4.8.2 1.4-.7 2.7 0 4-.5 2.1 0 4.3-.6 6.4-.1.3 0 .6-.1.9-.1 1-.2 2.1-.3 3.1-.1.5-.1 1-.1 1.5 0 .6 0 1.2-.1 1.8 0 .5-.3 1.1-.2 1.5.1.7.1 1.4-.1 2.1-.1.6.1 1.3.1 1.9 0 1.7-.1 3.3-.1 5v3.5c0 .4-.1.8-.2 1.1-.2 2-.5 3.9-.5 5.9 0 1.5-.5 3-.7 4.5-.1.7-.3 1.3-.4 1.9-.2 1.7-1.5 2.9-2.1 4.5-.1.2-.4.5-.3.6.5 1.5-.8 1.6-1.6 1.9-.9.3-1.9.3-2.9.4l-3 .3h-1c-1.4-.1-2.8-.1-4.2.1-1.2.2-2.6.3-3.8.1-2.1-.4-4.2-.1-6.2-.3-.4 0-.8-.2-1.3-.2-1.3 0-1.8-.7-1.6-1.9-.5-.2-1-.3-1.4-.5-1.3-.4-2.2-1.6-2.1-3 .1-1.7.3-3.3.4-5 0-.2.1-.4.1-.5.3-.6.6-1.2.8-1.8.6-2.7 2.6-3.7 4.9-4.5l1.8-.6c.2-.7.3-1.4-.1-2.1-.2-.3-.1-.6-.2-1-.1-.8-.1-1.5-.2-2.3 0-.3-.1-.7-.1-1 0-.7.2-1.4.2-2.1-.2-1.8.2-3.7.2-5.5.1-2.4.2-4.8-.2-7.2-.2-1.4-.1-2.9-.1-4.4s-.1-3-.2-4.4c-.1-1.5-.3-3.1-.5-4.6 0-.4-.1-.9-.3-1.2-.4-1-.8-2-.3-3.2.1-.1 0-.4-.1-.5-.1-.2-.3-.4-.3-.6.2-1.9-.6-3.8-.5-5.7-.6-.1-1.2-.2-1.9-.4-.2.3-.3.7-.5 1.1-.8 1.5-1.7 2.9-2.5 4.4-.4.8-.9 1.5-1.5 2.2-.9 1-1.5 2.3-2.2 3.4-.1.2-.1.5-.2.6-1 1.3-1.7 2.8-2.4 4.3-.4.8-1.1 1.6-1.6 2.3-.4.5-1 .9-.7 1.7.1.2-.1.6-.2.8-.8.9-.7 2-.8 3-.1 1.5-.2 2.9-.3 4.4-.1 1.6 0 3.2-.1 4.8-.1 1.4-.2 2.7-.3 4.1 0 .4-.1.7-.1 1.1 0 1 .2 2-.3 2.9-.2.3-.1.8-.1 1.1.1 1 .2 2-.5 2.9-.1.2 0 .5 0 .8v2.9c0 1.1-.1 2.2-.1 3.3 0 .2.1.4 0 .6-1.1 2.4-1.3 5.1-1.9 7.6-.1.5-.3.9-.5 1.4-1.5-.6-2.7.2-4.1.6-.5 1.7-2 1.4-3.3 1.5-2.5.2-5.1.3-7.7.5-.8.1-1.5.2-2.2-.2-.4-.2-.9-.1-1.3-.1-1.1.1-2.3.2-3.4.2s-2.2-.2-3.3-.3c-.5 0-.9-.1-1.4 0-1.3.3-1.9-.1-2-1.3v-.7c-2.7-.8-3.1-1.4-3-4.2.1-1.6.1-3.2.8-4.8.8-1.8 2-3.2 3.4-4.5 1.3-1.2 2.8-1.7 4.3-2.4.7-.3 1.6-.1 2.3-.1.5-.6.9-1.2 1.4-1.8-.5-.6-.6-1.6-.8-2.5-.3-2.3.2-4.5-.2-6.8-.3-1.4.1-2.9.1-4.4v-6.6c.1-3 .2-6 .3-9.1.1-2.4 0-4.8.2-7.1.1-1.5.6-3 .9-4.4.2-1.1.6-2.1.8-3.2.6-2.2 1.3-4.3 2.3-6.4s1.8-4.4 2.6-6.6c0-.1.1-.2.1-.3.9-1.5 1.8-2.9 2.6-4.4.6-1.1 1.2-2.3 1.8-3.4.2-.4.5-.8.7-1.2.4-1 1-2.1 1.2-3.2.1-.7-.2-1.6-.4-2.4-.5-2-.3-4-.4-6 0-.4-.1-.8-.1-1.1.1-2.1.1-4.3.2-6.4 0-.1.1-.3.1-.4v-2.7c-.6.4-1.2.8-1.9 1.2-.6.4-1.1.7-1.7 1.1-.5.4-.9.5-1.6.3-.6-.2-1.3-.2-1.9 0-1.4.3-2.7-.1-4-.4-3.8-.7-7.2-2.6-11-3.7-1.6-.5-3.1-1.1-4.6-1.8-1.6-.7-3-1.7-4.6-2.3-2.1-.9-4-2.2-5.9-3.5-.9-.6-1.7-.6-2.7-.5-1.3.1-2.7.3-4 .4-.8.1-1.4-.2-1.8-1.1-.1.7-.3 1.4-.3 2 0 1.3.4 2.5-.3 3.8.3 2.2-.5 4.4-.5 6.6 0 1.6.2 3.3-.6 4.9-.2.4-.1.9-.1 1.3l-.3 4.8c-.1 2.6-.2 5.2-.4 7.7-.1 1.4-.2 2.8-.4 4.3v.8c0 .4.1.8 0 1.1l-.6 4.8c-.1.8.1 1.6 0 2.4-.2 1.4-.1 2.9-.7 4.3-.1.1.1.4.1.6.1.5.2 1 .2 1.4 0 .9-.3 1.8-.2 2.6.2 1 0 1.8-.3 2.6-.3 1.1-.3 2.1-.4 3.2-.1 2.3-.3 4.5-.4 6.8 0 .6-.1 1.3 0 1.9.3 1.4-.4 2.3-1.2 3.3-.9 1.1-3 .5-3.4-1-.6-2.1-.8-4.1-.5-6.2.1-.7.4-1.4.5-2.1.2-1.7.4-3.3.6-5 .1-.9.3-1.7.4-2.6 0-.2 0-.5-.1-.7-.3-.8-.4-1.6 0-2.4.1-.1.1-.3.1-.4-.5-1.9.1-3.7.1-5.6 0-.7-.1-1.4 0-2.1.2-2.4.4-4.8.7-7.2.1-.8-.2-1.6.2-2.4.2-.4.2-1.1 0-1.5-.5-.8-.2-1.6 0-2.3.2-1.7.6-3.4.2-5.2-.2-.8.2-1.7.3-2.5.1-.6 0-1.2 0-1.8 0-.8 0-1.6.1-2.4.3-1.5.1-2.9.2-4.4 0-.9.2-1.6.7-2.2-.8-1.2-.2-2.4-.3-3.6-.2-2 .3-3.9.5-5.9.1-.7-.1-1.5-.2-2.3-1.1-.7-1.7-1.6-1.9-2.9-.1-.9-.6-1.8-.2-2.8.1-.2 0-.6-.1-.8-.4-1-.2-1.9.1-2.8.2-.8.5-1.7.3-2.5 0-.2-.1-.5 0-.7.4-2.1.8-4.2 1.4-6.3.4-1.5 1.2-2.2 2.7-2.6 0-1.9.7-3.7.3-5.7-.3-1.4 0-2.8 0-4.2V46l.3-9c0-.8.1-1.6.1-2.4.1-1.7.3-3.4-.1-5.1 0-.1-.1-.2 0-.3.5-1 .4-2.1.4-3.3q0-2.4.3-4.8c0-.6.2-1.2.2-1.8v-3.1c.7-1.5.6-3 .6-4.6 0-2.8.5-5.6 1.1-8.3.2-1.1.9-1.7 1.9-2 1.6-.5 2.6 1 2.6 2.2 0 .8-.1 1.5-.2 2.3 1.2.2 2.4.5 3.7.7.2-.8.2-1.6.3-2.4.2-1.4-.2-3.2 1.3-4.2.4-.2.9-.5 1.3-.4 2 .4 4.1.2 6.1.3 2.4.1 4.8.1 7.2.1 1 0 2 .1 3 .1 2.1 0 4.3-.1 6.4.1 1.3.1 2.6.1 4-.1 1.3-.1 2.6-.1 4-.2.9-.1 1.7-.2 2.5.2.1.1.3 0 .4 0 2.7-.1 5.4-.1 8.1-.2 1.3 0 2.6-.2 3.8-.2 1.4 0 2.8.2 4.1.2.3 0 .6-.1.9-.2h.6c1 1.2 1.6 2.5.9 4-.1.2-.1.5 0 .7.4 1.5 0 2.7-1 3.9-1.3 1.5-2.2 3.3-3.3 5-.8 1.4-1.6 2.9-2.3 4.4-.7 1.7-1.4 3.5-1.9 5.3-.5 1.9-.9 3.9-1.3 5.8-.3 1.5-1.1 3-.7 4.6.1.3-.2.6-.3.8-.8-.7-1.7-1.3-2.5-2-1.3-1.2-2.6-2.5-3.9-3.7-1.1-.9-2.3-1.6-3.4-2.4-1.1-.7-2.1-1.5-3.2-2.3-.7-.5-1.3-1.1-2.1-1.8.4-.8.9-1.5 1.7-2.1 2.3-1.7 4.5-3.4 6.7-5.1 1.1-.8 2-1.8 3.1-2.7.6-.5 1.3-1.1 2-1.5.5-.3.8-.6.8-1.1-.1-1.2-.1-2.5-.4-3.7-.1-.6-.8-1.1-1.5-1-2.5.4-4.9.4-7.4.4-.6 0-1.3.2-2.1.4-1 1.2-.4 2.6-.3 3.9.8.3.9.3 3.1-.5.1.2.3.4.4.6-.1.2-.1.3-.1.3-.8.5-1.3 1.4-2.4 1.4-.1 0-.3.2-.4.4-.4.6-.7 1.1-1.5 1-.1 0-.3.2-.5.3-.9.8-2 1.4-3.1 1.9-1.1.4-2.1 1.3-3.1 2-1.3.9-2.5 1.9-3.7 2.8-1.3 1.1-1.1 2.3.4 3.2 1.9 1.1 3.6 2.6 5.2 4.2.9.9 1.7 1.8 2.9 2.2.3.1.5.4.8.6.1.1.1.2.1.2 1.6 1 2.9 2.6 4.9 2.9.4.1.8.3 1.2.5.1.3.1.6.2.9h1.5l.6 1.5c-.9 1-1.8.3-2.6 0-1.1-.4-2.1-1-3.2-1.5-.5.3-.9.6-1.3.9-.1.9-.1 1.7-.2 2.5 0 1.1.9 1.9 2.1 1.7 1.8-.3 3.6 0 5.3-.1 1.4-.1 2.7-.2 4.1-.2.5 0 .9.1 1.5.2.2 1.3.4 2.6.5 3.9 0 .3-.2.7-.5.8-1.1.7-2.2 1.6-3.5 2-.9.3-2 0-3-.2-.7-.1-1.3-.3-1.9 0-.4.1-1 .3-1.4.1-1.8-.5-3.7.1-5.5-.5-.3-.1-.7.1-1 .1-.8 0-1.7-.1-2.5-.3-.7 0-1.5 0-2.2-.1-1.1-.1-2.2-.4-3.2-.3-1.7.2-3.4-.3-5.1-.4-2.6-.2-5.3-.5-7.9-.7-1.8-.1-3.5-.5-5.3-.7-.3 0-.7 0-.9.1-.4.2-.7.4-1.1.6-1.5-.4-1.9-1.1-1.6-2.6.1-.7.1-1.4.2-2.1-.6-.2-1.1-.6-1.7-.1-.4.3-1 .3-1.4.4-.2 2.3-.3 4.7-.5 7 0 .6-.2 1.1-.3 1.7 0 .3-.1.6 0 .8 0 .7.2 1.4 0 2-.3 1-.1 1.9.2 2.9.5-.1 1-.1 1.6-.2 1.3.8 2.6 1.5 3.8 2.4 1.7 1.2 2.6 2.9 3.2 5.1 1.2.9 3.2.7 4 2.4 1.9-.1 3.7-.3 5.6 0 1.4.2 2.9.2 4.3.1.6 0 1.2.1 1.8.2.8.1 1.6.2 2.4.2 1.8.1 3.5.5 5.2 1 .9.3 1.9.5 2.9.7.5-1 .8-1.9 1.2-2.7.1-.2.1-.4.2-.5 1.7-1.4 2.4-3.6 3.9-5.2 1.6-1.8 2.8-4 4.9-5.3 1.2-1.9 3.4-2.2 5.1-3.4 0-.3-.2-.7-.1-1 .1-.4.3-.8.6-1 .4-.3 1-.5 1.5-.7.7-.3 1.1-1.2 1-2-.2-1.7-.3-3.5-.4-5.2-.1-1.5.6-3-.1-4.4.7-1.6-.2-3.3.5-4.9.3-.6.2-1.3.3-2 .4-2.9 1.3-5.8 2.4-8.5.9-2.3 2.2-4.4 4.2-6 1.5-1.2 3.1-2.1 4.7-3.1.5-.3 1.1-.5 1.7-.7 1-.4 1.9-1 2.9-1.2 1.6-.2 3-.4 4.5-1.1 1.1-.5 2.4-.2 3.6-.4 1.8-.2 3.6.2 5.3.3.9.1 1.8.5 2.6.9 1.8.9 3.5 2.1 5 3.5.2.2.4.4.7.5 1.8.8 2.8 2.5 4.2 3.8.4.4.7.8 1.1.9 1.4.2 2.7.6 4.1.4s2.6.5 4.1.5c-.1-.7-.2-1.3-.2-2-.1-1.5-.2-3-.2-4.5 0-1.4-.1-2.8-.4-4.2-.2-1 .3-1.8 1-2.4.8-.6 1.7-.3 2.5-.1.6.2.9.8.9 1.5s0 1.3.2 2.2c-.4.3-.9.6-1.2.8-.1.8-.1 1.5-.1 2.2 0 .8 0 1.7.2 2.4s.3 1.3.2 2.1.1 1.7.2 2.6c1.4.1 2.5.2 3.7.2 2.2-.2 4.4-.1 6.6.8.9.4 1.9.6 2.9.9.5.2 1 .5 1.5.8-.1.1-.2.1-.3.2.4 1.1.7 2.2 1.1 3.4-.2.3-.5.6-1 1.1.3.6.6 1.2.8 1.8.1.4.2 1 0 1.1-.6.5-.4 1.1-.7 1.6 1.4 1.2 1.4 1.7-.1 2.4-.1.5-.2 1.1-.3 1.9.8-.2 1.4-.1 1.5.7.1.9-.6.9-1.2 1-.1.6-.3 1.1-.4 1.6.5.1 1.1.1 1.5.4.2.2 0 .8-.1 1.4-.6-.1-1-.2-1.4-.2-.1.2-.2.3-.2.4 0 .8.1 1.7-.3 2.5-.2.4.2 1.1.4 1.9-.1.4-.4 1-.4 1.7 0 .6.2 1.2.3 2-.3 1-1 2.1 0 3.3.1.2.1.7 0 .8-.8.5-.6 1.3-.6 2.2.8.2 1 .8.6 1.6q-.3.15-.9.3c.1.6.1 1.3.2 1.9.3 0 .6 0 .8.1.3 1.1.3 1.1-.8 1.4-.2.9-.4 1.8-.5 2.7 0 .2.1.4.2.6zM137 36.3c.1.5.1 1 .2 1.8-.8-.4-1.4-.6-2.1-.9.4-.9.9-1.1 1.9-.9"/><path d="M135.5 42.1c-.5.5-.9.9-1.4 1.5-.2-.4-.4-.8-.6-1.1 1-1.1 1.2-1.1 2.1-.4M132.3 62.8l.7-1.4c.5.5.8.8 1.2 1.1-.4.4-.7.7-1.1 1l-.8-.8M135.6 50c-.3.2-.7.4-1 .7-.8-.7-.8-.7-.2-1.8.4.2.8.5 1.2.7zM133.8 57.2l.7-1.4c.4.3.7.6 1.1.9-.8 1.1-.8 1.1-1.7.5M133.8 72.4c.1.5.1.9.2 1.4-.4.2-.7.3-.9.4-.8-1-.7-1.3.8-1.8M133.6 68.5c.1.8.1 1.4.2 1.9-.8.3-1.2 0-1.4-.5-.2-.7.4-.9 1.2-1.4M133.4 46.3c.5-.7 1.1-.9 1.9-.5-.3 1.4-.8 1.6-1.9.5M134.2 66c-.3.2-.4.4-.6.4-.3.1-.7 0-1 0 0-.3-.1-.7 0-.8.3-.2.7-.3 1.1-.3.1 0 .3.3.5.7M135.1 25.8c.3-.1.6-.2 1-.3.1.3.4.6.4.9 0 .2-.4.5-.7.5-.6.1-.8-.3-.7-1.1M135.3 60.1c.1.8.2 1.3-.7 1.5-.2-.4-.5-.8-.9-1.3.6 0 1-.1 1.6-.1M134.6 52.5c.4.5 1 .9.4 1.3-.2.2-.8-.1-1.2-.2 0-.1-.1-.2-.1-.4.3-.2.5-.5.9-.8M136.1 29c.2.5.3 1 .5 1.7-.8-.1-1.2-.2-1.3-.9-.1-.4 0-.7.8-.8M98.9 65.8c-1.2 1-2.4.7-3.6.4-1.1-.2-2.3-.4-3.5-.4-1.6-.1-3.3.2-4.8-.1s-3 0-4.5-.2c-1.2-.2-2.5-.1-3.7-.4-1.6-.4-3.1-.4-4.9-.1.2 1.3-.4 2.6.2 4 .2.4.1.8.1 1.3-.1 1-.3 2.1-.3 3.1 0 2.2.1 4.4.1 6.5 0 .7-.1 1.3-.1 2v1.8c-.1 1.3-.2 2.6-.3 4.1h3c1 0 2-.1 2.9.2 1.4.5 2.9.5 4.3.6.5 0 1 0 1.4.1.9.3 1.8 1 2.8.3 1.3.3 2.7.5 4.1.2 1.9.9 3.9-.2 5.9.4.1-1 0-1.8.2-2.7.5-2.6-.3-5.3.4-8 .2-.9.3-2 .3-3-.1-2.1-.1-4.1.1-6.1.1-1 0-2 0-3 0-.4-.1-.7-.1-1.3zM74.6 91c-.4 0-.7 0-1-.1-.4-.1-.9-.2-1-.4-.5-1.1-1.6-1.8-1.6-3.2 0-1.6-.3-3.2-.1-4.7.4-2.4.2-4.8.3-7.2.2-2.8.1-5.6.2-8.4 0-.7-.4-1.4-.1-2.2.4-1.5 1.3-2.4 2.8-2.6l1.8-.3c.3 0 .6-.1.8 0 1.8.8 3.6.5 5.4.6 2.3.2 4.7.4 7 .4 2.2 0 4.3.6 6.5.6 1.1 0 2.3.1 3.3-.5.6-.4 1.3-.1 1.6.5l1.5 3c.1.2.2.4.2.5 0 1.2-.1 2.5-.1 3.7 0 .4-.1.9-.1 1.3.4 3-.2 5.9-.6 8.8-.1 1.1-.1 2.3 0 3.4.1 1.2.1 2.4-.1 3.6-.2 1-.1 2.2-.2 3.2-.1.9-.4 1.7-1.3 2s-1.8.4-2.8.5c-1.6.1-3.2.3-4.7.1-1.3-.2-2.6-.2-3.9-.3-2.2-.2-4.4-.4-6.7-.5-1.8-.1-3.6-.4-5.4-.3-1.1.1-1.6-.7-2-1.6zM117.8 87.5c.3.5.6 1 .9 1.4-1 .7-1.6.7-1.9.1-.4-.8.3-1.1 1-1.5M63.3 102.2c.2 1.1 0 1.6-.6 1.6-.5 0-1.1-.5-1-.9.2-1 1-.6 1.7-.7M63.9 78.5c.9.9 1 1.3.5 1.7-.4.4-.9.3-1.3-.1s-.2-.8.7-1.6M65.6 67.7c-.8.1-1.1-.1-1.1-.7-.1-.7.3-1.1.9-1.3.7.6.6 1.3.2 2M61.5 80.7c.6-.1 1.1-.2 1.4.4.1.3-.1.7-.3 1-.2.2-.7.2-.9.1-.6-.4-.3-.9-.2-1.4M117.9 104.1c-.3-.4-.5-.9-1-1.5.7-.1 1.1-.2 1.6-.3.5.9.3 1.5-.6 1.9M64.6 82.4q.3 1.35-.6 1.5c-.2 0-.7-.2-.8-.4-.1-.3 0-.9.1-1 .3-.2.8-.1 1.2-.1M63 76.4c0-1 .2-1.4.8-1.4.5 0 .9.5.9.9-.1.6-.5.7-1.7.4M118.5 112.9c.6 1.1.6 1.1.1 2-.4-.3-.8-.5-1.4-.9.5-.4.9-.7 1.4-1.1M118.6 107.6c-.8-.1-1.2-.4-1.1-1.2.1-.4.4-.6.8-.5.6.2.7.6.2 1.7M114.8 77.7c-.7 1.2-1 1.2-1.9.2.6-.9.6-.9 1.9-.2M63.6 87.8c-.1-.5-.3-.9-.2-1.2s.4-.5.7-.6c.2 0 .6.2.6.4.1.3 0 .7-.2.9-.1.2-.5.3-.9.5M61.4 78.4c-.1-1-.1-1 .4-1.7.5.3 1.1.5.8 1.2-.2.6-.7.7-1.3.4M62.9 98.5c.2.4.3.8.6 1.4-.5.2-.9.3-1.4.5-.4-.9-.3-1.5.8-1.9M116.9 99.5c.6-.4.9-.7 1.3-1 .4.5 1 .9.4 1.5-.5.5-1 .1-1.7-.5M66.2 63.1c-.4.5-.7.9-1 1.2-.8-.5-1-1-.5-1.8.5.2.9.3 1.5.6M118.9 111c-.5 0-.9-.1-1.4-.1.1-.8.3-1.5 1.4-1.3zM68.3 60.2c-.1-.5-.1-.9-.2-1.3.7-.3 1.3-.3 1.4.5.1.7-.4.9-1.2.8M60.1 105.3c0-.3 0-.7.1-1 1.2-.3 1.2-.3 1.5.8-.5.3-1 .7-1.6.1M67.7 63.9c.1.8.1 1.1.2 1.5-.4.1-.8.3-1.3.4-.1-.3-.2-.5-.4-.9.4-.3.8-.6 1.5-1M63.7 91.4c-.2-.7-.3-1.1-.4-1.8.7.1 1.2.2 1.7.3 0 .1.1.2.1.4-.4.3-.8.7-1.3 1.2M63.1 96.1c-1.5.2-1.5.1-1.4-1 1.3-.1 1.3-.1 1.4 1M60 101.7c.1-.5.1-.8.2-1.2.8-.1 1.3.2 1.2.8-.1.7-.7.6-1.4.4M116.2 79.9c-.5.2-.9.4-1.3.5-.3-1.1-.3-1.1.8-1.6.2.3.3.6.5 1.1M65.8 69.9c.1.6.2 1.2-.6 1.3-.2 0-.6-.4-.6-.6 0-.7.5-.9 1.2-.7M116.8 96.1c.5-.7.8-1.3 1.5-1 .3.1.4.6.7 1.1-.8-.1-1.4-.1-2.2-.1M62 85.7c-.1-.5-.3-.8-.4-1.2.5-.5.9-.7 1.2-.1s.1 1.1-.9 1.3M66.8 62.3l-.3-1.5c.6-.3.9-.3 1.2.2.2.5 0 .8-.8 1.3M65.7 77c.5.5 1 .9.1 1.5-1.1-.7-1.1-.9-.1-1.5M59.9 94.3c0-.2 0-.5.1-.8.3 0 .6-.1 1-.2.1.5.7.9-.1 1.5-.3-.2-.6-.4-1-.6M64.7 73.7c.6-.4 1.1-.4 1.4.1.1.2 0 .6-.1.7-.2.2-.7.3-.8.2-.2-.2-.3-.7-.4-1M67.8 55.2c.7.1 1.1.1 1.4.2.1.9-.5 1-1 1.6-.1-.6-.3-1-.4-1.7M54.2 122.8c.4.1.8.1 1.1.3s.8.5.8.8c0 .4-.4.7-.6 1.1-1.2-.4-1.3-1.3-1.3-2.1M86.6 139c-.4-.6-.6-1.1-.3-1.6.2-.3.6-.5 1-.7.1 0 .5.2.5.4 0 .4 0 .8-.2 1.2-.2.3-.6.5-1 .8M49.1 157.7c-.5-.3-1.3-.3-1.2-1.1.1-.3.5-.7.9-.8.2-.1.7.2.9.5.4.6 0 1-.6 1.4M51.7 156.1c-.8-.3-1.6-.2-1.9-1.2.1-.2.3-.5.6-.8.5.3.9.5 1.4.8v1.2M47 161c1.2.9 1.2.9.5 2-.6 0-1-.4-1-1 0-.3.3-.7.5-1M88.8 134.5c.3.5.6.9.9 1.3-.4.5-.9.9-1.4.5-.6-.5-.3-1.1.5-1.7M55.5 132.4c-.4-.4-.7-.6-1.2-1 .5-.4.8-.7 1.2-1 .8.7.6 1.2 0 2M52 132.2c-.8-.6-1-.9-.7-1.4.3-.4.7-.4 1.1 0 .5.5.4.7-.4 1.4M47.5 168.4c.8.8.9 1.2.5 1.5-.4.4-.9.2-1.6-.8.4-.3.7-.5 1.1-.8M50 158.6c.3-.4.6-.8.9-1.1.7.5.9 1.2.4 1.6-.5.5-.9.2-1.3-.5M54.7 128.3v-1.4c.6.1 1 .1 1.3.2.1 1.3 0 1.3-1.4 1.2M56.4 121.6c.6-.2 1.2-.5 1.4.4.1.6-.2 1-.6 1-.6 0-.8-.3-.7-1.4M48.3 167.5c.2-.7.5-.9 1-.7.2.1.5.4.5.7 0 .2-.2.6-.4.6-.6.3-.9-.3-1.2-.6M56.3 126.2c0-.4 0-.7.1-1.1.6.1 1.1.2 1.7.2-.2.5-.3.7-.4 1-.4 0-.8-.1-1.4-.1M88.6 171c-.2-.6-.3-.9-.4-1.4.6-.1 1.1-.1 1.5-.1.5 1.1-.3 1.1-1.1 1.5M48 163.8c.7-.3 1.1-.4 1.5-.6.5.5.7 1-.1 1.6-.4-.3-.8-.5-1.4-1M89.9 166l-1.1 1.1c-.5-.4-.9-.7-.5-1.2s.9-.3 1.7.1M88.5 172.9c.7.2 1 .3 1.5.4-.5.5-.6 1.4-1.6.9 0-.4.1-.8.1-1.3M47.8 160.3c.7-.4 1-.6 1.3-.9.2.2.5.4.4.6-.1.3-.3.9-.4.9-.3 0-.7-.3-1.3-.6M89.9 139.4c-.6.3-.9.6-1.2.5s-.4-.5-.7-.7c.3-.2.5-.6.8-.6.2 0 .5.4 1 .8M54.5 129.6c-.2.6-.6.8-1 .5-.7-.4-.3-1-.1-1.5.8-.1.8.6 1.1 1M53.2 133.7c-.4-.7-.3-1.1.3-1.3.2-.1.7.2.8.4.1.7-.4.8-1.1 1M48.5 171.4c.1-.7.4-1.1 1-.9.4.1.6.7.3 1-.2.3-.5.3-1.4-.2M47.4 164.8c.7.4.5 1 .3 1.6-.5.1-.9 0-1-.5s.1-.9.7-1.1M79.3 42c-.2-.6-.5-1.1-.4-1.5.3-1.2.2-2.4.2-3.5 0-2.6-.2-5.2.2-7.8.2-1 .3-2.1.5-3.1.2-1.3.5-2.5.7-3.8.1-.3 0-.6-.1-1-1.5.6-2.8.9-3.7 2.2-.5.8-.4 1.5-.5 2.3-.4 2.9-.5 5.7-.5 8.6 0 2.4.3 4.7.9 7 .9-.2 1.3 1.7 2.5.6zm-9.1-10.6c.1-.2.3-.4.3-.6.1-1.2.3-2.4.3-3.5 0-1.4.1-2.7.7-4 .1-.2 0-.4 0-.4-.6-.4-1.1-.6-1.4-1-.1-.1.3-.8.6-1 .2-.1.7.1 1.2.3 0-.5.1-1 .1-1.7.5-.6 1.1-.3 1.7 0 1.4-.9 2.8-1.5 4.4-2 1.1-.3 2.2-.7 3.3-1 .6-.2 1.3-.2 2-.3.9-.2 1.9-.3 2.8-.5.2 0 .4-.1.6-.1 1.3.1 2.7.3 4 .4 2.1.2 4.2.3 6.2.9.6.2 1.3.3 1.9.3 1.5.2 2.4 1.3 3.5 1.9.7.4 1.4.7 2 1 1.3.7 2.3 1.5 2.2 3.2 0 1.2.2 2.3.4 3.5v.7c0 .8-.2 1.7 0 2.5.4 1.7 0 3.3.1 5 .1 2.1-.3 4.2-.4 6.3-.1 1.2-.4 2.4-.7 3.5-.2.8-.6 1.5-1.6 1.6-.4 0-.7.4-1 .7-.4.3-.7.8-1.1.8-1 .1-1.7.7-2.5 1.2-.6.4-1.2.5-1.8.7-2 .6-3.9 1.1-5.9 1.3-1.2.1-2.5-.1-3.7-.2-1.3-.1-2.6-.3-3.9-.5-.9-.1-1.7-.4-2.6-.6-2.8-.6-5-2.4-7.7-3.1-.5-.1-.8-.3-1.1-.8-.3-.4-.8-.6-1.4-1 .1-.3.2-.7.4-1.3-.2-.1-.4-.2-.7-.4-.1-.5-.2-1.1-.3-2-.3.5-.5.7-.6.9-.5-.2-.9-.3-1.4-.5.3-1 1.1-1 1.9-.8-.1-.7-.2-1.3-.3-2-.4-.2-.9-.4-1.3-.6-.1-1.1-.1-1.1 1.2-1.4-.1-.5-.2-1.1-.3-1.6-.4-.3-.9-.6-1.6-1 .7-.3 1.1-.5 1.6-.8 0-.7.1-1.4.1-2.2zM69.6 44.2c.5.2 1.2.1 1.2 1.1-.7.2-1.5.5-2.3.7-.3-.8-.3-.8 1.1-1.9M75.3 50.6c-.4.4-.7.8-1 .9-.4.1-.8-.5-.7-1s.3-.9.8-.8c.3.1.5.5.9.9"/><path d="M70.3 31.4c-.5 0-1-.1-1.7-.1.3-.6.4-1.1.6-1.5 1.1.5 1.1.5 1.1 1.7M72.6 49.7c-.9-.6-.9-.6-.4-1.8.3.1.7.2.9.4.3.5 0 1-.5 1.4M68.4 27.3c.4-.4.7-.7 1.1-1 1.2.7 1.2.7.2 1.7-.4-.2-.8-.4-1.3-.7M75.5 51.8c1-.2 1.4 0 1.4.6 0 .3-.4.7-.6.7-.6.2-.7-.2-.8-1.4M76.5 16.9c-.6-.3-1.2-.5-.7-1.2.2-.2.9-.4 1.1-.2.6.5.1.9-.4 1.3M82.6 53.9c-1 1-1 1-1.8.3.3-.3.5-.6.9-1 .4.3.7.5 1 .7M78.4 13c.3.5.6.8.6 1.1.1.5-.3.9-.8.7-.3-.1-.6-.5-.6-.8s.4-.5.7-1M80.9 52.5c-.7.3-1.1.4-1.8.7 0-.5-.1-.9.1-1.2.2-.4.4-.3 1.8.5M75.6 17.8c-.5.3-.7.7-1 .7-.2 0-.5-.4-.7-.6.3-.2.5-.5.8-.6.2 0 .5.3.9.5M30.1 78.9c.7.6 1.3 1.2 2.1 2 0 .1.1.4.1.6-.1.2-.3.6-.5.6-.3.1-.8 0-.9-.2-.4-.7-.8-1.2-1.5-1.6-.5-.3-.3-1 .6-1.5M34.6 79.2c-.6 1.1-1 1.3-1.6 1-.5-.2-.6-.6-.2-1.6.7-.3 1.3-.1 1.8.5M50.7 81.7c-1.5.1-1.5.1-1.9-1 .4-.5.9-.7 1.5-.4s.6.9.4 1.4M53.9 71.4c1.6-.7 1.6-.7 2.1.4-.5.4-.9 1-1.7.7-.2-.1-.3-.7-.4-1.1M39.5 74.7c-.6.3-1.1.5-1.5-.1-.2-.3 0-.9.1-1.3 0-.1.5-.3.7-.2.7.3.9.8.6 1.6M39.4 82.1c-.7.2-1.2 0-1.3-.7-.1-.3.1-.7.3-.8.3-.1.8-.2 1 0 .6.4.4 1 0 1.5M53.7 76.2c.6 1.1.6 1.1-.3 1.9-.4-.2-1.1-.2-1-.9.1-.5.4-1.1 1.2-1M54.4 70.5c-.9.1-1.4.1-1.8.2-.5-1-.2-1.5.8-1.8.3.4.6.8 1.1 1.6M38.4 72.4c-.8.3-1.2.5-1.7.7-.3-.4-.5-.8-.8-1.3.5-.2.9-.3 1.5-.6.2.3.5.6 1 1.2M46.6 85.9c-.5-.4-.9-.9-1.4-1.3 1.1-.9 1.1-.9 2 .1-.2.4-.5.8-.7 1.3M28.9 77c.1-.8.2-1.3.4-1.9.6.2.9.3 1.3.4 0 .4-.1.9-.1 1.4-.4 0-.8 0-1.6.1M50.7 78.4c.9 0 1.7-.2 1.9.8-.5.7-1.2.8-2 .5 0-.4.1-.8.1-1.3M46.6 73c.3.6.5 1.1-.1 1.5s-1.1.1-1.5-.4c0-1 .8-1 1.6-1.1M52.4 73c.6-.1 1.3-.5 1.5.4.1.5-.1.9-.7 1-.7.1-.9-.2-.9-1.5M52.6 82.5c-.5.5-.8.8-1.2 1.3-.5-.6-1.1-1.1-.6-1.8.6-.7 1 0 1.8.5M55.7 59.9c-.3-.7-.5-1.2.1-1.6.2-.1.7 0 .9.2s.5.7.4.9c-.2.7-.9.2-1.4.4M27.6 79c0-.7-.8-1.4.3-2 .4.4.7.8 1.3 1.3-.5.4-.9.7-1.3.9-.1-.1-.2-.1-.3-.2M55.4 80.1c-1-.3-1.2-.9-1-1.5.1-.2.5-.6.7-.5.3.1.7.5.7.7 0 .4-.2.9-.4 1.3M31.6 78.8c-.7-.8-.8-1.3-.4-1.6s.8-.2 1.1.2c.4.5.2.9-.8 1.5M34.5 78.3c-.4-.5-.4-1 .2-1.3.5-.3 1 .1 1.4 1-.4.7-1 .4-1.6.3M32.4 83c.5-.3.9-.5 1.3-.6.2 0 .5.3.6.5.2.6-.3.9-.9 1.3-.3-.3-.6-.7-1-1.2M43.8 78.5c1.2.1 1.4.3 1.3 1-.1.5-.5.8-1 .7-.6-.1-.6-.5-.3-1.7M37.8 76.2c-.3.2-.6.4-1.1.8-.3-.5-.5-.9-.7-1.2 1.1-1 1.2-.9 1.8.5M41 74.7c.7.8.4 1.4-.2 2-.5 0-1-.2-1-.8 0-.7.5-1 1.1-1.3M49 72.8c1.2.2 1.6.5 1.4 1-.1.3-.6.6-.9.7-.5.1-.7-.4-.5-1.7M48 78.2c.3.5.6 1 .8 1.4-.6.6-1.1.7-1.5.1s-.2-1.1.7-1.5M40.8 81.8c.4.5.7.8 1 1.2-1 1-1 1-1.9.1.3-.4.6-.8 1-1.3M55.6 66.5l.6-.6c.4-.3.8-.4 1.1 0 .1.2.2.5.1.7-.2.5-.6.7-1.2.5-.2-.1-.4-.3-.7-.6M45.4 76.7c.6.1 1 .2 1.4.2.1 1.1 0 1.4-.7 1.4-1-.1-.7-.8-.7-1.6M51 71.1c.8.1 1 .4.9.9 0 .5-.3.9-.7.8-.3-.1-.7-.6-.7-.9s.4-.6.5-.8M37.7 80c-.5 0-.9-.1-1.3-.1-.1-1.4 0-1.4 1.4-1.2 0 .4-.1.8-.1 1.3M30 73.4c-1.1-.6-1.1-.8-.4-2 .3.2.7.4 1.1.6-.3.5-.5.9-.7 1.4M45.1 83.6c-1.3 0-1.3 0-1.4-1.3.3-.1.6-.3 1.2-.5.1.7.2 1.2.2 1.8M41.4 72.8c.7.3 1.2.6 1.7.8-.5 1.3-.5 1.3-1.7.5zM38.6 78.3c-.5-1.4-.4-1.6.9-1.5.4 1.2.4 1.2-.9 1.5M49.7 78.4c-.4-.5-.8-.8-1.1-1.2.8-.6 1.4-.7 2.2 0-.3.4-.6.7-1 1.2M43.1 84.1c.4.7.5 1.3-.3 1.5-.6.2-.8-.1-1-1.3.4-.1.8-.1 1.3-.2M47.5 73c-.2-.6-.3-1.1-.5-1.6.3-.2.6-.3.9-.5.3.4.6.8 1 1.2-.4.3-.8.5-1.4.8M55.8 65.1c-.7.1-1.1.2-1.6.3 0-.5-.1-.9-.1-1.3.3-.2.6-.3 1-.5.2.4.4.9.8 1.6M54.5 74.7c.6.2 1 .4 1.4.5 0 .7-.2 1.2-1 1.1-.7-.2-.6-.8-.4-1.6M43.3 75.8c.2-.4.5-.7.7-1.1.8.3 1.2.8 1 1.3-.4.8-1-.1-1.5.1-.1-.1-.1-.2-.2-.3M43.4 71.3c.5 0 .8 0 1.3-.1v1.4c-1.4.1-1.4.1-1.3-1.3M33.2 77c-.2-.4-.5-.8-.9-1.5.7-.1 1.2-.1 1.9-.2-.3.7-.5 1.2-.6 1.6-.1 0-.3 0-.4.1M39.3 69.8c.1.3.1.6.3 1-.4.1-.8.3-1.2.3-.2 0-.5-.5-.5-.7.2-.7.7-.8 1.4-.6M35.1 71.6c-.3-.6-.6-1.1-.8-1.5.4-.5.8-.7 1.2-.3.6.6.2 1.1-.4 1.8M54.7 69.2c-.3-.4-.6-.7-.9-1.1.6-.7 1.2-.5 2 0zM54 81.3c-.7.2-1.2.5-1.4-.3-.2-.5.3-.8 1.3-1 0 .4.1.8.2 1.3M41.4 79c.1 1-.5 1.1-1.4 1 0-.4-.1-.8.1-1.1.4-.6.9 0 1.3 0M47.9 76.5l-1-1 1.2-.9c.5.7.7 1.2-.1 1.9M32.2 74.8c-.6 0-1.1-.1-1.9-.1.6-.7.9-1.1 1.3-1.5.1 0 .2.1.4.1.1.4.1.9.3 1.5M41.7 71.2c0-.6-.1-1-.1-1.5.5 0 .9-.1 1.4-.1 0 .3.1.5.1.7-.1.7-.7.6-1.4.9M51.3 76.4c-.3-.2-.5-.4-.9-.7.4-.5.7-.9 1.1-1.4.7.9.4 1.4-.3 2.1M29.1 83.9c.1-1.1.7-1.2 1.4-1.3.1.3.2.6.4 1.1-.6.1-1.1.2-1.8.2M34 71.8c.1.7 0 1.3-.8 1.3-.2 0-.7-.5-.6-.7.1-.7.7-.7 1.4-.6M39.6 84.1c.3 1-.1 1.3-.9 1.7-.2-.4-.4-.7-.7-1.3.5-.2 1-.3 1.6-.5M44.7 87.5c-.4-.3-.7-.5-1-.7.1-.4.3-.7.4-1.1 1.3.2 1.4.4.6 1.7M43.7 88.6c-.8.7-1.2.7-1.8.1.1-.5.2-1.1.9-1 .3 0 .6.6.9.9M54.3 82.7c.3-.3.6-.6 1.2-1.1.2.7.2 1.2.3 1.5-.8.4-1.2.3-1.5-.5M59.8 56.2c-.2-.3-.4-.6-.7-.9.4-.4.8-.6 1.2-.9 1.1.8-.2 1.1-.1 1.7-.1.1-.3.1-.4.2M37.2 69.3c-.7.1-1.2 0-1.1-.8.1-.4.4-.7.8-.6.8.3.5.8.3 1.4M58.3 61.6c-.6-.3-.9-.6-.4-1.2.3-.4.6-.4 1-.2.4.3.2.8-.5 1.5M28.8 73.8c-.2.5-.3.8-.5 1.2-.4-.2-.8-.2-.9-.4-.3-.4-.2-.9.3-1.3.3.1.6.3 1.1.5M45.9 81.9l-.6-1.2 1.2-.6c.3.8.3 1.3-.6 1.8M54.3 61.8c-.1-.4-.2-.8-.3-1.5.6.1 1.1 0 1.3.2.4.7-.3.9-.5 1.3-.1 0-.3 0-.4-.1M37.6 82.3c.2.4.3.8.5 1.3-.8-.1-1.4-.2-2.1-.3.3-.8.9-.8 1.5-1M35.2 84c.5.4.8.7 1.4 1.1-.6.3-.9.4-1.2.6-.6-.4-.8-.8-.2-1.7M57.8 58.4c-.3-.6-.5-1-.5-1.3 0-.1.5-.5.5-.4.3.2.7.5.8.8.1.1-.4.5-.8 1M42.5 78.5c-.3-.4-.5-.7-.8-1 .3-.2.5-.5.8-.6.3 0 .6.2 1.1.3-.4.5-.7.8-1.1 1.2M42.9 82c-.5-.4-.8-.6-1.2-.9.2-.7.6-.9 1.1-.6.6.3.4.8.1 1.5M46.7 70c-.2.4-.4.7-.7 1-.1.1-.6-.1-.7-.3s-.1-.6 0-.7c.3-.5.8-.4 1.4.1M56.8 62c.5.5.7 1 0 1.5-1.1-.7-1.1-1 0-1.5M47.1 82.8c.7-.7 1.1-.3 1.8.1-.5.4-.9.6-1.3.9-.2-.4-.3-.7-.5-1M32.5 71c-.7 0-1.1-.1-1.5-.1-.2-.7.1-1.1.9-1.1q.15.45.6 1.2M127.1 43.7c-.7-.3-.9-.8-.8-1.4 0-.2.4-.5.6-.5.6 0 1.1.3 1.2 1.1-.3.2-.7.5-1 .8M128.1 39.2c-1 1.1-1.2 1.1-1.9-.3.9-1 1-1 1.9.3M126.5 48.6c-1.3.6-1.3.6-1.9-.4.3-.3.7-.6 1.2-1 .3.5.5.9.7 1.4M124.5 50.9c-.7-.1-1.2-.2-1.7-.3.3-1.2.3-1.2 1.7-1.1zM126.8 34.4c1 .6 1.3 1.2.9 1.5-.6.6-1.1.1-1.6-.4.2-.3.4-.7.7-1.1M127.4 28.8c-.4.1-.7.2-1.3.3 0-.4-.2-.9 0-1.1.1-.3.6-.6.8-.5.7.1.7.6.5 1.3M129 30.9c-.4-.2-.9-.4-1.3-.7.1-.7.2-1.1.9-1s.8.5.4 1.7M125 43.6c.4.1.7.3 1.1.4-.1.5-.1 1-.2 1.5-1.3-.7-1.4-.7-.9-1.9M123.3 53c.4 0 .9.1 1.3.1.1.8 0 1.4-.8 1.3s-.8-.7-.5-1.4M125 38.5c-.6-.7-.8-1.2-.3-2 .4.3.8.6 1.3.9-.4.4-.7.7-1 1.1M127.5 31.4c-.1.5-.1.8-.2 1.3-.6-.1-1-.2-1.5-.3.1-1.3 1-.8 1.7-1M126.2 60c-.6-.3-.9-.4-1.3-.5 0-.6.1-1.1.7-1.2.2 0 .7.2.7.3.1.4-.1.8-.1 1.4M126 41c-1 .9-1 .9-1.8.3.7-1.1.9-1.1 1.8-.3M123 47.1c.1-1.1.3-1.5.9-1.3.3.1.6.6.5.8-.1.8-.7.7-1.4.5M127.8 46.9c-.4 0-.8.1-1.2.1-.3-.7-.1-1.1.6-1.5.3.3.6.7.8 1-.1.1-.2.2-.2.4M127.4 24.6c-.2.4-.4.6-.6.9-1.2-.8-1.2-.9-.1-1.8.2.2.4.5.7.9M126.1 51.2c0 .4.1.7.1 1-.4.1-.8.2-1.3.4 0-.6.1-1 .1-1.5.4 0 .7 0 1.1.1M128.4 25.3c.4.4.6.6.8.9-.1.8-.7.8-1.7.1.3-.3.5-.6.9-.9M126.2 54.7c0 .6.1.9.1 1.5-.7-.2-1.2-.3-1.6-.4v-.4c.4-.2.9-.4 1.6-.6M50.5 139.9c.8 1 .8 1-.2 1.8-.3-.4-.5-.7-.8-1.2.3-.2.7-.4 1-.6M78.7 76.9c0-.5.1-1 .1-1.4 1.7-.3 3.2-.4 4.8 0 1.3.3 2.8.1 4.2.2.9.1 1.7.3 2.6.4.3.6.8 1.2 1.7 1.3-.5.1-1.1.4-1.6.4-1.1 0-2.2-.1-3.2-.2-.3 0-.6.1-.8.1l-2.7-.3c-.3 0-.6-.1-.8-.1-1.2 0-2.3 0-3.5-.1-.3 0-.5-.2-.8-.4M90.3 70c.8 0 1.5.6 1.8 1.3.2.7-.2 1.1-.7 1.4s-.9 1.1-1.7.6c-.5-.3-.6-1.1-.3-2.1.2-.6.4-1.2 1-1.2M86.8 69.8c-.1 1 0 1.9-.9 2.5-.5.3-1.1.3-1.4-.1-.3-.3-.5-.8-.5-1.2 0-.8.8-1.1 1.4-1.5s1 0 1.5.4M81.2 70.9c-.6.7-1.1 1.3-1.5 1.9-.8-.2-1.6-.4-1.6-1.2 0-.9.3-1.8 1.6-2 .4.4.9.8 1.5 1.4M144.6 131.9s-.1 0-.1.1c.1.1.1.2.2.3h.1c-.1-.1-.1-.2-.2-.3zm-4.2 4.8h.1c.1-.3.2-.7.4-1 .1-.2.1-.4.4-.6s.5-.5.3-.8h-1c0 .8-.1 1.6-.1 2.4zm2.1-1.8c.1.6-.2 1.1-.5 1.5-.4.6-.6 1.2-.8 1.8s-.3 1.2-.5 1.8c-.1.4-.2.7-.2 1.1s-.1.9-.2 1.3c-.1.6-.2 1.1-.3 1.7-.1.3-.2.5-.5.7-.5.2-.8.1-.8-.4v-.2c.3-.5.2-1.1.2-1.7 0-.5 0-.9.1-1.4.1-.3-.1-.7 0-1.1.1-.7.1-1.4.2-2.2 0-.3.1-.7.1-1.1v-2.4c-.3-.2-.7-.3-1 0-.2.2-.5.3-.7.5-.5.4-1.2.4-1.8.5-.3 0-.6-.2-1-.3-.3-.1-.6-.1-.9-.3-.4-.2-.7-.5-1-.8-.1-.2-.1-.5-.1-.8.4.2.6.1.7-.3q.75.75 1.5 1.2c.4 0 .8-.1 1.2-.1-.4-.6-.9 0-1.3-.3v-.4.1c-.1-.1-.3-.1-.5-.2.1-.3.2-.5.3-.7 1.1.1 2.2 0 3.3.3.6-.6.8-1.3 1.2-2 .3-.7.3-1.5.5-2.2 0-.2.1-.5.1-.7v-.9c0-.6-.1-1.1 0-1.7.2-.8.1-1.6.1-2.4.1-.1.3-.3.3-.5q0-.9.3-1.8c.5-.2.5-.2.9-.1-.3.6-.3.6.5.9-.2.1-.3.1-.4.1.1 1 .5 1.8.4 2.8-.1.6-.1 1.2-.1 1.9 0 .3-.2.5-.3.8.1.3.2.6 0 1-.1.1 0 .2 0 .3 0 .4 0 .8-.3 1.2-.1.1 0 .3-.1.5-.1.5-.2.9-.2 1.4v1.6c.7 0 1.4-.1 2.1-.1.2 0 .4-.1.5-.2.4-.3.9-.6 1.3-.9s.9-.3 1.3-.1c.3.2.4.3.2.7-.1.3-.3.6-.4.9-.4.2-.7.5-1.1.6-.3.1-.6.1-.9.2 0 0 0-.1-.1-.1-.1.2-.3.4-.4.7-.2.3-.3.5-.7.5z"/></g></svg>