<svg xmlns="http://www.w3.org/2000/svg" viewBox="0 0 186 277"><title>  Group</title><g fill="#383747"><path d="M65.9 35.9c-.3.1-.5.3-.8.4 0 .3.1.6.1.9l.8-.4c-.1-.3-.1-.6-.2-1zm.2 20.2c0 .6-.1 1.1-.1 1.7.7-.4.9-1 1.1-1.6-.4 0-.7-.1-1-.1M60.9 32c1.8-.1 3.1-.5 3.7-1.7 1-.6 1.7-.3 2.4.1.3-.3.6-.5.9-.7-.3-.7-.3-.7 0-1.5.1-.2 0-.4 0-.6-.3 0-.6-.1-.8-.1-.3 0-.7 0-1 .1-1 .3-1.9.9-2.9 1.1-.8.2-1.1.9-1.2 1.4-.1.7-.3 1.2-1 1.8zm72.7-12c1.3-1 1.8-3 3.6-3.7-.1-.1-.2-.1-.3-.1-2.6.4-5.2 1.1-7.8 1.4-1.3.1-2.6.4-3.9.6.5.3.3.9.5 1.4.2.4.3.7.1 1.1-.2.6 0 .7.6.8s1.1-.3 1.6-.4c1.2-.2 2.3-.9 3.6-.5.1 0 .2 0 .3-.1.6-.2 1.2-.3 1.7-.5M85.1 131.5c.2 0 .3-.1.4-.1.6-.1 1.2-.4 1.7-.2.8.3 1.4.1 2.1-.2.6-.3 1.1-.3 1.8-.2s1.5.5 2.2 0c.6-.4 1.2-.4 1.8-.2.3-.2.6-.5.9-.6 1-.1 2-.1 3-.2.5 0 .9-.1 1.3-.2-.1-1-.2-1.7-.3-2.5-.1-.7-.1-1.5-.2-2.1-1 0-2-.1-2.9.2-1 .3-2 .5-2.9.6-1.5.2-2.9.4-4.4.5-.7.1-1.3 0-2 .4-.4.2-.9.3-1.4.3-.6 0-1.1.3-1.6.5.1.4.3.9.2 1.2-.3 1 .1 1.8.3 2.8m42.7-4.9c.3-.5.7-.6 1.2-.5s.9 0 1.3-.2c.6-.3 1.2-.4 1.8-.5s1.3-.2 1.9-.2c.8 0 1.6-.5 2.3.2.1-.2.1-.3.2-.3.1-.1.1-.2.2-.4 1.2-.1 2.3-.1 3.5-.2.6-1.1 1.8-.5 2.9-.8 0-.2.1-.5 0-.6-.4-.9-.4-1.8-.2-2.7.1-.6-.1-.9-.5-1.2-.7.8-1.6.5-2.4.4-1.5-.2-2.9.5-4.4.6l-2.1.3c-1.7.2-3.4.3-5 .5-.5 0-.9 0-1.5.1 0 1.9.3 3.6.8 5.4zm-3.8.7c0-.3.1-.7 0-1.1-.4-1.4-.7-2.8-.4-4.3-1.9-.3-3.1-.2-4.8.6-.2.1-.4.2-.6.1-1.2-.3-2.3-.1-3.4.3-.3.1-.7.1-1 .2-.8.1-1.7.1-2.5.3-.9.3-1.8.2-2.3.1-1.8.3-3.3.6-4.7.8-.4 1.6-.4 3.2-.1 4.8 1.1-.7 2-.4 2.8 0 .4-.1.6-.1.9-.2.6-.1 1.2.2 1.6-.4.1-.1.4-.2.5-.1.5.3 1 0 1.5 0 .3 0 .6.1 1.2.2.6-.3 1.4-.6 2.3-.4.5.1 1.1.1 1.5-.1.4-.3.8-.3 1.2-.3h1.5c.8-.1 1.7-.3 2.5-.2.7.1 1.4.1 2.2-.1zM64.8 107c-.5-.8-.9-1.7-1.8-2.1-.2-.1-.2-.3-.4-.5-1.4-1.6-3-2.6-5.2-2-.1 0-.3.1-.4.1-1.1-.2-2 .4-2.7 1-.9.7-1.6 1.6-2.3 2.5-.3.4-.5.9-.7 1.4-.2.6-.3 1.1-.5 1.8.1.5.3 1.1.3 1.7-.1 1.1.1 2.1.1 3.2q0 .6.6.6c.9-.2 1.9-.3 2.8-.7 1-.5 2-1 3.2-1.1.3 0 .6-.2.9-.4.9-.6 1.6-1.4 2.6-1.9.7-.4 1.3-1 1.6-1.7.3-.6.8-1 1.3-1.2s.6-.5.8-.8zm72.1-86.9c.1.3.1.7.3.9.4.3.4.7.4 1.1.2 1.5.3 3 .7 4.5.3 1.4.8 2.8.5 4.3-.1.4.1.8.2 1.3.3 1.2.6 2.3.8 3.5s.6 2.3.3 3.5c-.1.8-.2 1.7.3 2.4.1.1.1.4.1.5-.3.8 0 1.6 0 2.4s0 1.7.4 2.5c.2.3.1.8 0 1.2 0 .5-.1.9-.2 1.2.7 1.3 2 1.6 3 2.2s1.8 1.6 3.2 1.9c-.2-.4-.5-.8-.5-1.1 0-1.1-.4-2-.9-2.9-.1-.2 0-.5-.1-.7-.2-.8.2-1.6-.4-2.3s-.4-1.6-.5-2.4c-.1-.7-.1-1.4-.4-2.1-.1-.2-.2-.4-.2-.6 0-1.1-.3-2.1-.6-3.2-.1-.2-.2-.5-.1-.7.3-1.4-.9-2.6-.4-3.9 0-.1-.1-.2-.2-.4-.1-.3-.2-.5-.2-.8-.2-1.2-.1-2.6-.6-3.8-.1-.2-.1-.6 0-.8.1-.8-.1-1.5.1-2.3.2-.7-.6-1.3-.6-2-.1-1.1-.5-2.1-.5-3.2 0-1.3-.4-2.5-.8-3.7-1 1.1-1.5 2.6-3 3.4zm-26.1 172.2c-.1.5-.1.9-.2 1.4l-.9 3.6c-.3 1.4-.6 2.7-.9 4.1-.1.5-.2 1.1-.3 1.6-.2.7-.4 1.4-.6 2.2-.1.4-.2.8-.4 1.2-.6 1.2-1.3 2.4-1.9 3.7-.5 1.2-1.1 2.3-2 3.2-.6.6-.8 1.5-1.7 1.9-.3.1-.6.3-.9.4-.2.9.5 1.1 1 1.5 1.1 1 2.3 1.5 3.7 1.1.6-.2 1.4 0 2-.6.4-.4 1-.6 1.4-1s.8-.9 1.1-1.4c.1-.1.2-.1.2-.1.2-1 .3-2 .5-2.9 0-.1.1-.2.2-.4.4-.5.4-1 .4-1.6 0-.9-.2-1.8.4-2.6.2-.3.2-.7.2-1-.2-1-.3-2 .2-2.9.1-.1.1-.4.1-.5-.4-.7 0-1.3.2-1.9-.3-.7-.4-1.3-.1-2 .2-.6.2-1.3.3-1.9.2-1.4 0-2.8.4-4.2.3-1.2.5-2.4.7-3.6.1-.7.3-1.4.2-2q-.15-.9 0-1.8c.2-.7 0-.8-.7-1.1-.2-.1-.4-.1-.7-.2-.1.6-.3 1.1-.2 1.5.2.9 0 1.7-.5 2.5-.2.4-.6.9-.5 1.3.3 1.1-.4 1.8-.8 2.8zm34.7-96.8c.1.8.2 1.3.2 1.8.1.6 0 1.2.2 1.7.5 1 0 2.3.9 3.2.1.1-.1.3 0 .4.2.9-.1 1.8.4 2.6.3.5.2 1.3.3 2v.9c.2 1.2.5 2.3.7 3.5.1.7.3 1.4-.3 2.1.3.7.5 1.3.8 2 .2.5.6 1.2.4 1.6-.2.8 0 1.3.3 1.9.4.7.1 1.4.2 2.1.3 1.7.5 3.5 1 5.2.2.5.3 1 .5 1.5.5 1.6.5 3.5 1.8 4.9.1.1.1.2.1.3-.1.7.5 1.1.8 1.6.6-.2 1.2-.3 1.9-.5-.1-.7-.2-1.4-.2-2-.2-1.4-1-2.7-.9-4.2 0-.1 0-.3-.1-.4-.4-.5-.4-1.2-.4-1.8 0-.7 0-1.4-.5-2-.3-.4-.4-1-.3-1.7.1-.4.3-1 .1-1.2-.6-.6-.5-1.2-.6-1.9s0-1.5-.2-2.2c-.3-1.4-.2-2.8-.8-4.1-.1-.1-.1-.3 0-.4.2-.5.2-1 0-1.6s-.2-1.3-.3-1.9l-.6-5.1c-.1-.4-.3-.9-.2-1.3.3-.9-.3-1.8-.1-2.7.1-.4-.1-1-.1-1.7-.3-.5-1.1-.4-1.7-.8-1-.6-2.1-1.3-3.3-2zM78.3 202.2c.1.3.2.7.5.9 1 1.2 2 2.3 3.3 3.1.4.3.8.5 1.1.9.2.2.5.3.7.4.3.1.6.1.8.3 1.1.9 2.6 1 3.8 1.7.9.5 1.9.6 2.8 1.1.3.2.7.2 1.1.4.8.5 2 .1 2.5 1.1.7-.1 1.5.2 2.1-.4 0-.2-.1-.5-.1-.8v-.7c.3-.8.2-1.5 0-2.2-.1-.2-.3-.4-.3-.7 0-1-.5-1.8-.9-2.7-.3-.7-.7-1.4-1-2-.5-.3-.8-.6-1.2-.8-1-.6-1.5-1.9-2.8-2-.1 0-.1-.2-.2-.3-.5-.5-1.2-.6-1.9-.7-1.3-.2-2.5.6-3.7 0h-.2c-.7.5-1.5.3-2.3.4-.4 0-.8.1-1.1.4-1 .8-2.3 1.3-3 2.5zM57 88.7c.7-.5 1.3-1 1.9-1.5.3-.2.5-.4.7-.6.6-.6 1-1.3 1.9-1.4.1 0 .3-.2.3-.3.3-.9 1.1-1.1 1.7-1.5.1-.1.3-.2.4-.3.9-.8 1.7-1.6 2.6-2.4.5-.4.9-.9 1.3-1.4.4-.4.5-.9.1-1.4-.5-.6-.8-1.4-1.3-2s-.7-1.4-1.5-1.7c-.1 0-.1-.1-.1-.2-1.1-1.3-2.2-2.7-3.3-4-.4.6-.8 1.1-1.2 1.6-.7.9-1.7 1.6-2.4 2.6-.7.9-1.6 1.7-2.2 2.8-.6 1.2-1.3 2.3-1.8 3.5-.1.2-.2.4-.3.4-.6.4-.5.9-.2 1.5-.3.2-.6.5-.9.7.1 0 .1.1.2.1-.2.5-.3 1-.5 1.5.7.3 1.2.8 1.6 1.5.1.2.2.5.4.6 1 .5 2 .9 2.6 1.9m102 114.6c-.2-.3-.4-.7-.7-.8-.9-.4-1.8-.9-2.6-1.5-.2-.2-.6-.1-.9-.1-1.1-.1-2.3-.1-3.3-.8-.1-.1-.3-.1-.5-.1-.5-.1-1 0-1.5-.2-.9-.2-1.7-.7-2.6-.8-.7-.1-1.5-.5-2 .5 0 .1-.2.1-.3.1-.7.3-1.5.6-2.2 1-.6.3-1.2.4-1.7.8-1 .7-1.8 1.5-2.8 2.1-1.1.7-1 1.8-1 2.8 0 .7.8 1.1 1.5 1.4.5.2 1 .6 1.6.2h.2c1.2.3 2.4.5 3.6.7 1.1.3 2.2-.1 3.3.2.1 0 .3 0 .4-.1 1.5-.3 3-.7 4.5-.8 1.4-.1 2.6-.7 3.9-1.1 1.6-.5 2.7-1.7 3.1-3.5m21.5-83.2h-.3c-.7-.2-1.3.3-2.1.4-1.7.2-3.4.1-5 .7-.1 0-.2.1-.3 0-.9-.4-1.6.1-2.4.4.1 1 .1 2-1.3 2.1.4 1.2.5 2.3.2 3.4-.1.3 0 .6 0 .9.1.9.1 1.7.2 2.6.1.8.2 1.7.2 2.5 0 .3.1.7 0 1-.1 1.2.1 1.6 1.3 2 1 .4 2 .6 3 1 .4 0 .8-.5 1.3-.2.4.3.8.2 1.2.1.5-.2 1-.1 1.5-.4.7-.4 1.6-.5 2.3-.8.7-.4 1.6-.6 1.9-1.5 0-.6 0-1.2.1-1.8 0-.3.1-.6 0-.9-.1-1.5-.3-3-.4-4.5-.1-1.3-.3-2.5-.7-3.7-.2-.5-.4-1-.1-1.3-.3-.7-.5-1.2-.7-1.8zm-32.3 133.2c.2.8.5 1.5.6 2.2.2 1.3.5 2.6.5 3.9 0 .1.1.3.1.4.3 1.4.7 2.9 1.2 4.2.2.4.4 1 .3 1.4-.2.5.1.8.3 1.2.4.7.8 1.3 1.1 2 .4 1 .6 2.1 1.7 2.6.1 0 .2.1.2.2.4.4.8.9 1.2 1.3s1 .7 1.5 1c.1.1.3.1.4.1 1.2 0 2.4 0 3.3-.8.3-.3.8-.5.9-.8.1-.9.9-1.5 1-2.3.3-1.4.6-2.8.3-4.3-.1-.4 0-.8 0-1.2 0-.3 0-.6-.1-.8-.1-.3-.2-.5-.3-.8-.3-1-.5-2.1-.9-3.1-.3-.8-.6-1.7-.8-2.5-.2-.5-.2-1-.4-1.5-.2-.7-.3-1.4-.2-2.2 0-.3-.2-.7-.3-.9-.6-.1-1-.3-1.5-.2-.6.1-1.3.3-1.9.4-1.6.4-3.1.7-4.7 1h-.5c-.4-.3-.9-.2-1.3-.2s-.7-.1-1.1-.1c-.3 0-.5-.1-.8-.1zM10.2 90.5v.6c.2.6.3 1.3 0 1.9-.1.2 0 .4 0 .5.1 2 .6 3.8 1.4 5.6.4.9.1 1.6-.7 2.2-.2.1-.3.3-.5.4-.4.4-.9.7-1.4 1-.4.3-.9.4-1.3.7-.5.3-.9.8-1.4 1.1-.5.4-1.2.7-1.4 1.4-1 0-1 .9-1.4 1.4-.7.8-.6 1.7-.5 2.7.1.4.2.9.1 1.3-.2.5 0 .9.1 1.4.2 1.1.8 2.1.7 3.2 0 .3.2.8.4 1.1.3.4.5.8.5 1.4s.8 1.7 1.4 1.9c1.5.4 3 .5 4.4.2 1.3-.3 2.6-.8 3.8-1.3.1-.1.3-.2.3-.4.6-1 .8-2.2.8-3.4.1-1.3-.1-2.7-.2-4 0-.1 0-.3-.1-.4-.4-.3-.3-.8-.4-1.2 0-.3-.2-.5-.3-.8-.3-.7-.5-1.4-.8-2.1s-.3-1.7-1-2.2c-.8-.6-1-1.3-.9-2.3.1-.1.3-.2.4-.3.8-.4 1.5.6 2.4.1.1-.1.4.1.6.2 1.1.8 1.5 2.3 2.5 3.3 0 0 .1.1.1.2-.3.8.3 1.5.5 2.2.1.5.5 1 .7 1.5.4 1.1 1 2.1.9 3.3 0 .3.1.7 0 1-.1.6 0 1.3-.5 1.7.8.2 1.5-.1 2.3-.4.3-.2.6-.4 1.1-.3.5 0 1.1-.2 1.6-.5.6-.3 1.1-.6 1.9-.3-.4-1.5-.7-2.8-1-4 0-.6.2-1.1 0-1.4-.3-.5-.3-.9-.3-1.4 0-.7.1-1.4-.1-2.1-.3-.8-.3-1.5-.3-2.3 0-.3-.1-.5-.4-.7-.5-.4-1.2-.2-1.7-.5-.8-.5-1.6-.6-2.4-.1-1.1-.7-2.8-.5-3-2.3-.5.2-.5 1.1-1.2.6-.3-.8-.8-1.7-1-2.5-.2-.9-.5-1.8-.4-2.6.1-.9-1.1-1.6-.2-2.5-.1-.1-.4-.3-.4-.4 0-.2.2-.4.3-.6s.3-.3.4-.5l-.2-.2c-.1.2-.3.4-.6.7-.4-1.1-1.2-1.4-2.2-1.5-.4.2-.8.5-1.3.8zm87.1-35.6c1.1-.7 2.3-1.1 3.6-.8.8.2 1.4 0 2-.4.6-.3 1.2-.8 2-.4.1 0 .3-.1.4-.1.3-.1.7-.2 1-.3s.6 0 .8-.1c.9-.4 1.8-.7 2.9-.8.4 0 .8-.2 1.2-.3s.8-.2 1.1-.3c1.4-.3 2.8-.8 3.7-1.9.8-1 2-1.4 2.9-2.4-.1-.6.4-1 1-1.3.7-.4 1-.9 1.3-1.6.1-.2.2-.5.4-.6l1.5-1.2c.2-1.5.9-2.7.9-4.2 0-.8.5-1.5.1-2.3-.1-.2.1-.5.2-.7s.2-.4.2-.6l-.3-2.7c0-.2-.1-.4 0-.6.2-1.3 0-2.5-.5-3.8-.2-.4-.3-.9-.3-1.3s.1-.8-.1-1.2c-.1-.3 0-.8-.4-1.2-.1-.1 0-.6.2-.8.1-.2.3-.3.6-.5-.6-.9-.8-1.8-.6-2.8-.6-.3-.6-.9-.8-1.4-.3-1-.7-2-1.1-2.9-.1-.3-.5-.4-.7-.7-.2-.2-.4-.4-.5-.7-.2-1.2-1.1-1.9-1.9-2.7-1.2-1.1-2.5-2.1-3.6-3.2-.4-.4-.8-.8-1.4-1q-.9-.3-1.5-.9c-.2-.2-.5-.3-.7-.4-1.2-.4-2.5-.8-3.7-1.1-.1 0-.1-.1-.2-.1-.6-.5-1.3-.7-2.1-.7-.7 0-1.4 0-2-.4-.4-.3-.9-.4-1.3-.5-1.3-.1-2.6-.2-3.9-.2-1.4 0-2.9.5-4.3.4-.1 0-.3.1-.4.1-1.1.7-2.4.5-3.6.9-.5.2-1.2.1-1.6.3-.9.5-1.7.8-2.5.3-.6 1.2-1.8 1.5-2.7 1.7-.5.4-.7.7-1.1.8-.9.4-1.6 1-2.3 1.5-.7.6-1.2 1.4-2 1.8-1 .6-1.1 1.8-2 2.5-.7 1.8-2.1 3.2-2.5 5.2 0 .1-.1.2-.2.4-.2.6-.5 1.2-.7 1.9-.4 1.4 0 2.9-.9 4.1-.1.1 0 .3 0 .4.1 1 .2 2 .2 2.9 0 1.1-.2 2.3-.4 3.4.1.3.4.5.4.7 0 .8 0 1.5.4 2.2.2.4.4.8.5 1.3.5 1.6 1.2 3.2 1.5 4.8.1.4.2.8.4 1.2.6.9 1.2 1.7 1.1 2.9 0 .1 0 .1.1.2.7 2.1 2.1 3.7 3.8 5 .6.4 1.1.8 1.5 1.3.9.1 2.7 1.2 3.1 1.8.6.3 1 .5 1.3.7 1.5 1.2 3.1 1.9 5.1 1.9.4 0 .9 0 1.3.1.7.2 1.3.1 2-.2.3-.2.7-.3 1-.4.7-.2 1.3-.3 2-.4.5-.1.9-.2 1.3.2zm64.3 150.7c-1 1-1.8 1.9-2.7 2.8-.2.2-.6.4-.9.5-.5.2-1 .3-1.5.4-1 .2-2.1.5-3 1-.1.1-.4 0-.5.1-.9.3-2 0-2.8.7-.1.1-.3.1-.4.1-.5-.1-.9 0-1.3.3-.1.1-.3.1-.4.1-1.1-.3-2.2-.2-3.3.2-.2.1-.5-.1-.7-.2-.7-.4-1.5-.6-2.3-.3-.4.2-.9.1-1.4 0-1-.3-2-.5-2.9-1-.6-.3-1.1-.5-1.5-1.1-.4.4-.7.8-.9 1 0 .8 0 1.4.1 2 .1.8.2 1.7.4 2.5.1.4.4.8.6 1.3 1.2.3 1.3.4 1.2 1.6-.3.2-.7.3-1.1.5l1.5 4.8c1.2.3 1.2.3 1.1 1.7-.3.2-.5.4-.8.7.3.9.5 1.7.8 2.7.6-.3 1 .7 1.6.1v.8h-.8v1.1c.7-.3 1.1-.3 1.6.1.2.2.4.6.3.7-.3.6-.7.9-1.5.7.4 1.1.6 2.3 1.4 3.1.1.1.2.2.1.3-.4.6.3.8.4 1.2 1.5-.2 1.8 0 2.3 1.2-.5.3-.9.5-1.6.9-.2-.2-.4-.5-.6-.7.3.6.8 1.2.9 1.8.1 1.5 1.2 2.6 1.4 4l.8-.4c.3-.2.6-.4.9-.1.2.2.3.6.3.9 0 .7-.4 1.1-1 1.4.8 1 .8 2.5 1.7 3.1.6 0 1 .2 1.4 0s.6-.5.9-.7c.7 0 1 .6 1.4 1.1.6-.3 1.2-.8 1.9-.2.8-.8 2.1-.5 2.9-1.3.1-.1.2 0 .3 0 1.6-.2 3.1-.4 4.6-.9.5-.2 1-.3 1.6 0-.5-1-.2-1.9 0-2.8 0-.2.1-.4 0-.7-.2-.9-.4-1.8 0-2.7.1-.1 0-.4-.1-.5-.4-.6-.2-1.2-.1-1.8 0-.3.1-.5 0-.8-.1-.6-.2-1.3-.2-1.9 0-1.2.1-2.5.2-3.7 0-.2.1-.4 0-.5-.6-.9-.3-1.8-.2-2.7.1-1.1.1-2.1.1-3.2 0-.6-.2-1.1.1-1.7.1-.1.1-.3 0-.4-.4-.4-.2-.9-.1-1.3 0-.9.1-1.8.2-2.7 0-.2-.1-.5-.2-.7-.5-.8-.4-1.6-.1-2.3s-.1-1.2-.1-1.7c0-.6.2-1.2.3-1.8v-.1c-.2-.9-.5-1.7-.2-2.6.1-.2 0-.6-.1-.9 0-.4-.1-.9-.1-1.3 0-.6 0-1.2.1-1.8M80.5 85.8c-.4 1.1-.1 1.7.8 2.4.3.2.6.6.7 1 .1.5-.6.4-.9.6 0 0 0 .1-.2.2 0 .8-.1 1.8.5 2.5.5.7.3 1.1 0 1.7-.1.2-.3.4-.3.6 0 1-.1 2.1 0 3.1.1 1.1-.3 1.8-1.1 2.4 0 .2 0 .5.1.6.6.9.9 2 .8 3.1v.1c.2 1.3.4 2.5.6 3.8.2 1.2.4 2.4.7 3.6.1.5.3.9.1 1.4-.1.3 0 .7.1 1 .3.7.6 1.5.4 2.3-.1.4 0 .7.4 1 .3.2.5.5 1 1-.5.2-.8.2-1.1.3 0 .1.1.3.1.4.1.3.3.6.3.9 0 1 .5 1.9 0 2.9-.1.1.1.4.2.6.1.4.2.9.3 1.4.9.1 1.7-.2 2.5-.6.3-.2.8-.5 1.1-.4.6.3.9 0 1.4-.2.4-.2.9-.4 1.4-.2.4.2 1-.1 1.5-.2.2 0 .4-.1.6-.1.8.2 1.7.1 2.4-.3.2-.1.6-.2.8-.2 1.7.1 3.4-.1 5-.6.7-.2 1.4-.4 2.1-.3.3.1.7 0 .9-.2.7-.5 1.4-.4 2.2-.4 1.3-.1 2.6-.7 3.9-.5.4-.7 1.1-.2 1.7-.3.7-.1 1.5-.3 2.2.2.4-.7 1.1-.7 1.7-.7.7 0 1.5-.2 2.2-.3.8-.1 1.6-.3 2.5-.4h1.5c.5 0 .9-.2 1.4-.2.6-.1 1.3.1 1.9-.4.2-.2.6-.3.8-.2 1 .3 1.8-.1 2.7-.3.8-.1 1.6-.1 2.4-.2.5 0 1 .1 1.5.1.7 0 1.4-.1 2.1-.2.5-.1 1.1-.1 1.6-.2.5-.2.9-.3 1.2.3.2-.3.4-.5.5-.6l3.9-.3c0-.6.2-1.2 0-1.6-.5-1.2-.1-2.5-.8-3.6v-.2c0-.9-.5-1.8-.3-2.8.1-.4-.3-.8-.4-1.2-.1-.3-.2-.7-.1-.9.2-.9-.1-1.7 0-2.6 0-.2-.1-.5-.2-.6-.7-.7-.5-1.7-.6-2.5 0-1-.1-2-.6-2.8-.6-1.1-.4-2.2-.3-3.3-.5-2.1-1-4.2-1.4-6.1-.7-.6-1.3-1-2-1.6-.1 0-.4-.1-.6-.1l-.9-1.2c0-.1-.1-.1-.1-.2-.2-.2-.5-.4-.8-.5-.7-.1-1.2-.7-1-1.3s0-1.1-.2-1.6c-.3-.8-.7-1.7-.2-2.5-.6-.8-.6-.8-.6-1.7 0-.3-.1-.6-.2-.9s-.2-.7-.3-1c-.4-1.4-.7-2.8-1.1-4.2-.6-2.1-1.1-4.1-1.3-6.3 0-.2-.1-.4-.2-.6-.4-.5-.3-1.1-.1-1.5-.1-.5-.4-.9-.3-1.2.1-.4 0-.7-.1-1-.2-.8-.5-1.6-.1-2.5.1-.1 0-.3 0-.4 0-1-.1-2 0-3 0-.8.3-1.7.2-2.5-.1-1.2 0-2.4.4-3.2-.2-1-.3-1.6-.4-2.4h-4l-2.1 1.5c-.2.2-.6.4-.6.7-.1.6-.5.8-.9 1.1-.2.1-.3.3-.5.5s-.3.5-.5.7c-.5.5-1 .6-1.7.9-1 .4-1.9 1.1-2.8 1.7-.2.1-.5.3-.8.3-1.6-.1-2.9 1.1-4.5 1.1-.9 0-1.7.7-2.6.6-.2 0-.5-.1-.6 0-.9.6-2 .4-3 .5s-2.2.1-3 .6c-.9.5-1.7.4-2.6.6-1.1.2-2.3.3-3.4.6-1.4.3-2.9.1-4.3.1-1 0-2-.2-3-.2-.3 0-.5.1-.8-.1-.8-.6-1.9-.2-2.7-.8-.1-.1-.3.1-.4.1-.9-.6-1.8-1.2-2.6-1.7-2 1-3.8 2.1-5.6 3.4.5.8.8 1.4.4 2.2-.1.1-.1.4 0 .5.4 1.2.8 2.5 1.3 3.7s.5 2.6 1.3 3.7c.1.1 0 .2 0 .3 0 .9.3 1.7.9 2.5.7-.5 1.4-.3 1.4.3 0 .5.5.4.4.8-.3.6-.8.9-1.4.8.2.8.4 1.5.6 2.3.6.5.7.5.4 1.5 0 .1-.1.3-.1.4.2 1.2.5 2.4.6 3.7 0 .6.3 1 .5 1.5.6-.3 1.2-.2 1.6.2.4.3.5.8 0 1.1-.4.3-.9.5-1.5.8zm46.3 94.7c0 1.1-.1 2.2.4 3.2.2-.1.5-.2.8-.4.3.4 1.1.4 1.1 1.1 0 .8-.5 1.2-1.1 1.6.3.7.5 1.4.8 2 .3.7.6 1.3.9 1.9.6.4 1.1.6 1.5 1 .3.3.4.6.1.9s-.6.6-.8.9c0 .7.1 1.3.1 1.9 1.3.7.6 2 1 3.1.2-.3.3-.4.5-.6 1.4 1 1.4 1.6.2 2.2 0 .3.1.6.1.9 0 .4.1.8.4 1.1.5.4.6 1 .7 1.6s.2 1.1.3 1.7c.1.1.2.1.3.2.2-.3.3-.5.5-.8.7-1 1.3-2.1 2.2-3 .3-.3.5-.5.8-.7 1-.6 2-1.1 3-1.8 1.1-.6 2.1-1.3 3.4-1.6 1-.2 2-.6 3-1 .2-.1.5-.2.7-.3 1.1-.3 1.9.3 2 1.5 1 .1 2 .1 2.9.2.3 0 .5.3.8.4.8.2 1.7.3 2.5.5.9.2 1.7.5 2.6.7.6 1 2 1.3 2.4 2.5 0 .1.3.1.4.2.4-.5.5-1 .2-1.5-.5-1-.4-2 0-3-.3-.5-.6-.9-.4-1.5q.15-.45 0-.9c-.7-1.7.1-3.5-.6-5.1v-.2c.3-.6.1-1.1-.1-1.6-.2-.6 0-1 .1-1.4q-.15-.75-.3-1.2c-.3-.8.2-1.8-.5-2.6v-.3c.4-.9.2-1.8 0-2.6-.1-.9-.6-1.8-.4-2.8.2-1.1-.3-2-.6-3-.2-.8-.2-1.5.2-2.3-.9-.6-.3-1.9-1.1-2.6-.1-.1 0-.3 0-.4 0-1 .6-2-.2-3v-.2c.2-1-.8-2-.3-3.1.1-.1-.2-.4-.4-.6-.3-.5-.8-.9-.4-1.5.1-.1 0-.3-.1-.4-.6-1.1-.5-2.4-.6-3.6-.1-.6-.1-1-.5-1.5-.2-.2-.3-.6-.3-.9s-.1-.4-.1-.7c-.2-.9-.1-1.8-.6-2.7v-.1c.2-.4-.1-.7-.2-1.1-.2-.6-.8-1.1-.6-1.8q.15-.75-.3-1.2c-.5-.6-.5-1.2-.2-2-.6-.6-.3-1.6-1-2.1-.1 0 0-.2-.1-.3-.1-.5-.3-1-.5-1.5-.3-.9-.5-1.8-1.2-2.5-.1-.1-.1-.2-.1-.3.1-.5-.2-.7-.5-1-.4-.6-1-1.1-.5-1.7-.3-.8-.6-1.4-.7-2.1-.2-1-.6-1.8-1.3-2.5-.5.3-.9.6-1.3.8-1.5-.6-1.8-1-1.8-2.5v-.4c0-.7-.5-1.2-1.2-1.1-.3 0-.7.2-1 .3-.8.4-1.5.6-2.4.4-.2 0-.4-.1-.5 0-.7.3-1.6.2-2.2.8-.1.1-.4.1-.6.1-.4-.1-.9-.2-1.4-.2-.1-.1-.1-.3-.2-.5h-.2v.6c-2.2.7-2.4.7-3.8.4-.4.5-1 .7-1.7.6-.3 0-.6.1-.9.2-.7.2-1.4.5-2.1.4-.9 0-1.6.5-2.5.4-.7-.1-1.4.4-2.1.2-1.4-.3-2.7.6-4 .1-.1 0-.2.1-.3.1-.8.5-1.6.6-2.6.3-.4-.1-.9 0-1.3 0-.3 0-.5 0-.8-.1 0 .1.1.3.1.3-.4 0-.9-.1-1.3-.1s-.8.2-1.2.3c-.5.1-1 .1-1.6.2-.4 0-.8.1-1.2.2l-2.7.3c-1.2.2-2.3.6-3.5.6-.9 0-1.9.1-2.7.5-.9.5-1.5.3-2.2-.1-.2.1-.4.3-.6.4-.4.1-.8.2-1.1.3-.9.1-1.8.5-2.6.3-.7-.1-1.1.2-1.6.4-.7-.1-1.3-.4-1.9-.3-1.4.3-2.8.8-4.2 1.1 0 .4-.1.6-.1.9-.2 1.4-.3 2.7-.3 4.1 0 .4-.3.8-.4 1.2-.1 1.7.5 3.5-.2 5.4.3.5.7 1.1-.1 1.6-.1 0 0 .2 0 .3-.1.4-.2.8-.3 1.4.1.5.1.5-.2 1.3-.1.3-.1.8-.1 1.1.2-1.2.2-1.2 1.3-1.1 0 .6.2 1.2-.6 1.5-.2 0-.4.4-.3.5.2.5-.1.8-.3 1.2-.1.2 0 .5 0 .8.5.1.9.1 1.3.2.5.6.5 1.1.1 1.6-.5.7-1 .1-1.6.1-.1.6-.1 1.2-.2 1.7 0 .6-.1 1.1-.1 1.7s-.5 1.1-.3 1.8c.2.6 0 1.2-.4 1.8s-.4 1.3-.3 2c.1.6.5 1 1 1.2-.6.6-1.1 1.1-1.6 1.7-.1.1-.1.2-.1.3 0 .6.1 1.2.2 1.8 0 .1.1.1.1.2.3 0 .6.1.8.1.1.2.2.3.2.4 0 .3.1.7-.1.9s-.6.2-.9.1c-.3 0-.6-.1-.9-.2.1.3.1.5.1.7 0 .5.2 1.2 0 1.6-.6 1.2-.6 2.3-.2 3.5-.1.4-.3.7-.4 1-.1.9-.1 1.7-.2 2.6 0 .2.2.4.3.6.1.3.2.7.1.9-.5.7-.2 1.6-.6 2.4-.1.3 0 .7 0 1h.5c.2.5.2.9-.2 1.2s-.4.7-.3 1.1c0 .3.1.6-.1.9s-.1.7-.2 1.1c.8.1 1.1.6 1.1 1.2-.2.8-.9.6-1.4.8 0 .9.1 1.7.1 2.6.9 0 1.2.5 1 1.5 1.2-.5 2.3-1 3.5-1.5.5.1 1 .3 1.5.3s1.1-.2 1.6-.2c1.9-.3 3.8-.3 5.6.8.1.1.3.1.4.1.4 0 .7.2 1 .5.5.4 1 .8 1.4 1.3s1.1.6 1.5 1c.5.5.8 1.2 1.2 1.7.4.6.9 1.1 1.4 1.6.3.3.5.7.6 1.1 0 .3.1.6.2.9.4 1.5.8 3.1 1.3 4.8.2-1.1.7-1.8 1.7-2-.3-.7 0-1 .3-1.4.6-.7 1-1.6 1.4-2.4.2-.3.3-.7.5-1.1.2-.6.4-1.1.7-1.7.1-.2.1-.3.2-.5l.9-5.1c.2-1.2.6-2.5.5-3.7 0-.9.3-1.7.5-2.5.2-.7.5-1.5.3-2.2-.2-.9.1-1.6.5-2.4-.4-.6-.1-1.2 0-1.8.1-1 .2-1.9.6-2.9.1-.1-.1-.3-.1-.5 0-.4 0-.7.1-1.1.3-1.6.9-3.3.9-4.9 0-1.9.5-3.7.9-5.5q.45-1.95.6-3.9c.1-.7 0-1.5.4-2-.1-.8-.2-1.4-.3-1.9-.5.1-1.1.1-1.5.2-.7-.6-.9-1.2-.6-2 1.6-1.4 2-1.5 4.1-1.4.4 0 .9-.1 1.3-.2 1.3-.4 2.5-.8 3.9-.4.2 0 .4-.1.6-.2s.3-.2.5-.2c.8.2 1.4-.2 2-.5s1.2-.5 1.8 0c.6.9.9 1.8-.1 3 .1-.6.1-.9.1-1.2-.3.6-.4 1.5-.8 2-.5.7-.5 1.4-.8 2.1 1.3 1 .7 2.6 1.3 3.8 1.2-.2 1.2.9 1.9 1.4-.4.3-.7.6-1.1.9.2.4.2.9-.2 1.3.4.8 1.1 1.5.8 2.3-.1.6 0 1 .3 1.5.6-.4.6-.4 2.2.1-.2.4-.3.8-.5 1-.4.3-1 .4-1.5.6.2.6.4 1.2.6 2 .6.4 1.5.8 1.3 1.9-.2.1-.5.3-.8.4l.9 1.5zm31.4-110.8c-.5-.4-1-.9-1.5-1.3-.2.3-.3.5-.5.6-.3.3-.7.4-1 .2-.2-.2-.3-.6-.3-.8 0-.4.2-.8.3-1.1-.2-.4-.5-.8-.7-1.2-.4.5-.6 1.2-1.4 1-.3-.1-.6-.5-.8-.8s.1-.6.4-.7c0 .2.1.4.1.6.3-.2.5-.4.7-.6-.5-.6-1-1.2-1.6-1.8-.8 1.1-1.2 1.3-1.8 1s-.6-.9-.1-1.8c-.2-.3-.3-.6-.5-.9l-1.2.9c-.2-.3-.4-.5-.6-.7.3-.4.6-.7.9-1-.9-.8-1.5-1.9-2.7-2.1-.2 0-.4-.3-.6-.6-.3-.4-.6-.7-1.1-.8-.7-.2-1.3-.7-2-1.1-.6-.4-1.1-.9-1.7-1.3-1.3-.9-2.7-1.7-4-2.6l-.3-.3h-.2c0 .3-.1.5-.1.8-.3.1-.6.2-.9.4-.9-.6.1-1.1 0-1.7-.2-.1-.4-.1-.6-.2-.3-.1-.7-.1-.8-.3-.4-.8-1.1-.7-1.7-1.1-.8 1.4-.5 2.8-.5 4.1 0 .6.2 1.1-.2 1.6 1.1 1 .2 2 0 3 .7.3.9.9.6 1.4-.2.4-.1.7-.1 1 0 .2.1.5.2.7.1.9.3 1.8.4 2.8.1.9-.1 1.8.3 2.7l.1.1c.3-.2.5-.3.9-.6.1.4.3.8.3 1.1 0 .8-1 .4-1.3.9.1.5.1.9.2 1.3s.1 1 .4 1.2c.6.4.6 1.1.9 1.7-.3.2-.6.3-.9.5v1.4c0 .3.1.8.3.9.7.5.5 1.1.6 1.7 0 .3.2.6.3.9.8-.5 1.2-.5 1.6-.1.4.3.4.7.3 1.1-.1.5-.6.7-1.5.7-.1.8.2 2 .5 2.3 1 .8 1.7 2 2.9 2.5.2.1.3.3.5.4.6.6 1.1 1.2 1.7 1.8.4.3.9.5 1.2.9q.6.75 1.5.6l.3.3c.5.6 1.3.9 2 1.2.2-.8.7-.6 1.2-.5.7.1.7.7.8 1.2.8.5 1.6.9 2.2 1.3.8.1 1.5.1 2.3.1.5-.7.8-.8 1.4-.5.2.1.5.3.6.5.1.4.1.9.2 1.5q.45.15 1.2.3c.5 0 .9 0 1.2.5.6 1 1.6 1.6 2.6 2.1.4.2.8.5.8.9-.1.8.4 1.2 1.1 1.7-.3.4-.5.7-.8.9s-.7.3-1.2.5c.6.9.6 2.1 1.6 2.8.2.1.3.5.3.8 0 .7.4 1.2.8 1.8.1-.6.4-.8 1-.6 0 .4 0 .9-.1 1.3 0 .2 0 .5.1.7.2.5.3 1.1.5 1.7.3.5.9.9 1 1.5s.7 1 .7 1.7c0 .9.8 1.4 1.4 1.9l.9.6c0 .4 0 .9-.1 1.4.2.2.4.5.6.8 1.1-.2 2.2-.5 3.3-.7-1.1-.5-1.2-.7-1-1.8h.8c.8 0 1 .3.7 1-.1.3-.3.6 0 .9.3-.1.5-.3.8-.3.3-.1.6 0 .8-.1 1-.1 1-.1 1.2-1.1.3-.2.7-.3 1.1-.5l.9.6c.5-.1 1-.3 1.5-.4l.6-1.8c-.8-1.3-.5-3-1.3-4.3.1-1.6-1-3.1-.7-4.8 0-.1 0-.2-.1-.3-.5-1-.1-2.2-.9-3.2-.1-.1 0-.5 0-.7 0-.5 0-1-.2-1.4-.6-1.5-.4-3.2-1.1-4.8-.3-.8-.4-1.8-.8-2.5-.3-.5-.6-1-.6-1.7-.1-1.4-.9-2.6-1.3-3.9-.1-.4-.4-.8-.6-1.1-.2.2-.4.3-.6.4 0-.2-.1-.2-.1-.3-.1-1.4-.2-1.5-1.6-1.6-.9-.1-1.2-.8-.6-1.8-.8-1-1.7-2-2.6-3.1-.2 0-.4 0-.5.1l-2.7-2.7-.5.5-.5-.5c.1-.4.3-.8.4-1-.4-.3-.6-.5-.9-.7-.8.6-1.2.8-1.5.4-.2-.3-.4-.7-.3-1 .1-.4.3-.8.5-1.2-.2-.3-.6-.7-.7-1-.1-.5-.4-.5-.7-.7zm-94.1 17c-.6.3-1.2.6-1.8 1.1-.6.6-1.4 1.1-2.1 1.7-.6.5-1.3.9-1.9 1.5-.5.5-1 .6-1.7.4 0 .8-.4 1.3-.9 1.7-1.2-.3-1.4-.9-.7-2.1.3 0 .5 0 .9-.1-.5-.5-1-.9-1.4-1.3-.4.7-.9 1.1-1.4 1s-.6-.4-.7-.9c-.1-.6.4-.7.9-.7-.6-.4-1.2-.6-1.4-1.3-.2-.4-.8-.9-1.5-.5 0 .7.1 1.4-.1 1.9-.2.6-.1 1.1 0 1.7-.2.3-.5.7-.6.8-1 .4-1.8.8-2.6 1.1-.3.1-.6.1-.9.2-.3 0-.6.1-.9.1 0 0-.1.1-.1.2.1.3.3.6.4.8-.4.4-.7.8-1.1 1.3-.3-.4-.6-.6-.7-.9-.1-.2.1-.5.3-.8-1.4 0-2.3 1.2-3.5 1.6-.8.2-1.3 1.3-2.3 1-.1 0-.2.1-.4.2-.8.4-1.6.7-2.5 1.1.6.4 1.2.6 1.1 1.4q-.15.75-.9.9c-.7-.4-.8-1.2-.9-1.9-1.1.5-2.1 1.1-3.2 1.6-.3.2-.8.2-1.1.2-1.2-.2-1.8.3-1.6 1.6.1.5.3 1.1.1 1.7-.2.5.1 1.2.2 1.8.1.4.5.6.4 1.1-.1.3.3.7.3 1 .1.5 0 1 0 1.3.1.5.3.9.3 1.3.2 1.3.1 2.6.6 3.8.2.4.3.7.7.9.4.1.7.3 1.1.4 0-.8.5-1.2 1.1-1.5.8.2.8.9.9 1.5h2.3c.3-.5.5-.9.8-1.3.5.2.9.2 1.2.5.2.2.2.7.2 1 .5.1.9.2 1.4.2h3.7c.6 0 1.1.2 1.7.2 1-.1 2-.2 3.1-.3.1-1.4.1-2.8.2-4.2v-.3c-.7-1.1-.1-2.1.1-3.1.1-.5.2-1.1.5-1.5.2-.4.6-.8.6-1.3.1-.3.3-.8.6-.9.8-.2.9-.9 1.4-1.4v-.3c-.2.2-.4.3-.6.5-1.4-.7-1.4-.7-1.1-1.7 1.3-.7 1.4-.6 1.8.8 1 .2 1.7-.7 2.5-.9.2 0 .4-.4.5-.6.8-.1 1.5-.1 2.3-.2l-.6-.6c.5-.4.6-1.2 1.5-1.1.3.5.5.9-.1 1.5.8.1 1.4.1 2 .2.2 0 .4 0 .5.1l2.7 1.5c.2.1.3.3.5.3.5.1.8.5 1 .9.2.6.6.9 1.1 1.1.3.4.7.9 1 1.2.5-.5 1-.9 1.5-1.4 0-.1 0-.4.1-.6s.2-.5.3-.7c-.6-1-.5-1.8.3-2.3.8.3.6.9.5 1.5.4-.4.6-.8.9-1.2.4-.6.7-1.2 1.1-1.7.3-.4.9-.6 1.1-1 .3-.7.8-.8 1.4-.9.8-1 1.5-2 2.2-2.9.4-.5.5-.9.3-1.5-.1-.3-.3-.7-.2-1 .2-1.2-.3-2.3-.4-3.5 0-.2-.1-.4-.1-.6.2-.7 0-1.3-.3-2-.4-.8-.9-1.5-.5-2.4.1-.2-.1-.5-.2-.7-.3-.6-.6-1.2-.2-1.9-.5-.3-.7-.8-.6-1.4 0-.3.1-.7 0-1-.2-.5-.2-.9-.3-1.4-.1-.9-.3-1.8-1.3-2.4.3-.2.6-.3.8-.4-.1-.4-.3-.8-.2-1.1.2-.5 0-.8-.1-1.2-.1-.5-.3-1.1-.4-1.6-.4-1.7-1.2-3.2-1.1-5 0-.3-.2-.6-.3-.9-.2-.5-.5-1-.8-1.5-.3.2-.6.6-1 .8-1.1.4-2 1.1-2.5 2.1-.1.1-.3.3-.4.3-1.1.3-1.7 1.1-2.4 1.9-.6.7-.5 1 .2 1.5.6.4 1.1.7 1.2 1.5.1.5.4 1 1.2.8.6-.1 1.2.4 1.1 1-.1.7.3 1.2.7 1.7.4-.4.9-.6 1.3-.2.6.6.1 1.1-.2 1.7.3.3.5.7.8 1 .4-.3.7-.5.9-.7.6.3.5.8.4 1.2-.1.3-.5.6-.8 1 .1.7.9 1.4.1 2.1.5.3 1.2.2 1.1 1.1-.6.1-1.2.3-1.5-.1-.5.4-1 .7-1.4 1 .4.5.7.9.9 1.3-.3.5-.2 1.2-1.1 1.1-.1-.5-.2-1-.4-1.7-.7.5-1.3 1-2.1 1.6.7.4 1.3.9 1.1 1.8h-1.5c0-.4 0-.7-.1-1-.4.4-.8.7-1.2 1.1-.3.3-.5.6-.7.9zm14.6 32.1c-.1-.8-.1-1.7-.3-2.5-.2-1.3-.4-2.5-.8-3.8-.1-.5-.2-.9-.1-1.2-.1-.6-.2-1-.2-1.5 0-.4 0-.7-.1-1.1-.2-.7-.3-1.3-.2-2 .1-.6-.3-1.2-.4-1.9-.1-.9-.1-1.8-.2-2.7v-3.2h-.7c0 .2.1.5 0 .5-1.7 1.1-2.7 2.9-4 4.4-.2.2-.3.4-.4.6-.2.6-.7 1-1.1 1.5-.6.7-1.6 1.1-1.7 2.2 0 .2-.3.3-.4.4s-.2 0-.3.1c-.7.7-1.5 1.4-2.2 2.1-.2.2-.3.4-.5.6-.5.5-.9 1-1.4 1.4-.2.2-.3.4-.5.4-1-.1-1.4 1-2.1 1.3-.4.2-.6.8-1.1 1-.2.1-.5.2-.7.2-.8 0-1.5.2-2.1.7-.1.1-.2.1-.4.2-1.1.2-2.1.5-3.2.9-.5.2-1.1.1-1.7.3-.4.1-.8.3-1.2.7-.4 0-.8 0-1.2-.1-.7-.2-1.3-.5-2 0-.2.1-.6.1-.8 0-1-.6-2-.2-3.1-.2-.8 0-1.6-.1-2.5-.1-.4 0-.8.2-1.3.3-.6-.2-1.3-.4-2-.6-.2.2-.4.3-.6.4-.7-.3-1.4-.4-2.2-.3s-1.7-.3-2.5-.6c-.5-.2-.9-.5-1.5-.3-.1 0-.3-.2-.4-.3-1.4 1.2-2.7.8-3.5-.9-.8-.1-1.3.5-2 .8-.4.2-.7.5-1.2.3-.2-.1-.6.1-.9.3-1 .5-2.1.4-3.1.9-.5.2-1.1.3-1.9.5q-.3.45-.9 1.5c-.3.2-.7.6-1.2.9s-.9.8-1.6.7c-.4 0-.8.3-1.1.6-.5.4-.9.4-1.5.3-.5-.1-1 .2-1.5.3s-.9.1-1.3.1c-.9 0-1.8-.3-2.7-.3-1.3-.1-2.6-.9-3.1-2.1-.1-.3-.3-.6-.4-.9-.4-.7-.5-1.5-.7-2.3-.1-.7-.2-1.4-.7-2-.2-.2-.2-.7-.2-1 0-.8-.2-1.6-.4-2.5-.3-.9-.8-1.9-.1-2.9.3-.5.2-1.3.4-1.9.2-.8.5-1.5.9-2.3.1-.2.3-.4.5-.5.5-.6 1.1-1.1 1.6-1.6.2-.2.4-.4.7-.6.8-.4 1.5-1.1 2.5-1.4.2 0 .3-.2.4-.4.5-.5.5-.5 1.4-.4.7-.9.2-1.8-.2-2.5s-.4-1.3-.2-2c-.2-.3-.5-.6-.9-1 0-1.1-.1-2.3 0-3.5.1-1.8 1.2-3.1 2.8-3.9.1-.1.2-.1.3-.1 1 .1 2.1 0 2.9.3 1 .4 2.1 1.1 2.3 2.4.1.9.3 1.7.8 2.4.2.4 0 1 .1 1.5.2.7.3 1.4.4 2.1s.4 1.4.6 2.1c1 .1 1.9.1 2.8.3.8.1 1.7 0 2.4.7.6-.4 1.1-.1 1.4.4.9 0 1.5-.4 2.2-.9.7-.6 1.5-1 2.2-1.5.1-.1.3-.1.4-.1.6 0 1-.3 1.4-.7.1-.1.3-.4.4-.3.9.1 1.5-.8 2.4-.8.1 0 .3-.1.4-.1.6-.6 1.3-.7 2.1-.8.2-.2.4-.5.6-.7 1.1-.3 2.2-.5 3-1.5.1-.2.3-.3.5-.4 1.1-.1 2-1 3.1-1.3.9-.2 1.8-.7 2.8-.7.2 0 .5-.3.6-.5.4-.9.7-1.8 1.1-2.6.1-.2.1-.3.2-.5.5-.5.7-1 .6-1.7 0-.7.1-1.2.8-1.6.5-.3.8-1 1.1-1.6.5-1 .9-2.1 1.4-3.1.5-.9 1.1-1.7 1.7-2.5.8-1.2 1.9-2.2 2.6-3.5.9-1.5 2.1-2.7 3.2-4 .7-.8 1.3-1.7 2-2.4.4-.5 1.1-.7 1.5-1.2.4-.3.8-.8 1.2-1.2-.9-.9-.6-2.1-.9-3.1 0-.1 0-.3.1-.4.3-.6.1-1.1-.2-1.7s-.6-1.3-.4-2c-.7-1.1-.2-2.5-.6-3.7-.1-.2-.1-.5-.2-.8.1-.1.2-.3.3-.5.2-.4.2-.7-.1-1-.4-.3-.4-.7-.4-1.1-.1-.7-.6-1.4-.5-2.1 0-.7 0-1.4-.3-2q-.3-.45 0-.9c0-.1-.1-.2-.1-.4-.3.4-.5.6-.7.9-.7-.1-.7-.5-.7-1s.3-.7.7-.7c.6-.9 0-1.7-.2-2.6-.4-.2-.8-.4-1.2-.7-.1-.7.2-1 .9-1.2-.1-.5-.3-1-.4-1.6-.1-.4 0-.8 0-1.3-.5-.3-1.1-.7-1.7-1 0-.3.1-.7.1-1.1-.3-.2-.7-.3-1-.5-.2-.1-.3-.4-.4-.6.2-.1.5-.4.7-.3.3 0 .6.2.9.4.2.1.5.2.7.3.9-1.9 1.1-4 2.6-5.8.7-.3 1.7-.7 2.8-.9.9-.2 1.8-.7 2.7-1.1.5-.2 1.1-.3 1.8-.6.1-.7.1-1.6.2-2.4q.15-.6.6-1.2c.1-.8.1-1.6.2-2.4 0-.3.2-.5.4-.7.4-.4.7-.9.8-1.5 0-.3.3-.7.5-1 0-.1.1-.1.2-.1.2-.9.8-1.6 1.2-2.4s.9-1.5 1.8-1.9c-.3-.9.7-1.1 1.1-1.6.9-1.2 2.3-1.9 3.4-2.9.2-.2.4-.5.6-.8.6.1 1-.3 1.5-.6.8-.5 1.7-.8 2.6-1.2.2-.1.5-.2.7-.4.5-.3.9-.6 1.5-.3.1 0 .3.1.3 0 .6-.8 1.6-.4 2.3-.9.2-.1.4-.1.6-.1.4-.1.8-.1 1.1-.2.6-.2 1.2-.4 1.9-.6.6.5 1.3 0 2-.2.8-.2 1.8.1 2.5-.5h.2c.9.4 1.8 0 2.7 0 1.6 0 3 .3 4.5.9.6.3 1.3.3 1.9.4s1.3.2 1.9.4c1.1.4 2.2.8 3.4 1 .1 0 .2.1.3.1.5.8 1.4.8 2 1.3l.6.3c.4.1.8.2 1.1.7l.3.3c1.2.4 2 1.3 2.7 2.4.2.4.7.5 1.2.7.2.4.5.7.7 1.1.1.2.2.4.3.4 1.2.3 1.4 1.7 2.4 2.2.2.1.2.4.4.4.9.2 1.2 1 1.5 1.7.2.3.3.6.4 1l.9-.3c1.2-.1 2.5-.1 3.7-.3.5-.1 1-.3 1.5-.4s1-.2 1.6-.3c.3-.1.6-.1.9-.2l1.2-.3h.8c.3 0 .7.2.9.1 1.4-.8 2.8-.3 4-.4.6.5 1 .9 1.4 1.2.7.6.8 1.4 1 2.1.2 1.2.8 2.3.4 3.6-.1.2 0 .5.1.7 1 1.6.9 3.4 1.1 5.1 0 .2-.1.4 0 .5.7 1.1.2 2.3.4 3.5l.3 1.8c.3 1 .5 1.9.4 3-.1 1 .3 2.1.5 3.2.1.6.2 1.1.3 1.7s.3 1.3.4 1.9c.3 1.1.8 2.2.6 3.6.9 1 .8 2.4 1.2 3.7.5 1.7.5 3.5.9 5.2.2.7.4 1.5.6 2.3.2.3.6.7.9 1.2.4.5.8.9 1.3 1.2 1.3.8 2.5 1.8 3.5 3.1.7.8 1.6 1.4 2.4 2.2.4.3.7.7 1.1 1.1.3.4.8.7 1 1 .6.8 1.4 1.2 1.9 2.1.4.6.8 1.4 1.6 1.7.2.1.4.4.4.6.3 1.2 1.2 1.9 2 2.6.4.3.7.6.9 1.1.4.7 1.1 1.2 1.6 1.9.6.8 1.2 1.6 1.8 2.5.1.2.3.4.4.5.9.5 1.3 1.3 1.7 2.1.1.2.2.4.4.6q.75.9.9 2.1c.1.6.5 1.3 1 1.8.6.6.6 1.4 1 2.1.1.2.1.5.3.7.9 1.1.9 2.5 1.3 3.7.6 2.3.9 4.6 1.8 6.9.1.3 0 .7.1 1 .1 1.2.8 2.1 1 3.3.2 1.4.8 2.8.7 4.3 0 .3 0 .7.2 1q.6 1.35.3 2.7c-.1.4.1.8.1 1.2v2.4c.4.5 1 1.2 1.4 2 .7 1.4.7 3 1.4 4.4.3.6.1 1.4.3 2.1.3.9 0 1.8.3 2.6.2.7.4 1.3.5 2v4.2s-.1 0-.1.1c0 .6-.1 1.2-.1 1.8-.1.6-.2 1.1-.3 1.7 0 .1.1.3 0 .3-.5.7-.9 1.4-1.5 2-.4.4-.8.9-1.4.7-.6.5-1.1.9-1.5 1.3-.3 0-.6-.2-.9-.1-.7.2-1.4.5-2.1.8-.2.1-.5.2-.7.3-.7.1-1.4-.2-2.1.2-.1.1-.3 0-.4-.1-1.1-.3-2.2-.7-3.3-.9-.7-.1-1.4-.4-1.8-1-.6.9-1.3.3-1.9.2-.2-.5-.4-.9-.6-1.4-.2-.4-.6-1-.5-1.3.4-.7-.4-.9-.3-1.4.1-.1.3-.2.3-.2-.1-.4-.1-.7-.2-1-.1 0-.3-.1-.6-.1-.3-.4-.4-.9-.3-1.4 0-.4.3-.9 0-1.4-.2-.3-.4-.8-.1-1.3.1-.2.1-.6 0-.8-.4-.9-.3-1.8-.2-2.7 0-.4-.2-.8-.1-1.2.2-1.3.6-2.6.9-3.8.1-.2.3-.4.3-.4-.4-.3-.7-.7-1.1-1-.2-.2-.4-.3-.5-.5-.2-.3-.4-.6-.5-.9-.2-.8-.6-1.4-1.2-2-.4-.3-.6-.8-.8-1.2-.5-1.1-.7-2.3-1.5-3.3-.7-.9-1-1.9-1.3-2.9-.3-1.1-.9-1.9-1.4-2.9-.3-.6-.8-1.2-1.1-1.9-.5-1.3-1-2.7-1.5-4.1-.1 0-.3-.1-.5-.2.1-.2.1-.4.2-.6-.5-.5-.9-.4-1.3-.1v1.5c.1.4.4.8.3 1.2-.2.7-.1 1.4.1 2.1.1.2 0 .4-.1.6 0 .2-.1.5 0 .7.6 2.3.8 4.6.9 6.9 0 .4.1.9.2 1.3l.3 1.5c.1.9 0 1.8.4 2.6.3.8.5 1.6.7 2.5s.2 1.8.2 2.7c0 .4.2.9.3 1.3.1.5.2 1 .4 1.5s.1 1.2.3 1.6c.2.6.2 1.2.3 1.8.1.7.1 1.4.3 2.1s.5 1.3.7 2c.1.7.1 1.5.2 2.3 0 .2-.2.4-.3.5-.7.7-1.6 1.1-2.5 1.4-.5.1-.9.3-1.4.5.2.4.3.7.5 1 .2.5.4 1 .7 1.4s.4.7.4 1.2c.2 1.1.3 2.2.7 3.2.3.8.7 1.6.6 2.5-.1.5.1.9.5 1.3.2.2.4.6.4.9.1.7 0 1.3.1 2 .1.8.4 1.6.6 2.5.4 1.9 1.1 3.7 1 5.6v.3c.4 1.2.8 2.5.7 3.8 0 .1 0 .2.1.3.6.8.4 1.8.6 2.7.1 1 .1 2.1.5 3 .1.1.2.3.1.4-.2.8.1 1.6.4 2.3.2.4.5.8.4 1.2-.1 1 0 1.9.3 2.9.4 1.5.5 3.1.7 4.7 0 .1.1.3.1.4-.5.6-.2 1.1-.1 1.7.1.5.5 1 .1 1.5 0 .1.1.3.1.4.2.5.4 1.1.4 1.6 0 .6.6 1.2-.1 1.7-.1 0 0 .3.1.4.2 1.2.3 2.4.6 3.6.1.5 0 .8-.4 1.1.8 1.6.4 3.3.8 5-.4 1.1.5 2.2.1 3.4.4 1.6.1 3.1 0 4.7.2.2.4.5.6.8-.1 1.1-.2 2.1-.2 3.2 0 1.6.1 3.1.1 4.7 0 .2.1.5 0 .6-.2.4-.1.7 0 1 .1.7.3 1.5 0 2-.4.8-.3 1.5-.1 2.3.1.4.5.8.1 1.3s-.3 1-.2 1.5c0 .5.3 1.1-.1 1.6-.1.1 0 .3.1.4.4.5.3 1 .3 1.6s.1 1.2.1 1.9c0 .1-.2.3-.3.6.7 1.2.3 2.5.4 3.7s0 2.3 0 3.5.5 2.3 0 3.5v.3c0 .5.1 1 0 1.4-.1.6 0 1.1.2 1.7.7 1.7.1 3.4-1.4 4.6.1.7.2 1.4.2 2.2 0 .2.1.6-.1.7-.4.6-.9 1.1-1.4 1.7-.2.2-.5.4-.7.6.3.4.5.8.6 1 0 .4-.1.8 0 1 .7 2 1.8 4 1.9 6.2 0 .4.4.8.4 1.2-.1 1.3.5 2.5 0 3.8-.1.3-.1.7.1 1 .3.5 0 1-.1 1.4-.3.7-.7 1.5-.7 2.2 0 .5-.1.9-.3 1.3-.3.6-.8 1.2-1.1 1.8-.4.9-1.2 1.4-2.1 1.7-.6.2-1.2.4-1.9.7h-3.5c-.5-.4-.9-.7-1.4-1.1-.6-.5-1.2-.9-1.8-1.4-.3-.3-.6-.7-.9-1-.4-.6-.8-.9-1.3-1.4-.6-.5-1-1.2-1.4-1.9-.4-.8-.8-1.6-.9-2.4-.1-.9-.7-1.7-.8-2.7-.2-1.3-.6-2.6-.8-3.9 0-.3-.1-.7-.3-.9-.5-.6-.3-1.2-.1-1.9-.5-.5-.7-1.2-.6-2 0-.5.1-1.1-.3-1.6-.2-.2-.1-.6-.1-.8-.1-1-.3-2-1-2.8-.3-.3-.7-.5-.9-.8-1.1-1.4-2.6-2.4-3.2-4.1 0-.1-.1-.2-.2-.3-.9-.5-.9-1.5-1.1-2.3-.1-.4-.2-.9-.5-1.3-.5-.7-.6-1.5-.8-2.3-.2-.7-.4-1.3-.6-1.9-.2-.4-.5-.8-.5-1.3-.1-.5-.3-1-.6-1.4s-.4-.9-.4-1.4c-.1-1.7-.6-3.3-1.2-4.8-.1-.1 0-.3 0-.5s.1-.5 0-.6c-.7-.5-.6-1.3-1.1-1.9.2-.2.3-.4.4-.7-.2-.6-.4-1.1-.7-1.7-.1-.3-.3-.6-.3-.9 0-1.2-.5-2.3-.8-3.4-.2-.6-.1-1.3-.1-2 0-.4 0-1-.2-1.3-.6-.8-.5-1.6-.3-2.4.1-.5 0-1-.2-1.5-.8-1.5-.9-3.2-1.2-4.8-.1-.5-.3-1-.4-1.6-.4-1.6-1-3.2-1.2-4.8-.1-1-.4-1.8-.9-2.7-.2-.4-.2-1-.3-1.5-.1-.3-.1-.7-.3-.9-.6-.9-.7-2-.7-3 0-.4-.1-.7-.3-1.1-.3-.5-.5-1.1-.7-1.7-.2-.8-.4-1.5-.9-2.1-.3-.3-.3-.8-.5-1.2-.2-.8-.2-1.7-.8-2.4 0 0-.1-.1-.1-.2.1-1.2-.6-2.3-.7-3.5-.1-.9-.5-1.8-.8-2.7-.3-1-1-1.9-.8-3 .1-.2-.3-.5-.3-.8-.2-.9-.4-1.7-.7-2.6-.2-.9-.5-1.7-.8-2.5-.6-1.6-1.2-3.2-1.7-4.9-.2-.9-.3-1.7-1-2.4-1 0-1.2.8-1.5 1.5.2 1 .3 2.1.2 3.2 0 .1-.1.3 0 .4.5.9-.2 1.7-.2 2.6 0 .3-.2.5-.3.6.1.5.2.9.2 1.3 0 .8-.3 1.5-.1 2.3.1.7-.3 1.4-.8 1.9.6 1.1.4 2.2 0 3.3-.2.5-.3 1-.4 1.6 1.4.5 2.7 1 3.2 2.3.5 1.1 1 2.3.1 3.5.5.7.8 1.3.3 2.1 0 .1-.1.1-.1.2.2 1.4-.5 2.8-.4 4.2 0 .4-.1.7-.2 1.1-.1.8-.3 1.7-.3 2.5 0 .4 0 .7-.2 1-.1.2-.1.4-.1.6.2 1.4-.3 2.7-.3 4v1.1c0 .2 0 .5-.1.7-.3 1-.6 2.1-.4 3.2.1.3-.2.6-.4 1 .3.5.2 1 .2 1.6-.2 1.3-.9 2.6-.9 3.9 0 1.4-1 2.3-1.3 3.6 0 .1-.1.3-.2.4-1.2.5-1.7 1.6-2.6 2.4-.2.2-.5.3-.7.4-.3.2-.9.1-1.1.7 0 .1-.4.1-.6.2-1 .1-1.9.3-2.9.4-.3 0-.6 0-.8-.1-.4-.1-.8-.3-1.2-.3-.6 0-1-.3-1.3-.7-.3-.5-.7-.8-1.2-1.1s-1.3-1.4-1.5-1.9c-.1-.3-.2-.5-.2-.9-.6.1-1.3-.1-1.9.3-.2.2-.7 0-1-.1s-.6-.2-.8-.2c-2.8 0-4.9-1.6-7.3-2.7-.8-.4-1.6-.6-2.2-1.3-1.1-1.3-2.8-1.7-4.1-2.8-.5-.4-1.1-.8-1.6-1.3-.7-.8-1.7-1.2-2.6-1.9 0-.2-.1-.4-.1-.7-.9-.5-1.4-1.4-1.5-2.8 0-.3-.1-.6-.4-.9-.6-.7-.7-1.6-.3-2.4.2-.4.2-.7 0-1.1-.1-.2-.2-.5-.2-.8 0-.8.1-1.5.1-2.3 0-.2-.1-.5-.3-.7.1.6-.1 1.1-.8 1.2-.5.1-1.1-.2-1.2-.6s.1-.8.7-.9q.6-.15 1.5-.3c.2-.8.5-1.8.6-2.7s-.2-1.8-.1-2.7c0-.8.2-1.7.2-2.5s.2-1.6-.6-2.2c0-.8 1.1-.8 1.1-1.6-.1-.6-.1-1.2-.1-1.8-.2-.2-.4-.4-.7-.6.1-.4.1-.7.2-1.1.3-.2.5-.4.7-.6.1-.9.2-1.6.3-2.4-.7-.1-1.1-.5-1.2-1-.1-.7.2-.9 1.3-1.3 0-.8.8-1.6.3-2.6-.7.1-1.5.3-1.9-.7.2-.7.7-.9 1.4-.9.6 0 .6 0 .9-.3.1-1.1.2-2 .3-3 .1-.6.4-1.2.5-1.8 0-.1.1-.2 0-.2-.5-1 .2-1.9.4-2.8 0-.2.1-.4 0-.6-.3-1.5.1-2.9.4-4.3.1-.5 0-1.1-.2-1.7-.1.3-.2.5-.4 1-.3-.3-.7-.5-.8-.8-.2-.7.5-.8.9-1.4.2.3.4.5.6.7.5-.5 0-1-.1-1.4.1-.6.3-1.1.4-1.7-.7-.1-1.3-.2-1.9-.3-.1-1 .2-1.2 1.5-1.3.1.3.3.6.5 1 .1-.4.2-.7.2-1 .1-1.2.1-2.3.2-3.5.1-.8.3-1.5 0-2.2 0-.1-.1-.3 0-.3.6-.7.3-1.6.6-2.3.2-.4 0-1 0-1.5l-.6-.3v-1.1h.9c.2-.9.4-1.8.7-2.9-.5.1-.7.2-1 .2-.5-.2-.7-.9-.4-1.7h1.3c.3-.7.3-1.6.4-2.4.1-.6.1-1.2.2-1.8v-.1c-.7-1 0-2.2-.5-3.3-.4.5-1 .5-1.5.2-.3-.1-.4-.6-.6-.8.3-.9 1-1 1.7-1.2-.3-.7-1.2-1.3-.6-2.2-.3-.3-.5-.6-.9-.9.1-.3.3-.7.4-1-.2-.6-.4-1.1-.6-1.6z"/><path d="M78.6 124.2c-.4.3-.7.5-1 .8-.3-.1-.6-.3-.8-.4-.2-1.8.2-2.2 1.9-1.5v1.1M73.1 180.6l1.3 1.3c-.3.4-.5.6-.7.9-.5.5-1.2.3-1.4-.3s0-1.3.8-1.9M75.4 154.2c-.4-.3-.7-.5-.9-.8-.5-.7-.2-1.3.7-1.4.2 0 .5 0 .8.1.5.1.7.5.5 1-.2.4-.6.7-1 1.2M76.4 117.1c-.4.9-1 1.1-1.8.8l-.3-1.2c1-1 1.6-.9 2.2.4M58.6 41.4c-.3.6-.7 1.1-1.5 1-.6-.1-.8-.4-.7-1.2.1-.5.3-.8.9-.6.5.1 1.1-.1 1.3.8M59.5 58.4c-.7-.4-1.2-.9-1.1-1.6.1-.8.9-.6 1.4-.9.6.9.5 1.7-.3 2.5M78.5 137.3c0 .6-.4 1-.9 1s-.9-.5-.9-1c0-.6.4-1.2.8-1.2.5 0 1 .5 1 1.2M75.2 160.6c.6.2 1.1.5 1.1 1.3 0 .6-.4 1-1 1.1-1.1-.8-1.2-1.5-.1-2.3M75.4 167.5c-.9-.8-.9-.8-1.1-1.6.6-.2 1.2-.4 1.9-.5.4 1.4.3 1.9-.7 2.1M56.6 45.1c.5.1 1 .1 1.4.2.4.9.4.9-.5 1.7-1.8-.5-1.7-1.1-.9-1.9M73.1 189.6c.9.6.9.6 1.2 1.6-.2.2-.5.4-.8.6-.4-.1-.7-.3-1-.4-.6-.3-.7-.6-.2-1zM71.7 186.2c.4-.1.7-.1.9-.1.2-.3.4-.6.6-.8.5 0 .6.3.7.6v.6c0 .4 0 .8-.5.9-.3 0-.8-.1-1.1-.3-.2-.2-.3-.5-.6-.9M78 147c-1 0-1 0-1.4-1 .3-.3.5-.6.8-.9 1.5.3 1.5.3.6 1.9M74.1 168.5c-.4.4-.9.7-1.2 1.1-1.1-.7-1.1-1-.2-2 1 .1 1 .1 1.4.9M56.3 54.9c.5-.4.8-.6 1.3-1 .5.1.7.3.7.8 0 .6-.1.7-1.3 1-.2-.3-.5-.6-.7-.8M72.3 172.2c1-.1 1-.1 1.5.8l-.3.9c-1.3.2-1.6-.2-1.2-1.7M74 105.8c-.2.2-.4.5-.6.6-.3.1-.7.1-1 0-.4-.2-.6-.6-.4-1 .2-.2.6-.5.9-.5.5 0 .9.2 1.1.9M59.5 62.4c-.2-.1-.4-.1-.6-.2-.1-.1-.2-.2-.4-.3.1-.4.2-.7.3-1.1.8-.2 1.3-.1 1.5.4.2.6-.1 1-.7 1.2M73.8 177.9c-.4.2-.8.4-1.2.5-.7-.8-.7-.8.1-1.9 1 .2 1.2.5 1.1 1.4M58.3 37.6c-.5.1-.9.2-1.4.3-.1-.6-.7-1-.2-1.5.2-.2.5-.3.7-.3.4 0 .8.7.9 1.5M79.9 129.3c.2.1.2.1.3.1.2.1.4.3.7.5-.1.4-.3.9-.5 1.3-.7.2-1-.2-1.2-.7-.2-.6.2-.9.7-1.2M60.2 51.8c0 .6.1 1.1.1 1.6-.8.3-1.3-.3-1.7-.6-.3-.2 0-.8.4-.9h.5c.2 0 .3-.1.6-.1M76.4 112.7c-.3.2-.4.3-.6.4-.4.3-.9.5-1.1.1-.2-.3-.2-.8-.2-1.2.1-.4.4-.5.8-.3.4.3.7.6 1.1 1M54.8 33.7c1 .4 1.2.8.9 1.5-.2.5-.7.6-1 .2-.5-.5-.4-1.2.1-1.7M78.6 119.1v.8c-.4.1-.8.2-1.2.4-.3-.4-.5-.7-.8-1.1.7-.7 1.4-.4 2 0M59.5 47c.8.4.8.4.6 1.4-1.1.6-1.1.6-1.6-.3 0-.1.1-.1.1-.1h.4c.1-.3.2-.6.3-.8h.1M76.9 142.4c.1-.5.2-1 .3-1.4.5.1 1.1-.2 1.5.6-.1.2-.2.6-.4.9-.5 0-.9-.1-1.3-.1M54.8 44.6c-.1-.7-.4-1.4.6-1.7.3.3.9.5.7 1.1-.2.5-.6.7-1.3.6M74.6 156.7c.5.1.7.1 1 .2.2.1.6.2.6.4.1.3-.1.6-.5.7-.1 0-.2.1-.4.2-.3-.2-.5-.4-.9-.6 0-.3 0-.6.1-1M72.4 163.4c1.1 0 1.1 0 1.7.7-.5.2-.8.9-1.5.6-.4-.2-.4-.4-.2-1.3M57.4 51.2c-1-.8-1-1.3-.2-1.6.2-.1.6 0 .8.1.1.1.1.5.1.7-.1.3-.4.5-.6.8M75.6 108.9c-.6.2-1 .2-1.3-.2-.1-.3-.1-.7 0-.9.2-.4.6-.3 1-.2.1.4.2.9.3 1.4M73.4 158.6c.2.4.3.8.5 1.3-.2.1-.3.3-.5.4-.4.2-.8 0-.8-.4 0-.5-.1-1.1.8-1.2M60.9 60.2c.1-.7-.3-1.4.7-1.7.2.5.4 1 .6 1.7-.5 0-.8 0-1.3-.1M77.8 127.1c.3.4.5.8.7 1.1-.1-.1-.3-.1-.4-.2-.3.3-.5.6-.7.8-.2-.5-.2-1 .4-1.7M77.6 133.5c-.6 0-.7-.3-.8-.6-.1-.5.2-.7.6-.7s.8.1.7.5c-.1.3-.4.6-.6.8M56 39.3c-.5.3-.9.4-1.3.7-.2-.5-.3-.9-.4-1.3.9-.5 1.1.2 1.7.6M57.5 60.1c-.2-.5-.3-1-.5-1.6.8-.1.9.5 1.1.9.1.2-.2.5-.3.7zM73.8 110.9c-1 .1-1 .1-1-.9.9-.1 1 0 1 .9M143.3 89.1c0-.3-.1-.6-.1-1.1.5-.1.9-.3 1.4-.4.6.3.7.8.8 1.4-.3.2-.5.4-.8.6-.3-.1-.6-.1-.9-.2l-.3-.3M126.7 180.7c0-.9.6-1.1 1.4-1.2.5-.7 1-1.5.7-2.7.5.1.9.1 1.3.1v1.9c0 .2-.1.6-.3.7-.6.3-.7.9-.8 1.4-.9.5-1.6.3-2.3-.3M81.5 185.3v1.5c-.4.2-.9.4-1.4.6-.2-.4-.3-.8-.5-1.1-.2-.4-.2-.7.1-1s.7-.5 1.1-.3c.2.1.4.2.7.4M124.2 164.7c.5-.9 1.3-1 2.1-1.1.5-.1.6.8.3 1.3-.5.6-1.2.7-1.8.2-.2-.1-.3-.3-.6-.5M133.8 201.2c-.1-.1-.1-.2-.2-.4-.2-.4-.3-.8.2-1 .4-.2.9-.5 1.4-.2.4.3.6.6.5 1.1s-.5.8-1 .7c-.3 0-.6-.2-.9-.2M83.8 193.2c-.2.2-.5.4-.7.6-.5-.2-.9-.3-1.4-.5.4-1.2.8-1.7 1.6-1.6.6.1.6.3.6 1.4M81.5 182.2c-.7-.3-1.4.7-2.2-.1.2-.4.4-.9.6-1.3.3-.1.7-.2 1-.3.8.7.8.7.6 1.7M133 190.2c-1.1.1-1.5 0-1.7-.6q-.3-1.05.9-1.5c1 .8 1 .8.8 2.1M129.7 188.1c-.7-.6-.9-1.2-.5-1.7.3-.3 1-.5 1.4-.2.5.3.6.7.1 1.8-.3 0-.6.1-.9.1M81.7 166.4c0-1.5.3-1.7 1.8-1.2.3.7.3 1.1-.1 1.5-.7.6-1-.4-1.6-.4M126.9 171c.3-.2.6-.4.9-.7.9.3 1.2.6 1.1 1.2-.1.4-.5.9-1 .9s-.8-.3-1-1.4M125.1 170.2c-.6-.7-.8-1.2-.5-1.6.2-.4.6-.6 1-.4.5.2.8.5.8 1 0 1-.9.6-1.3 1M85.6 146.8c-.3 0-.5.1-.7 0-.4-.1-.7-.3-.6-.8.1-.3 0-.6 0-1.1.5-.1.9-.1 1.3-.1.5.7.4 1.3.1 2M133.3 196c.2-1.1 1-1 1.8-1 .2.7.3 1.3-.3 1.9-.6-.1-1.2-.1-1.5-.8M82.3 171.4c-.9-.9-.8-1.3.4-1.9.8.3 1 .7.9 1.2-.2.9-1 .4-1.4.7M88.3 139.6c-.6.5-1.1.5-1.7.3-.2-1.2.1-1.6.9-1.7.6 0 .8.2.8 1.4M128 174.7c1 .9.9 1.2-.1 2.2l-1.2-.9c-.1-.9.8-.9 1.2-1.4M129.1 182.9c.2-.5.4-1 .7-1.5.4.1.7.3 1.2.4-.1.6-.1 1.2-.4 1.5-.4.5-.9-.1-1.5-.4M84.4 158.5c.3-.1.5-.2.8-.3.8.5.9.6.6 1.3-.2.4-.4.7-.9.6-.6-.1-.7-.5-.5-1.6M81.6 177.2c-.4.3-.7.6-1 .8-.8-.2-.8-.9-1.1-1.4.5-1 1.1.1 1.7-.3.1.3.2.5.4.9M82.7 173.9c1.1.8 1.2 1 .8 1.8h-1.2c-.7-1-.7-1.1.4-1.8M82.1 162.2l.3-1.5c.6-.2.9-.1 1.2.5.2.4.2.8-.1 1.2-.5.5-.8.2-1.3-.1M132.8 194.6c-1.4-.4-1.4-.4-1.2-1.7h1.4c.1.6.2 1.2-.2 1.7M88.3 143.1c-.4 1.1-1 1.3-2 .8v-.8c.3-.5.9-.5 2 0M85.8 150.9c-.2.1-.4.2-.6.2-1-.6-1.1-.8-.9-1.2s.6-.6 1-.5c.5.1.6.6.6 1.5M123.3 161.5c1.1.1 1.1.1 1 1.6-.4.3-.7.6-1.4.3.1-.6.3-1.2.4-1.8M135.5 192.1c-.7.1-1.2.2-1.7.2-.1-.5-.2-.8-.4-1.3.4-.1.8-.2 1.3-.4l.7 1.4M79.7 191.3c-.1-1 .6-1.3 1.3-1.6.4.1.8.2.8.9-.7 0-1 1.2-2 .7M128.2 167.9h-.9c-.7-.3-.6-.8.1-1.8 1 .4 1.2.8.7 1.8M86 154.1c.2.5.1 1-.4 1.2-.3.1-.8 0-1.1-.3-.2-.2-.2-.6-.2-1 0-.1.5-.2.7-.2.3 0 .5.2.9.3M80 194.3c1.1-.2 1.5-.1 1.5.4 0 .4-.6 1.1-1 1.1-.5 0-.6-.3-.5-1.5M133.1 185.3c-.7.6-1.2.6-1.6.1-.4-.4-.2-.7.7-1.6 0 .2 0 .4.1.5v.6c.3.1.6.3.9.4M83.5 179.9c-1.1-.4-1.3-.8-1.1-1.3.2-.3.5-.5.8-.3.2.2.4.4.4.7.1.2-.1.5-.2.8M131.6 179.7c.9.4 1 1 .9 1.8h-1c0-.6.1-1.2.1-1.8M84.8 140.3c.8.8.8 1.2.2 2-.3-.2-.5-.4-.8-.7.2-.4.4-.8.6-1.3M136.5 199c-.3-.2-.6-.4-.8-.6 0 0 0-.1-.1-.2q.3-.45.9-.9c.4.7.4 1.2.1 1.8M84.9 189.7c.3.9.3.9 0 1.6-.8-.5-.8-.9 0-1.6M83.8 168c.3-.2.5-.4.7-.5.4.1.4.7.2 1.4-.6.1-.7-.4-.9-.9M86.2 147.7c.5.1.9.1 1.3.1v.7c-.4.4-.9.1-1.3-.9M82 188.8c.6-.5 1.1-.6 1.6-.4.1.6-.5.6-.8.8-.2-.1-.5-.3-.8-.5M88.3 84.1c.2 1.3.4 2.4.6 3.5 0-1.1.4-2.4-.6-3.5m31.8 15.7c.2.1.4.2.5.2 2.2-.5 4.4-1 6.5-1.5 0-.5-.1-1 0-1.4.3-.9 0-1.5-.4-2.2-.2-.3-.4-.6-.2-1.1.1-.2 0-.6-.1-.8-.7-1.4-.6-3-.9-4.5-.1-.5.1-1-.4-1.5-.2-.1-.1-.5-.1-.8V85c-.2-.9-.8-1.7-.6-2.8 0-.2-.1-.3-.1-.5-.1-.4-.1-.8-.2-1.3 0-.3 0-.6-.1-.9-.3-1.1-.5-2.2-.8-3.4-.6.1-1.3 0-1.8.3-.8.5-1.6.7-2.4.9h-.3c-.1-.3-.3-.5-.4-.8-.2.2-.6.3-.6.5-.1.5-.5-.5-.5.2-.7.2-1.3.8-2.1.9-.7 0-1.4.2-2.1.3s-1.4.3-2 .4c-.4.1-.9.1-1.3.1-.2 0-.4-.1-.6 0-1 .2-2 .4-3 .7-.7.2-1.3.3-2 .5-1.6.3-3.1.5-4.7.8-.9.2-1.8.4-2.6.5-1.1.1-2.3.2-3.4.3-.7.1-1.5.2-2.3.4.1.7.3 1.2.4 1.8.3 1.7 1.1 3.2 1 5 0 .8-.1 1.7.5 2.4.1.1.1.3.1.5l.3 1.8c.3 1.3.7 2.6.6 3.9 0 .2 0 .5.1.7.5 1 .9 2.1.7 3.3v.4c.4.8.5 1.7.3 2.6 0 .1 0 .1.1.3.2 0 .5 0 .7-.1.7-.6 1.6-.6 2.4-.5.2 0 .5 0 .6-.2.3-.6.9-.4 1.3-.5.4 0 .8.1 1.1-.1.8-.6 1.8-.5 2.7-.6.8 0 1.6 0 2.3-.3 1.2-.4 2.5-.7 3.8-.4h.5c1.1-.4 2.2-1 3.4-.6.1 0 .3-.1.4-.1.6-.1 1.1-.3 1.7-.6.4-.3 1.1-.2 1.7-.2.3 0 .5-.1.7-.1.7.2 1.2-.1 1.7-.5zM88.2 81.5c-.8-.9-.8-1.1-.3-1.8.8-.3 1.4-.6 2.1-.8.5-.1 1.1-.1 1.6-.2.3-.1.7-.3 1-.3.3-.1.7-.2 1-.1.5.2.7 0 1.2-.2.9-.4 1.8-.5 2.8-.8 1.1-.3 2.2-.6 3.3-.7.1 0 .2 0 .3-.1.6-.8 1.6-.7 2.4-.8s1.5-.2 2.3-.4c1.1-.3 2.2-.4 3.3-.8.8-.3 1.7-.3 2.6-.5 1.2-.2 2.3-.4 3.5-.6s2.3-.4 3.5-.7l1.2-.3c1.1-.4 2.2 0 2.8 1.1.1-.3.2-.7.4-1 .9-.6 1.7-.4 2.1.6.2.4.3.8.3 1.3 0 .7.6 1.2.5 2-.1.6.4 1.3.5 2 .2.7.3 1.4.4 2.1 0 .3 0 .6.1.9.1 1.4.5 2.7.9 4 .2.8.1 1.6.6 2.4.1.1 0 .3 0 .4-.3.6-.1 1 .2 1.5s.4 1.1.5 1.6c.1.7.2 1.5.2 2.3v.2c.2 1.1.5 2.3.7 3.4 0 .2.1.4.1.5-.2.4 0 .7.1 1 .2.7.1 1-.6 1.4-.6.3-1.3.5-1.9.8-.2.9-.5 1.9-.7 2.8-1.1-.1-1.9.6-2.9.3-.2-.1-.4.1-.6.2s-.4.2-.5.2c-1-.3-1.9.7-2.9.4-.5.5-1.2.3-1.8.5-.1 0-.3.1-.4 0-1.3-.3-2.5 0-3.7.4-.5.2-1.1 0-1.7 0-.2 0-.6-.1-.7.1-.4.7-1 .2-1.5.2-.4 0-.9 0-1.3.2-.9.4-2 .4-2.9.6-.6.1-1.2 0-1.8 0-2.3.2-4.7.4-7 .7-1.1.1-2.3-.2-3.3.4-.3.1-.7-.1-1-.1s-.6-.1-1.1-.1c-.1-1-.3-2-.5-3.1-.1-.4-.3-.7-.4-1.1-.2-1.1-.3-2.3-.5-3.4-.1-1.2-.1-2.4-.5-3.6-.3-.9-.4-1.9-.6-2.8-.1-.5-.3-1-.5-1.5s-.3-1-.2-1.6c.1-.7-.2-1.4-.4-2.1-.3-.7-.3-1.5-.4-2.2-.1-.6-.3-1.2-.5-1.8-.1-.3-.3-.6-.4-1-.3-1.1-.2-1.3.9-1.7.1 0 .1-.1.2-.2zM109.4 57c0 .2 0 .4-.1.5-.3.7-.7 1.4-.9 2-.9.1-1.6.2-2.4.3-.1 0-.3.2-.4.3-.2.4-.4.4-.8.3h-.5c-.6.1-.6.1-1.2-.4-.5.2-1.1.4-1.6.6 0 .2.1.4.1.6-1-.3-1.7.1-2.4.7-.2.2-.4.3-.7.3-1 .1-2 0-2.9.2-1.3.3-2.6 0-3.8.4-.8.3-1.8.2-2.7.2-.3 0-.6-.3-1.1-.5.1-.6.3-1.1.4-1.8.9 0 1.5-.9 2.4-.3.6-.6 1.3-.8 2.1-.5.1 0 .2.1.3 0l2.4-.6c.3-.1.7.1 1.1.1.4-.4.9-.9 1.7-.5.1 0 .3 0 .4-.1.4-.1.8-.3 1.2-.3.7-.1 1.3-.4 2.1-.8.2.1.5.4 1 .6.4-.1.9-.3 1-.9 1.1 0 2-.2 2.9-.6.7-.2 1.5 0 2.3 0M78.7 67.9q1.65.75.6 1.8c-.3.2-1.2.4-1.5.2-.5-.3-.4-1.1.1-1.5.3-.2.5-.3.8-.5M79.8 76.1v-1.2c.6 0 1.1 0 1.6.1s.8.6.6 1c-.2.5-.9.8-1.3.6-.3-.2-.6-.3-.9-.5M86.4 120.5c-1.4 1.2-1.5 1.2-2.3 0 .4-.5.4-1.3 1.2-1.3.7 0 .8.7 1.1 1.3M83 108c1.2.7 1.2.8.9 2.1-.5 0-1 .1-1.5.1-.4-1.3-.3-1.6.6-2.1M79.5 60.7c-.4.2-.9.4-1.4.6-.2-.6-.4-1.1-.6-1.6.5-.6.9-.6 1.5-.4.6.3.6.7.5 1.3M82.2 87.4c0-.7.1-1.4.9-1.8.3.2.6.4 1 .8-.7.4.2 1.4-.8 1.7-.3-.2-.7-.4-1-.6M83.4 92.5c-.5-.2-.9-.5-1.4-.7.2-.5.4-.9.6-1.3.6 0 1.1.1 1.4.7.2.3 0 .6-.7 1.3M82.5 105.7c-.2-.3-.3-.4-.4-.6-.1-.1-.2-.3-.3-.5.5-.5 1.1-.9 1.7-.6s.3.9.3 1.3c-.5.1-.9.2-1.4.3M80.8 72.4c-.4-.6-.7-1.1-.9-1.6.6-.8.9-.9 1.5-.5.5.4.4 1-.6 2.1M83.3 94.8c.2.4.5.7.5 1 .1.3 0 .8-.2.8-.3.1-.8.1-1.1-.1-.3-.1-.5-.4-.4-.8.1-.5.5-.8 1.2-1M77.7 63.9c.3-.2.6-.3.9-.5.3.3.6.5.9.8-.1.5-.1 1-.6 1.2s-.8.1-1-.4c-.1-.3-.1-.6-.2-1.1M76.7 61.4c.7.4.6 1 .5 1.6l-.9.3c-.6-.3-.5-.8-.5-1.5.1.2.2.3.3.5.2-.3.3-.6.5-.9M81.2 66.1c-.1.6-.3 1.1-.4 1.6-.8-.3-1.1-.7-.8-1.3.2-.5.5-.6 1.2-.3M83.7 100c-.1.3-.2.6-.4 1-.5-.1-.9-.3-1.4-.4.1-.5.1-1 .7-1.2.5-.2.7.1 1 .6M84.3 115.8l.3-.3c.1-.1.2-.3.3-.4.8.3.6 1 .7 1.7-.4.1-.7.1-1 .2-.1-.4-.2-.7-.4-1.1M79.9 80.2c.5-.3.9-.6 1.3-.9.5.1.5.5.5.9-1 .9-1 .9-1.8 0M84.4 102.8c-.2-1 0-1.2 1.2-1.2.1.4.2.7.2 1.2zM83.5 81.7c0 .3 0 .4-.1.6 0 .2-.1.3-.2.5-.2.1-.3.1-.5.1h-.5c-.2-1.1.1-1.4 1.3-1.3M85.3 110.8v1.8c-.4-.2-.7-.3-.9-.4-.1-1-.1-1 .9-1.4M76.7 67.8c-.7-.6-.4-1.3-.5-2.2.4.2.8.3.8.4.1.6.3 1.2-.3 1.8M82.9 114.3c.1-.5.2-1.1.2-1.7 1 .2.7.9.7 1.4-.2.1-.5.3-.7.4-.1 0-.2-.1-.2-.1M110.8 57.7c0 .4 0 .7-.1 1-.4 0-.8.1-1.2.1 0-.3 0-.6-.1-.8.4-.1.9-.2 1.4-.3M84.7 106.4c.2.1.4.2.7.3v1c-.1 0-.2.1-.3.1-.6-.2-.6-.4-.4-1.3M86.3 122.4c.4-.1.7-.2 1-.3v1.4c-.7 0-.6-.6-1-1M152.3 73.9c.4.2.7.4 1 .5.3.2.5.4.8.5-.2.4-.5.8-.7 1.2-1 0-1.2-.1-1.5-1-.1-.4-.3-.7-.7-.9-.3-.1-.5-.3-.7-.4-1-.6-1.1-1.2-.2-2 .1-.1.2-.1.3-.2 1 .4 1.6 1.1 1.6 2.3M162.3 103.4c-.6-.2-1-.5-1.1-1.1-.1-.7.3-1.2.9-1.4 1.6 1.1 1.6 1.4.2 2.6M137.7 83.2c-.8-.4-1.4-1.2-1.1-1.7.4-.9 1.1-.3 1.7-.4.8 1.3.7 1.4-.5 2.2M145.4 86.7c.1-.3.1-.7.3-1 .1-.2.4-.4.7-.4.7-.1 1.2.4 1.2 1 0 .3-.2.7-.4.9s-.7.1-1 0-.5-.3-.9-.6M157.7 94.4c-.9-.4-1.2-.8-1.1-1.4.1-.4.6-1 1-1 .5-.1.8.3 1 .7.4.9-.3 1.2-.8 1.8M140.8 82c.4-.4.7-.8 1.1-1.3.4.1.8.3 1.1.4 0 .3.1.6.1.9 0 .8-.3 1.1-1 .9-.5-.1-.9-.3-1.2-1M137.6 71.8c.3.3.6.5.7.7.4.6-.1 1.7-.8 1.8-.2 0-.5-.1-.6-.3-.3-.3-.5-.7-.7-1.1.5-.4.9-.7 1.4-1.1M136.6 66.2c-.1.3-.3.7-.4 1.1-.4 0-.7 0-1.1.1-.2-.5-.5-.9-.7-1.4-.1-.2.1-.5.3-.6.4-.4 1-.1 1.9.9M157.6 85.3c-.2-.1-.3-.2-.4-.2l-.6-.6c.4-1.2.6-1.3 1.5-1.2.5 0 .7.2.8.7.2 1-.7 1-1.3 1.4M172.6 114.2c-.6-1.2-.6-1.3.1-2.1.4.1.7.2 1.1.3.6 1.8.4 2.1-1.2 1.8M158.6 94.6c.3 0 .6 0 1 .1.1-.1.2-.3.4-.7.4.5.7.9 1 1.2-.1.7-.6 1-1.1 1.2-1.2-.6-1.3-.7-1.2-1.8M163.2 86c.6-.2 1.3-.4 2-.6.2.7.3 1.2 0 1.8s-.7.7-1.2.2c-.3-.3-.6-.7-.9-1 0-.1.1-.2.1-.3M147.1 64.9c-.5 0-.9-.1-1.3-.1-.4-.7-.4-1.3.1-1.7.3-.3 1.3-.2 1.6.2.5.7-.2 1.1-.3 1.6M138.7 79c1.5-.3 1.7-.3 2.1.7-.5 1-.5 1-1.7.9-.6-.4-.5-1-.4-1.6M164.5 94.1c.5.4 1 .7.9 1.4-.1.6-.6.8-1.1.9-1.3-.9-1.3-1.5.2-2.3M156.4 75.1c.3-.4.6-.9 1.2-.8.5 0 1.1.5 1.2.9 0 .5-.4.8-1.1.9s-1.1-.2-1.3-1M152.4 87.9c.4-.1.7-.2 1.1-.4.8.4.8 1 .7 1.7-.5.1-1 .1-1.5.2s-.7-.2-.6-.7c.1-.3.2-.5.3-.8M140.4 85h-1.2c.1-.6-1-1-.2-1.7.4-.3 1.3-.3 1.7 0s.3.6-.3 1.7M145.6 78.2c-.2-1.2.1-1.7.8-1.8s1 .2 1.2 1.4c-.5.8-1.3.4-2 .4M168.1 91.9c-.2-.4-.4-.7-.6-1.1.4-.8.8-1 1.4-.8.5.2.9.9.8 1.3-.1.5-.6.7-1.6.6M156.5 90.8c-.3.4-.6.8-.8 1.2-.8-.2-1.2-.5-1.4-1.2.3-.6.7-1.2 1.6-1 .2.3.4.6.7 1M150.4 90c.6-.3 1.1-.4 1.6.2.1.5.2 1.1-.4 1.4-.3.2-.8.4-1.2 0-.4-.5-.5-1 0-1.7M152.3 70c.8-.4.8-.4 1.7.2 0 .3 0 .7.1 1-.3.2-.6.5-1 .7-.9-.4-.9-1.1-.8-2M165.3 106.6c.4-.8.9-1.2 1.4-1.1s.7.6.5 1.9c-1.2.2-1.5.1-1.9-.7M156.6 87.8c.8 0 1.5-.3 1.9.4.2.2.1.7 0 1-.4.6-1.1.4-1.8.3 0-.5-.1-1-.1-1.6M149.6 66.4c-.3.4-.6.8-.9 1.1-.5-.2-1.2-1-1.2-1.5 0-.4.2-.6.5-.7h.6c.2 0 .4.1.6.1.1.4.1.7.2 1M172.1 99.9c.3-.7.9-1 1.5-1.1.6.2.8.6.7 1.1-.1.3-.3.7-.5.7-.6.1-1.3 0-1.7-.7M141.9 65.1c-.8-.3-1-.9-.8-1.6 1.1-.6 1.7-.5 1.9.1.2.5-.2 1.1-1.1 1.5M148.1 87.9c.6-.1 1.1-.2 1.7.2-.1.4-.2.8-.4 1.2-.1.2-.4.5-.6.5-.3 0-.6-.2-.8-.4-.3-.4-.3-1 0-1.5M155.5 74.1c-.4-.3-.7-.6-1.2-1 .1-.3.1-.6.2-1h1.4c.6.9.6 1.1-.5 2M149.6 86.3c.2-.2.3-.5.5-.6.4-.4 1.2-.4 1.5.1.3.4.1 1.2-.2 1.5-.3.2-1.1 0-1.5-.3l-.3-.6M142.2 85.4c1 .9.9 1.6-.2 2.2-.3-.2-.5-.3-.8-.5-.2-1.1-.1-1.5 1-1.7M138.2 69c-.5.3-.9.7-1.4.3-.8-.6 0-1.2-.1-1.8 1.2-.5 1.3.2 1.5 1.6M165.2 89.9c.2 1.1 0 1.5-.5 1.7s-1 0-1.4-.5c-.3-.4-.2-.8.2-1 .5-.2 1.1-.2 1.7-.3M165.3 81.4c.1 1-.1 1.4-.7 1.6-.4.1-.7-.1-.9-.4-.3-.4-.1-1.3.3-1.6.3-.3.5-.2 1.3.5M166.9 103.1c-1.5-.7-1.7-1.2-.9-2.2 1.6.5 1.9 1.2.9 2.2M139.2 60.5c1.1.4 1.1.4 1.5 1.8-.3.2-.7.4-1 .5-.9-.6-1-1.2-.5-2.4M154.8 78.4c-.6-.7-.7-.9-.3-1.4.3-.4.9-.6 1.3-.4.5.3.5.6.3 1.5-.4.1-.8.2-1.3.3M161 77.6c-.4.9-1 .6-1.6.6-.5-.9-.6-1.1-.1-1.5.5-.5 1-.5 1.3.1.2.3.3.6.4.8M167.1 89.3c-.6.1-1.1.2-1.6-.4.1-.3.3-.7.5-1 .2-.4.4-.7.9-.5s.8.8.6 1.2c-.1.2-.2.4-.4.6M171.9 89.3c-.5.1-1 .1-1.6.2-.1-.2-.5-.6-.4-.7.2-.4.6-.7 1-.9.5-.2 1.1 0 1.4.7-.1.2-.3.5-.4.7M160 83c-.3-.2-.5-.3-.7-.4s-.3-.1-.5-.2c0-.8.4-1.4 1.2-1.7.3.4.5.7.8 1.1l-.9 1.2M171.2 103.1c-1.4-.6-1.4-.8-.3-2.2 1.3.3 1.4 1 .3 2.2M154.9 82.7c-.4-.9-.3-1.5.1-1.8.2-.1.6-.1.8 0 .4.3.7 1.1.6 1.4-.1.4-.4.4-1.5.3M159.1 91.3c-.1-.9.1-1.5.5-1.5s.8.2 1 .4c.3.2.2 1.1-.1 1.3-.6.5-1 0-1.5-.2M169.7 94.5c0 1.4-.3 1.7-1.7 1.5-.1-.6-.3-1.3.4-1.8.5-.4.9.1 1.3.3M138.5 63.3v1.3c-.7.3-1.5.4-1.8-.2-.4-.6.2-1.1.7-1.5.4.1.7.3 1.1.4M172 111.4c-.3.1-.6.3-1 .4-.3 0-.7 0-.8-.1-.1-.2-.2-.7-.1-.9.2-.3.5-.6.9-.8.2-.1.6 0 .7.2.3.4.5.8.2 1.3M163.3 108.2c.8-.6 1.4-.6 1.9 0 .4.5.3.8-.5 1.5-1.2.1-.7-1.1-1.4-1.5M163.5 100.3c.2-1.3.3-1.4 1.5-1.3.4 1.1.4 1.4-.2 1.8s-.9 0-1.3-.5M140.7 71.3c-.4.2-.6.4-.9.6-.8-.4-1-.9-.8-1.4.2-.4.5-.6 1-.6.5.1.7.6.8 1.4M169.8 108.8c-.4.6-.8 1-1.5.8-.4-.1-.5-.5-.5-1.4 1-.5 1.3-.4 2 .5M138.6 75.5c.2-.5.3-.8.5-1.2.3 0 .5-.1.7-.1.3.1.7.2.8.4.1.3 0 .7-.2 1-.2.2-.5.5-.9.3-.3-.1-.6-.2-.9-.4M161.4 98.6c-.7-.8-.4-1.3 0-1.8 1.2-.2 1.5 0 1.5 1.3-.5.2-1 .3-1.5.5M136.7 78.1v-1.3q.9-.6 1.5 0c.2.2.2.5.2.8-.1.4-1 .7-1.7.6M143.3 83.3h1.5c.3.4.5 1 .1 1.4-.2.3-.8.3-1.2.3s-.7-.4-.5-.7c.4-.4 0-.7 0-1M161.6 92.3c.9-.1 1 0 1.2.6.2.5 0 .9-.3 1.1-.2.1-.7.1-1 0-.5-.3-.5-.6 0-1.7M166 91.9c.5.6 1.7.4 1.5 1.6-.3.2-.5.4-.8.6-.3-.1-.6-.3-.9-.4V92c.1 0 .1-.1.2-.1M171.9 96.9V98c-.4.1-.7.2-1.2.4-.3-.3-.6-.5-.8-.8.6-1.1.6-1.1 2-.7M141.4 69.3c-.2-.6-.1-1.1.3-1.6.3-.4.7-.5 1.1-.1.4.3.4.8.1 1.2-.3.3-.6.4-1.4.5M167.3 110.1v1.5c-.5.3-1 .4-1.4 0-.2-.3-.2-.9-.1-1.2.3-.6.9-.3 1.5-.3M157.1 79.1c1-.4 1.1-.4 1.9.3-.4.4-.3 1.3-1.2 1.2-.5-.1-.6-.5-.6-1.5M145.8 67.7c.3 0 .7-.1 1 0s.5.4.6.7c0 .2-.2.5-.4.7-.4.3-1 .2-1.4-.1-.4-.4-.3-.5.1-1.2M145.1 79.1v.5c-.1.7-.4 1.1-1 1.1-.5 0-.8-.5-.8-1.2 0-.5.3-.7.7-.6.3 0 .7.1 1.1.2M153.9 83.5c.2.7 0 1.3-.4 1.5s-.7.1-.9-.2c-.2-.4-.3-.8-.4-1.2.7-.7 1.2.1 1.8-.1M163.2 88.5c-.2.3-.5.5-.7.7-.3.3-.6.5-.9.2-.3-.2-.5-.5-.4-.9s.3-.7.8-.8c.5 0 .9.1 1.2.7M151.3 69c-.6.3-1 .3-1.3-.1-.3-.3-.2-.7 0-1 .4-.7 1-.5 1.7-.4-.1.5-.3 1-.4 1.5M134.4 61.8c.7-1.1 1.1-1.2 2.1-.3-.1.3-.3.7-.4.9-.8.2-1.3.1-1.7-.6M137.4 58.5c.6.3 1.2.5 1 1.2 0 .3-.4.6-.7.6s-.7-.1-.9-.3q-.45-.45.6-1.5M170.1 106.3c.2-.1.4-.3.6-.4s.3-.1.5-.2c.5.2.9.6.6 1.1-.2.4-.7.7-1.2.9-.1 0-.5-.3-.5-.5-.1-.2 0-.6 0-.9M153.7 78.9c.1.3.3.6.3.9.1.7-.3.9-1 .7-.2-.1-.5-.1-.8-.2-.1-1.1.1-1.2 1.4-1.3M150.3 76.5c.5-.3.8-.1 1 .3s.3.9.5 1.3c-.6.4-1.1.5-1.7-.1.1-.5.1-1 .2-1.5M143.1 70.8c.4-.4.6-.7.8-.9.2-.1.6-.2.9-.1.2.1.3.5.3.7 0 .3-.1.7-.3.8-.3.1-.7 0-1 0-.2 0-.3-.2-.7-.5M149.7 70.7c-1.1 1.3-1.1 1.3-2-.1.6-.9 1-.9 2 .1M134.8 74.1c1.7 1 1.7 1.2.3 2.1-1-.8-1.1-1.2-.3-2.1M140.8 77.5c.6-.6 1.2-1.1 1.9-1.2.3 1.1.3 1.2-.8 1.9-.1-.1-.3-.1-.5-.2s-.3-.2-.6-.4M162.6 78.9l.3.9c-.1.2-.3.4-.5.5-.7.2-1.1-.2-1.5-.7.4-.9.4-.9 1.6-.7M159.7 85.4c.7-.1 1 .3 1.2.7s.1.8-.4.9c-.3.1-.7.1-1.1.2-.4-.7 0-1.2.4-1.7M145.8 72.1c.9 0 .9 1 1.7 1v.3c-.4.3-.7.5-1 .7-1-.5-.9-1.2-.6-2M167.9 99.6c.1-.2.2-.2.2-.3.4-.3.9-.6 1.4-.2.1.1.2.4.2.6-.2.5-.4 1.1-1.2 1.1-.2-.3-.3-.7-.5-1.1M173.9 105.1c-.6-.3-1.2-.5-1.8-.8.5-.8 1.1-.8 1.8-.8.4.5.5 1 0 1.6M167 96.6c.1.3.1.5.2.7.2.7.1.9-.4 1s-1-.2-1-.7c0-.2 0-.4.1-.8.4-.1.8-.1 1.2-.2M168.4 103.3c.4.2.7.3 1 .5v.8c-.4.3-1.8.1-1.9-.2-.1-.2 0-.5.2-.7s.5-.3.7-.4M140.5 66.2c0 .7-.2.9-.7.9s-.9-.4-.9-.9c0-.4.6-.9.9-.9q.6 0 .6.9M148.1 78.9c1.2-.2 1.5.1 1.6.6.1.8-.6.7-1 1-.9-.8-.9-.8-.5-1.5M133.6 60.3c-.3 0-.6.1-1 .1-.1-.6-.2-1.1-.3-1.6 1.3-.4 1.5-.2 1.3 1.5M169.8 86.4c-.3.2-.5.4-.7.5-.4.2-.8.2-1.1-.2s0-.8.3-1c.3-.3.7-.3 1 .1.2.2.3.4.4.7M149.6 84.1c-.1.7-.6.9-1.1.9-.6 0-.6-.6-.9-.9.2-.3.4-.5.6-.8.5.3.9.6 1.3.9M143.6 65.4c.2-.1.4-.1.8-.2.1.4.2.8.2 1.2-.1.6-.4.8-1.3.7-.1-.5-.1-.5.4-1.6M135.2 56.4l.9.9c0 .6-.3.9-.9.8-.4 0-.7-.3-.8-.7-.1-.5.2-.8.8-1M170.1 93.1c.1-.2.3-.5.4-.7.2-.4.5-.6.8-.4.4.2.6.5.5 1-.3.8-.9 1-1.6.4-.1-.1-.1-.2-.2-.3M142.1 74.1c-1.1-.9-1-1.5.1-2 .8.8.8 1.4-.1 2M144.3 60.9c.3.3.5.7.8 1-.8.8-1.3.9-1.7.4s-.2-.8.9-1.5M161.2 84.5v-.6c0-.1 0-.2.1-.3.4-.4 1.3 0 1.9.7-.4.2-.7.4-1.1.7-.3-.2-.5-.3-.9-.5M166.7 83.2c.7.6.5 1.1.2 1.7h-1.1c-.2-1.2-.1-1.4.9-1.7M152.1 81.4c-.3.6-.4 1-.7 1.5-.4-.2-.8-.4-1.3-.6.2-.4.4-.7.6-1.1.5.1.9.2 1.4.3M147.5 82c-.3.4-.6.7-.9 1-.7-.3-.8-.8-.6-1.4s.7-.4 1.2-.4c.1.2.2.5.4.7M137.6 56c-.8-.7-.9-1.3-.2-2.1.6.4.8 1 .9 1.7-.2.1-.5.3-.7.4M141.6 58.8c.4.1.6.1.8.2s.5.3.6.5c0 .1-.2.4-.4.5-.4.2-.8.3-1.4.5.2-.7.3-1.2.4-1.7M148 75.3c.2-.4.4-.7.6-1.1.4.2.7.4 1 .6.3.8-.3 1-.9 1.2-.2-.2-.4-.5-.7-.8M158.1 69.9c0 .6.2 1.2-.4 1.8-.3-.2-.6-.3-1-.5.1-.4.1-.7.2-1 .4-.1.8-.2 1.1-.3M154.9 85.5c1.1-.3 1.1-.3 1.5.8-.2.5-.6.6-1 .4-.6-.2-.6-.7-.5-1.2M134.8 69.9c1.2 0 1.3.4.7 1.5-1.1 0-1.2-.3-.7-1.5M164.4 103.6c.3.5.6 1-.1 1.6-.4-.2-.7-.5-1.1-.7.1-.8.4-1.1 1.2-.9M132.4 54.2c.9.4.9 1 1 1.7-.3.1-.6.3-.7.2-.2-.1-.3-.4-.3-.7v-1.1M133.6 64.9h-.4c-.2-.1-.4-.1-.6-.2 0-.2-.1-.3-.1-.5 0-.1 0-.3.1-.5h1.1c0 .4 0 .8-.1 1.3M169 112.5c.1.2.2.4.4.7-.4.2-.7.4-1 .6-.6-.7-.5-.9.6-1.3M144.2 75.1q.45.15.6.3c.2.2.3.4.3.7 0 0-.3.3-.4.2-.2-.1-.5-.3-.6-.5-.1-.1 0-.3.1-.7M173 96c-.6-.3-.6-.8-.4-1.1.1-.1.5-.1 1-.2-.3.6-.4.9-.6 1.3M147.6 236.1l.5.5c.3.4.7.7.3 1.2-.4.4-1.4.5-1.8.2s-.4-1.3.2-1.6c.3-.2.6-.2.9-.3M147.7 240.5l.6 1.2c.2.4 0 .8-.3 1-.4.3-.7.1-1-.1q-.45-.3-.6-.6c0-.9.6-1.3 1.3-1.6M141.9 228.4l.9-1.2c1.1.3 1.2.4 1.2 1.1 0 .4 0 .8-.5 1-.8.2-1.1-.3-1.6-.9M139.4 220.1c-.9.5-.9.5-1.7.3-.2-.5-.2-1 .1-1.5s1-.5 1.3.1c.2.4.2.8.3 1.2M142.7 233.9c-.3-.7-.9-1.4-.2-2.1.9-.3 1.2.4 1.6 1.1-.4.4-.5 1.2-1.5 1M145.3 238.3q1.2 1.05.6 1.8c-.2.3-.5.5-.9.3-.8-.3-.8-.2-.8-1.3.3-.2.7-.5 1.1-.8M145.4 234c.9.8.9.8.5 1.9-.6.2-1.2.1-1.7-.3.1-.7.2-1.4 1.2-1.5M148.2 245.6c.3 1.4-.1 2-1.6 1.6-.1-.2-.2-.5-.4-.8.9-1 1.2-1.1 1.9-.8M136.3 214.1c-.3-.2-.6-.4-.6-.5 0-.5.1-1.1.2-1.6 0-.2.2-.4.4-.6.5.4 1.2.6 1 1.3-.1.5-.6.9-1 1.4M139.6 221.9c.8-.9.9-1 1.9-.7.1.5.3 1-.2 1.3-.1.1-.4.1-.6 0-.4-.2-1-.1-1.1-.7M139.9 225.4c.6.1 1.3 0 1.4.7 0 .2-.2.7-.4.8-.3.1-.9.1-1.1 0-.5-.4-.1-.9.2-1.4M145.7 231c-.7.3-1.1-.2-1.8-.3 1.1-.7 1.5-.6 1.8.3M105.9 16.2c-.5.1-1 .2-1.4.3-.4.8-1.1 1.4-1.1 2.4 0 .2-.1.4-.3.5-.9.7-1.2 1.6-1.4 2.8.4 0 .7-.1 1.2-.1.1.1.4.2.7.4.2-.3.4-.6.4-.8-.4-1 .3-.8.9-.8.2-.4.4-.9.6-1.3.2-.5.4-.9.6-1.4.1-.4.2-.8.3-1.3-.1-.1-.2-.3-.5-.6zm-3.2 25.9c.2-.2.3-.6.5-.9.2-.2.4-.5.6-.6 1.3-.3 1.9-1.6 3.2-1.9-.5-.3-.8-.5-.7-1.1.2-.9-.4-1.7-1.3-2-.3-.1-.6-.3-.8-.5l-1.2-.9c-.7-.6-1.8-.6-1.9-1.5-.8-.5-1.5-.9-2.2-1.2-.8-.3-1.5-.4-1.9-1.3-.6.2-1.1.1-1.6-.3-.4-.4-1-.5-1-.9.6-1.1 1.3-1.9 1.6-2.9.2-.9.8-1.4 1.4-1.9 0-.3.1-.6.1-.7.4-.3.7-.4.8-.7.7-1.3 1.4-2.7 2.1-3.9.3-.6.4-1.3 1.1-1.7.2-.1.2-.5.2-.8s-.1-.7-.2-1.1c-.1-.1-.2-.1-.4-.2-.6-.3-1.1-.5-1.6.1-.1.2-.5.2-.7.2-1.5.2-3.1.4-4.6.7-1 .2-1.2.3-1.4 1.4-.3 1.3 0 1.8 1.2 2.2.4.1.8.2 1.2.4-.6 1.2-1.2 2.3-1.7 3.4-.4.8-.7 1.5-1.5 2 0 .8-.1 1.5-.6 2-.3.4-.6.8-.8 1.2-.4.6-.7 1.2-.4 1.9.5.8 1.3 1.4 2.1 1.6.9.2 1.1.9 1.6 1.4.5.2.9.3 1.3.5.3.1.8.3.8.4-.1.6.4.7.7.7.6.1 1.2.2 1.2 1 0 .1.3.3.5.4.4.2.9.5 1.5.8-.6.4-1.1.7-1.4 1.1-.2.2-.4.6-.6.9-.4.7.1 1.2.4 1.8.5.8 1.4 1.1 2.3 1.2.6.1 1.3-.2 2.1-.3m-16.2-3.4c-.1-.6-.2-1.2-.4-1.8-.1-.4-.2-.9-.4-1.2-1.1-1.5-1.4-3.3-1.4-5.1 0-1.1-.2-2.2-.3-3.3 0-.3 0-.7.2-1 .3-.5.3-.9 0-1.3-.1-.1-.1-.3-.2-.5.6-.3 1.1-.7 1.6-.9.6-.2.8-.7.8-1.3 0-.9-.1-1.9-.2-2.8 0-.2-.3-.5-.5-.7-.5-.3-1-.6-1.6-.3-.7.3-1.6.1-2 1-.1.3-.7.4-1.1.6-.3.1-.7.2-.8.2-.4.7-.6 1.2-1 1.7-.3.4-.5.9-.2 1.4l.3.9c-.3.2-.5.4-.5.4-.1.9-.2 1.6-.2 2.4 0 .9-.2 1.7-.1 2.6.1.7.3 1.5-.2 2.2.3.3.5.6.7.8-.2.2-.3.5 0 .7.2.2.4.4.4.6-.2.7.3 1.2.4 1.7 0 .2.1.4.1.6.1.6.1 1.2.2 1.8 0 .1.1.2.2.2.3.3.5.5.3.9-.1.2.2.6.3.8.7.8 1.5 1.5 2.2 2.3.3.3.6.7 1 1 1.2.5 2.5 1.1 3.6 1.6 1.8-.1 3.4-.8 4.8-1.6.6-.8-.1-1.8.1-2.7 0-.1 0-.1-.1-.2-.6-1-2.2-1.8-3.4-1.5-.9.2-1.6 0-2.7-.1zm3.6 12.6c.1-.5.2-.9.3-1.4-.3.1-.7.1-1.1.2-.2-.6-.7-.7-1.3-.6-1 .2-1.8-.2-2.6-.4-.4-.1-.8-.2-1.3-.3-.9-.1-1.7-.6-2.6-.9-1-.4-1.9-.9-2.8-1.5-.3-.2-.7-.5-.7-.8-.1-.7-.5-1.1-.8-1.6-.4-.6-.6-1.2-.4-2l.6.3s.1-.1 0-.2c-.8-.9-.9-2.2-1.5-3.2-.5-.8-.9-1.7-.8-2.7 0-.4-.3-.9-.4-1.3-.3-1-.6-2.1-.9-3.1.4-.7-.3-1.2-.2-1.9s0-1.4-.1-2c-.2-1-.3-2 .2-3 .7-1.4.8-2.9 1.8-4.2.5-.7.6-1.7 1.1-2.4.8-1 1.2-2.3 2.6-3 .6-.3 1-1 1.5-1.6l.6-.6c1.3-.8 2.6-1.8 4-2.4.8-.4 1.5-.9 2.6-1 .6 0 1.2-.7 1.9-.7.3 0 .6 0 .9-.1.8-.3 1.6-.7 2.4-.9.5-.1 1.1.1 1.7.1.3 0 .6 0 .9-.1.5-.1 1-.4 1.6-.1 1-.5 1.9.5 2.9.1.6-.2 1.4.2 2.2.3.9.2 1.7.3 2.6.5l1.2.3c.8.3 1.6.7 2.4.9.9.2 1.6.8 2.4 1.3.7.4 1.4 1 2.1 1.2.8.3 1.5.7 2.2 1 .4.2.6.4.9.6.4.3.5.8.9 1.1s.6.9.3 1.5c-.4.8-.1 1.4.4 2.1.1.2.2.4.2.6.1 1.4.3 2.8.8 4.1.1.2 0 .4.1.6l.3 2.1c0 .2.1.4.1.6 0 1.7.2 3.3.6 4.9.1.4 0 .9.1 1.4v.4c.7 1 .3 1.7-.4 2.3-.1.1-.2.2-.2.4-.1 1.1-1 1.8-1.6 2.4s-1.3 1.2-1.9 1.9c-.6-.2-.5.7-.9.7h-.4c-.4.4-.8.7-1 1.2-.5 1-1.5 1.4-2.3 1.9-.5.3-1 .7-1.6.9-.6.3-1.1.9-1.7 1.1-.5.2-.9.7-1.6.5-.1 0-.2 0-.3.1-.9.4-1.7.9-2.7 1.1-.9.2-1.5.7-2.1 1.3-.9.1-1.9-.2-2.5.7-.6-.3-1-1-1.8-.8 0 .2.1.3.1.5-1.1.7-2.1 0-3.1-.1-.6.3-1.2.7-1.9.9s-1.4.3-2.2.5zM72.6 85.6c-.5.5-.7 1.2-1.4 1.1-.7 0-.8-.7-1.1-1.2v-.3c.2-.5.3-1.2 1-1.1s1.2.7 1.5 1.4M66.6 66.3c.9.3 1.2.8 1.1 1.4-.1.5-.5.9-.9.9-.5 0-1.2-.3-1.3-.7-.3-1 .5-1.2 1.1-1.6M68 89.5c-.1.8-.5 1.3-1.2 1.6-.6.2-.9 0-1-.6v-1c1-.7 1-.7 2.2 0M73.4 82c.9.4.9 1.2 1 1.9-.7.8-1 .8-1.7.1-.6-.7-.5-1 .7-2M43.2 103.7c.1-.4.1-.8.3-1.1.3-.5 1.1-.5 1.5-.1.6.5.7 1.3.2 1.7-.3.3-.7.4-1.1.1-.3-.2-.5-.3-1-.6M54.6 98.7c0 .5-1 1.4-1.6 1.4-.4 0-.9-.6-.8-1 0-.6.8-1.2 1.4-1.2.5 0 1 .4 1 .8M43.8 108.8c-.1-.5-.2-1-.3-1.6.3-.2.5-.4.8-.7.8.2 1.4 1.2 1.2 1.8-.2.5-.8.7-1.7.5M45.7 98.9c-.1.6-.6.7-1 .9-.5.2-1.2-.2-1.4-.7s0-1.1.6-1.2c.3-.1.7 0 .9.1.4.3.6.6.9 1M50.1 99.3c-.4.3-.7.5-1 .8-.9-.5-1.3-1-1.2-1.6.1-.5.5-.8 1-.8.6 0 .7.2 1.1 1.6M40.8 99.8c-.9.4-.9.4-1.7 0-.1-.5-.3-1-.5-1.5.6-.4 1.2-.4 1.7-.1.6.4.5 1 .4 1.6M53.8 95.6c-.7-.5-1.5-.6-1.7-1.5.4-.3.7-.5 1.1-.7.4-.3.7-.3 1.1 0 .4.4.5 1 .2 1.4-.2.3-.4.5-.6.8M43.1 96.7c0 .1 0 .3-.1.5-.2.3-.4.6-.6.7-.2 0-.5-.3-.8-.4-.1-.1-.1-.3-.2-.4-.4-.4-.4-.8-.1-1.2s.7-.5 1.2-.4q.6.15.6 1.2M44 111.2c1.2-.1 1.2-.1 1.5 1.5 0 .1-.1.1-.1.2-.3.2-.6.4-.9.7-1.1-.6-1.2-1.2-.5-2.4M67.5 95.2h-1.7c-.1-.7-.4-1.5.3-2 .3-.2.9 0 1.4 0zM40.9 100.7c.5-.4.7-1.1 1.5-.8.6.2 1 .8.9 1.2-.1.5-.6.9-1.3.9-.8 0-.7-.7-1.1-1.3M47.5 111H46c-.2-.4-.3-.7-.4-1.1.3-.3.6-.6.9-1l1.2.3c.3.6.2 1.1-.2 1.7M57.6 95.5c-.6 0-1-.4-.9-1 0-.6.4-1.1 1-1 .6 0 1.1.4 1.1 1s-.5 1-1.1 1M67.8 69.8c0-.7.4-1.2.9-1.2.6 0 1.1.4 1.1.9s-.7 1.3-1.3 1.3c-.5 0-.8-.3-.8-.9M38.8 108.2c.2-.5.3-.9.5-1.3.5.1 1 .1 1.6.2 0 .5.1 1 0 1.4-.1.7-.6.8-1.2.4-.3-.2-.6-.5-.9-.7M64.7 95.3c.7.5.6 1.2.6 1.8 0 .4-.6.7-1.1.6-.6-.1-.9-.6-.8-1.1.2-.6.5-1.1 1.3-1.3M43.1 110.2c0 .8-.2 1-.8 1-.7 0-1-.4-1-1.2s.1-1 .8-1 1 .3 1 1.2M50.2 91.1c.3 0 .6 0 .9.1s.5.3.9.5c-.1.3-.1.6-.2 1-.2.5-.6.8-1 .6-.6-.2-.9-.6-.7-1.1.1-.3.2-.7.2-1M40.6 104.4h-1.1c-.5-1.2-.5-1.5 0-1.8.4-.2 1-.2 1.3.1.5.4.4.8-.2 1.7M56.4 96.3l-.3 1.2-1.2.3c-.7-.8-.8-1.2-.3-1.8s.8-.6 1.8.2M38.7 112c.7-.3 1.2-.5 1.7-.7.3.6 1 1 .6 1.7-.3.5-.8.5-1.4.3-.2-.4-.5-.8-.9-1.3M68.4 64.4c.5.2 1 .5 1.5.7 0 1 0 1.1-.9 1.3-.5.1-.8 0-1.2-.8-.3-.6.1-.8.6-1.2M67.9 87.2c1.4-.8 1.6-.7 2 .6l-.6.9h-1.2l-.3-1.5M68.2 91.2c.6.1 1.1.2 1.6.3v1.3c-.9.4-1 .4-2-.1.1-.5.2-.9.4-1.5M72.8 88.7c-.1-.4-.2-.7-.4-1.1.3-.4.6-.7.9-1 .8.3 1.2.7 1.2 1.1-.1.5-.8 1-1.7 1M30 102.5c.6-.1 1-.2 1.5-.3.3.5.5.9.7 1.4-.7.3-1.3.5-2 .7-.1-.7-.2-1.2-.3-1.8M63.7 93c-.3-.8-.2-1.4.3-1.9.2-.2.9-.1 1 .1.5.5.3 1.1-.1 1.7h-1.3M49.2 95.5c-.2-.1-.4-.2-.6-.2s-.3-.1-.5-.1c-.2-.7-.3-1.3.3-1.9.6.1 1.1.3 1.4 1 .2.6-.1.9-.6 1.2M37.7 104.6c.4 0 .8.1.8.6s-.7 1.4-1 1.4c-.4 0-1-.7-1-1.1q0-.9 1.2-.9M42.8 106.6h-1c-.8-.9-.9-1.2-.5-1.7.3-.3.7-.5 1.1-.3.6.3.7.9.4 1.9M50.5 97.4c-.1-.5-.8-1.1-.2-1.6.3-.2 1-.2 1.4 0 .4.1.4.5.3.9-.2.5-.8.8-1.5.7M34 110.7c-.7.5-1.4.6-1.8.1-.1-.2-.2-.6-.1-.8.1-.4 1-.9 1.3-.8.4.1.6.6.5 1.4M59.9 91c.5.3 1.2.3 1.1 1-.1.5-.3.9-.8 1-.3 0-.7-.1-.8-.3-.3-.5-.1-1.1.6-1.7M69.8 95.9c.1.4.2.7.4 1.1-1.4.6-1.6.5-2.5-.5.6-.5 1.2-.7 2.1-.6M71 91c-.3-.5-.5-.8-.7-1.2.3-.6.6-1.1 1.3-.9.4.1.7.4.7.9 0 .7-.6.9-1.3 1.2M37.2 109.4c1-.4 1.6 0 1.7 1.2l-1.2.6c-.6-.8-.6-.8-.5-1.9M67.3 97.9v1c-.3.3-.7.6-1 .9-.8-.3-.8-.3-.7-1.5.4-.4.9-.8 1.7-.4M61.2 99.2c.1-.4.2-.7.3-1.1.4 0 .8-.1 1.2-.1.3 1.2.2 1.6-.4 1.8-.5.2-.7.1-1.2-.6M48.1 96.9c-.8.3-1.3.5-1.9.6-.2-.3-.3-.5-.4-.7-.3-.4-.1-.7.2-1q.45-.45.9 0c.3.3.6.6 1.1 1M59.4 97.7c0-.7-.2-1.2-.1-1.6.2-.4.7-.6 1.3-.4.1.4.7.8.3 1.3-.3.3-.8.4-1.5.6M71.4 71c.3.4.6.7.9 1.1-.4.3-.7.6-1 .9-.8-.4-1-.9-.9-1.7.3-.1.7-.2 1-.3M36.3 112.9c-.3.1-.5.2-.7.3-.5-.1-.8-.7-.8-1.5l.2-.2c.2-.1.4-.2.5-.2.6.1.8.6.7 1.7M62.1 95.3c-.7-.6-.9-1-.6-1.4.2-.4.6-.5 1-.4s.6.6.5 1.4c-.3.1-.7.2-1 .4M70.4 93.7c.7-.1 1.4-.2 1.7.8-.4.3-.7.6-1.1.9-1-.4-1.1-.6-.6-1.7M64 87c.4-.4.8-.3 1.2.1.3.3.2 1.2 0 1.5-.1.1-.2.2-.3.2-.1.1-.3.1-.4.1-.3-.6-.4-1.3-.3-2M35 108.7c-.8-1.3-.7-1.6.5-1.8l.8.8c-.4.4-.4 1.2-1.3 1M47.2 105c.1 1.3.1 1.4-1.1 1.4-.5-.8-.5-1.1-.2-1.5.5-.5.9-.2 1.3.1M32.8 100.3c1.3.3 1.4.7.6 1.7-.3-.1-.7-.2-1.1-.3-.1-.6-.1-.6.5-1.4M73.4 90.8c.5.9.6 1.1.3 2.2-.8.1-.8.1-1.3-.7.3-.4.6-.9 1-1.5M66 103.8v-1c1-.6 1.3-.4 1.7.9-.3.2-.5.3-.8.5-.3-.2-.6-.3-1-.5M32.1 105.3c.4-.3.8-.7 1.3-.5.4.2.5.7.4 1.2-.2.2-.5.4-.9.7-.3-.5-.6-.9-.8-1.4M63.3 89.6c0 .3 0 .6.1.9-1 .6-1.2.5-1.9-.6.8-.6.9-.6 1.9-.2M47.2 102c-1.2-.4-1.3-.5-1.2-1.6.1 0 .1-.1.2-.1h.8c.3.5 1 1 .3 1.7M34.8 103.8v-1.3c.5-.2 1-.3 1.3.2.1.2.2.6.1.8-.3.4-.8.6-1.4.2M73.9 78l-.3.9c-.1.3-.1.5-.2.8-.8-.1-1-.4-.9-1 .1-.7.6-.9 1.4-.7M30.5 106.9c.6.1 1 .2 1.4.3.1 1.2.1 1.3-1 1.6-.1-.6-.2-1.1-.4-1.9M49.7 103.3c-.5.2-.9.5-1.4.7-.2-.3-.4-.5-.6-.8.2-.2.3-.4.4-.5.6-.3 1.1.1 1.5.6M64.8 100c.7 1 .7 1 0 1.7l-.3-.3c-.1-.1-.1-.2-.1-.4-.2 0-.3.1-.5.1-.4-.3-.1-.8.8-1.2M37.4 101.8c-.8-.5-.9-.8-.6-1.1.1-.1.5-.2.6-.2.4.1.4.4 0 1.3M82.9 200.9c.8.3.9.6.8 1.3q-.15.6-.6.6c-.4 0-1-.3-1.1-.7-.2-.8.6-.9 1-1.2"/><path d="M116.2 89.3c.7-.9 1-1 2-.6.7.3 1.3.7 1.6 1.4.2.5 0 .8-.4 1-1.3.7-2.7.9-4.2.9-.9 0-1.9 0-2.8.1-1.1.1-2.1.5-3.2.7-.6.1-1.1.6-1.8.3-1 .5-2.1-.1-3.2.5-.7.4-1.6.5-2.4.2-.4-.1-.9 0-1.4 0-.1-.4-.3-.8-.4-1.1.6-1 1.5-1.4 2.5-1.3l1.2-.3c1.2-.1 2.4-.2 3.6-.4.2 0 .4-.2.6-.3.4-.1.7-.2 1.1-.2.7 0 1.4.1 2.1-.3.5-.3.8 0 .9.6 1.3-.9 2.7-1.2 4.3-1.1M108.3 79.7h.9c.6 0 1 .6.9 1.1-.2 1-.4 1.9-.9 2.8-.3.6-1 1-1.5.9-.7-.2-1-.8-.9-1.6v-.1c-.4-1.4.6-2.1 1.4-3.1M101.9 86.1c-1.2.5-2 .3-2.7-.6 0 0-.1 0-.1-.1-.4-.6 0-1.3.1-1.8s.6-.8 1.1-.9c1.5-.1 2.4 1.1 1.8 2.6-.1.3-.2.5-.3.8M14.9 148.2c.3.1.6.4.8.3.8-.3 1.7.2 2.5-.3.4-.2.9-.2 1.3.2.2.2.6.4.8.6.4.3.5.9.1 1.2-.9.9-1.9 1.7-2.8 2.5-.6.9-1.1 1.8-1.8 2.9 0-.1 0 .2.1.4-.2.2-.3.4-.5.6.4 1.6.1 3.1-.6 4.5-.7 1.3-1.6 1.4-2.8.5 0-3.4-.5-6.7-.2-10.2-.3 0-.5 0-.7.1-1.1.5-2.3.7-3.5.3-.8-.2-1.3-.8-1.1-1.7.1-.4.2-.8.4-1.2.3-.6.5-.6 1.4-.4.4.1.9 0 1.5 0 .4-.7 1.1-1.4 1.1-2.4 0-.2.2-.5.3-.7s.3-.6.2-.8c-.5-1.2.1-2.2.2-3.3 0-.2 0-.5-.1-.7-.2-.7.1-1.3.4-1.8.2-.4.6-.6 1.1-.5.4.1.7.3.9.7.5 1.2.5 2.4.4 3.6 0 .4.1.9.1 1.3 0 .2.2.4.1.6-.4 1.2.3 2.4.2 3.7M36.4 158.6c.1-.1.3-.3.4-.3.9-.1 1.1-.7 1.1-1.4 0-.5.2-1.1.3-1.6 0-.2.1-.4.1-.6-.4-.7 0-1.3.3-1.8-.4-1.1-.4-1.1.2-3.4.3-.2.6-.4 1-.6.3.2.7.4 1 .7.4.4.7.9.4 1.6-.3.5-.2 1 0 1.6.1.4.1.9.2 1.3v4.4c.9.3 1.5-.1 2.1-.4.4-.2.8-.3 1.1-.3.4 0 .8.3 1.1.5.7.6.7 1.3-.1 1.8-.3.2-.6.2-1 .3-.9.3-1.6.9-1.8 1.9s-.6 2-.9 3c-.1.3-.1.5-.1.8 0 .8-.3 1.2-.8 1.4s-1.4-.1-1.7-.6c-.2-.3-.4-.7-.4-1.1-.1-1.2-.1-2.3-.1-3.5 0-.5-.2-.9-.3-1.4-1.3-.1-1.8-.9-1.8-2.3M166.7 9s0 .1-.1.1c0 0 0 .1 0 0h.1l-.1-.1zm-5.5 0h-.1v.3h.1zm3.9 8.4c-.3-.6-.7-1.1-.4-1.8v-.2c-.3-.7 0-1.5 0-2.2V12c0-.4-.1-.8-.1-1.3-.1 0-.3 0-.5-.1-.3.5-.5 1-.8 1.4-.4.5-.9 1-1.3 1.5l-1.2 1.2c-.4.1-.5-.3-.6-.6-.1-.2-.2-.5 0-.7.4-.5.8-1.1 1.3-1.6.4-.5.9-.9 1.1-1.6-.9 0-1.7.1-2.7-.1-.5.5-1.3.3-1.9.3-.5 0-.9 0-1.5-.1.1 0 0 0 0 0-.2-.2-.5-.3-.4-.6s.5-.8.8-.8c.6 0 1.2-.3 1.9 0 .2.1.5-.1.8-.1.2-.1.3 0 .4.2 0 .1-.1.1-.1.2h.1V9c1-.1 2-.2 3.1-.3.2 0 .4.1.7.1-.9-.8-1.7-1.5-2.5-2.3.1-.3.2-.7.3-1.1h.9s.1.2.2.3c.4-.1.6.2.9.5.2.2.3.5.5.7.1.1.3.1.4.2.4-.5.2-.9 0-1.4.2-.5.5-.9-.1-1.4.3-.4.3-.8.2-1.2-.1-.2-.1-.5-.1-.8 0-.7.4-1.1 1.1-1.2.5.4.8.9.9 1.6-.2.3-.2.6-.1 1s0 .9-.1 1.4c-.1.4 0 .8.2 1.2.4-.5.9-.9 1.3-1.3.3-.4.5-.8 1-1 .2-.1.2-.4.4-.6s.5-.4.7-.6c.8.6.8 1.1.2 1.6-.3.3-.5.9-.9 1.1-.6.4-.7 1.2-1.4 1.7-.5.3-.8.9-1.1 1.7l.6-.6c.8.1 1.6-.3 2.5-.1.1 0 .4-.2.6-.2.1 0 .2.2.4.3.1-.1.4-.2.5-.2.2.4.3.8.5 1.3h-1.6c-.2 0-.4.1-.5.2-.1 0-.3.2-.4.1-.7-.1-1.2.2-1.9.2h-.1c-.1 0-.2.1-.3.1 0 .1.1.1.1.2 0-.1.1-.2.1-.3.1.1.3.2.4.4.4.5.7 1 1.2 1.6-.3-.1-.4-.1-.5-.2 0 .4.2.6.5.8l.6-.3c.1.1.2.2.3.4-.4.4-.5.8-.2 1.4-.4-.2-.7 0-.7-.5-.4-.2-.7-.5-.6-1-.3 0-.6-.1-.9-.1-.2-.5-.6-.9-1.1-1.1 0 .6.1 1.2.1 1.8 0 .3-.1.6-.1.9-.1.9 0 1.8 0 2.7 0 .2-.2.4-.3.5l-.6.3h-.3z"/></g></svg>