<svg xmlns="http://www.w3.org/2000/svg" viewBox="0 0 148 201"><title>  Group</title><g fill="none"><g fill="#383747"><path d="m109.2 111.5c0 0-0.1-0.1-0.1-0.1-2 0.3-4 0.6-6 1-0.6 0.1-1.3 0.6-1.3 1.4 1.6 0.1 6.5-1.5 7.4-2.4zm-16.7 2.5c-2.1 0-4.1-0.2-6.1-0.1-1.2 0.1-2.4 0.3-3.3-0.3-1.7 0.7-3.3 0.2-5 0.2 0 0.5 0 1 0 1.6 1.5 0 2.9 0.1 4.7 0.1 0.7 0.6 1.9 0.9 3.1 0.6 0.6-0.1 1.3-0.3 1.9-0.2 1.6 0.1 3.2-0.2 4.8-0.7 0-0.3 0-0.7 0-1.2zm-79.4-57.1c-1.7 0.6-2.2 2-1.3 3.4 0.3 0.5 0.9 0.9 1.2 1.3 1.1 1.3 2.6 1.9 4.1 2.5 0.9 0.3 1.5-0.4 1.2-1.2-0.6-1.7-1.3-3.3-2.9-4.4-0.8-0.5-1.5-1.1-2.3-1.6zm59.6 56.1c-3.2-0.2-6.1-1.2-9.4-1.8-0.1 0-0.4-0.3-0.7-0.6-0.6 0.3-1.2 0.3-1.8-0.2-0.2-0.2-0.7-0.1-1-0.1-0.4 0-0.7 0.3-1 0.2-0.3-0.1-0.4-0.5-0.6-0.7-0.3 0.4-0.5 0.7-0.7 1.2 1.6 0.6 3.2 1.1 4.7 1.7 0.7 0.3 1.4 0.7 2.2 0.9 1.2 0.3 2.5 0.6 3.7 0.8 1.5 0.3 3.1 0.6 4.9 0.9-0.1-0.8-0.1-1.5-0.2-2.2zm18.3 66.7c0 0.2 0.1 0.3 0.1 0.5 0.6-1.3 1.2-0.4 1.7-0.4 2.5 0 4.9 0.1 7.4 0.1 1 0 2 0 2.9-0.1 1.4-0.1 1.8-0.8 1.4-2.3-1.7 0-3.3 0-5 0-2.4 0-4.9 0.1-7.3 0-1.1 0-2.1 0.2-2.9 0.8-0.6-0.2-1.2-0.3-1.9-0.6 0.4 0.7 0.7 1.2 1 1.7 0.6-0.1 1.5 0.1 2-0.9 0.2 0.5 0.3 0.8 0.5 1.1zm-45.7 0.1c1.1 0.2 1.8-0.2 2.3-1.1 2.2 1.1 4.4 1.1 6.8 1.1 2.4 0 4.7 0.4 6.8-0.4 0.1-1 0.1-2 0.2-2.9-1.7-0.3-3.2-0.6-4.8-0.3-0.6 0.1-1.2 0.3-1.7 0-1.3-0.7-2.6-0.3-3.9-0.4-1.2-0.1-2.4 0-3.5-0.3-0.7-0.2-1.2 0-1.8 0.6 0.1 0.7 0.2 1.5 0.3 2.4-0.2 0.3-0.4 0.7-0.7 1.3zm78.7-110.1c-1.4 1.3-2.4 2.8-3.4 4.4-0.5 0.7-0.3 1.3 0.1 1.9 0.9 1.4 1.9 2.7 2.6 4.2 0.5 1 0.8 2.1 1.2 3.3 1.7-0.6 3.3-1.4 4.7-2.4-0.1-0.6-0.2-1.2-0.2-1.7-0.1-1.1-0.3-2-1.2-2.8-0.3-0.3-0.5-0.8-0.6-1.2-0.2-0.6-0.3-1.2-0.6-1.7-0.8-1.3-1.8-2.6-2.7-4zm-111.3 9.3c1.9-0.3 3.9-0.7 5.8-0.9 1.5-0.2 2.5-0.8 3.1-2.1 0.3-0.6 0.3-1.4 0.5-2 0.7-1.7 1.2-3.5 0.8-5.4 0-0.1 0.1-0.3 0.1-0.4 0.2-1.7-0.5-2.7-2.4-3.3-1.1 2.2-3.1 1.9-5 1.6-0.2 2.6-0.5 4.9-1.4 7.2-0.3 0.8-0.5 1.6-0.6 2.4-0.1 1-0.7 1.9-1.1 3zm4.8-67.9c-0.9-0.4-2.1 0.1-2.9-0.8-0.3-0.3-0.7 0.1-0.8 0.5-0.1 0.4-0.1 0.8-0.1 1.1 0 0.6 0.2 1.2 0.1 1.7-0.3 1-0.6 2-0.6 3 0 0.9-0.4 1.9 0 2.8 0.1 0.2 0 0.5 0 0.7-0.4 1-0.2 2.1-0.2 3.1 0 0.4 0.1 0.8 0 1.3-0.1 1.4-0.2 2.7-0.3 4.1-0.1 1.6-0.1 3.2-0.2 4.8-0.1 1.1-0.3 2.2 0.1 3.3 1.1 0 2.2 0 3.2 0.1 0.1-0.7 0.2-1.4 0.2-2.1 0-2 0.6-3.9 0.4-5.9-0.2-2.3 0.7-4.5 0.4-6.9 0-0.2 0-0.5 0.1-0.7 0.2-1.9 0.5-3.7 0.7-5.6 0.1-1.5 0.1-2.9 0.1-4.5zm-12.8 66.1c1.2 0.6 2.5 0.6 3.8 0.8 1.2 0.2 1.9-0.5 2.5-1.5 0.5-0.7 0.2-1.5 0.5-2.2 1.1-3 1.9-6 1.4-9.2 0-0.1-0.1-0.2 0 0-1.4-1.4-2.4-2.7-3-4.4-0.4 0-1-0.2-1.2-0.1-0.8 0.7-1.4 0.1-2.2-0.4-0.4 1.2-0.8 2.3-1.2 3.4-0.1 0.3-0.1 0.7-0.2 1-0.5 1.2 0.2 2.6-0.6 3.7 0 0.1 0 0.2 0 0.3-0.1 1.9-0.1 3.8-0.3 5.7-0.1 1 0.1 2 0.5 2.9zm44.8 73c1.2-0.1 2.2-0.1 3.2-0.2 1.3-0.1 2.5-0.2 3.7-0.3 0.4-0.1 0.8-0.3 1.2-0.5 0.3-0.2 0.5-0.4 0.8-0.6 2.8-1.8 2.1-5.6-0.3-7.1-1-0.6-2.1-1-3.2-1.6-1-0.6-1.9-0.9-2.9-0.2-0.8-1-1.6-1.3-2.7-1-0.1 0.4-0.3 0.7-0.4 1.1-0.5-0.2-0.8-0.4-1.2-0.6-0.6 0.6-0.1 1.2-0.3 1.8-0.2 0.2-0.5 0.4-0.6 0.5 0 0.6-0.1 1.1-0.1 1.6 1.4 1 1.3 1.3-0.2 2-0.3 0.1-0.6 0.6-0.6 0.9 0 0.3 0.2 0.7 0.5 0.9 0.2 0.2 0.6 0.2 0.9 0.2 0.1 1.2 0.1 1.2-1.2 1.5 0.2 1.3 0.8 1.9 1.8 1.6 0.1-0.4 0.1-0.8 0.2-1.2 1.4-0.1 1.5-0.1 1.4 1.2zm53 1.4c-0.3-0.8-0.5-1.7-1-2.5-1-1.8-2.5-3.1-4.6-3.6-0.3-0.1-0.6-0.2-0.9-0.4-0.8-0.5-1.6-0.7-2.6-0.7-0.4 0-0.8-0.1-1.1-0.1-0.4 0.2-0.7 0.5-1 0.6-0.5 0.3-1.1 0.4-1.6 0.7-1.1 0.6-2 1.4-1.9 2.9 0 2.2 0 4.4-0.1 6.6 0.7 0.5 1.2 0.3 1.5-0.4 0.5 0.3 1 0.6 1.3 0.8 0.9-0.3 1.7-0.3 2.5-0.2 1.4 0.1 2.9 0.1 4.3 0.2 0 0 0.1-0.1 0.1-0.1 1.2-0.4 2.3-0.9 3.5-1.3 0.7-0.2 1.1-0.8 1.3-1.4 0.1-0.3 0.2-0.6 0.3-1.2zm25.5-110.4c1.5-2.1 1.5-4.4 1.6-6.7-1 0-1 0-1.3-1.2 0.4-0.1 0.7-0.1 1.1-0.2 0.1-0.2 0.3-0.4 0.3-0.6 0-1.3 0-2.6 0-3.9 0-0.2 0-0.5 0.2-0.7 0.4-0.3 0.3-0.6 0.2-1-0.2-0.8-0.4-1.6-0.6-2.5 0.8-0.8 0.8-0.8 0.7-1.7-1-0.6-1.1 1.4-2.2 0.6-0.6-1.1-1.6-0.9-2.5-0.7-0.2 0.8-0.4 1.4-0.4 2.1 0 0.7 0.2 1.5 0.3 2.4 0 0.1-0.1 0.4-0.2 0.6-0.4 0.7-0.5 1.4 0.3 2 0.3 0.2 0.3 0.9 0.4 1.5-0.6 0-0.9-0.1-1.3-0.1-0.1 0.8-0.1 1.5-0.2 2.3 0.6-0.1 1.1-0.2 1.4 0.7-0.5 0.2-1 0.4-1.5 0.7 0.1 0.3 0.1 0.8 0.2 1.3-1 0.6-0.6 1.6-0.7 2.3 0.3 0.4 0.6 0.7 0.8 1-0.7 0.8-1.7 1.4-1.3 2.6 0.3 0.1 0.6 0.2 1 0.4 0 0.4 0 0.8 0 1.3-0.4 0-0.7 0.1-1.1 0.1-0.2 0.8-0.6 1.5-0.6 2.2-0.1 0.8 0.3 1.6 0.3 2.4 0 0.8-0.4 1.7-0.2 2.5 0.3 1.1 0 2.1-0.2 3.1-0.1 0.7-0.3 1.4-0.2 2.1 0.1 0.6 0.3 1.4 0.7 1.6 0.6 0.4 0.8 0.9 1 1.5 0.4 1 0.8 2 1.1 2.8 0.6 0.1 1.2 0.1 1.5 0.4 0.5 0.4 0.2 0.8-0.1 1.3-0.1 0.1 0.2 0.5 0.3 0.8 0.6-0.6 0.8-1.1 0.6-1.9-0.2-0.5-0.4-1.1-0.2-1.8 0.5-1.2 0.5-2.4-0.4-3.5 0.7-0.8 0.9-1.9 0.4-2.7-0.3-0.5-0.4-1.1 0-1.3 1-0.5 0.6-1.4 0.9-2.1-0.4-0.2-0.7-0.4-1-0.6 0.1-0.4 0.1-0.8 0.2-1.1 0.3-0.1 0.6-0.2 0.8-0.3 0.2-1.1 0.4-2.1 0.6-3.2 0-0.2 0.1-0.6-0.1-0.7-0.5-0.5-0.2-1 0-1.6 0.3-0.9 0.4-1.8-0.4-2.5zm-10.5 96.8c1.3 0 2.2-0.8 3.2-1.6 1.1-0.9 1.6-2.1 2.4-3.1 1-1.4 1.7-2.9 2.2-4.6 0.3-1.1 0.5-2.3 0.7-3.5 0.3-1.5 0.3-3 0-4.6-0.2 0.1-0.4 0.1-0.6 0.1-1.3 0.5-2.7 0.5-4.1 0.3-1.5-0.2-3-0.4-4.4-1.1-0.3-0.2-0.7-0.1-1.3-0.1-0.7 1.2-1.3 2.5-2.1 3.6-0.9 1.2-1.6 2.4-1.7 4.1 0.6-0.2 1-0.3 1.4-0.5 1.2-0.8 2.4-1.6 3.1-3.1 0.7-1.4 1.8-1.3 2.6 0.1-0.4 0.7-0.8 1.3-1.1 2-0.4 0.8-0.9 1.5-1.7 2.1-0.7 0.5-1.5 1.1-1.9 1.9-1 1.8-2 3.6-2.3 5.8 0.6 0.3 1.3 0.7 2.1 1.1 0.4 0.2 0.9 0.4 1.4 0.5 0.7 0.2 1.4 0.3 2.2 0.4zm-37.9 55.6c0.4 0.1 0.9 0.4 1.3 0.3 1.9-0.5 3.8 0.2 5.6 0.2 1.8 0 3.6 0.2 5.4 0.3 2 0 4.1-0.1 6.1-0.1 2.1 0 4.1-0.7 6-1.7 0.7-0.4 1.2-1 1.4-1.9 0.3-1.7 0.1-3.4 0.2-5.2 0-0.3-0.3-0.7-0.5-1-0.6-0.7-1.5-0.9-2.3-1-0.9-0.2-1.8-0.3-2.7-0.4-1.4-0.3-2.8-0.1-4.2-0.1-1.9 0-3.7 0.1-5.6 0.2-2.1 0.1-4.1 0.1-6.2 0.8-1.2 0.4-2.1 1.1-2.8 2-1.2 1.4-1.2 3.3-1.4 5-0.1 0.8-0.1 1.7-0.2 2.7zm-17.2-10.8c-1.2 0-2.4-0.1-3.5 0.2-1.9 0.4-3.8-0.2-5.8 0.1-0.9 0.1-1.8-0.3-2.7-0.3-1.2 0-2.4-0.6-3.5 0.4-0.3 0.3-0.9 0.4-1.4 0.3-1.5-0.3-2.8 0.5-4.2 0.6-2.1 0.1-3.5 1.7-5 2.9-1 0.8-1.6 2-1.8 3.2-0.2 1.1 0.1 2.3 0.1 3.4 1.9 0.2 3.8 0.4 5.6 0.6 0.6 0.1 1.2 0.3 1.8 0.3 1.6 0.1 3.2-0.1 4.7 0.1 2.2 0.3 4.4 0 6.6 0.1 1.2 0 2.3-0.1 3.5-0.2 0.9-0.1 1.8-0.1 2.7-0.3 0.5-0.1 1.1-0.5 1.2-0.9 0.4-1 0.7-2.1 0.9-3.2 0.2-1 0.2-1.9 0.3-2.9 0.1-1.4 0.2-2.9 0.3-4.2zm-39.5-176.8c-0.1 0.3-0.3 0.6-0.3 1-0.1 1.5-0.2 3.1-0.2 4.6 0.1 1.5-0.4 3-0.1 4.5 0.2 1.3-0.2 2.7-0.1 4.1 0.2 2.5-0.3 4.9-0.3 7.3 0 1.5 0.1 2.9 0.1 4.4 0 1.1 0.1 2.2 0.1 3.3 0.1 0.8 0.2 1.5 0.4 2.3 0 0.2 0.2 0.4 0.2 0.6 0.1 1.3 0.3 1.5 1.5 1.5 1.5 0 3 0 4.5 0.1 1.5 0.1 3 0.7 4.6 0 0.2-0.1 0.5 0.1 0.7 0.2 0.7-0.5 1.2-1.1 1.4-2 0.1-0.8 0.4-1.6 0.7-2.5-1.4-0.2-0.9-1.1-0.9-1.9-0.5-0.3-1-0.8-1.5-0.8-1.8-0.1-3.6-0.1-5.4-0.1-0.3 0-0.6-0.2-0.8-0.2 0-2.2 0-4.2 0.2-6.2 0.1-1.5 0-2.9 0.2-4.4 0.2-1.7 0.5-3.5 0.5-5.2 0-1.6 0.2-3.2 0.3-4.8 0.5-0.1 0.8-0.2 1.2-0.2 1.2 0 2.3 0.1 3.5 0.1 0.3 0 0.5 0 0.8 0.1 0.8 0.1 1.3-0.1 1.5-0.9 0.2-1.3 0.4-2.6 0.5-3.9 0-0.2-0.2-0.5-0.3-0.6-0.5-0.3-1.2-0.7-1.7-0.6-1 0.2-2 0-3.1 0-2.7 0.1-5.4-0.5-8.2 0.3zm58.6 49.2c0.3 0.3 0.7 0.7 1.2 1 0.4 0.2 0.9 0.1 1.4 0.2 0.9 0.2 1.7 0.5 2.6 0.5 2-0.1 3.9 0.3 5.9-0.1 1.1-0.2 2.2 0 3.2-0.2 1.4-0.2 2.8-0.5 4.1-1.1 2.7-1.2 5.3-2.7 7.4-4.9 0.3-0.3 0.6-0.5 1.1-0.3 0.7 0.2 1.2-0.2 1.3-1 0.1-1 0.1-2 0.2-2.9 0-0.3 0.1-0.6 0.1-0.9 0.3-1.7 0.6-3.4 0.8-5 0.2-1.6 0.1-3.3 0.2-4.9 0-1.2 0.1-2.4 0.1-3.6 0-0.8 0.1-1.6-0.1-2.3-0.5-1.5-0.4-3.2-1.3-4.6-0.1-0.1 0-0.4-0.1-0.6-0.3-1.3-0.3-2.8-1.7-3.6-0.2-0.1-0.3-0.4-0.4-0.6-0.3-0.4-0.6-0.9-0.9-1.2-0.4-0.5-0.9-1-1.3-1.5-1.2-1.4-2.5-2.5-4.2-3.4-1.1-0.5-1.9-1.5-3.2-1.5-0.1 0-0.2-0.1-0.2-0.2-0.8-0.8-1.8-1.1-2.9-1.3-1.8-0.3-3.5-0.3-5.3-0.1-0.2 0-0.5 0.1-0.7 0-1.6-0.4-3.2 0-4.8 0.3 0.1 0.3 0.2 0.6 0.3 0.9-0.5 0.2-0.9 0.3-1.6 0.6 0.3-0.7 0.4-1.1 0.6-1.5-0.8 0.2-1.6 0.3-2.1 0.4-0.2 0.6-0.4 1.1-0.7 1.8-0.6-0.4-1.1-0.7-1.6-1-1.1 0.4-2.4 0.8-3.2 1.8-0.2 0.3-0.6 0.6-0.9 0.6-1 0.2-1.1 0.7-0.8 1.6-0.6 0.1-1.1 0.2-1.5 0.3-0.2 0.6-0.2 1.4-0.6 1.7-1.1 1-1.7 2.3-2.2 3.6-0.1 0.1 0 0.3 0 0.4 0.4 0.3 0.7 0.5 1 0.7-0.2 0.9-0.8 1-1.4 1-0.2 1-0.6 1.8-0.6 2.7-0.1 0.8 0.2 1.7 0.3 2.5-0.3 0.1-0.6 0.2-0.8 0.3 0 0.6-0.1 1.1-0.1 1.6 0.4 0.2 0.7 0.4 1.1 0.6-0.1 0.5-0.1 0.9-0.2 1.3-0.5 0.1-0.8 0.1-1.2 0.2-0.1 0.6-0.3 1.2-0.4 1.9 0.5 0.1 1.1 0.2 1.7 0.3 0.1 0.3 0.2 0.7 0.4 1.1-0.6 0.2-1.1 0.3-1.6 0.4 0.1 0.6 0.2 1.2 0.3 1.8 1.2 0.2 1.2 0.2 1.3 1.3-0.5 0.2-0.9 0.4-1.5 0.6 0.1 0.6 0.1 1.3 0.2 2 0.7-0.1 1.2-0.2 1.3 0.5 0 0.2 0 0.6-0.1 0.7-0.4 0.2-0.8 0.3-1.2 0.5 0.1 0.6 0.3 1.1 0.4 1.6 1.2 0.6 1.2 0.6 0.6 1.6-0.1 0.2 0 0.5 0 1.1 0.7-0.5 1.2-0.9 1.6-1.2-0.2-0.7-0.3-1.2 0.6-1.3 0.2 0.2 0.5 0.5 0.8 0.8-0.3 0.3-0.6 0.6-0.8 0.8 0 0.3 0.1 0.6 0.1 1-0.4 0.2-0.8 0.4-1.4 0.8 2.7 1.7 4.8 3.7 7.5 4.5 0.7-0.3 1.1-0.5 1.6-0.7 0.2 0.5 0.3 0.9 0.4 1.3 0.8 0.1 1.6 0.2 2.5 0.4zm-21.5 39.2 0 0c-0.6 0.8-0.2 1.7-0.1 2.6 0.5 0 0.9 0.1 1.4 0.1-0.1 0.6-0.2 1.1-0.3 1.7-0.5-0.1-0.7-0.1-1-0.1-0.6 2 0.1 4-0.5 5.8 0.2 0.3 0.4 0.7 0.7 1l0 0c0 0.5-0.1 1.1-0.1 1.6 0.7 0.2 1.3 0.4 1.7 0.5 0.3-0.6 0.6-1.2 0.8-1.7h0.4c0.2 0.3 0.6 0.7 0.5 1-0.1 0.4-0.5 0.7-0.8 1.1 0.7 0.3 1.5 0.6 2.3 0.8 2.1 0.5 4.2 0.8 6.2 1.3 1.1 0.3 2.1 0.2 3.1-0.3 1.6-0.9 3.3-0.6 3.9 1.6 4.8 0.1 9.6 0.3 14.4 0.4 0.2-0.6 0.3-1 0.4-1.4 0.2-0.5 0.4-0.8 1-0.8 0.7 0 1.4 0 2.2 0 0.5 0 1.1 0.1 1.2 0.7 0.1 1 0.7 1.1 1.3 1 0.5 0.5 0.8 0.9 1.4 1.5 0.2-0.8 0.3-1.3 0.5-2.1 0.8 0.1 1.7-0.2 2.4-0.2 0.9 0 1.3-0.6 2.1-0.7 1.7-0.2 3.3-0.8 5.1-1.2 0-0.6 0.1-1.1 0.1-1.5 0-1.2-0.2-2.5 0-3.7 0.2-1.5 0.5-3 0.4-4.5-0.2-2.5 0.3-5 0.2-7.5-0.1-1.7 0.2-3.5-0.8-5.1-0.1-0.1-0.2-0.4-0.1-0.6 0.2-2.6-0.7-5.1-0.6-7.8 0.1-1.8-0.3-3.7 0.4-5.5 0.1-0.2 0-0.4 0-0.6-0.2-1.3 0.3-2.6 0.9-3.7 0.3-0.7 0.9-1.2 1.4-1.8 0.4-0.4 1-0.7 1.5-0.3 0.6 0.4 0.5 1 0.4 1.6-0.2 0.5-0.5 1-0.6 1.5-0.1 0.4 0 0.8 0 1.1 0.5 0.2 0.9 0.4 1.2 0.6-0.2 1.1-1.1 0.6-1.6 0.8-0.6 6.4-0.7 5.9 0.1 9.9 0.7-0.3 1.4-0.5 2.1 0.4-0.6 0.4-1.2 0.7-1.8 1.1 0.1 0.5 0.3 1.1 0.4 1.7 0.4 0.1 0.8 0.2 1.2 0.4 0 0.6-0.1 1.2-0.1 2 0.5-0.3 0.7-0.5 1-0.7 1.2 0.7 1.2 0.8 0.6 1.7-0.4 0.5-0.3 1 0 1.4 0.4 0.7 0.8 1.3 1.2 2 0.1 0.1 0.2 0.4 0.3 0.4 1 0 0.8 0.7 1.1 1.4-0.5 0.2-0.9 0.4-1.4 0.6-0.2-0.5-0.4-0.9-0.5-1.2-0.1 0-0.2 0-0.3 0 0.2 1 0.8 2.2-0.5 2.8 0.3 0.9 0 1.8 0.6 2.6 0.4 0.6-0.2 1-0.7 1.1 0.1 0.7 0.1 1.2 0.1 1.7 0.4 0.4 0.7 0.8 1.2 1.3-0.6 0.4-0.9 0.6-1.4 0.9 0 0.4-0.1 0.9-0.1 1.3 0.5 0.4 0.9 0.7 1.6 1.2-0.7 0.4-1.2 0.6-1.7 0.9 0 0.4 0 1 0.1 1.6 0.5 0.2 0.9 0.5 1.4 0.7 0 0.5-0.1 0.8-0.1 1.2-0.4 0.1-0.7 0.2-1 0.2 0 0.6-0.1 1.2-0.1 1.8 0.5 0.2 0.9 0.3 1.4 0.5-0.3 0.5-0.5 0.8-0.7 1.1-0.5 0.6-0.5 1.2-0.1 1.8 0.3 0.7 0.7 1.3 1 2 1.3-0.3 1.3-0.3 2.2 0.9 0.3 0 0.7-0.1 1-0.1 1.4 0.3 2.6-0.4 3.9-0.7 1.8-0.5 2.1-2.2 2.8-3.6 0.5-1 0.7-2.1 1-3.2 0.3-0.8 0.7-1.5 0.8-2.3 0.4-2.1 0.6-4.3 1-6.5-0.2-0.1-0.4-0.1-0.6-0.2-0.9-0.4-1.9-0.8-2.3-1.8-0.4-0.9-0.5-1.8-0.8-2.7-0.1-0.5-0.4-1-0.4-1.5 0-0.7 0.2-1.3 0.3-2 0.2-1.6 1.5-3.6 2.7-4.8 0.7-0.6 1.5-1.2 1.3-2.4-0.1-0.7-0.2-1.5-0.4-2.3-0.9 1.1-1.9 1.7-3.2 1.8-0.6 0.1-1.3 0.1-1.9 0.5-0.5 0.3-1.1 0.1-1.4-0.4-0.6-1-1-2-1.6-3-1-1.7-2-3.4-3-5-0.9-1.6-1.1-3.2-0.1-4.7 1.2-1.9 2.6-3.7 4-5.7-0.3-0.7-0.7-1.7-1-2.7-0.2-0.5-0.5-1-1.1-1.3-0.3-0.2-0.6-0.6-0.8-1-0.7-1.5-1.3-3-2.1-4.8-0.3 0.9-0.4 1.6-0.7 2.1-0.3 0.6-0.8 1-1.3 1.4-0.1 0.1-0.5-0.1-0.8-0.1-0.5-2.1 0.3-3.9 1.1-5.6-0.7-0.1-1.2-0.2-1.8-0.3-1.3-0.2-2.7-0.4-4-0.6-0.5-0.1-1.2-0.2-1.5 0-1.7 1.5-3.7 2.4-5.7 3.4-1.6 0.8-3.3 1.3-5 1.9-0.4 0.2-0.9 0.5-1.3 0.5-1.5-0.1-2.8 0.6-4.3 0.6-2.8 0.1-5.5-0.3-8.3-0.7-0.8-0.1-1.6-0.6-2.4-0.7-2.7-0.5-5.1-1.7-7.5-2.9-0.6-0.3-1.2-0.5-1.8-0.9-0.7-0.5-1.4-0.9-2.2-0.7-0.2 0-0.3-0.1-0.5-0.2 0-0.3 0.1-0.6 0.1-0.9-0.6-0.2-1.1-0.5-1.7-0.7-0.6-1.3-1.1-1.5-2.6-0.7 0.4 0.4 0.7 0.8 1 1.1 0.4 0.3 0.9 0.6 1.5 1.1-0.8 0.4-1.3 0.7-1.7 1-0.8 0.9-0.7 2.2-1.1 3.2 0.3 0.4 0.7 0.7 1.1 1.2-2.5 1.5-2.5 3.7-2 6-0.5 0.3-0.9 0.5-1.3 0.8-0.1 0.7-0.2 1.4-0.4 2.2 0.5-0.5 0.9-0.8 1.4-0.4 0 0.4-0.1 0.8-0.1 1.4-0.6-0.2-1.1-0.4-1.5-0.6-0.6 0.5 0 1.1 0.1 1.6-1 0.7-1.1 1.6-0.7 2.6 0.4 0.3 0.7 0.5 1 0.8-0.2 0.2-0.3 0.4-0.4 0.4-1.3 0-1.5 0.9-1.5 1.9 0 0.2 0.1 0.5 0 0.7-0.3 0.8-0.4 1.5 0 2.4 0.1 0.2 0 0.8-0.2 0.9-0.7 0.5-0.7 1.2-0.7 1.8 0.5 0.5 0.9 0.9 1.5 1.4-0.7 0.3-1.1 0.5-1.5 0.7-0.2 1-0.5 1.9-0.5 2.9 0 1 0.3 2.1 0.4 3.4 0.3-0.6 0.5-0.8 0.7-1.3 0.4 0.4 0.6 0.7 0.8 0.9-0.6 1.2-1.3 0.8-1.9 0.5 0.1 1 0.1 1.9 0.2 2.7 0 0.3 0.2 0.7 0.4 1zm-5.7 28.5c-1.1 0.3-1.1 1.2-1.3 2.1 0.5 0.1 0.9 0.2 1.4 0.4-0.2 0.5-0.3 0.9-0.4 1.3-0.7 0.4-1.2 0.1-1.6-0.7-0.1 0.5-0.2 0.8-0.2 1.1 0.3 1.2 0.3 1.2-0.8 1.7 0 1.6-1.8 2.8-0.7 4.4-0.7 0.9-1.5 1.5-1.3 2.7 0.9 0.2 1.9 0.3 2.7 0.6 0.7 0.3 1 0.2 1.4-0.3 0.1-0.1 0.3 0 0.5-0.1 0.1 0.3 0.1 0.6 0.2 0.9 1.2 0.4 2.3 0.7 3.4 1.2 1.3 0.7 2.6 1.6 3.8 2.6 0.5 0.4 0.8 1.2 1 1.8 0.2 0.5 0.2 1 0.4 1.5 0.4 0.9 0.1 1.7 0 2.5-0.2 1.6-1.5 2.5-2.6 3.4-1.2 1-2.5 1.7-4.2 1.8-1.8 0.2-3.6 0.7-5.5 0.6-0.5 0-1 0.1-1.1 0.8 0 0.3-0.4 0.5-0.8 0.8-0.3-0.6-0.5-1-0.7-1.4-0.5 0-1.1-0.1-1.6-0.1 0 0.7-0.1 1.2-0.1 1.8 0.7-0.6 1.1-0.1 1.5 0.3 0.1 0.1 0 0.6-0.1 0.7-0.5 0.5-0.9 0.1-1.3-0.2 0 0-0.1 0-0.1 0 0 1.1 0 2.2 0 3.2 0.5-0.3 0.9-0.5 1.6-0.9 0.1 0.8 0.2 1.2 0.3 1.9-0.8 0-1.4 0-1.8 0-0.1 0.6-0.1 1.2-0.2 1.8-0.1 0.8-0.5 1.6 0.1 2.5 0.2 0.2-0.1 0.8-0.2 1.2-0.2 0.8-0.5 1.5 0.1 2.3 0.2 0.2 0.2 0.8 0.1 1-0.7 1.1-0.6 2.1 0.3 3 0.1 0.1 0 0.2 0 0.3-0.2 0.2-0.4 0.5-0.9 1 5.8-0.1 11.2 0.5 16.8 0.9 0.1-1 0.1-2 0.2-2.9 0.3-1.9 0.7-3.8 0.9-5.8 0.2-2.5 0.1-5 0.2-7.6-0.5 0.3-0.8 0.6-1.2 0.8-1-0.7-1.2-0.9-0.8-1.6 0.4-0.7 0.8-1.3 1.3-1.9 1.6-1.7 3.1-3.5 4.5-5.3 1.2-1.5 2.1-3.2 3.4-4.5 1.7-1.8 2.6-4.1 3.9-6.1 0.7-1.1 1.2-2.3 1.6-3.6 0.2-0.7 0.5-1.5 0.2-2-1-0.4-1.7-0.8-2.4-1.1-0.2-1.2 0.6-1.6 1.2-2.2 1.7 0.7 3.5 1.2 5 2.1 1.6 0.9 3.6 0.9 4.9 2.3-0.2 0.3-0.4 0.6-0.6 0.8 0.4 0.2 0.8 0.4 1.3 0.7-1.6 1.5-0.3 2.8 0.1 3.9 0.7 0.6 1.3 1.1 2 1.6-0.4 0.5-0.7 0.9-1 1.3-0.4-0.3-0.8-0.6-1.2-0.9 0.1 1 0.3 1.9 0.4 2.9 0.8-0.3 1.6 0.4 2.2-0.3-0.1-0.6-0.1-1.1-0.2-1.6 1.7-0.1 3.3-0.2 4.8-0.2 0.4 0 0.9 0 1.3 0.1 1.8 0.6 3.5 1.2 5.2 2.1 0.9 0.5 1.4 1.3 2.2 1.9 1 0.7 1.7 1.5 2.1 2.6 0.4 1 0.5 2 0.7 3 0.1 0.3 0 0.6-0.1 0.8-0.4 0.8-0.9 1.5-1.4 2.3-0.2 0.3-0.5 0.8-0.8 0.9-1.7 0.6-3.4 1.2-5.1 1.7-0.1 0-0.2 0-0.3 0-1.6-0.2-3.2 0.1-4.7 0.1-1.1 0-2.4 0.3-3.3-0.7-0.4-0.4-1-0.3-1.4 0.1 0 0.5 0.1 0.9 0.1 1.3 0 1.6 0 3.3 0 4.9 0 2.1 0.5 4.3-0.3 6.4-0.2 0.5-0.2 1.2 0.4 1.7 0.2 0.2 0.3 0.5 0.4 0.7-1.6 0.9-1.6 0.9-1.1 2.4 0.3 0.1 0.6 0.3 0.9 0.3 1.7-0.2 3.4-0.2 5-0.3 0.9 0 1.9-0.2 2.8-0.2 1.2 0 2.3 0.5 3.5-0.1 0.2-0.1 0.5 0.1 0.7 0.1 1.6-0.1 3.3 0.5 4.9-0.2 0.4-1.6 0.9-3.2 0.2-4.9-0.1-0.1 0-0.4 0.1-0.6 0.5-1.8 0.4-3.6 0.3-5.4 0-0.6 0-1.1 0.6-1.5 0.5-0.3 0.7-0.8 0.5-1.5-0.2-0.7-0.2-1.5-0.1-2.3 0.1-1.8 0.2-3.6 0.3-5.3 0-1-0.1-2.1 0-3.1 0.2-2.5 0.5-4.9 0.7-7.4 0.1-2 0.1-4 0.1-6 0-0.8 0.1-1.5 0.1-2.3 0-2.4-0.4-4.9 0.8-7.1 0.1-0.2 0.1-0.6 0.1-0.8 0.4-2.4 0.4-4.8 0.6-7.2 0-0.4 0-0.9-0.2-1.2-0.4-1-0.4-1.3 0.3-2.1 0.1-0.2 0.2-0.4 0.4-0.8-1.5 0.9-2.8 1.5-4.3 1.6-0.8 0-1.7 0.2-2.4 0.5-1 0.6-2 0.6-3 0.8-0.6 0.1-1.3 0.2-1.9 0.3-0.1 0.3-0.1 0.5-0.1 0.7-0.1 1-0.9 1.7-1.8 1.5-1.2-0.2-2.4-0.4-3.3-1.5-0.2-0.3-0.8-0.5-1.1-0.4-1 0.5-2.1 0.2-3.1 0.4-1.1 0.2-2.2 0.4-3.2 0.4-1.2 0-2.3-0.1-3.5-0.2-1.5 0-2.9 0-4.5 0-0.5 1.4-1.8 1.2-2.9 1.1-1.2-0.2-1.4-1.5-1.7-2.6-3.9-0.1-7.6-1.5-11.5-2.2-0.2 0.1-0.5 0.3-0.7 0.5-0.8-0.2-1.3-0.6-1-1.4-0.7-0.5-1.9 0-2.2-1.2-0.2 0.4-0.4 0.7-0.6 1 0.2 0.3 0.4 0.6 0.6 0.9-1 1.6-1.9 3.1-2.9 4.7 0.7 0.1 1.2 0.4 1.1 1.1-0.1 1.3-1.3 0.3-1.8 0.9 0.1 0.4 0.1 0.8 0.2 1.3l0 0zm-7.6-36.9c1.1-0.7 2.2-1.4 3.4-2.2 0.4 0.1 0.8 0.3 1.2 0.4 0.4 0.1 0.8 0.2 1.1 0.1 0.4-0.1 0.7-0.4 1.1-0.5 0.2-0.1 0.5 0 0.6 0.1 0.1 0.2 0.2 0.5 0.1 0.8-0.1 0.2-0.3 0.4-0.5 0.8 1 0.3 1.8 0.5 2.7 0.8 0.8-0.6 0.4-1.3 0.1-1.6 0.1-1.3 0.9-2.2 0.1-3.3-0.1-0.1 0-0.4 0-0.5 0.2-0.8 0.4-1.6 0.6-2.5-0.9 0-0.8-0.5-0.9-1 1.3-1.3 1.4-1.5 1.3-2.8-0.3 0-0.5 0-0.8 0-0.1-0.5-0.1-0.9-0.2-1.3 0.5 0 0.9-0.1 1.2-0.1 0.4-2.2 1-4.2 1.2-6.3 0.1-1.4 1.1-2.7 0.4-4 0.4-0.6 0.9-1.1 1.1-1.7 0.5-1.9 0.8-3.8 1.6-5.6 0.1-0.3 0.1-0.6 0.1-0.9-0.4-0.3-0.8-0.5-1.1-0.7 0.1-0.3 0.1-0.6 0.1-0.9-3.4 2.5-6.2 5.4-8.1 8.9 0.2 0.5 0.4 0.9 0.7 1.5-0.7 0.1-1.2 0.1-1.5 0.1-0.8 1.4-1.5 2.8-2.3 4.2 0.2 0.2 0.4 0.5 0.7 0.9 0.2-0.9 0.7-1.1 1.4-0.6-0.1 0.8-0.7 1-1.2 1.4-0.5 0.3-0.8 1-1.1 1.5-1.8-1.1-3.3-2.7-5.5-1.6-0.4-0.4-0.8-0.9-1.2-1.1-0.7-0.3-1.5-0.4-2.2-0.5-1.5-0.2-3.1-0.4-4.6-0.6-0.3 0.3-0.6 0.5-1 0.9-0.6-1.2-1.7-1.1-2.7-1.1-0.6 0.8-1.1 1.1-1.6 0.7-0.1-0.3-0.2-0.6-0.4-1-0.6 0.1-1.1 0.2-1.7 0.2 0 0.1 0.1 0.2 0.1 0.2-0.4 0.4-0.9 0.8-1.4 1.3 0 0.4-0.1 0.9-0.1 1.5 0.5 0.1 0.9 0.2 1.3 0.2-0.1 1.2-0.1 1.2-1.3 1.5-0.2 1.3-0.5 2.5-0.7 3.9 0.1 0.2 0.4 0.5 0.7 0.8-0.3 0.3-0.5 0.6-0.7 0.7-0.7 0.1-0.9 0.7-1.1 1.2-0.6 1-1.2 2-1.8 3.1 0.1 0.1 0.4 0.3 0.6 0.5 0.1-0.4 0.2-0.7 0.3-1 0.1 0 0.2 0 0.3-0.1 0.2 0.3 0.6 0.7 0.5 1-0.1 0.7 0.2 0.9 0.9 0.9 0.2 0 0.4 0 0.5 0.1 1.2 1.1 2.8 1.7 4.2 2.1 0.6-0.2 1-0.5 1.4-0.3 0.3 0.1 0.5 0.7 0.9 1.3 1 0.4 2.2 0.8 3.4 1.3 0.3-0.4 0.5-0.7 0.9-1.4 0.2 2.2 1.6 2.7 3.1 2.9 0.1 0 0.1 0.1 0.2 0.2 1.1 0.4 2.2 0.9 3.3 1.3 0.2 0.1 0.5-0.1 0.8-0.2 0.1-1.5 0.7-2.8 1.8-3.8l0 0zm85.7-23.1c-0.1 1.3-0.3 2.6-0.4 4-0.1 1.2-0.1 2.4 0 3.6 0 0.4 0.3 0.9 0.4 1.1-0.4 1-0.7 1.9-1.1 2.8 0.5 0.2 0.8 0.3 1.1 0.5 0.1 0.6 0 1-0.6 1.1-0.6 0.2-0.7 0.6-0.6 1.1 0.3 1.1 0.6 2.3 1 3.4 0.2 0.5 0.4 1.1 0.5 1.6 0.1 0.2 0.2 0.4 0.1 0.5-0.2 2.6 0.7 5.2 0.1 7.7-0.1 0.3 0.1 0.7 0.1 1.1 0 0.5 0 0.9 0 1.4 0 0.9 0.1 1.9 0.1 2.8 0 0.9-0.2 1.8-0.3 2.7 0 0.1-0.1 0.2-0.1 0.3 0.5 2.4-0.1 4.7-0.3 7 0 0.4 0 0.8-0.1 1.1-0.9 2.2-1.5 4.5-2.2 6.7-0.5 1.7-0.9 3.4-1.3 5.1 0 0.2 0 0.4 0 0.6 0.6 2.3 0.2 4.7-0.3 7-0.3 1.3-0.5 2.6-0.9 3.9-0.2 0.7-0.4 1.3-0.8 1.9-0.9 1.5-1.3 3.2-2.5 4.6-1.7 1.9-3.4 3.7-6 4.1-0.5 0.1-1.1 0-1.7 0-0.8-0.1-1.5-0.1-2.3-0.4-0.8-0.2-1.5-0.6-2.4-1-0.1 0.8-0.3 1.4-0.3 2.1-0.1 1.6-0.3 3.2-0.1 4.8 0.2 1.4-0.7 2.7 0 4-0.5 2.1 0 4.3-0.6 6.4-0.1 0.3 0 0.6-0.1 0.9-0.1 1-0.2 2.1-0.3 3.1-0.1 0.5-0.1 1-0.1 1.5 0 0.6 0 1.2-0.1 1.8 0 0.5-0.3 1.1-0.2 1.5 0.1 0.7 0.1 1.4-0.1 2.1-0.1 0.6 0.1 1.3 0.1 1.9 0 1.7-0.1 3.3-0.1 5 0 1.2 0 2.3 0 3.5 0 0.4-0.1 0.8-0.2 1.1-0.2 2-0.5 3.9-0.5 5.9 0 1.5-0.5 3-0.7 4.5-0.1 0.7-0.3 1.3-0.4 1.9-0.2 1.7-1.5 2.9-2.1 4.5-0.1 0.2-0.4 0.5-0.3 0.6 0.5 1.5-0.8 1.6-1.6 1.9-0.9 0.3-1.9 0.3-2.9 0.4-1 0.1-2 0.2-3 0.3-0.3 0-0.7 0-1 0-1.4-0.1-2.8-0.1-4.2 0.1-1.2 0.2-2.6 0.3-3.8 0.1-2.1-0.4-4.2-0.1-6.2-0.3-0.4 0-0.8-0.2-1.3-0.2-1.3 0-1.8-0.7-1.6-1.9-0.5-0.2-1-0.3-1.4-0.5-1.3-0.4-2.2-1.6-2.1-3 0.1-1.7 0.3-3.3 0.4-5 0-0.2 0.1-0.4 0.1-0.5 0.3-0.6 0.6-1.2 0.8-1.8 0.6-2.7 2.6-3.7 4.9-4.5 0.6-0.2 1.2-0.4 1.8-0.6 0.2-0.7 0.3-1.4-0.1-2.1-0.2-0.3-0.1-0.6-0.2-1-0.1-0.8-0.1-1.5-0.2-2.3 0-0.3-0.1-0.7-0.1-1 0-0.7 0.2-1.4 0.2-2.1-0.2-1.8 0.2-3.7 0.2-5.5 0.1-2.4 0.2-4.8-0.2-7.2-0.2-1.4-0.1-2.9-0.1-4.4 0-1.5-0.1-3-0.2-4.4-0.1-1.5-0.3-3.1-0.5-4.6 0-0.4-0.1-0.9-0.3-1.2-0.4-1-0.8-2-0.3-3.2 0.1-0.1 0-0.4-0.1-0.5-0.1-0.2-0.3-0.4-0.3-0.6 0.2-1.9-0.6-3.8-0.5-5.7-0.6-0.1-1.2-0.2-1.9-0.4-0.2 0.3-0.3 0.7-0.5 1.1-0.8 1.5-1.7 2.9-2.5 4.4-0.4 0.8-0.9 1.5-1.5 2.2-0.9 1-1.5 2.3-2.2 3.4-0.1 0.2-0.1 0.5-0.2 0.6-1 1.3-1.7 2.8-2.4 4.3-0.4 0.8-1.1 1.6-1.6 2.3-0.4 0.5-1 0.9-0.7 1.7 0.1 0.2-0.1 0.6-0.2 0.8-0.8 0.9-0.7 2-0.8 3-0.1 1.5-0.2 2.9-0.3 4.4-0.1 1.6 0 3.2-0.1 4.8-0.1 1.4-0.2 2.7-0.3 4.1 0 0.4-0.1 0.7-0.1 1.1 0 1 0.2 2-0.3 2.9-0.2 0.3-0.1 0.8-0.1 1.1 0.1 1 0.2 2-0.5 2.9-0.1 0.2 0 0.5 0 0.8 0 1 0 2 0 2.9 0 1.1-0.1 2.2-0.1 3.3 0 0.2 0.1 0.4 0 0.6-1.1 2.4-1.3 5.1-1.9 7.6-0.1 0.5-0.3 0.9-0.5 1.4-1.5-0.6-2.7 0.2-4.1 0.6-0.5 1.7-2 1.4-3.3 1.5-2.5 0.2-5.1 0.3-7.7 0.5-0.8 0.1-1.5 0.2-2.2-0.2-0.4-0.2-0.9-0.1-1.3-0.1-1.1 0.1-2.3 0.2-3.4 0.2-1.1 0-2.2-0.2-3.3-0.3-0.5 0-0.9-0.1-1.4 0-1.3 0.3-1.9-0.1-2-1.3 0-0.2 0-0.5 0-0.7-2.7-0.8-3.1-1.4-3-4.2 0.1-1.6 0.1-3.2 0.8-4.8 0.8-1.8 2-3.2 3.4-4.5 1.3-1.2 2.8-1.7 4.3-2.4 0.7-0.3 1.6-0.1 2.3-0.1 0.5-0.6 0.9-1.2 1.4-1.8-0.5-0.6-0.6-1.6-0.8-2.5-0.3-2.3 0.2-4.5-0.2-6.8-0.3-1.4 0.1-2.9 0.1-4.4 0-1.8 0-3.7 0-5.5 0-0.4 0-0.8 0-1.1 0.1-3 0.2-6 0.3-9.1 0.1-2.4 0-4.8 0.2-7.1 0.1-1.5 0.6-3 0.9-4.4 0.2-1.1 0.6-2.1 0.8-3.2 0.6-2.2 1.3-4.3 2.3-6.4 1-2.1 1.8-4.4 2.6-6.6 0-0.1 0.1-0.2 0.1-0.3 0.9-1.5 1.8-2.9 2.6-4.4 0.6-1.1 1.2-2.3 1.8-3.4 0.2-0.4 0.5-0.8 0.7-1.2 0.4-1 1-2.1 1.2-3.2 0.1-0.7-0.2-1.6-0.4-2.4-0.5-2-0.3-4-0.4-6 0-0.4-0.1-0.8-0.1-1.1 0.1-2.1 0.1-4.3 0.2-6.4 0-0.1 0.1-0.3 0.1-0.4 0-0.9 0-1.7 0-2.7-0.6 0.4-1.2 0.8-1.9 1.2-0.6 0.4-1.1 0.7-1.7 1.1-0.5 0.4-0.9 0.5-1.6 0.3-0.6-0.2-1.3-0.2-1.9 0-1.4 0.3-2.7-0.1-4-0.4-3.8-0.7-7.2-2.6-11-3.7-1.6-0.5-3.1-1.1-4.6-1.8-1.6-0.7-3-1.7-4.6-2.3-2.1-0.9-4-2.2-5.9-3.5-0.9-0.6-1.7-0.6-2.7-0.5-1.3 0.1-2.7 0.3-4 0.4-0.8 0.1-1.4-0.2-1.8-1.1-0.1 0.7-0.3 1.4-0.3 2 0 1.3 0.4 2.5-0.3 3.8 0.3 2.2-0.5 4.4-0.5 6.6 0 1.6 0.2 3.3-0.6 4.9-0.2 0.4-0.1 0.9-0.1 1.3-0.1 1.6-0.2 3.2-0.3 4.8-0.1 2.6-0.2 5.2-0.4 7.7-0.1 1.4-0.2 2.8-0.4 4.3 0 0.3 0 0.6 0 0.8 0 0.4 0.1 0.8 0 1.1-0.2 1.6-0.4 3.2-0.6 4.8-0.1 0.8 0.1 1.6 0 2.4-0.2 1.4-0.1 2.9-0.7 4.3-0.1 0.1 0.1 0.4 0.1 0.6 0.1 0.5 0.2 1 0.2 1.4 0 0.9-0.3 1.8-0.2 2.6 0.2 1 0 1.8-0.3 2.6-0.3 1.1-0.3 2.1-0.4 3.2-0.1 2.3-0.3 4.5-0.4 6.8 0 0.6-0.1 1.3 0 1.9 0.3 1.4-0.4 2.3-1.2 3.3-0.9 1.1-3 0.5-3.4-1-0.6-2.1-0.8-4.1-0.5-6.2 0.1-0.7 0.4-1.4 0.5-2.1 0.2-1.7 0.4-3.3 0.6-5 0.1-0.9 0.3-1.7 0.4-2.6 0-0.2 0-0.5-0.1-0.7-0.3-0.8-0.4-1.6 0-2.4 0.1-0.1 0.1-0.3 0.1-0.4-0.5-1.9 0.1-3.7 0.1-5.6 0-0.7-0.1-1.4 0-2.1 0.2-2.4 0.4-4.8 0.7-7.2 0.1-0.8-0.2-1.6 0.2-2.4 0.2-0.4 0.2-1.1 0-1.5-0.5-0.8-0.2-1.6 0-2.3 0.2-1.7 0.6-3.4 0.2-5.2-0.2-0.8 0.2-1.7 0.3-2.5 0.1-0.6 0-1.2 0-1.8 0-0.8 0-1.6 0.1-2.4 0.3-1.5 0.1-2.9 0.2-4.4 0-0.9 0.2-1.6 0.7-2.2-0.8-1.2-0.2-2.4-0.3-3.6-0.2-2 0.3-3.9 0.5-5.9 0.1-0.7-0.1-1.5-0.2-2.3-1.1-0.7-1.7-1.6-1.9-2.9-0.1-0.9-0.6-1.8-0.2-2.8 0.1-0.2 0-0.6-0.1-0.8-0.4-1-0.2-1.9 0.1-2.8 0.2-0.8 0.5-1.7 0.3-2.5 0-0.2-0.1-0.5 0-0.7 0.4-2.1 0.8-4.2 1.4-6.3 0.4-1.5 1.2-2.2 2.7-2.6 0-1.9 0.7-3.7 0.3-5.7-0.3-1.4 0-2.8 0-4.2 0-0.6 0-1.3 0-1.9 0.1-3 0.2-6 0.3-9 0-0.8 0.1-1.6 0.1-2.4 0.1-1.7 0.3-3.4-0.1-5.1 0-0.1-0.1-0.2 0-0.3 0.5-1 0.4-2.1 0.4-3.3 0-1.6 0.1-3.2 0.3-4.8 0-0.6 0.2-1.2 0.2-1.8 0-0.8 0-1.7 0-2.5 0-0.2 0-0.4 0-0.6 0.7-1.5 0.6-3 0.6-4.6 0-2.8 0.5-5.6 1.1-8.3 0.2-1.1 0.9-1.7 1.9-2 1.6-0.5 2.6 1 2.6 2.2 0 0.8-0.1 1.5-0.2 2.3 1.2 0.2 2.4 0.5 3.7 0.7 0.2-0.8 0.2-1.6 0.3-2.4 0.2-1.4-0.2-3.2 1.3-4.2 0.4-0.2 0.9-0.5 1.3-0.4 2 0.4 4.1 0.2 6.1 0.3 2.4 0.1 4.8 0.1 7.2 0.1 1 0 2 0.1 3 0.1 2.1 0 4.3-0.1 6.4 0.1 1.3 0.1 2.6 0.1 4-0.1 1.3-0.1 2.6-0.1 4-0.2 0.9-0.1 1.7-0.2 2.5 0.2 0.1 0.1 0.3 0 0.4 0 2.7-0.1 5.4-0.1 8.1-0.2 1.3 0 2.6-0.2 3.8-0.2 1.4 0 2.8 0.2 4.1 0.2 0.3 0 0.6-0.1 0.9-0.2 0.2 0 0.4 0 0.6 0 1 1.2 1.6 2.5 0.9 4-0.1 0.2-0.1 0.5 0 0.7 0.4 1.5 0 2.7-1 3.9-1.3 1.5-2.2 3.3-3.3 5-0.8 1.4-1.6 2.9-2.3 4.4-0.7 1.7-1.4 3.5-1.9 5.3-0.5 1.9-0.9 3.9-1.3 5.8-0.3 1.5-1.1 3-0.7 4.6 0.1 0.3-0.2 0.6-0.3 0.8-0.8-0.7-1.7-1.3-2.5-2-1.3-1.2-2.6-2.5-3.9-3.7-1.1-0.9-2.3-1.6-3.4-2.4-1.1-0.7-2.1-1.5-3.2-2.3-0.7-0.5-1.3-1.1-2.1-1.8 0.4-0.8 0.9-1.5 1.7-2.1 2.3-1.7 4.5-3.4 6.7-5.1 1.1-0.8 2-1.8 3.1-2.7 0.6-0.5 1.3-1.1 2-1.5 0.5-0.3 0.8-0.6 0.8-1.1-0.1-1.2-0.1-2.5-0.4-3.7-0.1-0.6-0.8-1.1-1.5-1-2.5 0.4-4.9 0.4-7.4 0.4-0.6 0-1.3 0.2-2.1 0.4-1 1.2-0.4 2.6-0.3 3.9 0.8 0.3 0.9 0.3 3.1-0.5 0.1 0.2 0.3 0.4 0.4 0.6-0.1 0.2-0.1 0.3-0.1 0.3-0.8 0.5-1.3 1.4-2.4 1.4-0.1 0-0.3 0.2-0.4 0.4-0.4 0.6-0.7 1.1-1.5 1-0.1 0-0.3 0.2-0.5 0.3-0.9 0.8-2 1.4-3.1 1.9-1.1 0.4-2.1 1.3-3.1 2-1.3 0.9-2.5 1.9-3.7 2.8-1.3 1.1-1.1 2.3 0.4 3.2 1.9 1.1 3.6 2.6 5.2 4.2 0.9 0.9 1.7 1.8 2.9 2.2 0.3 0.1 0.5 0.4 0.8 0.6 0.1 0.1 0.1 0.2 0.1 0.2 1.6 1 2.9 2.6 4.9 2.9 0.4 0.1 0.8 0.3 1.2 0.5 0.1 0.3 0.1 0.6 0.2 0.9 0.5 0 1 0 1.5 0 0.2 0.5 0.4 1 0.6 1.5-0.9 1-1.8 0.3-2.6 0-1.1-0.4-2.1-1-3.2-1.5-0.5 0.3-0.9 0.6-1.3 0.9-0.1 0.9-0.1 1.7-0.2 2.5 0 1.1 0.9 1.9 2.1 1.7 1.8-0.3 3.6 0 5.3-0.1 1.4-0.1 2.7-0.2 4.1-0.2 0.5 0 0.9 0.1 1.5 0.2 0.2 1.3 0.4 2.6 0.5 3.9 0 0.3-0.2 0.7-0.5 0.8-1.1 0.7-2.2 1.6-3.5 2-0.9 0.3-2 0-3-0.2-0.7-0.1-1.3-0.3-1.9 0-0.4 0.1-1 0.3-1.4 0.1-1.8-0.5-3.7 0.1-5.5-0.5-0.3-0.1-0.7 0.1-1 0.1-0.8 0-1.7-0.1-2.5-0.3-0.7 0-1.5 0-2.2-0.1-1.1-0.1-2.2-0.4-3.2-0.3-1.7 0.2-3.4-0.3-5.1-0.4-2.6-0.2-5.3-0.5-7.9-0.7-1.8-0.1-3.5-0.5-5.3-0.7-0.3 0-0.7 0-0.9 0.1-0.4 0.2-0.7 0.4-1.1 0.6-1.5-0.4-1.9-1.1-1.6-2.6 0.1-0.7 0.1-1.4 0.2-2.1-0.6-0.2-1.1-0.6-1.7-0.1-0.4 0.3-1 0.3-1.4 0.4-0.2 2.3-0.3 4.7-0.5 7 0 0.6-0.2 1.1-0.3 1.7 0 0.3-0.1 0.6 0 0.8 0 0.7 0.2 1.4 0 2-0.3 1-0.1 1.9 0.2 2.9 0.5-0.1 1-0.1 1.6-0.2 1.3 0.8 2.6 1.5 3.8 2.4 1.7 1.2 2.6 2.9 3.2 5.1 1.2 0.9 3.2 0.7 4 2.4 1.9-0.1 3.7-0.3 5.6 0 1.4 0.2 2.9 0.2 4.3 0.1 0.6 0 1.2 0.1 1.8 0.2 0.8 0.1 1.6 0.2 2.4 0.2 1.8 0.1 3.5 0.5 5.2 1 0.9 0.3 1.9 0.5 2.9 0.7 0.5-1 0.8-1.9 1.2-2.7 0.1-0.2 0.1-0.4 0.2-0.5 1.7-1.4 2.4-3.6 3.9-5.2 1.6-1.8 2.8-4 4.9-5.3 1.2-1.9 3.4-2.2 5.1-3.4 0-0.3-0.2-0.7-0.1-1 0.1-0.4 0.3-0.8 0.6-1 0.4-0.3 1-0.5 1.5-0.7 0.7-0.3 1.1-1.2 1-2-0.2-1.7-0.3-3.5-0.4-5.2-0.1-1.5 0.6-3-0.1-4.4 0.7-1.6-0.2-3.3 0.5-4.9 0.3-0.6 0.2-1.3 0.3-2 0.4-2.9 1.3-5.8 2.4-8.5 0.9-2.3 2.2-4.4 4.2-6 1.5-1.2 3.1-2.1 4.7-3.1 0.5-0.3 1.1-0.5 1.7-0.7 1-0.4 1.9-1 2.9-1.2 1.6-0.2 3-0.4 4.5-1.1 1.1-0.5 2.4-0.2 3.6-0.4 1.8-0.2 3.6 0.2 5.3 0.3 0.9 0.1 1.8 0.5 2.6 0.9 1.8 0.9 3.5 2.1 5 3.5 0.2 0.2 0.4 0.4 0.7 0.5 1.8 0.8 2.8 2.5 4.2 3.8 0.4 0.4 0.7 0.8 1.1 0.9 1.4 0.2 2.7 0.6 4.1 0.4 1.4-0.2 2.6 0.5 4.1 0.5-0.1-0.7-0.2-1.3-0.2-2-0.1-1.5-0.2-3-0.2-4.5 0-1.4-0.1-2.8-0.4-4.2-0.2-1 0.3-1.8 1-2.4 0.8-0.6 1.7-0.3 2.5-0.1 0.6 0.2 0.9 0.8 0.9 1.5 0 0.7 0 1.3 0.2 2.2-0.4 0.3-0.9 0.6-1.2 0.8-0.1 0.8-0.1 1.5-0.1 2.2 0 0.8 0 1.7 0.2 2.4 0.2 0.7 0.3 1.3 0.2 2.1-0.1 0.8 0.1 1.7 0.2 2.6 1.4 0.1 2.5 0.2 3.7 0.2 2.2-0.2 4.4-0.1 6.6 0.8 0.9 0.4 1.9 0.6 2.9 0.9 0.5 0.2 1 0.5 1.5 0.8-0.1 0.1-0.2 0.1-0.3 0.2 0.4 1.1 0.7 2.2 1.1 3.4-0.2 0.3-0.5 0.6-1 1.1 0.3 0.6 0.6 1.2 0.8 1.8 0.1 0.4 0.2 1 0 1.1-0.6 0.5-0.4 1.1-0.7 1.6 1.4 1.2 1.4 1.7-0.1 2.4-0.1 0.5-0.2 1.1-0.3 1.9 0.8-0.2 1.4-0.1 1.5 0.7 0.1 0.9-0.6 0.9-1.2 1-0.1 0.6-0.3 1.1-0.4 1.6 0.5 0.1 1.1 0.1 1.5 0.4 0.2 0.2 0 0.8-0.1 1.4-0.6-0.1-1-0.2-1.4-0.2-0.1 0.2-0.2 0.3-0.2 0.4 0 0.8 0.1 1.7-0.3 2.5-0.2 0.4 0.2 1.1 0.4 1.9-0.1 0.4-0.4 1-0.4 1.7 0 0.6 0.2 1.2 0.3 2-0.3 1-1 2.1 0 3.3 0.1 0.2 0.1 0.7 0 0.8-0.8 0.5-0.6 1.3-0.6 2.2 0.8 0.2 1 0.8 0.6 1.6-0.2 0.1-0.5 0.2-0.9 0.3 0.1 0.6 0.1 1.3 0.2 1.9 0.3 0 0.6 0 0.8 0.1 0.3 1.1 0.3 1.1-0.8 1.4-0.2 0.9-0.4 1.8-0.5 2.7 0 0.2 0.1 0.4 0.2 0.6l0 0z"/><path d="m137 36.3c0.1 0.5 0.1 1 0.2 1.8-0.8-0.4-1.4-0.6-2.1-0.9 0.4-0.9 0.9-1.1 1.9-0.9"/><path d="m135.5 42.1c-0.5 0.5-0.9 0.9-1.4 1.5-0.2-0.4-0.4-0.8-0.6-1.1 1-1.1 1.2-1.1 2.1-0.4"/><path d="m132.3 62.8c0.2-0.4 0.4-0.8 0.7-1.4 0.5 0.5 0.8 0.8 1.2 1.1-0.4 0.4-0.7 0.7-1.1 1-0.3-0.3-0.6-0.6-0.8-0.8l0 0"/><path d="m135.6 50c-0.3 0.2-0.7 0.4-1 0.7-0.8-0.7-0.8-0.7-0.2-1.8 0.4 0.2 0.8 0.5 1.2 0.7 0 0.1 0 0.3 0 0.4"/><path d="m133.8 57.2c0.2-0.4 0.4-0.8 0.7-1.4 0.4 0.3 0.7 0.6 1.1 0.9-0.8 1.1-0.8 1.1-1.7 0.5"/><path d="m133.8 72.4c0.1 0.5 0.1 0.9 0.2 1.4-0.4 0.2-0.7 0.3-0.9 0.4-0.8-1-0.7-1.3 0.8-1.8"/><path d="m133.6 68.5c0.1 0.8 0.1 1.4 0.2 1.9-0.8 0.3-1.2 0-1.4-0.5-0.2-0.7 0.4-0.9 1.2-1.4"/><path d="m133.4 46.3c0.5-0.7 1.1-0.9 1.9-0.5-0.3 1.4-0.8 1.6-1.9 0.5"/><path d="m134.2 66c-0.3 0.2-0.4 0.4-0.6 0.4-0.3 0.1-0.7 0-1 0 0-0.3-0.1-0.7 0-0.8 0.3-0.2 0.7-0.3 1.1-0.3 0.1 0 0.3 0.3 0.5 0.7"/><path d="m135.1 25.8c0.3-0.1 0.6-0.2 1-0.3 0.1 0.3 0.4 0.6 0.4 0.9 0 0.2-0.4 0.5-0.7 0.5-0.6 0.1-0.8-0.3-0.7-1.1"/><path d="m135.3 60.1c0.1 0.8 0.2 1.3-0.7 1.5-0.2-0.4-0.5-0.8-0.9-1.3 0.6 0 1-0.1 1.6-0.1"/><path d="m134.6 52.5c0.4 0.5 1 0.9 0.4 1.3-0.2 0.2-0.8-0.1-1.2-0.2 0-0.1-0.1-0.2-0.1-0.4 0.3-0.2 0.5-0.5 0.9-0.8"/><path d="m136.1 29c0.2 0.5 0.3 1 0.5 1.7-0.8-0.1-1.2-0.2-1.3-0.9-0.1-0.4 0-0.7 0.8-0.8"/><path d="m98.9 65.8c-1.2 1-2.4 0.7-3.6 0.4-1.1-0.2-2.3-0.4-3.5-0.4-1.6-0.1-3.3 0.2-4.8-0.1-1.5-0.3-3 0-4.5-0.2-1.2-0.2-2.5-0.1-3.7-0.4-1.6-0.4-3.1-0.4-4.9-0.1 0.2 1.3-0.4 2.6 0.2 4 0.2 0.4 0.1 0.8 0.1 1.3-0.1 1-0.3 2.1-0.3 3.1 0 2.2 0.1 4.4 0.1 6.5 0 0.7-0.1 1.3-0.1 2 0 0.6 0 1.2 0 1.8-0.1 1.3-0.2 2.6-0.3 4.1 1.1 0 2.1 0 3 0 1 0 2-0.1 2.9 0.2 1.4 0.5 2.9 0.5 4.3 0.6 0.5 0 1 0 1.4 0.1 0.9 0.3 1.8 1 2.8 0.3 1.3 0.3 2.7 0.5 4.1 0.2 1.9 0.9 3.9-0.2 5.9 0.4 0.1-1 0-1.8 0.2-2.7 0.5-2.6-0.3-5.3 0.4-8 0.2-0.9 0.3-2 0.3-3-0.1-2.1-0.1-4.1 0.1-6.1 0.1-1 0-2 0-3 0-0.4-0.1-0.7-0.1-1.3zm-24.3 25.2c-0.4 0-0.7 0-1-0.1-0.4-0.1-0.9-0.2-1-0.4-0.5-1.1-1.6-1.8-1.6-3.2 0-1.6-0.3-3.2-0.1-4.7 0.4-2.4 0.2-4.8 0.3-7.2 0.2-2.8 0.1-5.6 0.2-8.4 0-0.7-0.4-1.4-0.1-2.2 0.4-1.5 1.3-2.4 2.8-2.6 0.6-0.1 1.2-0.2 1.8-0.3 0.3 0 0.6-0.1 0.8 0 1.8 0.8 3.6 0.5 5.4 0.6 2.3 0.2 4.7 0.4 7 0.4 2.2 0 4.3 0.6 6.5 0.6 1.1 0 2.3 0.1 3.3-0.5 0.6-0.4 1.3-0.1 1.6 0.5 0.5 1 1 2 1.5 3 0.1 0.2 0.2 0.4 0.2 0.5 0 1.2-0.1 2.5-0.1 3.7 0 0.4-0.1 0.9-0.1 1.3 0.4 3-0.2 5.9-0.6 8.8-0.1 1.1-0.1 2.3 0 3.4 0.1 1.2 0.1 2.4-0.1 3.6-0.2 1-0.1 2.2-0.2 3.2-0.1 0.9-0.4 1.7-1.3 2-0.9 0.3-1.8 0.4-2.8 0.5-1.6 0.1-3.2 0.3-4.7 0.1-1.3-0.2-2.6-0.2-3.9-0.3-2.2-0.2-4.4-0.4-6.7-0.5-1.8-0.1-3.6-0.4-5.4-0.3-1.1 0.1-1.6-0.7-2-1.6z"/><path d="m117.8 87.5c0.3 0.5 0.6 1 0.9 1.4-1 0.7-1.6 0.7-1.9 0.1-0.4-0.8 0.3-1.1 1-1.5"/><path d="m63.3 102.2c0.2 1.1 0 1.6-0.6 1.6-0.5 0-1.1-0.5-1-0.9 0.2-1 1-0.6 1.7-0.7"/><path d="m63.9 78.5c0.9 0.9 1 1.3 0.5 1.7-0.4 0.4-0.9 0.3-1.3-0.1-0.4-0.4-0.2-0.8 0.7-1.6"/><path d="m65.6 67.7c-0.8 0.1-1.1-0.1-1.1-0.7-0.1-0.7 0.3-1.1 0.9-1.3 0.7 0.6 0.6 1.3 0.2 2"/><path d="m61.5 80.7c0.6-0.1 1.1-0.2 1.4 0.4 0.1 0.3-0.1 0.7-0.3 1-0.2 0.2-0.7 0.2-0.9 0.1-0.6-0.4-0.3-0.9-0.2-1.4"/><path d="m117.9 104.1c-0.3-0.4-0.5-0.9-1-1.5 0.7-0.1 1.1-0.2 1.6-0.3 0.5 0.9 0.3 1.5-0.6 1.9"/><path d="m64.6 82.4c0.2 0.9 0 1.4-0.6 1.5-0.2 0-0.7-0.2-0.8-0.4-0.1-0.3 0-0.9 0.1-1 0.3-0.2 0.8-0.1 1.2-0.1"/><path d="m63 76.4c0-1 0.2-1.4 0.8-1.4 0.5 0 0.9 0.5 0.9 0.9-0.1 0.6-0.5 0.7-1.7 0.4"/><path d="m118.5 112.9c0.6 1.1 0.6 1.1 0.1 2-0.4-0.3-0.8-0.5-1.4-0.9 0.5-0.4 0.9-0.7 1.4-1.1"/><path d="m118.6 107.6c-0.8-0.1-1.2-0.4-1.1-1.2 0.1-0.4 0.4-0.6 0.8-0.5 0.6 0.2 0.7 0.6 0.2 1.7"/><path d="m114.8 77.7c-0.7 1.2-1 1.2-1.9 0.2 0.6-0.9 0.6-0.9 1.9-0.2"/><path d="m63.6 87.8c-0.1-0.5-0.3-0.9-0.2-1.2 0.1-0.3 0.4-0.5 0.7-0.6 0.2 0 0.6 0.2 0.6 0.4 0.1 0.3 0 0.7-0.2 0.9-0.1 0.2-0.5 0.3-0.9 0.5"/><path d="m61.4 78.4c-0.1-1-0.1-1 0.4-1.7 0.5 0.3 1.1 0.5 0.8 1.2-0.2 0.6-0.7 0.7-1.3 0.4"/><path d="m62.9 98.5c0.2 0.4 0.3 0.8 0.6 1.4-0.5 0.2-0.9 0.3-1.4 0.5-0.4-0.9-0.3-1.5 0.8-1.9"/><path d="m116.9 99.5c0.6-0.4 0.9-0.7 1.3-1 0.4 0.5 1 0.9 0.4 1.5-0.5 0.5-1 0.1-1.7-0.5"/><path d="m66.2 63.1c-0.4 0.5-0.7 0.9-1 1.2-0.8-0.5-1-1-0.5-1.8 0.5 0.2 0.9 0.3 1.5 0.6"/><path d="m118.9 111c-0.5 0-0.9-0.1-1.4-0.1 0.1-0.8 0.3-1.5 1.4-1.3 0 0.5 0 0.9 0 1.4"/><path d="m68.3 60.2c-0.1-0.5-0.1-0.9-0.2-1.3 0.7-0.3 1.3-0.3 1.4 0.5 0.1 0.7-0.4 0.9-1.2 0.8"/><path d="m60.1 105.3c0-0.3 0-0.7 0.1-1 1.2-0.3 1.2-0.3 1.5 0.8-0.5 0.3-1 0.7-1.6 0.1l0 0"/><path d="m67.7 63.9c0.1 0.8 0.1 1.1 0.2 1.5-0.4 0.1-0.8 0.3-1.3 0.4-0.1-0.3-0.2-0.5-0.4-0.9 0.4-0.3 0.8-0.6 1.5-1"/><path d="m63.7 91.4c-0.2-0.7-0.3-1.1-0.4-1.8 0.7 0.1 1.2 0.2 1.7 0.3 0 0.1 0.1 0.2 0.1 0.4-0.4 0.3-0.8 0.7-1.3 1.2"/><path d="m63.1 96.1c-1.5 0.2-1.5 0.1-1.4-1 1.3-0.1 1.3-0.1 1.4 1"/><path d="m60 101.7c0.1-0.5 0.1-0.8 0.2-1.2 0.8-0.1 1.3 0.2 1.2 0.8-0.1 0.7-0.7 0.6-1.4 0.4"/><path d="m116.2 79.9c-0.5 0.2-0.9 0.4-1.3 0.5-0.3-1.1-0.3-1.1 0.8-1.6 0.2 0.3 0.3 0.6 0.5 1.1"/><path d="m65.8 69.9c0.1 0.6 0.2 1.2-0.6 1.3-0.2 0-0.6-0.4-0.6-0.6 0-0.7 0.5-0.9 1.2-0.7"/><path d="m116.8 96.1c0.5-0.7 0.8-1.3 1.5-1 0.3 0.1 0.4 0.6 0.7 1.1-0.8-0.1-1.4-0.1-2.2-0.1"/><path d="m62 85.7c-0.1-0.5-0.3-0.8-0.4-1.2 0.5-0.5 0.9-0.7 1.2-0.1 0.3 0.6 0.1 1.1-0.9 1.3"/><path d="m66.8 62.3c-0.1-0.5-0.2-1-0.3-1.5 0.6-0.3 0.9-0.3 1.2 0.2 0.2 0.5 0 0.8-0.8 1.3"/><path d="m65.7 77c0.5 0.5 1 0.9 0.1 1.5-1.1-0.7-1.1-0.9-0.1-1.5"/><path d="m59.9 94.3c0-0.2 0-0.5 0.1-0.8 0.3 0 0.6-0.1 1-0.2 0.1 0.5 0.7 0.9-0.1 1.5-0.3-0.2-0.6-0.4-1-0.6l0 0"/><path d="m64.7 73.7c0.6-0.4 1.1-0.4 1.4 0.1 0.1 0.2 0 0.6-0.1 0.7-0.2 0.2-0.7 0.3-0.8 0.2-0.2-0.2-0.3-0.7-0.4-1"/><path d="m67.8 55.2c0.7 0.1 1.1 0.1 1.4 0.2 0.1 0.9-0.5 1-1 1.6-0.1-0.6-0.3-1-0.4-1.7"/><path d="m54.2 122.8c0.4 0.1 0.8 0.1 1.1 0.3 0.3 0.2 0.8 0.5 0.8 0.8 0 0.4-0.4 0.7-0.6 1.1-1.2-0.4-1.3-1.3-1.3-2.1l0 0"/><path d="m86.6 139c-0.4-0.6-0.6-1.1-0.3-1.6 0.2-0.3 0.6-0.5 1-0.7 0.1 0 0.5 0.2 0.5 0.4 0 0.4 0 0.8-0.2 1.2-0.2 0.3-0.6 0.5-1 0.8"/><path d="m49.1 157.7c-0.5-0.3-1.3-0.3-1.2-1.1 0.1-0.3 0.5-0.7 0.9-0.8 0.2-0.1 0.7 0.2 0.9 0.5 0.4 0.6 0 1-0.6 1.4"/><path d="m51.7 156.1c-0.8-0.3-1.6-0.2-1.9-1.2 0.1-0.2 0.3-0.5 0.6-0.8 0.5 0.3 0.9 0.5 1.4 0.8 0 0.4 0 0.8 0 1.2"/><path d="m47 161c1.2 0.9 1.2 0.9 0.5 2-0.6 0-1-0.4-1-1 0-0.3 0.3-0.7 0.5-1"/><path d="m88.8 134.5c0.3 0.5 0.6 0.9 0.9 1.3-0.4 0.5-0.9 0.9-1.4 0.5-0.6-0.5-0.3-1.1 0.5-1.7"/><path d="m55.5 132.4c-0.4-0.4-0.7-0.6-1.2-1 0.5-0.4 0.8-0.7 1.2-1 0.8 0.7 0.6 1.2 0 2"/><path d="m52 132.2c-0.8-0.6-1-0.9-0.7-1.4 0.3-0.4 0.7-0.4 1.1 0 0.5 0.5 0.4 0.7-0.4 1.4"/><path d="m47.5 168.4c0.8 0.8 0.9 1.2 0.5 1.5-0.4 0.4-0.9 0.2-1.6-0.8 0.4-0.3 0.7-0.5 1.1-0.8"/><path d="m50 158.6c0.3-0.4 0.6-0.8 0.9-1.1 0.7 0.5 0.9 1.2 0.4 1.6-0.5 0.5-0.9 0.2-1.3-0.5"/><path d="m54.7 128.3c0-0.4 0-0.8 0-1.4 0.6 0.1 1 0.1 1.3 0.2 0.1 1.3 0 1.3-1.4 1.2"/><path d="m56.4 121.6c0.6-0.2 1.2-0.5 1.4 0.4 0.1 0.6-0.2 1-0.6 1-0.6 0-0.8-0.3-0.7-1.4"/><path d="m48.3 167.5c0.2-0.7 0.5-0.9 1-0.7 0.2 0.1 0.5 0.4 0.5 0.7 0 0.2-0.2 0.6-0.4 0.6-0.6 0.3-0.9-0.3-1.2-0.6"/><path d="m56.3 126.2c0-0.4 0-0.7 0.1-1.1 0.6 0.1 1.1 0.2 1.7 0.2-0.2 0.5-0.3 0.7-0.4 1-0.4 0-0.8-0.1-1.4-0.1"/><path d="m88.6 171c-0.2-0.6-0.3-0.9-0.4-1.4 0.6-0.1 1.1-0.1 1.5-0.1 0.5 1.1-0.3 1.1-1.1 1.5"/><path d="m48 163.8c0.7-0.3 1.1-0.4 1.5-0.6 0.5 0.5 0.7 1-0.1 1.6-0.4-0.3-0.8-0.5-1.4-1"/><path d="m89.9 166c-0.5 0.5-0.8 0.8-1.1 1.1-0.5-0.4-0.9-0.7-0.5-1.2 0.4-0.5 0.9-0.3 1.7 0.1"/><path d="m88.5 172.9c0.7 0.2 1 0.3 1.5 0.4-0.5 0.5-0.6 1.4-1.6 0.9 0-0.4 0.1-0.8 0.1-1.3"/><path d="m47.8 160.3c0.7-0.4 1-0.6 1.3-0.9 0.2 0.2 0.5 0.4 0.4 0.6-0.1 0.3-0.3 0.9-0.4 0.9-0.3 0-0.7-0.3-1.3-0.6"/><path d="m89.9 139.4c-0.6 0.3-0.9 0.6-1.2 0.5-0.3-0.1-0.4-0.5-0.7-0.7 0.3-0.2 0.5-0.6 0.8-0.6 0.2 0 0.5 0.4 1 0.8"/><path d="m54.5 129.6c-0.2 0.6-0.6 0.8-1 0.5-0.7-0.4-0.3-1-0.1-1.5 0.8-0.1 0.8 0.6 1.1 1"/><path d="m53.2 133.7c-0.4-0.7-0.3-1.1 0.3-1.3 0.2-0.1 0.7 0.2 0.8 0.4 0.1 0.7-0.4 0.8-1.1 1"/><path d="m48.5 171.4c0.1-0.7 0.4-1.1 1-0.9 0.4 0.1 0.6 0.7 0.3 1-0.2 0.3-0.5 0.3-1.4-0.2"/><path d="m47.4 164.8c0.7 0.4 0.5 1 0.3 1.6-0.5 0.1-0.9 0-1-0.5-0.1-0.5 0.1-0.9 0.7-1.1"/><path d="m79.3 42c-0.2-0.6-0.5-1.1-0.4-1.5 0.3-1.2 0.2-2.4 0.2-3.5 0-2.6-0.2-5.2 0.2-7.8 0.2-1 0.3-2.1 0.5-3.1 0.2-1.3 0.5-2.5 0.7-3.8 0.1-0.3 0-0.6-0.1-1-1.5 0.6-2.8 0.9-3.7 2.2-0.5 0.8-0.4 1.5-0.5 2.3-0.4 2.9-0.5 5.7-0.5 8.6 0 2.4 0.3 4.7 0.9 7 0.9-0.2 1.3 1.7 2.5 0.6zm-9.1-10.6c0.1-0.2 0.3-0.4 0.3-0.6 0.1-1.2 0.3-2.4 0.3-3.5 0-1.4 0.1-2.7 0.7-4 0.1-0.2 0-0.4 0-0.4-0.6-0.4-1.1-0.6-1.4-1-0.1-0.1 0.3-0.8 0.6-1 0.2-0.1 0.7 0.1 1.2 0.3 0-0.5 0.1-1 0.1-1.7 0.5-0.6 1.1-0.3 1.7 0 1.4-0.9 2.8-1.5 4.4-2 1.1-0.3 2.2-0.7 3.3-1 0.6-0.2 1.3-0.2 2-0.3 0.9-0.2 1.9-0.3 2.8-0.5 0.2 0 0.4-0.1 0.6-0.1 1.3 0.1 2.7 0.3 4 0.4 2.1 0.2 4.2 0.3 6.2 0.9 0.6 0.2 1.3 0.3 1.9 0.3 1.5 0.2 2.4 1.3 3.5 1.9 0.7 0.4 1.4 0.7 2 1 1.3 0.7 2.3 1.5 2.2 3.2 0 1.2 0.2 2.3 0.4 3.5 0 0.2 0 0.5 0 0.7 0 0.8-0.2 1.7 0 2.5 0.4 1.7 0 3.3 0.1 5 0.1 2.1-0.3 4.2-0.4 6.3-0.1 1.2-0.4 2.4-0.7 3.5-0.2 0.8-0.6 1.5-1.6 1.6-0.4 0-0.7 0.4-1 0.7-0.4 0.3-0.7 0.8-1.1 0.8-1 0.1-1.7 0.7-2.5 1.2-0.6 0.4-1.2 0.5-1.8 0.7-2 0.6-3.9 1.1-5.9 1.3-1.2 0.1-2.5-0.1-3.7-0.2-1.3-0.1-2.6-0.3-3.9-0.5-0.9-0.1-1.7-0.4-2.6-0.6-2.8-0.6-5-2.4-7.7-3.1-0.5-0.1-0.8-0.3-1.1-0.8-0.3-0.4-0.8-0.6-1.4-1 0.1-0.3 0.2-0.7 0.4-1.3-0.2-0.1-0.4-0.2-0.7-0.4-0.1-0.5-0.2-1.1-0.3-2-0.3 0.5-0.5 0.7-0.6 0.9-0.5-0.2-0.9-0.3-1.4-0.5 0.3-1 1.1-1 1.9-0.8-0.1-0.7-0.2-1.3-0.3-2-0.4-0.2-0.9-0.4-1.3-0.6-0.1-1.1-0.1-1.1 1.2-1.4-0.1-0.5-0.2-1.1-0.3-1.6-0.4-0.3-0.9-0.6-1.6-1 0.7-0.3 1.1-0.5 1.6-0.8 0-0.7 0.1-1.4 0.1-2.2l0 0z"/><path d="m69.6 44.2c0.5 0.2 1.2 0.1 1.2 1.1-0.7 0.2-1.5 0.5-2.3 0.7-0.3-0.8-0.3-0.8 1.1-1.9"/><path d="m75.3 50.6c-0.4 0.4-0.7 0.8-1 0.9-0.4 0.1-0.8-0.5-0.7-1 0.1-0.5 0.3-0.9 0.8-0.8 0.3 0.1 0.5 0.5 0.9 0.9"/><path d="m70.3 31.4c-0.5 0-1-0.1-1.7-0.1 0.3-0.6 0.4-1.1 0.6-1.5 1.1 0.5 1.1 0.5 1.1 1.7l0 0"/><path d="m72.6 49.7c-0.9-0.6-0.9-0.6-0.4-1.8 0.3 0.1 0.7 0.2 0.9 0.4 0.3 0.5 0 1-0.5 1.4"/><path d="m68.4 27.3c0.4-0.4 0.7-0.7 1.1-1 1.2 0.7 1.2 0.7 0.2 1.7-0.4-0.2-0.8-0.4-1.3-0.7"/><path d="m75.5 51.8c1-0.2 1.4 0 1.4 0.6 0 0.3-0.4 0.7-0.6 0.7-0.6 0.2-0.7-0.2-0.8-1.4"/><path d="m76.5 16.9c-0.6-0.3-1.2-0.5-0.7-1.2 0.2-0.2 0.9-0.4 1.1-0.2 0.6 0.5 0.1 0.9-0.4 1.3"/><path d="m82.6 53.9c-1 1-1 1-1.8 0.3 0.3-0.3 0.5-0.6 0.9-1 0.4 0.3 0.7 0.5 1 0.7"/><path d="m78.4 13c0.3 0.5 0.6 0.8 0.6 1.1 0.1 0.5-0.3 0.9-0.8 0.7-0.3-0.1-0.6-0.5-0.6-0.8 0-0.3 0.4-0.5 0.7-1"/><path d="m80.9 52.5c-0.7 0.3-1.1 0.4-1.8 0.7 0-0.5-0.1-0.9 0.1-1.2 0.2-0.4 0.4-0.3 1.8 0.5"/><path d="m75.6 17.8c-0.5 0.3-0.7 0.7-1 0.7-0.2 0-0.5-0.4-0.7-0.6 0.3-0.2 0.5-0.5 0.8-0.6 0.2 0 0.5 0.3 0.9 0.5"/><path d="m30.1 78.9c0.7 0.6 1.3 1.2 2.1 2 0 0.1 0.1 0.4 0.1 0.6-0.1 0.2-0.3 0.6-0.5 0.6-0.3 0.1-0.8 0-0.9-0.2-0.4-0.7-0.8-1.2-1.5-1.6-0.5-0.3-0.3-1 0.6-1.5"/><path d="m34.6 79.2c-0.6 1.1-1 1.3-1.6 1-0.5-0.2-0.6-0.6-0.2-1.6 0.7-0.3 1.3-0.1 1.8 0.5"/><path d="m50.7 81.7c-1.5 0.1-1.5 0.1-1.9-1 0.4-0.5 0.9-0.7 1.5-0.4 0.6 0.3 0.6 0.9 0.4 1.4"/><path d="m53.9 71.4c1.6-0.7 1.6-0.7 2.1 0.4-0.5 0.4-0.9 1-1.7 0.7-0.2-0.1-0.3-0.7-0.4-1.1"/><path d="m39.5 74.7c-0.6 0.3-1.1 0.5-1.5-0.1-0.2-0.3 0-0.9 0.1-1.3 0-0.1 0.5-0.3 0.7-0.2 0.7 0.3 0.9 0.8 0.6 1.6"/><path d="m39.4 82.1c-0.7 0.2-1.2 0-1.3-0.7-0.1-0.3 0.1-0.7 0.3-0.8 0.3-0.1 0.8-0.2 1 0 0.6 0.4 0.4 1 0 1.5"/><path d="m53.7 76.2c0.6 1.1 0.6 1.1-0.3 1.9-0.4-0.2-1.1-0.2-1-0.9 0.1-0.5 0.4-1.1 1.2-1"/><path d="m54.4 70.5c-0.9 0.1-1.4 0.1-1.8 0.2-0.5-1-0.2-1.5 0.8-1.8 0.3 0.4 0.6 0.8 1.1 1.6"/><path d="m38.4 72.4c-0.8 0.3-1.2 0.5-1.7 0.7-0.3-0.4-0.5-0.8-0.8-1.3 0.5-0.2 0.9-0.3 1.5-0.6 0.2 0.3 0.5 0.6 1 1.2"/><path d="m46.6 85.9c-0.5-0.4-0.9-0.9-1.4-1.3 1.1-0.9 1.1-0.9 2 0.1-0.2 0.4-0.5 0.8-0.7 1.3l0 0"/><path d="m28.9 77c0.1-0.8 0.2-1.3 0.4-1.9 0.6 0.2 0.9 0.3 1.3 0.4 0 0.4-0.1 0.9-0.1 1.4-0.4 0-0.8 0-1.6 0.1"/><path d="m50.7 78.4c0.9 0 1.7-0.2 1.9 0.8-0.5 0.7-1.2 0.8-2 0.5 0-0.4 0.1-0.8 0.1-1.3"/><path d="m46.6 73c0.3 0.6 0.5 1.1-0.1 1.5-0.6 0.4-1.1 0.1-1.5-0.4 0-1 0.8-1 1.6-1.1"/><path d="m52.4 73c0.6-0.1 1.3-0.5 1.5 0.4 0.1 0.5-0.1 0.9-0.7 1-0.7 0.1-0.9-0.2-0.9-1.5"/><path d="m52.6 82.5c-0.5 0.5-0.8 0.8-1.2 1.3-0.5-0.6-1.1-1.1-0.6-1.8 0.6-0.7 1 0 1.8 0.5"/><path d="m55.7 59.9c-0.3-0.7-0.5-1.2 0.1-1.6 0.2-0.1 0.7 0 0.9 0.2 0.2 0.2 0.5 0.7 0.4 0.9-0.2 0.7-0.9 0.2-1.4 0.4"/><path d="m27.6 79c0-0.7-0.8-1.4 0.3-2 0.4 0.4 0.7 0.8 1.3 1.3-0.5 0.4-0.9 0.7-1.3 0.9-0.1-0.1-0.2-0.1-0.3-0.2"/><path d="m55.4 80.1c-1-0.3-1.2-0.9-1-1.5 0.1-0.2 0.5-0.6 0.7-0.5 0.3 0.1 0.7 0.5 0.7 0.7 0 0.4-0.2 0.9-0.4 1.3"/><path d="m31.6 78.8c-0.7-0.8-0.8-1.3-0.4-1.6 0.4-0.3 0.8-0.2 1.1 0.2 0.4 0.5 0.2 0.9-0.8 1.5"/><path d="m34.5 78.3c-0.4-0.5-0.4-1 0.2-1.3 0.5-0.3 1 0.1 1.4 1-0.4 0.7-1 0.4-1.6 0.3"/><path d="m32.4 83c0.5-0.3 0.9-0.5 1.3-0.6 0.2 0 0.5 0.3 0.6 0.5 0.2 0.6-0.3 0.9-0.9 1.3-0.3-0.3-0.6-0.7-1-1.2"/><path d="m43.8 78.5c1.2 0.1 1.4 0.3 1.3 1-0.1 0.5-0.5 0.8-1 0.7-0.6-0.1-0.6-0.5-0.3-1.7"/><path d="m37.8 76.2c-0.3 0.2-0.6 0.4-1.1 0.8-0.3-0.5-0.5-0.9-0.7-1.2 1.1-1 1.2-0.9 1.8 0.5"/><path d="m41 74.7c0.7 0.8 0.4 1.4-0.2 2-0.5 0-1-0.2-1-0.8 0-0.7 0.5-1 1.1-1.3"/><path d="m49 72.8c1.2 0.2 1.6 0.5 1.4 1-0.1 0.3-0.6 0.6-0.9 0.7-0.5 0.1-0.7-0.4-0.5-1.7"/><path d="m48 78.2c0.3 0.5 0.6 1 0.8 1.4-0.6 0.6-1.1 0.7-1.5 0.1-0.4-0.6-0.2-1.1 0.7-1.5"/><path d="m40.8 81.8c0.4 0.5 0.7 0.8 1 1.2-1 1-1 1-1.9 0.1 0.3-0.4 0.6-0.8 1-1.3"/><path d="m55.6 66.5c0.3-0.3 0.5-0.5 0.6-0.6 0.4-0.3 0.8-0.4 1.1 0 0.1 0.2 0.2 0.5 0.1 0.7-0.2 0.5-0.6 0.7-1.2 0.5-0.2-0.1-0.4-0.3-0.7-0.6"/><path d="m45.4 76.7c0.6 0.1 1 0.2 1.4 0.2 0.1 1.1 0 1.4-0.7 1.4-1-0.1-0.7-0.8-0.7-1.6"/><path d="m51 71.1c0.8 0.1 1 0.4 0.9 0.9 0 0.5-0.3 0.9-0.7 0.8-0.3-0.1-0.7-0.6-0.7-0.9 0-0.3 0.4-0.6 0.5-0.8"/><path d="m37.7 80c-0.5 0-0.9-0.1-1.3-0.1-0.1-1.4 0-1.4 1.4-1.2 0 0.4-0.1 0.8-0.1 1.3"/><path d="m30 73.4c-1.1-0.6-1.1-0.8-0.4-2 0.3 0.2 0.7 0.4 1.1 0.6-0.3 0.5-0.5 0.9-0.7 1.4"/><path d="m45.1 83.6c-1.3 0-1.3 0-1.4-1.3 0.3-0.1 0.6-0.3 1.2-0.5 0.1 0.7 0.2 1.2 0.2 1.8"/><path d="m41.4 72.8c0.7 0.3 1.2 0.6 1.7 0.8-0.5 1.3-0.5 1.3-1.7 0.5 0-0.3 0-0.6 0-1.3"/><path d="m38.6 78.3c-0.5-1.4-0.4-1.6 0.9-1.5 0.4 1.2 0.4 1.2-0.9 1.5"/><path d="m49.7 78.4c-0.4-0.5-0.8-0.8-1.1-1.2 0.8-0.6 1.4-0.7 2.2 0-0.3 0.4-0.6 0.7-1 1.2"/><path d="m43.1 84.1c0.4 0.7 0.5 1.3-0.3 1.5-0.6 0.2-0.8-0.1-1-1.3 0.4-0.1 0.8-0.1 1.3-0.2"/><path d="m47.5 73c-0.2-0.6-0.3-1.1-0.5-1.6 0.3-0.2 0.6-0.3 0.9-0.5 0.3 0.4 0.6 0.8 1 1.2-0.4 0.3-0.8 0.5-1.4 0.8"/><path d="m55.8 65.1c-0.7 0.1-1.1 0.2-1.6 0.3 0-0.5-0.1-0.9-0.1-1.3 0.3-0.2 0.6-0.3 1-0.5 0.2 0.4 0.4 0.9 0.8 1.6"/><path d="m54.5 74.7c0.6 0.2 1 0.4 1.4 0.5 0 0.7-0.2 1.2-1 1.1-0.7-0.2-0.6-0.8-0.4-1.6"/><path d="m43.3 75.8c0.2-0.4 0.5-0.7 0.7-1.1 0.8 0.3 1.2 0.8 1 1.3-0.4 0.8-1-0.1-1.5 0.1-0.1-0.1-0.1-0.2-0.2-0.3"/><path d="m43.4 71.3c0.5 0 0.8 0 1.3-0.1 0 0.5 0 0.9 0 1.4-1.4 0.1-1.4 0.1-1.3-1.3"/><path d="m33.2 77c-0.2-0.4-0.5-0.8-0.9-1.5 0.7-0.1 1.2-0.1 1.9-0.2-0.3 0.7-0.5 1.2-0.6 1.6-0.1 0-0.3 0-0.4 0.1"/><path d="m39.3 69.8c0.1 0.3 0.1 0.6 0.3 1-0.4 0.1-0.8 0.3-1.2 0.3-0.2 0-0.5-0.5-0.5-0.7 0.2-0.7 0.7-0.8 1.4-0.6"/><path d="m35.1 71.6c-0.3-0.6-0.6-1.1-0.8-1.5 0.4-0.5 0.8-0.7 1.2-0.3 0.6 0.6 0.2 1.1-0.4 1.8"/><path d="m54.7 69.2c-0.3-0.4-0.6-0.7-0.9-1.1 0.6-0.7 1.2-0.5 2 0-0.4 0.4-0.7 0.7-1.1 1.1"/><path d="m54 81.3c-0.7 0.2-1.2 0.5-1.4-0.3-0.2-0.5 0.3-0.8 1.3-1 0 0.4 0.1 0.8 0.2 1.3"/><path d="m41.4 79c0.1 1-0.5 1.1-1.4 1 0-0.4-0.1-0.8 0.1-1.1 0.4-0.6 0.9 0 1.3 0"/><path d="m47.9 76.5c-0.3-0.3-0.6-0.6-1-1 0.4-0.3 0.8-0.6 1.2-0.9 0.5 0.7 0.7 1.2-0.1 1.9"/><path d="m32.2 74.8c-0.6 0-1.1-0.1-1.9-0.1 0.6-0.7 0.9-1.1 1.3-1.5 0.1 0 0.2 0.1 0.4 0.1 0.1 0.4 0.1 0.9 0.3 1.5"/><path d="m41.7 71.2c0-0.6-0.1-1-0.1-1.5 0.5 0 0.9-0.1 1.4-0.1 0 0.3 0.1 0.5 0.1 0.7-0.1 0.7-0.7 0.6-1.4 0.9"/><path d="m51.3 76.4c-0.3-0.2-0.5-0.4-0.9-0.7 0.4-0.5 0.7-0.9 1.1-1.4 0.7 0.9 0.4 1.4-0.3 2.1"/><path d="m29.1 83.9c0.1-1.1 0.7-1.2 1.4-1.3 0.1 0.3 0.2 0.6 0.4 1.1-0.6 0.1-1.1 0.2-1.8 0.2"/><path d="m34 71.8c0.1 0.7 0 1.3-0.8 1.3-0.2 0-0.7-0.5-0.6-0.7 0.1-0.7 0.7-0.7 1.4-0.6"/><path d="m39.6 84.1c0.3 1-0.1 1.3-0.9 1.7-0.2-0.4-0.4-0.7-0.7-1.3 0.5-0.2 1-0.3 1.6-0.5"/><path d="m44.7 87.5c-0.4-0.3-0.7-0.5-1-0.7 0.1-0.4 0.3-0.7 0.4-1.1 1.3 0.2 1.4 0.4 0.6 1.7"/><path d="m43.7 88.6c-0.8 0.7-1.2 0.7-1.8 0.1 0.1-0.5 0.2-1.1 0.9-1 0.3 0 0.6 0.6 0.9 0.9"/><path d="m54.3 82.7c0.3-0.3 0.6-0.6 1.2-1.1 0.2 0.7 0.2 1.2 0.3 1.5-0.8 0.4-1.2 0.3-1.5-0.5"/><path d="m59.8 56.2c-0.2-0.3-0.4-0.6-0.7-0.9 0.4-0.4 0.8-0.6 1.2-0.9 1.1 0.8-0.2 1.1-0.1 1.7-0.1 0.1-0.3 0.1-0.4 0.2"/><path d="m37.2 69.3c-0.7 0.1-1.2 0-1.1-0.8 0.1-0.4 0.4-0.7 0.8-0.6 0.8 0.3 0.5 0.8 0.3 1.4"/><path d="m58.3 61.6c-0.6-0.3-0.9-0.6-0.4-1.2 0.3-0.4 0.6-0.4 1-0.2 0.4 0.3 0.2 0.8-0.5 1.5"/><path d="m28.8 73.8c-0.2 0.5-0.3 0.8-0.5 1.2-0.4-0.2-0.8-0.2-0.9-0.4-0.3-0.4-0.2-0.9 0.3-1.3 0.3 0.1 0.6 0.3 1.1 0.5"/><path d="m45.9 81.9c-0.2-0.4-0.4-0.8-0.6-1.2 0.4-0.2 0.8-0.4 1.2-0.6 0.3 0.8 0.3 1.3-0.6 1.8"/><path d="m54.3 61.8c-0.1-0.4-0.2-0.8-0.3-1.5 0.6 0.1 1.1 0 1.3 0.2 0.4 0.7-0.3 0.9-0.5 1.3-0.1 0-0.3 0-0.4-0.1"/><path d="m37.6 82.3c0.2 0.4 0.3 0.8 0.5 1.3-0.8-0.1-1.4-0.2-2.1-0.3 0.3-0.8 0.9-0.8 1.5-1"/><path d="m35.2 84c0.5 0.4 0.8 0.7 1.4 1.1-0.6 0.3-0.9 0.4-1.2 0.6-0.6-0.4-0.8-0.8-0.2-1.7"/><path d="m57.8 58.4c-0.3-0.6-0.5-1-0.5-1.3 0-0.1 0.5-0.5 0.5-0.4 0.3 0.2 0.7 0.5 0.8 0.8 0.1 0.1-0.4 0.5-0.8 1"/><path d="m42.5 78.5c-0.3-0.4-0.5-0.7-0.8-1 0.3-0.2 0.5-0.5 0.8-0.6 0.3 0 0.6 0.2 1.1 0.3-0.4 0.5-0.7 0.8-1.1 1.2"/><path d="m42.9 82c-0.5-0.4-0.8-0.6-1.2-0.9 0.2-0.7 0.6-0.9 1.1-0.6 0.6 0.3 0.4 0.8 0.1 1.5"/><path d="m46.7 70c-0.2 0.4-0.4 0.7-0.7 1-0.1 0.1-0.6-0.1-0.7-0.3-0.1-0.2-0.1-0.6 0-0.7 0.3-0.5 0.8-0.4 1.4 0.1"/><path d="m56.8 62c0.5 0.5 0.7 1 0 1.5-1.1-0.7-1.1-1 0-1.5"/><path d="m47.1 82.8c0.7-0.7 1.1-0.3 1.8 0.1-0.5 0.4-0.9 0.6-1.3 0.9-0.2-0.4-0.3-0.7-0.5-1"/><path d="m32.5 71c-0.7 0-1.1-0.1-1.5-0.1-0.2-0.7 0.1-1.1 0.9-1.1 0.1 0.3 0.3 0.7 0.6 1.2"/><path d="m127.1 43.7c-0.7-0.3-0.9-0.8-0.8-1.4 0-0.2 0.4-0.5 0.6-0.5 0.6 0 1.1 0.3 1.2 1.1-0.3 0.2-0.7 0.5-1 0.8"/><path d="m128.1 39.2c-1 1.1-1.2 1.1-1.9-0.3 0.9-1 1-1 1.9 0.3"/><path d="m126.5 48.6c-1.3 0.6-1.3 0.6-1.9-0.4 0.3-0.3 0.7-0.6 1.2-1 0.3 0.5 0.5 0.9 0.7 1.4"/><path d="m124.5 50.9c-0.7-0.1-1.2-0.2-1.7-0.3 0.3-1.2 0.3-1.2 1.7-1.1 0 0.4 0 0.8 0 1.4"/><path d="m126.8 34.4c1 0.6 1.3 1.2 0.9 1.5-0.6 0.6-1.1 0.1-1.6-0.4 0.2-0.3 0.4-0.7 0.7-1.1"/><path d="m127.4 28.8c-0.4 0.1-0.7 0.2-1.3 0.3 0-0.4-0.2-0.9 0-1.1 0.1-0.3 0.6-0.6 0.8-0.5 0.7 0.1 0.7 0.6 0.5 1.3"/><path d="m129 30.9c-0.4-0.2-0.9-0.4-1.3-0.7 0.1-0.7 0.2-1.1 0.9-1 0.7 0.1 0.8 0.5 0.4 1.7"/><path d="m125 43.6c0.4 0.1 0.7 0.3 1.1 0.4-0.1 0.5-0.1 1-0.2 1.5-1.3-0.7-1.4-0.7-0.9-1.9"/><path d="m123.3 53c0.4 0 0.9 0.1 1.3 0.1 0.1 0.8 0 1.4-0.8 1.3-0.8-0.1-0.8-0.7-0.5-1.4"/><path d="m125 38.5c-0.6-0.7-0.8-1.2-0.3-2 0.4 0.3 0.8 0.6 1.3 0.9-0.4 0.4-0.7 0.7-1 1.1"/><path d="m127.5 31.4c-0.1 0.5-0.1 0.8-0.2 1.3-0.6-0.1-1-0.2-1.5-0.3 0.1-1.3 1-0.8 1.7-1"/><path d="m126.2 60c-0.6-0.3-0.9-0.4-1.3-0.5 0-0.6 0.1-1.1 0.7-1.2 0.2 0 0.7 0.2 0.7 0.3 0.1 0.4-0.1 0.8-0.1 1.4"/><path d="m126 41c-1 0.9-1 0.9-1.8 0.3 0.7-1.1 0.9-1.1 1.8-0.3"/><path d="m123 47.1c0.1-1.1 0.3-1.5 0.9-1.3 0.3 0.1 0.6 0.6 0.5 0.8-0.1 0.8-0.7 0.7-1.4 0.5"/><path d="m127.8 46.9c-0.4 0-0.8 0.1-1.2 0.1-0.3-0.7-0.1-1.1 0.6-1.5 0.3 0.3 0.6 0.7 0.8 1-0.1 0.1-0.2 0.2-0.2 0.4"/><path d="m127.4 24.6c-0.2 0.4-0.4 0.6-0.6 0.9-1.2-0.8-1.2-0.9-0.1-1.8 0.2 0.2 0.4 0.5 0.7 0.9"/><path d="m126.1 51.2c0 0.4 0.1 0.7 0.1 1-0.4 0.1-0.8 0.2-1.3 0.4 0-0.6 0.1-1 0.1-1.5 0.4 0 0.7 0 1.1 0.1"/><path d="m128.4 25.3c0.4 0.4 0.6 0.6 0.8 0.9-0.1 0.8-0.7 0.8-1.7 0.1 0.3-0.3 0.5-0.6 0.9-0.9"/><path d="m126.2 54.7c0 0.6 0.1 0.9 0.1 1.5-0.7-0.2-1.2-0.3-1.6-0.4 0-0.1 0-0.3 0-0.4 0.4-0.2 0.9-0.4 1.6-0.6"/><path d="m50.5 139.9c0.8 1 0.8 1-0.2 1.8-0.3-0.4-0.5-0.7-0.8-1.2 0.3-0.2 0.7-0.4 1-0.6"/><path d="m78.7 76.9c0-0.5 0.1-1 0.1-1.4 1.7-0.3 3.2-0.4 4.8 0 1.3 0.3 2.8 0.1 4.2 0.2 0.9 0.1 1.7 0.3 2.6 0.4 0.3 0.6 0.8 1.2 1.7 1.3-0.5 0.1-1.1 0.4-1.6 0.4-1.1 0-2.2-0.1-3.2-0.2-0.3 0-0.6 0.1-0.8 0.1-0.9-0.1-1.8-0.2-2.7-0.3-0.3 0-0.6-0.1-0.8-0.1-1.2 0-2.3 0-3.5-0.1-0.3 0-0.5-0.2-0.8-0.4"/><path d="m90.3 70c0.8 0 1.5 0.6 1.8 1.3 0.2 0.7-0.2 1.1-0.7 1.4-0.5 0.3-0.9 1.1-1.7 0.6-0.5-0.3-0.6-1.1-0.3-2.1 0.2-0.6 0.4-1.2 1-1.2"/><path d="m86.8 69.8c-0.1 1 0 1.9-0.9 2.5-0.5 0.3-1.1 0.3-1.4-0.1-0.3-0.3-0.5-0.8-0.5-1.2 0-0.8 0.8-1.1 1.4-1.5 0.6-0.4 1 0 1.5 0.4"/><path d="m81.2 70.9c-0.6 0.7-1.1 1.3-1.5 1.9-0.8-0.2-1.6-0.4-1.6-1.2 0-0.9 0.3-1.8 1.6-2 0.4 0.4 0.9 0.8 1.5 1.4"/><path d="m144.6 131.9c0 0-0.1 0-0.1 0.1 0.1 0.1 0.1 0.2 0.2 0.3 0 0 0 0 0.1 0-0.1-0.1-0.1-0.2-0.2-0.3zm-4.2 4.8c0 0 0.1 0 0.1 0 0.1-0.3 0.2-0.7 0.4-1 0.1-0.2 0.1-0.4 0.4-0.6 0.3-0.2 0.5-0.5 0.3-0.8-0.3 0-0.7 0-1 0 0 0.8-0.1 1.6-0.1 2.4zm2.1-1.8c0.1 0.6-0.2 1.1-0.5 1.5-0.4 0.6-0.6 1.2-0.8 1.8-0.2 0.6-0.3 1.2-0.5 1.8-0.1 0.4-0.2 0.7-0.2 1.1 0 0.4-0.1 0.9-0.2 1.3-0.1 0.6-0.2 1.1-0.3 1.7-0.1 0.3-0.2 0.5-0.5 0.7-0.5 0.2-0.8 0.1-0.8-0.4 0-0.1 0-0.1 0-0.2 0.3-0.5 0.2-1.1 0.2-1.7 0-0.5 0-0.9 0.1-1.4 0.1-0.3-0.1-0.7 0-1.1 0.1-0.7 0.1-1.4 0.2-2.2 0-0.3 0.1-0.7 0.1-1.1 0-0.8 0-1.6 0-2.4-0.3-0.2-0.7-0.3-1 0-0.2 0.2-0.5 0.3-0.7 0.5-0.5 0.4-1.2 0.4-1.8 0.5-0.3 0-0.6-0.2-1-0.3-0.3-0.1-0.6-0.1-0.9-0.3-0.4-0.2-0.7-0.5-1-0.8-0.1-0.2-0.1-0.5-0.1-0.8 0.4 0.2 0.6 0.1 0.7-0.3 0.5 0.5 1 0.9 1.5 1.2 0.4 0 0.8-0.1 1.2-0.1-0.4-0.6-0.9 0-1.3-0.3 0-0.1 0-0.2 0-0.3 0 0 0 0 0 0 0 0 0-0.1 0-0.1l0 0 0 0c0 0 0 0.1 0 0.1-0.1-0.1-0.3-0.1-0.5-0.2 0.1-0.3 0.2-0.5 0.3-0.7 1.1 0.1 2.2 0 3.3 0.3 0.6-0.6 0.8-1.3 1.2-2 0.3-0.7 0.3-1.5 0.5-2.2 0-0.2 0.1-0.5 0.1-0.7 0-0.3 0-0.6 0-0.9 0-0.6-0.1-1.1 0-1.7 0.2-0.8 0.1-1.6 0.1-2.4 0.1-0.1 0.3-0.3 0.3-0.5 0-0.6 0.1-1.2 0.3-1.8 0.5-0.2 0.5-0.2 0.9-0.1-0.3 0.6-0.3 0.6 0.5 0.9-0.2 0.1-0.3 0.1-0.4 0.1 0.1 1 0.5 1.8 0.4 2.8-0.1 0.6-0.1 1.2-0.1 1.9 0 0.3-0.2 0.5-0.3 0.8 0.1 0.3 0.2 0.6 0 1-0.1 0.1 0 0.2 0 0.3 0 0.4 0 0.8-0.3 1.2-0.1 0.1 0 0.3-0.1 0.5-0.1 0.5-0.2 0.9-0.2 1.4 0 0.5 0 1.1 0 1.6 0.7 0 1.4-0.1 2.1-0.1 0.2 0 0.4-0.1 0.5-0.2 0.4-0.3 0.9-0.6 1.3-0.9 0.4-0.3 0.9-0.3 1.3-0.1 0.3 0.2 0.4 0.3 0.2 0.7-0.1 0.3-0.3 0.6-0.4 0.9-0.4 0.2-0.7 0.5-1.1 0.6-0.3 0.1-0.6 0.1-0.9 0.2 0 0 0-0.1-0.1-0.1-0.1 0.2-0.3 0.4-0.4 0.7-0.2 0.3-0.3 0.5-0.7 0.5l0 0 0 0z"/></g></g></svg>
