<svg xmlns="http://www.w3.org/2000/svg" viewBox="0 0 168 200"><title>  Group 3</title><g fill="none"><g fill="#383747"><path d="m59 79.7c0.4 0.6 0.8 0.3 1.2 0.2 0.4 0 0.9 0 1.3-0.1 0.3-0.1 0.7-0.2 1-0.3 0-0.1 0-0.1 0-0.2-1.1 0.1-2.3 0.2-3.5 0.3zm16.2 17.7c-0.9 0.4-1.8 0.8-2.8 1.2 0 0.3-0.1 0.5-0.2 0.9 1.6 0 3.1 0.2 4.4-1.1-0.5-0.3-1-0.7-1.5-1zm-28.8-16c1-0.4 1.6 0.3 2 0.9 0.6 0.8 1.4 1.1 2.2 1.5 0.8-0.4 1.1-1.1 1-2.3-0.2-0.2-0.5-0.5-0.8-0.7-0.4-0.4-0.8-0.6-1.4-0.1-0.4 0.3-1 0.4-1.6 0.1-0.2-0.1-0.4-0.2-0.7-0.2-0.4 0-0.7 0.1-0.6 0.8zm-4.2-45.8c0.2 0.2 0.6 0.3 0.6 0.5 0.1 0.3 0.5 0.8-0.1 1.1 0 0-0.1 0-0.2 0 0-0.3-0.1-0.6-0.2-1.1-0.3 0.2-0.6 0.4-0.6 0.5 0.1 0.6-0.3 1.3 0.2 1.7h4.2c-0.1-0.6-0.2-1.1-0.1-1.5 0.2-0.6 0.1-1.1-0.2-1.6 0.3-0.8 0.3-0.8-0.1-1.8-1.2-0.1-2.4-0.3-3.7-0.4-0.3 1-0.3 1.9 0.3 2.7zm8.3 58.2c1.1-0.2 2.1-0.8 3.1-0.8 0.3-0.5 0.4-0.9 0.5-1.4 0.2-1.2 0-2.4 0-3.6 0-0.2 0.1-0.4 0.2-0.6 0-0.3 0.1-0.6 0-0.8-0.5-0.6-0.8-1.4-1.7-1.5-0.5 0.3-1.1 0.6-1.6 1 0.1 0.9 0.1 1.7 0.2 2.6 0.3 1.7 0.4 3.4-0.6 4.9 0 0 0 0.1 0 0.2zm28.8 77.4c0.5 0.1 1 0.3 1.4 0.3 0.4 0 0.8-0.3 1.1-0.2 0.8 0.2 1.7-0.1 2.5 0 0.2 0 0.5 0 0.7-0.1 1.5-0.3 3-0.8 4.6-0.7 0.7 0 1.5 0.2 1.9-0.9-0.1-0.3-0.3-0.7-0.5-1.1-0.4 0.1-0.7 0.3-1 0.2-0.9-0.3-1.7 0.6-2.6-0.1-0.6 0.3-1.3-0.2-1.8 0.4-0.1 0.1-0.3 0-0.4 0-0.4-0.1-0.9-0.3-1.3 0.1-0.4 0.4-0.9-0.3-1.3 0.3-0.8-0.1-1.6-0.1-2.3 0.2-0.1 0-0.3-0.2-0.5-0.2-0.3 0-0.7 0.1-1.1 0.1 0.2 0.6 0.3 1.1 0.5 1.6zm-37.5-114.3v2.4c0.5 0.1 1 0.1 1.5 0.2 0.1 0.2 0.2 0.5 0.3 0.7-0.2-0.1-0.3-0.2-0.4-0.3-0.2 0.4-0.3 0.9-0.5 1.3-0.3-0.2-0.4-0.3-0.7-0.4-0.1 1.1-0.2 2.1-0.3 3 0.4 0 0.7 0 0.9 0.1 0.4 0.3 0.9 0.3 1.4 0.3 0.2 0 0.4 0 0.5 0 0.7 0.5 1.2 0.1 1.8-0.3 0-1.1-0.3-2.1 0.2-3.1-0.4-0.1-0.6-0.1-0.9-0.2 0.1-0.4 0.3-0.6 0.4-0.9 0.2 0 0.4 0 0.4 0-0.1-1-0.3-1.9-0.4-2.8-1.3-0.6-2.7-0.1-4.1 0zm1.1-46.6v3.6c1 0.6 2-0.5 3 0 0.3-0.8-0.5-1.1-0.7-1.8 0.3-0.4 0.6-0.8 0.9-1.1-0.1-0.7-0.1-1.4-0.2-2-0.1-0.3-0.4-0.6-0.5-1-0.1-0.4 0-0.9 0.5-1.1 0.1 0 0.1-0.2 0.1-0.4 0.2-0.6 0.3-1.1 0.3-1.7 0-1.1 0.1-1.5-0.1-2.2-0.9-0.1-1.8-0.2-2.7-0.3-0.3 0.5-0.5 0.8-0.3 1.3 0.1 0.2 0.1 0.5 0 0.7-0.1 0.7 0 0.9 0.7 0.8 0.4-0.1 0.7-0.1 0.9 0.3 0 0.1-0.1 0.2-0.1 0.3 0 0.2 0 0.3 0 0.5-0.1 0.6-0.6 0.7-1 0.3-0.2-0.2-0.3-0.4-0.4-0.7-0.1 0.7-0.4 1.4-0.3 2 0.1 0.7-0.7 1.2-0.1 1.9 0.6-1 1-0.8 2.2 0.2-0.2 0.4-0.5 0.9-1 1-0.7 0.2-0.6-0.7-1.2-0.7zm63.9 160.5c0 0.3-0.2 0.5-0.1 0.7 0.1 0.4 0.2 0.7 0.1 1.1-0.1 0.7 0.5 1.2 1.3 1.1 0.2 0 0.5-0.1 0.7-0.1 0.8 0.1 1.5 0.2 2.3 0.3 0.1 0 0.3 0 0.4-0.1 0.5-0.4 1.1-0.3 1.7-0.3 1-0.1 2-0.2 3-0.2 0-0.3 0-0.4 0.1-0.6 0.1-0.7 0.2-0.8 0.9-0.8 0.3 0 0.5 0.1 0.8 0.2 0.2 0 0.5 0 0.7 0v-1.7c-0.8 0.1-1.4 0.1-2.1 0.2-0.7 0.1-1.4 0.2-2.1 0.1-0.9-0.2-1.7 0-2.6 0-0.6 0-1.3 0.2-1.9 0.2-1 0-1.9-0.1-3.1-0.1zm21.2-79.9c1.2-0.9 2.4-1.8 3.6-2.8-0.2-0.3-0.5-0.7-0.7-1.1-0.2-0.2-0.5-0.6-0.5-0.7 0.3-0.7-0.4-1-0.6-1.5-0.1-0.3-0.5-0.5-0.5-0.8-0.1-1-0.8-1.6-1.2-2.4-0.4 0.4-0.8 0.7-1 1.1-0.3 0.5-0.7 0.8-1.2 1.1-0.4 0.3-0.8 0.6-1.3 0.9 0.3 0.5 0.6 1 0.8 1.4 0.3 0.7 0.8 1.3 1 2 0.3 1 0.9 1.9 1.5 2.8zm-51.7 54.9c0.3-0.1 0.5-0.2 0.8-0.3 0.5-0.2 1-0.6 1.5-0.6 0.5 0 0.7-0.1 1.1-0.3 0.5-0.2 1-0.7 1.6-0.7 0.1 0 0.3-0.1 0.4-0.2 0.6-0.7 1.2-1.4 1.5-2.2 0.3-0.8 0-1.7-0.3-2.5-0.3-0.7-1.1-0.8-1.8-0.9-0.3-0.1-0.7-0.1-1-0.3-0.5-0.3-1-0.5-1.5-0.1-0.4-0.2-0.7-0.4-1-0.5-0.4 0.1-0.7 0.2-1 0.2-0.2 0.9-0.4 1.8-0.6 2.7 0.1 0.2 0.3 0.6 0.2 0.9-0.2 0.7 0.3 1.5-0.3 2.1 0 0 0 0.1 0 0.1 0.1 0.8 0.2 1.7 0.2 2.5zm37.7-3.1c-0.4-0.6-0.6-1-1-1.5-0.7-0.9-1.4-1.7-2.7-1.6-0.2 0-0.5 0-0.6-0.2-0.4-0.4-0.9-0.4-1.4-0.3-0.4 0-0.8 0.2-1.1 0.1-0.7-0.2-1.2 0-1.7 0.3-1.1-0.5-2 0.3-3.1 0.2 0.4 1.8 0.8 3.4 0.7 5.1 0 0.7 0.4 1.1 1.1 1.1 0.3 0 0.6-0.1 0.8 0 1.2 0.6 2.2-0.5 3.4-0.3 0.5-0.6 1.2-0.4 1.8-0.6 0.6-0.2 1.4-0.3 1.9-0.6 0.7-0.5 1.3-1.1 1.9-1.7zm-17.3-26.1c0.6-0.4 1.1-0.2 1.7-0.2 1.1 0.1 2.2 0.2 3.2 0.1 0.9-0.1 1.7-0.1 2.5 0 0.7 0.1 1.4 0.1 2 0 0.9-0.2 1.8-0.4 2.7-0.3 0.5 0 1-0.2 1.4-0.3 0.7-0.1 1.3-0.2 2-0.3 0.3 0 0.6 0 0.8-0.1 1-0.6 2.2-0.1 3.2-0.7 0.6 0.3 1-0.2 1.5-0.4-0.1-0.6-0.2-1.1-0.3-1.6-0.5 0.1-1 0.3-1.5 0.4-2 0.2-4 0.6-5.9 1.2-0.3 0.1-0.6 0.1-0.9 0-0.9-0.3-1.8-0.1-2.7 0.1-0.5 0.1-1.1 0.1-1.6 0.1-0.3 0-0.6 0-0.9 0-0.2 0-0.3 0.1-0.5 0.1-1 0-1.9-0.1-2.9-0.1-0.4 0-0.7 0-1.1 0-0.9-0.1-1.8-0.2-2.7 0.2-0.1 0.1-0.3 0-0.5-0.1-0.2 0-0.4-0.1-0.6-0.1-0.8 0-1.6 0.3-2.3 0.1-1.5-0.3-3 0.3-4.5-0.1-0.5-0.2-1.1-0.2-1.7-0.2-1.1 0-2.1-0.2-3.1-0.7-0.2-0.1-0.5 0-0.8-0.1 0.1 0.6 0.1 1.2 0.2 1.8 0.3 0.1 0.7 0.1 1.1 0.2 0.6 0 1.2 0 1.8 0 0.9 0 1.9 0.5 2.8 0.2 0.2-0.1 0.5 0 0.8 0.2 0.8 0.5 1.7 0.5 2.6 0.3 0.2 0 0.5-0.1 0.7 0 0.6 0.2 1.2 0.2 1.9 0 0.5-0.1 1.1-0.3 1.5 0.4zm-53.8-24c0.6 0.4 1.3 0.8 1.8 1.2 0.7 0.6 1.4 0.8 2.3 0.2 1-0.7 1.8-1.4 2-2.7 0.1-0.6-0.1-1.1-0.1-1.7 0.1-1.2-0.4-2.2-0.6-3.2-0.1-0.7-0.5-1.1-1-1.6-0.4-0.3-0.7-0.7-0.9-0.9-1.2-0.4-2.2-1.1-3.6-0.4-0.8 0.6-1.2 1.6-1.2 2.7 0 1 0.2 2 0.3 3 0.1 1.2 0.8 2.2 1 3.3zm85.3 28c-2.5-0.3-4.9-0.6-7.4-0.9v5.3c0.3-0.4 0.5-0.6 0.7-0.9 0.4-0.5 1-0.8 1.1-1.5 0.1-0.3 0.3-0.5 0.6-0.7 0.7-0.5 1.5-0.1 1.5 0.7 0 0.2-0.1 0.5-0.1 0.7-0.1 1-0.8 1.6-1.4 2.2-0.5 0.5-1.2 0.9-1.8 1.4-0.2 0.1-0.4 0.3-0.7 0.5 0.1 0.7 0.2 1.4 0.3 2.2 0.1 0.7-0.3 1.5 0.1 2.3 0.3 0.6-0.3 1.4 0.2 2 1 0 1.5-0.5 2.1-1 0.3-0.2 0.6-0.5 0.8-0.8 0.4-0.7 1.1-1.1 1.5-1.9 0.6-1.3 1.3-2.6 2-3.9-0.3-0.5-0.3-1 0-1.5 0.2-0.3 0.3-0.8 0.3-1.1 0-0.9 0.1-1.9 0.3-2.9zm-9.6 56.9c-0.6-0.5-1-1.1-0.9-2-0.4-0.1-0.8-0.2-1.1-0.1-1.2 0.1-2.4 0-3.5 0.6-0.1 0-0.2 0.1-0.3 0.1-1 0-1.9-0.1-2.9-0.1-0.3 0-0.5 0-0.8 0.1-0.3 1.4-0.9 2.5-2.3 2.9-0.2 0.1-0.5 0.3-0.7 0.4-1 0.9-1.8 1.9-2.9 2.6-0.1 0-0.1 0.2-0.2 0.2-0.1 0.7-0.6 0.8-1.1 0.8-0.3 0.5-0.7 0.9-0.7 1.3 0 0.7-0.3 1.3-0.4 1.9-0.1 0.4 0 0.9 0 1.5 1.9-0.7 3.8-0.7 5.5-1.4 0.2-0.1 0.4-0.2 0.5-0.1 0.4 0.3 0.8 0 1.1-0.1 0.2-0.1 0.4 0 0.7 0 0.7 0 1.4 0.2 1.9-0.5 0 0 0.1 0 0.2-0.1 0.2 0.1 0.4 0.2 0.5 0.2 0.7-0.1 1.1-0.2 1.6-0.2 0.3 0 0.6 0 0.8-0.1 0.5-0.4 0.9-0.3 1.4-0.3 1.2-0.4 2.4-0.7 3.5-1.1 0-1.2 0-2.4 0-3.6 0-0.2 0.1-0.5 0-0.7-0.3-0.8-0.3-1.5 0.3-2.2zm-47.4 8c1-0.1 2-0.1 3-0.2 1-0.1 2-0.2 3.1-0.4 0.4-0.1 0.9-0.1 1.3-0.3 0.6-0.2 1.2-0.4 1.8-0.2 0.6 0.1 1.3 0.2 1.8-0.1 0.3-0.2 0.7-0.2 1-0.3 1.1-0.1 2.2-0.1 3.3-0.2 0.5-0.1 1-0.5 1.6-0.2 0.4-0.4 0.8-0.4 1.3-0.4 0.7 0 1.3-0.1 1.8-0.6 0.1-0.5 0.2-1.1-0.4-1.5-0.1-0.1-0.2-0.3-0.1-0.5 0.1-0.4-0.1-0.8-0.2-1.2-0.1-1.4-0.6-2.7-0.7-4.1 0-0.4-0.3-0.9-0.2-1.3 0.1-0.5-0.1-0.9-0.5-1.3-1 0.2-1.9 0.5-2.9 0.5-1 0-1.9 0.2-2.9 0.2-1 0-2 0-2.9 0-0.2 0.5-0.5 0.9-0.6 1.4-0.1 0.5-0.4 0.8-0.8 1.1-0.3 0.2-0.7 0.4-1 0.7-0.6 0.8-1.3 1.4-2.2 1.6-0.3 0.3-0.5 0.8-0.8 0.9-0.9 0.3-1.2 1-1.7 1.6-0.2 0.2-0.3 0.4-0.5 0.5-1.1 1.1-1.7 2.4-1.6 4zm-14.6-99.9c-0.1 0.7-0.1 1.3-0.1 1.9 0 0.9 0.2 1.7 0.2 2.6 0 1.1-0.1 2.3-0.2 3.4 0 0.1 0 0.2-0.1 0.3-0.3 1-0.2 1.3 0.7 1.7 1.2 0.5 2.3 1.1 3.7 1.4 1.2 0.2 2.4 0.7 3.5 1.1 0.7 0.3 1.6-0.1 2.1 0.7 0 0 0.1 0 0.2 0 0.5-0.2 0.9 0.2 1.3 0.4 0.3 0.2 0.6 0.3 0.9 0.4 0.6 0.2 1 0 1.2-0.6 0.1-0.3 0.3-0.5 0.4-0.8 0.6-1 1.4-1.6 2.4-2-0.3-0.3-0.5-0.6-0.8-0.9 1 0 1 0 1.3 0.7 0.8-0.1 1.6-0.3 2.4-0.4 0.2-0.5 0.3-1 1-0.9 0.6 0 1.2-0.1 1.4 0.7-0.3 0.7-0.9 0.8-1.6 0.9 0.7 0.4 1.5 0.7 2.1 1 0.2 0.3 0.3 0.6 0.4 0.9 0.1-0.1 0.3-0.1 0.3-0.1 0-0.5 0.1-1.1 0-1.6-0.1-1.1-0.7-2.2-0.1-3.3 0.1-0.1 0-0.3 0-0.4 0-0.7-0.1-1.4-0.1-2.1 0-0.4 0.1-0.8 0.1-1.2-0.5-0.1-0.8-0.1-1.1-0.2-0.2-1.2 1.2-0.7 1.4-1.4-0.1-0.7-0.1-1.3-0.2-2-0.2 0-0.4 0.1-0.6 0.1-0.4 0-0.7-0.1-0.8-0.6-0.1-0.5 0.2-0.7 0.5-0.9 0.5-0.3 1-0.3 1.3 0.1 0.1-1.1 0.2-2.2 0.4-3.3 0.1-0.5 0-1 0.2-1.4 0.4-0.6 0.2-1.1-0.2-1.7 0.9-0.7 0.7-1.7 0.9-2.7-0.5-0.2-0.8-0.2-1.1 0.3-0.4 0.6-0.6 1.4-1.5 1.7-0.3 0.1-0.8 0.6-0.7 0.9 0.1 1-0.5 0.9-1 1-1 0.9-1.6 2-2.7 2.7-0.6 0.4-0.9 1.2-1.4 1.8 0.6 0 1.2 0.1 1.3 0.9 0.7-0.7 0.7-0.7 1.6 0-0.4 0.4 0.1 1.1-0.7 1.4-0.3-0.2-0.6-0.4-0.8-0.5-0.3 0.2-0.5 0.4-0.8 0.6 0.4 0.8 0.4 0.8-0.1 1.5-0.4 0-0.7 0.1-1.2 0.1-0.1-0.3-0.2-0.6-0.4-0.9 0.4-0.3 0.6-0.5 1-0.7-1.2-0.3-2.2-0.7-3.4-0.3-0.1 0-0.3-0.1-0.4-0.1-0.4 0-0.9 0-1.3 0-0.2 0-0.5 0-0.7 0-0.7-0.3-1.4-0.3-2.2-0.3-0.3 0-0.6 0.2-0.8 0.1-0.6-0.5-1.1 0.2-1.6 0-0.5 0.7-0.7 0.1-1-0.2-1.3 0.5-2.6 0.5-3.9 0.4-0.3 0-0.6 0.1-0.7 0.2zm-7.8 94.3c-0.1-0.3-0.3-0.6-0.4-0.8 0-1 0-1.9 0-2.9 0-1.3 0.3-2.5 0-3.9-0.4-1.8 0.4-3.7-0.2-5.6-0.1-0.2 0.1-0.4 0.2-0.6 0-0.4 0.1-0.7 0-1.1 0-0.8-0.3-1.6-0.1-2.3 0.2-0.7 0.1-1.3 0-1.9-0.1-1.2 0-2.4 0-3.6 0-0.2 0.1-0.4 0.1-0.6 0-1.6 0-3.2 0-4.7-1-0.1-1.2-0.3-0.8-1.3 0.2 0.1 0.4 0.2 0.6 0.3v-2.6c-0.7-0.2-1.1-0.5-1.2-1.1 0.2-0.7 0.8-0.9 1.3-1 0-0.8 0-1.5-0.1-2.2 0-0.6-0.1-1.1-0.2-1.7 0-0.2 0-0.5 0.1-0.7 0.4-0.6 0.4-1.2-0.1-1.8 0.3-0.7 0.4-1.3 0.1-1.9-0.2-0.4-0.1-0.9 0-1.3 0.2-0.9 0.1-1.9 0-2.8-0.1-1.2 0-2.4 0.1-3.7 0-0.3 0.1-0.7 0.1-1 0-0.6-0.1-1.3-0.1-2-0.2-0.2-0.5-0.5-0.9-0.8 0.3-0.4 0.6-0.7 0.8-1 0-0.4 0-0.8 0-1.2-0.2-1.5 0.5-2.9 0-4.4-0.2-0.8-0.4-1.4-1.2-1.9 0.4-0.4 0.7-0.7 1.1-1.1v-3.2c-0.2 0-0.4-0.1-0.8-0.1 0.4-0.2 0.6-0.3 0.8-0.5-0.1-0.9-0.2-1.9-0.3-2.8-0.6 0-0.9-0.2-0.9-0.8 0.4-0.3 0.7-0.6 1-0.8 0-0.6 0.2-1.1 0.1-1.6-0.1-0.8 0.4-1.5 0-2.3-0.3-0.7-0.2-1.3 0.1-1.7-0.1-0.7-0.2-1.1-0.2-1.6 0-0.6 0.1-1.2 0.1-1.8 0-0.5-0.1-1-0.1-1.5 0-0.6 0.1-1.2 0.1-1.8-1.8 1-3.3 0.6-4.8-0.3v4.8c0.2-0.2 0.4-0.4 0.5-0.5 0.3 0.1 0.6 0.2 0.9 0.3 0.2 1.1-0.1 1.4-1.4 1.6 0.1 0.7 0.1 1.5 0.2 2.2 0.6 0.1 1 0.2 1.1 1-1 0.8-1.6 1.9-1.1 3.3 0.4-0.1 0.9-0.2 1.2 0.4 0.2 0.4 0.1 0.8-0.2 1-0.1 0.2-0.5 0.1-0.8 0.2 0-0.4-0.1-0.7-0.1-0.9-0.5 1.1-0.2 2.2-0.2 3.3 1 0.3 1.5 0.7 1.4 1.2 0 0.2-0.2 0.5-0.3 0.6-0.2 0.2-0.6 0.2-0.8 0.3-0.1 0.8-0.2 1.5-0.2 2.2 0.2-0.1 0.3-0.1 0.5-0.2 0.7 0.4 1 1 0.8 1.8-0.5-0.1-0.9-0.1-1.3-0.1 0.1 0.9 0 1.9 0.2 2.8 0.3 1.1 0.2 2.2 0.1 3.3-0.1 0.5 0.1 0.8 0.5 1.1 0.2 0.1 0.4 0.2 0.6 0.3 0 0.7-0.3 1.1-0.9 1.2 0 0.4 0 0.7-0.1 1.1-0.1 0.6 0 1.1 0.5 1.5 0.4 0.3 0.4 0.7 0 1-1 0.8-0.2 1.9-0.4 2.8 0 0.1 0.3 0.3 0.5 0.4 0.2 0.1 0.4 0.3 0.8 0.5-0.5 0.4-0.8 0.7-1.3 1.2 0.2 1 0.4 2.1 0.6 3.2-1 1.3-0.5 2.6 0.1 4.1-0.2 0.1-0.4 0.2-0.4 0.2-0.1 0.7-0.1 1.3-0.2 1.8-0.3 0.8-0.4 1.6 0.2 2.3-0.5 1.2-0.4 2.4-0.5 3.7 0 1.3 0 2.5 0.1 3.8 0.7 0 1.1 0.2 1.1 0.9 0 0.2-0.1 0.4-0.2 0.5-0.2 0.2-0.5 0.3-0.8 0.4 0 0.2 0.1 0.5 0 0.7-0.4 1-0.2 1.9 0.9 2.5-0.4 0.3-0.7 0.5-1 0.7v3.9c0.2-0.2 0.3-0.3 0.4-0.3 0.6 0.6-0.3 0.7-0.4 1.2 0 0.5 0 1.1 0 1.8 0 0.2 0 0.5 0.1 0.6 0.9 0.7 0.4 1.3 0 1.9-0.5 0.8-0.4 1.4 0.3 2.1 0.6 0.6 0.6 1 0.1 1.6-0.1 0.2-0.2 0.4-0.3 0.6-0.1 1.1-0.2 2.2-0.2 3.3 0 1.4 0.1 2.8 0.1 4.2 0.4 0 0.7-0.1 1 0 0.8 0.1 1.4-0.4 2.2-0.5 0.1 0 0.2-0.3 0.2-0.5 0.2 0.3 0.4 0.5 0.8 0.9 0.2-0.5 0.4-0.8 0.5-1.1zm-9.1-112.6c-0.1-0.1-0.3-0.3-0.4-0.3-0.5 0-1.1-0.1-1.5 0.1-1.1 0.4-2.2-0.1-3.3 0.3-0.6-0.3-1.1-0.1-1.5 0.2-0.5-0.1-0.9-0.4-1.2-0.3-1.2 0.6-2.7 0-3.8 0.8-0.1 0-0.1 0.1-0.2 0.1-0.9 0-1.9-0.1-2.8-0.1-0.7 0-1.4 0-1.9 0.7-0.5 0.6-1.1 0.9-1.8 1.1-0.1 0-0.3 0.1-0.3 0.2 0 0.6-0.5 0.7-0.9 1-0.8 0.6-1.7 1.1-2.6 1.6v0.6c-0.3 0.1-0.5 0.1-0.6 0.1-0.2 0.3-0.3 0.6-0.4 0.7 0.5 0.9 1.1 1.7 1.5 2.6 0.5 0.9 0.9 1.8 1.8 2.4 0.1 0.1 0.3 0.2 0.3 0.4 0.1 0.7 0.6 0.9 0.9 1.1 0.9-0.2 1.7-0.5 2.5-0.6 0.1 0 0.3 0 0.4 0 0.5 0.3 1 0.1 1.4 0 0.5-0.1 1-0.3 1.4-0.1 0.9 0.3 1.7-0.3 2.5 0 0.7 0.2 1.6-0.1 2.3-0.1 0.8 0 1.5 0.1 2.3 0.1 0.7 0 1.3-0.1 2-0.1 0.4 0 0.8 0.1 1.2 0 0.2-0.1 0.6-0.1 0.8 0 0.7 0.2 1.3 0 1.8-0.3v-0.5c0.8 0 1.6 0.1 2.4 0.1 0.4 0 0.9-0.3 1.1-0.2 0.5 0.2 0.9 0 1.4 0 0.3 0 0.6-0.1 0.9 0 0.8 0.1 1.5 0.2 2.3 0.3 0.4-1.2 1.8-0.4 2.4-1.3 0.5 0.4 0.9 0.7 1.4 1.1 0.3-0.1 0.8-0.1 1-0.4 0.3-0.3 0.7-0.4 0.9-0.7 1.1 0.2 2.1 0.6 3.1 0 0.1 0 0.1 0 0.2 0 0.8 0.4 1.5 0 2.2-0.1 1.1-0.2 2.3-0.2 3.4-0.3 1 0 1.1-0.1 1.5-1.1-0.3-0.5-0.7-1.1-0.5-1.7 0.2-0.5 0.2-0.9 0.1-1.4-0.1-0.2-0.1-0.4-0.1-0.6 0-0.6 0.1-1.2 0.1-1.8 0-0.4 0.1-0.8 0.1-1.4-0.3-0.5-0.3-0.5-0.2-1.1 0.2-0.8 0.2-1.7 0-2.4-0.7 0.1-1.4 0.4-1.9 0.2-1-0.4-2-0.1-2.9 0-0.8 0.1-1.5 0.2-2.3 0.1-0.2 0-0.4 0.1-0.5 0.1-0.3 0-0.6 0.1-0.9 0.1-0.4 0-0.9-0.1-1.3-0.1-0.6 0-1.2 0.1-1.8 0.1-1-0.1-2 0-3 0.3-0.3 0.1-0.6 0.5-1 0.6-0.4 0-0.8-0.3-1.2-0.3-1.1-0.1-2.2 0-3.3-0.1-1.3-0.1-2.6 0.4-4 0.6zm-20.6-24.8c0.1 1.5 0.1 2.8 0.2 4.1 0.1 1.4 0.7 2.7 0.1 4.1 0 0 0 0.1 0 0.2 0 0.6 0.1 1.2 0.1 1.8 0 0.8 0 1.6 0 2.4 0.5-0.1 0.9 0 1.2-0.2 0.9-0.5 1.9-0.5 2.9-0.5 1.1 0 2.1-0.1 3.1-0.4 0.5-0.1 1-0.2 1.5-0.2 0.5 0.1 1 0 1.5-0.1 0.8-0.2 1.6-0.6 2.5-0.2 0.3 0.1 0.8 0 1.2 0 0.2 0 0.3-0.1 0.5-0.1 1.1 0.1 2.2 0.1 3.2-0.4 0.2 0.1 0.5 0.2 0.7 0.3 0.6-0.4 0.6-0.4 1.2-0.3 0.2 0 0.5 0.1 0.6 0 0.5-0.3 1-0.2 1.2 0.1 0.5 0 0.9-0.1 1.3-0.1 0.7 0 1.5 0.1 2.2 0 1.1-0.3 2.4 0 3.5-0.4 0.1 0 0.1 0 0.2 0 0.6 0.2 1.3 0.3 1.9 0.5 0.3 0.1 0.7 0.1 1 0 0.9-0.1 1.9-0.3 2.8-0.4 0.5 0 1 0.1 1.4 0.1 1.3 0 2.5 0 3.8 0 0.5 0 1-0.1 1.4 0 1.1 0.3 2 0 2.9-0.4 0.8-0.4 1.2-1.3 2.1-1.6 0.8-1.3 2.3-1.8 3.5-2.7 0.6-0.4 1-0.9 1.5-1.4-0.6-0.7-1-1.4-1.7-1.8-0.9-0.7-1.6-1.4-2.3-2.2-0.2-0.2-0.4-0.4-0.6-0.5-0.7-0.3-1.2-0.8-1.7-1.3-0.6-0.6-1.3-0.9-2.2-0.8-0.7 0.1-1.5 0.2-2.2 0.2-1.7 0.1-3.5 0.1-5.2 0.2-0.1 0-0.2 0-0.3 0-1.1 0.1-2.1 0.2-3.2 0.2-1.1-0.1-2.1 0.1-3.1 0.1-0.6 0-1.3 0.1-1.9 0.1-1.3-0.1-2.5-0.1-3.8 0-0.3 0-0.7 0.3-1 0.2-0.6-0.2-1 0-1.4 0.3-0.2 0-0.4-0.1-0.5-0.1-1 0.1-2.1-0.4-3.1 0.1-1.1-0.3-2.2 0.1-3.3 0-1.4-0.1-2.8 0.4-4.2 0.3-1.4-0.1-2.8 0.9-4.3 0.4 0 0-0.1 0-0.2 0.1-0.4 0.4-1 0.2-1.5 0.3-0.7 0.1-1.4-0.3-2 0.2-0.1 0.1-0.3 0-0.4 0h-1.3zm-12.1-19.8c0.3 0.3 0.5 0.8 0.8 1 0.5 0.3 0.8 0.8 1.1 1.3 0.1 0.2 0.2 0.4 0.4 0.6 0.9 0.9 1.6 2 2.2 3.2 0.4 0.7 0.7 0.9 1.6 0.8 0.4 0 0.8-0.1 1.1 0 0.5 0.3 0.9 0.1 1.4 0 0.3-0.1 0.6 0 0.9 0 0.6 0.1 1.2 0.3 1.7 0.2 1.6-0.3 3.1-0.2 4.7-0.1 0.9 0.1 1.7-0.1 2.6-0.1 1.5 0 2.9-0.1 4.4-0.2 0.1 0 0.3 0.1 0.4 0.1 0.4 0 0.7 0.1 1.1 0 0.4 0 0.8-0.1 1.2-0.1 0.9 0 1.9 0.2 2.8 0 0.3-0.1 0.8-0.1 1 0.1 0.5 0.4 1.1 0.2 1.5 0.2 0.4 0 0.9-0.1 1.3-0.1 0.6 0.1 1.2 0.2 1.8-0.1 0.2-0.1 0.5 0 0.8 0 0.3 0 0.6 0.1 0.8 0.1 1.4-0.4 2.8 0 4.2-0.6 0 0 0.1 0 0.1 0 1 0.1 1.9 0.4 2.9 0.3 0.8-0.1 1.6 0.2 2.4-0.1 0.3-0.1 0.7-0.1 1.1 0 1.1 0.2 2.1-0.1 3.1-0.1 0.4 0 0.7 0.1 1.1 0 1.1-0.3 2.1-0.1 3.2 0 0.3 0 0.6 0 0.9 0 0.8-0.1 1.6-0.2 2.4-0.2 0.5 0 1.1 0 1.6 0 0.1-0.7 0.2-1.3 0.1-1.8-0.1-2.1-0.3-4.1-0.4-6.2 0-0.4 0.1-0.7 0.1-1.1-0.1-1.1-0.3-2.3-0.5-3.5-0.5 0.5-1 0.1-1.6 0.1-0.4 0-0.8-0.1-1.2-0.1-0.4 0-0.9 0.1-1.3 0.1-1.4 0-2.8 0-4.2 0-0.6 0-1.1 0.2-1.7 0.2-0.6 0-1.2-0.1-1.8-0.2-1.1 0-2.1 0-3.2 0-0.4 0-0.9 0.4-1.3 0.3-0.7-0.1-1.5-0.2-2.1-0.4-0.9-0.3-1.7 0.1-2.5-0.1-0.3-0.1-0.7 0-1 0.1-0.8 0.3-1.6 0.2-2.5 0.1-0.9-0.1-1.8-0.3-2.7-0.2-0.9 0.2-1.9-0.4-2.8 0.3-0.1 0.1-0.3-0.1-0.5-0.1-0.9-0.1-1.8-0.2-2.6-0.2-0.6 0-1.3 0.1-1.9 0.2-0.4 0-0.9-0.2-1.3-0.1-1.1 0-2.2 0.1-3.3 0.2-0.4 0-0.9-0.3-1.2-0.1-1 0.4-2.1 0.2-3.2 0.3-1 0.1-2 0.3-3-0.1-0.3-0.1-0.8 0-1 0.2-0.6 0.6-1.6 0.7-2 1.6-0.1 0.2-0.4 0.3-0.7 0.4-0.2 0.1-0.4 0-0.5 0.1-0.4 0.7-1 0.7-1.8 0.8-0.1 0.6-0.6 0.9-1.2 1-0.1 0-0.3 0.1-0.4 0.2-1.1 0.6-2.1 1.3-3.3 2zm76.9 52.2c-0.2 0.4-0.7 0.7-0.7 1.1 0 0.5-0.2 0.9-0.3 1.4-0.3 1.5-0.5 3-0.7 4.5 0 0 0 0 0 0 0.1 0 0.2 0 0.6 0.1-0.5 0.3-0.8 0.6-1.1 0.8 0.1 0 0.2 0.1 0.3 0.1-0.1 0.8-0.2 1.6-0.3 2.4 0.1 0 0.3 0.1 0.4 0.2 0.2 0.6 0 1-0.4 1.2-0.1 0.7-0.2 1.4-0.3 2 0 0.3-0.1 0.5-0.1 0.8 0.2 1.1 0 2.2-0.1 3.4-0.1 0.9 0.1 1.8 0.2 2.7 0 0.8 0.1 1.6 0 2.4-0.1 0.8-0.1 1.5 0.3 2.3 0.1 0.2 0.1 0.4 0.1 0.7 0 0.2 0 0.4 0 0.7 0 0.3 0.1 0.7 0.1 1 0 0.4 0 0.8 0 1.3 0 0.5 0.1 1 0.2 1.5 0.1 0.5 0.1 0.9 0.2 1.4 0.2 1 0.5 1.9 0.5 2.9 0 0.7 0.1 1.2 0.6 1.8 1.6 0.3 3.3 0.6 5 0.9 0.2 0 0.5-0.2 0.8-0.1 1.5 0.5 3.1 0 4.7 0.3 0.6 0.1 1.4-0.4 2 0.1 0.1 0 0.2 0 0.3 0 0.7-0.1 1.3-0.2 2-0.2 0.3 0 0.6 0 0.9 0 1 0.1 2-0.1 3.1 0.1 0.6 0.1 1.2-0.1 1.8-0.2 0.6-0.1 1.2 0.1 1.8-0.1 1.4-0.3 2.9 0 4.3-0.3 0.6-0.1 1.2-0.1 1.7-0.2 2.1-0.5 4-1.4 6.2-1.3 0-0.7-0.2-1.3 0-1.9 0.5-1.6 0-3.3 0.5-4.9 0 0 0-0.1 0-0.1 0-0.8 0-1.5 0.2-2.2 0.2-0.9 0.2-1.7 0.3-2.6 0.1-0.6 0.1-1.3 0.3-1.9 0.1-0.4 0-0.8-0.1-1.2-0.1-0.6-0.1-1.1 0.1-1.7 0.2-0.4 0.3-0.9 0.2-1.2-0.5-1-0.4-2-0.6-3-0.1-0.4-0.4-0.8-0.4-1.2 0-0.9-0.1-1.8-0.5-2.7-0.1-0.1 0-0.3 0-0.5 0.2-1.1-0.2-2.2 0.5-3.2-0.2-1.1 0.6-1.7 1.4-2.4 0.3 0.5 0.6 1 0.8 1.3-0.3 1.9-0.8 3.6-0.2 5.4 0.2-1 0.4-1.2 0.9-1.1 0.5 0.1 0.9 0.9 0.6 1.5-0.1 0.2-0.2 0.4-0.4 0.5-0.3 0-0.7-0.1-1-0.2-0.2 1.3 0.5 2.3 1.1 3.2-0.1 0.7-0.1 1.2-0.1 1.7 0 0.3-0.1 0.6-0.1 0.9 0 0.5 0 0.9 0 1.4 0 0.3 0.1 0.7 0.1 1-0.3 1.1-0.3 2.2-0.3 3.3-0.1 1.3-0.2 2.5-0.6 3.8 0.8-0.2 1.2 0.1 1.5 0.9-0.2 0.2-0.4 0.4-0.7 0.5-0.2 0.1-0.5-0.1-0.8-0.2-0.2 1.5 0.2 3.1-0.4 4.8 0.3 0.5 0.3 1.1-0.2 1.7 0.2 0.3 0.4 0.6 0.2 1.1-0.2 0.4-0.2 0.9-0.3 1.4-0.1 0.5-0.2 1-0.2 1.5 1.1 0.2 1.1 0.2 1.1 1.3v1.5c0.7 0.8 1.6 1 2.6 0.9 0.4-0.1 0.7 0 1.1 0 0.4 0 0.8 0.2 1.3 0.1 0.5-0.1 1.1-0.2 1.6 0.2 0.2 0.2 0.6 0.1 0.9 0.1 0.2 0 0.4 0.1 0.6 0.1 0.3 0.1 0.6 0.2 1 0.3-0.1-0.5-0.2-1-0.1-1.2 0.2-0.4 0.1-0.7 0-1.1-0.1-0.3-0.1-0.6 0-1 0.1-0.7 0.1-1.5 0.2-2.2 0-0.3 0-0.7 0-1 0.1-0.9 0.4-1.8-0.2-2.7 0.8-1 0.1-2.3 0.6-3.4-0.4-0.6 0.1-1.2 0.2-1.8 0-0.6-0.1-1.2-0.2-1.8 0-0.2-0.1-0.5-0.2-0.7-0.2-0.7-0.6-1.3-0.7-2-0.2-1.8 0.2-3.4 1.5-4.5 0-1.4 0.1-2.7 0.1-4.2-0.7 0.6-1.3 1.3-2.2 1.1-0.3 0.9-0.7 1.3-1.2 1.1-0.4-0.2-0.9-0.5-1.2-0.9-0.4-0.5-0.6-1.1-0.8-1.6-0.4-0.5-0.9-0.9-1.1-1.4-0.6-1.2-1.2-2.5-2-3.6-0.7-1.1-0.6-1.9 0.3-2.7 0.6-0.6 1.4-1.1 2.2-1.6 0.6-0.4 1.1-0.9 1.5-1.6 0.1-0.2 0-0.7-0.1-0.8-0.6-0.4-0.5-1.4-1.4-1.5 0 0-0.1-0.1-0.1-0.2-0.1-0.5-0.4-0.9-0.9-1.2-0.3-0.2-0.5-0.5-0.7-0.7-0.3-0.6-0.8-0.9-1.5-1-0.4 0.8-0.8 1.6-1.2 2.4-0.5-0.1-0.9-0.2-1.4-0.3 0-1.2 0.4-2.2 1-3.3-2.3-1-4.4-2-6.5-3-0.2 0.3-0.3 0.7-0.7 0.9-0.7 0.4-1 1-1.3 1.6-0.2 0.3-0.4 0.5-0.7 0.7-0.9 0.6-1.7 1.3-2.8 1.5-0.3 0.1-0.5 0.3-0.8 0.4-0.9 0.4-1.7 0.9-2.7 1.1-1.2 0.2-2.4 0.2-3.5 0.2-0.6 0-1.1-0.1-1.6-0.5 0 0 0-0.1 0-0.2 0.1 0 0.2-0.1 0.3-0.1-0.2-0.3-0.4-0.6-0.6-0.9 0.7-0.5 1.4-0.7 2-0.4 0.5 0.2 1 0 1.5-0.1 0.2 0 0.5-0.2 0.7-0.2 0.7 0.1 1.3-0.2 1.9-0.5 1.2-0.7 2.4-1.3 3.6-2 0.3-0.2 0.8-0.4 1-0.7 0.4-0.7 0.9-1.3 1.3-2 0.5-0.9 1.1-1.5 1.7-2.1 0.3-1.1 0.3-2.2 1.4-2.7 0.5-0.3 0.7-0.7 0.7-1.3 0-0.5 0.1-1.1 0.1-1.6 0.1-1.1 0.3-2.3 0.1-3.4-0.3-1.3-0.4-2.7-0.6-4.1-0.4-2.3-0.9-3.3-2.1-5.5-0.2-0.4-0.4-0.8-0.6-1.2-0.1-0.2-0.1-0.4-0.3-0.5-0.7-0.6-0.9-1.7-1.9-1.8-0.1 0-0.2-0.3-0.3-0.4-0.6-0.4-1.2-0.8-1.9-1.2-0.3-0.2-0.6-0.3-0.9-0.4-0.5-0.3-0.9-0.7-1.4-0.7-1.2-0.1-2.2-0.9-3.4-1-0.6-0.1-1.3-0.5-1.8-0.4-0.9 0.2-1.6 0.1-2.5-0.1-0.9-0.2-1.7 0.1-2.6 0-0.4-0.1-0.9-0.2-1.2 0-0.8 0.4-1.6 0.4-2.4 0.8-1 0.4-1.8 1-2.6 1.7-0.5 0.5-0.9 1-1.4 1.5-1.3 1.3-2.5 2.7-3.2 4.4-0.2 0.4-0.2 1-0.3 1.5-0.3 1.5-1.2 2.8-0.8 4.4 0 0 0 0.1 0 0.1-0.5 0.2-0.1 0.5-0.2 0.8-0.1 0.3 0 0.7-0.1 1-0.2 0.7-0.1 1.4 0.1 2.1 0.1 0.6 0.1 1.3 0 1.9-0.1 0.4-0.1 0.8 0.1 1.3 0.1 0.3 0.1 0.6 0.1 0.9 0.1 0.6 0.1 1.1 0.3 1.7 0.1 0.5 0.3 0.9 0.5 1.4 0.2 0.5 0.3 1 0.5 1.4 0.3 0.5 0.7 1 1 1.5 0.6 0.8 1.2 1.7 1.8 2.5 0.5 0.7 1.1 1.3 1.8 1.6 0.9 0.4 1.8 0.7 2.8 1 0 0.3 0.1 0.6 0 0.8-0.1 0.3-0.3 0.6-0.5 0.7-1.1 0.3-2.2 0-3.2-0.4-0.4-0.2-0.9-0.5-1.5-0.8 0 0-0.2-0.3-0.4-0.4-0.4-0.1-0.5-0.3-0.6-0.7-0.1-0.5-0.5-0.8-1-1-0.5 0.6-0.6 1.4-0.6 2.2l0 0zm-4.1 53c-0.1 0.2-0.4 0.6-0.3 0.7 0.2 0.4 0 0.7-0.1 1.1-0.5 1.4-1 2.8-1.5 4.2-0.1 0.4-0.2 0.8-0.3 1.3 0.2 0.1 0.4 0.2 0.5 0.2 0.1 0 0.3 0.1 0.5 0.1-1-1.3-0.9-1.7 0.4-2.1 1.1 0.6 0.5 1.4 0.2 2.1 0.4 0 0.7 0 1 0 1.4 0.2 2.7 0.6 3.7 1.7 0.2 0.2 0.3 0.5 0.5 0.6 0.9 0.6 1 1.5 1.1 2.5 0.1 0.8-0.4 1.5-0.3 2.2 0.1 1.2-0.7 1.8-1.3 2.4-0.7 0.7-1.7 1.1-2.6 1.7-0.6 0.4-1.3 0.4-1.8 0.7-1 0.5-2 0.6-3.1 0.9-0.3 1.2 0.2 2.4 0.2 3.6 0.6-0.6 0.6-0.6 1.7-0.1 0 0.2 0 0.6-0.1 0.7-0.4 0.3-0.9 0.4-1.5 0.7 0.1 0.7 0.2 1.5 0.3 2.3 0.4 0.1 0.8 0.3 1.2 0.4 0 0.7-0.4 1.1-1 1.4v2.1c1.6 1.1 1.4 1.2 0.6 2.4 0.1 1.3 0.2 2.5 0.3 3.7 0 0.2 0 0.5 0.1 0.7 0.1 0.4 0.3 0.9 0.4 1.3 0.3 0 0.6 0 1 0v-1c0.4 0.1 0.6 0.1 0.8 0.3 0.1 0.1 0.1 0.4 0.1 0.5 1.2-0.1 2.4-0.2 3.6-0.4 1.4-0.2 2.8-0.5 4.3-0.4 0.6 0 1.2-0.1 1.9 0 0.4 0.1 0.8 0 1-0.5-0.1-0.7-0.9-1.4-0.3-2-0.1-1.1-0.3-2.1-0.4-3.1 0-1.3 0.2-2.5 0.1-3.8-0.1-1.4-0.3-2.8-0.2-4.2 0-0.2 0-0.4-0.1-0.5-0.7-0.7 0-1.6-0.3-2.4-0.1-0.2 0.1-0.5-0.2-0.7-0.1-0.1-0.1-0.4 0-0.5 0.4-0.7 0.3-1.5 0.3-2.3 0-0.2 0.1-0.4 0.2-0.6 0.3-0.7 0.8-1.5 0.9-2.2 0.1-0.7 0.4-1.2 0.7-1.5 0.2-0.8 0.3-1.5 0.6-2.1 0.7-1.4 1.5-2.7 2.2-4.1 0.3-0.6 0.6-1.1 0.8-1.7 0.3-0.5 0.5-1 0.8-1.6-0.9-0.2-1.7-0.5-2.6-0.7-0.5-0.6-1.1-1.2-1.8-1.9 0.2-0.4 0.3-0.8 0.4-1.2 0.3-0.1 0.6-0.1 0.8-0.1 0.9 0.5 1.6 1.5 2.8 1.3 0 0 0.1 0 0.1 0 0.8 0.9 2.1 0.6 3 1.2 0.5 0.3 1 0.5 1.6 0.6 0.5 0.1 0.9 0.3 1.2 0.7 0.8 0.8 0.7 1.2-0.2 2 0.6 0.4 0.1 0.9 0.1 1.4 0.1 0.5 0.1 1 0.2 1.5 0.2 0 0.5 0 0.8 0 0.9-0.1 1.8-0.5 2.7-0.2 0 0 0.1 0 0.1 0 0.3-0.4 0.7-0.3 1.1-0.2 0.4 0.1 0.9-0.1 1.4-0.1 0.5 0 1 0.1 1.5 0.1 0.3 0 0.7 0 0.9 0.2 0.6 0.4 1.2 0.5 2 0.5 0.3 0.4 0.6 0.7 0.9 1.2 0.9 0 1.3 0.6 1.6 1.4 0.2 0.5 0.4 1.1 0.6 1.6 0.2 0.7 0.3 1.3 0 2-0.3 0.7-0.6 1.3-1.4 1.6-0.2 0.1-0.3 0.2-0.4 0.3-0.7 0.5-1.4 1-2.1 1.4-0.4 0.2-0.9 0.3-1.3 0.3-0.9 0.1-1.9 0.3-2.8 0.4-1 0.1-2 0.3-3 0.4-0.4 0-0.8-0.1-1.3-0.2 0.1 0.4 0.2 0.7 0.3 0.9 0.3 0 0.5 0 0.8 0.1-0.3 0.4-0.6 0.7-0.7 0.9 0.2 1.1 0.3 1.9 0.4 2.8 0.8 0.3 0.8 0.3 1.1 1.2-0.3 0.2-0.5 0.4-0.8 0.6 0.4 1.2-0.1 2.4 0.5 3.4 0 0.1-0.1 0.2-0.1 0.3 0 0.2-0.1 0.4 0 0.5 0.6 0.6-0.1 1.5 0.5 2.1-0.4 1 0.1 1.8 0.5 2.6 0.6-0.6 1.1-0.6 1.6 0.2 0.1 0.2 0.2 0.6 0.1 0.7-0.1 0.2-0.5 0.2-0.7 0.2-0.3 0-0.6-0.1-1-0.2 0 0.3-0.1 0.4-0.1 0.5 0.1 0.6 0.2 1.2 0.1 1.9-0.1 0.5 0.2 1 0.3 1.6 0.1 0 0.1 0 0.1 0 0-0.4 0.1-0.8 0.1-1.3 0.7 0.4 1.1 1 1.1 1.7 0.2 0 0.4 0 0.5 0 0.7 0.1 1.4 0.2 2-0.5 0.1-0.1 0.6-0.1 0.7 0.1 0.4 0.3 0.7 0.2 1.1 0.2 1.1-0.1 2.2-0.3 3.3-0.3 1.1 0 2.2 0 3.2-0.3 0.1-0.5 0.2-1 0.3-1.5-0.1-0.3-0.2-0.7-0.2-1 0.3-1.3 0.4-2.6 0.4-3.9 0-0.7 0.2-1.5 0-2.2-0.2-1.1-0.3-2.1 0-3.2 0.1-0.2 0-0.4 0-0.7 0-0.3 0-0.6 0-0.9 0-0.7 0.2-1.4 0.1-2-0.2-0.8 0-1.6 0-2.4 0-0.4-0.2-0.9-0.1-1.3 0.1-0.4 0.2-0.7 0-1.1-0.1-0.2 0-0.5 0-0.8 0-1.3 0.2-2.5 0.1-3.8-0.2-1.4-0.3-2.8-0.1-4.2 0.1-0.4 0.1-0.8 0-1.3-0.1-0.7-0.2-1.5-0.1-2.2 0-1.2 0.4-2.4 0-3.6-0.3-0.8-0.3-1.8-0.2-2.7 0-0.5 0-1-0.1-1.4-0.1-0.3-0.1-0.6-0.1-0.9 0-1.1 0.3-2.2 0-3.4-0.1-0.3 0-0.6 0.1-0.9 0-0.4 0.1-0.8 0.1-1.2 0-0.2 0-0.4 0-0.6 0-0.4 0.2-0.8 0-1.1-0.2-0.5 0-0.8 0.2-1.1-0.3-0.7-0.5-1.4-0.8-2.1-0.5 0-1.1 0.1-1.6 0.1-0.5 0.1-1.1 0.2-1.6 0.3-0.2 0-0.5-0.1-0.7 0.1-0.8 0.6-1.7 0.6-2.5 0.7-0.6 0.1-1.3 0.3-1.9 0.3-0.9 0-1.8 0.1-2.8 0.3-1.1 0.3-2.3 0.2-3.5 0.2-1 0-2-0.1-3-0.1-0.8 0-1.5 0.1-2.3 0.1-0.4 0-0.8-0.2-1.2-0.2-1.1 0.1-2.2 0.1-3.2 0-1-0.1-1.9 0-2.9-0.1-1.1-0.1-2.3-0.2-3.4-0.3-0.2 0-0.4 0-0.6-0.1-0.5-0.3-1.1-0.4-1.7-0.4-0.6 0-1.2-0.1-1.9-0.2-0.4 0.9-0.7 1.8-1.1 2.7-0.2 0.5-0.4 1.1-0.4 1.7 0.1 0.9-0.9 1.5-0.5 2.5-0.5 0.2-0.5 0.8-0.7 1.2-0.2 0.5-0.3 1-0.5 1.5-0.1 0.3-0.3 0.6-0.4 0.8zm86 71.9c-0.5-0.2-1-0.7-1.6-0.6-0.1 0-0.2 0-0.2-0.1-0.4-0.7-1.3-0.5-1.8-1-0.1-0.1-0.4-0.1-0.6-0.2-0.3-0.1-0.6-0.1-0.9-0.2-1.2-0.7-2.6-1.2-3.9-1.8-1.1-0.5-2.2-0.7-3.3-1.1-0.5-0.2-1-0.3-1.4-0.5-0.6-0.4-1.3-0.6-2-0.7-0.2 0-0.4-0.1-0.5-0.2-0.4-0.6-1.1-0.5-1.6-0.8-0.3-0.2-0.7-0.3-1.1-0.4-0.5-0.2-1.1-0.4-1.7-0.5-1-0.7-2-1.2-3.3-1.2-0.1 0-0.3-0.1-0.4-0.1-1.2-0.8-2.6-1.1-4-1.3-0.4-0.1-0.9-0.4-1.3-0.5-0.6-0.2-1.2-0.4-1.9-0.6-0.8-0.2-1.6-0.2-2.4-0.4-0.7-0.1-1.4-0.1-2-0.4-1-0.4-2.1-0.2-3-0.9-0.1-0.1-0.3-0.1-0.5-0.1-1.1 0.2-2.2-0.5-3.3-0.5-0.3 0-0.5-0.3-0.8-0.4-0.4-0.2-0.7-0.3-1-0.5-0.7 0.8-0.3 1.7-0.8 2.5-0.5 0.1-1.1 0.3-1.6 0.5-0.2 0.1-0.4 0.2-0.5 0.3-0.2 0.1-0.3 0.3-0.5 0.3-0.8 0-1.6 0-2.3 0.1-0.7 0.1-1.5 0.3-2.2 0.4-0.4 0.1-0.8 0.1-1.2 0.2-0.3 0.1-0.6 0.2-1 0.3-0.3 0.1-0.5 0.2-0.8 0.1-0.6-0.1-1 0-1.6 0.1-0.7 0.2-1.5 0.2-2.2 0.3-0.7 0.1-1.4-0.1-2 0.3-1.1-0.3-2.1 0.2-3.2 0.2-0.4 0-0.8 0.1-1.2 0-1.3-0.3-2.4-1.8-2-3.3 0.3-1.1 0.3-2.2 0.5-3.3 0-0.3 0.1-0.5 0.2-0.8-0.5-0.1-0.9-0.6-1.5-0.5-0.5 0-1.1-0.3-1.6-0.5 0-1.3 0.2-1.5 1.4-1.5 0.7-0.1 1.4 0 2.2 0 0.2 0 0.4-0.1 0.5 0 1.2 0.6 1.8-0.3 2.4-1 0.2-0.2 0.3-0.8 0.8-0.5 0.2-0.5 0.6-0.8 1-1.1 0.8-0.7 2-1 2.5-2.2-0.1-0.2-0.2-0.4-0.4-0.8-0.2 0.3-0.3 0.6-0.5 0.8-1-0.4-1.6-1.1-1.4-2 0.1-0.6-0.2-1-0.2-1.5-0.1-0.4-0.2-0.8-0.1-1.3-0.2-0.2-0.4-0.5-0.6-0.7 0.1-0.3 0.3-0.6 0.4-0.9-0.2-0.3-0.4-0.6-0.6-1 0.2-0.6 0.2-1.2-0.2-1.9 0.1-0.2 0.3-0.5 0.4-0.7-0.2-0.5-0.4-1.1-0.6-1.6-0.1-0.2-0.1-0.4 0-0.6 0.3-0.8 0-1.4-0.2-2.1-0.4-1.1-0.4-2.3-0.5-3.5-0.1-1.1-0.2-2.1-0.3-3.2-0.1-0.6 0-1.3-0.4-1.9-0.1-0.1-0.1-0.3-0.1-0.4 0.4-1.3-0.3-2.5-0.4-3.7-0.1-0.7-0.2-1.5-0.4-2.2-0.3-1.1 0-2.3-0.5-3.3-0.1-0.1 0-0.3 0-0.4 0.2-1.1 0-2.1-0.3-3.1-0.1-0.3 0-0.6 0-0.9 0-0.2 0.1-0.5 0-0.7-0.5-0.8 0-1.8-0.5-2.6 0-0.1 0-0.2 0-0.3 0.1-0.9 0.1-0.9-0.7-1.3-0.7 1-1.4 2-1.9 3-0.2 0.4-0.2 1-0.5 1.4-0.5 0.9-1 1.7-1.5 2.6-0.1 0.2-0.2 0.5-0.3 0.8-0.2 0.5-0.2 1-0.5 1.4-0.4 0.5-0.4 0.9-0.3 1.4-0.7 1.1-1.1 2.2-1 3.4 0.1 1.7 0 3.4 0.1 5.1 0 0.7 0.2 1.4 0.3 2.1 0 0.2 0.1 0.3 0.1 0.5-0.1 0.7-0.2 1.3 0.2 1.9 0.1 0.1-0.1 0.4-0.1 0.6 0 0.5-0.2 1-0.1 1.4 0.3 1.1 0.1 2.2 0.1 3.3 0.1 0.9-0.3 1.8 0.2 2.7 0.2 0.3 0.1 0.8 0 1.2-0.2 0.8 0.1 1.6 0.2 2.3 0.1 0.6 0 1.1 0.2 1.7 0.3 0.6-0.5 1.4-1.4 1.6-0.4 0-0.6-0.6-1.2-0.2 0.2 0.2 0.3 0.3 0.5 0.5-0.1 0.6-0.3 1.3 0.1 1.9 0 0 0.1 0.1 0.1 0.1-0.4 1.1 0.5 1.9 0.6 2.9 0 0.1 0.1 0.2 0.1 0.3-0.4 0.8 0.3 1.5 0.3 2.3 0 0.6 0.2 1.2 0.3 1.8 0 0.1 0 0.3 0 0.4 0.5 1.3 0.5 1.6-0.6 2.4 0.1 0.2 0.1 0.4 0.2 0.7-0.7 0.7-1.6 1-2.6 1.1-1.3 0.2-2.5 0.4-3.8 0.6-0.3 0-0.6 0.1-0.9 0.1-1.4 0.1-2.8 0.1-4.1 0.2-0.2 0-0.3 0-0.5 0.1-1 0.5-2.1 0.2-3.1 0.3-1 0.1-1.9 0.1-2.9 0.2-0.6 0-1.1 0.1-1.7 0.2-0.9 0-1.8 0.1-2.7 0.1-0.8 0-1.1-0.3-1.1-1.1 0-0.2 0-0.5-0.1-0.7-0.5-0.6-0.6-1.3-0.4-2 0.1-0.2 0-0.4 0.1-0.6 0.2-0.5 0.3-1.1 0.6-1.6 1-1.4 2-2.7 3.1-4 0.1-0.1 0.1-0.3 0.2-0.3 1 0 1.4-1.1 2.2-1.4 0.3-0.1 0.5-0.5 0.8-0.7 0.7-0.6 1.4-1.2 2-1.8 0.1-0.1 0.2-0.3 0.3-0.5-0.6-0.5-1.2-0.8-1.3-1.6-0.1-0.9-0.2-1.8-0.3-2.6-0.1-0.5-0.2-0.9-0.3-1.3-0.1-0.6-0.2-1.1-0.3-1.7-0.1-1.2-0.1-2.5-0.4-3.7-0.2-0.9 0.1-2-0.6-2.8-0.2-0.2-0.2-0.6-0.1-0.9 0.3-0.7 0-1.3-0.3-2 0.5-0.6 0.3-1.3 0-1.9-0.4-1-0.5-2.1-0.3-3.1 0-0.1 0.1-0.2 0.1-0.3-0.4-0.8-0.3-1.7-0.4-2.5-0.1-0.7-0.3-1.4-0.2-2.2 0.1-0.7 0.1-1.5 0.1-2.2 0-0.8-0.1-1.6 0-2.4 0.1-1.3-0.3-2.6 0.3-3.9 0.4-0.8 0.8-1.7 0.6-2.6 0-0.1 0-0.1 0.1-0.2 0.6-0.8 0.6-1.8 0.9-2.7 0.1-0.3 0.3-0.5 0.6-0.8-0.2-0.5-0.1-1 0.2-1.6 0.4-0.9 0.7-1.9 1.1-2.8 0.2-0.4 0.3-0.9 0.5-1.3 0.2-0.5 0.5-1 0.6-1.5 0.2-0.8 0.4-1.5 0.8-2.3 0.3-0.6 0.3-1.3 0.4-1.9 0-0.2 0.1-0.4 0.2-0.6 0.4-0.6 0.6-1.2 0.7-2 0-0.6 0.5-1.2 0.8-1.9-0.5-0.9-0.4-1.9-0.4-2.8 0-1.2 0-2.4-0.5-3.5-0.1-0.1-0.1-0.3-0.1-0.4 0.4-0.7-0.1-1.4-0.3-2-0.3-1.4-0.5-2.9-0.4-4.3 0.1-0.4-0.1-0.7-0.2-1-0.2-0.6-0.3-1.2-0.4-1.7-0.9 0.3-1.7 0.8-2.6 1-1.1 0.2-2.3 0.3-3.4 0.4-1.1 0.1-2.1 0-3.2-0.3-0.4-0.1-0.8 0.1-1.3 0-0.6-0.1-1.1-0.4-1.6-0.7-0.2-0.1-0.5-0.1-0.8-0.2-0.8-0.1-1.5-0.3-2.3-0.4-0.4-0.1-0.7-0.3-1-0.4-0.5-0.3-1-0.7-1.7-0.4-0.1 0-0.3 0-0.4-0.1-1-0.3-2.1-0.5-2.9-1.1-1.1-0.7-2.5-1-3.6-1.9-0.4-0.3-0.8-0.5-1.2-0.7-0.2-0.1-0.5-0.2-0.7-0.1-0.3 0.1-0.6 0.2-0.8 0.3-0.5 0.3-1 0.4-1.6 0 0 1-0.4 1.8 0.1 2.6 0.1 0.3 0.2 0.6 0.2 0.9-0.3 1.5-0.2 3.1-0.1 4.6 0.1 1.4 0.1 2.7 0.1 4.1-0.1 1.3-0.3 2.6-0.1 4 0 0.1-0.1 0.2 0 0.2 0.5 0.7 0.1 1.5 0.2 2.2 0 0.8 0 1.5 0 2.3 0 0.3-0.1 0.6 0 0.8 0.3 0.5 0.2 1-0.2 1.3 0.1 0.9 0.3 1.7 0.4 2.5 0 0.2 0 0.4-0.1 0.5-0.4 0.5-0.3 1-0.1 1.5 0.1 0.2 0.1 0.4 0.1 0.6 0 1.1-0.2 2.2-0.1 3.2 0.2 1.1 0 2.1-0.1 3.1-0.1 0.5 0 1 0 1.5 0.1 0.9 0.3 1.8 0.2 2.7-0.1 0.8-0.1 1.6 0.1 2.4 0.2 1 0 1.9-0.2 2.6 0.1 0.7 0.3 1.1 0.3 1.6 0 0.7-0.3 1.4-0.2 2 0.2 0.8-0.2 1.7 0.3 2.5 0.1 0.1 0.1 0.2 0 0.3-0.4 1.5 0.4 3-0.1 4.5 0.3 0.6 0 1.2-0.1 1.9 0 0.1-0.1 0.2-0.1 0.3 0.4 1.4 0.1 2.7 0 4.1 0 0.5 0.1 0.9 0.1 1.4 0.2 1.9-0.1 3.8 0.1 5.7 0 0.3 0.1 0.6 0.2 0.9 0 0.1 0.1 0.2 0.1 0.3-0.5 1.3 0.5 2.7-0.3 4-0.1 0.1-0.1 0.3 0 0.4 0.1 0.9 0.1 1.8 0.2 2.6 0.1 0.6 0.1 1.3 0.2 1.9 0.1 0.6 0 1.2-0.1 1.8-0.2 1.3 0.2 2.6 0.1 3.8-0.1 0.4-0.1 0.8-0.2 1.3 0.8 0.1 1.6 0.1 2.4 0.4 0.4 0.2 1.1 0.1 1.6-0.1 0.4-0.2 0.8-0.2 1.3-0.1 0.3 0.1 0.6 0 1 0 1.1-0.2 2.1 0.1 3.2-0.2 0.8-0.2 1.7-0.3 2.5-0.4 0.4-0.1 0.9 0.2 1.3 0.1 0.8 0 1.6-0.3 2.4-0.3 0.9 0.1 1.8-0.4 2.6 0.1 0.3 1.4-0.1 1.9-1.5 2-0.6 0.1-1.2 0.2-1.9 0.3-0.1 0-0.1 0-0.2 0-1.6-0.1-3.1 0.3-4.7 0.2-0.6-0.1-1.2 0.1-1.7 0.3-0.5 0.2-0.8 0-1.2-0.2-1.1 0.6-2.1 0.8-3.4 0.4-0.4 0.5-0.8 0.7-1.3 0.4-0.9 0.4-1.7 0.9-2.5 1-0.5 0.1-1.2-0.1-1.7-0.1-0.8 0-1.6 0.1-2.4 0.2-0.5 0.1-0.9 0.3-1.6 0.6-1.1-0.5-2.2 0.2-3.4 0.4-0.4 0.1-0.7 0.2-1.1 0.2-1.2 0.1-2.4 0.4-3.6 0.9-0.1 0-0.2 0.1-0.3 0.1-1.5-0.2-2.8 0.9-4.3 0.7-0.1 0-0.1 0-0.2 0.1-0.9 0.7-2.1 0.4-3.1 0.8-0.4 0.2-0.9 0.4-1.4 0.2-0.1-0.1-0.4 0-0.5 0.1-0.7 0.5-1.4 0.6-2.2 0.6-0.1 0-0.3 0.1-0.4 0.1-0.6-0.3-0.9 0.2-1.2 0.5-0.6 0.1-1.3-0.2-1.8 0.4-1-0.2-1.7 0.6-2.6 0.7-0.9 0.1-1.9 0.4-2.8 0.6-0.2 0-0.4 0.1-0.5 0.3-0.3 0.3-0.5 0.4-0.9 0.2-0.2-0.1-0.4 0.1-0.6 0.1-0.9 0.3-1.8 0.6-2.6 0.9-0.1 0-0.2 0-0.2 0.1-0.3 0.8-1.1 0.5-1.6 0.7-0.7 0.4-1.5 0.6-2.2 1-0.5 0.3-1 0.2-1.5 0.5-0.8 0.5-1.7 0.7-2.5 1.3-1.3 1-2.4 0.8-3.5-0.5 0-0.6 0.3-1 1-1.3 0.9-0.4 1.7-1 2.6-1.2 0.2 0 0.3-0.2 0.5-0.4 0.5-0.4 1-0.7 1.7-0.6 0.2 0 0.4 0 0.6-0.1 1.5-0.8 3.1-1.1 4.6-1.8 0.1-0.1 0.3-0.2 0.4-0.1 0.8 0.1 1.4-0.3 1.9-0.7 0.7-0.4 1.4-0.9 2.3-0.8 0.1 0 0.2 0 0.3-0.1 1.3-0.8 2.8-1.1 4.2-1.6 1.3-0.5 2.7-0.6 3.8-1.5 0.1-0.1 0.3-0.1 0.5-0.1 0.7 0 1.2-0.2 1.8-0.6 0.4-0.3 0.9-0.5 1.4-0.6 1.9-0.5 3.8-1 5.7-1.5 0.6-0.1 1.1-0.3 1.7-0.4 0.5 0 1.1-0.2 1.6 0.2 0.2 0.2 0.7 0.2 1 0.1 1-0.2 2.1-0.4 3.1-0.4 0.8 0 1-0.3 0.9-1.1 0-0.1-0.1-0.2-0.1-0.3 0.4-1.1 0.1-2.3 0.1-3.4-0.1-0.9 0.2-1.8 0-2.8-0.2-0.9-0.1-1.8-0.1-2.7 0-1.5 0-3 0-4.6 0-0.9-0.2-1.8 0-2.7 0.2-0.9 0-1.8 0-2.6 0-0.9 0-1.8 0.1-2.7 0-0.2 0.1-0.5 0.3-0.8-0.1-0.2-0.3-0.5-0.3-0.8-0.1-0.3-0.1-0.6 0-0.8 0.2-0.5 0.3-1 0-1.5-0.2-0.4-0.2-0.9-0.1-1.4 0.1-0.8 0.1-1.6 0-2.5 0-0.6-0.2-1.2-0.1-1.7 0.2-1.1 0.2-2.2-0.1-3.3 0-0.1-0.1-0.3-0.1-0.4 0.6-0.7 0.1-1.5 0.3-2.2 0.2-0.8-0.2-1.7 0.2-2.4 0.1-0.1 0.1-0.3 0.1-0.4-0.6-1.1 0.1-2.2-0.1-3.3-0.2-1-0.2-1.9-0.3-2.9 0-0.3-0.1-0.5 0-0.8 0.2-0.7 0.4-1.3 0-1.9-0.1-0.2 0.1-0.5 0.1-0.8-0.1-1.5 0.2-3-0.3-4.5-0.1-0.3-0.1-0.6-0.1-0.9 0.1-0.8 0.2-1.5 0.2-2.3 0-0.5-0.2-1-0.2-1.3-0.1-0.7-0.2-1.3-0.1-1.8 0-0.9-0.2-1.8 0.2-2.7 0.2-0.4 0-0.9-0.1-1.4 0-0.2-0.2-0.4-0.1-0.6 0.3-1-0.1-2 0-3 0.1-0.9-0.1-1.8-0.2-2.8 0-0.2 0-0.3 0-0.5 0.3-1.2 0.2-2.5 0.2-3.7 0-1.2-0.1-2.4-0.1-3.7 0-0.7 0.3-1.4 0-2.2-0.1-0.4 0.1-0.9 0.1-1.3 0-0.6 0-1.3-0.1-1.9-0.2-0.8 0-1.6 0.1-2.4 0-0.4 0.1-0.7 0-1.1-0.2-0.6-0.3-1.2-0.7-1.8-0.4-0.6-0.4-1.2-0.4-1.8 0-0.3-0.1-0.7-0.2-1-0.4-1.6-0.3-3.1 0.3-4.7 0.2-0.6 0.6-1.4 0-2.1-0.9 0.2-1.7 0.3-2.6 0.5-0.2 0-0.4 0-0.5-0.1-0.2-0.4-0.4-0.2-0.6-0.1-0.8 0.2-1.7 0.3-2.5 0.2-0.2 0-0.3 0-0.5 0-1 0.5-1.9 0.4-2.9 0.2-0.2 0-0.5-0.1-0.7-0.1-1.4 0.5-2.8-0.1-4.2 0.4-0.3 0.1-0.6-0.1-1-0.2-0.8-0.1-1.7 0.1-2.5-0.1-0.8-0.2-1.7-0.4-2.5-1-0.5-0.5-0.9-1.2-1.6-1.6-0.1-0.1-0.2-0.3-0.2-0.4-0.1-0.2-0.1-0.4-0.2-0.6-1.1-1-1.6-2.3-2.2-3.5-0.3-0.5-0.7-0.9-1.1-1.4-0.4-0.6-0.4-1.1 0-1.7 0.3-0.3 0.5-0.7 0.7-1 0.1-0.1 0.2-0.3 0.3-0.4 1.1-0.5 1.8-1.4 2.6-2.2 1-0.1 1.3-1.1 2.2-1.5 0.7-0.3 1.3-1.1 1.9-1.6 0.5-0.4 1-0.6 1.5-0.9 0.6-0.4 1.2 0 1.7 0.2 0.6 0.2 1.2 0.2 1.8 0 0.8-0.3 1.6-0.5 2.5-0.4 0.3 0 0.7-0.1 1-0.1 0.2 0 0.3-0.1 0.5-0.1 1.3 0.4 2.6 0.1 3.9-0.3 0.4-0.1 0.7-0.1 1.1 0.1 0.3 0.2 0.9 0 1.5-0.1 0 0 0.2 0.1 0.3 0.2 0.6-0.2 1.1-0.3 1.5-0.4 0-0.3-0.1-0.7 0-1.1 0.1-0.4 0.2-0.7 0-1.1-0.1-0.1-0.1-0.4 0-0.5 0.4-0.5 0.2-1.1 0.2-1.6-0.1-0.4 0-0.9 0-1.4 0-0.6 0.2-1.2-0.3-1.8-0.4 0-0.8 0.1-1.2 0.1-0.5 0-1.1-0.1-1.6-0.1-0.7 0-1.4-0.2-2.1 0.2-0.4 0.3-1.1 0.2-1.6 0.1-0.8-0.3-1.6 0.2-2.4 0.1-0.5 0-0.9 0.1-1.4 0.1-0.6 0.1-1.2 0.2-1.8 0.3-0.2 0-0.4 0.2-0.6 0.1-0.9-0.4-1.7 0.1-2.6 0.1-0.8 0-1.6 0.3-2.4-0.1-0.3-0.1-0.7 0-1-0.1-0.3-0.1-0.6-0.4-1.1-0.7-0.1 0-0.4 0-0.6 0.1-0.9 0.1-1.2-0.1-1.2-1.1 0-0.1 0-0.2 0-0.2-0.6-0.8-0.2-1.7-0.4-2.5-0.3-1.6 0.1-3.2-0.2-4.8-0.1-0.8 0.1-1.7 0.1-2.5 0-0.3-0.2-0.6-0.2-0.9-0.1-1.2-0.1-2.4-0.2-3.5 0-0.6 0.3-1 0.8-1.1 0.2-0.1 0.4-0.2 0.7-0.2 0.8-0.2 1.6-0.3 2.5-0.4 0.5-0.1 0.9-0.2 1.4-0.2 1 0.1 2 0 3-0.2 0.5-0.1 1.1 0 1.7 0 0.7 0 1.4 0.1 2.1-0.3 0.2-0.1 0.5 0 0.7-0.1 1-0.1 2 0 2.9-0.3 0.8-0.2 1.7-0.1 2.6-0.2 0.9 0 1.9 0 2.8-0.2 0.6-0.1 1-0.1 1.5 0.3 0.1-0.3 0.2-0.5 0.2-0.7 0-0.7 0-1.5 0.1-2.2 0-0.2 0-0.4 0-0.6-0.2-0.8-0.5-1.6-0.1-2.4-0.6-0.4-1.1-0.2-1.6-0.1-0.2 0-0.4 0.2-0.6 0.2-0.7-0.4-1.3-0.1-2-0.2-1.6 0-3.2-0.2-4.8-0.3-0.1 0-0.3-0.1-0.4 0-1.1 0.4-2.2 0.2-3.3 0.1-0.5 0-1.1-0.1-1.6 0.1-0.7 0.3-1.4 0.2-1.9 0-1-0.2-1.8 0.1-2.7 0.2-0.2 0-0.4 0.1-0.6 0.1-1-0.1-1.9-0.3-2.9 0.1-0.3 0.1-0.8-0.2-1.2-0.4 0 0-0.1 0.2-0.1 0.2-1.1 0.1-2.3 0.3-3.4-0.2-0.5-0.2-0.7-0.4-1-1.2-0.3 0-0.6 0-1.1-0.1-0.1-0.2-0.3-0.5-0.5-0.7-0.6-0.9-1-2-1.8-2.8-0.7-0.7-1-1.7-1.7-2.4-0.5-0.5-0.8-1.1-1.4-1.5-0.6-0.3-0.7-2-0.1-2.6 0.5-0.5 0.8-1.1 1.6-1.2 0.5-0.1 1-0.7 1.4-1.1 0.1-0.1 0.3-0.2 0.4-0.3 1.4-0.4 2.4-1.4 3.7-2 0.9-0.4 1.7-1.1 2.5-1.6 0.4-0.3 0.8-0.6 1.2-1 0.7-0.2 1.4-0.3 2.1 0.2 0.4 0.2 1.1 0 1.7-0.1 0.1 0 0.3-0.2 0.3-0.2 1 0.5 1.9-0.3 2.9 0.1 0.4 0.2 1.1-0.1 1.6-0.1 1-0.1 2-0.1 3-0.1 0.1 0 0.2 0.1 0.3 0.1 0.6-0.6 1.4 0 2.1-0.3 0.2-0.1 0.6 0 0.9 0.1 0.2 0 0.4 0.1 0.5 0.1 0.5-0.4 1-0.2 1.3 0.2 2.6-0.7 5.2 0 7.8-0.3 0.3-1.4 0.4-2.9 0.1-4.3 0-0.1 0.1-0.2 0.1-0.4 0.1-0.9 0.4-1.8 0.1-2.7-0.1-0.2 0.1-0.5 0.1-0.7 0.1-0.9 0.2-1.8 0.2-2.8-0.1-0.7 0.1-1.4 0.4-1.9 0.2-0.6 0.9-0.9 1.5-0.9 0.8 0 1.6 0 2.4 0 0.6 0 1.2 0 1.7-0.1 0.6-0.1 1.1 0 1.6 0.2 0.5 0.2 0.8 0.6 0.8 1.2 0 1 0.2 2 0.2 3.1 0 1.5-0.1 2.9-0.2 4.4 0 0.6 0 1.2-0.1 1.8 0 1-0.1 2-0.1 3.1 0.6 0.2 1.2 0.1 1.9 0 0.2 0 0.4-0.1 0.6 0 1.1 0.5 2.1 0.2 3.2 0 0.6-0.1 1.2 0.1 2.1 0.2 0.9-0.3 2.1-0.4 3.4-0.2 0.5 0.1 1.1 0.1 1.7 0 0.8-0.2 1.7-0.1 2.5 0.1 0.3-0.4 0.5-0.8 0.7-1.2 0.8-0.3 1.3 0.1 1.9 0.6 0 0.4 0 0.9 0.1 1.4 0 0.1 0 0.2 0 0.2 0.6 1 0.1 2.1 0.5 3.1 0.1 0.2 0 0.4 0 0.6 0 0.3 0 0.6 0 1 0 0.4 0 0.9 0 1.3 0 0.1 0 0.2 0 0.4 0.2 1.3 0.4 2.7 0.5 4 0.1 0.5 0.1 1 0 1.4-0.2 0.7 0 1.2 0.3 1.8 0.3 0.4 0.4 0.9 0.7 1.4-0.6 0.4-1.1 0.8-1.7 1.3 0 0.3 0 0.7-0.1 1.2-0.4 0.3-0.9 0.6-1.5 0.4-0.1-0.1-0.3 0-0.5 0.1-0.8 0.5-1.6 0.3-2.4 0.1-0.4 0.4-0.7 0.5-1.3 0.4-0.9-0.2-1.8 0.1-2.7 0.1-0.7 0-1.5-0.1-2.2-0.2-0.2 0-0.4-0.1-0.6 0-0.9 0.3-1.9 0-2.8 0-0.2 0-0.3-0.1-0.5-0.2-0.5 0.5-1.1 0.4-1.7 0.3-0.9-0.2-1.9-0.2-2.9-0.3 0 1.7 0 3.3 0.3 4.9 1-0.2 2 0.2 3-0.3 0.6-0.3 1.4-0.1 2.1-0.1 0.6 0 1.3 0 1.9 0 0.3 0 0.6 0.1 0.9 0.1 0.2 0 0.5 0.1 0.7 0 0.5-0.3 1-0.1 1.5-0.2 1-0.1 2-0.1 3 0.1 0.3 0.1 0.7-0.1 0.9-0.3 0.5-0.4 0.9-0.3 1.4 0 0.1 0.1 0.3 0.2 0.4 0.3 1.3 1 2.6 2 3.8 3.1 1.1 1 2.2 2.2 3.3 3.3 0.2 0.2 0.3 0.4 0.5 0.7 0.2 0.3 0.4 0.6 0.6 0.8 0.8 0.6 0.9 1.7 0.2 2.4-0.3 0.3-0.7 0.4-0.9 0.6-0.3 0.5-0.8 0.8-1 1.4-0.3 0.9-1.1 1.6-1.9 2.2-0.6 0.4-0.9 0.8-1.1 1.5-0.2 0.1-0.7 0.1-0.7 0.2-0.3 1.2-1.6 1.3-2.2 2.2-0.3 0.4-0.9 0.6-1.4 0.9-0.2 0.1-0.5 0-0.6-0.4-0.2-0.7-0.3-0.7 0.1-1.7-0.6 0-0.3 0.6-0.4 0.6-0.5 0.4-0.9 0.7-1.3 0.9-0.5 0.4-1.2 0.4-1.8 0.4-0.5 0-1.1 0-1.6 0-0.5 0-1-0.2-1.5-0.3-0.4 0-0.7 0.1-1.1 0.1-0.2 0-0.5 0-0.7 0-1-0.1-2-0.1-3-0.2-0.2 0-0.5 0-0.7-0.1-0.5-0.2-1-0.2-1.5 0-0.2 0.1-0.5 0-0.8 0-0.3 0.8 0.5 1.8-0.2 2.6 0.1 0.6 0.4 1 0.2 1.6-0.1 0.4 0.1 0.9 0.2 1.4 0.2 0.6 0.2 1.1-0.4 1.3 0.1 0.4 0.2 0.6 0.3 0.9 1.6-0.2 3.2-0.4 4.7-0.5 1.1-0.1 2.2 0.1 3.3 0.1 0.2 0 0.4-0.1 0.6-0.1 1-0.1 2-0.4 3.1-0.1 0.1 0 0.3 0 0.5 0 0.5 0 1.1 0 1.6 0 0.3 0 0.7 0.1 0.9 0 0.6-0.4 1.3-0.2 1.9-0.3 0.5 0.7 0.6 1.4 0.8 2.2 0.3 1-0.1 2 0.1 3.1 0.2 0.7 0.3 1.3 0 2-0.1 0.3 0 0.8 0.1 1.2 0.1 0.6 0.2 1.1 0 1.7-0.2 0.6-0.3 1.2 0.1 1.8 0.2 0.2 0.1 0.6 0.1 0.9 0 0.5-0.2 1-0.1 1.4 0.2 1.2 0.1 1.6-0.9 2.3-0.2 0.1-0.3 0.4-0.4 0.6-0.3 1.1-0.8 1.6-1.9 1.4-0.4 0-0.7 0-1.1 0-1.2 0.1-2.3 0-3.5-0.1-0.1 0-0.2-0.1-0.2-0.1-1.3 1-2.8 0.7-4.3 0.7-0.1 0.4-0.2 0.7-0.3 1.1 0.4 0.3 0.8 0.4 1.4 0.4 0.8-0.1 1.7-0.7 2.5-0.2 0 0 0.1 0 0.2 0 1.7-0.6 3.4-0.3 5.1-0.6 1-0.2 2 0.3 2.9 0.3 0.3 0 0.6 0.1 0.8 0 0.3-0.2 0.6 0 0.9 0.1 1.1 0.5 2 0.3 2.8-0.5 0.7-0.7 1.3-1.5 2-2.2 0.2-0.2 0.5-0.5 0.7-0.7 0.2-0.2 0.5-0.4 0.7-0.6 0.4-0.7 0.7-1.4 1.6-1.6 0.1 0 0.3-0.2 0.4-0.4 0.3-1.1 1.5-1.5 2-2.5 0.1-0.2 0.6-0.3 0.9-0.4 0.4-1 1.2-1.6 2.2-2.1 0.4-0.2 0.7-0.5 1.1-0.7 0.3-0.2 0.6-0.4 1-0.6 0.2-0.5 0.2-0.9-0.3-1.4-0.4-0.4-0.4-0.8-0.1-1.3-0.6-0.4-0.9-0.9-1-1.6 0-0.5-0.2-1-0.3-1.5-0.1-0.7-0.2-1.5-0.4-2.2-0.2-0.6-0.4-1.2-0.3-1.8 0-0.2 0.1-0.4 0.1-0.7 0-0.5 0.1-1.1-0.1-1.5-0.2-0.4-0.2-0.8-0.1-1.3 0.1-0.5 0.1-0.9 0.1-1.4-0.1-0.7 0-1.4 0.2-2.1 0.3-0.9 0.5-1.9 0.5-2.9 0-0.1 0-0.2 0-0.2 0.5-0.6 0.5-1.4 0.8-2 0.6-1.2 1.2-2.3 1.9-3.4 0.4-0.6 1.1-1.1 1.6-1.7 0.3-0.3 0.5-0.5 0.8-0.8 0.6-0.6 1.3-1.3 1.9-1.9 0.1-0.1 0.3-0.3 0.4-0.2 0.7 0.1 1.1-0.4 1.6-0.8 0.8-0.7 2-0.8 2.9-1.3 0.1 0 0.1 0 0.2-0.1 1.3-0.5 1.3-0.5 2.2 0.3 1.4 0 2.7-0.3 4.1 0 0.3 0.1 0.6 0 1 0 0.2 0 0.5 0 0.7 0.1 0.6 0.4 1.3 0.5 1.9 0.3 1 0.6 2 1.1 3.2 1.2 0.2 0 0.4 0.1 0.5 0.2 0.3 0.1 0.5 0.3 0.8 0.4 0.2 0.1 0.4 0.1 0.4 0.2 0.3 0.4 0.7 0.6 1.2 0.8 0.8 0.4 1.6 0.9 2.3 1.4 0.5 0.4 0.9 0.9 1.2 1.4 1 1.5 1.9 3.1 2.8 4.7 0.4 0.8 0.5 1.7 0.7 2.6 0.3 1.3 0.7 2.5 1 3.8 0.2 0.8 0.2 1.6 0.2 2.4 0 0.5 0 0.9 0 1.4 0 1.6 0.1 3.2-0.4 4.7-0.1 0.4-0.2 0.8-0.4 1.1-0.4 0.7-0.9 1.3-1.4 2-0.1 0.2-0.1 0.4-0.3 0.7 0.7 0.3 1.3 0.6 2 0.9 0.4 0.2 0.8 0.2 1.1 0.4 1 0.5 2.1 1 3.1 1.5 0.4 0.2 0.8 0.5 1.1 0.8 0.5 0.6 1.3 0.5 1.8 0.9 1 0.7 1.7 1.7 2.5 2.7 0.7 0.8 1.1 1.6 1.7 2.4 0.4 0.6 0.8 1.2 1.2 1.9 0.3 0.5 0.5 1 0.9 1.3 0.5 0.4 0.5 1.1 0.9 1.5 0.5 0.6 0.9 1.3 1.2 2 0.5 1.3 1.1 2.6 1.6 3.8-0.4 0.8-0.7 1.5-0.5 2.4 0.1 0.2-0.1 0.5-0.2 0.7-0.2 0.9-0.4 1.8-0.1 2.7 0.1 0.1 0 0.3 0 0.5-0.2 1.1-0.4 2.3-0.3 3.4 0.1 1.3-0.1 2.6-0.4 3.9-0.1 0.5-0.1 1.1-0.1 1.7 0 0.9-0.1 1.8-0.1 2.7 0 0.3-0.1 0.6-0.2 1 0.3 0.5 0.5 1 0 1.6-0.1 1.7-0.2 3.3-0.2 5 0 0.5 0 1 0 1.5-0.1 1-0.3 2-0.1 3.1 0.1 0.6-0.3 1.4-0.6 2-0.1 0.3-0.7 0.3-1.1 0.5 0 0.7-0.3 1.5-0.1 2.2 0.1 0.1 0.1 0.3 0 0.4-0.7 1.2-0.3 2.7-1.1 3.9-0.5 0.7-0.7 1.7-1.1 2.5-0.4 0.8-0.9 1.5-1.4 2.2-0.2 0.4-0.5 0.7-0.8 1-0.2 0.2-0.5 0.4-0.7 0.6-0.5 0.4-1 0.8-1.5 1.2-0.7 0.4-1.5 0.8-2.4 1.2 0 0.7-0.1 1.5-0.1 2.3 0 1.6 0 3.3 0.1 4.9 0 1-0.5 2 0.2 2.9 0.1 0.1 0 0.4 0 0.6-0.1 1.1-0.2 2.2-0.2 3.2 0 0.5 0.2 1 0.1 1.5-0.2 1 0.3 2 0 2.9-0.3 1-0.1 1.8-0.1 2.8 0 0.6 0.1 1.2-0.2 1.8-0.1 0.2 0 0.5 0 0.7 0.1 0.9 0.3 1.7-0.1 2.6-0.1 0.3 0 0.6 0 0.9 0 0.4-0.1 0.7-0.2 1.1 0 0.1 0 0.2 0 0.3 0 0.9 0 1.9 0.1 2.8 0 0.4 0.1 0.8 0.2 1.2 0 0.2 0.1 0.6 0 0.6-0.5 0.4-0.3 1-0.4 1.5-0.1 0.9 0 1.8 0 2.7-0.3 0.2-0.5 0.3-0.9 0.5 0 0.4 0 0.8 0.1 1.2 0.2 0.8 0.3 1.7 0.3 2.6 0 0.5 0.1 1.1 0.3 1.6 0.2 0.4 0.1 0.8 0 1.2-0.1 0.8-0.1 1.7-0.1 2.5 0 0.3-0.1 0.5-0.1 0.6 0.4 0.2 0.8 0.5 1.1 0.7-0.1-1.1 1-2.2 2.3-2.1 0.6 0 1.1 0.1 1.7 0.2 0.1 0.1 0.2 0.3 0.3 0.5 0.6 0.2 1.1 0.3 1.6 0.5 0.1 0 0.3-0.1 0.5-0.1 0.3 0 0.6 0 0.8 0.1 0.3 0.2 0.6 0.2 0.9 0.2 0.3 0 0.5 0.2 0.8 0.2 0.6 0.1 1.2 0.3 1.9 0.4 0.7 0 1.3 0.3 1.9 0.6 0 0 0.1 0.1 0.1 0.1 0.7-0.3 1.3 0.3 2 0.4 0.7 0.1 1.3 0.3 2 0.5 0.1 0.2 0.3 0.4 0.5 0.6 0.8 0 1.6 0.1 2.4 0.1 0.4 0.6 0.9 1.1 1.8 0.9 0.1 0 0.3 0 0.4 0 0.9 0.4 1.9 0.8 2.8 1.1 1.4 0.5 2.7 1.2 4.1 1.7 1.1 0.4 2.1 0.9 3.2 1.2 1.1 0.4 2.1 0.6 3 1.3 0.1 0.1 0.3 0.1 0.5 0.1 0.2 0 0.4-0.1 0.5 0 0.8 0.8 2.2 0.6 3 1.4 0.4 0.4 1.2 0.5 1.8 0.6 0.2 0.1 0.4 0 0.5 0.1 1 0.9 2.5 0.8 3.5 1.8 0.4 0.3 1 0.1 1.3 0.6v2.1h-1.4z"/><path d="m125.6 31c0.4-0.1 0.9-0.4 1.3-0.4 1.7-0.1 3.4-0.3 4.9 0.7 0.5 0.4 0.9 0.8 1.2 1.3 0.3 0.6 0.6 1.3 0.9 1.9 0.1 0.2 0 0.5 0 0.8-0.1 0.5-0.2 1.1-0.2 1.6 0 0.4-0.3 0.8-0.6 1.1-0.6 0.8-1.3 1.6-2.4 1.9-0.7 0.2-1.3 0.6-2 0.9 0.1 0.5 0.1 1 0.2 1.5 0.1 0.4 0 0.6-0.3 0.9-0.2 0.1-0.3 0.2-0.5 0.4-0.7 0.6-1.5 0.5-1.9-0.3-0.3-0.6-0.4-1.2-0.2-1.8 0.1-0.5 0.3-1 0.3-1.5 0.1-1.1 0.5-1.5 1.6-1.6 1-0.1 1.6-0.7 2.5-1 0.3-0.1 0.6-0.5 0.6-0.9 0.2-0.8 0.2-1.7 0.3-2.5-1-1-2.1-1.4-3.4-1.2-0.8 0.1-1.4-0.3-2-0.5-0.5-0.2-0.5-0.8-0.3-1.5"/><path d="m129.1 49.1c-0.1 0.2-0.2 0.5-0.5 0.7-0.3 0.3-0.7 0.6-1.1 0.6-1.2 0.2-2-0.8-1.7-2 0.3-1.2 0.9-1.7 2.1-1.7 0.4 0 0.7 0.2 0.8 0.6 0.1 0.5 0.2 1 0.4 1.7"/><path d="m80.1 127c0.2 0 0.5 0.1 0.7 0.1 0.5 0.1 0.7 0.5 0.8 1 0 0.5-0.4 0.7-0.8 0.8-0.5-0.2-0.9-0.5-1.1-1 0.1-0.3 0.3-0.6 0.4-0.8"/><path d="m96.6 50.6c0.2-1 0.1-1.2-0.7-1.5-0.6-0.2-1.3-0.4-2-0.5-0.5-0.1-1 0-1.2 0.7 0.1 0.2 0.1 0.5 0.2 0.7 0.2 0.8 0.2 0.9 1.1 1 0.9 0.1 1.8-0.1 2.6-0.5zm-4.2 2.1c0-0.1-0.1-0.3-0.1-0.5 0-0.8-0.7-0.9-1.2-1.1-0.5-0.2-0.9 0.1-1.3 0.4-1.2 1.1-1.6 2.6-2 4-0.1 0.4-0.4 0.8-0.3 1.2 0.2 0.7 0 1.4 0.1 2 0.2 0.7 0.3 1.3 0.3 2 0 0.9 0.6 1.7 1 2.5 0.4 0.9 1.2 1.3 2.2 1.4 0.7-0.7 0.7-1 0.4-1.7-0.6-1.3-1.3-2.6-0.9-4.1 0-0.1-0.1-0.1-0.1-0.2-0.2-2.2 0.7-4.1 1.9-5.9zm13.1 18v-0.9c-0.4 0.4-0.5 1.1-1.3 0.9-0.1 0-0.3 0.3-0.4 0.4-0.1-0.1-0.2-0.3-0.4-0.4-0.3 0.5-1 0.9-1.6 0.8-0.5-0.1-0.9 0-1.3 0.4-0.7-0.5-1.4-0.6-2.2-0.3-0.3 0.1-0.8 0.1-1.1 0-1.5-0.4-3-0.7-4.4-1.2-1.2-0.5-2.5-1.1-3.3-2.3-0.5-0.7-1.3-1.2-1.9-1.9-0.2-0.2-0.3-0.4-0.5-0.6-0.1-0.2-0.2-0.5-0.4-0.7-1.2-1.4-1.4-3-1.5-4.7 0-0.9-0.1-1.8-0.1-2.8 0-0.4 0.1-0.9 0.3-1.3 0.5-1.3 1-2.6 1.8-3.8 0.6-0.8 1.3-1.4 1.7-2.3 0.1-0.2 0.2-0.3 0.3-0.4 1-0.6 1.6-1.8 2.9-1.9 0.2 0 0.3-0.2 0.5-0.3 0.1-0.1 0.2-0.3 0.3-0.3 1.3-0.1 2.3-1.5 3.8-1.1 0.2 0 0.4 0.1 0.5 0 1.2-0.7 2.5-0.2 3.7-0.2 1.3 0 2.5 0.5 3.7 0.9 0.8 0.3 1.6 0.5 2.3 0.8 0.2 0.1 0.5 0.1 0.6 0.3 0.5 0.8 1.4 1.1 2.2 1.6 0.2 0.1 0.5 0.3 0.5 0.4 0.1 0.7 0.8 0.8 1 1 0.3 0.8 0.5 1.3 0.6 1.8 0.1 0.5 0 1.1 0 1.8 0.1 0.1 0.3 0.3 0.3 0.8-0.1 0.4 0.2 0.8 0.7 0.9-0.2 0.2-0.4 0.3-0.5 0.5-0.1 0.2 0 0.4 0 0.6 0.1 0.6 0.2 1.3 0.2 1.9 0 0.2 0 0.5-0.2 0.7-0.4 0.6-0.1 1.2-0.3 1.9 0.9-0.3 0-1.1 0.7-1.4 0.1 0.4 0.3 0.7 0.4 1-0.2 0.7-0.5 1.3-0.7 2.2 0.1-0.1 0.1-0.1 0 0-1 0.8-1.1 0.8-1.1 1.9 0 0.8-0.2 1.3-0.7 1.8-1.1 1.2-2.3 2.1-3.8 2.7-0.4 0.2-0.8 0.5-1.5 0.9z"/><path d="m95.9 97.7c0.4-0.4 0.8-0.7 1.4-0.4 0.1 0.1 0.3 0 0.4 0 0.7 0 1.3 0 2 0 1 0.1 2.1 0 3.1 0.2 1.1 0.3 2-0.5 3.1-0.2 0.6 0.2 1.4-0.1 2.1-0.1 0.4 0 0.8-0.1 1.1-0.2 0.1-0.3 0.2-0.6 0.1-0.8-0.2-1.3-0.4-2.7-0.6-4-0.1-0.7 0.1-1.4-0.3-2 0-0.1 0-0.2 0-0.3 0.4-0.7 0-1.4-0.1-2-0.1-0.4-0.3-0.9-0.2-1.3 0.1-0.6 0.1-1.1-0.1-1.6-0.1-0.1-0.1-0.3-0.1-0.5 0.2-0.8 0.2-1.6-0.1-2.4-0.1-0.2 0-0.5-0.1-0.7-0.2-0.4-0.6 0.1-0.8 0-0.4-0.2-0.7 0.1-1.1 0.1-0.7 0-1.4 0-2.1 0.1-0.3 0-0.5 0-0.8 0-0.6 0.1-1.3 0.3-1.9 0.2-0.7 0-3.2-0.2-3.8 0-0.5 0.2-0.9-0.2-1.4-0.1-0.5 0-1 0.3-1.5 0.3-0.8-0.1-1.5 0-2.2 0-0.7 0.1-1.4 0.2-2.2 0.3 0.1 0.4 0.2 0.8 0.2 1.2-0.1 1.1 0.5 2.2 0.3 3.3 0.6 0.8 0.3 1.6 0.1 2.4 0 0.2 0 0.3 0 0.5 0.4 1.2 0.3 2.4 0.4 3.7 0 0.3-0.1 0.5-0.2 0.8 0.7 0.9 0.1 2 0.3 3 0.2 0.3 0.5 0.4 1 0.4 0.5-0.1 1-0.1 1.5-0.1 0.1 0 0.3 0.1 0.4 0 0.6-0.5 1.2-0.2 1.9 0.3zm12-18.5c0.7 0.3 1.2 0.6 1.7 0.8 0-0.1 0.1-0.1 0.1-0.2 0.2 0.3 0.3 0.6 0.4 0.8 0.4 0.2 0.8 0.2 1.1 0.5 0.2 0.2 0.3 0.6 0.4 0.9 0.1 0.5 0 0.9 0 1.4 0 0.3 0.3 0.6 0.2 0.8-0.1 1.3 0.2 2.6 0.3 4 0.1 1.7 0.1 3.5 0.2 5.2 0.1 1.3 0.5 2.6 0.4 3.9-0.1 0.7-0.4 1.3-0.9 1.7-0.4 0.4-0.9 0.7-1.3 1.1-0.4 0.3-0.8 0.5-1.3 0.4-0.2 0-0.4 0-0.6 0-0.6 0.2-1.3 0.3-2 0.1-0.2-0.1-0.5-0.1-0.7 0-1.4 0.3-2.8 0.4-4.1 0-0.1 0-0.2 0-0.2 0-1.1 0.6-2.3 0.3-3.4 0.5-0.8 0.1-1.7 0-2.5 0-0.8 0-1.5 0-2.3 0-0.4 0-0.7 0-1.1-0.1-0.9-0.2-1-0.5-0.5-1.4h-1.9c-0.9-0.7-0.7-1.6-0.9-2.5-0.1-0.4 0-0.9-0.1-1.4-0.1-0.6-0.3-1.2 0-1.8 0.1-0.2 0-0.5 0-0.7-0.1-1-0.1-2-0.2-2.9 0-0.2-0.1-0.4-0.2-0.6-0.1-0.2-0.2-0.4-0.2-0.6-0.1-1.9-0.1-3.8-0.2-5.7 0-0.6-0.1-1.2-0.2-1.9-0.1-1.1 0.5-1.9 1.7-1.9 1.8-0.1 3.6-0.1 5.5-0.2 0.7 0 1.4-0.1 2.2-0.2 0.2 0 0.5-0.1 0.6 0.1 0.6 0.5 1.3 0.2 1.9 0.1 1.1-0.2 2.1-0.3 3.2-0.3 0.1 0 0.2 0 0.2 0 0.6-0.5 1.3-0.2 1.8-0.1 1.1 0.1 2.1 0 2.9-0.1z"/><path d="m83.7 99.4c0.8 0.6 1.1 1.2 0.9 2-1.6 0.4-1.8 0.2-1.8-1.2 0.3-0.2 0.5-0.5 0.9-0.8"/><path d="m83.8 78.4c0.3 0.3 0.6 0.5 0.9 0.8-0.5 0.4 0.2 1.2-0.7 1.6-0.3-0.2-0.6-0.3-1-0.5-0.1-0.7 0.1-1.3 0.8-1.8"/><path d="m84.6 103.9v1.6c-0.4 0.1-0.8 0.3-1.3 0.5-0.1-0.6-0.2-1.1-0.4-1.7 0.6-0.1 1.1-0.2 1.7-0.4"/><path d="m120.4 111.4c0.2-0.4 0-1 0.7-1 0.4 0 1 0.4 1 0.8 0 0.4 0.2 0.9-0.3 1.1-0.8 0.3-1-0.5-1.4-0.8"/><path d="m83.8 110.4c-0.5-0.5-0.5-1.2-0.5-1.7-0.1-0.5 0.4-0.7 0.8-0.4 0.8 0.6 0.7 1.6-0.3 2.1"/><path d="m123.3 99.7c0.5 0.1 1 0.2 1 0.9 0 0.5-0.2 0.9-0.7 1-0.5 0.1-0.7-0.2-0.9-0.5-0.4-0.7 0.3-1 0.6-1.4"/><path d="m122.2 96.6c0.2-0.2 0.5-0.5 0.6-0.6 0.6 0 0.9 0.1 1.4 0.1 0.1 0.4 0.2 0.9-0.3 1.3-0.4 0.3-1.2 0-1.8-0.8"/><path d="m82.8 84.3c0.2-0.5 0.4-0.8 0.6-1.2 0.4-0.2 0.8 0.1 1.1 0.5-0.1 0.4-0.2 0.8-0.3 1.4-0.6-0.3-1-0.5-1.5-0.7"/><path d="m83.1 97.4c-0.1-0.3-0.2-0.6-0.3-0.9 0.4-0.4 0.8-0.7 1.4-0.6 0.4 1.3 0.2 1.6-1 1.5"/><path d="m124.1 92.9c-0.4 0.1-0.8 0.2-1.2 0.3-0.1 0-0.1 0-0.2-0.1-0.2-0.6-0.2-1.1 0.4-1.4 1 0.3 1 0.3 1 1.2"/><path d="m84.1 87.1c-0.1 0.8 0.2 1.5-0.6 1.9-0.4-0.2-0.8-0.4-0.7-0.9 0.1-0.6 0.6-0.7 1.3-1"/><path d="m84 92.9c-0.4-0.1-0.8-0.2-1.1-0.3 0.1-0.3 0.1-0.6 0.2-0.8 0.1-0.1 0.3-0.3 0.5-0.3 0.2 0.1 0.4 0.3 0.4 0.4 0.1 0.2 0 0.5 0 0.9"/><path d="m83.8 74.9c0.6-0.1 0.6-0.1 1.1 0.6-0.2 0.2-0.3 0.4-0.5 0.7-0.2-0.1-0.4-0.1-0.6-0.2 0-0.4 0.1-0.8 0.1-1.2l0 0"/><path d="m122.2 106.9c-0.4 1-0.5 1-1.3 0.7 0.1-0.3 0.2-0.6 0.3-1 0.3 0.1 0.6 0.2 1 0.3"/><path d="m121.3 114.8c0.5-0.3 0.7-0.1 0.8 0.3 0.1 0.4 0.5 0.9-0.4 1.2-0.1-0.2-0.2-0.5-0.2-0.7-0.1-0.2-0.1-0.4-0.2-0.8"/><path d="m123 104c0.6 0.5 0.6 0.6 0.2 1.4-0.7-0.4-0.7-0.5-0.2-1.4"/><path d="m106.5 154.2c0.3 0.3 0.5 0.7 0.7 1 0.4 0.6 0.3 0.9-0.4 1.2-0.4 0.2-0.8 0.1-1.1-0.1-0.6-0.3-0.7-1.2-0.1-1.6 0.2-0.1 0.4-0.2 0.9-0.5"/><path d="m83.8 123.8c0.4-0.8 0.9-1.2 1.3-1.1 0.4 0.2 0.6 0.5 0.6 1 0 0.6-0.4 1.2-0.8 1.3-0.8 0.1-0.7-0.8-1-1.1"/><path d="m79 153.1c0.4 0.1 0.8 0.3 1.2 0.4 0.2 1.1-0.1 1.5-1.2 1.6-0.8-1.1-0.8-1.3 0-2"/><path d="m80.5 162.4c-0.3 0.5-0.5 1-1.2 1-0.4 0-1-0.5-1.1-0.9-0.1-0.5 0.2-0.7 0.6-0.9 0.5 0.2 1.3 0 1.7 0.8"/><path d="m82.8 124.7c0.5 0.4 0.8 0.9 0.8 1.5-0.9 0.3-1.5 0.2-2.1-0.2 0.1-0.7 0.5-1.1 1.2-1.4"/><path d="m106.7 158.9c0.1 0.3 0.3 0.6 0.4 0.9 0.2 0.3 0.2 0.6-0.1 0.8-0.3 0.3-1 0.4-1.2 0.2-0.2-0.2-0.3-0.4-0.3-0.6 0-0.5 0.5-1.1 1.2-1.3"/><path d="m78.5 150.8c0.1-0.7 0.5-1.1 0.9-1.5 0.1-0.1 0.6 0 0.7 0.1 0.2 0.3 0.2 0.8 0.3 1.1 0 0.1-0.2 0.4-0.4 0.4-0.5 0-1-0.1-1.5-0.1"/><path d="m83.6 122.2c-0.2 0.1-0.5 0.3-0.7 0.5-0.3-0.1-0.6-0.2-0.8-0.3-0.2-1.1-0.1-1.1 0.8-1.5 0.8 0.5 0.8 0.5 0.7 1.4"/><path d="m82.7 129.1c0.3 0.1 0.6 0.2 0.9 0.3 0 0.5 0.2 1-0.3 1.4-0.5 0.4-0.9 0-1.3-0.1-0.3-0.8 0.4-1.1 0.7-1.6"/><path d="m80.5 155.9c0.4-0.3 0.8-0.6 1.1-0.8 0.9 0.8 0.9 0.9 0.1 1.9-0.3-0.1-0.7-0.2-1-0.3-0.1-0.3-0.1-0.5-0.2-0.8"/><path d="m79.9 132.7c-0.2-0.9 0.1-1.5 0.6-1.6 0.5-0.1 0.6 0.1 0.9 1.2-0.4 0.6-1 0.4-1.5 0.4"/><path d="m79.4 157.6c0.5 0.2 0.7 0.6 0.7 1.1-0.3 0.1-0.5 0.3-0.8 0.4-0.2 0.1-0.5 0.1-0.6 0-0.1-0.1-0.2-0.4-0.2-0.6 0.1-0.4 0.4-0.8 0.9-0.9"/><path d="m85.1 118.6c-0.1 0.5-0.1 0.9-0.2 1.3-0.1 0.2-0.4 0.5-0.5 0.5-0.2-0.1-0.5-0.3-0.6-0.6-0.2-0.7 0.1-1 1.3-1.2"/><path d="m82 164c-0.2 1.1-0.2 1.1-0.9 1.4-0.2-0.2-0.3-0.5-0.5-0.8 0.2-0.3 0.3-0.7 0.5-1.1 0.4 0.2 0.6 0.3 0.9 0.5"/><path d="m105.9 152.3c-0.3-1 0.4-1.3 0.8-1.7 0.6 0.1 0.6 0.6 0.5 1-0.1 0.7-0.8 0.5-1.3 0.8"/><path d="m109.4 165.4c0 0.5 0.1 0.8 0.1 1.1-0.4 0.1-0.8 0.3-1.1 0.4-0.2-0.2-0.4-0.3-0.6-0.5 0.1-0.3 0.2-0.6 0.3-1 0.2 0.3 0.3 0.4 0.5 0.6 0.2-0.1 0.4-0.2 0.8-0.5"/><path d="m107.7 162.5c-0.1-0.9 0-1.1 0.9-1.4 0.2 1.1 0 1.4-0.9 1.4"/><path d="m81.6 159.5c0 0.4 0 0.7-0.1 0.9-0.1 0.2-0.4 0.4-0.6 0.4-0.1 0-0.4-0.3-0.4-0.5 0-0.2 0.1-0.5 0.3-0.7 0.2-0.1 0.5-0.1 0.9-0.2"/><path d="m82.6 135c-0.3-0.3-0.5-0.5-0.8-0.7 0.2-0.4 0-0.9 0.6-0.9 0.4 0 0.5 0.4 0.4 1.1 0 0.1-0.1 0.2-0.2 0.5"/><path d="m84.2 128.6c-0.7-0.7-0.7-0.9 0.1-1.6 0.5 0.4 0.5 0.4-0.1 1.6"/><path d="m108.6 158.6c-0.9-0.3-0.9-0.3-0.8-1.1 0.9 0 1 0.1 0.8 1.1"/><path d="m40 23.5c0.4-0.6 0.9-0.7 1.2-1.1 0.4-0.4 1.2-0.5 1.9-0.6 0.6-0.1 1.1 0.4 1.5 0.7 0.1 0.1 0.2 0.2 0.3 0.3 1 1.2 1.5 1.4 2.9 0.6 1.1-0.6 2.3-0.9 3.5-0.9 0.3 0 0.7 0.2 1.1 0.3 0.5 0.2 1 0.5 1.6 0.3 0.4-0.1 1.1 0 1.4 0.3 0.4 0.5 0.8 0.1 1.2 0 0 0.2 0.1 0.4 0.1 0.5 0 0.2 0 0.3 0 0.5 0.3 0.3 0.9 0.1 1 0.8-2.4 0-4.8 0.2-7.1-0.6-0.5 0.3-1 0.8-1.7 0.7-0.2 0-0.4 0.2-0.5 0.3-0.1 0.1-0.3 0.3-0.4 0.3-0.8-0.1-1.6 0.3-2.4-0.1-0.9-0.4-1.5-0.8-1.9-1.7 0 0 0 0-0.2-0.2-0.2 0.1-0.5 0.3-0.8 0.5-1.1 0.7-2.2 1.5-3.6 0.9-0.5-0.2-0.9-0.6-1.3-1-0.4-0.5-0.7-1.1-1.1-1.7-0.1-0.1-0.2-0.1-0.3-0.2-0.2 0.1-0.5 0.1-0.6 0.2-0.6 0.6-1.3 0.7-2 1-0.1 0-0.2 0-0.2 0-0.8 1-1.8 0.5-2.7 0.4-0.1 0-0.1 0-0.3 0-0.3 0.4-0.8 0.7-0.8 1.4 0 0.1-0.3 0.3-0.4 0.5-0.3 0.2-0.5 0.3-0.8 0.5-0.2 0.1-0.5 0.2-0.7 0.4 0-0.1-0.1-0.1-0.1-0.2 0.1-0.1 0.3-0.2 0.5-0.4-0.2-0.4-0.5-0.8-0.7-1.2-0.1-0.5 0.3-0.6 0.8-0.7 0-0.7 0.1-1.3 0.9-1.7-0.2-0.5-0.4-0.9-0.6-1.3 0-0.4 0.1-0.8 0.1-1.2 0.1-0.8 0.2-0.9 1-1 0.1 0 0.2 0 0.3 0 1.1-0.1 1.7 0.6 1.3 1.7-0.2 0.4-0.2 0.7 0.1 1h1.5c0 0 0-0.1 0-0.1 0.3-0.1 0.6-0.2 0.9-0.3 0.3-0.1 0.6-0.2 0.8-0.4 0.4-0.4 0.9-0.5 1.4-0.7 0.4-0.2 0.8-0.2 1.1 0.1 0.6 0.4 1.2 0.8 1.6 1.5 0.3 0.5 0.8 0.9 1.4 1.5"/><path d="m26.8 19.8c-0.3 0.5-0.4 0.9-0.2 1.4 0.1 0.2 0.1 0.5 0 0.7-0.4 0.9 0.1 1.6 0.6 2.4-0.4 0.3-0.7 0.7-0.5 1.2 0.1 0.4 0.4 0.7 0.6 1-0.1 0-0.1 0.1-0.2 0.1-0.5-0.2-1-0.4-1.4-0.8-0.6-0.5-0.8-1.3-0.7-2 0.1-0.7 0.2-1.3-0.2-2-0.3-0.6 0-1.4 0-2.2 0-0.8 0.8-1.2 0.9-2 0.4 0 0.7 0.1 1 0.1 0.3 0.4 0.6 0.8 0.9 1.2 0 0.6-0.2 0.9-0.8 0.8"/><path d="m30.9 47.5c-0.2 0.4-0.3 0.8-0.5 1.3 0.6-0.2 0.9-0.5 1.1-0.9 0.4-0.6 0.8-1.3 1.2-1.9 0.3-0.4 0.8-0.3 1.1-0.1 0.2 0.1 0.3 0.5 0.4 0.7 0 0.3-0.1 0.6-0.2 1 0.2 0 0.3 0.1 0.4 0 0.4-0.6 1-0.7 1.6-0.9 1-0.3 1.7-1.1 2.3-1.8 0.8-0.2 1.4-0.4 2-0.5 0.3-0.1 0.8 0 1.1 0.1 1 0.5 1.9 1 2.3 2.2 0 0.1 0.1 0.2 0.2 0.3 0.6-0.1 1-0.3 1.3-0.9 0.5-0.7 1.2-1.2 2-1.5 0.8-0.2 0.9-0.2 1.5 0.5-0.1 0.6-0.2 1.2-0.4 1.8 1.9 0.3 2.9-0.9 3.9-2.1 1.3-0.1 1.4-0.1 1.7 1 0.2 0.5 0.3 0.7 0.9 0.5 0.6-0.2 1.2-0.1 1.9-0.2 0.2 0 0.4 0 0.5-0.1 0.9-0.8 1.7-0.2 2.6 0.2-0.1 0.4-0.2 0.7-0.3 1.1-0.3-0.1-0.5-0.2-0.8-0.4v0.6c-0.9 0.3-1.7 0.6-2.5 0.7-1 0.2-2 0.6-3.1-0.1-1.2-0.7-1.8-0.5-3 0.9-1-0.1-2.1-0.2-3.2-0.2-0.2-0.3-0.3-0.6-0.5-1-0.4 0.2-0.9 0.4-1.3 0.7-0.6 0.4-1.1 0.6-1.9 0.3-0.6-0.7-1.4-1.3-2-2.1-0.5-0.7-1.3-0.5-1.6 0.2-0.7 0.4-1.3 0.7-1.8 0.9-0.5 0.2-1 0.5-1.7 0.4-0.4 0.7-0.9 1.1-1.9 0.8-0.3-0.1-0.7 0.3-1.2 0.1-0.1-0.1-0.6 0.4-0.7 0.7-0.3 0.7-0.8 1-1.4 1-0.4 0-0.9 0-1.3 0-0.2 0-0.6-0.2-0.6-0.4-0.1-0.7-0.5-1.4-0.2-2.1 0.2-0.4 0.4-0.8 0.6-1.3 0.6-0.2 1.2-0.5 1.8 0.2"/><path d="m29.8 76c-0.6-0.3-1.1-0.4-1.4-0.8-0.8-0.8-1.7-1.5-1.4-3 0.3-0.1 0.6-0.2 0.9-0.4 0.7 0.7 1.3 1.2 2 1.9 0.2 0 0.6 0 0.9 0.1 0.2 0.2 0.4 0.4 0.6 0.6 1.2-0.2 1.8-1 2.6-1.7 0-0.7 0.6-1 1.1-1.4 0.2-0.1 0.4-0.2 0.5-0.2 0.8 0.6 0.8 0.6 0.7 1.4 0.1 0 0.2 0 0.4 0 0 0.4-0.2 1 0.3 1.2 0.3 0.1 0.7 0 0.9 0 0.4-0.6 0.6-1.1 0.9-1.6 0.3-0.4 0.7-0.8 1-1.3 0.3-0.4 0.7-0.5 1.2-0.4 0.2 0.3 0.3 0.6 0.6 0.8 0.3 0.3 0.4 0.6 0.5 1 0.1 0.6 0.3 1.2 1 1.2 1.2-0.8 2.4-1.6 3.6-2.3 0.6 0.5 1.2 0.7 1.9 0.7 0.2 0 0.4 0.2 0.6 0.3 0.8 0.2 1.6 0.6 2.5 0.4 1.2-0.3 2.4-0.2 3.6-0.3 0.7-0.1 1.4-0.2 2.2-0.3 0 0.1 0 0.2 0 0.4 0.2 0 0.4 0.1 0.7 0.1-0.1 0.2-0.1 0.3-0.1 0.3-0.5 0.6-1.3 0.7-2 0.9-0.8 0.2-1.6 0.4-2.4 0.5-0.5 0.1-1.1 0.1-1.6 0.1-0.2 0-0.5-0.1-0.7-0.2-0.5 0.2-0.9 0.6-1.5 0.1-0.1-0.1-0.5 0.1-0.8 0.1-0.5-0.7-1.5-0.6-2.2-0.9-0.4 0.3-0.9 0.6-1.3 0.9-0.1 0.1-0.3 0.2-0.4 0.3-0.5 1-1.3 0.9-2.2 0.8-0.3 0-0.5-0.1-0.8-0.1-0.7 0.1-1.1-0.3-1.4-0.9-0.1-0.3-0.3-0.6-0.5-0.9-0.2 1.1-1.1 1.4-1.7 2.1-0.3 0.4-1.1 0.6-1.6 0.5-0.5-0.1-1-0.6-1.5-1-0.3-0.2-0.4-0.6-0.6-0.9-0.6 1.1-1.4 1.9-2.7 2-0.7 0.1-1.3 0-2-0.1-0.3 0-0.5 0-0.6 0"/><path d="m46.9 163c-0.8 0.1-1.3 0-1.7-0.6-0.2-0.3-0.4-0.7-0.1-1 0.3-0.2 0.7-0.5 1-0.4 0.3 0 0.6 0.4 0.7 0.8 0.1 0.4 0 0.8 0 1.3"/><path d="m44.6 137.1c0.2-0.4 0.3-0.7 0.5-1 0.4-0.7 1.1-0.7 1.4 0 0.1 0.3 0.2 0.6 0.2 0.9-1.4 0.9-1.4 0.9-2.2 0.1"/><path d="m44.6 124.1c0.2-0.4 0.3-0.6 0.5-1.1 0.3 0.1 0.7 0.1 1 0.3 0.2 0.1 0.4 0.4 0.5 0.7 0.2 0.4-0.1 0.7-0.5 0.9-0.6 0.2-1.1 0-1.5-0.8"/><path d="m46.7 115.5c0 0.7-0.4 1.1-1 1.1-0.5 0-1-0.4-1-0.9 0-0.6 0.6-1.1 1.3-1.1 0.4 0 0.7 0.3 0.7 0.8"/><path d="m46.5 158.4c-0.6 0-1.3 0.4-1.7-0.3-0.2-0.4 0-0.9 0.3-1.2 0.3-0.2 1-0.1 1.3 0.2 0.4 0.3 0.4 0.6 0 1.3"/><path d="m45.9 131.7c0.5 0 0.9 0.4 0.9 0.9 0 0.4-0.7 1-1.1 1-0.4 0-0.6-0.4-0.6-1.1 0-0.5 0.3-0.8 0.9-0.8"/><path d="m46.3 175.2c-0.6 0.2-1.1 0-1.4-0.5 0.1-0.4 0.1-0.9 0.7-1 0.4-0.1 0.8-0.1 1 0.3 0.3 0.5 0 0.9-0.2 1.2"/><path d="m46.4 169.4c0.7 0.8 0.7 0.8 0.1 1.3-0.2 0.2-0.4 0.4-0.5 0.6-0.6-0.2-1-0.6-0.9-1.2 0.1-0.8 0.9-0.4 1.3-0.8"/><path d="m45 128.6c0.1-0.3 0.2-0.5 0.3-0.8h1.3c0.3 0.5 0.5 0.9 0.1 1.3-0.3 0.3-0.9 0.1-1.7-0.5"/><path d="m44.7 149.2c0.2-0.2 0.3-0.5 0.5-0.7 0 0 0.1-0.1 0.2-0.1 0.1 0 0.3 0 0.4 0.1 0.3 0.1 0.9 0.1 0.8 0.6-0.1 0.4-0.5 0.7-0.8 0.9-0.2 0.1-0.5 0.1-0.6-0.2-0.1-0.2-0.3-0.4-0.5-0.6"/><path d="m45.3 165.4h1.3c0 0.3-0.1 0.6-0.1 0.9-0.1 0.6-0.5 0.8-0.9 0.7-0.3-0.1-0.6-0.6-0.6-1.1 0-0.2 0.2-0.4 0.3-0.6"/><path d="m45.7 141.8c-0.2-0.3-0.4-0.5-0.7-0.9 0.4-0.3 0.4-1.1 1.1-0.9 0.3 0.1 0.5 0.5 0.6 0.8 0.1 0.4-0.3 0.7-1 0.9"/><path d="m46.3 120.4h-1.1c-0.5-0.9 0.4-1.1 0.5-1.6 1 0.3 1.1 0.8 0.5 1.6"/><path d="m45.3 99.8c-0.2-0.6-0.3-1-0.4-1.4 0.4-0.3 0.7-0.6 1.1-0.9 0.2 0.6 0.3 1.2 0.5 1.8-0.3 0.1-0.7 0.2-1.2 0.4"/><path d="m46.3 177.9c0.3 0.9 0.1 1.4-0.5 1.9-0.6-0.5-0.7-1-0.5-1.8 0.4 0 0.7-0.1 1.1-0.1"/><path d="m45.2 110.6c1.2-0.1 1.2 0 1.2 1.5-0.5-0.1-1-0.1-1.3-0.3-0.2-0.2 0-0.8 0-1.2"/><path d="m46.1 108.1c-0.4-0.2-0.7-0.3-1-0.4v-0.8c0.3-0.1 0.6-0.2 0.9-0.4 0.3 0.1 0.6 0.2 1 0.4-0.3 0.4-0.6 0.8-0.9 1.2"/><path d="m46.4 145.7c-0.5-0.1-1-0.2-1.5-0.3 0.3-0.5 0.5-0.9 0.8-1.3 1.1 0.4 1.3 0.8 0.7 1.6"/><path d="m45.9 103.8c-0.9-0.6-0.9-0.6-0.3-1.7 0.4 0 0.7 0.2 0.8 0.6 0.1 0.5-0.1 0.9-0.5 1.2"/><path d="m47.6 167.4c0.5 0.5 0.6 1 0.4 1.6-0.5 0.2-0.9-0.1-1-0.5-0.2-0.5 0.2-0.8 0.6-1.1"/><path d="m46 152.7c0.1 0.4 0.2 0.8 0.3 1.2-0.5 0-0.8-0.1-1.2-0.1-0.1-0.9-0.1-0.9 0.9-1.1"/><path d="m59.6 92.1c-0.3-0.3-0.6-0.7-0.9-1.1 0.3-0.3 0.5-0.6 0.8-0.9 0.3-0.2 0.6-0.4 0.9-0.1 0.3 0.3 0.5 0.6 0.4 1.1-0.2 0.6-0.5 0.9-1.2 1.1"/><path d="m75.7 90.2c0.6-0.5 1.1-0.5 1.6-0.1 0.3 0.2 0.5 1 0.3 1.3-0.4 0.5-0.9 0.6-1.5 0.4-0.1-0.5-0.2-1-0.4-1.6"/><path d="m63 88.3c-0.1 0.3-0.1 0.6-0.2 0.8-0.2 0.3-0.5 0.7-0.7 0.7-0.4 0-0.8-0.3-1.1-0.6-0.3-0.3-0.1-0.7 0.2-1 0.5-0.4 1.1-0.3 1.8 0.1"/><path d="m65.2 94.9c-0.6 1.4-1 1.4-1.9 0.2-0.1-0.8 0.4-1 1.1-1.3 0.3 0.3 0.5 0.7 0.8 1.1"/><path d="m63.2 90.1c0.6 0.1 1.2-0.4 1.6 0.3 0.3 0.5 0.1 0.8-0.3 1.2-1.4 0.2-1.7 0-1.4-1.5"/><path d="m66.3 94.2c-1-0.4-1.1-0.6-1-1.6 0.3-0.2 0.6-0.3 1-0.5 0.9 0.6 0.9 0.7 0.3 1.5-0.1 0.2-0.2 0.4-0.3 0.6"/><path d="m57.4 93.4c-0.1 0-0.2 0.1-0.4 0.1-0.3-0.3-0.3-0.6-0.1-1 0.5-0.7 1.1-0.4 1.8-0.1-0.2 0.5-0.4 1.1-0.7 1.9-0.3-0.4-0.5-0.7-0.7-0.9"/><path d="m77.7 82.5c-0.1 0.2-0.2 0.4-0.3 0.5-0.2 0.2-0.6 0.5-0.7 0.4-0.3-0.2-0.6-0.5-0.6-0.8-0.1-0.4 0.1-0.8 0.2-1.1 1-0.2 1.2 0.5 1.5 1.1"/><path d="m69.7 87.8c0.6 0.1 1.1 0.2 1.6 0.3 0.1 0.8 0 1.4-0.6 1.9-0.7-0.5-1.2-1.1-1-2.3"/><path d="m66.3 89.9c-0.4-0.3-0.7-0.5-0.9-0.8-0.3-0.3-0.2-0.9 0.1-1.2 0.4-0.4 0.8-0.1 1.1 0.1 0.3 0.2 0.6 0.6 0.3 1-0.2 0.3-0.3 0.5-0.6 0.9"/><path d="m79.4 79.6v1.8c-1.1-0.1-1.6-0.4-1.5-1.2 0.1-0.6 0.2-0.7 1.5-0.6"/><path d="m62.3 94.1c-0.4-0.5-1.3-0.7-1-1.6 0.8-0.5 1-0.5 1.4 0 0.4 0.6 0.4 1-0.3 1.7"/><path d="m67.3 91c0.1-0.3 0.3-0.6 0.5-1 0.5 0.2 0.9 0.4 1.2 0.5 0.3 0.8-0.3 1-0.6 1.4-0.7-0.2-0.7-0.2-1.1-0.9"/><path d="m67.2 86.8c0.3-0.3 0.6-0.5 0.9-0.8 0.6 0 1 0.2 1 0.8 0 0.3-0.5 0.8-1 0.9-0.4 0.1-0.5 0-0.9-0.8"/><path d="m74.6 87.8c0.2 0.3 0.5 0.6 0.7 0.9 0.1 0.2 0.1 0.5 0 0.6-0.1 0.2-0.4 0.3-0.6 0.2-0.4-0.1-0.7-0.2-1.1-0.4 0.1-0.7 0.1-1.3 1-1.4"/><path d="m59.2 87.6c-0.3-0.9 0-1.5 0.7-2 0.6 0.4 0.7 0.9 0.3 2-0.1 0-0.3 0-0.4 0-0.2 0-0.3 0-0.6 0"/><path d="m64.6 86c0.2 0.6 0.4 1.1-0.1 1.5-0.1 0.1-0.6 0-0.8-0.2-0.4-0.2-0.5-0.7-0.3-1.1 0.2-0.6 0.7-0.3 1.2-0.3"/><path d="m77.5 86.2c0 0.8-0.1 1.3-0.6 1.8-0.3-0.4-0.6-0.7-0.9-1-0.3-0.3-0.1-0.7 0.3-0.8 0.4-0.1 0.8 0 1.2 0"/><path d="m69.3 94.8c-0.2 1-0.7 1.4-1.4 1-0.2-0.1-0.3-0.4-0.3-0.6 0-0.2 0.2-0.4 0.4-0.5 0.4-0.2 0.8-0.2 1.3 0.1"/><path d="m71.1 93.6c-0.9 0.4-0.9 0.4-1.6-0.8 0.2-0.7 0.7-0.5 1.2-0.5 0.1 0.4 0.2 0.8 0.3 1.3"/><path d="m71.8 91.7c-0.4-0.8-0.2-1.3 0.8-1.6 0.2 0.4 0.4 0.8 0.6 1.3-0.6 0.2-1 0.3-1.4 0.4"/><path d="m74.5 92.1c0.4 0.3 0.7 0.5 1 0.8-0.2 0.5-0.3 0.9-0.8 1.1-0.6-0.6-0.7-1-0.2-1.8"/><path d="m59.7 94.4c0.8 0 1.1 0.3 1.1 0.8 0 0.5-0.2 0.6-1 0.6 0-0.4-0.1-0.9-0.1-1.3"/><path d="m58 89.5c-0.6-0.1-1-0.3-1.1-0.8 0-0.3 0.2-0.4 0.9-0.5 0 0.4 0.1 0.8 0.1 1.3"/><path d="m45.2 62.4c-0.3 0.8-0.8 0.9-1.5 0.8-0.2-0.7-0.1-1.1 0.3-1.3 0.6-0.3 0.9 0.1 1.2 0.6"/><path d="m45.1 58.5c-0.5 0.2-0.9 0.4-1.4 0.7-0.1-0.5-0.2-0.8-0.4-1.3 0.6 0.2 1.2 0.4 1.8 0.6"/><path d="m44.6 35.7c-0.6-0.4-1.1-0.8-1-1.6 0.3-0.2 0.5-0.3 0.8-0.5 0.3 0.3 0.7 0.5 1 0.8 0.2 0.6-0.3 0.8-0.8 1.2"/><path d="m104.9 88.6c-0.1 0.7-0.6 1-1.1 1.1-0.5 0.1-1 0.1-1.5 0.1-0.7 0.4-1.5 0.5-2.4 0.4-1.3-0.2-2.7 0.1-4.1 0.2-0.3 0-0.5 0.1-0.8 0.1-0.8 0-1-0.2-1.4-1.1 0.4-0.8 1.2-0.8 1.9-1 0.8-0.2 1.5-0.3 2.4-0.3 1.1 0 2.2-0.3 3.3-0.3 1 0 2 0.1 2.9 0.2 0.3 0 0.5 0.4 0.8 0.6"/><path d="m100.2 86.5c-0.3 0.1-0.5 0.1-0.8 0.2-0.9 0.2-1.6-0.5-1.4-1.4 0.2-0.7 0.6-1.2 1.2-1.5 1.6 0.8 1.7 1.3 0.9 2.6"/><path d="m103.3 86.6c-0.6 0-1.2-0.5-1.2-1.1 0-0.7 0.7-1.6 1.4-1.7 0.4 0 1.2 0.9 1.3 1.6 0 0.5-0.7 1.2-1.4 1.2"/><path d="m95.4 86.5c-1.5 0.5-1.7 0.4-2.4-1.2 0.5-1 1-1.3 1.7-1 0.7 0.3 0.9 1 0.7 2.2"/><path d="m141.7 151.4c0 0 0 0.1 0 0.1 0 0 0 0 0 0 0 0 0.1 0 0.1 0 0 0-0.1-0.1-0.1-0.1zm-4.8 0c0 0 0 0-0.1 0 0 0.1 0 0.2 0 0.3 0 0 0 0 0.1 0 0-0.1 0-0.2 0-0.3zm5.9-0.4 0 0 0 0c0 0 0 0.1 0 0 0.1 0.1 0 0 0 0zm-2.5 7.7c-0.2-0.5-0.6-1-0.4-1.6 0-0.1 0-0.1 0-0.2-0.2-0.6 0-1.3 0-2 0-0.3 0-0.7 0-1 0-0.3-0.1-0.7-0.1-1.1-0.1 0-0.3 0-0.4-0.1-0.2 0.4-0.4 0.8-0.7 1.2-0.3 0.5-0.8 0.8-1.1 1.3-0.3 0.3-0.7 0.7-1 1-0.4 0.1-0.4-0.3-0.5-0.5-0.1-0.2-0.2-0.4 0-0.6 0.4-0.5 0.7-0.9 1.1-1.4 0.4-0.4 0.8-0.8 0.9-1.4l0 0 0 0c-0.8 0-1.5 0.1-2.3-0.1-0.5 0.4-1.1 0.2-1.7 0.2-0.4 0-0.8 0-1.3-0.1 0.1 0 0 0 0 0-0.2-0.2-0.4-0.3-0.3-0.6 0.1-0.3 0.5-0.7 0.7-0.7 0.5 0 1.1-0.3 1.6 0 0.2 0.1 0.5-0.1 0.7-0.1 0.2 0 0.3 0 0.3 0.2 0 0.1-0.1 0.1-0.1 0.2 0 0 0 0 0.1 0 0-0.1 0-0.1 0-0.2 0.9-0.1 1.8-0.2 2.6-0.3 0.2 0 0.4 0.1 0.6 0.1-0.8-0.7-1.5-1.3-2.2-2 0.1-0.3 0.2-0.6 0.3-0.9h0.8c0 0 0.1 0.1 0.1 0.3 0 0 0 0 0 0 0 0 0 0 0 0 0.4-0.1 0.5 0.2 0.7 0.4 0.2 0.2 0.3 0.4 0.5 0.6 0.1 0.1 0.2 0.1 0.3 0.1 0.3-0.4 0.2-0.8 0-1.2 0.1-0.4 0.5-0.8 0-1.2 0.2-0.3 0.3-0.7 0.2-1-0.1-0.2-0.1-0.5 0-0.7 0-0.6 0.3-0.9 0.9-1 0.4 0.3 0.7 0.8 0.8 1.4-0.1 0.2-0.2 0.5-0.1 0.9 0.1 0.4 0 0.8-0.1 1.2-0.1 0.4 0 0.7 0.2 1.1 0.4-0.4 0.8-0.8 1.1-1.2 0.3-0.3 0.4-0.7 0.9-0.9 0.2-0.1 0.2-0.4 0.4-0.5 0.2-0.2 0.4-0.3 0.6-0.5 0.7 0.5 0.7 0.9 0.2 1.4-0.3 0.3-0.5 0.8-0.8 1-0.5 0.4-0.6 1.1-1.2 1.5-0.4 0.3-0.7 0.8-0.9 1.5 0.2-0.2 0.4-0.4 0.5-0.5 0.7 0.1 1.4-0.3 2.2-0.1 0.1 0 0.3-0.2 0.6-0.2 0.1 0 0.2 0.2 0.3 0.3 0.1 0 0.4-0.2 0.4-0.2 0.1 0.4 0.3 0.7 0.5 1.2-0.5 0-1 0-1.4 0-0.2 0-0.3 0.1-0.5 0.2-0.1 0-0.2 0.1-0.3 0.1-0.6-0.1-1.1 0.2-1.6 0.2 0 0 0 0-0.1 0-0.1 0-0.2 0.1-0.2 0.1 0 0 0.1 0.1 0.1 0.1 0-0.1 0.1-0.2 0.1-0.2 0.1 0.1 0.2 0.2 0.3 0.3 0.3 0.4 0.6 0.8 1 1.4-0.2-0.1-0.3-0.1-0.4-0.1l0 0 0 0c0 0.3 0.1 0.6 0.5 0.7 0.2-0.1 0.3-0.2 0.5-0.3 0.1 0.1 0.2 0.2 0.3 0.3-0.4 0.3-0.4 0.7-0.1 1.2-0.3-0.2-0.6 0-0.6-0.4l0 0 0 0c-0.4-0.2-0.6-0.4-0.5-0.8-0.3 0-0.5-0.1-0.8-0.1-0.2-0.4-0.5-0.8-0.9-1 0 0.5 0.1 1 0.1 1.6 0 0.2-0.1 0.5-0.1 0.7-0.1 0.8 0 1.6 0 2.3 0 0.2-0.1 0.4-0.3 0.5-0.2 0.1-0.4 0.2-0.6 0.3h-0.3z"/><path d="m153.4 162.7c0 0 0 0-0.1 0 0 0.1 0.1 0.1 0.1 0.2 0 0 0 0 0 0 0-0.1-0.1-0.1-0.1-0.2zm-2.6 3.1c0 0 0 0 0.1 0 0.1-0.2 0.1-0.4 0.2-0.7 0.1-0.1 0.1-0.3 0.2-0.4 0.2-0.1 0.3-0.3 0.2-0.5-0.2 0-0.4 0-0.6 0 0 0.5 0 1 0 1.5zm1.3-1.1c0 0.4-0.1 0.7-0.3 0.9-0.2 0.4-0.4 0.8-0.5 1.2-0.1 0.4-0.2 0.8-0.3 1.2-0.1 0.2-0.1 0.5-0.1 0.7 0 0.3-0.1 0.5-0.1 0.8-0.1 0.3-0.1 0.7-0.2 1 0 0.2-0.1 0.3-0.3 0.4-0.3 0.2-0.5 0.1-0.5-0.3 0 0 0-0.1 0-0.1 0.2-0.3 0.1-0.7 0.1-1.1 0-0.3 0-0.6 0.1-0.9 0.1-0.2 0-0.5 0-0.7 0-0.5 0.1-0.9 0.1-1.4 0-0.2 0-0.4 0-0.7 0-0.5 0-1 0-1.5-0.2-0.1-0.4-0.2-0.7 0-0.1 0.1-0.3 0.2-0.4 0.3-0.3 0.2-0.8 0.3-1.1 0.3-0.2 0-0.4-0.1-0.6-0.2-0.2-0.1-0.4-0.1-0.6-0.2-0.2-0.1-0.4-0.3-0.6-0.5-0.1-0.1-0.1-0.3-0.1-0.5 0.3 0.1 0.4 0 0.4-0.2 0.3 0.3 0.7 0.5 0.9 0.7 0.2 0 0.5-0.1 0.8-0.1-0.3-0.4-0.6 0-0.8-0.2 0 0 0-0.1 0-0.2 0 0 0 0 0 0 0 0 0 0 0-0.1l0 0 0 0v0.1c-0.1 0-0.2-0.1-0.3-0.1 0.1-0.2 0.1-0.3 0.2-0.5 0.7 0.1 1.4 0 2.1 0.1 0.4-0.4 0.5-0.9 0.7-1.3 0.2-0.5 0.2-0.9 0.3-1.4 0-0.2 0.1-0.3 0.1-0.5 0-0.2 0-0.4 0-0.5 0-0.3-0.1-0.7 0-1 0.1-0.5 0.1-1 0-1.5 0.1-0.1 0.2-0.2 0.2-0.3 0-0.4 0-0.7 0.2-1.1 0.3-0.1 0.3-0.1 0.5 0-0.2 0.4-0.2 0.4 0.3 0.6-0.1 0-0.2 0.1-0.2 0.1 0.1 0.6 0.4 1.1 0.3 1.7 0 0.4 0 0.8-0.1 1.2 0 0.2-0.1 0.3-0.2 0.5 0.1 0.2 0.1 0.4 0 0.6 0 0.1 0 0.1 0 0.2 0 0.3 0 0.5-0.1 0.7-0.1 0.1 0 0.2 0 0.3 0 0.3-0.1 0.6-0.1 0.9 0 0.3 0 0.7 0 1 0.4 0 0.9-0.1 1.3-0.1 0.1 0 0.2-0.1 0.3-0.1 0.3-0.2 0.5-0.4 0.8-0.6 0.3-0.2 0.5-0.2 0.8-0.1 0.2 0.1 0.2 0.2 0.1 0.5-0.1 0.2-0.2 0.4-0.3 0.6-0.2 0.2-0.4 0.3-0.7 0.4-0.2 0.1-0.4 0.1-0.6 0.1 0 0 0 0 0-0.1-0.1 0.1-0.2 0.3-0.3 0.4-0.1 0.2-0.2 0.3-0.4 0.3l0 0 0 0z"/></g></g></svg>
