<svg width="414" height="79" viewBox="0 0 414 79" fill="none" xmlns="http://www.w3.org/2000/svg">
<path d="M414 0H0V79H414V0Z" fill="white"/>
<mask id="mask0_1253_1980" style="mask-type:luminance" maskUnits="userSpaceOnUse" x="36" y="26" width="97" height="9">
<path d="M133 26H36V35H133V26Z" fill="white"/>
</mask>
<g mask="url(#mask0_1253_1980)">
<path d="M56.019 26H56.277C58.6506 26 60.6109 28.025 60.6109 30.5C60.6109 32.975 58.6506 35 56.277 35C53.852 35 51.943 33.0312 51.943 30.5V30.2188H53.4397V30.5C53.4397 32.1875 54.6775 33.5375 56.277 33.5375C57.8765 33.5375 59.1152 32.1875 59.1152 30.5C59.1152 28.8125 57.8765 27.5187 56.277 27.4625H56.019V26ZM99.5147 26H99.7728C102.146 26 104.107 28.025 104.107 30.5C104.107 32.975 102.146 35 99.7728 35C97.3478 35 95.4388 33.0312 95.4388 30.5V30.2188H96.9345V30.5C96.9345 32.1875 98.1732 33.5375 99.7728 33.5375C101.372 33.5375 102.61 32.1875 102.61 30.5C102.61 28.8125 101.372 27.5187 99.7728 27.4625H99.5147V26ZM114.271 26H114.528C116.902 26 118.863 28.025 118.863 30.5C118.863 32.975 116.902 35 114.528 35C112.103 35 110.194 33.0312 110.194 30.5V30.2188H111.691V30.5C111.691 32.1875 112.93 33.5375 114.528 33.5375C116.128 33.5375 117.367 32.1875 117.367 30.5C117.367 28.8125 116.128 27.5187 114.528 27.4625H114.271V26ZM37.4968 26.225V34.8312H36.0515V26.225H37.4968ZM79.5473 26.225L81.4048 26.2812L84.3973 30.4438L87.3897 26.2812L88.9893 26.225V34.8312H87.544V28.6437L84.3973 33.0875L79.5473 26.225ZM44.9775 26.225L41.7784 29.6L45.4935 34.8312H43.6359L39.9218 29.5438L43.0171 26.2812H45.0298L44.9775 26.225ZM124.797 26.225L126.653 26.2812L131.194 32.6375V26.2812H132.639V34.8875H130.885L124.797 26.2812V26.225ZM70.9308 26.225C71.9105 26.225 72.6331 26.5062 73.1492 27.0687L73.2006 27.125C73.6138 27.6312 73.8195 28.1937 73.8195 28.8125C73.8195 29.5437 73.5614 30.1625 73.0978 30.6688C72.6331 31.1188 72.0657 31.4 71.2916 31.4562L73.6652 34.775H71.8077L68.4534 30.05H70.9822C71.343 30.05 71.7562 29.9938 72.0657 29.6562C72.2723 29.4312 72.3751 29.15 72.3751 28.8687C72.3751 28.6437 72.3237 28.4188 72.1685 28.1938L72.1171 28.1375C71.9619 27.9687 71.7563 27.8562 71.4982 27.7437C71.343 27.6875 71.1364 27.6875 70.9308 27.6875H67.2671L66.493 26.225H70.9308ZM124.797 32.75L126.241 34.775H124.797V32.75Z" fill="#0D1D3B"/>
<path d="M56.019 26H56.277C58.6506 26 60.6109 28.025 60.6109 30.5C60.6109 32.975 58.6506 35 56.277 35C53.852 35 51.943 33.0312 51.943 30.5V30.2188H53.4397V30.5C53.4397 32.1875 54.6775 33.5375 56.277 33.5375C57.8765 33.5375 59.1152 32.1875 59.1152 30.5C59.1152 28.8125 57.8765 27.5187 56.277 27.4625H56.019V26ZM99.5147 26H99.7728C102.146 26 104.107 28.025 104.107 30.5C104.107 32.975 102.146 35 99.7728 35C97.3478 35 95.4388 33.0312 95.4388 30.5V30.2188H96.9345V30.5C96.9345 32.1875 98.1732 33.5375 99.7728 33.5375C101.372 33.5375 102.61 32.1875 102.61 30.5C102.61 28.8125 101.372 27.5187 99.7728 27.4625H99.5147V26ZM114.271 26H114.528C116.902 26 118.863 28.025 118.863 30.5C118.863 32.975 116.902 35 114.528 35C112.103 35 110.194 33.0312 110.194 30.5V30.2188H111.691V30.5C111.691 32.1875 112.93 33.5375 114.528 33.5375C116.128 33.5375 117.367 32.1875 117.367 30.5C117.367 28.8125 116.128 27.5187 114.528 27.4625H114.271V26ZM37.4968 26.225V34.8312H36.0515V26.225H37.4968ZM79.5473 26.225L81.4048 26.2812L84.3973 30.4438L87.3897 26.2812L88.9893 26.225V34.8312H87.544V28.6437L84.3973 33.0875L79.5473 26.225ZM44.9775 26.225L41.7784 29.6L45.4935 34.8312H43.6359L39.9218 29.5438L43.0171 26.2812H45.0298L44.9775 26.225ZM124.797 26.225L126.653 26.2812L131.194 32.6375V26.2812H132.639V34.8875H130.885L124.797 26.2812V26.225ZM70.9308 26.225C71.9105 26.225 72.6331 26.5062 73.1492 27.0687L73.2006 27.125C73.6138 27.6312 73.8195 28.1937 73.8195 28.8125C73.8195 29.5437 73.5614 30.1625 73.0978 30.6688C72.6331 31.1188 72.0657 31.4 71.2916 31.4562L73.6652 34.775H71.8077L68.4534 30.05H70.9822C71.343 30.05 71.7562 29.9938 72.0657 29.6562C72.2723 29.4312 72.3751 29.15 72.3751 28.8687C72.3751 28.6437 72.3237 28.4188 72.1685 28.1938L72.1171 28.1375C71.9619 27.9687 71.7563 27.8562 71.4982 27.7437C71.343 27.6875 71.1364 27.6875 70.9308 27.6875H67.2671L66.493 26.225H70.9308ZM124.797 32.75L126.241 34.775H124.797V32.75Z" fill="#0D1D3B"/>
</g>
<g opacity="0.8">
<path d="M93.74 58V51H94.58V54.17L97.5 51H98.56L95.96 53.79L98.6 58H97.58L95.36 54.44L94.58 55.27V58H93.74ZM101.438 58.12C100.972 58.12 100.552 58.0133 100.178 57.8C99.8049 57.5867 99.5083 57.2867 99.2883 56.9C99.0749 56.5067 98.9683 56.0467 98.9683 55.52C98.9683 54.9933 99.0783 54.5367 99.2983 54.15C99.5183 53.7567 99.8149 53.4533 100.188 53.24C100.568 53.0267 100.992 52.92 101.458 52.92C101.925 52.92 102.345 53.0267 102.718 53.24C103.092 53.4533 103.385 53.7567 103.598 54.15C103.818 54.5367 103.928 54.9933 103.928 55.52C103.928 56.0467 103.818 56.5067 103.598 56.9C103.378 57.2867 103.078 57.5867 102.698 57.8C102.325 58.0133 101.905 58.12 101.438 58.12ZM101.438 57.4C101.725 57.4 101.992 57.33 102.238 57.19C102.485 57.05 102.685 56.84 102.838 56.56C102.992 56.28 103.068 55.9333 103.068 55.52C103.068 55.1067 102.992 54.76 102.838 54.48C102.692 54.2 102.495 53.99 102.248 53.85C102.002 53.71 101.738 53.64 101.458 53.64C101.172 53.64 100.905 53.71 100.658 53.85C100.412 53.99 100.212 54.2 100.058 54.48C99.9049 54.76 99.8283 55.1067 99.8283 55.52C99.8283 55.9333 99.9049 56.28 100.058 56.56C100.212 56.84 100.408 57.05 100.648 57.19C100.895 57.33 101.158 57.4 101.438 57.4ZM105.096 58V53.04H105.856L105.926 53.99C106.08 53.6633 106.313 53.4033 106.626 53.21C106.94 53.0167 107.326 52.92 107.786 52.92V53.8H107.556C107.263 53.8 106.993 53.8533 106.746 53.96C106.5 54.06 106.303 54.2333 106.156 54.48C106.01 54.7267 105.936 55.0667 105.936 55.5V58H105.096ZM108.729 58V53.04H109.489L109.549 53.76C109.709 53.4933 109.922 53.2867 110.189 53.14C110.456 52.9933 110.756 52.92 111.089 52.92C111.482 52.92 111.819 53 112.099 53.16C112.386 53.32 112.606 53.5633 112.759 53.89C112.932 53.59 113.169 53.3533 113.469 53.18C113.776 53.0067 114.106 52.92 114.459 52.92C115.052 52.92 115.526 53.1 115.879 53.46C116.232 53.8133 116.409 54.36 116.409 55.1V58H115.579V55.19C115.579 54.6767 115.476 54.29 115.269 54.03C115.062 53.77 114.766 53.64 114.379 53.64C113.979 53.64 113.646 53.7967 113.379 54.11C113.119 54.4167 112.989 54.8567 112.989 55.43V58H112.149V55.19C112.149 54.6767 112.046 54.29 111.839 54.03C111.632 53.77 111.336 53.64 110.949 53.64C110.556 53.64 110.226 53.7967 109.959 54.11C109.699 54.4167 109.569 54.8567 109.569 55.43V58H108.729ZM119.934 58.12C119.468 58.12 119.048 58.0133 118.674 57.8C118.301 57.5867 118.004 57.2867 117.784 56.9C117.571 56.5067 117.464 56.0467 117.464 55.52C117.464 54.9933 117.574 54.5367 117.794 54.15C118.014 53.7567 118.311 53.4533 118.684 53.24C119.064 53.0267 119.488 52.92 119.954 52.92C120.421 52.92 120.841 53.0267 121.214 53.24C121.588 53.4533 121.881 53.7567 122.094 54.15C122.314 54.5367 122.424 54.9933 122.424 55.52C122.424 56.0467 122.314 56.5067 122.094 56.9C121.874 57.2867 121.574 57.5867 121.194 57.8C120.821 58.0133 120.401 58.12 119.934 58.12ZM119.934 57.4C120.221 57.4 120.488 57.33 120.734 57.19C120.981 57.05 121.181 56.84 121.334 56.56C121.488 56.28 121.564 55.9333 121.564 55.52C121.564 55.1067 121.488 54.76 121.334 54.48C121.188 54.2 120.991 53.99 120.744 53.85C120.498 53.71 120.234 53.64 119.954 53.64C119.668 53.64 119.401 53.71 119.154 53.85C118.908 53.99 118.708 54.2 118.554 54.48C118.401 54.76 118.324 55.1067 118.324 55.52C118.324 55.9333 118.401 56.28 118.554 56.56C118.708 56.84 118.904 57.05 119.144 57.19C119.391 57.33 119.654 57.4 119.934 57.4ZM125.852 58.12C125.386 58.12 124.966 58.0133 124.592 57.8C124.219 57.5867 123.922 57.2867 123.702 56.9C123.489 56.5067 123.382 56.0467 123.382 55.52C123.382 54.9933 123.492 54.5367 123.712 54.15C123.932 53.7567 124.229 53.4533 124.602 53.24C124.982 53.0267 125.406 52.92 125.872 52.92C126.339 52.92 126.759 53.0267 127.132 53.24C127.506 53.4533 127.799 53.7567 128.012 54.15C128.232 54.5367 128.342 54.9933 128.342 55.52C128.342 56.0467 128.232 56.5067 128.012 56.9C127.792 57.2867 127.492 57.5867 127.112 57.8C126.739 58.0133 126.319 58.12 125.852 58.12ZM125.852 57.4C126.139 57.4 126.406 57.33 126.652 57.19C126.899 57.05 127.099 56.84 127.252 56.56C127.406 56.28 127.482 55.9333 127.482 55.52C127.482 55.1067 127.406 54.76 127.252 54.48C127.106 54.2 126.909 53.99 126.662 53.85C126.416 53.71 126.152 53.64 125.872 53.64C125.586 53.64 125.319 53.71 125.072 53.85C124.826 53.99 124.626 54.2 124.472 54.48C124.319 54.76 124.242 55.1067 124.242 55.52C124.242 55.9333 124.319 56.28 124.472 56.56C124.626 56.84 124.822 57.05 125.062 57.19C125.309 57.33 125.572 57.4 125.852 57.4ZM129.51 58V53.04H130.27L130.32 53.93C130.48 53.6167 130.71 53.37 131.01 53.19C131.31 53.01 131.65 52.92 132.03 52.92C132.617 52.92 133.084 53.1 133.43 53.46C133.784 53.8133 133.96 54.36 133.96 55.1V58H133.12V55.19C133.12 54.1567 132.694 53.64 131.84 53.64C131.414 53.64 131.057 53.7967 130.77 54.11C130.49 54.4167 130.35 54.8567 130.35 55.43V58H129.51ZM138.389 51.94C138.223 51.94 138.083 51.8867 137.969 51.78C137.863 51.6667 137.809 51.5267 137.809 51.36C137.809 51.2 137.863 51.0667 137.969 50.96C138.083 50.8533 138.223 50.8 138.389 50.8C138.549 50.8 138.686 50.8533 138.799 50.96C138.913 51.0667 138.969 51.2 138.969 51.36C138.969 51.5267 138.913 51.6667 138.799 51.78C138.686 51.8867 138.549 51.94 138.389 51.94ZM137.969 58V53.04H138.809V58H137.969ZM142.172 58.12C141.579 58.12 141.085 57.97 140.692 57.67C140.299 57.37 140.069 56.9633 140.002 56.45H140.862C140.915 56.71 141.052 56.9367 141.272 57.13C141.499 57.3167 141.802 57.41 142.182 57.41C142.535 57.41 142.795 57.3367 142.962 57.19C143.129 57.0367 143.212 56.8567 143.212 56.65C143.212 56.35 143.102 56.15 142.882 56.05C142.669 55.95 142.365 55.86 141.972 55.78C141.705 55.7267 141.439 55.65 141.172 55.55C140.905 55.45 140.682 55.31 140.502 55.13C140.322 54.9433 140.232 54.7 140.232 54.4C140.232 53.9667 140.392 53.6133 140.712 53.34C141.039 53.06 141.479 52.92 142.032 52.92C142.559 52.92 142.989 53.0533 143.322 53.32C143.662 53.58 143.859 53.9533 143.912 54.44H143.082C143.049 54.1867 142.939 53.99 142.752 53.85C142.572 53.7033 142.329 53.63 142.022 53.63C141.722 53.63 141.489 53.6933 141.322 53.82C141.162 53.9467 141.082 54.1133 141.082 54.32C141.082 54.52 141.185 54.6767 141.392 54.79C141.605 54.9033 141.892 55 142.252 55.08C142.559 55.1467 142.849 55.23 143.122 55.33C143.402 55.4233 143.629 55.5667 143.802 55.76C143.982 55.9467 144.072 56.22 144.072 56.58C144.079 57.0267 143.909 57.3967 143.562 57.69C143.222 57.9767 142.759 58.12 142.172 58.12ZM147.919 58V53.04H148.679L148.729 53.93C148.889 53.6167 149.119 53.37 149.419 53.19C149.719 53.01 150.059 52.92 150.439 52.92C151.025 52.92 151.492 53.1 151.839 53.46C152.192 53.8133 152.369 54.36 152.369 55.1V58H151.529V55.19C151.529 54.1567 151.102 53.64 150.249 53.64C149.822 53.64 149.465 53.7967 149.179 54.11C148.899 54.4167 148.759 54.8567 148.759 55.43V58H147.919ZM155.901 58.12C155.435 58.12 155.015 58.0133 154.641 57.8C154.268 57.5867 153.971 57.2867 153.751 56.9C153.538 56.5067 153.431 56.0467 153.431 55.52C153.431 54.9933 153.541 54.5367 153.761 54.15C153.981 53.7567 154.278 53.4533 154.651 53.24C155.031 53.0267 155.455 52.92 155.921 52.92C156.388 52.92 156.808 53.0267 157.181 53.24C157.555 53.4533 157.848 53.7567 158.061 54.15C158.281 54.5367 158.391 54.9933 158.391 55.52C158.391 56.0467 158.281 56.5067 158.061 56.9C157.841 57.2867 157.541 57.5867 157.161 57.8C156.788 58.0133 156.368 58.12 155.901 58.12ZM155.901 57.4C156.188 57.4 156.455 57.33 156.701 57.19C156.948 57.05 157.148 56.84 157.301 56.56C157.455 56.28 157.531 55.9333 157.531 55.52C157.531 55.1067 157.455 54.76 157.301 54.48C157.155 54.2 156.958 53.99 156.711 53.85C156.465 53.71 156.201 53.64 155.921 53.64C155.635 53.64 155.368 53.71 155.121 53.85C154.875 53.99 154.675 54.2 154.521 54.48C154.368 54.76 154.291 55.1067 154.291 55.52C154.291 55.9333 154.368 56.28 154.521 56.56C154.675 56.84 154.871 57.05 155.111 57.19C155.358 57.33 155.621 57.4 155.901 57.4ZM160.374 58L158.924 53.04H159.764L160.814 56.93L161.974 53.04H162.924L164.094 56.93L165.134 53.04H165.984L164.534 58H163.674L162.454 53.91L161.234 58H160.374ZM169.559 60.2V53.04H170.319L170.399 53.86C170.559 53.62 170.786 53.4033 171.079 53.21C171.379 53.0167 171.759 52.92 172.219 52.92C172.712 52.92 173.142 53.0333 173.509 53.26C173.876 53.4867 174.159 53.7967 174.359 54.19C174.566 54.5833 174.669 55.03 174.669 55.53C174.669 56.03 174.566 56.4767 174.359 56.87C174.159 57.2567 173.872 57.5633 173.499 57.79C173.132 58.01 172.702 58.12 172.209 58.12C171.802 58.12 171.439 58.0367 171.119 57.87C170.806 57.7033 170.566 57.47 170.399 57.17V60.2H169.559ZM172.119 57.39C172.452 57.39 172.746 57.3133 172.999 57.16C173.252 57 173.452 56.78 173.599 56.5C173.746 56.22 173.819 55.8933 173.819 55.52C173.819 55.1467 173.746 54.82 173.599 54.54C173.452 54.26 173.252 54.0433 172.999 53.89C172.746 53.73 172.452 53.65 172.119 53.65C171.786 53.65 171.492 53.73 171.239 53.89C170.986 54.0433 170.786 54.26 170.639 54.54C170.492 54.82 170.419 55.1467 170.419 55.52C170.419 55.8933 170.492 56.22 170.639 56.5C170.786 56.78 170.986 57 171.239 57.16C171.492 57.3133 171.786 57.39 172.119 57.39ZM177.488 58.12C177.075 58.12 176.732 58.05 176.458 57.91C176.185 57.77 175.982 57.5833 175.848 57.35C175.715 57.1167 175.648 56.8633 175.648 56.59C175.648 56.0833 175.842 55.6933 176.228 55.42C176.615 55.1467 177.142 55.01 177.808 55.01H179.148V54.95C179.148 54.5167 179.035 54.19 178.808 53.97C178.582 53.7433 178.278 53.63 177.898 53.63C177.572 53.63 177.288 53.7133 177.048 53.88C176.815 54.04 176.668 54.2767 176.608 54.59H175.748C175.782 54.23 175.902 53.9267 176.108 53.68C176.322 53.4333 176.585 53.2467 176.898 53.12C177.212 52.9867 177.545 52.92 177.898 52.92C178.592 52.92 179.112 53.1067 179.458 53.48C179.812 53.8467 179.988 54.3367 179.988 54.95V58H179.238L179.188 57.11C179.048 57.39 178.842 57.63 178.568 57.83C178.302 58.0233 177.942 58.12 177.488 58.12ZM177.618 57.41C177.938 57.41 178.212 57.3267 178.438 57.16C178.672 56.9933 178.848 56.7767 178.968 56.51C179.088 56.2433 179.148 55.9633 179.148 55.67V55.66H177.878C177.385 55.66 177.035 55.7467 176.828 55.92C176.628 56.0867 176.528 56.2967 176.528 56.55C176.528 56.81 176.622 57.02 176.808 57.18C177.002 57.3333 177.272 57.41 177.618 57.41ZM181.249 58V53.04H182.009L182.079 53.99C182.232 53.6633 182.465 53.4033 182.779 53.21C183.092 53.0167 183.479 52.92 183.939 52.92V53.8H183.709C183.415 53.8 183.145 53.8533 182.899 53.96C182.652 54.06 182.455 54.2333 182.309 54.48C182.162 54.7267 182.089 55.0667 182.089 55.5V58H181.249ZM186.841 58C186.388 58 186.031 57.89 185.771 57.67C185.511 57.45 185.381 57.0533 185.381 56.48V53.75H184.521V53.04H185.381L185.491 51.85H186.221V53.04H187.681V53.75H186.221V56.48C186.221 56.7933 186.285 57.0067 186.411 57.12C186.538 57.2267 186.761 57.28 187.081 57.28H187.601V58H186.841ZM193.655 58.12C193.188 58.12 192.768 58.0133 192.395 57.8C192.022 57.5867 191.725 57.2867 191.505 56.9C191.292 56.5067 191.185 56.0467 191.185 55.52C191.185 54.9933 191.295 54.5367 191.515 54.15C191.735 53.7567 192.032 53.4533 192.405 53.24C192.785 53.0267 193.208 52.92 193.675 52.92C194.142 52.92 194.562 53.0267 194.935 53.24C195.308 53.4533 195.602 53.7567 195.815 54.15C196.035 54.5367 196.145 54.9933 196.145 55.52C196.145 56.0467 196.035 56.5067 195.815 56.9C195.595 57.2867 195.295 57.5867 194.915 57.8C194.542 58.0133 194.122 58.12 193.655 58.12ZM193.655 57.4C193.942 57.4 194.208 57.33 194.455 57.19C194.702 57.05 194.902 56.84 195.055 56.56C195.208 56.28 195.285 55.9333 195.285 55.52C195.285 55.1067 195.208 54.76 195.055 54.48C194.908 54.2 194.712 53.99 194.465 53.85C194.218 53.71 193.955 53.64 193.675 53.64C193.388 53.64 193.122 53.71 192.875 53.85C192.628 53.99 192.428 54.2 192.275 54.48C192.122 54.76 192.045 55.1067 192.045 55.52C192.045 55.9333 192.122 56.28 192.275 56.56C192.428 56.84 192.625 57.05 192.865 57.19C193.112 57.33 193.375 57.4 193.655 57.4ZM197.583 58V53.75H196.833V53.04H197.583V52.18C197.583 51.7 197.703 51.35 197.943 51.13C198.183 50.91 198.533 50.8 198.993 50.8H199.493V51.52H199.123C198.87 51.52 198.69 51.5733 198.583 51.68C198.476 51.78 198.423 51.9533 198.423 52.2V53.04H199.643V53.75H198.423V58H197.583ZM205.25 58C204.796 58 204.44 57.89 204.18 57.67C203.92 57.45 203.79 57.0533 203.79 56.48V53.75H202.93V53.04H203.79L203.9 51.85H204.63V53.04H206.09V53.75H204.63V56.48C204.63 56.7933 204.693 57.0067 204.82 57.12C204.946 57.2267 205.17 57.28 205.49 57.28H206.01V58H205.25ZM207.157 58V50.8H207.997V53.89C208.163 53.5833 208.4 53.3467 208.707 53.18C209.013 53.0067 209.347 52.92 209.707 52.92C210.28 52.92 210.74 53.1 211.087 53.46C211.433 53.8133 211.607 54.36 211.607 55.1V58H210.777V55.19C210.777 54.1567 210.36 53.64 209.527 53.64C209.093 53.64 208.73 53.7967 208.437 54.11C208.143 54.4167 207.997 54.8567 207.997 55.43V58H207.157ZM215.109 58.12C214.636 58.12 214.216 58.0133 213.849 57.8C213.483 57.58 213.193 57.2767 212.979 56.89C212.773 56.5033 212.669 56.0467 212.669 55.52C212.669 55 212.773 54.5467 212.979 54.16C213.186 53.7667 213.473 53.4633 213.839 53.25C214.213 53.03 214.643 52.92 215.129 52.92C215.609 52.92 216.023 53.03 216.369 53.25C216.723 53.4633 216.993 53.7467 217.179 54.1C217.366 54.4533 217.459 54.8333 217.459 55.24C217.459 55.3133 217.456 55.3867 217.449 55.46C217.449 55.5333 217.449 55.6167 217.449 55.71H213.499C213.519 56.09 213.606 56.4067 213.759 56.66C213.919 56.9067 214.116 57.0933 214.349 57.22C214.589 57.3467 214.843 57.41 215.109 57.41C215.456 57.41 215.746 57.33 215.979 57.17C216.213 57.01 216.383 56.7933 216.489 56.52H217.319C217.186 56.98 216.929 57.3633 216.549 57.67C216.176 57.97 215.696 58.12 215.109 58.12ZM215.109 53.63C214.709 53.63 214.353 53.7533 214.039 54C213.733 54.24 213.556 54.5933 213.509 55.06H216.629C216.609 54.6133 216.456 54.2633 216.169 54.01C215.883 53.7567 215.529 53.63 215.109 53.63ZM272.134 58V53.75H271.384V53.04H272.134V52.18C272.134 51.7 272.254 51.35 272.494 51.13C272.734 50.91 273.084 50.8 273.544 50.8H274.044V51.52H273.674C273.42 51.52 273.24 51.5733 273.134 51.68C273.027 51.78 272.974 51.9533 272.974 52.2V53.04H274.194V53.75H272.974V58H272.134ZM276.649 58.12C276.235 58.12 275.892 58.05 275.619 57.91C275.345 57.77 275.142 57.5833 275.009 57.35C274.875 57.1167 274.809 56.8633 274.809 56.59C274.809 56.0833 275.002 55.6933 275.389 55.42C275.775 55.1467 276.302 55.01 276.969 55.01H278.309V54.95C278.309 54.5167 278.195 54.19 277.969 53.97C277.742 53.7433 277.439 53.63 277.059 53.63C276.732 53.63 276.449 53.7133 276.209 53.88C275.975 54.04 275.829 54.2767 275.769 54.59H274.909C274.942 54.23 275.062 53.9267 275.269 53.68C275.482 53.4333 275.745 53.2467 276.059 53.12C276.372 52.9867 276.705 52.92 277.059 52.92C277.752 52.92 278.272 53.1067 278.619 53.48C278.972 53.8467 279.149 54.3367 279.149 54.95V58H278.399L278.349 57.11C278.209 57.39 278.002 57.63 277.729 57.83C277.462 58.0233 277.102 58.12 276.649 58.12ZM276.779 57.41C277.099 57.41 277.372 57.3267 277.599 57.16C277.832 56.9933 278.009 56.7767 278.129 56.51C278.249 56.2433 278.309 55.9633 278.309 55.67V55.66H277.039C276.545 55.66 276.195 55.7467 275.989 55.92C275.789 56.0867 275.689 56.2967 275.689 56.55C275.689 56.81 275.782 57.02 275.969 57.18C276.162 57.3333 276.432 57.41 276.779 57.41ZM280.409 58V53.04H281.169L281.229 53.76C281.389 53.4933 281.602 53.2867 281.869 53.14C282.135 52.9933 282.435 52.92 282.769 52.92C283.162 52.92 283.499 53 283.779 53.16C284.065 53.32 284.285 53.5633 284.439 53.89C284.612 53.59 284.849 53.3533 285.149 53.18C285.455 53.0067 285.785 52.92 286.139 52.92C286.732 52.92 287.205 53.1 287.559 53.46C287.912 53.8133 288.089 54.36 288.089 55.1V58H287.259V55.19C287.259 54.6767 287.155 54.29 286.949 54.03C286.742 53.77 286.445 53.64 286.059 53.64C285.659 53.64 285.325 53.7967 285.059 54.11C284.799 54.4167 284.669 54.8567 284.669 55.43V58H283.829V55.19C283.829 54.6767 283.725 54.29 283.519 54.03C283.312 53.77 283.015 53.64 282.629 53.64C282.235 53.64 281.905 53.7967 281.639 54.11C281.379 54.4167 281.249 54.8567 281.249 55.43V58H280.409ZM289.864 51.94C289.697 51.94 289.557 51.8867 289.444 51.78C289.337 51.6667 289.284 51.5267 289.284 51.36C289.284 51.2 289.337 51.0667 289.444 50.96C289.557 50.8533 289.697 50.8 289.864 50.8C290.024 50.8 290.161 50.8533 290.274 50.96C290.387 51.0667 290.444 51.2 290.444 51.36C290.444 51.5267 290.387 51.6667 290.274 51.78C290.161 51.8867 290.024 51.94 289.864 51.94ZM289.444 58V53.04H290.284V58H289.444ZM291.747 58V50.8H292.587V58H291.747ZM294.503 60.2L295.733 57.52H295.443L293.473 53.04H294.383L296.023 56.9L297.763 53.04H298.633L295.383 60.2H294.503Z" fill="#0D1D3B"/>
<path d="M223.499 58.12C222.986 58.12 222.539 58.0267 222.159 57.84C221.779 57.6533 221.486 57.3933 221.279 57.06C221.073 56.7267 220.969 56.34 220.969 55.9H221.849C221.849 56.1733 221.913 56.4267 222.039 56.66C222.166 56.8867 222.349 57.07 222.589 57.21C222.836 57.3433 223.139 57.41 223.499 57.41C223.973 57.41 224.339 57.2967 224.599 57.07C224.859 56.8433 224.989 56.56 224.989 56.22C224.989 55.94 224.929 55.7167 224.809 55.55C224.689 55.3767 224.526 55.2367 224.319 55.13C224.119 55.0233 223.886 54.93 223.619 54.85C223.359 54.77 223.086 54.68 222.799 54.58C222.259 54.3933 221.859 54.1633 221.599 53.89C221.339 53.61 221.209 53.2467 221.209 52.8C221.203 52.4267 221.289 52.0967 221.469 51.81C221.649 51.5167 221.903 51.29 222.229 51.13C222.563 50.9633 222.956 50.88 223.409 50.88C223.856 50.88 224.243 50.9633 224.569 51.13C224.903 51.2967 225.159 51.5267 225.339 51.82C225.526 52.1133 225.623 52.4467 225.629 52.82H224.749C224.749 52.6267 224.699 52.4367 224.599 52.25C224.499 52.0567 224.346 51.9 224.139 51.78C223.939 51.66 223.686 51.6 223.379 51.6C222.999 51.5933 222.686 51.69 222.439 51.89C222.199 52.09 222.079 52.3667 222.079 52.72C222.079 53.02 222.163 53.25 222.329 53.41C222.503 53.57 222.743 53.7033 223.049 53.81C223.356 53.91 223.709 54.0267 224.109 54.16C224.443 54.28 224.743 54.42 225.009 54.58C225.276 54.74 225.483 54.9467 225.629 55.2C225.783 55.4533 225.859 55.7767 225.859 56.17C225.859 56.5033 225.773 56.82 225.599 57.12C225.426 57.4133 225.163 57.6533 224.809 57.84C224.463 58.0267 224.026 58.12 223.499 58.12ZM228.651 58.12C228.237 58.12 227.894 58.05 227.621 57.91C227.347 57.77 227.144 57.5833 227.011 57.35C226.877 57.1167 226.811 56.8633 226.811 56.59C226.811 56.0833 227.004 55.6933 227.391 55.42C227.777 55.1467 228.304 55.01 228.971 55.01H230.311V54.95C230.311 54.5167 230.197 54.19 229.971 53.97C229.744 53.7433 229.441 53.63 229.061 53.63C228.734 53.63 228.451 53.7133 228.211 53.88C227.977 54.04 227.831 54.2767 227.771 54.59H226.911C226.944 54.23 227.064 53.9267 227.271 53.68C227.484 53.4333 227.747 53.2467 228.061 53.12C228.374 52.9867 228.707 52.92 229.061 52.92C229.754 52.92 230.274 53.1067 230.621 53.48C230.974 53.8467 231.151 54.3367 231.151 54.95V58H230.401L230.351 57.11C230.211 57.39 230.004 57.63 229.731 57.83C229.464 58.0233 229.104 58.12 228.651 58.12ZM228.781 57.41C229.101 57.41 229.374 57.3267 229.601 57.16C229.834 56.9933 230.011 56.7767 230.131 56.51C230.251 56.2433 230.311 55.9633 230.311 55.67V55.66H229.041C228.547 55.66 228.197 55.7467 227.991 55.92C227.791 56.0867 227.691 56.2967 227.691 56.55C227.691 56.81 227.784 57.02 227.971 57.18C228.164 57.3333 228.434 57.41 228.781 57.41ZM232.411 58V50.8H233.251V58H232.411ZM236.858 58.12C236.384 58.12 235.964 58.0133 235.598 57.8C235.231 57.58 234.941 57.2767 234.728 56.89C234.521 56.5033 234.418 56.0467 234.418 55.52C234.418 55 234.521 54.5467 234.728 54.16C234.934 53.7667 235.221 53.4633 235.588 53.25C235.961 53.03 236.391 52.92 236.877 52.92C237.358 52.92 237.771 53.03 238.118 53.25C238.471 53.4633 238.741 53.7467 238.928 54.1C239.114 54.4533 239.208 54.8333 239.208 55.24C239.208 55.3133 239.204 55.3867 239.198 55.46C239.198 55.5333 239.198 55.6167 239.198 55.71H235.248C235.268 56.09 235.354 56.4067 235.508 56.66C235.668 56.9067 235.864 57.0933 236.098 57.22C236.338 57.3467 236.591 57.41 236.858 57.41C237.204 57.41 237.494 57.33 237.728 57.17C237.961 57.01 238.131 56.7933 238.238 56.52H239.068C238.934 56.98 238.678 57.3633 238.298 57.67C237.924 57.97 237.444 58.12 236.858 58.12ZM236.858 53.63C236.458 53.63 236.101 53.7533 235.788 54C235.481 54.24 235.304 54.5933 235.257 55.06H238.378C238.358 54.6133 238.204 54.2633 237.918 54.01C237.631 53.7567 237.278 53.63 236.858 53.63ZM242.221 58.12C241.628 58.12 241.134 57.97 240.741 57.67C240.348 57.37 240.118 56.9633 240.051 56.45H240.911C240.964 56.71 241.101 56.9367 241.321 57.13C241.548 57.3167 241.851 57.41 242.231 57.41C242.584 57.41 242.844 57.3367 243.011 57.19C243.178 57.0367 243.261 56.8567 243.261 56.65C243.261 56.35 243.151 56.15 242.931 56.05C242.718 55.95 242.414 55.86 242.021 55.78C241.754 55.7267 241.488 55.65 241.221 55.55C240.954 55.45 240.731 55.31 240.551 55.13C240.371 54.9433 240.281 54.7 240.281 54.4C240.281 53.9667 240.441 53.6133 240.761 53.34C241.088 53.06 241.528 52.92 242.081 52.92C242.608 52.92 243.038 53.0533 243.371 53.32C243.711 53.58 243.908 53.9533 243.961 54.44H243.131C243.098 54.1867 242.988 53.99 242.801 53.85C242.621 53.7033 242.378 53.63 242.071 53.63C241.771 53.63 241.538 53.6933 241.371 53.82C241.211 53.9467 241.131 54.1133 241.131 54.32C241.131 54.52 241.234 54.6767 241.441 54.79C241.654 54.9033 241.941 55 242.301 55.08C242.608 55.1467 242.898 55.23 243.171 55.33C243.451 55.4233 243.678 55.5667 243.851 55.76C244.031 55.9467 244.121 56.22 244.121 56.58C244.128 57.0267 243.958 57.3967 243.611 57.69C243.271 57.9767 242.808 58.12 242.221 58.12ZM245.591 58V53.75H244.841V53.04H245.591V52.18C245.591 51.7 245.711 51.35 245.951 51.13C246.191 50.91 246.541 50.8 247.001 50.8H247.501V51.52H247.131C246.878 51.52 246.698 51.5733 246.591 51.68C246.484 51.78 246.431 51.9533 246.431 52.2V53.04H247.651V53.75H246.431V58H245.591ZM250.716 58.12C250.249 58.12 249.829 58.0133 249.456 57.8C249.082 57.5867 248.786 57.2867 248.566 56.9C248.352 56.5067 248.246 56.0467 248.246 55.52C248.246 54.9933 248.356 54.5367 248.576 54.15C248.796 53.7567 249.092 53.4533 249.466 53.24C249.846 53.0267 250.269 52.92 250.736 52.92C251.202 52.92 251.622 53.0267 251.996 53.24C252.369 53.4533 252.662 53.7567 252.876 54.15C253.096 54.5367 253.206 54.9933 253.206 55.52C253.206 56.0467 253.096 56.5067 252.876 56.9C252.656 57.2867 252.356 57.5867 251.976 57.8C251.602 58.0133 251.182 58.12 250.716 58.12ZM250.716 57.4C251.002 57.4 251.269 57.33 251.516 57.19C251.762 57.05 251.962 56.84 252.116 56.56C252.269 56.28 252.346 55.9333 252.346 55.52C252.346 55.1067 252.269 54.76 252.116 54.48C251.969 54.2 251.772 53.99 251.526 53.85C251.279 53.71 251.016 53.64 250.736 53.64C250.449 53.64 250.182 53.71 249.936 53.85C249.689 53.99 249.489 54.2 249.336 54.48C249.182 54.76 249.106 55.1067 249.106 55.52C249.106 55.9333 249.182 56.28 249.336 56.56C249.489 56.84 249.686 57.05 249.926 57.19C250.172 57.33 250.436 57.4 250.716 57.4ZM254.374 58V53.04H255.134L255.204 53.99C255.357 53.6633 255.59 53.4033 255.904 53.21C256.217 53.0167 256.604 52.92 257.064 52.92V53.8H256.834C256.54 53.8 256.27 53.8533 256.024 53.96C255.777 54.06 255.58 54.2333 255.434 54.48C255.287 54.7267 255.214 55.0667 255.214 55.5V58H254.374ZM260.101 58.12C259.628 58.12 259.201 58.0133 258.821 57.8C258.448 57.58 258.151 57.2767 257.931 56.89C257.718 56.4967 257.611 56.04 257.611 55.52C257.611 55 257.718 54.5467 257.931 54.16C258.151 53.7667 258.448 53.4633 258.821 53.25C259.201 53.03 259.628 52.92 260.101 52.92C260.688 52.92 261.181 53.0733 261.581 53.38C261.988 53.6867 262.244 54.0967 262.351 54.61H261.491C261.424 54.3033 261.261 54.0667 261.001 53.9C260.741 53.7267 260.438 53.64 260.091 53.64C259.811 53.64 259.548 53.71 259.301 53.85C259.054 53.99 258.854 54.2 258.701 54.48C258.548 54.76 258.471 55.1067 258.471 55.52C258.471 55.9333 258.548 56.28 258.701 56.56C258.854 56.84 259.054 57.0533 259.301 57.2C259.548 57.34 259.811 57.41 260.091 57.41C260.438 57.41 260.741 57.3267 261.001 57.16C261.261 56.9867 261.424 56.7433 261.491 56.43H262.351C262.251 56.93 261.998 57.3367 261.591 57.65C261.184 57.9633 260.688 58.12 260.101 58.12ZM265.754 58.12C265.281 58.12 264.861 58.0133 264.494 57.8C264.127 57.58 263.837 57.2767 263.624 56.89C263.417 56.5033 263.314 56.0467 263.314 55.52C263.314 55 263.417 54.5467 263.624 54.16C263.831 53.7667 264.117 53.4633 264.484 53.25C264.857 53.03 265.287 52.92 265.774 52.92C266.254 52.92 266.667 53.03 267.014 53.25C267.367 53.4633 267.637 53.7467 267.824 54.1C268.011 54.4533 268.104 54.8333 268.104 55.24C268.104 55.3133 268.101 55.3867 268.094 55.46C268.094 55.5333 268.094 55.6167 268.094 55.71H264.144C264.164 56.09 264.251 56.4067 264.404 56.66C264.564 56.9067 264.761 57.0933 264.994 57.22C265.234 57.3467 265.487 57.41 265.754 57.41C266.101 57.41 266.391 57.33 266.624 57.17C266.857 57.01 267.027 56.7933 267.134 56.52H267.964C267.831 56.98 267.574 57.3633 267.194 57.67C266.821 57.97 266.341 58.12 265.754 58.12ZM265.754 53.63C265.354 53.63 264.997 53.7533 264.684 54C264.377 54.24 264.201 54.5933 264.154 55.06H267.274C267.254 54.6133 267.101 54.2633 266.814 54.01C266.527 53.7567 266.174 53.63 265.754 53.63Z" fill="#179CD7"/>
</g>
<path d="M267.064 33.082L270.494 29.862L267.064 26.628H268.562L271.978 29.862L268.562 33.082H267.064Z" fill="#0D1D3B"/>
<path d="M267.064 33.082L270.494 29.862L267.064 26.628H268.562L271.978 29.862L268.562 33.082H267.064Z" fill="#0D1D3B"/>
<path d="M144.064 33.082L147.494 29.862L144.064 26.628H145.562L148.978 29.862L145.562 33.082H144.064Z" fill="#0D1D3B"/>
<path d="M144.064 33.082L147.494 29.862L144.064 26.628H145.562L148.978 29.862L145.562 33.082H144.064Z" fill="#0D1D3B"/>
<mask id="mask1_1253_1980" style="mask-type:luminance" maskUnits="userSpaceOnUse" x="159" y="20" width="97" height="20">
<path d="M255.523 20H159V40H255.523V20Z" fill="white"/>
</mask>
<g mask="url(#mask1_1253_1980)">
<mask id="mask2_1253_1980" style="mask-type:luminance" maskUnits="userSpaceOnUse" x="159" y="20" width="21" height="20">
<path d="M179.188 20.4883H159.492V40.0005H179.188V20.4883Z" fill="white"/>
</mask>
<g mask="url(#mask2_1253_1980)">
<path d="M173.19 25.2166C174.275 25.2166 175.154 24.3437 175.154 23.267C175.154 22.1902 174.275 21.3174 173.19 21.3174C172.105 21.3174 171.226 22.1902 171.226 23.267C171.226 24.3437 172.105 25.2166 173.19 25.2166Z" fill="#0D1D3B"/>
<path d="M173.19 25.2166C174.275 25.2166 175.154 24.3437 175.154 23.267C175.154 22.1902 174.275 21.3174 173.19 21.3174C172.105 21.3174 171.226 22.1902 171.226 23.267C171.226 24.3437 172.105 25.2166 173.19 25.2166Z" fill="#0D1D3B"/>
<path d="M173.64 36.9631C175.011 36.9631 176.122 35.86 176.122 34.4992C176.122 33.1383 175.011 32.0352 173.64 32.0352C172.269 32.0352 171.157 33.1383 171.157 34.4992C171.157 35.86 172.269 36.9631 173.64 36.9631Z" fill="#0D1D3B"/>
<path d="M173.64 36.9631C175.011 36.9631 176.122 35.86 176.122 34.4992C176.122 33.1383 175.011 32.0352 173.64 32.0352C172.269 32.0352 171.157 33.1383 171.157 34.4992C171.157 35.86 172.269 36.9631 173.64 36.9631Z" fill="#0D1D3B"/>
<path d="M167.669 33.6088C169.266 33.6088 170.56 32.3237 170.56 30.7385C170.56 29.1532 169.266 27.8682 167.669 27.8682C166.072 27.8682 164.777 29.1532 164.777 30.7385C164.777 32.3237 166.072 33.6088 167.669 33.6088Z" fill="#0D1D3B"/>
<path d="M167.669 33.6088C169.266 33.6088 170.56 32.3237 170.56 30.7385C170.56 29.1532 169.266 27.8682 167.669 27.8682C166.072 27.8682 164.777 29.1532 164.777 30.7385C164.777 32.3237 166.072 33.6088 167.669 33.6088Z" fill="#0D1D3B"/>
<g opacity="0.8">
<path d="M168.365 35.9643C168.92 35.9643 169.371 35.5171 169.371 34.9655C169.371 34.414 168.92 33.9668 168.365 33.9668C167.809 33.9668 167.358 34.414 167.358 34.9655C167.358 35.5171 167.809 35.9643 168.365 35.9643Z" fill="#0D1D3B"/>
<path d="M168.365 35.9643C168.92 35.9643 169.371 35.5171 169.371 34.9655C169.371 34.414 168.92 33.9668 168.365 33.9668C167.809 33.9668 167.358 34.414 167.358 34.9655C167.358 35.5171 167.809 35.9643 168.365 35.9643Z" fill="#0D1D3B"/>
<path d="M172.141 39.5255C172.587 39.5255 172.948 39.1672 172.948 38.7251C172.948 38.2831 172.587 37.9248 172.141 37.9248C171.696 37.9248 171.335 38.2831 171.335 38.7251C171.335 39.1672 171.696 39.5255 172.141 39.5255Z" fill="#0D1D3B"/>
<path d="M172.141 39.5255C172.587 39.5255 172.948 39.1672 172.948 38.7251C172.948 38.2831 172.587 37.9248 172.141 37.9248C171.696 37.9248 171.335 38.2831 171.335 38.7251C171.335 39.1672 171.696 39.5255 172.141 39.5255Z" fill="#0D1D3B"/>
<path d="M176.691 25.1292C176.902 25.1292 177.072 24.9602 177.072 24.7516C177.072 24.5431 176.902 24.374 176.691 24.374C176.481 24.374 176.311 24.5431 176.311 24.7516C176.311 24.9602 176.481 25.1292 176.691 25.1292Z" fill="#0D1D3B"/>
<path d="M176.691 25.1292C176.902 25.1292 177.072 24.9602 177.072 24.7516C177.072 24.5431 176.902 24.374 176.691 24.374C176.481 24.374 176.311 24.5431 176.311 24.7516C176.311 24.9602 176.481 25.1292 176.691 25.1292Z" fill="#0D1D3B"/>
<path d="M161.363 32.5783C162.396 32.5783 163.233 31.7471 163.233 30.7218C163.233 29.6964 162.396 28.8652 161.363 28.8652C160.33 28.8652 159.492 29.6964 159.492 30.7218C159.492 31.7471 160.33 32.5783 161.363 32.5783Z" fill="#0D1D3B"/>
<path d="M161.363 32.5783C162.396 32.5783 163.233 31.7471 163.233 30.7218C163.233 29.6964 162.396 28.8652 161.363 28.8652C160.33 28.8652 159.492 29.6964 159.492 30.7218C159.492 31.7471 160.33 32.5783 161.363 32.5783Z" fill="#0D1D3B"/>
<path d="M161.15 34.7894C161.679 34.7894 162.108 34.3637 162.108 33.8386C162.108 33.3134 161.679 32.8877 161.15 32.8877C160.621 32.8877 160.192 33.3134 160.192 33.8386C160.192 34.3637 160.621 34.7894 161.15 34.7894Z" fill="#0D1D3B"/>
<path d="M161.15 34.7894C161.679 34.7894 162.108 34.3637 162.108 33.8386C162.108 33.3134 161.679 32.8877 161.15 32.8877C160.621 32.8877 160.192 33.3134 160.192 33.8386C160.192 34.3637 160.621 34.7894 161.15 34.7894Z" fill="#0D1D3B"/>
<path d="M170.525 28.4037C171.322 28.4037 171.969 27.7618 171.969 26.9699C171.969 26.1781 171.322 25.5361 170.525 25.5361C169.727 25.5361 169.08 26.1781 169.08 26.9699C169.08 27.7618 169.727 28.4037 170.525 28.4037Z" fill="#0D1D3B"/>
<path d="M170.525 28.4037C171.322 28.4037 171.969 27.7618 171.969 26.9699C171.969 26.1781 171.322 25.5361 170.525 25.5361C169.727 25.5361 169.08 26.1781 169.08 26.9699C169.08 27.7618 169.727 28.4037 170.525 28.4037Z" fill="#0D1D3B"/>
<path d="M167.164 27.3734C167.536 27.3734 167.837 27.0745 167.837 26.7057C167.837 26.337 167.536 26.0381 167.164 26.0381C166.793 26.0381 166.492 26.337 166.492 26.7057C166.492 27.0745 166.793 27.3734 167.164 27.3734Z" fill="#0D1D3B"/>
<path d="M167.164 27.3734C167.536 27.3734 167.837 27.0745 167.837 26.7057C167.837 26.337 167.536 26.0381 167.164 26.0381C166.793 26.0381 166.492 26.337 166.492 26.7057C166.492 27.0745 166.793 27.3734 167.164 27.3734Z" fill="#0D1D3B"/>
<path d="M170.73 25.2083C171.013 25.2083 171.243 24.9805 171.243 24.6994C171.243 24.4183 171.013 24.1904 170.73 24.1904C170.447 24.1904 170.217 24.4183 170.217 24.6994C170.217 24.9805 170.447 25.2083 170.73 25.2083Z" fill="#0D1D3B"/>
<path d="M170.73 25.2083C171.013 25.2083 171.243 24.9805 171.243 24.6994C171.243 24.4183 171.013 24.1904 170.73 24.1904C170.447 24.1904 170.217 24.4183 170.217 24.6994C170.217 24.9805 170.447 25.2083 170.73 25.2083Z" fill="#0D1D3B"/>
<path d="M174.457 31.7072C174.976 31.7072 175.396 31.29 175.396 30.7755C175.396 30.2609 174.976 29.8438 174.457 29.8438C173.939 29.8438 173.519 30.2609 173.519 30.7755C173.519 31.29 173.939 31.7072 174.457 31.7072Z" fill="#0D1D3B"/>
<path d="M174.457 31.7072C174.976 31.7072 175.396 31.29 175.396 30.7755C175.396 30.2609 174.976 29.8438 174.457 29.8438C173.939 29.8438 173.519 30.2609 173.519 30.7755C173.519 31.29 173.939 31.7072 174.457 31.7072Z" fill="#0D1D3B"/>
<path d="M172.274 30.7281C172.925 30.7281 173.452 30.2044 173.452 29.5584C173.452 28.9124 172.925 28.3887 172.274 28.3887C171.623 28.3887 171.095 28.9124 171.095 29.5584C171.095 30.2044 171.623 30.7281 172.274 30.7281Z" fill="#0D1D3B"/>
<path d="M172.274 30.7281C172.925 30.7281 173.452 30.2044 173.452 29.5584C173.452 28.9124 172.925 28.3887 172.274 28.3887C171.623 28.3887 171.095 28.9124 171.095 29.5584C171.095 30.2044 171.623 30.7281 172.274 30.7281Z" fill="#0D1D3B"/>
<path d="M170.305 36.963C170.751 36.963 171.112 36.6047 171.112 36.1626C171.112 35.7206 170.751 35.3623 170.305 35.3623C169.86 35.3623 169.499 35.7206 169.499 36.1626C169.499 36.6047 169.86 36.963 170.305 36.963Z" fill="#0D1D3B"/>
<path d="M170.305 36.963C170.751 36.963 171.112 36.6047 171.112 36.1626C171.112 35.7206 170.751 35.3623 170.305 35.3623C169.86 35.3623 169.499 35.7206 169.499 36.1626C169.499 36.6047 169.86 36.963 170.305 36.963Z" fill="#0D1D3B"/>
<path d="M160.883 28.6158C161.445 28.6158 161.901 28.1632 161.901 27.6048C161.901 27.0464 161.445 26.5938 160.883 26.5938C160.32 26.5938 159.864 27.0464 159.864 27.6048C159.864 28.1632 160.32 28.6158 160.883 28.6158Z" fill="#0D1D3B"/>
<path d="M160.883 28.6158C161.445 28.6158 161.901 28.1632 161.901 27.6048C161.901 27.0464 161.445 26.5938 160.883 26.5938C160.32 26.5938 159.864 27.0464 159.864 27.6048C159.864 28.1632 160.32 28.6158 160.883 28.6158Z" fill="#0D1D3B"/>
<path d="M161.922 36.0651C162.25 36.0651 162.516 35.8011 162.516 35.4754C162.516 35.1497 162.25 34.8857 161.922 34.8857C161.594 34.8857 161.328 35.1497 161.328 35.4754C161.328 35.8011 161.594 36.0651 161.922 36.0651Z" fill="#0D1D3B"/>
<path d="M161.922 36.0651C162.25 36.0651 162.516 35.8011 162.516 35.4754C162.516 35.1497 162.25 34.8857 161.922 34.8857C161.594 34.8857 161.328 35.1497 161.328 35.4754C161.328 35.8011 161.594 36.0651 161.922 36.0651Z" fill="#0D1D3B"/>
<path d="M171.742 32.2086C172.07 32.2086 172.336 31.9446 172.336 31.619C172.336 31.2932 172.07 31.0293 171.742 31.0293C171.413 31.0293 171.147 31.2932 171.147 31.619C171.147 31.9446 171.413 32.2086 171.742 32.2086Z" fill="#0D1D3B"/>
<path d="M171.742 32.2086C172.07 32.2086 172.336 31.9446 172.336 31.619C172.336 31.2932 172.07 31.0293 171.742 31.0293C171.413 31.0293 171.147 31.2932 171.147 31.619C171.147 31.9446 171.413 32.2086 171.742 32.2086Z" fill="#0D1D3B"/>
<path d="M174.776 26.0807C175.104 26.0807 175.37 25.8167 175.37 25.491C175.37 25.1654 175.104 24.9014 174.776 24.9014C174.448 24.9014 174.182 25.1654 174.182 25.491C174.182 25.8167 174.448 26.0807 174.776 26.0807Z" fill="#0D1D3B"/>
<path d="M174.776 26.0807C175.104 26.0807 175.37 25.8167 175.37 25.491C175.37 25.1654 175.104 24.9014 174.776 24.9014C174.448 24.9014 174.182 25.1654 174.182 25.491C174.182 25.8167 174.448 26.0807 174.776 26.0807Z" fill="#0D1D3B"/>
<path d="M177.091 35.5794C177.501 35.5794 177.834 35.2492 177.834 34.8419C177.834 34.4347 177.501 34.1045 177.091 34.1045C176.681 34.1045 176.348 34.4347 176.348 34.8419C176.348 35.2492 176.681 35.5794 177.091 35.5794Z" fill="#0D1D3B"/>
<path d="M177.091 35.5794C177.501 35.5794 177.834 35.2492 177.834 34.8419C177.834 34.4347 177.501 34.1045 177.091 34.1045C176.681 34.1045 176.348 34.4347 176.348 34.8419C176.348 35.2492 176.681 35.5794 177.091 35.5794Z" fill="#0D1D3B"/>
<path d="M175.787 37.29C176.002 37.29 176.177 37.1166 176.177 36.9028C176.177 36.689 176.002 36.5156 175.787 36.5156C175.572 36.5156 175.397 36.689 175.397 36.9028C175.397 37.1166 175.572 37.29 175.787 37.29Z" fill="#0D1D3B"/>
<path d="M175.787 37.29C176.002 37.29 176.177 37.1166 176.177 36.9028C176.177 36.689 176.002 36.5156 175.787 36.5156C175.572 36.5156 175.397 36.689 175.397 36.9028C175.397 37.1166 175.572 37.29 175.787 37.29Z" fill="#0D1D3B"/>
<path d="M176.43 36.4657C176.645 36.4657 176.82 36.2924 176.82 36.0786C176.82 35.8647 176.645 35.6914 176.43 35.6914C176.214 35.6914 176.04 35.8647 176.04 36.0786C176.04 36.2924 176.214 36.4657 176.43 36.4657Z" fill="#0D1D3B"/>
<path d="M176.43 36.4657C176.645 36.4657 176.82 36.2924 176.82 36.0786C176.82 35.8647 176.645 35.6914 176.43 35.6914C176.214 35.6914 176.04 35.8647 176.04 36.0786C176.04 36.2924 176.214 36.4657 176.43 36.4657Z" fill="#0D1D3B"/>
<path d="M164.29 28.3791C165.25 28.3791 166.028 27.6067 166.028 26.6539C166.028 25.7011 165.25 24.9287 164.29 24.9287C163.33 24.9287 162.552 25.7011 162.552 26.6539C162.552 27.6067 163.33 28.3791 164.29 28.3791Z" fill="#0D1D3B"/>
<path d="M164.29 28.3791C165.25 28.3791 166.028 27.6067 166.028 26.6539C166.028 25.7011 165.25 24.9287 164.29 24.9287C163.33 24.9287 162.552 25.7011 162.552 26.6539C162.552 27.6067 163.33 28.3791 164.29 28.3791Z" fill="#0D1D3B"/>
<path d="M177.366 33.6889C178.171 33.6889 178.824 33.0409 178.824 32.2415C178.824 31.442 178.171 30.7939 177.366 30.7939C176.56 30.7939 175.907 31.442 175.907 32.2415C175.907 33.0409 176.56 33.6889 177.366 33.6889Z" fill="#0D1D3B"/>
<path d="M177.366 33.6889C178.171 33.6889 178.824 33.0409 178.824 32.2415C178.824 31.442 178.171 30.7939 177.366 30.7939C176.56 30.7939 175.907 31.442 175.907 32.2415C175.907 33.0409 176.56 33.6889 177.366 33.6889Z" fill="#0D1D3B"/>
<path d="M165.328 22.7011C165.701 22.7011 166.004 22.401 166.004 22.0307C166.004 21.6605 165.701 21.3604 165.328 21.3604C164.955 21.3604 164.653 21.6605 164.653 22.0307C164.653 22.401 164.955 22.7011 165.328 22.7011Z" fill="#0D1D3B"/>
<path d="M165.328 22.7011C165.701 22.7011 166.004 22.401 166.004 22.0307C166.004 21.6605 165.701 21.3604 165.328 21.3604C164.955 21.3604 164.653 21.6605 164.653 22.0307C164.653 22.401 164.955 22.7011 165.328 22.7011Z" fill="#0D1D3B"/>
<path d="M173.98 27.5282C174.353 27.5282 174.655 27.2281 174.655 26.8579C174.655 26.4876 174.353 26.1875 173.98 26.1875C173.607 26.1875 173.305 26.4876 173.305 26.8579C173.305 27.2281 173.607 27.5282 173.98 27.5282Z" fill="#0D1D3B"/>
<path d="M173.98 27.5282C174.353 27.5282 174.655 27.2281 174.655 26.8579C174.655 26.4876 174.353 26.1875 173.98 26.1875C173.607 26.1875 173.305 26.4876 173.305 26.8579C173.305 27.2281 173.607 27.5282 173.98 27.5282Z" fill="#0D1D3B"/>
<path d="M168.388 26.2412C168.761 26.2412 169.064 25.941 169.064 25.5708C169.064 25.2005 168.761 24.9004 168.388 24.9004C168.015 24.9004 167.713 25.2005 167.713 25.5708C167.713 25.941 168.015 26.2412 168.388 26.2412Z" fill="#0D1D3B"/>
<path d="M168.388 26.2412C168.761 26.2412 169.064 25.941 169.064 25.5708C169.064 25.2005 168.761 24.9004 168.388 24.9004C168.015 24.9004 167.713 25.2005 167.713 25.5708C167.713 25.941 168.015 26.2412 168.388 26.2412Z" fill="#0D1D3B"/>
<path d="M162.8 23.9793C163.047 23.9793 163.247 23.7809 163.247 23.536C163.247 23.2912 163.047 23.0928 162.8 23.0928C162.553 23.0928 162.354 23.2912 162.354 23.536C162.354 23.7809 162.553 23.9793 162.8 23.9793Z" fill="#0D1D3B"/>
<path d="M162.8 23.9793C163.047 23.9793 163.247 23.7809 163.247 23.536C163.247 23.2912 163.047 23.0928 162.8 23.0928C162.553 23.0928 162.354 23.2912 162.354 23.536C162.354 23.7809 162.553 23.9793 162.8 23.9793Z" fill="#0D1D3B"/>
<path d="M163.81 23.0819C164.057 23.0819 164.257 22.8834 164.257 22.6386C164.257 22.3938 164.057 22.1953 163.81 22.1953C163.564 22.1953 163.364 22.3938 163.364 22.6386C163.364 22.8834 163.564 23.0819 163.81 23.0819Z" fill="#0D1D3B"/>
<path d="M163.81 23.0819C164.057 23.0819 164.257 22.8834 164.257 22.6386C164.257 22.3938 164.057 22.1953 163.81 22.1953C163.564 22.1953 163.364 22.3938 163.364 22.6386C163.364 22.8834 163.564 23.0819 163.81 23.0819Z" fill="#0D1D3B"/>
<path d="M174.355 28.5985C174.601 28.5985 174.801 28.4 174.801 28.1552C174.801 27.9104 174.601 27.7119 174.355 27.7119C174.108 27.7119 173.908 27.9104 173.908 28.1552C173.908 28.4 174.108 28.5985 174.355 28.5985Z" fill="#0D1D3B"/>
<path d="M174.355 28.5985C174.601 28.5985 174.801 28.4 174.801 28.1552C174.801 27.9104 174.601 27.7119 174.355 27.7119C174.108 27.7119 173.908 27.9104 173.908 28.1552C173.908 28.4 174.108 28.5985 174.355 28.5985Z" fill="#0D1D3B"/>
<path d="M165.007 38.588C166.186 38.588 167.142 37.6393 167.142 36.4688C167.142 35.2984 166.186 34.3496 165.007 34.3496C163.828 34.3496 162.872 35.2984 162.872 36.4688C162.872 37.6393 163.828 38.588 165.007 38.588Z" fill="#0D1D3B"/>
<path d="M165.007 38.588C166.186 38.588 167.142 37.6393 167.142 36.4688C167.142 35.2984 166.186 34.3496 165.007 34.3496C163.828 34.3496 162.872 35.2984 162.872 36.4688C162.872 37.6393 163.828 38.588 165.007 38.588Z" fill="#0D1D3B"/>
<path d="M170.146 34.8879C170.479 34.8879 170.749 34.6196 170.749 34.2887C170.749 33.9577 170.479 33.6895 170.146 33.6895C169.812 33.6895 169.542 33.9577 169.542 34.2887C169.542 34.6196 169.812 34.8879 170.146 34.8879Z" fill="#0D1D3B"/>
<path d="M170.146 34.8879C170.479 34.8879 170.749 34.6196 170.749 34.2887C170.749 33.9577 170.479 33.6895 170.146 33.6895C169.812 33.6895 169.542 33.9577 169.542 34.2887C169.542 34.6196 169.812 34.8879 170.146 34.8879Z" fill="#0D1D3B"/>
<path d="M168.224 24.5088C169.342 24.5088 170.249 23.609 170.249 22.499C170.249 21.3891 169.342 20.4893 168.224 20.4893C167.106 20.4893 166.199 21.3891 166.199 22.499C166.199 23.609 167.106 24.5088 168.224 24.5088Z" fill="#0D1D3B"/>
<path d="M168.224 24.5088C169.342 24.5088 170.249 23.609 170.249 22.499C170.249 21.3891 169.342 20.4893 168.224 20.4893C167.106 20.4893 166.199 21.3891 166.199 22.499C166.199 23.609 167.106 24.5088 168.224 24.5088Z" fill="#0D1D3B"/>
<path d="M176.843 29.3195C177.938 29.3195 178.825 28.4387 178.825 27.3521C178.825 26.2656 177.938 25.3848 176.843 25.3848C175.748 25.3848 174.861 26.2656 174.861 27.3521C174.861 28.4387 175.748 29.3195 176.843 29.3195Z" fill="#0D1D3B"/>
<path d="M176.843 29.3195C177.938 29.3195 178.825 28.4387 178.825 27.3521C178.825 26.2656 177.938 25.3848 176.843 25.3848C175.748 25.3848 174.861 26.2656 174.861 27.3521C174.861 28.4387 175.748 29.3195 176.843 29.3195Z" fill="#0D1D3B"/>
<path d="M168.625 40.0004C169.53 40.0004 170.264 39.2721 170.264 38.3738C170.264 37.4754 169.53 36.7471 168.625 36.7471C167.72 36.7471 166.986 37.4754 166.986 38.3738C166.986 39.2721 167.72 40.0004 168.625 40.0004Z" fill="#0D1D3B"/>
<path d="M168.625 40.0004C169.53 40.0004 170.264 39.2721 170.264 38.3738C170.264 37.4754 169.53 36.7471 168.625 36.7471C167.72 36.7471 166.986 37.4754 166.986 38.3738C166.986 39.2721 167.72 40.0004 168.625 40.0004Z" fill="#0D1D3B"/>
<path d="M161.997 24.7738C162.214 24.7738 162.391 24.5986 162.391 24.3825C162.391 24.1664 162.214 23.9912 161.997 23.9912C161.779 23.9912 161.603 24.1664 161.603 24.3825C161.603 24.5986 161.779 24.7738 161.997 24.7738Z" fill="#0D1D3B"/>
<path d="M161.997 24.7738C162.214 24.7738 162.391 24.5986 162.391 24.3825C162.391 24.1664 162.214 23.9912 161.997 23.9912C161.779 23.9912 161.603 24.1664 161.603 24.3825C161.603 24.5986 161.779 24.7738 161.997 24.7738Z" fill="#0D1D3B"/>
<path d="M166.366 39.5141C166.615 39.5141 166.816 39.3144 166.816 39.0681C166.816 38.8217 166.615 38.6221 166.366 38.6221C166.118 38.6221 165.917 38.8217 165.917 39.0681C165.917 39.3144 166.118 39.5141 166.366 39.5141Z" fill="#0D1D3B"/>
<path d="M166.366 39.5141C166.615 39.5141 166.816 39.3144 166.816 39.0681C166.816 38.8217 166.615 38.6221 166.366 38.6221C166.118 38.6221 165.917 38.8217 165.917 39.0681C165.917 39.3144 166.118 39.5141 166.366 39.5141Z" fill="#0D1D3B"/>
<path d="M163.898 30.275C164.207 30.275 164.457 30.0263 164.457 29.7195C164.457 29.4127 164.207 29.1641 163.898 29.1641C163.588 29.1641 163.338 29.4127 163.338 29.7195C163.338 30.0263 163.588 30.275 163.898 30.275Z" fill="#0D1D3B"/>
<path d="M163.898 30.275C164.207 30.275 164.457 30.0263 164.457 29.7195C164.457 29.4127 164.207 29.1641 163.898 29.1641C163.588 29.1641 163.338 29.4127 163.338 29.7195C163.338 30.0263 163.588 30.275 163.898 30.275Z" fill="#0D1D3B"/>
<path d="M170.649 39.9201C170.871 39.9201 171.051 39.7412 171.051 39.5206C171.051 39.2999 170.871 39.1211 170.649 39.1211C170.426 39.1211 170.246 39.2999 170.246 39.5206C170.246 39.7412 170.426 39.9201 170.649 39.9201Z" fill="#0D1D3B"/>
<path d="M170.649 39.9201C170.871 39.9201 171.051 39.7412 171.051 39.5206C171.051 39.2999 170.871 39.1211 170.649 39.1211C170.426 39.1211 170.246 39.2999 170.246 39.5206C170.246 39.7412 170.426 39.9201 170.649 39.9201Z" fill="#0D1D3B"/>
<path d="M163.918 31.5969C164.14 31.5969 164.321 31.418 164.321 31.1974C164.321 30.9767 164.14 30.7979 163.918 30.7979C163.696 30.7979 163.516 30.9767 163.516 31.1974C163.516 31.418 163.696 31.5969 163.918 31.5969Z" fill="#0D1D3B"/>
<path d="M163.918 31.5969C164.14 31.5969 164.321 31.418 164.321 31.1974C164.321 30.9767 164.14 30.7979 163.918 30.7979C163.696 30.7979 163.516 30.9767 163.516 31.1974C163.516 31.418 163.696 31.5969 163.918 31.5969Z" fill="#0D1D3B"/>
<path d="M164.927 24.1663C165.28 24.1663 165.565 23.8827 165.565 23.5329C165.565 23.183 165.28 22.8994 164.927 22.8994C164.575 22.8994 164.289 23.183 164.289 23.5329C164.289 23.8827 164.575 24.1663 164.927 24.1663Z" fill="#0D1D3B"/>
<path d="M164.927 24.1663C165.28 24.1663 165.565 23.8827 165.565 23.5329C165.565 23.183 165.28 22.8994 164.927 22.8994C164.575 22.8994 164.289 23.183 164.289 23.5329C164.289 23.8827 164.575 24.1663 164.927 24.1663Z" fill="#0D1D3B"/>
<path d="M170.369 21.2337C170.552 21.2337 170.701 21.086 170.701 20.9039C170.701 20.7218 170.552 20.5742 170.369 20.5742C170.185 20.5742 170.037 20.7218 170.037 20.9039C170.037 21.086 170.185 21.2337 170.369 21.2337Z" fill="#0D1D3B"/>
<path d="M170.369 21.2337C170.552 21.2337 170.701 21.086 170.701 20.9039C170.701 20.7218 170.552 20.5742 170.369 20.5742C170.185 20.5742 170.037 20.7218 170.037 20.9039C170.037 21.086 170.185 21.2337 170.369 21.2337Z" fill="#0D1D3B"/>
<path d="M159.964 29.1263C160.147 29.1263 160.296 28.9787 160.296 28.7966C160.296 28.6145 160.147 28.4668 159.964 28.4668C159.78 28.4668 159.631 28.6145 159.631 28.7966C159.631 28.9787 159.78 29.1263 159.964 29.1263Z" fill="#0D1D3B"/>
<path d="M159.964 29.1263C160.147 29.1263 160.296 28.9787 160.296 28.7966C160.296 28.6145 160.147 28.4668 159.964 28.4668C159.78 28.4668 159.631 28.6145 159.631 28.7966C159.631 28.9787 159.78 29.1263 159.964 29.1263Z" fill="#0D1D3B"/>
<path d="M171.226 21.3215C171.41 21.3215 171.558 21.1739 171.558 20.9918C171.558 20.8097 171.41 20.6621 171.226 20.6621C171.043 20.6621 170.894 20.8097 170.894 20.9918C170.894 21.1739 171.043 21.3215 171.226 21.3215Z" fill="#0D1D3B"/>
<path d="M171.226 21.3215C171.41 21.3215 171.558 21.1739 171.558 20.9918C171.558 20.8097 171.41 20.6621 171.226 20.6621C171.043 20.6621 170.894 20.8097 170.894 20.9918C170.894 21.1739 171.043 21.3215 171.226 21.3215Z" fill="#0D1D3B"/>
<path d="M163.998 34.1386C164.621 34.1386 165.126 33.6376 165.126 33.0195C165.126 32.4014 164.621 31.9004 163.998 31.9004C163.375 31.9004 162.871 32.4014 162.871 33.0195C162.871 33.6376 163.375 34.1386 163.998 34.1386Z" fill="#0D1D3B"/>
<path d="M163.998 34.1386C164.621 34.1386 165.126 33.6376 165.126 33.0195C165.126 32.4014 164.621 31.9004 163.998 31.9004C163.375 31.9004 162.871 32.4014 162.871 33.0195C162.871 33.6376 163.375 34.1386 163.998 34.1386Z" fill="#0D1D3B"/>
<path d="M178.395 30.6622C178.833 30.6622 179.188 30.31 179.188 29.8756C179.188 29.4411 178.833 29.0889 178.395 29.0889C177.957 29.0889 177.603 29.4411 177.603 29.8756C177.603 30.31 177.957 30.6622 178.395 30.6622Z" fill="#0D1D3B"/>
<path d="M178.395 30.6622C178.833 30.6622 179.188 30.31 179.188 29.8756C179.188 29.4411 178.833 29.0889 178.395 29.0889C177.957 29.0889 177.603 29.4411 177.603 29.8756C177.603 30.31 177.957 30.6622 178.395 30.6622Z" fill="#0D1D3B"/>
<path d="M175.841 24.4199C176.156 24.4199 176.411 24.1663 176.411 23.8535C176.411 23.5407 176.156 23.2871 175.841 23.2871C175.526 23.2871 175.27 23.5407 175.27 23.8535C175.27 24.1663 175.526 24.4199 175.841 24.4199Z" fill="#0D1D3B"/>
<path d="M175.841 24.4199C176.156 24.4199 176.411 24.1663 176.411 23.8535C176.411 23.5407 176.156 23.2871 175.841 23.2871C175.526 23.2871 175.27 23.5407 175.27 23.8535C175.27 24.1663 175.526 24.4199 175.841 24.4199Z" fill="#0D1D3B"/>
</g>
</g>
<path fill-rule="evenodd" clip-rule="evenodd" d="M197.817 30.1499C199.006 30.1499 199.762 29.5336 199.762 28.5816V28.5549C199.762 27.5502 199.033 27.0007 197.803 27.0007H195.386V30.1499H197.817ZM193.726 26.3309C193.726 25.8617 194.09 25.5 194.563 25.5H197.939C199.128 25.5 200.06 25.8482 200.667 26.4379C201.167 26.9472 201.45 27.6438 201.45 28.4613V28.488C201.45 29.9888 200.573 30.9006 199.303 31.289L201.113 33.5537C201.275 33.755 201.383 33.9287 201.383 34.1834C201.383 34.6386 200.991 34.9475 200.586 34.9475C200.208 34.9475 199.965 34.773 199.776 34.5183L197.479 31.6105H195.386V34.13C195.386 34.5852 195.022 34.9475 194.563 34.9475C194.09 34.9475 193.726 34.5852 193.726 34.13V26.3309Z" fill="#0D1D3B"/>
<path fill-rule="evenodd" clip-rule="evenodd" d="M197.817 30.1499C199.006 30.1499 199.762 29.5336 199.762 28.5816V28.5549C199.762 27.5502 199.033 27.0007 197.803 27.0007H195.386V30.1499H197.817ZM193.726 26.3309C193.726 25.8617 194.09 25.5 194.563 25.5H197.939C199.128 25.5 200.06 25.8482 200.667 26.4379C201.167 26.9472 201.45 27.6438 201.45 28.4613V28.488C201.45 29.9888 200.573 30.9006 199.303 31.289L201.113 33.5537C201.275 33.755 201.383 33.9287 201.383 34.1834C201.383 34.6386 200.991 34.9475 200.586 34.9475C200.208 34.9475 199.965 34.773 199.776 34.5183L197.479 31.6105H195.386V34.13C195.386 34.5852 195.022 34.9475 194.563 34.9475C194.09 34.9475 193.726 34.5852 193.726 34.13V26.3309Z" fill="#0D1D3B"/>
<path fill-rule="evenodd" clip-rule="evenodd" d="M204.935 26.2502C204.935 25.795 205.3 25.4326 205.773 25.4326C206.232 25.4326 206.596 25.795 206.596 26.2502V34.1294C206.596 34.5853 206.232 34.947 205.773 34.947C205.3 34.947 204.935 34.5853 204.935 34.1294V26.2502Z" fill="#0D1D3B"/>
<path fill-rule="evenodd" clip-rule="evenodd" d="M204.935 26.2502C204.935 25.795 205.3 25.4326 205.773 25.4326C206.232 25.4326 206.596 25.795 206.596 26.2502V34.1294C206.596 34.5853 206.232 34.947 205.773 34.947C205.3 34.947 204.935 34.5853 204.935 34.1294V26.2502Z" fill="#0D1D3B"/>
<path fill-rule="evenodd" clip-rule="evenodd" d="M213.213 34.344L209.905 26.6252C209.851 26.5049 209.81 26.3846 209.81 26.2368C209.81 25.795 210.175 25.4326 210.648 25.4326C211.08 25.4326 211.364 25.6739 211.498 26.0222L214.227 32.7898L216.995 25.9688C217.103 25.6873 217.4 25.4326 217.792 25.4326C218.251 25.4326 218.616 25.7816 218.616 26.2234C218.616 26.3437 218.576 26.4781 218.535 26.5717L215.213 34.344C215.036 34.7598 214.727 35.0145 214.254 35.0145H214.159C213.7 35.0145 213.389 34.7598 213.213 34.344Z" fill="#0D1D3B"/>
<path fill-rule="evenodd" clip-rule="evenodd" d="M213.213 34.344L209.905 26.6252C209.851 26.5049 209.81 26.3846 209.81 26.2368C209.81 25.795 210.175 25.4326 210.648 25.4326C211.08 25.4326 211.364 25.6739 211.498 26.0222L214.227 32.7898L216.995 25.9688C217.103 25.6873 217.4 25.4326 217.792 25.4326C218.251 25.4326 218.616 25.7816 218.616 26.2234C218.616 26.3437 218.576 26.4781 218.535 26.5717L215.213 34.344C215.036 34.7598 214.727 35.0145 214.254 35.0145H214.159C213.7 35.0145 213.389 34.7598 213.213 34.344Z" fill="#0D1D3B"/>
<path fill-rule="evenodd" clip-rule="evenodd" d="M221.818 26.2502C221.818 25.795 222.182 25.4326 222.655 25.4326C223.114 25.4326 223.479 25.795 223.479 26.2502V34.1294C223.479 34.5853 223.114 34.947 222.655 34.947C222.182 34.947 221.818 34.5853 221.818 34.1294V26.2502Z" fill="#0D1D3B"/>
<path fill-rule="evenodd" clip-rule="evenodd" d="M221.818 26.2502C221.818 25.795 222.182 25.4326 222.655 25.4326C223.114 25.4326 223.479 25.795 223.479 26.2502V34.1294C223.479 34.5853 223.114 34.947 222.655 34.947C222.182 34.947 221.818 34.5853 221.818 34.1294V26.2502Z" fill="#0D1D3B"/>
<path fill-rule="evenodd" clip-rule="evenodd" d="M229.677 27.0275H227.381C226.949 27.0275 226.612 26.6792 226.612 26.2641C226.612 25.8483 226.949 25.5 227.381 25.5H233.661C234.08 25.5 234.418 25.8483 234.418 26.2641C234.418 26.6792 234.08 27.0275 233.661 27.0275H231.352V34.13C231.352 34.5852 230.973 34.9475 230.515 34.9475C230.055 34.9475 229.677 34.5852 229.677 34.13V27.0275Z" fill="#0D1D3B"/>
<path fill-rule="evenodd" clip-rule="evenodd" d="M229.677 27.0275H227.381C226.949 27.0275 226.612 26.6792 226.612 26.2641C226.612 25.8483 226.949 25.5 227.381 25.5H233.661C234.08 25.5 234.418 25.8483 234.418 26.2641C234.418 26.6792 234.08 27.0275 233.661 27.0275H231.352V34.13C231.352 34.5852 230.973 34.9475 230.515 34.9475C230.055 34.9475 229.677 34.5852 229.677 34.13V27.0275Z" fill="#0D1D3B"/>
<path fill-rule="evenodd" clip-rule="evenodd" d="M241.751 31.1551L240.089 27.3629L238.428 31.1551H241.751ZM235.565 33.8083L239.078 26.036C239.266 25.6209 239.604 25.3662 240.077 25.3662H240.158C240.63 25.3662 240.954 25.6209 241.144 26.036L244.655 33.8083C244.722 33.9286 244.75 34.0496 244.75 34.1566C244.75 34.5991 244.412 34.9474 243.966 34.9474C243.574 34.9474 243.304 34.7194 243.155 34.3712L242.386 32.6158H237.795L236.998 34.4246C236.862 34.7603 236.579 34.9474 236.228 34.9474C235.796 34.9474 235.458 34.6125 235.458 34.1833C235.458 34.063 235.499 33.942 235.565 33.8083Z" fill="#0D1D3B"/>
<path fill-rule="evenodd" clip-rule="evenodd" d="M241.751 31.1551L240.089 27.3629L238.428 31.1551H241.751ZM235.565 33.8083L239.078 26.036C239.266 25.6209 239.604 25.3662 240.077 25.3662H240.158C240.63 25.3662 240.954 25.6209 241.144 26.036L244.655 33.8083C244.722 33.9286 244.75 34.0496 244.75 34.1566C244.75 34.5991 244.412 34.9474 243.966 34.9474C243.574 34.9474 243.304 34.7194 243.155 34.3712L242.386 32.6158H237.795L236.998 34.4246C236.862 34.7603 236.579 34.9474 236.228 34.9474C235.796 34.9474 235.458 34.6125 235.458 34.1833C235.458 34.063 235.499 33.942 235.565 33.8083Z" fill="#0D1D3B"/>
<path fill-rule="evenodd" clip-rule="evenodd" d="M186.946 30.3779C188.201 30.3779 188.985 29.6813 188.985 28.7026V28.6759C188.985 27.5777 188.188 27.0014 186.946 27.0014H185.014V30.3779H186.946ZM183.354 26.3309C183.354 25.8623 183.717 25.5 184.19 25.5H187.08C189.295 25.5 190.673 26.746 190.673 28.6358V28.6625C190.673 30.7662 188.971 31.8652 186.892 31.8652H185.014V34.13C185.014 34.5852 184.65 34.9475 184.19 34.9475C183.717 34.9475 183.354 34.5852 183.354 34.13V26.3309Z" fill="#0D1D3B"/>
<path fill-rule="evenodd" clip-rule="evenodd" d="M186.946 30.3779C188.201 30.3779 188.985 29.6813 188.985 28.7026V28.6759C188.985 27.5777 188.188 27.0014 186.946 27.0014H185.014V30.3779H186.946ZM183.354 26.3309C183.354 25.8623 183.717 25.5 184.19 25.5H187.08C189.295 25.5 190.673 26.746 190.673 28.6358V28.6625C190.673 30.7662 188.971 31.8652 186.892 31.8652H185.014V34.13C185.014 34.5852 184.65 34.9475 184.19 34.9475C183.717 34.9475 183.354 34.5852 183.354 34.13V26.3309Z" fill="#0D1D3B"/>
<path fill-rule="evenodd" clip-rule="evenodd" d="M250.638 30.1499C251.827 30.1499 252.583 29.5336 252.583 28.5816V28.5549C252.583 27.5502 251.854 27.0007 250.624 27.0007H248.207V30.1499H250.638ZM246.546 26.3309C246.546 25.8617 246.91 25.5 247.383 25.5H250.76C251.948 25.5 252.88 25.8482 253.488 26.4379C253.987 26.9472 254.271 27.6438 254.271 28.4613V28.488C254.271 29.9888 253.393 30.9006 252.124 31.289L253.933 33.5537C254.095 33.755 254.203 33.9287 254.203 34.1834C254.203 34.6386 253.812 34.9475 253.406 34.9475C253.028 34.9475 252.785 34.773 252.596 34.5183L250.3 31.6105H248.207V34.13C248.207 34.5852 247.843 34.9475 247.383 34.9475C246.91 34.9475 246.546 34.5852 246.546 34.13V26.3309Z" fill="#0D1D3B"/>
<path fill-rule="evenodd" clip-rule="evenodd" d="M250.638 30.1499C251.827 30.1499 252.583 29.5336 252.583 28.5816V28.5549C252.583 27.5502 251.854 27.0007 250.624 27.0007H248.207V30.1499H250.638ZM246.546 26.3309C246.546 25.8617 246.91 25.5 247.383 25.5H250.76C251.948 25.5 252.88 25.8482 253.488 26.4379C253.987 26.9472 254.271 27.6438 254.271 28.4613V28.488C254.271 29.9888 253.393 30.9006 252.124 31.289L253.933 33.5537C254.095 33.755 254.203 33.9287 254.203 34.1834C254.203 34.6386 253.812 34.9475 253.406 34.9475C253.028 34.9475 252.785 34.773 252.596 34.5183L250.3 31.6105H248.207V34.13C248.207 34.5852 247.843 34.9475 247.383 34.9475C246.91 34.9475 246.546 34.5852 246.546 34.13V26.3309Z" fill="#0D1D3B"/>
</g>
<g clip-path="url(#clip0_1253_1980)">
<path d="M317.951 26.5151C317.077 26.5151 316.382 26.8891 315.881 27.6241V26.6559H314.812V33.3359H315.881V29.5207C315.881 28.3545 316.624 27.5404 317.683 27.5404C318.721 27.5404 319.341 28.2533 319.341 29.4459V33.3359H320.409V29.2038C320.409 28.4117 320.185 27.7428 319.763 27.2632C319.332 26.7747 318.703 26.5151 317.951 26.5151Z" fill="#373737"/>
<path d="M331.155 30.0001V30.0265C331.155 31.4215 330.197 32.4733 328.93 32.4733C327.677 32.4733 326.692 31.3863 326.692 30.0001V29.9736C326.692 28.5699 327.642 27.5137 328.908 27.5137C330.17 27.5137 331.155 28.6051 331.155 30.0001ZM328.93 26.5148C328.011 26.5148 327.167 26.8844 326.543 27.5533C325.936 28.2047 325.602 29.0759 325.602 30.0001V30.0265C325.602 31.9671 327.053 33.4854 328.908 33.4854C329.827 33.4854 330.676 33.1157 331.3 32.4468C331.912 31.7911 332.25 30.9242 332.25 30.0001V29.9736C332.25 28.0331 330.79 26.5148 328.93 26.5148Z" fill="#373737"/>
<path d="M334.616 28.1212V26.6559H333.547V33.3359H334.616V30.6603C334.616 28.8825 335.561 27.6855 337.021 27.6855H337.162V26.5413L337.096 26.5369C336.067 26.4974 335.157 27.0827 334.616 28.1212Z" fill="#373737"/>
<path d="M345.419 26.5146C344.496 26.5146 343.779 26.9194 343.229 27.7467C342.82 26.9503 342.108 26.5146 341.215 26.5146C340.213 26.5146 339.646 27.0558 339.268 27.5972V26.6554H338.199V33.3355H339.268V29.5334C339.268 28.3805 339.971 27.54 340.938 27.54C341.901 27.54 342.477 28.244 342.477 29.419V33.3355H343.546V29.4982C343.546 28.9042 343.713 28.4025 344.034 28.0504C344.329 27.7247 344.742 27.5443 345.195 27.5443C346.18 27.5443 346.742 28.2397 346.742 29.4498V33.3398H347.811V29.221C347.806 27.5487 346.892 26.5146 345.419 26.5146Z" fill="#373737"/>
<path d="M359.537 27.6497V26.6507H357.532V24.3272L356.464 24.952V26.6551H355.299V27.654H356.46V31.531C356.46 33.1989 357.607 33.4453 358.293 33.4453C358.724 33.4453 359.089 33.3528 359.45 33.1592L359.485 33.1417V32.1558L359.384 32.2043C359.071 32.3627 358.821 32.4243 358.509 32.4243C357.849 32.4243 357.528 32.0899 357.528 31.4033V27.6497H359.537Z" fill="#373737"/>
<path d="M368.401 31.5227C367.834 32.1608 367.223 32.4733 366.546 32.4733C365.297 32.4733 364.321 31.3863 364.321 30.0001V29.9738C364.321 28.5919 365.271 27.5137 366.488 27.5137C367.337 27.5137 367.878 27.9759 368.335 28.4775L368.388 28.5347L369.096 27.7471L369.056 27.703C368.559 27.1485 367.821 26.5149 366.506 26.5149C365.614 26.5149 364.787 26.8845 364.171 27.5534C363.569 28.209 363.235 29.0805 363.235 30.0001V30.0265C363.235 30.9418 363.569 31.8044 364.171 32.4556C364.787 33.1201 365.614 33.4854 366.506 33.4854C367.834 33.4854 368.595 32.7946 369.109 32.196L369.153 32.1476L368.463 31.4699L368.401 31.5227Z" fill="#373737"/>
<path d="M353.575 30.1141V30.8578C353.575 31.8302 352.705 32.5609 351.553 32.5609C350.519 32.5609 350.053 31.9227 350.053 31.3287V31.3023C350.053 30.7609 350.357 30.1141 351.808 30.1141H353.575ZM351.869 26.5144C350.858 26.5144 350.137 26.7916 349.57 27.0645L349.512 27.0909L349.838 28.0194L349.908 27.9842C350.423 27.7378 351.003 27.509 351.777 27.509C352.925 27.509 353.58 28.037 353.58 29.2515H351.715C349.974 29.2515 348.976 30.0128 348.976 31.3375V31.3639C348.976 32.7456 350.185 33.4717 351.377 33.4717C352.472 33.4717 353.171 32.9613 353.58 32.4772V33.3352H354.6V29.2692C354.6 28.4287 354.38 27.7201 353.94 27.2625C353.465 26.7652 352.771 26.5144 351.869 26.5144Z" fill="#373737"/>
<path d="M323.434 26.0309C323.434 25.0716 323.681 24.7108 324.441 24.7108C324.736 24.7108 324.969 24.7636 325.325 24.8736L325.391 24.8911V23.901L325.369 23.8921C325.052 23.7734 324.745 23.7249 324.318 23.7249C323.738 23.7249 323.258 23.9054 322.929 24.253C322.559 24.6403 322.366 25.2343 322.366 25.9824V26.6557H321.205V27.6547H322.366V33.3359H323.434V27.6503H325.439V26.6513H323.434V26.0309Z" fill="#373737"/>
<path d="M361.925 33.3311H360.856V27.3638V26.6554H361.925V33.3311Z" fill="#373737"/>
<path d="M374.403 30.1141V30.8578C374.403 31.8302 373.533 32.5609 372.381 32.5609C371.347 32.5609 370.877 31.9227 370.877 31.3287V31.3023C370.877 30.7609 371.18 30.1141 372.631 30.1141H374.403ZM372.693 26.5144C371.682 26.5144 370.961 26.7916 370.393 27.0645L370.336 27.0909L370.662 28.0194L370.732 27.9842C371.246 27.7378 371.827 27.509 372.601 27.509C373.748 27.509 374.403 28.037 374.403 29.2515H372.539C370.798 29.2515 369.8 30.0128 369.8 31.3375V31.3639C369.8 32.7456 371.009 33.4717 372.2 33.4717C373.295 33.4717 373.994 32.9613 374.403 32.4772V33.3352H375.423V29.2692C375.423 28.4287 375.204 27.7201 374.764 27.2625C374.289 26.7652 373.594 26.5144 372.693 26.5144Z" fill="#373737"/>
<path d="M376.302 27.2012H376.439C376.483 27.2012 376.514 27.1881 376.54 27.1704C376.566 27.1528 376.579 27.1264 376.579 27.0956C376.579 27.0516 376.566 27.0252 376.544 27.0076C376.522 26.9899 376.483 26.9812 376.421 26.9812H376.302V27.2012ZM376.302 27.3156V27.6105H376.179V26.8668H376.421C376.509 26.8668 376.579 26.8844 376.628 26.924C376.676 26.9635 376.702 27.0163 376.702 27.0912C376.702 27.1617 376.667 27.2189 376.593 27.254C376.663 27.2848 376.698 27.342 376.698 27.43V27.4828C376.698 27.5313 376.702 27.5708 376.711 27.5929V27.606H376.584C376.575 27.5841 376.571 27.5488 376.571 27.4916C376.571 27.4344 376.571 27.408 376.566 27.3948C376.557 27.3376 376.518 27.3112 376.452 27.3069H376.302V27.3156ZM375.915 27.2497C375.915 27.3508 375.938 27.4433 375.986 27.5269C376.034 27.6105 376.096 27.6808 376.175 27.7293C376.254 27.7777 376.342 27.7996 376.434 27.7996C376.527 27.7996 376.615 27.7732 376.694 27.7249C376.773 27.6765 376.839 27.6105 376.883 27.5224C376.927 27.4389 376.953 27.3464 376.953 27.2453C376.953 27.144 376.931 27.056 376.883 26.968C376.839 26.8844 376.773 26.8183 376.694 26.77C376.615 26.7216 376.527 26.6952 376.434 26.6952C376.342 26.6952 376.254 26.7172 376.175 26.7655C376.096 26.8139 376.03 26.8799 375.986 26.9635C375.938 27.056 375.915 27.1484 375.915 27.2497ZM375.814 27.2497C375.814 27.1307 375.841 27.0209 375.898 26.924C375.951 26.8227 376.03 26.7436 376.122 26.6864C376.219 26.6291 376.324 26.5983 376.434 26.5983C376.544 26.5983 376.65 26.6291 376.747 26.6864C376.843 26.7436 376.918 26.8227 376.971 26.924C377.024 27.0252 377.054 27.1353 377.054 27.2497C377.054 27.3641 377.028 27.4697 376.975 27.5708C376.922 27.6721 376.848 27.7513 376.751 27.8129C376.654 27.8745 376.549 27.9053 376.434 27.9053C376.32 27.9053 376.215 27.8745 376.118 27.8129C376.021 27.7513 375.946 27.6721 375.893 27.5708C375.841 27.4741 375.814 27.3641 375.814 27.2497Z" fill="#373737"/>
<path d="M292.437 31.9096L299.458 35.8438L299.722 32.8514L297.774 30.7742L294.894 30.2989L292.437 31.9096Z" fill="#FF4D00"/>
<path d="M293.619 18.3118L299.458 35.8438L305.297 29.9998L293.619 18.3118Z" fill="#FF7D00"/>
<path d="M292.683 27.5976L292.437 31.9102L301.411 30.0004L292.683 27.5976Z" fill="#001AFF"/>
<path d="M281.946 30.0001L288.181 36.2402L289.341 34.6824L289.13 32.8121L286.268 30.955L281.946 30.0001Z" fill="#E23400"/>
<path d="M292.991 18.9462L281.946 30.0005L289.13 32.8125L292.991 18.9462Z" fill="#FF4D00"/>
<path d="M289.13 32.8125L288.18 36.2406L293.619 41.6885L298.737 36.5706L289.13 32.8125Z" fill="#FF7D00"/>
<path d="M313.071 33.3311H311.98V24.4858L313.071 23.8521V33.3311Z" fill="#373737"/>
<path d="M361.956 25.4541H360.83V24.5872V24.2792H361.956V25.4541Z" fill="#373737"/>
</g>
<path d="M315.326 49.508C315.653 49.1648 316.042 48.8963 316.476 48.7094C316.91 48.5225 317.375 48.4227 317.846 48.4227C318.475 48.4227 319.09 48.5972 319.63 48.9156C320.171 49.24 320.61 49.7019 320.912 50.2507C321.465 50.0074 322.062 49.8764 322.665 49.8764C323.815 49.8764 324.921 50.3382 325.731 51.1556C326.547 51.973 327 53.0836 327 54.2376C327 55.3917 326.541 56.5023 325.731 57.3197C324.914 58.137 323.815 58.5989 322.665 58.5989C322.382 58.5989 322.099 58.5677 321.823 58.499C321.433 59.2041 320.792 59.7282 320.026 59.9715C319.259 60.2024 318.43 60.1461 317.701 59.8029C317.424 60.4704 316.947 61.0381 316.331 61.4188C315.728 61.8119 315.011 62.0176 314.289 61.9988C313.573 61.9924 312.875 61.762 312.297 61.3377C311.713 60.9199 311.267 60.3335 311.022 59.6531C310.795 59.703 310.563 59.7277 310.324 59.7218C309.74 59.7094 309.162 59.5473 308.659 59.2476C308.156 58.9479 307.735 58.5178 307.446 58.006C307.157 57.4942 307 56.9142 307 56.3278C307 55.7413 307.151 55.1608 307.44 54.6431C307.735 54.1313 308.156 53.707 308.665 53.4138C308.288 52.5465 308.25 51.567 308.545 50.6685C308.847 49.7765 309.456 49.015 310.261 48.5349C311.077 48.0483 312.039 47.8862 312.968 48.0795C313.905 48.2417 314.74 48.747 315.318 49.5021L315.325 49.5085L315.326 49.508Z" fill="#469DDC"/>
<defs>
<clipPath id="clip0_1253_1980">
<rect width="97" height="24" fill="white" transform="translate(281 18)"/>
</clipPath>
</defs>
</svg>
