<svg xmlns="http://www.w3.org/2000/svg" width="414" height="79" fill="none" viewBox="0 0 414 79"><path fill="#fff" d="M414 0H0v79h414z"/><mask id="a" width="97" height="9" x="36" y="26" maskUnits="userSpaceOnUse" style="mask-type:luminance"><path fill="#fff" d="M133 26H36v9h97z"/></mask><g fill="#0d1d3b" mask="url(#a)"><path d="M56.019 26h.258c2.374 0 4.334 2.025 4.334 4.5S58.65 35 56.277 35c-2.425 0-4.334-1.969-4.334-4.5v-.281h1.497v.281c0 1.688 1.238 3.038 2.837 3.038s2.838-1.35 2.838-3.038-1.239-2.981-2.838-3.038h-.258zm43.496 0h.258c2.373 0 4.334 2.025 4.334 4.5s-1.961 4.5-4.334 4.5c-2.425 0-4.334-1.969-4.334-4.5v-.281h1.496v.281c0 1.688 1.238 3.038 2.838 3.038 1.599 0 2.837-1.35 2.837-3.038s-1.238-2.981-2.837-3.038h-.258zm14.756 0h.257c2.374 0 4.335 2.025 4.335 4.5s-1.961 4.5-4.335 4.5c-2.425 0-4.334-1.969-4.334-4.5v-.281h1.497v.281c0 1.688 1.239 3.038 2.837 3.038 1.6 0 2.839-1.35 2.839-3.038s-1.239-2.981-2.839-3.038h-.257zm-76.774.225v8.606H36.05v-8.606zm42.05 0 1.858.056 2.992 4.163 2.993-4.163 1.6-.056v8.606h-1.446v-6.187l-3.147 4.444zm-34.57 0L41.779 29.6l3.715 5.231h-1.857l-3.714-5.287 3.095-3.263h2.013zm79.82 0 1.856.056 4.541 6.357V26.28h1.445v8.607h-1.754l-6.088-8.607zm-53.866 0c.98 0 1.702.281 2.218.844l.052.056q.62.76.619 1.688a2.67 2.67 0 0 1-.722 1.856c-.465.45-1.032.731-1.806.787l2.373 3.319h-1.857l-3.355-4.725h2.53c.36 0 .773-.056 1.083-.394a1.16 1.16 0 0 0 .31-.787c0-.225-.052-.45-.208-.675l-.05-.056c-.156-.17-.362-.282-.62-.394-.155-.056-.362-.056-.567-.056h-3.664l-.774-1.463zm53.866 6.525 1.444 2.025h-1.444z"/><path d="M56.019 26h.258c2.374 0 4.334 2.025 4.334 4.5S58.65 35 56.277 35c-2.425 0-4.334-1.969-4.334-4.5v-.281h1.497v.281c0 1.688 1.238 3.038 2.837 3.038s2.838-1.35 2.838-3.038-1.239-2.981-2.838-3.038h-.258zm43.496 0h.258c2.373 0 4.334 2.025 4.334 4.5s-1.961 4.5-4.334 4.5c-2.425 0-4.334-1.969-4.334-4.5v-.281h1.496v.281c0 1.688 1.238 3.038 2.838 3.038 1.599 0 2.837-1.35 2.837-3.038s-1.238-2.981-2.837-3.038h-.258zm14.756 0h.257c2.374 0 4.335 2.025 4.335 4.5s-1.961 4.5-4.335 4.5c-2.425 0-4.334-1.969-4.334-4.5v-.281h1.497v.281c0 1.688 1.239 3.038 2.837 3.038 1.6 0 2.839-1.35 2.839-3.038s-1.239-2.981-2.839-3.038h-.257zm-76.774.225v8.606H36.05v-8.606zm42.05 0 1.858.056 2.992 4.163 2.993-4.163 1.6-.056v8.606h-1.446v-6.187l-3.147 4.444zm-34.57 0L41.779 29.6l3.715 5.231h-1.857l-3.714-5.287 3.095-3.263h2.013zm79.82 0 1.856.056 4.541 6.357V26.28h1.445v8.607h-1.754l-6.088-8.607zm-53.866 0c.98 0 1.702.281 2.218.844l.052.056q.62.76.619 1.688a2.67 2.67 0 0 1-.722 1.856c-.465.45-1.032.731-1.806.787l2.373 3.319h-1.857l-3.355-4.725h2.53c.36 0 .773-.056 1.083-.394a1.16 1.16 0 0 0 .31-.787c0-.225-.052-.45-.208-.675l-.05-.056c-.156-.17-.362-.282-.62-.394-.155-.056-.362-.056-.567-.056h-3.664l-.774-1.463zm53.866 6.525 1.444 2.025h-1.444z"/></g><g opacity=".8"><path fill="#0d1d3b" d="M93.74 58v-7h.84v3.17L97.5 51h1.06l-2.6 2.79L98.6 58h-1.02l-2.22-3.56-.78.83V58zm7.698.12q-.699 0-1.26-.32a2.36 2.36 0 0 1-.89-.9q-.32-.59-.32-1.38t.33-1.37q.33-.59.89-.91.57-.32 1.27-.32t1.26.32.88.91q.33.58.33 1.37t-.33 1.38q-.33.58-.9.9-.56.32-1.26.32m0-.72q.43 0 .8-.21t.6-.63.23-1.04-.23-1.04a1.5 1.5 0 0 0-.59-.63q-.37-.21-.79-.21-.43 0-.8.21-.369.21-.6.63t-.23 1.04q0 .62.23 1.04t.59.63q.37.21.79.21m3.658.6v-4.96h.76l.07.95q.23-.49.7-.78t1.16-.29v.88h-.23a2 2 0 0 0-.81.16q-.37.15-.59.52t-.22 1.02V58zm3.633 0v-4.96h.76l.06.72q.24-.4.64-.62t.9-.22q.59 0 1.01.24.43.24.66.73.26-.45.71-.71.46-.26.99-.26.89 0 1.42.54.53.53.53 1.64V58h-.83v-2.81q0-.77-.31-1.16t-.89-.39q-.6 0-1 .47-.39.46-.39 1.32V58h-.84v-2.81q0-.77-.31-1.16t-.89-.39a1.25 1.25 0 0 0-.99.47q-.39.46-.39 1.32V58zm11.205.12q-.699 0-1.26-.32a2.36 2.36 0 0 1-.89-.9q-.32-.59-.32-1.38t.33-1.37a2.34 2.34 0 0 1 .89-.91q.57-.32 1.27-.32t1.26.32.88.91q.33.58.33 1.37t-.33 1.38q-.33.58-.9.9-.56.32-1.26.32m0-.72q.43 0 .8-.21t.6-.63.23-1.04-.23-1.04a1.5 1.5 0 0 0-.59-.63q-.37-.21-.79-.21-.43 0-.8.21-.369.21-.6.63t-.23 1.04.23 1.04.59.63q.37.21.79.21m5.918.72q-.699 0-1.26-.32a2.36 2.36 0 0 1-.89-.9q-.32-.59-.32-1.38t.33-1.37a2.34 2.34 0 0 1 .89-.91q.57-.32 1.27-.32t1.26.32.88.91q.33.58.33 1.37t-.33 1.38q-.33.58-.9.9-.56.32-1.26.32m0-.72q.43 0 .8-.21t.6-.63.23-1.04-.23-1.04a1.5 1.5 0 0 0-.59-.63q-.37-.21-.79-.21-.43 0-.8.21-.369.21-.6.63t-.23 1.04q0 .62.23 1.04t.59.63q.37.21.79.21m3.658.6v-4.96h.76l.05.89q.24-.47.69-.74t1.02-.27q.88 0 1.4.54.53.53.53 1.64V58h-.84v-2.81q0-1.55-1.28-1.55-.64 0-1.07.47-.42.46-.42 1.32V58zm8.879-6.06a.6.6 0 0 1-.42-.16.6.6 0 0 1-.16-.42q0-.24.16-.4a.6.6 0 0 1 .42-.16q.24 0 .41.16t.17.4a.57.57 0 0 1-.17.42.58.58 0 0 1-.41.16m-.42 6.06v-4.96h.84V58zm4.203.12q-.89 0-1.48-.45t-.69-1.22h.86q.08.39.41.68.34.28.91.28.53 0 .78-.22a.71.71 0 0 0 .25-.54q0-.45-.33-.6-.32-.15-.91-.27a5 5 0 0 1-.8-.23q-.4-.15-.67-.42-.27-.28-.27-.73 0-.65.48-1.06.49-.42 1.32-.42.79 0 1.29.4.51.39.59 1.12h-.83a.84.84 0 0 0-.33-.59q-.27-.22-.73-.22-.45 0-.7.19a.6.6 0 0 0-.24.5q0 .3.31.47.32.17.86.29.46.1.87.25.42.14.68.43.27.28.27.82.01.67-.51 1.11-.51.43-1.39.43m5.747-.12v-4.96h.76l.05.89q.24-.47.69-.74t1.02-.27q.88 0 1.4.54.53.53.53 1.64V58h-.84v-2.81q0-1.55-1.28-1.55a1.39 1.39 0 0 0-1.07.47q-.42.46-.42 1.32V58zm7.982.12q-.699 0-1.26-.32a2.36 2.36 0 0 1-.89-.9q-.32-.59-.32-1.38t.33-1.37a2.34 2.34 0 0 1 .89-.91q.57-.32 1.27-.32t1.26.32.88.91q.33.58.33 1.37t-.33 1.38q-.33.58-.9.9-.56.32-1.26.32m0-.72q.43 0 .8-.21t.6-.63.23-1.04-.23-1.04a1.5 1.5 0 0 0-.59-.63q-.37-.21-.79-.21-.43 0-.8.21-.369.21-.6.63t-.23 1.04q0 .62.23 1.04t.59.63q.37.21.79.21m4.473.6-1.45-4.96h.84l1.05 3.89 1.16-3.89h.95l1.17 3.89 1.04-3.89h.85l-1.45 4.96h-.86l-1.22-4.09-1.22 4.09zm9.185 2.2v-7.16h.76l.08.82q.24-.36.68-.65.45-.29 1.14-.29.74 0 1.29.34t.85.93q.31.59.31 1.34t-.31 1.34q-.3.58-.86.92-.55.33-1.29.33-.61 0-1.09-.25a1.74 1.74 0 0 1-.72-.7v3.03zm2.56-2.81q.5 0 .88-.23.38-.24.6-.66t.22-.98-.22-.98a1.62 1.62 0 0 0-1.48-.89q-.5 0-.88.24-.38.23-.6.65t-.22.98.22.98.6.66q.38.23.88.23m5.369.73q-.62 0-1.03-.21a1.43 1.43 0 0 1-.61-.56 1.5 1.5 0 0 1-.2-.76q0-.76.58-1.17t1.58-.41h1.34v-.06q0-.65-.34-.98-.34-.34-.91-.34-.49 0-.85.25-.35.24-.44.71h-.86a1.6 1.6 0 0 1 .36-.91q.32-.37.79-.56.47-.2 1-.2 1.041 0 1.56.56.53.55.53 1.47V58h-.75l-.05-.89q-.21.42-.62.72-.399.29-1.08.29m.13-.71q.48 0 .82-.25.35-.25.53-.65t.18-.84v-.01h-1.27q-.74 0-1.05.26-.3.25-.3.63 0 .39.28.63.291.23.81.23m3.631.59v-4.96h.76l.07.95q.23-.49.7-.78t1.16-.29v.88h-.23q-.441 0-.81.16-.37.15-.59.52t-.22 1.02V58zm5.592 0q-.68 0-1.07-.33t-.39-1.19v-2.73h-.86v-.71h.86l.11-1.19h.73v1.19h1.46v.71h-1.46v2.73q0 .47.19.64.19.16.67.16h.52V58zm6.814.12q-.7 0-1.26-.32a2.36 2.36 0 0 1-.89-.9q-.32-.59-.32-1.38t.33-1.37a2.34 2.34 0 0 1 .89-.91q.57-.32 1.27-.32t1.26.32.88.91q.33.58.33 1.37t-.33 1.38q-.33.58-.9.9-.56.32-1.26.32m0-.72q.43 0 .8-.21t.6-.63.23-1.04-.23-1.04a1.5 1.5 0 0 0-.59-.63q-.37-.21-.79-.21-.43 0-.8.21t-.6.63-.23 1.04.23 1.04.59.63q.37.21.79.21m3.928.6v-4.25h-.75v-.71h.75v-.86q0-.72.36-1.05t1.05-.33h.5v.72h-.37q-.38 0-.54.16-.16.15-.16.52v.84h1.22v.71h-1.22V58zm7.667 0q-.68 0-1.07-.33t-.39-1.19v-2.73h-.86v-.71h.86l.11-1.19h.73v1.19h1.46v.71h-1.46v2.73q0 .47.19.64.19.16.67.16h.52V58zm1.907 0v-7.2h.84v3.09q.25-.46.71-.71.46-.26 1-.26.86 0 1.38.54.52.53.52 1.64V58h-.83v-2.81q0-1.55-1.25-1.55-.65 0-1.09.47-.44.46-.44 1.32V58zm7.952.12q-.71 0-1.26-.32a2.4 2.4 0 0 1-.87-.91q-.31-.58-.31-1.37 0-.78.31-1.36a2.23 2.23 0 0 1 .86-.91q.561-.33 1.29-.33.72 0 1.24.33.531.32.81.85a2.4 2.4 0 0 1 .27 1.36v.25h-3.95q.03.57.26.95.24.37.59.56.36.19.76.19.52 0 .87-.24.351-.24.51-.65h.83q-.2.69-.77 1.15-.56.45-1.44.45m0-4.49q-.6 0-1.07.37-.46.36-.53 1.06h3.12q-.03-.67-.46-1.05t-1.06-.38M272.134 58v-4.25h-.75v-.71h.75v-.86q0-.72.36-1.05t1.05-.33h.5v.72h-.37q-.381 0-.54.16-.16.15-.16.52v.84h1.22v.71h-1.22V58zm4.515.12q-.62 0-1.03-.21a1.42 1.42 0 0 1-.61-.56 1.5 1.5 0 0 1-.2-.76q0-.76.58-1.17t1.58-.41h1.34v-.06q0-.65-.34-.98-.34-.34-.91-.34-.49 0-.85.25-.35.24-.44.71h-.86q.05-.54.36-.91.32-.37.79-.56.47-.2 1-.2 1.04 0 1.56.56.53.55.53 1.47V58h-.75l-.05-.89q-.21.42-.62.72-.4.29-1.08.29m.13-.71q.48 0 .82-.25.35-.25.53-.65t.18-.84v-.01h-1.27q-.741 0-1.05.26-.3.25-.3.63 0 .39.28.63.29.23.81.23m3.63.59v-4.96h.76l.06.72q.24-.4.64-.62.399-.22.9-.22.59 0 1.01.24.429.24.66.73.26-.45.71-.71.459-.26.99-.26.89 0 1.42.54.53.53.53 1.64V58h-.83v-2.81q0-.77-.31-1.16t-.89-.39q-.6 0-1 .47-.39.46-.39 1.32V58h-.84v-2.81q0-.77-.31-1.16t-.89-.39q-.591 0-.99.47-.39.46-.39 1.32V58zm9.455-6.06a.6.6 0 0 1-.42-.16.6.6 0 0 1-.16-.42q0-.24.16-.4a.6.6 0 0 1 .42-.16q.24 0 .41.16t.17.4a.57.57 0 0 1-.17.42.58.58 0 0 1-.41.16m-.42 6.06v-4.96h.84V58zm2.303 0v-7.2h.84V58zm2.756 2.2 1.23-2.68h-.29l-1.97-4.48h.91l1.64 3.86 1.74-3.86h.87l-3.25 7.16z"/><path fill="#179cd7" d="M223.499 58.12q-.77 0-1.34-.28a2.1 2.1 0 0 1-.88-.78 2.16 2.16 0 0 1-.31-1.16h.88q0 .41.19.76.19.34.55.55.37.2.91.2.71 0 1.1-.34t.39-.85q0-.42-.18-.67a1.3 1.3 0 0 0-.49-.42q-.3-.16-.7-.28-.39-.12-.82-.27-.81-.28-1.2-.69-.39-.42-.39-1.09-.01-.56.26-.99.27-.44.76-.68.5-.25 1.18-.25.67 0 1.16.25.5.25.77.69.28.44.29 1h-.88q0-.29-.15-.57-.15-.29-.46-.47-.3-.18-.76-.18-.57-.01-.94.29-.36.3-.36.83 0 .45.25.69.261.24.72.4.46.15 1.06.35.501.18.9.42.4.24.62.62.23.38.23.97 0 .5-.26.95-.26.44-.79.72-.52.28-1.31.28m5.152 0q-.62 0-1.03-.21a1.42 1.42 0 0 1-.61-.56 1.5 1.5 0 0 1-.2-.76q0-.76.58-1.17t1.58-.41h1.34v-.06q0-.65-.34-.98-.34-.34-.91-.34-.49 0-.85.25-.35.24-.44.71h-.86q.05-.54.36-.91.32-.37.79-.56.47-.2 1-.2 1.04 0 1.56.56.53.55.53 1.47V58h-.75l-.05-.89q-.21.42-.62.72-.4.29-1.08.29m.13-.71q.48 0 .82-.25.35-.25.53-.65t.18-.84v-.01h-1.27q-.741 0-1.05.26-.3.25-.3.63 0 .39.28.63.29.23.81.23m3.63.59v-7.2h.84V58zm4.447.12q-.711 0-1.26-.32a2.4 2.4 0 0 1-.87-.91q-.31-.58-.31-1.37 0-.78.31-1.36.31-.59.86-.91a2.5 2.5 0 0 1 1.289-.33q.721 0 1.241.33.53.32.81.85a2.4 2.4 0 0 1 .27 1.36v.25h-3.95q.03.57.26.95.24.37.59.56.36.19.76.19.519 0 .87-.24.35-.24.51-.65h.83q-.2.69-.77 1.15-.561.45-1.44.45m0-4.49q-.6 0-1.07.37-.46.36-.531 1.06h3.121q-.03-.67-.46-1.05t-1.06-.38m5.363 4.49q-.89 0-1.48-.45t-.69-1.22h.86q.08.39.41.68.34.28.91.28.53 0 .78-.22a.71.71 0 0 0 .25-.54q0-.45-.33-.6-.32-.15-.91-.27a5 5 0 0 1-.8-.23q-.4-.15-.67-.42-.27-.28-.27-.73 0-.65.48-1.06.49-.42 1.32-.42.79 0 1.29.4.51.39.59 1.12h-.83a.84.84 0 0 0-.33-.59q-.27-.22-.73-.22-.45 0-.7.19a.6.6 0 0 0-.24.5q0 .3.31.47.32.17.86.29.46.1.87.25.42.14.68.43.27.28.27.82.01.67-.51 1.11-.51.43-1.39.43m3.37-.12v-4.25h-.75v-.71h.75v-.86q0-.72.36-1.05t1.05-.33h.5v.72h-.37q-.38 0-.54.16-.16.15-.16.52v.84h1.22v.71h-1.22V58zm5.125.12q-.7 0-1.26-.32a2.35 2.35 0 0 1-.89-.9q-.32-.59-.32-1.38t.33-1.37q.33-.59.89-.91.57-.32 1.27-.32.699 0 1.26.32.56.32.88.91.33.58.33 1.37t-.33 1.38q-.33.58-.9.9-.561.32-1.26.32m0-.72q.43 0 .8-.21.369-.21.6-.63t.23-1.04q0-.62-.23-1.04a1.5 1.5 0 0 0-.59-.63q-.37-.21-.79-.21-.43 0-.8.21t-.6.63-.23 1.04.23 1.04.59.63q.37.21.79.21m3.658.6v-4.96h.76l.07.95q.23-.49.7-.78t1.16-.29v.88h-.23q-.441 0-.81.16-.37.15-.59.52t-.22 1.02V58zm5.727.12q-.71 0-1.28-.32a2.43 2.43 0 0 1-.89-.91q-.32-.59-.32-1.37t.32-1.36a2.34 2.34 0 0 1 .89-.91q.57-.33 1.28-.33.88 0 1.48.46.61.46.77 1.23h-.86a1.09 1.09 0 0 0-.49-.71 1.6 1.6 0 0 0-.91-.26q-.42 0-.79.21t-.6.63-.23 1.04.23 1.04.6.64q.37.21.79.21.52 0 .91-.25.39-.26.49-.73h.86q-.15.75-.76 1.22t-1.49.47m5.653 0q-.71 0-1.26-.32a2.4 2.4 0 0 1-.87-.91q-.31-.58-.31-1.37 0-.78.31-1.36.31-.59.86-.91.56-.33 1.29-.33.72 0 1.24.33.53.32.81.85a2.4 2.4 0 0 1 .27 1.36v.25h-3.95q.03.57.26.95.24.37.59.56.36.19.76.19.52 0 .87-.24t.51-.65h.83q-.2.69-.77 1.15-.56.45-1.44.45m0-4.49q-.6 0-1.07.37-.46.36-.53 1.06h3.12q-.03-.67-.46-1.05t-1.06-.38"/></g><path fill="#0d1d3b" d="m267.064 33.082 3.43-3.22-3.43-3.234h1.498l3.416 3.234-3.416 3.22z"/><path fill="#0d1d3b" d="m267.064 33.082 3.43-3.22-3.43-3.234h1.498l3.416 3.234-3.416 3.22zM144.064 33.082l3.43-3.22-3.43-3.234h1.498l3.416 3.234-3.416 3.22z"/><path fill="#0d1d3b" d="m144.064 33.082 3.43-3.22-3.43-3.234h1.498l3.416 3.234-3.416 3.22z"/><mask id="b" width="97" height="20" x="159" y="20" maskUnits="userSpaceOnUse" style="mask-type:luminance"><path fill="#fff" d="M255.523 20H159v20h96.523z"/></mask><g mask="url(#b)"><mask id="c" width="21" height="20" x="159" y="20" maskUnits="userSpaceOnUse" style="mask-type:luminance"><path fill="#fff" d="M179.188 20.488h-19.696v19.513h19.696z"/></mask><g fill="#0d1d3b" mask="url(#c)"><path d="M173.19 25.217a1.957 1.957 0 0 0 1.964-1.95c0-1.077-.879-1.95-1.964-1.95a1.957 1.957 0 0 0-1.964 1.95c0 1.077.879 1.95 1.964 1.95"/><path d="M173.19 25.217a1.957 1.957 0 0 0 1.964-1.95c0-1.077-.879-1.95-1.964-1.95a1.957 1.957 0 0 0-1.964 1.95c0 1.077.879 1.95 1.964 1.95M173.64 36.963a2.473 2.473 0 0 0 2.482-2.464 2.473 2.473 0 0 0-2.482-2.464 2.474 2.474 0 0 0-2.483 2.464 2.474 2.474 0 0 0 2.483 2.464"/><path d="M173.64 36.963a2.473 2.473 0 0 0 2.482-2.464 2.473 2.473 0 0 0-2.482-2.464 2.474 2.474 0 0 0-2.483 2.464 2.474 2.474 0 0 0 2.483 2.464M167.669 33.609a2.88 2.88 0 0 0 2.891-2.87 2.88 2.88 0 0 0-2.891-2.87c-1.597 0-2.892 1.284-2.892 2.87 0 1.585 1.295 2.87 2.892 2.87"/><path d="M167.669 33.609a2.88 2.88 0 0 0 2.891-2.87 2.88 2.88 0 0 0-2.891-2.87c-1.597 0-2.892 1.284-2.892 2.87 0 1.585 1.295 2.87 2.892 2.87"/><g opacity=".8"><path d="M168.365 35.964c.555 0 1.006-.447 1.006-.998 0-.552-.451-1-1.006-1-.556 0-1.007.448-1.007 1 0 .551.451.998 1.007.998"/><path d="M168.365 35.964c.555 0 1.006-.447 1.006-.998 0-.552-.451-1-1.006-1-.556 0-1.007.448-1.007 1 0 .551.451.998 1.007.998M172.141 39.526a.803.803 0 0 0 .807-.8c0-.443-.361-.801-.807-.801a.803.803 0 0 0-.806.8c0 .442.361.8.806.8"/><path d="M172.141 39.526a.803.803 0 0 0 .807-.8c0-.443-.361-.801-.807-.801a.803.803 0 0 0-.806.8c0 .442.361.8.806.8M176.691 25.13a.38.38 0 0 0 .381-.378.38.38 0 0 0-.381-.378.379.379 0 1 0 0 .755"/><path d="M176.691 25.13a.38.38 0 0 0 .381-.378.38.38 0 0 0-.381-.378.379.379 0 1 0 0 .755M161.363 32.578c1.033 0 1.87-.83 1.87-1.856a1.863 1.863 0 0 0-1.87-1.857 1.864 1.864 0 0 0-1.871 1.857c0 1.025.838 1.856 1.871 1.856"/><path d="M161.363 32.578c1.033 0 1.87-.83 1.87-1.856a1.863 1.863 0 0 0-1.87-1.857 1.864 1.864 0 0 0-1.871 1.857c0 1.025.838 1.856 1.871 1.856M161.15 34.79a.954.954 0 0 0 .958-.951.955.955 0 0 0-.958-.951.955.955 0 0 0-.958.95c0 .526.429.951.958.951"/><path d="M161.15 34.79a.954.954 0 0 0 .958-.951.955.955 0 0 0-.958-.951.955.955 0 0 0-.958.95c0 .526.429.951.958.951M170.525 28.404a1.44 1.44 0 0 0 1.444-1.434 1.44 1.44 0 0 0-1.444-1.434 1.44 1.44 0 0 0-1.445 1.434 1.44 1.44 0 0 0 1.445 1.434"/><path d="M170.525 28.404a1.44 1.44 0 0 0 1.444-1.434 1.44 1.44 0 0 0-1.444-1.434 1.44 1.44 0 0 0-1.445 1.434 1.44 1.44 0 0 0 1.445 1.434M167.164 27.373a.67.67 0 0 0 .673-.667.67.67 0 0 0-.673-.668.67.67 0 0 0-.672.668.67.67 0 0 0 .672.667"/><path d="M167.164 27.373a.67.67 0 0 0 .673-.667.67.67 0 0 0-.673-.668.67.67 0 0 0-.672.668.67.67 0 0 0 .672.667M170.73 25.208a.51.51 0 0 0 .513-.509.51.51 0 0 0-.513-.509.51.51 0 0 0-.513.51c0 .28.23.508.513.508"/><path d="M170.73 25.208a.51.51 0 0 0 .513-.509.51.51 0 0 0-.513-.509.51.51 0 0 0-.513.51c0 .28.23.508.513.508M174.457 31.707a.935.935 0 0 0 .939-.931.935.935 0 0 0-.939-.932.935.935 0 0 0-.938.931c0 .515.42.932.938.932"/><path d="M174.457 31.707a.935.935 0 0 0 .939-.931.935.935 0 0 0-.939-.932.935.935 0 0 0-.938.931c0 .515.42.932.938.932M172.274 30.728c.651 0 1.178-.524 1.178-1.17s-.527-1.17-1.178-1.17-1.179.524-1.179 1.17.528 1.17 1.179 1.17"/><path d="M172.274 30.728c.651 0 1.178-.524 1.178-1.17s-.527-1.17-1.178-1.17-1.179.524-1.179 1.17.528 1.17 1.179 1.17M170.305 36.963a.803.803 0 0 0 .807-.8c0-.442-.361-.8-.807-.8a.803.803 0 0 0-.806.8c0 .442.361.8.806.8"/><path d="M170.305 36.963a.803.803 0 0 0 .807-.8c0-.442-.361-.8-.807-.8a.803.803 0 0 0-.806.8c0 .442.361.8.806.8M160.883 28.616c.562 0 1.018-.453 1.018-1.011 0-.559-.456-1.011-1.018-1.011s-1.019.452-1.019 1.01c0 .56.456 1.012 1.019 1.012"/><path d="M160.883 28.616c.562 0 1.018-.453 1.018-1.011 0-.559-.456-1.011-1.018-1.011s-1.019.452-1.019 1.01c0 .56.456 1.012 1.019 1.012M161.922 36.065a.59.59 0 0 0 .594-.59.59.59 0 0 0-.594-.59.59.59 0 0 0-.594.59c0 .326.266.59.594.59"/><path d="M161.922 36.065a.59.59 0 0 0 .594-.59.59.59 0 0 0-.594-.59.59.59 0 0 0-.594.59c0 .326.266.59.594.59M171.742 32.209a.59.59 0 0 0 .594-.59.59.59 0 0 0-.594-.59.59.59 0 0 0-.595.59c0 .326.266.59.595.59"/><path d="M171.742 32.209a.59.59 0 0 0 .594-.59.59.59 0 0 0-.594-.59.59.59 0 0 0-.595.59c0 .326.266.59.595.59M174.776 26.08a.59.59 0 0 0 .594-.589.59.59 0 0 0-.594-.59.59.59 0 0 0-.594.59c0 .326.266.59.594.59"/><path d="M174.776 26.08a.59.59 0 0 0 .594-.589.59.59 0 0 0-.594-.59.59.59 0 0 0-.594.59c0 .326.266.59.594.59M177.091 35.58a.74.74 0 0 0 .743-.738.74.74 0 0 0-.743-.737.74.74 0 0 0-.743.737.74.74 0 0 0 .743.737"/><path d="M177.091 35.58a.74.74 0 0 0 .743-.738.74.74 0 0 0-.743-.737.74.74 0 0 0-.743.737.74.74 0 0 0 .743.737M175.787 37.29c.215 0 .39-.173.39-.387a.39.39 0 0 0-.39-.387.39.39 0 0 0-.39.387c0 .214.175.387.39.387"/><path d="M175.787 37.29c.215 0 .39-.173.39-.387a.39.39 0 0 0-.39-.387.39.39 0 0 0-.39.387c0 .214.175.387.39.387M176.43 36.466c.215 0 .39-.174.39-.387a.39.39 0 0 0-.39-.388.39.39 0 0 0-.39.388c0 .213.174.387.39.387"/><path d="M176.43 36.466c.215 0 .39-.174.39-.387a.39.39 0 0 0-.39-.388.39.39 0 0 0-.39.388c0 .213.174.387.39.387M164.29 28.38c.96 0 1.738-.773 1.738-1.726s-.778-1.725-1.738-1.725-1.738.772-1.738 1.725.778 1.725 1.738 1.725"/><path d="M164.29 28.38c.96 0 1.738-.773 1.738-1.726s-.778-1.725-1.738-1.725-1.738.772-1.738 1.725.778 1.725 1.738 1.725M177.366 33.689c.805 0 1.458-.648 1.458-1.447 0-.8-.653-1.448-1.458-1.448-.806 0-1.459.648-1.459 1.448s.653 1.447 1.459 1.447"/><path d="M177.366 33.689c.805 0 1.458-.648 1.458-1.447 0-.8-.653-1.448-1.458-1.448-.806 0-1.459.648-1.459 1.448s.653 1.447 1.459 1.447M165.328 22.701c.373 0 .676-.3.676-.67s-.303-.67-.676-.67-.675.3-.675.67.302.67.675.67"/><path d="M165.328 22.701c.373 0 .676-.3.676-.67s-.303-.67-.676-.67-.675.3-.675.67.302.67.675.67M173.98 27.528c.373 0 .675-.3.675-.67s-.302-.67-.675-.67-.675.3-.675.67.302.67.675.67"/><path d="M173.98 27.528c.373 0 .675-.3.675-.67s-.302-.67-.675-.67-.675.3-.675.67.302.67.675.67M168.388 26.241c.373 0 .676-.3.676-.67s-.303-.67-.676-.67-.675.3-.675.67.302.67.675.67"/><path d="M168.388 26.241c.373 0 .676-.3.676-.67s-.303-.67-.676-.67-.675.3-.675.67.302.67.675.67M162.8 23.98a.445.445 0 0 0 .447-.444c0-.245-.2-.443-.447-.443a.444.444 0 1 0 0 .886"/><path d="M162.8 23.98a.445.445 0 0 0 .447-.444c0-.245-.2-.443-.447-.443a.444.444 0 1 0 0 .886M163.81 23.082a.445.445 0 0 0 .447-.443c0-.245-.2-.444-.447-.444a.445.445 0 0 0-.446.444c0 .244.2.443.446.443"/><path d="M163.81 23.082a.445.445 0 0 0 .447-.443c0-.245-.2-.444-.447-.444a.445.445 0 0 0-.446.444c0 .244.2.443.446.443M174.355 28.599a.445.445 0 0 0 .446-.444c0-.245-.2-.443-.446-.443a.445.445 0 0 0-.447.443c0 .245.2.444.447.444"/><path d="M174.355 28.599a.445.445 0 0 0 .446-.444c0-.245-.2-.443-.446-.443a.445.445 0 0 0-.447.443c0 .245.2.444.447.444M165.007 38.588a2.127 2.127 0 0 0 2.135-2.12c0-1.17-.956-2.118-2.135-2.118a2.127 2.127 0 0 0-2.135 2.119c0 1.17.956 2.119 2.135 2.119"/><path d="M165.007 38.588a2.127 2.127 0 0 0 2.135-2.12c0-1.17-.956-2.118-2.135-2.118a2.127 2.127 0 0 0-2.135 2.119c0 1.17.956 2.119 2.135 2.119M170.146 34.888a.6.6 0 0 0 .603-.6c0-.33-.27-.598-.603-.598a.6.6 0 0 0-.604.599c0 .33.27.599.604.599"/><path d="M170.146 34.888a.6.6 0 0 0 .603-.6c0-.33-.27-.598-.603-.598a.6.6 0 0 0-.604.599c0 .33.27.599.604.599M168.224 24.509c1.118 0 2.025-.9 2.025-2.01s-.907-2.01-2.025-2.01-2.025.9-2.025 2.01.907 2.01 2.025 2.01"/><path d="M168.224 24.509c1.118 0 2.025-.9 2.025-2.01s-.907-2.01-2.025-2.01-2.025.9-2.025 2.01.907 2.01 2.025 2.01M176.843 29.32c1.095 0 1.982-.881 1.982-1.968a1.974 1.974 0 0 0-1.982-1.967c-1.095 0-1.982.88-1.982 1.967s.887 1.968 1.982 1.968"/><path d="M176.843 29.32c1.095 0 1.982-.881 1.982-1.968a1.974 1.974 0 0 0-1.982-1.967c-1.095 0-1.982.88-1.982 1.967s.887 1.968 1.982 1.968M168.625 40c.905 0 1.639-.728 1.639-1.626 0-.899-.734-1.627-1.639-1.627s-1.639.728-1.639 1.627c0 .898.734 1.626 1.639 1.626"/><path d="M168.625 40c.905 0 1.639-.728 1.639-1.626 0-.899-.734-1.627-1.639-1.627s-1.639.728-1.639 1.627c0 .898.734 1.626 1.639 1.626M161.997 24.774a.393.393 0 0 0 .394-.392.393.393 0 0 0-.394-.39.39.39 0 0 0-.394.39c0 .217.176.392.394.392"/><path d="M161.997 24.774a.393.393 0 0 0 .394-.392.393.393 0 0 0-.394-.39.39.39 0 0 0-.394.39c0 .217.176.392.394.392M166.366 39.514c.249 0 .45-.2.45-.446a.45.45 0 0 0-.45-.446c-.248 0-.449.2-.449.446s.201.446.449.446"/><path d="M166.366 39.514c.249 0 .45-.2.45-.446a.45.45 0 0 0-.45-.446c-.248 0-.449.2-.449.446s.201.446.449.446M163.898 30.275a.557.557 0 0 0 .559-.555.557.557 0 0 0-.559-.556c-.31 0-.56.249-.56.555s.25.556.56.556"/><path d="M163.898 30.275a.557.557 0 0 0 .559-.555.557.557 0 0 0-.559-.556c-.31 0-.56.249-.56.555s.25.556.56.556M170.649 39.92a.4.4 0 0 0 .402-.4.4.4 0 0 0-.402-.399.4.4 0 0 0-.403.4c0 .22.18.4.403.4"/><path d="M170.649 39.92a.4.4 0 0 0 .402-.4.4.4 0 0 0-.402-.399.4.4 0 0 0-.403.4c0 .22.18.4.403.4M163.918 31.597a.4.4 0 0 0 .403-.4c0-.22-.181-.4-.403-.4a.4.4 0 0 0-.402.4c0 .221.18.4.402.4"/><path d="M163.918 31.597a.4.4 0 0 0 .403-.4c0-.22-.181-.4-.403-.4a.4.4 0 0 0-.402.4c0 .221.18.4.402.4M164.927 24.166a.635.635 0 0 0 .638-.633.635.635 0 0 0-.638-.634.636.636 0 0 0-.638.634c0 .35.286.633.638.633"/><path d="M164.927 24.166a.635.635 0 0 0 .638-.633.635.635 0 0 0-.638-.634.636.636 0 0 0-.638.634c0 .35.286.633.638.633M170.369 21.234a.33.33 0 0 0 .332-.33.33.33 0 0 0-.332-.33.33.33 0 1 0 0 .66"/><path d="M170.369 21.234a.33.33 0 0 0 .332-.33.33.33 0 0 0-.332-.33.33.33 0 1 0 0 .66M159.964 29.126a.33.33 0 0 0 .332-.33.33.33 0 0 0-.332-.33.33.33 0 0 0-.333.33c0 .183.149.33.333.33"/><path d="M159.964 29.126a.33.33 0 0 0 .332-.33.33.33 0 0 0-.332-.33.33.33 0 0 0-.333.33c0 .183.149.33.333.33M171.226 21.322a.33.33 0 1 0 0-.66.33.33 0 0 0-.332.33c0 .182.149.33.332.33"/><path d="M171.226 21.322a.33.33 0 1 0 0-.66.33.33 0 0 0-.332.33c0 .182.149.33.332.33M163.998 34.139c.623 0 1.128-.501 1.128-1.12 0-.618-.505-1.119-1.128-1.119s-1.127.501-1.127 1.12c0 .618.504 1.119 1.127 1.119"/><path d="M163.998 34.139c.623 0 1.128-.501 1.128-1.12 0-.618-.505-1.119-1.128-1.119s-1.127.501-1.127 1.12c0 .618.504 1.119 1.127 1.119M178.395 30.662a.79.79 0 0 0 .793-.786.79.79 0 0 0-.793-.787.79.79 0 0 0-.792.787c0 .434.354.786.792.786"/><path d="M178.395 30.662a.79.79 0 0 0 .793-.786.79.79 0 0 0-.793-.787.79.79 0 0 0-.792.787c0 .434.354.786.792.786M175.841 24.42c.315 0 .57-.254.57-.567a.57.57 0 0 0-.57-.566.57.57 0 0 0-.571.567c0 .312.256.566.571.566"/><path d="M175.841 24.42c.315 0 .57-.254.57-.567a.57.57 0 0 0-.57-.566.57.57 0 0 0-.571.567c0 .312.256.566.571.566"/></g></g><path fill="#0d1d3b" fill-rule="evenodd" d="M197.817 30.15c1.189 0 1.945-.616 1.945-1.568v-.027c0-1.005-.729-1.554-1.959-1.554h-2.417v3.149zm-4.091-3.82c0-.468.364-.83.837-.83h3.376c1.189 0 2.121.348 2.728.938.5.51.783 1.206.783 2.023v.027c0 1.5-.877 2.413-2.147 2.801l1.81 2.265c.162.201.27.375.27.63 0 .455-.392.764-.797.764-.378 0-.621-.175-.81-.43l-2.297-2.908h-2.093v2.52a.815.815 0 0 1-.823.817.82.82 0 0 1-.837-.817z" clip-rule="evenodd"/><path fill="#0d1d3b" fill-rule="evenodd" d="M197.817 30.15c1.189 0 1.945-.616 1.945-1.568v-.027c0-1.005-.729-1.554-1.959-1.554h-2.417v3.149zm-4.091-3.82c0-.468.364-.83.837-.83h3.376c1.189 0 2.121.348 2.728.938.5.51.783 1.206.783 2.023v.027c0 1.5-.877 2.413-2.147 2.801l1.81 2.265c.162.201.27.375.27.63 0 .455-.392.764-.797.764-.378 0-.621-.175-.81-.43l-2.297-2.908h-2.093v2.52a.815.815 0 0 1-.823.817.82.82 0 0 1-.837-.817zM204.935 26.25a.82.82 0 0 1 .838-.817c.459 0 .823.362.823.817v7.88a.815.815 0 0 1-.823.817.82.82 0 0 1-.838-.818z" clip-rule="evenodd"/><path fill="#0d1d3b" fill-rule="evenodd" d="M204.935 26.25a.82.82 0 0 1 .838-.817c.459 0 .823.362.823.817v7.88a.815.815 0 0 1-.823.817.82.82 0 0 1-.838-.818zM213.213 34.344l-3.308-7.719a.9.9 0 0 1-.095-.388c0-.442.365-.804.838-.804.432 0 .716.24.85.59l2.729 6.767 2.768-6.821a.86.86 0 0 1 .797-.536c.459 0 .824.349.824.79 0 .12-.04.255-.081.349l-3.322 7.772c-.177.416-.486.67-.959.67h-.095c-.459 0-.77-.254-.946-.67" clip-rule="evenodd"/><path fill="#0d1d3b" fill-rule="evenodd" d="m213.213 34.344-3.308-7.719a.9.9 0 0 1-.095-.388c0-.442.365-.804.838-.804.432 0 .716.24.85.59l2.729 6.767 2.768-6.821a.86.86 0 0 1 .797-.536c.459 0 .824.349.824.79 0 .12-.04.255-.081.349l-3.322 7.772c-.177.416-.486.67-.959.67h-.095c-.459 0-.77-.254-.946-.67M221.818 26.25c0-.455.364-.817.837-.817.459 0 .824.362.824.817v7.88a.816.816 0 0 1-.824.817.82.82 0 0 1-.837-.818z" clip-rule="evenodd"/><path fill="#0d1d3b" fill-rule="evenodd" d="M221.818 26.25c0-.455.364-.817.837-.817.459 0 .824.362.824.817v7.88a.816.816 0 0 1-.824.817.82.82 0 0 1-.837-.818zM229.677 27.028h-2.296a.766.766 0 0 1-.769-.764c0-.416.337-.764.769-.764h6.28a.764.764 0 0 1 0 1.527h-2.309v7.103a.83.83 0 0 1-.837.817.827.827 0 0 1-.838-.817z" clip-rule="evenodd"/><path fill="#0d1d3b" fill-rule="evenodd" d="M229.677 27.028h-2.296a.766.766 0 0 1-.769-.764c0-.416.337-.764.769-.764h6.28a.764.764 0 0 1 0 1.527h-2.309v7.103a.83.83 0 0 1-.837.817.827.827 0 0 1-.838-.817zM241.751 31.155l-1.662-3.792-1.661 3.792zm-6.186 2.653 3.513-7.772c.188-.415.526-.67.999-.67h.081c.472 0 .796.255.986.67l3.511 7.772a.7.7 0 0 1 .095.349c0 .442-.338.79-.784.79-.392 0-.662-.228-.811-.576l-.769-1.755h-4.591l-.797 1.809a.8.8 0 0 1-.77.522.76.76 0 0 1-.77-.764c0-.12.041-.241.107-.375" clip-rule="evenodd"/><path fill="#0d1d3b" fill-rule="evenodd" d="m241.751 31.155-1.662-3.792-1.661 3.792zm-6.186 2.653 3.513-7.772c.188-.415.526-.67.999-.67h.081c.472 0 .796.255.986.67l3.511 7.772a.7.7 0 0 1 .095.349c0 .442-.338.79-.784.79-.392 0-.662-.228-.811-.576l-.769-1.755h-4.591l-.797 1.809a.8.8 0 0 1-.77.522.76.76 0 0 1-.77-.764c0-.12.041-.241.107-.375M186.946 30.378c1.255 0 2.039-.697 2.039-1.675v-.027c0-1.098-.797-1.675-2.039-1.675h-1.932v3.377zm-3.592-4.047a.82.82 0 0 1 .836-.831h2.89c2.215 0 3.593 1.246 3.593 3.136v.027c0 2.103-1.702 3.202-3.781 3.202h-1.878v2.265a.815.815 0 0 1-.824.817.82.82 0 0 1-.836-.817z" clip-rule="evenodd"/><path fill="#0d1d3b" fill-rule="evenodd" d="M186.946 30.378c1.255 0 2.039-.697 2.039-1.675v-.027c0-1.098-.797-1.675-2.039-1.675h-1.932v3.377zm-3.592-4.047a.82.82 0 0 1 .836-.831h2.89c2.215 0 3.593 1.246 3.593 3.136v.027c0 2.103-1.702 3.202-3.781 3.202h-1.878v2.265a.815.815 0 0 1-.824.817.82.82 0 0 1-.836-.817zM250.638 30.15c1.189 0 1.945-.616 1.945-1.568v-.027c0-1.005-.729-1.554-1.959-1.554h-2.417v3.149zm-4.092-3.82c0-.468.364-.83.837-.83h3.377c1.188 0 2.12.348 2.728.938.499.51.783 1.206.783 2.023v.027c0 1.5-.878 2.413-2.147 2.801l1.809 2.265c.162.201.27.375.27.63 0 .455-.391.764-.797.764-.378 0-.621-.175-.81-.43L250.3 31.61h-2.093v2.52a.815.815 0 0 1-.824.817.82.82 0 0 1-.837-.817z" clip-rule="evenodd"/><path fill="#0d1d3b" fill-rule="evenodd" d="M250.638 30.15c1.189 0 1.945-.616 1.945-1.568v-.027c0-1.005-.729-1.554-1.959-1.554h-2.417v3.149zm-4.092-3.82c0-.468.364-.83.837-.83h3.377c1.188 0 2.12.348 2.728.938.499.51.783 1.206.783 2.023v.027c0 1.5-.878 2.413-2.147 2.801l1.809 2.265c.162.201.27.375.27.63 0 .455-.391.764-.797.764-.378 0-.621-.175-.81-.43L250.3 31.61h-2.093v2.52a.815.815 0 0 1-.824.817.82.82 0 0 1-.837-.817z" clip-rule="evenodd"/></g><g clip-path="url(#d)"><path fill="#373737" d="M317.951 26.515c-.874 0-1.569.374-2.07 1.11v-.97h-1.069v6.68h1.069v-3.814c0-1.166.743-1.98 1.802-1.98 1.038 0 1.658.712 1.658 1.905v3.89h1.068v-4.132c0-.792-.224-1.461-.646-1.94-.431-.49-1.06-.749-1.812-.749M331.155 30v.026c0 1.396-.958 2.447-2.225 2.447-1.253 0-2.238-1.087-2.238-2.473v-.026c0-1.404.95-2.46 2.216-2.46 1.262 0 2.247 1.091 2.247 2.486m-2.225-3.485c-.919 0-1.763.37-2.387 1.038a3.57 3.57 0 0 0-.941 2.447v.026c0 1.941 1.451 3.46 3.306 3.46.919 0 1.768-.37 2.392-1.04.612-.655.95-1.522.95-2.446v-.026c0-1.94-1.46-3.46-3.32-3.46M334.616 28.121v-1.465h-1.069v6.68h1.069V30.66c0-1.777.945-2.974 2.405-2.974h.141V26.54l-.066-.004c-1.029-.04-1.939.546-2.48 1.584M345.419 26.515c-.923 0-1.64.404-2.19 1.232-.409-.797-1.121-1.232-2.014-1.232-1.002 0-1.569.54-1.947 1.082v-.942h-1.069v6.68h1.069v-3.802c0-1.152.703-1.993 1.67-1.993.963 0 1.539.704 1.539 1.879v3.917h1.069v-3.838c0-.594.167-1.096.488-1.448a1.55 1.55 0 0 1 1.161-.506c.985 0 1.547.696 1.547 1.906v3.89h1.069V29.22c-.005-1.672-.919-2.706-2.392-2.706M359.537 27.65v-1h-2.005v-2.323l-1.068.625v1.703h-1.165v.999h1.161v3.877c0 1.668 1.147 1.914 1.833 1.914a2.35 2.35 0 0 0 1.157-.286l.035-.017v-.986l-.101.048c-.313.159-.563.22-.875.22-.66 0-.981-.334-.981-1.02V27.65zM368.401 31.523c-.567.638-1.178.95-1.855.95-1.249 0-2.225-1.087-2.225-2.473v-.026c0-1.382.95-2.46 2.167-2.46.849 0 1.39.462 1.847.963l.053.058.708-.788-.04-.044c-.497-.555-1.235-1.188-2.55-1.188-.892 0-1.719.37-2.335 1.038a3.6 3.6 0 0 0-.936 2.447v.026c0 .916.334 1.778.936 2.43a3.15 3.15 0 0 0 2.335 1.03c1.328 0 2.089-.691 2.603-1.29l.044-.048-.69-.678zM353.575 30.114v.744c0 .972-.87 1.703-2.022 1.703-1.034 0-1.5-.638-1.5-1.232v-.027c0-.541.304-1.188 1.755-1.188zm-1.706-3.6c-1.011 0-1.732.278-2.299.55l-.058.027.326.928.07-.035c.515-.246 1.095-.475 1.869-.475 1.148 0 1.803.528 1.803 1.742h-1.865c-1.741 0-2.739.762-2.739 2.086v.027c0 1.382 1.209 2.108 2.401 2.108 1.095 0 1.794-.51 2.203-.995v.858h1.02V29.27c0-.84-.22-1.549-.66-2.006-.475-.498-1.169-.749-2.071-.749M323.434 26.03c0-.958.247-1.32 1.007-1.32.295 0 .528.054.884.164l.066.017v-.99l-.022-.009c-.317-.119-.624-.167-1.051-.167-.58 0-1.06.18-1.389.528-.37.387-.563.981-.563 1.73v.673h-1.161v.999h1.161v5.68h1.068V27.65h2.005v-.999h-2.005zM361.925 33.331h-1.069v-6.676h1.069zM374.403 30.114v.744c0 .972-.87 1.703-2.022 1.703-1.034 0-1.504-.638-1.504-1.232v-.027c0-.541.303-1.188 1.754-1.188zm-1.71-3.6c-1.011 0-1.732.278-2.3.55l-.057.027.326.928.07-.035c.514-.246 1.095-.475 1.869-.475 1.147 0 1.802.528 1.802 1.742h-1.864c-1.741 0-2.739.762-2.739 2.086v.027c0 1.382 1.209 2.108 2.4 2.108 1.095 0 1.794-.51 2.203-.995v.858h1.02V29.27c0-.84-.219-1.549-.659-2.006-.475-.498-1.17-.749-2.071-.749M376.302 27.201h.137a.17.17 0 0 0 .101-.03.09.09 0 0 0 .039-.075c0-.044-.013-.07-.035-.088q-.031-.027-.123-.027h-.119zm0 .115v.294h-.123v-.743h.242q.133-.002.207.057c.048.04.074.092.074.167 0 .07-.035.128-.109.163q.105.045.105.176v.053c0 .048.004.088.013.11v.013h-.127a.3.3 0 0 1-.013-.114c0-.058 0-.084-.005-.097q-.014-.084-.114-.088h-.15zm-.387-.066q0 .15.071.277c.048.083.11.154.189.202q.12.072.259.07a.5.5 0 0 0 .26-.074.5.5 0 0 0 .189-.203.59.59 0 0 0 0-.554.5.5 0 0 0-.189-.198.49.49 0 0 0-.519-.005.5.5 0 0 0-.189.198.6.6 0 0 0-.071.287m-.101 0q0-.181.084-.326a.62.62 0 0 1 .536-.326.61.61 0 0 1 .537.326.677.677 0 0 1 .004.647.62.62 0 0 1-.541.334.626.626 0 0 1-.541-.335.7.7 0 0 1-.079-.32"/><path fill="#ff4d00" d="m292.437 31.91 7.021 3.934.264-2.993-1.948-2.077-2.88-.475z"/><path fill="#ff7d00" d="m293.619 18.312 5.839 17.532L305.297 30z"/><path fill="#001aff" d="m292.683 27.598-.246 4.312 8.974-1.91z"/><path fill="#e23400" d="m281.946 30 6.235 6.24 1.16-1.558-.211-1.87-2.862-1.857z"/><path fill="#ff4d00" d="M292.991 18.946 281.946 30l7.184 2.813z"/><path fill="#ff7d00" d="m289.13 32.813-.95 3.428 5.439 5.447 5.118-5.117z"/><path fill="#373737" d="M313.071 33.331h-1.091v-8.845l1.091-.634zM361.956 25.454h-1.126V24.28h1.126z"/></g><path fill="#469ddc" d="M315.326 49.508a3.5 3.5 0 0 1 1.15-.799 3.5 3.5 0 0 1 1.37-.286c.629 0 1.244.174 1.784.493.541.324.98.786 1.282 1.335a4.4 4.4 0 0 1 1.753-.375c1.15 0 2.256.462 3.066 1.28A4.36 4.36 0 0 1 327 54.238a4.39 4.39 0 0 1-1.269 3.082 4.33 4.33 0 0 1-3.066 1.279q-.426.002-.842-.1a3.13 3.13 0 0 1-1.797 1.472 3.26 3.26 0 0 1-2.325-.168 3.45 3.45 0 0 1-1.37 1.616 3.6 3.6 0 0 1-2.042.58 3.4 3.4 0 0 1-1.992-.661 3.55 3.55 0 0 1-1.275-1.685q-.34.076-.698.069a3.4 3.4 0 0 1-1.665-.474 3.423 3.423 0 0 1-1.659-2.92c0-.587.151-1.167.44-1.685a3.34 3.34 0 0 1 1.225-1.23 3.87 3.87 0 0 1-.12-2.744 3.97 3.97 0 0 1 1.716-2.134 3.77 3.77 0 0 1 2.707-.455 3.76 3.76 0 0 1 2.35 1.422l.007.006z"/><defs><clipPath id="d"><path fill="#fff" d="M281 18h97v24h-97z"/></clipPath></defs></svg>