<svg xmlns="http://www.w3.org/2000/svg" width="145" height="21" fill="none" viewBox="0 0 145 21"><g fill="#0d1d3b" fill-rule="evenodd" clip-rule="evenodd"><path d="M29.836 9.807c2.413 0 3.948-1.264 3.948-3.215v-.055c0-2.06-1.48-3.186-3.977-3.186h-4.91v6.456zm-8.31-7.83c0-.961.74-1.703 1.7-1.703h6.858c2.413 0 4.305.714 5.54 1.923 1.014 1.044 1.59 2.472 1.59 4.148V6.4c0 3.076-1.782 4.946-4.361 5.742l3.675 4.643c.33.412.548.768.548 1.29 0 .934-.795 1.567-1.618 1.567-.768 0-1.262-.358-1.645-.88l-4.664-5.961h-4.251v5.165c0 .933-.739 1.676-1.672 1.676-.96 0-1.7-.743-1.7-1.676z"/><path d="M29.836 9.807c2.413 0 3.948-1.264 3.948-3.215v-.055c0-2.06-1.48-3.186-3.977-3.186h-4.91v6.456zm-8.31-7.83c0-.961.74-1.703 1.7-1.703h6.858c2.413 0 4.305.714 5.54 1.923 1.014 1.044 1.59 2.472 1.59 4.148V6.4c0 3.076-1.782 4.946-4.361 5.742l3.675 4.643c.33.412.548.768.548 1.29 0 .934-.795 1.567-1.618 1.567-.768 0-1.262-.358-1.645-.88l-4.664-5.961h-4.251v5.165c0 .933-.739 1.676-1.672 1.676-.96 0-1.7-.743-1.7-1.676zM44.291 1.813c0-.933.742-1.676 1.702-1.676.932 0 1.672.743 1.672 1.676v16.152c0 .935-.74 1.676-1.672 1.676-.96 0-1.702-.741-1.702-1.676z"/><path d="M44.291 1.813c0-.933.742-1.676 1.702-1.676.932 0 1.672.743 1.672 1.676v16.152c0 .935-.74 1.676-1.672 1.676-.96 0-1.702-.741-1.702-1.676zM61.104 18.405l-6.72-15.824c-.109-.246-.192-.493-.192-.796 0-.905.742-1.648 1.702-1.648.877 0 1.453.494 1.727 1.208l5.54 13.874 5.623-13.983a1.74 1.74 0 0 1 1.618-1.1c.932 0 1.674.716 1.674 1.622 0 .247-.082.522-.164.714l-6.748 15.933c-.358.852-.987 1.375-1.947 1.375h-.193c-.932 0-1.563-.523-1.92-1.375"/><path d="m61.104 18.405-6.72-15.824c-.109-.246-.192-.493-.192-.796 0-.905.742-1.648 1.702-1.648.877 0 1.453.494 1.727 1.208l5.54 13.874 5.623-13.983a1.74 1.74 0 0 1 1.618-1.1c.932 0 1.674.716 1.674 1.622 0 .247-.082.522-.164.714l-6.748 15.933c-.358.852-.987 1.375-1.947 1.375h-.193c-.932 0-1.563-.523-1.92-1.375M78.579 1.813c0-.933.74-1.676 1.7-1.676.932 0 1.674.743 1.674 1.676v16.152c0 .935-.742 1.676-1.674 1.676-.96 0-1.7-.741-1.7-1.676z"/><path d="M78.579 1.813c0-.933.74-1.676 1.7-1.676.932 0 1.674.743 1.674 1.676v16.152c0 .935-.742 1.676-1.674 1.676-.96 0-1.7-.741-1.7-1.676zM94.54 3.406h-4.662a1.56 1.56 0 0 1-1.563-1.565c0-.853.684-1.567 1.563-1.567h12.754c.85 0 1.537.714 1.537 1.567 0 .85-.687 1.565-1.537 1.565h-4.69v14.56c0 .933-.769 1.676-1.7 1.676-.934 0-1.701-.743-1.701-1.676z"/><path d="M94.54 3.406h-4.662a1.56 1.56 0 0 1-1.563-1.565c0-.853.684-1.567 1.563-1.567h12.754c.85 0 1.537.714 1.537 1.567 0 .85-.687 1.565-1.537 1.565h-4.69v14.56c0 .933-.769 1.676-1.7 1.676-.934 0-1.701-.743-1.701-1.676zM119.061 11.867l-3.374-7.774-3.374 7.774zm-12.562 5.44 7.133-15.934c.383-.85 1.07-1.373 2.03-1.373h.164c.959 0 1.617.522 2.002 1.373l7.131 15.933c.137.247.193.495.193.714 0 .907-.687 1.621-1.591 1.621-.797 0-1.345-.467-1.648-1.18l-1.561-3.6h-9.325l-1.619 3.709c-.275.688-.851 1.071-1.564 1.071a1.55 1.55 0 0 1-1.564-1.566c0-.247.084-.495.219-.769"/><path d="m119.061 11.867-3.374-7.774-3.374 7.774zm-12.562 5.44 7.133-15.934c.383-.85 1.07-1.373 2.03-1.373h.164c.959 0 1.617.522 2.002 1.373l7.131 15.933c.137.247.193.495.193.714 0 .907-.687 1.621-1.591 1.621-.797 0-1.345-.467-1.648-1.18l-1.561-3.6h-9.325l-1.619 3.709c-.275.688-.851 1.071-1.564 1.071a1.55 1.55 0 0 1-1.564-1.566c0-.247.084-.495.219-.769M7.756 10.274c2.55 0 4.142-1.428 4.142-3.434v-.055c0-2.251-1.619-3.433-4.142-3.433H3.833v6.922zM.461 1.978c0-.96.739-1.704 1.7-1.704H8.03c4.497 0 7.296 2.555 7.296 6.429v.055c0 4.312-3.457 6.565-7.68 6.565H3.835v4.643c0 .933-.74 1.676-1.674 1.676-.96 0-1.7-.743-1.7-1.676z"/><path d="M7.756 10.274c2.55 0 4.142-1.428 4.142-3.434v-.055c0-2.251-1.619-3.433-4.142-3.433H3.833v6.922zM.461 1.978c0-.96.739-1.704 1.7-1.704H8.03c4.497 0 7.296 2.555 7.296 6.429v.055c0 4.312-3.457 6.565-7.68 6.565H3.835v4.643c0 .933-.74 1.676-1.674 1.676-.96 0-1.7-.743-1.7-1.676zM137.11 9.807c2.415 0 3.95-1.264 3.95-3.215v-.055c0-2.06-1.48-3.186-3.977-3.186h-4.909v6.456zm-8.31-7.83c0-.961.74-1.703 1.7-1.703h6.858c2.413 0 4.306.714 5.54 1.923 1.015 1.044 1.591 2.472 1.591 4.148V6.4c0 3.076-1.783 4.946-4.36 5.742l3.673 4.643c.33.412.549.768.549 1.29 0 .934-.794 1.567-1.619 1.567-.767 0-1.261-.358-1.644-.88l-4.663-5.961h-4.251v5.165c0 .933-.74 1.676-1.674 1.676-.96 0-1.7-.743-1.7-1.676z"/><path d="M137.11 9.807c2.415 0 3.95-1.264 3.95-3.215v-.055c0-2.06-1.48-3.186-3.977-3.186h-4.909v6.456zm-8.31-7.83c0-.961.74-1.703 1.7-1.703h6.858c2.413 0 4.306.714 5.54 1.923 1.015 1.044 1.591 2.472 1.591 4.148V6.4c0 3.076-1.783 4.946-4.36 5.742l3.673 4.643c.33.412.549.768.549 1.29 0 .934-.794 1.567-1.619 1.567-.767 0-1.261-.358-1.644-.88l-4.663-5.961h-4.251v5.165c0 .933-.74 1.676-1.674 1.676-.96 0-1.7-.743-1.7-1.676z"/></g></svg>