<svg xmlns="http://www.w3.org/2000/svg" width="40" height="40" fill="none" viewBox="0 0 40 40"><g fill="#0d1d3b"><path d="M27.82 9.693c2.203 0 3.99-1.789 3.99-3.996A3.993 3.993 0 0 0 27.82 1.7a3.993 3.993 0 0 0-3.989 3.997 3.993 3.993 0 0 0 3.99 3.996"/><path d="M27.82 9.693c2.203 0 3.99-1.789 3.99-3.996A3.993 3.993 0 0 0 27.82 1.7a3.993 3.993 0 0 0-3.989 3.997 3.993 3.993 0 0 0 3.99 3.996M28.733 33.774a5.046 5.046 0 0 0 5.041-5.05 5.046 5.046 0 0 0-5.041-5.052 5.046 5.046 0 0 0-5.042 5.051 5.046 5.046 0 0 0 5.042 5.051"/><path d="M28.733 33.774a5.046 5.046 0 0 0 5.041-5.05 5.046 5.046 0 0 0-5.041-5.052 5.046 5.046 0 0 0-5.042 5.051 5.046 5.046 0 0 0 5.042 5.051M16.606 26.897a5.88 5.88 0 0 0 5.873-5.884c0-3.25-2.63-5.884-5.873-5.884a5.88 5.88 0 0 0-5.873 5.884c0 3.25 2.63 5.884 5.873 5.884"/><path d="M16.606 26.897a5.88 5.88 0 0 0 5.873-5.884c0-3.25-2.63-5.884-5.873-5.884a5.88 5.88 0 0 0-5.873 5.884c0 3.25 2.63 5.884 5.873 5.884"/><g opacity=".8"><path d="M18.02 31.727a2.045 2.045 0 0 0 2.043-2.048c0-1.13-.915-2.047-2.043-2.047a2.045 2.045 0 0 0-2.044 2.047c0 1.131.915 2.048 2.044 2.048"/><path d="M18.02 31.727a2.045 2.045 0 0 0 2.043-2.048c0-1.13-.915-2.047-2.043-2.047a2.045 2.045 0 0 0-2.044 2.047c0 1.131.915 2.048 2.044 2.048M25.69 39.027a1.64 1.64 0 0 0 1.637-1.641 1.64 1.64 0 0 0-1.637-1.64 1.64 1.64 0 0 0-1.638 1.64c0 .906.733 1.64 1.638 1.64"/><path d="M25.69 39.027a1.64 1.64 0 0 0 1.637-1.641 1.64 1.64 0 0 0-1.637-1.64 1.64 1.64 0 0 0-1.638 1.64c0 .906.733 1.64 1.638 1.64M34.93 9.514a.773.773 0 1 0-.001-1.547.773.773 0 0 0 .001 1.547"/><path d="M34.93 9.514a.773.773 0 1 0-.001-1.547.773.773 0 0 0 .001 1.547M3.799 24.785a3.8 3.8 0 0 0 3.798-3.806c0-2.102-1.7-3.806-3.798-3.806A3.8 3.8 0 0 0 0 20.979c0 2.102 1.7 3.806 3.799 3.806"/><path d="M3.799 24.785a3.8 3.8 0 0 0 3.798-3.806c0-2.102-1.7-3.806-3.798-3.806A3.8 3.8 0 0 0 0 20.979c0 2.102 1.7 3.806 3.799 3.806M3.367 29.317a1.947 1.947 0 0 0 1.946-1.949c0-1.076-.871-1.95-1.946-1.95a1.947 1.947 0 0 0-1.945 1.95c0 1.077.87 1.95 1.945 1.95"/><path d="M3.367 29.317a1.947 1.947 0 0 0 1.946-1.949c0-1.076-.871-1.95-1.946-1.95a1.947 1.947 0 0 0-1.945 1.95c0 1.077.87 1.95 1.945 1.95M22.406 16.228a2.936 2.936 0 0 0 2.934-2.94 2.936 2.936 0 0 0-2.934-2.938 2.936 2.936 0 0 0-2.934 2.939 2.936 2.936 0 0 0 2.934 2.94"/><path d="M22.406 16.228a2.936 2.936 0 0 0 2.934-2.94 2.936 2.936 0 0 0-2.934-2.938 2.936 2.936 0 0 0-2.934 2.939 2.936 2.936 0 0 0 2.934 2.94M15.581 14.116a1.367 1.367 0 0 0 0-2.737c-.754 0-1.366.613-1.366 1.369s.612 1.368 1.366 1.368"/><path d="M15.581 14.116a1.367 1.367 0 0 0 0-2.737c-.754 0-1.366.613-1.366 1.369s.612 1.368 1.366 1.368M22.823 9.677a1.042 1.042 0 1 0-.002-2.085 1.042 1.042 0 0 0 .002 2.085"/><path d="M22.823 9.677a1.042 1.042 0 1 0-.002-2.085 1.042 1.042 0 0 0 .002 2.085M30.393 22.999a1.91 1.91 0 0 0 1.906-1.91c0-1.055-.854-1.91-1.906-1.91a1.91 1.91 0 0 0-1.907 1.91c0 1.055.854 1.91 1.907 1.91"/><path d="M30.393 22.999a1.91 1.91 0 0 0 1.906-1.91c0-1.055-.854-1.91-1.906-1.91a1.91 1.91 0 0 0-1.907 1.91c0 1.055.854 1.91 1.907 1.91M25.958 20.993a2.396 2.396 0 0 0 2.394-2.398 2.396 2.396 0 0 0-2.394-2.398 2.396 2.396 0 0 0-2.393 2.398 2.396 2.396 0 0 0 2.393 2.398"/><path d="M25.958 20.993a2.396 2.396 0 0 0 2.394-2.398 2.396 2.396 0 0 0-2.394-2.398 2.396 2.396 0 0 0-2.393 2.398 2.396 2.396 0 0 0 2.393 2.398M21.96 33.774a1.64 1.64 0 0 0 1.639-1.641 1.64 1.64 0 0 0-1.638-1.64 1.64 1.64 0 0 0-1.638 1.64c0 .906.733 1.64 1.638 1.64"/><path d="M21.96 33.774a1.64 1.64 0 0 0 1.639-1.641 1.64 1.64 0 0 0-1.638-1.64 1.64 1.64 0 0 0-1.638 1.64c0 .906.733 1.64 1.638 1.64M2.825 16.663a2.07 2.07 0 0 0 2.068-2.073 2.07 2.07 0 0 0-2.068-2.072 2.07 2.07 0 0 0-2.07 2.072 2.07 2.07 0 0 0 2.07 2.073"/><path d="M2.825 16.663a2.07 2.07 0 0 0 2.068-2.073 2.07 2.07 0 0 0-2.068-2.072 2.07 2.07 0 0 0-2.07 2.072 2.07 2.07 0 0 0 2.07 2.073M4.936 31.934c.666 0 1.206-.541 1.206-1.209a1.208 1.208 0 1 0-1.206 1.21"/><path d="M4.936 31.934c.666 0 1.206-.541 1.206-1.209a1.208 1.208 0 1 0-1.206 1.21M24.878 24.028c.666 0 1.206-.541 1.206-1.209a1.208 1.208 0 1 0-2.413 0c0 .668.54 1.209 1.207 1.209"/><path d="M24.878 24.028c.666 0 1.206-.541 1.206-1.209a1.208 1.208 0 1 0-2.413 0c0 .668.54 1.209 1.207 1.209M31.04 11.466c.666 0 1.206-.542 1.206-1.21a1.208 1.208 0 1 0-1.207 1.21"/><path d="M31.04 11.466c.666 0 1.206-.542 1.206-1.21a1.208 1.208 0 1 0-1.207 1.21M35.742 30.939a1.51 1.51 0 0 0 1.51-1.512 1.51 1.51 0 0 0-1.51-1.512 1.51 1.51 0 0 0-1.509 1.512 1.51 1.51 0 0 0 1.51 1.512"/><path d="M35.742 30.939a1.51 1.51 0 0 0 1.51-1.512 1.51 1.51 0 0 0-1.51-1.512 1.51 1.51 0 0 0-1.509 1.512 1.51 1.51 0 0 0 1.51 1.512M33.094 34.444a.793.793 0 1 0-.002-1.586.793.793 0 0 0 .002 1.586"/><path d="M33.094 34.444a.793.793 0 1 0-.002-1.586.793.793 0 0 0 .002 1.586M34.399 32.755a.793.793 0 1 0-.002-1.586.793.793 0 0 0 .002 1.586"/><path d="M34.399 32.755a.793.793 0 1 0-.002-1.586.793.793 0 0 0 .002 1.586M9.744 16.178c1.95 0 3.53-1.584 3.53-3.537a3.533 3.533 0 0 0-3.53-3.537 3.533 3.533 0 0 0-3.53 3.537 3.533 3.533 0 0 0 3.53 3.537"/><path d="M9.744 16.178c1.95 0 3.53-1.584 3.53-3.537a3.533 3.533 0 0 0-3.53-3.537 3.533 3.533 0 0 0-3.53 3.537 3.533 3.533 0 0 0 3.53 3.537M36.3 27.063a2.965 2.965 0 0 0 2.96-2.968 2.965 2.965 0 0 0-2.96-2.967 2.965 2.965 0 0 0-2.963 2.967 2.965 2.965 0 0 0 2.962 2.968"/><path d="M36.3 27.063a2.965 2.965 0 0 0 2.96-2.968 2.965 2.965 0 0 0-2.96-2.967 2.965 2.965 0 0 0-2.963 2.967 2.965 2.965 0 0 0 2.962 2.968M11.853 4.538c.757 0 1.371-.616 1.371-1.375S12.61 1.79 11.853 1.79c-.758 0-1.372.615-1.372 1.374s.614 1.375 1.372 1.375"/><path d="M11.853 4.538c.757 0 1.371-.616 1.371-1.375S12.61 1.79 11.853 1.79c-.758 0-1.372.615-1.372 1.374s.614 1.375 1.372 1.375M29.424 14.433c.758 0 1.372-.615 1.372-1.374s-.614-1.374-1.372-1.374-1.372.615-1.372 1.374.614 1.374 1.372 1.374"/><path d="M29.424 14.433c.758 0 1.372-.615 1.372-1.374s-.614-1.374-1.372-1.374-1.372.615-1.372 1.374.614 1.374 1.372 1.374M18.067 11.794c.758 0 1.372-.616 1.372-1.375s-.614-1.374-1.372-1.374-1.372.615-1.372 1.374.614 1.374 1.372 1.374"/><path d="M18.067 11.794c.758 0 1.372-.616 1.372-1.375s-.614-1.374-1.372-1.374-1.372.615-1.372 1.374.614 1.374 1.372 1.374M6.719 7.157a.908.908 0 1 0-.002-1.815.908.908 0 0 0 .002 1.815"/><path d="M6.719 7.157a.908.908 0 1 0-.002-1.815.908.908 0 0 0 .002 1.815M8.77 5.317a.908.908 0 1 0-.001-1.815.908.908 0 0 0 .001 1.815"/><path d="M8.77 5.317a.908.908 0 1 0-.001-1.815.908.908 0 0 0 .001 1.815M30.185 16.626a.908.908 0 1 0-.001-1.816.908.908 0 0 0 .001 1.816"/><path d="M30.185 16.626a.908.908 0 1 0-.001-1.816.908.908 0 0 0 .001 1.816M11.2 37.106a4.34 4.34 0 0 0 4.337-4.345 4.34 4.34 0 0 0-4.337-4.344 4.34 4.34 0 0 0-4.336 4.344 4.34 4.34 0 0 0 4.337 4.345"/><path d="M11.2 37.106a4.34 4.34 0 0 0 4.337-4.345 4.34 4.34 0 0 0-4.337-4.344 4.34 4.34 0 0 0-4.336 4.344 4.34 4.34 0 0 0 4.337 4.345M21.636 29.52c.677 0 1.226-.55 1.226-1.23a1.227 1.227 0 1 0-1.226 1.23"/><path d="M21.636 29.52c.677 0 1.226-.55 1.226-1.23a1.227 1.227 0 1 0-1.226 1.23M17.734 8.243a4.116 4.116 0 0 0 4.112-4.12 4.116 4.116 0 0 0-4.112-4.12 4.116 4.116 0 0 0-4.112 4.12 4.116 4.116 0 0 0 4.112 4.12"/><path d="M17.734 8.243a4.116 4.116 0 0 0 4.112-4.12 4.116 4.116 0 0 0-4.112-4.12 4.116 4.116 0 0 0-4.112 4.12 4.116 4.116 0 0 0 4.112 4.12M35.238 18.104a4.03 4.03 0 0 0 4.026-4.033 4.03 4.03 0 0 0-4.026-4.033 4.03 4.03 0 0 0-4.025 4.033 4.03 4.03 0 0 0 4.025 4.033"/><path d="M35.238 18.104a4.03 4.03 0 0 0 4.026-4.033 4.03 4.03 0 0 0-4.026-4.033 4.03 4.03 0 0 0-4.025 4.033 4.03 4.03 0 0 0 4.025 4.033M18.549 40a3.33 3.33 0 0 0 3.328-3.334 3.33 3.33 0 0 0-3.328-3.335 3.33 3.33 0 0 0-3.329 3.335A3.33 3.33 0 0 0 18.55 40"/><path d="M18.549 40a3.33 3.33 0 0 0 3.328-3.334 3.33 3.33 0 0 0-3.328-3.335 3.33 3.33 0 0 0-3.329 3.335A3.33 3.33 0 0 0 18.55 40M5.086 8.787a.801.801 0 1 0-.001-1.603.801.801 0 0 0 .001 1.603"/><path d="M5.086 8.787a.801.801 0 1 0-.001-1.603.801.801 0 0 0 .001 1.603M13.96 39.004a.913.913 0 1 0-.001-1.826.913.913 0 0 0 .001 1.826"/><path d="M13.96 39.004a.913.913 0 1 0-.001-1.826.913.913 0 0 0 .001 1.826M8.947 20.065c.627 0 1.136-.51 1.136-1.14a1.138 1.138 0 1 0-1.136 1.14"/><path d="M8.947 20.065c.627 0 1.136-.51 1.136-1.14a1.138 1.138 0 1 0-1.136 1.14M22.658 39.835a.818.818 0 1 0-.002-1.636.818.818 0 0 0 .002 1.636"/><path d="M22.658 39.835a.818.818 0 1 0-.002-1.636.818.818 0 0 0 .002 1.636M8.989 22.774a.818.818 0 1 0-.002-1.637.818.818 0 0 0 .002 1.637"/><path d="M8.989 22.774a.818.818 0 1 0-.002-1.637.818.818 0 0 0 .002 1.637M11.038 7.541c.716 0 1.296-.58 1.296-1.298a1.297 1.297 0 1 0-1.296 1.298"/><path d="M11.038 7.541c.716 0 1.296-.58 1.296-1.298a1.297 1.297 0 1 0-1.296 1.298M22.09 1.529a.675.675 0 1 0-.002-1.35.675.675 0 0 0 .002 1.35"/><path d="M22.09 1.529a.675.675 0 1 0-.002-1.35.675.675 0 0 0 .002 1.35M.957 17.708a.675.675 0 1 0 0-1.35.675.675 0 0 0 0 1.35"/><path d="M.957 17.708a.675.675 0 1 0 0-1.35.675.675 0 0 0 0 1.35M23.83 1.708a.675.675 0 1 0 0-1.35.675.675 0 0 0 0 1.35"/><path d="M23.83 1.708a.675.675 0 1 0 0-1.35.675.675 0 0 0 0 1.35M9.151 27.985a2.29 2.29 0 0 0 2.29-2.294 2.29 2.29 0 0 0-2.29-2.294 2.29 2.29 0 0 0-2.29 2.294 2.29 2.29 0 0 0 2.29 2.294"/><path d="M9.151 27.985a2.29 2.29 0 0 0 2.29-2.294 2.29 2.29 0 0 0-2.29-2.294 2.29 2.29 0 0 0-2.29 2.294 2.29 2.29 0 0 0 2.29 2.294M38.39 20.858c.89 0 1.61-.722 1.61-1.613 0-.89-.72-1.612-1.61-1.612-.889 0-1.61.722-1.61 1.613 0 .89.721 1.612 1.61 1.612"/><path d="M38.39 20.858c.89 0 1.61-.722 1.61-1.613 0-.89-.72-1.612-1.61-1.612-.889 0-1.61.722-1.61 1.613 0 .89.721 1.612 1.61 1.612M33.203 8.06a1.16 1.16 0 1 0-.002-2.32 1.16 1.16 0 0 0 .002 2.32"/><path d="M33.203 8.06a1.16 1.16 0 1 0-.002-2.32 1.16 1.16 0 0 0 .002 2.32"/></g></g></svg>