<svg width="40" height="40" viewBox="0 0 40 40" fill="none" xmlns="http://www.w3.org/2000/svg">
<g id="Group">
<g id="Group_2">
<g id="Vector">
<path d="M27.8201 9.69347C30.0232 9.69347 31.8092 7.90411 31.8092 5.69683C31.8092 3.48955 30.0232 1.7002 27.8201 1.7002C25.617 1.7002 23.8311 3.48955 23.8311 5.69683C23.8311 7.90411 25.617 9.69347 27.8201 9.69347Z" fill="#0D1D3B"/>
<path d="M27.8201 9.69347C30.0232 9.69347 31.8092 7.90411 31.8092 5.69683C31.8092 3.48955 30.0232 1.7002 27.8201 1.7002C25.617 1.7002 23.8311 3.48955 23.8311 5.69683C23.8311 7.90411 25.617 9.69347 27.8201 9.69347Z" fill="#0D1D3B"/>
</g>
<g id="Vector_2">
<path d="M28.7326 33.7742C31.517 33.7742 33.7742 31.5128 33.7742 28.7231C33.7742 25.9334 31.517 23.6719 28.7326 23.6719C25.9481 23.6719 23.6909 25.9334 23.6909 28.7231C23.6909 31.5128 25.9481 33.7742 28.7326 33.7742Z" fill="#0D1D3B"/>
<path d="M28.7326 33.7742C31.517 33.7742 33.7742 31.5128 33.7742 28.7231C33.7742 25.9334 31.517 23.6719 28.7326 23.6719C25.9481 23.6719 23.6909 25.9334 23.6909 28.7231C23.6909 31.5128 25.9481 33.7742 28.7326 33.7742Z" fill="#0D1D3B"/>
</g>
<g id="Vector_3">
<path d="M16.606 26.8972C19.8496 26.8972 22.479 24.2628 22.479 21.0131C22.479 17.7633 19.8496 15.1289 16.606 15.1289C13.3624 15.1289 10.7329 17.7633 10.7329 21.0131C10.7329 24.2628 13.3624 26.8972 16.606 26.8972Z" fill="#0D1D3B"/>
<path d="M16.606 26.8972C19.8496 26.8972 22.479 24.2628 22.479 21.0131C22.479 17.7633 19.8496 15.1289 16.606 15.1289C13.3624 15.1289 10.7329 17.7633 10.7329 21.0131C10.7329 24.2628 13.3624 26.8972 16.606 26.8972Z" fill="#0D1D3B"/>
</g>
</g>
<g id="Group_3" opacity="0.8">
<g id="Vector_4">
<path d="M18.0196 31.7266C19.1482 31.7266 20.0631 30.81 20.0631 29.6792C20.0631 28.5485 19.1482 27.6318 18.0196 27.6318C16.891 27.6318 15.9761 28.5485 15.9761 29.6792C15.9761 30.81 16.891 31.7266 18.0196 31.7266Z" fill="#0D1D3B"/>
<path d="M18.0196 31.7266C19.1482 31.7266 20.0631 30.81 20.0631 29.6792C20.0631 28.5485 19.1482 27.6318 18.0196 27.6318C16.891 27.6318 15.9761 28.5485 15.9761 29.6792C15.9761 30.81 16.891 31.7266 18.0196 31.7266Z" fill="#0D1D3B"/>
</g>
<g id="Vector_5">
<path d="M25.6899 39.0266C26.5943 39.0266 27.3275 38.292 27.3275 37.3858C27.3275 36.4797 26.5943 35.7451 25.6899 35.7451C24.7854 35.7451 24.0522 36.4797 24.0522 37.3858C24.0522 38.292 24.7854 39.0266 25.6899 39.0266Z" fill="#0D1D3B"/>
<path d="M25.6899 39.0266C26.5943 39.0266 27.3275 38.292 27.3275 37.3858C27.3275 36.4797 26.5943 35.7451 25.6899 35.7451C24.7854 35.7451 24.0522 36.4797 24.0522 37.3858C24.0522 38.292 24.7854 39.0266 25.6899 39.0266Z" fill="#0D1D3B"/>
</g>
<g id="Vector_6">
<path d="M34.9303 9.51399C35.357 9.51399 35.7029 9.16742 35.7029 8.7399C35.7029 8.31239 35.357 7.96582 34.9303 7.96582C34.5036 7.96582 34.1577 8.31239 34.1577 8.7399C34.1577 9.16742 34.5036 9.51399 34.9303 9.51399Z" fill="#0D1D3B"/>
<path d="M34.9303 9.51399C35.357 9.51399 35.7029 9.16742 35.7029 8.7399C35.7029 8.31239 35.357 7.96582 34.9303 7.96582C34.5036 7.96582 34.1577 8.31239 34.1577 8.7399C34.1577 9.16742 34.5036 9.51399 34.9303 9.51399Z" fill="#0D1D3B"/>
</g>
<g id="Vector_7">
<path d="M3.79873 24.7847C5.8967 24.7847 7.59745 23.0807 7.59745 20.9788C7.59745 18.8768 5.8967 17.1729 3.79873 17.1729C1.70075 17.1729 0 18.8768 0 20.9788C0 23.0807 1.70075 24.7847 3.79873 24.7847Z" fill="#0D1D3B"/>
<path d="M3.79873 24.7847C5.8967 24.7847 7.59745 23.0807 7.59745 20.9788C7.59745 18.8768 5.8967 17.1729 3.79873 17.1729C1.70075 17.1729 0 18.8768 0 20.9788C0 23.0807 1.70075 24.7847 3.79873 24.7847Z" fill="#0D1D3B"/>
</g>
<g id="Vector_8">
<path d="M3.36743 29.3174C4.44193 29.3174 5.31298 28.4447 5.31298 27.3682C5.31298 26.2916 4.44193 25.4189 3.36743 25.4189C2.29293 25.4189 1.42188 26.2916 1.42188 27.3682C1.42188 28.4447 2.29293 29.3174 3.36743 29.3174Z" fill="#0D1D3B"/>
<path d="M3.36743 29.3174C4.44193 29.3174 5.31298 28.4447 5.31298 27.3682C5.31298 26.2916 4.44193 25.4189 3.36743 25.4189C2.29293 25.4189 1.42188 26.2916 1.42188 27.3682C1.42188 28.4447 2.29293 29.3174 3.36743 29.3174Z" fill="#0D1D3B"/>
</g>
<g id="Vector_9">
<path d="M22.4059 16.2282C24.0262 16.2282 25.3396 14.9122 25.3396 13.2889C25.3396 11.6656 24.0262 10.3496 22.4059 10.3496C20.7856 10.3496 19.4722 11.6656 19.4722 13.2889C19.4722 14.9122 20.7856 16.2282 22.4059 16.2282Z" fill="#0D1D3B"/>
<path d="M22.4059 16.2282C24.0262 16.2282 25.3396 14.9122 25.3396 13.2889C25.3396 11.6656 24.0262 10.3496 22.4059 10.3496C20.7856 10.3496 19.4722 11.6656 19.4722 13.2889C19.4722 14.9122 20.7856 16.2282 22.4059 16.2282Z" fill="#0D1D3B"/>
</g>
<g id="Vector_10">
<path d="M15.5814 14.1163C16.3359 14.1163 16.9475 13.5035 16.9475 12.7476C16.9475 11.9917 16.3359 11.3789 15.5814 11.3789C14.8269 11.3789 14.2153 11.9917 14.2153 12.7476C14.2153 13.5035 14.8269 14.1163 15.5814 14.1163Z" fill="#0D1D3B"/>
<path d="M15.5814 14.1163C16.3359 14.1163 16.9475 13.5035 16.9475 12.7476C16.9475 11.9917 16.3359 11.3789 15.5814 11.3789C14.8269 11.3789 14.2153 11.9917 14.2153 12.7476C14.2153 13.5035 14.8269 14.1163 15.5814 14.1163Z" fill="#0D1D3B"/>
</g>
<g id="Vector_11">
<path d="M22.8231 9.67651C23.3982 9.67651 23.8645 9.20939 23.8645 8.63318C23.8645 8.05696 23.3982 7.58984 22.8231 7.58984C22.248 7.58984 21.7817 8.05696 21.7817 8.63318C21.7817 9.20939 22.248 9.67651 22.8231 9.67651Z" fill="#0D1D3B"/>
<path d="M22.8231 9.67651C23.3982 9.67651 23.8645 9.20939 23.8645 8.63318C23.8645 8.05696 23.3982 7.58984 22.8231 7.58984C22.248 7.58984 21.7817 8.05696 21.7817 8.63318C21.7817 9.20939 22.248 9.67651 22.8231 9.67651Z" fill="#0D1D3B"/>
</g>
<g id="Vector_12">
<path d="M30.3927 22.9987C31.4455 22.9987 32.299 22.1435 32.299 21.0887C32.299 20.0338 31.4455 19.1787 30.3927 19.1787C29.3398 19.1787 28.4863 20.0338 28.4863 21.0887C28.4863 22.1435 29.3398 22.9987 30.3927 22.9987Z" fill="#0D1D3B"/>
<path d="M30.3927 22.9987C31.4455 22.9987 32.299 22.1435 32.299 21.0887C32.299 20.0338 31.4455 19.1787 30.3927 19.1787C29.3398 19.1787 28.4863 20.0338 28.4863 21.0887C28.4863 22.1435 29.3398 22.9987 30.3927 22.9987Z" fill="#0D1D3B"/>
</g>
<g id="Vector_13">
<path d="M25.9584 20.9932C27.2803 20.9932 28.3518 19.9196 28.3518 18.5952C28.3518 17.2709 27.2803 16.1973 25.9584 16.1973C24.6365 16.1973 23.5649 17.2709 23.5649 18.5952C23.5649 19.9196 24.6365 20.9932 25.9584 20.9932Z" fill="#0D1D3B"/>
<path d="M25.9584 20.9932C27.2803 20.9932 28.3518 19.9196 28.3518 18.5952C28.3518 17.2709 27.2803 16.1973 25.9584 16.1973C24.6365 16.1973 23.5649 17.2709 23.5649 18.5952C23.5649 19.9196 24.6365 20.9932 25.9584 20.9932Z" fill="#0D1D3B"/>
</g>
<g id="Vector_14">
<path d="M21.9609 33.7736C22.8653 33.7736 23.5985 33.0391 23.5985 32.1329C23.5985 31.2268 22.8653 30.4922 21.9609 30.4922C21.0564 30.4922 20.3232 31.2268 20.3232 32.1329C20.3232 33.0391 21.0564 33.7736 21.9609 33.7736Z" fill="#0D1D3B"/>
<path d="M21.9609 33.7736C22.8653 33.7736 23.5985 33.0391 23.5985 32.1329C23.5985 31.2268 22.8653 30.4922 21.9609 30.4922C21.0564 30.4922 20.3232 31.2268 20.3232 32.1329C20.3232 33.0391 21.0564 33.7736 21.9609 33.7736Z" fill="#0D1D3B"/>
</g>
<g id="Vector_15">
<path d="M2.82458 16.6629C3.96711 16.6629 4.89331 15.7349 4.89331 14.5902C4.89331 13.4455 3.96711 12.5176 2.82458 12.5176C1.68206 12.5176 0.755859 13.4455 0.755859 14.5902C0.755859 15.7349 1.68206 16.6629 2.82458 16.6629Z" fill="#0D1D3B"/>
<path d="M2.82458 16.6629C3.96711 16.6629 4.89331 15.7349 4.89331 14.5902C4.89331 13.4455 3.96711 12.5176 2.82458 12.5176C1.68206 12.5176 0.755859 13.4455 0.755859 14.5902C0.755859 15.7349 1.68206 16.6629 2.82458 16.6629Z" fill="#0D1D3B"/>
</g>
<g id="Vector_16">
<path d="M4.93553 31.9342C5.60187 31.9342 6.14205 31.393 6.14205 30.7254C6.14205 30.0578 5.60187 29.5166 4.93553 29.5166C4.26918 29.5166 3.729 30.0578 3.729 30.7254C3.729 31.393 4.26918 31.9342 4.93553 31.9342Z" fill="#0D1D3B"/>
<path d="M4.93553 31.9342C5.60187 31.9342 6.14205 31.393 6.14205 30.7254C6.14205 30.0578 5.60187 29.5166 4.93553 29.5166C4.26918 29.5166 3.729 30.0578 3.729 30.7254C3.729 31.393 4.26918 31.9342 4.93553 31.9342Z" fill="#0D1D3B"/>
</g>
<g id="Vector_17">
<path d="M24.8779 24.028C25.5443 24.028 26.0844 23.4868 26.0844 22.8192C26.0844 22.1515 25.5443 21.6104 24.8779 21.6104C24.2116 21.6104 23.6714 22.1515 23.6714 22.8192C23.6714 23.4868 24.2116 24.028 24.8779 24.028Z" fill="#0D1D3B"/>
<path d="M24.8779 24.028C25.5443 24.028 26.0844 23.4868 26.0844 22.8192C26.0844 22.1515 25.5443 21.6104 24.8779 21.6104C24.2116 21.6104 23.6714 22.1515 23.6714 22.8192C23.6714 23.4868 24.2116 24.028 24.8779 24.028Z" fill="#0D1D3B"/>
</g>
<g id="Vector_18">
<path d="M31.0395 11.4655C31.7059 11.4655 32.2461 10.9243 32.2461 10.2567C32.2461 9.58905 31.7059 9.04785 31.0395 9.04785C30.3732 9.04785 29.833 9.58905 29.833 10.2567C29.833 10.9243 30.3732 11.4655 31.0395 11.4655Z" fill="#0D1D3B"/>
<path d="M31.0395 11.4655C31.7059 11.4655 32.2461 10.9243 32.2461 10.2567C32.2461 9.58905 31.7059 9.04785 31.0395 9.04785C30.3732 9.04785 29.833 9.58905 29.833 10.2567C29.833 10.9243 30.3732 11.4655 31.0395 11.4655Z" fill="#0D1D3B"/>
</g>
<g id="Vector_19">
<path d="M35.7422 30.9385C36.5756 30.9385 37.2511 30.2616 37.2511 29.4267C37.2511 28.5919 36.5756 27.915 35.7422 27.915C34.9089 27.915 34.2334 28.5919 34.2334 29.4267C34.2334 30.2616 34.9089 30.9385 35.7422 30.9385Z" fill="#0D1D3B"/>
<path d="M35.7422 30.9385C36.5756 30.9385 37.2511 30.2616 37.2511 29.4267C37.2511 28.5919 36.5756 27.915 35.7422 27.915C34.9089 27.915 34.2334 28.5919 34.2334 29.4267C34.2334 30.2616 34.9089 30.9385 35.7422 30.9385Z" fill="#0D1D3B"/>
</g>
<g id="Vector_20">
<path d="M33.094 34.4439C33.5315 34.4439 33.8862 34.0885 33.8862 33.6502C33.8862 33.2118 33.5315 32.8564 33.094 32.8564C32.6564 32.8564 32.3018 33.2118 32.3018 33.6502C32.3018 34.0885 32.6564 34.4439 33.094 34.4439Z" fill="#0D1D3B"/>
<path d="M33.094 34.4439C33.5315 34.4439 33.8862 34.0885 33.8862 33.6502C33.8862 33.2118 33.5315 32.8564 33.094 32.8564C32.6564 32.8564 32.3018 33.2118 32.3018 33.6502C32.3018 34.0885 32.6564 34.4439 33.094 34.4439Z" fill="#0D1D3B"/>
</g>
<g id="Vector_21">
<path d="M34.3987 32.7554C34.8362 32.7554 35.1909 32.4 35.1909 31.9617C35.1909 31.5233 34.8362 31.168 34.3987 31.168C33.9611 31.168 33.6064 31.5233 33.6064 31.9617C33.6064 32.4 33.9611 32.7554 34.3987 32.7554Z" fill="#0D1D3B"/>
<path d="M34.3987 32.7554C34.8362 32.7554 35.1909 32.4 35.1909 31.9617C35.1909 31.5233 34.8362 31.168 34.3987 31.168C33.9611 31.168 33.6064 31.5233 33.6064 31.9617C33.6064 32.4 33.9611 32.7554 34.3987 32.7554Z" fill="#0D1D3B"/>
</g>
<g id="Vector_22">
<path d="M9.74434 16.1778C11.6939 16.1778 13.2743 14.5944 13.2743 12.6412C13.2743 10.6879 11.6939 9.10449 9.74434 9.10449C7.79479 9.10449 6.21436 10.6879 6.21436 12.6412C6.21436 14.5944 7.79479 16.1778 9.74434 16.1778Z" fill="#0D1D3B"/>
<path d="M9.74434 16.1778C11.6939 16.1778 13.2743 14.5944 13.2743 12.6412C13.2743 10.6879 11.6939 9.10449 9.74434 9.10449C7.79479 9.10449 6.21436 10.6879 6.21436 12.6412C6.21436 14.5944 7.79479 16.1778 9.74434 16.1778Z" fill="#0D1D3B"/>
</g>
<g id="Vector_23">
<path d="M36.2991 27.0626C37.9348 27.0626 39.2608 25.7341 39.2608 24.0953C39.2608 22.4564 37.9348 21.1279 36.2991 21.1279C34.6634 21.1279 33.3374 22.4564 33.3374 24.0953C33.3374 25.7341 34.6634 27.0626 36.2991 27.0626Z" fill="#0D1D3B"/>
<path d="M36.2991 27.0626C37.9348 27.0626 39.2608 25.7341 39.2608 24.0953C39.2608 22.4564 37.9348 21.1279 36.2991 21.1279C34.6634 21.1279 33.3374 22.4564 33.3374 24.0953C33.3374 25.7341 34.6634 27.0626 36.2991 27.0626Z" fill="#0D1D3B"/>
</g>
<g id="Vector_24">
<path d="M11.8526 4.53763C12.6102 4.53763 13.2243 3.92234 13.2243 3.16334C13.2243 2.40435 12.6102 1.78906 11.8526 1.78906C11.0951 1.78906 10.481 2.40435 10.481 3.16334C10.481 3.92234 11.0951 4.53763 11.8526 4.53763Z" fill="#0D1D3B"/>
<path d="M11.8526 4.53763C12.6102 4.53763 13.2243 3.92234 13.2243 3.16334C13.2243 2.40435 12.6102 1.78906 11.8526 1.78906C11.0951 1.78906 10.481 2.40435 10.481 3.16334C10.481 3.92234 11.0951 4.53763 11.8526 4.53763Z" fill="#0D1D3B"/>
</g>
<g id="Vector_25">
<path d="M29.4239 14.4331C30.1815 14.4331 30.7956 13.8178 30.7956 13.0589C30.7956 12.2999 30.1815 11.6846 29.4239 11.6846C28.6664 11.6846 28.0522 12.2999 28.0522 13.0589C28.0522 13.8178 28.6664 14.4331 29.4239 14.4331Z" fill="#0D1D3B"/>
<path d="M29.4239 14.4331C30.1815 14.4331 30.7956 13.8178 30.7956 13.0589C30.7956 12.2999 30.1815 11.6846 29.4239 11.6846C28.6664 11.6846 28.0522 12.2999 28.0522 13.0589C28.0522 13.8178 28.6664 14.4331 29.4239 14.4331Z" fill="#0D1D3B"/>
</g>
<g id="Vector_26">
<path d="M18.067 11.7935C18.8246 11.7935 19.4387 11.1782 19.4387 10.4192C19.4387 9.66021 18.8246 9.04492 18.067 9.04492C17.3094 9.04492 16.6953 9.66021 16.6953 10.4192C16.6953 11.1782 17.3094 11.7935 18.067 11.7935Z" fill="#0D1D3B"/>
<path d="M18.067 11.7935C18.8246 11.7935 19.4387 11.1782 19.4387 10.4192C19.4387 9.66021 18.8246 9.04492 18.067 9.04492C17.3094 9.04492 16.6953 9.66021 16.6953 10.4192C16.6953 11.1782 17.3094 11.7935 18.067 11.7935Z" fill="#0D1D3B"/>
</g>
<g id="Vector_27">
<path d="M6.71852 7.15726C7.21943 7.15726 7.62551 6.75042 7.62551 6.24855C7.62551 5.74669 7.21943 5.33984 6.71852 5.33984C6.2176 5.33984 5.81152 5.74669 5.81152 6.24855C5.81152 6.75042 6.2176 7.15726 6.71852 7.15726Z" fill="#0D1D3B"/>
<path d="M6.71852 7.15726C7.21943 7.15726 7.62551 6.75042 7.62551 6.24855C7.62551 5.74669 7.21943 5.33984 6.71852 5.33984C6.2176 5.33984 5.81152 5.74669 5.81152 6.24855C5.81152 6.75042 6.2176 7.15726 6.71852 7.15726Z" fill="#0D1D3B"/>
</g>
<g id="Vector_28">
<path d="M8.77027 5.31742C9.27119 5.31742 9.67726 4.91057 9.67726 4.40871C9.67726 3.90684 9.27119 3.5 8.77027 3.5C8.26936 3.5 7.86328 3.90684 7.86328 4.40871C7.86328 4.91057 8.26936 5.31742 8.77027 5.31742Z" fill="#0D1D3B"/>
<path d="M8.77027 5.31742C9.27119 5.31742 9.67726 4.91057 9.67726 4.40871C9.67726 3.90684 9.27119 3.5 8.77027 3.5C8.26936 3.5 7.86328 3.90684 7.86328 4.40871C7.86328 4.91057 8.26936 5.31742 8.77027 5.31742Z" fill="#0D1D3B"/>
</g>
<g id="Vector_29">
<path d="M30.1853 16.626C30.6862 16.626 31.0923 16.2192 31.0923 15.7173C31.0923 15.2154 30.6862 14.8086 30.1853 14.8086C29.6844 14.8086 29.2783 15.2154 29.2783 15.7173C29.2783 16.2192 29.6844 16.626 30.1853 16.626Z" fill="#0D1D3B"/>
<path d="M30.1853 16.626C30.6862 16.626 31.0923 16.2192 31.0923 15.7173C31.0923 15.2154 30.6862 14.8086 30.1853 14.8086C29.6844 14.8086 29.2783 15.2154 29.2783 15.7173C29.2783 16.2192 29.6844 16.626 30.1853 16.626Z" fill="#0D1D3B"/>
</g>
<g id="Vector_30">
<path d="M11.2005 37.1058C13.5953 37.1058 15.5367 35.1608 15.5367 32.7614C15.5367 30.362 13.5953 28.417 11.2005 28.417C8.80564 28.417 6.86426 30.362 6.86426 32.7614C6.86426 35.1608 8.80564 37.1058 11.2005 37.1058Z" fill="#0D1D3B"/>
<path d="M11.2005 37.1058C13.5953 37.1058 15.5367 35.1608 15.5367 32.7614C15.5367 30.362 13.5953 28.417 11.2005 28.417C8.80564 28.417 6.86426 30.362 6.86426 32.7614C6.86426 35.1608 8.80564 37.1058 11.2005 37.1058Z" fill="#0D1D3B"/>
</g>
<g id="Vector_31">
<path d="M21.6363 29.5194C22.3134 29.5194 22.8624 28.9694 22.8624 28.2909C22.8624 27.6125 22.3134 27.0625 21.6363 27.0625C20.9591 27.0625 20.4102 27.6125 20.4102 28.2909C20.4102 28.9694 20.9591 29.5194 21.6363 29.5194Z" fill="#0D1D3B"/>
<path d="M21.6363 29.5194C22.3134 29.5194 22.8624 28.9694 22.8624 28.2909C22.8624 27.6125 22.3134 27.0625 21.6363 27.0625C20.9591 27.0625 20.4102 27.6125 20.4102 28.2909C20.4102 28.9694 20.9591 29.5194 21.6363 29.5194Z" fill="#0D1D3B"/>
</g>
<g id="Vector_32">
<path d="M17.7338 8.24301C20.005 8.24301 21.8461 6.3984 21.8461 4.12297C21.8461 1.84753 20.005 0.00292969 17.7338 0.00292969C15.4627 0.00292969 13.6216 1.84753 13.6216 4.12297C13.6216 6.3984 15.4627 8.24301 17.7338 8.24301Z" fill="#0D1D3B"/>
<path d="M17.7338 8.24301C20.005 8.24301 21.8461 6.3984 21.8461 4.12297C21.8461 1.84753 20.005 0.00292969 17.7338 0.00292969C15.4627 0.00292969 13.6216 1.84753 13.6216 4.12297C13.6216 6.3984 15.4627 8.24301 17.7338 8.24301Z" fill="#0D1D3B"/>
</g>
<g id="Vector_33">
<path d="M35.2384 18.1043C37.4616 18.1043 39.2638 16.2986 39.2638 14.0712C39.2638 11.8438 37.4616 10.0381 35.2384 10.0381C33.0152 10.0381 31.2129 11.8438 31.2129 14.0712C31.2129 16.2986 33.0152 18.1043 35.2384 18.1043Z" fill="#0D1D3B"/>
<path d="M35.2384 18.1043C37.4616 18.1043 39.2638 16.2986 39.2638 14.0712C39.2638 11.8438 37.4616 10.0381 35.2384 10.0381C33.0152 10.0381 31.2129 11.8438 31.2129 14.0712C31.2129 16.2986 33.0152 18.1043 35.2384 18.1043Z" fill="#0D1D3B"/>
</g>
<g id="Vector_34">
<path d="M18.5486 40.0005C20.3869 40.0005 21.8771 38.5075 21.8771 36.6658C21.8771 34.8241 20.3869 33.3311 18.5486 33.3311C16.7104 33.3311 15.2202 34.8241 15.2202 36.6658C15.2202 38.5075 16.7104 40.0005 18.5486 40.0005Z" fill="#0D1D3B"/>
<path d="M18.5486 40.0005C20.3869 40.0005 21.8771 38.5075 21.8771 36.6658C21.8771 34.8241 20.3869 33.3311 18.5486 33.3311C16.7104 33.3311 15.2202 34.8241 15.2202 36.6658C15.2202 38.5075 16.7104 40.0005 18.5486 40.0005Z" fill="#0D1D3B"/>
</g>
<g id="Vector_35">
<path d="M5.08626 8.78688C5.52843 8.78688 5.88688 8.42775 5.88688 7.98475C5.88688 7.54174 5.52843 7.18262 5.08626 7.18262C4.64409 7.18262 4.28564 7.54174 4.28564 7.98475C4.28564 8.42775 4.64409 8.78688 5.08626 8.78688Z" fill="#0D1D3B"/>
<path d="M5.08626 8.78688C5.52843 8.78688 5.88688 8.42775 5.88688 7.98475C5.88688 7.54174 5.52843 7.18262 5.08626 7.18262C4.64409 7.18262 4.28564 7.54174 4.28564 7.98475C4.28564 8.42775 4.64409 8.78688 5.08626 8.78688Z" fill="#0D1D3B"/>
</g>
<g id="Vector_36">
<path d="M13.9604 39.0044C14.4645 39.0044 14.873 38.5951 14.873 38.0901C14.873 37.5851 14.4645 37.1758 13.9604 37.1758C13.4564 37.1758 13.0479 37.5851 13.0479 38.0901C13.0479 38.5951 13.4564 39.0044 13.9604 39.0044Z" fill="#0D1D3B"/>
<path d="M13.9604 39.0044C14.4645 39.0044 14.873 38.5951 14.873 38.0901C14.873 37.5851 14.4645 37.1758 13.9604 37.1758C13.4564 37.1758 13.0479 37.5851 13.0479 38.0901C13.0479 38.5951 13.4564 39.0044 13.9604 39.0044Z" fill="#0D1D3B"/>
</g>
<g id="Vector_37">
<path d="M8.9466 20.0645C9.57429 20.0645 10.0831 19.5547 10.0831 18.9258C10.0831 18.2969 9.57429 17.7871 8.9466 17.7871C8.3189 17.7871 7.81006 18.2969 7.81006 18.9258C7.81006 19.5547 8.3189 20.0645 8.9466 20.0645Z" fill="#0D1D3B"/>
<path d="M8.9466 20.0645C9.57429 20.0645 10.0831 19.5547 10.0831 18.9258C10.0831 18.2969 9.57429 17.7871 8.9466 17.7871C8.3189 17.7871 7.81006 18.2969 7.81006 18.9258C7.81006 19.5547 8.3189 20.0645 8.9466 20.0645Z" fill="#0D1D3B"/>
</g>
<g id="Vector_38">
<path d="M22.6577 39.8352C23.1092 39.8352 23.4752 39.4685 23.4752 39.0162C23.4752 38.5639 23.1092 38.1973 22.6577 38.1973C22.2063 38.1973 21.8403 38.5639 21.8403 39.0162C21.8403 39.4685 22.2063 39.8352 22.6577 39.8352Z" fill="#0D1D3B"/>
<path d="M22.6577 39.8352C23.1092 39.8352 23.4752 39.4685 23.4752 39.0162C23.4752 38.5639 23.1092 38.1973 22.6577 38.1973C22.2063 38.1973 21.8403 38.5639 21.8403 39.0162C21.8403 39.4685 22.2063 39.8352 22.6577 39.8352Z" fill="#0D1D3B"/>
</g>
<g id="Vector_39">
<path d="M8.9888 22.7737C9.44024 22.7737 9.80621 22.407 9.80621 21.9547C9.80621 21.5024 9.44024 21.1357 8.9888 21.1357C8.53736 21.1357 8.17139 21.5024 8.17139 21.9547C8.17139 22.407 8.53736 22.7737 8.9888 22.7737Z" fill="#0D1D3B"/>
<path d="M8.9888 22.7737C9.44024 22.7737 9.80621 22.407 9.80621 21.9547C9.80621 21.5024 9.44024 21.1357 8.9888 21.1357C8.53736 21.1357 8.17139 21.5024 8.17139 21.9547C8.17139 22.407 8.53736 22.7737 8.9888 22.7737Z" fill="#0D1D3B"/>
</g>
<g id="Vector_40">
<path d="M11.0378 7.54145C11.7536 7.54145 12.3339 6.96006 12.3339 6.24289C12.3339 5.52572 11.7536 4.94434 11.0378 4.94434C10.322 4.94434 9.7417 5.52572 9.7417 6.24289C9.7417 6.96006 10.322 7.54145 11.0378 7.54145Z" fill="#0D1D3B"/>
<path d="M11.0378 7.54145C11.7536 7.54145 12.3339 6.96006 12.3339 6.24289C12.3339 5.52572 11.7536 4.94434 11.0378 4.94434C10.322 4.94434 9.7417 5.52572 9.7417 6.24289C9.7417 6.96006 10.322 7.54145 11.0378 7.54145Z" fill="#0D1D3B"/>
</g>
<g id="Vector_41">
<path d="M22.0897 1.5286C22.4623 1.5286 22.7643 1.22598 22.7643 0.85268C22.7643 0.479378 22.4623 0.176758 22.0897 0.176758C21.7171 0.176758 21.415 0.479378 21.415 0.85268C21.415 1.22598 21.7171 1.5286 22.0897 1.5286Z" fill="#0D1D3B"/>
<path d="M22.0897 1.5286C22.4623 1.5286 22.7643 1.22598 22.7643 0.85268C22.7643 0.479378 22.4623 0.176758 22.0897 0.176758C21.7171 0.176758 21.415 0.479378 21.415 0.85268C21.415 1.22598 21.7171 1.5286 22.0897 1.5286Z" fill="#0D1D3B"/>
</g>
<g id="Vector_42">
<path d="M0.95736 17.7083C1.32996 17.7083 1.632 17.4057 1.632 17.0324C1.632 16.6591 1.32996 16.3564 0.95736 16.3564C0.584764 16.3564 0.282715 16.6591 0.282715 17.0324C0.282715 17.4057 0.584764 17.7083 0.95736 17.7083Z" fill="#0D1D3B"/>
<path d="M0.95736 17.7083C1.32996 17.7083 1.632 17.4057 1.632 17.0324C1.632 16.6591 1.32996 16.3564 0.95736 16.3564C0.584764 16.3564 0.282715 16.6591 0.282715 17.0324C0.282715 17.4057 0.584764 17.7083 0.95736 17.7083Z" fill="#0D1D3B"/>
</g>
<g id="Vector_43">
<path d="M23.8309 1.70829C24.2035 1.70829 24.5055 1.40567 24.5055 1.03237C24.5055 0.659066 24.2035 0.356445 23.8309 0.356445C23.4583 0.356445 23.1562 0.659066 23.1562 1.03237C23.1562 1.40567 23.4583 1.70829 23.8309 1.70829Z" fill="#0D1D3B"/>
<path d="M23.8309 1.70829C24.2035 1.70829 24.5055 1.40567 24.5055 1.03237C24.5055 0.659066 24.2035 0.356445 23.8309 0.356445C23.4583 0.356445 23.1562 0.659066 23.1562 1.03237C23.1562 1.40567 23.4583 1.70829 23.8309 1.70829Z" fill="#0D1D3B"/>
</g>
<g id="Vector_44">
<path d="M9.1512 27.9849C10.4159 27.9849 11.4411 26.9578 11.4411 25.6907C11.4411 24.4236 10.4159 23.3965 9.1512 23.3965C7.88654 23.3965 6.86133 24.4236 6.86133 25.6907C6.86133 26.9578 7.88654 27.9849 9.1512 27.9849Z" fill="#0D1D3B"/>
<path d="M9.1512 27.9849C10.4159 27.9849 11.4411 26.9578 11.4411 25.6907C11.4411 24.4236 10.4159 23.3965 9.1512 23.3965C7.88654 23.3965 6.86133 24.4236 6.86133 25.6907C6.86133 26.9578 7.88654 27.9849 9.1512 27.9849Z" fill="#0D1D3B"/>
</g>
<g id="Vector_45">
<path d="M38.3904 20.8582C39.2794 20.8582 40 20.1362 40 19.2455C40 18.3548 39.2794 17.6328 38.3904 17.6328C37.5014 17.6328 36.7808 18.3548 36.7808 19.2455C36.7808 20.1362 37.5014 20.8582 38.3904 20.8582Z" fill="#0D1D3B"/>
<path d="M38.3904 20.8582C39.2794 20.8582 40 20.1362 40 19.2455C40 18.3548 39.2794 17.6328 38.3904 17.6328C37.5014 17.6328 36.7808 18.3548 36.7808 19.2455C36.7808 20.1362 37.5014 20.8582 38.3904 20.8582Z" fill="#0D1D3B"/>
</g>
<g id="Vector_46">
<path d="M33.2029 8.06053C33.8429 8.06053 34.3618 7.54068 34.3618 6.89941C34.3618 6.25814 33.8429 5.73828 33.2029 5.73828C32.5628 5.73828 32.0439 6.25814 32.0439 6.89941C32.0439 7.54068 32.5628 8.06053 33.2029 8.06053Z" fill="#0D1D3B"/>
<path d="M33.2029 8.06053C33.8429 8.06053 34.3618 7.54068 34.3618 6.89941C34.3618 6.25814 33.8429 5.73828 33.2029 5.73828C32.5628 5.73828 32.0439 6.25814 32.0439 6.89941C32.0439 7.54068 32.5628 8.06053 33.2029 8.06053Z" fill="#0D1D3B"/>
</g>
</g>
</g>
</svg>
