<svg xmlns="http://www.w3.org/2000/svg" viewBox="0 0 170 208"><title>  Group 2</title><g fill="none"><g fill="#383747"><path d="m0 191c0.5-0.7 1.2-0.9 2-0.9 1.2 0 2.5 0 3.7 0 0.4 0 0.9-0.3 1.2-0.6 0.4-0.3 0.8-0.7 1.3-1.1-0.3-0.2-0.4-0.4-0.7-0.6-0.2-0.6 0.7-1.1 0.4-1.8 0.7-0.8 0-1.4-0.2-2-0.3-0.9-0.2-1.7 0.2-2.4-0.2-0.7-0.5-1.3-0.7-2-0.1-0.5 0.1-0.9 0.4-1.2 0.4-0.3 0.8-0.4 1.2-0.2 0.5 0.3 1 0.7 1.3 1 0 0.9 0.1 1.5 0.1 2.1 0 0.8 0.4 1.6-0.1 2.3 0.2 0.9 0.3 1.7 0.5 2.7 0.6-0.7 1.1-1.4 1.7-2.1 0 0-0.1 0-0.3-0.1 0.5-0.6 1.1-1.2 2.1-1.1 0.2 0.2 0.5 0.4 0.7 0.6 0 0.8-0.1 1.5-0.8 1.8-0.1 1.4-0.8 2.4-1.7 3.3-0.3 0.2-0.4 0.7-0.6 1.2 2.3-0.1 4.3-0.2 6.4-0.4-0.2 0.8-0.3 1.3-0.5 2.1-2.3 0.2-4.5 0.4-6.9 0.5 0.1 0.5 0.2 1 0.4 1.6-0.4 0.9-0.6 1.9-0.1 2.7-0.1 2.8-0.1 5.4-0.2 8.1-0.6 0.4-1.2 0.3-1.9 0.1-0.3-1.2-0.6-2.5-0.4-3.8 0-0.2 0.1-0.4 0.1-0.7-0.1-1.4-0.3-2.8-0.4-4.2 0-0.4 0.1-0.8 0.1-1.3-0.7 1.2-1.4 2.3-2 3.4-0.6 0.1-1 0.1-1.6 0.2 0.1-0.9 0.2-1.7 0.4-2.5 0-0.2 0.1-0.4 0.2-0.5 0.8-0.4 0.9-1.3 1.6-1.9-0.2-0.3-0.4-0.6-0.6-1-0.3 0.6-0.7 0.8-1.3 0.5-0.2-0.1-0.5-0.1-0.7 0-0.6 0.3-1.1 0.4-1.8 0-0.2-0.1-0.5 0.1-0.8 0.1-0.8-0.3-1.1-1-1.3-1.8v-0.2"/><path d="m138.3 9.5c0.3 0.1 0.6 0.4 0.8 0.3 0.8-0.3 1.7 0.2 2.4-0.3 0.4-0.2 0.8-0.2 1.2 0.2 0.2 0.2 0.6 0.4 0.8 0.6 0.4 0.3 0.5 0.8 0.1 1.1-0.9 0.8-1.8 1.6-2.7 2.4-0.5 0.9-1.1 1.7-1.7 2.8 0-0.1 0 0.1 0.1 0.4-0.1 0.2-0.3 0.4-0.5 0.6 0.3 1.5 0.1 3-0.5 4.3-0.6 1.2-1.5 1.3-2.7 0.5 0-3.2-0.5-6.5-0.2-9.8-0.2 0-0.5 0-0.7 0.1-1.1 0.5-2.2 0.6-3.3 0.3-0.8-0.2-1.2-0.8-1-1.6 0.1-0.4 0.2-0.8 0.4-1.1 0.3-0.6 0.5-0.6 1.3-0.4 0.4 0.1 0.8 0 1.4 0 0.4-0.6 1-1.3 1-2.3 0-0.2 0.2-0.5 0.3-0.7 0.1-0.2 0.3-0.5 0.2-0.7-0.5-1.1 0.1-2.1 0.2-3.2 0-0.2 0-0.4-0.1-0.6-0.2-0.7 0.1-1.2 0.4-1.8 0.2-0.4 0.6-0.5 1-0.5 0.4 0.1 0.7 0.3 0.9 0.7 0.5 1.1 0.4 2.3 0.4 3.4 0 0.4 0.1 0.9 0.1 1.3 0 0.2 0.1 0.4 0.1 0.5-0.4 1.2 0.3 2.3 0.2 3.5"/><path d="m41 206.5c-0.6 0.3-1.1 0.5-1.7 0.1-0.6-0.5-0.9-1-0.9-1.8 0.1-1.3 0.1-2.5 0.1-3.8 0-0.6-0.1-1.2-0.1-1.8-0.6 0.1-1.2 0.2-1.7 0.3 0-0.1 0-0.2-0.1-0.2 0.3-0.1 0.5-0.2 0.8-0.3-0.3-0.8-0.9-0.3-1.5-0.4 0-0.2 0-0.5 0.1-0.7 1.3-1.2 1.8-2.8 2.3-4.5 0.2-0.5 0.1-1.1 0.1-1.6 0.1-1 0.2-1.9 0.3-2.9 0.3-0.2 0.6-0.4 0.9-0.7 1.4 0.4 1.6 0.7 1.5 2.2 0 0.4 0.1 0.7 0.1 1.1-0.1 1.2-0.1 2.3-0.2 3.5 0 0.4 0 0.9 0 1.2 1.2 0.2 2.2 0.2 3-0.9 0.6 0.1 1.3 0.3 1.9 0.4 0.7 0.9 0.3 1.7-0.3 2.4-0.2 0.2-0.6 0.4-1 0.4-0.7 0.1-1.3 0-1.5 0.9 0 0.1-0.3 0.2-0.4 0.3-0.3 0.4-0.8 0.8-0.6 1.4-1.1 1.7-0.5 3.6-1.1 5.4"/><path d="m158.9 19.5c0.1-0.1 0.2-0.3 0.4-0.3 0.9-0.1 1-0.6 1-1.4 0-0.5 0.2-1 0.3-1.5 0-0.2 0.1-0.4 0.1-0.5-0.3-0.7 0-1.2 0.3-1.7-0.3-1.1-0.3-1.1 0.2-3.2 0.3-0.2 0.6-0.4 1-0.6 0.3 0.2 0.7 0.4 1 0.7 0.4 0.4 0.7 0.9 0.4 1.5-0.3 0.5-0.1 1 0 1.5 0.1 0.4 0.1 0.9 0.2 1.3 0 1.4 0 2.8 0 4.2 0.9 0.3 1.4-0.1 2-0.4 0.3-0.2 0.7-0.3 1.1-0.3 0.4 0 0.7 0.3 1 0.5 0.7 0.5 0.7 1.2-0.1 1.7-0.3 0.2-0.6 0.2-0.9 0.3-0.9 0.3-1.5 0.8-1.7 1.9-0.2 1-0.6 1.9-0.8 2.9-0.1 0.2-0.1 0.5-0.1 0.7 0 0.7-0.3 1.2-0.8 1.3-0.5 0.1-1.4-0.1-1.7-0.6-0.2-0.3-0.4-0.7-0.4-1-0.1-1.1-0.1-2.2-0.1-3.3 0-0.4-0.2-0.9-0.3-1.3-1.2-0.1-1.8-0.9-1.7-2.2"/></g></g></svg>
